<?xml version="1.0" encoding="iso-8859-1"?>
<!-- Generator: Adobe Illustrator 24.3.0, SVG Export Plug-In . SVG Version: 6.00 Build 0)  -->
<svg version="1.1" id="_1" xmlns="http://www.w3.org/2000/svg" xmlns:xlink="http://www.w3.org/1999/xlink" x="0px" y="0px"
	 viewBox="0 0 5892.978 2267.717" style="enable-background:new 0 0 5892.978 2267.717;" xml:space="preserve">
<g>
	<g>
		<g>
			<g>
				<g>
					<g>
						<g>
							<g>
								<path style="fill:#FFF0EB;" d="M1274.584,610.133h518.43c29.797,0,56.144-19.437,64.827-47.941
									c15.384-50.509,23.343-127.947-52.282-166.379c-117.78-59.855-204.667,107.16-204.667,107.16s-17.377-58.89-88.818-37.651
									c-71.44,21.239-77.233,88.818-77.233,88.818S1292.768,422.446,1274.584,610.133z"/>
							</g>
						</g>
					</g>
				</g>
			</g>
			<g>
				<g>
					<g>
						<g>
							<g>
								<g>
									<path style="fill:#FFF0EB;" d="M2741.822,460.179c72.265-11.115,86.995,28.775,86.995,28.775s17.27-68.077,67.093-88.379
										c49.823-20.303,64.458,12.923,64.458,12.923s37.302-138.836,175.627-114.381c138.325,24.455,69.458,228.791,69.458,228.791
										s29.663-48.163,80.059-24.49c50.396,23.673,9.712,103.688,9.712,103.688l-677.36,4.245
										C2617.864,611.349,2669.557,471.294,2741.822,460.179z"/>
								</g>
							</g>
						</g>
					</g>
				</g>
			</g>
			<g>
				<g>
					<g>
						<g>
							<g>
								<g>
									<g>
										<path style="fill:#FFF0EB;" d="M3754.497,656.129h624.352c0,0,35.401-74.404-28.965-82.599
											c-64.366-8.196-93.331,41.3-93.331,41.3s-9.655-26.74-77.24-42.216c-67.584-15.476-113.242,41.758-113.242,41.758
											s116.461-150.118,23.13-212.953C3995.87,338.584,3818.863,438.217,3754.497,656.129z"/>
									</g>
								</g>
							</g>
						</g>
					</g>
				</g>
			</g>
			<g>
				<g>
					<g>
						<g>
							<g>
								<g>
									<g>
										<path style="fill:#FFF0EB;" d="M2039.109,374.723h322.484c5.982,0,11.541-3.045,14.754-8.091
											c15.027-23.598,52.826-93.46,6.159-137.543c-56.842-53.694-191.983,100.451-191.983,100.451
											s-68.628-63.833-162.582,14.211C2015.341,354.217,2022.728,374.723,2039.109,374.723z"/>
									</g>
								</g>
							</g>
						</g>
					</g>
				</g>
			</g>
		</g>
		<g>
			<path style="fill:#4A75D3;" d="M903.786,1377.045c54.269,26.53,141.098,56.679,233.955,56.679
				c75.975,0,114.565-24.12,114.565-65.123c0-34.972-37.384-57.886-136.273-85.622c-138.683-38.59-253.248-109.74-253.248-250.838
				c0-147.127,132.654-255.66,343.695-255.66c110.946,0,185.717,19.295,248.425,45.825l-51.854,178.479
				c-38.59-15.676-107.33-42.207-200.19-42.207c-67.533,0-106.124,21.708-106.124,56.679c0,43.413,51.857,57.886,157.981,91.654
				c157.981,50.648,232.749,126.623,232.749,249.632c0,136.273-107.33,261.689-366.609,261.689
				c-107.33,0-212.247-28.94-264.104-55.473L903.786,1377.045z"/>
			<path style="fill:#4A75D3;" d="M1615.291,801.805c62.711-9.648,154.362-18.089,297.87-18.089
				c121.8,0,207.425,24.118,264.104,65.121c56.679,39.797,98.889,112.155,98.889,200.19c0,78.384-26.533,151.949-79.594,197.775
				c-69.946,61.505-168.834,89.241-294.253,89.241c-25.324,0-47.032-2.413-61.502-3.619v271.339h-225.514V801.805z
				 M1840.805,1159.972c13.264,2.413,30.149,3.619,59.089,3.619c88.035,0,150.746-39.797,150.746-113.361
				c0-59.089-44.619-97.68-135.066-97.68c-38.591,0-62.711,2.41-74.768,4.823V1159.972z"/>
			<path style="fill:#4A75D3;" d="M3240.912,1192.534c0,246.013-172.451,425.698-452.231,425.698
				c-267.723,0-430.526-179.686-430.526-413.641c0-248.425,178.482-428.111,444.996-428.111
				C3078.109,776.481,3240.912,953.754,3240.912,1192.534z M2600.551,1198.563c0,139.892,77.181,243.603,200.187,243.603
				c124.215,0,197.777-103.711,197.777-243.603s-77.181-246.013-198.984-246.013
				C2677.731,952.55,2600.551,1058.671,2600.551,1198.563z"/>
			<path style="fill:#4A75D3;" d="M3363.918,801.805c63.915-9.648,164.009-18.089,287.016-18.089
				c136.273,0,226.72,19.295,289.428,63.914c51.857,37.384,84.419,96.476,84.419,178.482c0,108.536-88.035,177.276-144.717,195.365
				v4.823c54.27,22.914,84.419,75.975,107.33,143.508c27.737,83.212,55.476,202.6,71.152,233.955h-231.543
				c-13.266-24.12-34.972-80.8-62.711-185.717c-25.324-97.682-57.886-116.978-133.86-116.978h-41v302.695h-225.514V801.805z
				 M3589.432,1140.677h67.533c89.238,0,142.302-36.178,142.302-97.682c0-61.504-45.825-92.857-123.006-92.857
				c-50.651,0-74.771,2.413-86.828,4.823V1140.677z"/>
			<path style="fill:#4A75D3;" d="M4333.504,976.668h-229.13V790.951h691.009v185.717H4561.43v627.095h-227.926V976.668z"/>
		</g>
		<g>
			<g>
				<g>
					<g>
						<g>
							<path style="fill:#CC4A79;" d="M757.83,1921.837v-20.25l-31.544-0.621c-18.066-4.785-36.692-7.216-55.416-7.216h10.779
								l-177.208-8.37v20.436c-0.254,2.454,0.957,5.058,3.926,6.034l15.396,5.062c21.818,7.174,44.638,10.829,67.605,10.829h160.706
								C755.795,1927.742,757.871,1924.773,757.83,1921.837z"/>
						</g>
						<g>
							<path style="fill:#F95873;" d="M752.074,1907.306H591.368c-22.967,0-45.787-3.656-67.605-10.83l-15.396-5.062
								c-6.214-2.043-4.744-11.22,1.797-11.22H670.87c22.967,0,45.788,3.656,67.605,10.829l15.396,5.062
								C760.085,1898.129,758.615,1907.306,752.074,1907.306z"/>
						</g>
					</g>
					<g>
						<g>
							<path style="fill:#CC4A79;" d="M757.83,1894.724v-20.25l-31.544-0.621c-18.066-4.785-36.692-7.216-55.416-7.216h10.779
								l-177.208-8.369v20.436c-0.254,2.454,0.957,5.058,3.926,6.034l15.396,5.062c21.818,7.174,44.638,10.83,67.605,10.83h160.706
								C755.795,1900.63,757.871,1897.661,757.83,1894.724z"/>
						</g>
						<g>
							<path style="fill:#F95873;" d="M752.074,1880.194H591.368c-22.967,0-45.787-3.656-67.605-10.83l-15.396-5.062
								c-6.214-2.043-4.744-11.221,1.797-11.221H670.87c22.967,0,45.788,3.656,67.605,10.83l15.396,5.062
								C760.085,1871.016,758.615,1880.194,752.074,1880.194z"/>
						</g>
					</g>
				</g>
				<g>
					<g>
						<g>
							<path style="fill:#CC4A79;" d="M1209.097,1921.837v-20.25l-31.544-0.621c-18.066-4.785-36.692-7.216-55.416-7.216h10.779
								l-177.208-8.37v20.436c-0.254,2.454,0.957,5.058,3.926,6.034l15.396,5.062c21.818,7.174,44.638,10.829,67.605,10.829h160.706
								C1207.061,1927.742,1209.138,1924.773,1209.097,1921.837z"/>
						</g>
						<g>
							<path style="fill:#F95873;" d="M1203.341,1907.306h-160.706c-22.967,0-45.787-3.656-67.605-10.83l-15.396-5.062
								c-6.214-2.043-4.744-11.22,1.797-11.22h160.706c22.967,0,45.788,3.656,67.605,10.829l15.396,5.062
								C1211.352,1898.129,1209.882,1907.306,1203.341,1907.306z"/>
						</g>
					</g>
					<g>
						<g>
							<path style="fill:#CC4A79;" d="M1209.097,1894.724v-20.25l-31.544-0.621c-18.066-4.785-36.692-7.216-55.416-7.216h10.779
								l-177.208-8.369v20.436c-0.254,2.454,0.957,5.058,3.926,6.034l15.396,5.062c21.818,7.174,44.638,10.83,67.605,10.83h160.706
								C1207.061,1900.63,1209.138,1897.661,1209.097,1894.724z"/>
						</g>
						<g>
							<path style="fill:#F95873;" d="M1203.341,1880.194h-160.706c-22.967,0-45.787-3.656-67.605-10.83l-15.396-5.062
								c-6.214-2.043-4.744-11.221,1.797-11.221h160.706c22.967,0,45.788,3.656,67.605,10.83l15.396,5.062
								C1211.352,1871.016,1209.882,1880.194,1203.341,1880.194z"/>
						</g>
					</g>
				</g>
				<g>
					<g>
						<path style="fill:#4087A3;" d="M1209.1,1867.51v-13.37l-31.544-0.621c-18.066-4.785-36.692-7.217-55.416-7.217H929.752
							l-425.31-8.369v13.556c-0.254,2.454,0.957,5.058,3.926,6.034l15.396,5.062c21.818,7.174,44.638,10.829,67.605,10.829h611.976
							C1207.064,1873.415,1209.141,1870.447,1209.1,1867.51z"/>
					</g>
					<g>
						<path style="fill:#5CBEC6;" d="M1203.344,1859.859H591.368c-22.967,0-45.787-3.656-67.605-10.83l-15.396-5.062
							c-6.214-2.043-4.744-11.22,1.797-11.22h611.976c22.967,0,45.787,3.656,67.605,10.829l15.396,5.062
							C1211.355,1850.682,1209.885,1859.859,1203.344,1859.859z"/>
					</g>
				</g>
				<g>
					<path style="fill:#434A59;" d="M1141.967,1834.517l-15.396-5.062c-21.818-7.174-44.638-10.829-67.605-10.829H573.338
						c-3.416,0-5.445,2.504-5.723,5.187l0,0v0.001c-0.043,0.418-0.043,0.839,0,1.257v6.086c-0.254,2.454,0.957,5.058,3.926,6.034
						l15.396,5.062c21.818,7.174,44.638,10.829,67.605,10.829h485.627c3.72,0,5.797-2.969,5.756-5.905v-7.157
						C1145.963,1837.73,1144.721,1835.422,1141.967,1834.517z"/>
				</g>
			</g>
			<g>
				<g>
					<path style="fill:#FF867A;" d="M752.565,1231.34c0,0-43.268,74.172-38.941,137.466c4.327,63.294,1.515,116.259,1.515,116.259
						s-41.367,327.294-13.952,334.702c27.414,7.408,145.306-475.684,145.306-475.684l134.214-16.273
						c0,0-92.625,226.874-78.876,238.151c32.124,26.349,186.755-216.393,163.426-280.227
						c-17.966-49.162-170.281-37.749-178.193-46.565c-7.912-8.817,2.298-38.486-29.509-39.475S757.509,1203.649,752.565,1231.34z"/>
				</g>
				<g>
					<g>
						<path style="fill:#434A59;" d="M887.064,1239.168c-7.912-8.817,2.298-38.486-29.509-39.475s-98.263-1.885-109.802,25.733
							c0,0-41.001,79.529-36.674,142.823c1.3,19.017,2.768,44.866,2.857,67.912c27.315-1.81,75.285,10.437,110.765,1.978
							c13.671-44.607,21.791-94.057,21.791-94.057l102.844-11.772c6.52-20.499,23.995-59.287,45.275-82.067
							C943.138,1239.932,891.354,1243.948,887.064,1239.168z"/>
					</g>
				</g>
				<g>
					<g>
						<path style="fill:#FFFFFF;" d="M899.34,1556.618c0,0-18.074,3.192-20.825,4.997c-2.752,1.806-5.798,6.06-5.744,8.501
							c0.054,2.441,5.486,11.393,7.408,19.376c1.921,7.983,10.77,29.421,15.087,35.257s12.353,6.356,14.066,4.922
							c1.713-1.434-0.743-17.779-0.548-24.762s4.278-36.092,4.278-36.092S906.088,1555.337,899.34,1556.618z"/>
					</g>
				</g>
				<g>
					<path style="fill:#FFFFFF;" d="M718.112,1799.706c0,0-3.956,10.83-1.539,17.204c0.977,2.575,19.561,13.187,20.44,15.824
						c0.879,2.637-19.341,5.783-35.165,2.637c-6.221-1.237-17.583-5.714-19.341-10.769c-1.758-5.055,6.234-33.8,7.553-49.405
						c1.109-13.118,28.177-4.021,35.439,0.3c1.243,0.739,1.699,2.313,1.044,3.602L718.112,1799.706z"/>
				</g>
				<g>
					<path style="fill:#2D333D;" d="M738.136,1246.368c-3.941,9.285-8.586,21.11-12.921,34.358
						c19.178,4.512,64.906,13.505,104.794,7.777c52.036-7.473,86.779-37.563,86.779-37.563s-43.87-5.514-76.837-4.635
						C812.572,1247.036,756.394,1246.553,738.136,1246.368z"/>
				</g>
				<g>
					<path style="fill:#FFFFFF;" d="M909.802,1581.126c0,0,32.681-35.228,33.773-36.348s-32.454-26.158-34.213-24.465
						c-1.758,1.692-12.93,35.538-16.446,38.835S899.253,1580.686,909.802,1581.126z"/>
				</g>
				<g>
					<g>
						<path style="fill:#F27C79;" d="M886.07,1026.942c0,0,42.399,87.766,47.317,99.509c4.918,11.743,9.751,70.92,9.751,70.92
							s-23.485,6.905-43.483-34.108C879.657,1122.249,859.649,1025.552,886.07,1026.942z"/>
					</g>
				</g>
				<g>
					<g>
						<g>
							<path style="fill:#FFAE43;" d="M933.4,1243.135c-21.056-62.954-17.672-137.456-29.194-188.015
								c-4.44-19.485-25.283-38.051-34.579-45.6c-32.102-26.069-63.36-29.247-86.005,5.355
								c-9.166,14.006-26.021,172.572-63.482,238.275c36.607,21.635,103.189,32.243,165.601,10.539
								c1.954-0.68,18.651-7.542,18.651-7.542S927.307,1246.804,933.4,1243.135z"/>
						</g>
					</g>
				</g>
				<g>
					<path style="fill:#FFFFFF;" d="M841.511,984.821c0,0,23.02,7.491,35.506,17.687c12.485,10.196,24.346,24.138,28.3,34.959
						c3.954,10.82,5.202,15.606,5.41,19.976c0.208,4.37-11.861,2.915-14.358,5.203c-2.497,2.288-18.104-14.567-23.93-27.468
						c-5.826-12.901-29.394-33.534-30.928-36.327C839.978,996.058,839.293,987.783,841.511,984.821z"/>
				</g>
				<g>
					<g>
						<path style="fill:#FF867A;" d="M775.195,1048.307c-2.653,13.693-5.711,30.567-9.265,48.927
							c5.486-2.029,12.49-5.591,20.797-11.828c21.66-16.264,24.713-62.822,24.713-62.822L775.195,1048.307z"/>
					</g>
				</g>
				<g>
					<g>
						<path style="fill:#FF867A;" d="M798.862,998.86c-17.14,7.037-143.446,60.907-159.223,108.133
							c-14.238,42.618,144.279,109.214,158.5,88.786c14.221-20.428-86.931-88.167-86.931-88.167s73.295-35.603,92.625-61.472
							C823.164,1020.27,800.121,998.343,798.862,998.86z"/>
					</g>
				</g>
				<g>
					<g>
						<path style="fill:#FF867A;" d="M783.878,1184.134c0,0,5.626-4.568,13.057-3.85c7.432,0.718,18.883-4.022,20.864,2.125
							c1.98,6.148,0.723,6.983,0.723,6.983s12.871,5.692,11.365,9.481c-1.506,3.789-3.79,3.458-5.351,5.146
							c-1.56,1.688-2.836,3.476-4.479,4.495c-1.643,1.018-4.524,1.916-5.781,2.751c-1.257,0.835-18.669-6.951-28.558-13.826
							C775.83,1190.563,783.878,1184.134,783.878,1184.134z"/>
					</g>
				</g>
				<g>
					<g>
						<path style="fill:#F27C79;" d="M946.315,1040.998c0,0-5.542-3.285-7.232-9.704c-1.69-6.419-9.171-14.509-4.654-18.054
							c4.517-3.545,6.383-15.241,10.007-15.152c3.624,0.089,4.051,2.096,5.939,2.877c1.888,0.781,3.773,1.294,5.128,2.351
							c1.355,1.056,2.992,3.183,4.075,3.974c1.083,0.791-0.047,17.711-2.734,28.075
							C954.156,1045.73,946.315,1040.998,946.315,1040.998z"/>
					</g>
				</g>
				<g>
					<g>
						<path style="fill:#F27C79;" d="M957.739,1024.768c0,0,22.959,77.095,21.938,114.614
							c-1.483,54.561-25.375,58.119-39.875,58.465c-14.5,0.346-14.958-34.235-14.932-48.587
							c0.026-14.352,11.126-118.175,11.126-118.175S938.368,1014.927,957.739,1024.768z"/>
					</g>
				</g>
				<g>
					<g>
						<path style="fill:#C66C67;" d="M711.466,1109.299c-0.179,0.027-0.364,0.027-0.552-0.006
							c-18.514-3.237-37.866,1.391-38.058,1.437c-0.915,0.226-1.839-0.337-2.063-1.253c-0.224-0.916,0.337-1.839,1.253-2.062
							c0.815-0.199,20.219-4.846,39.455-1.484c0.929,0.162,1.55,1.047,1.387,1.975
							C712.76,1108.646,712.17,1109.191,711.466,1109.299z"/>
					</g>
				</g>
				<g>
					<path style="fill:#C66C67;" d="M925.616,1171.211c-0.716,0-1.378-0.466-1.594-1.187c-4.995-16.671,1.671-54.883,1.957-56.501
						c0.16-0.906,1.027-1.509,1.929-1.349c0.906,0.16,1.509,1.024,1.349,1.929c-0.069,0.388-6.815,39.05-2.046,54.966
						c0.264,0.881-0.236,1.809-1.117,2.073C925.936,1171.189,925.775,1171.211,925.616,1171.211z"/>
				</g>
				<g>
					<path style="fill:#C66C67;" d="M770.309,1075.847c-0.581,0-1.145-0.305-1.451-0.847c-0.452-0.801-0.169-1.816,0.632-2.268
						c0.208-0.118,20.942-11.891,28.755-22.602c0.542-0.743,1.584-0.905,2.326-0.364c0.742,0.542,0.906,1.583,0.364,2.326
						c-8.24,11.296-28.932,23.045-29.809,23.54C770.867,1075.778,770.586,1075.847,770.309,1075.847z"/>
				</g>
				<g>
					<path style="fill:#2D333D;" d="M846.491,1346.996c-0.371,0-0.748-0.072-1.112-0.222c-1.487-0.615-2.193-2.319-1.578-3.806
						c8.894-21.501,23.391-34.459,24.003-35c1.207-1.065,3.047-0.95,4.112,0.255c1.065,1.205,0.951,3.045-0.254,4.11l0,0
						c-0.14,0.124-14.121,12.662-22.477,32.862C848.72,1346.318,847.635,1346.996,846.491,1346.996z"/>
				</g>
				<g>
					<path style="fill:#C66C67;" d="M980.704,1330.306c-0.447,0-0.899-0.12-1.307-0.372c-1.174-0.724-1.539-2.26-0.817-3.435
						c0.67-1.087,16.659-26.726,39.29-35.171c1.294-0.482,2.731,0.175,3.212,1.466c0.482,1.292-0.174,2.73-1.466,3.212
						c-21.006,7.838-36.629,32.86-36.785,33.112C982.36,1329.884,981.541,1330.306,980.704,1330.306z"/>
				</g>
				<g>
					<path style="fill:#C66C67;" d="M723.688,1509.25c-0.996,0-1.937-0.6-2.324-1.582l-8.549-21.687
						c-0.506-1.283,0.124-2.733,1.407-3.239c1.284-0.505,2.733,0.125,3.239,1.407l8.549,21.687c0.506,1.283-0.124,2.733-1.407,3.239
						C724.303,1509.194,723.993,1509.25,723.688,1509.25z"/>
				</g>
				<g>
					<path style="fill:#FFFFFF;" d="M828.375,982.603c0,0-24.743,1.317-35.841,13.941c-11.098,12.624-6.089,59.976-12.069,78.379
						s-13.734,32.454-9.433,35.857c4.3,3.402,14.705,0.306,21.502-1.059c6.798-1.365,4.855,1.687,15.398,3.352
						c10.543,1.665,18.829-2.708,20.443-8.359c1.614-5.652,0.584-70.852-1.606-86.25c-2.19-15.398-0.339-23.583,2.481-26.912
						C832.07,988.22,831.964,982.257,828.375,982.603z"/>
				</g>
				<g>
					<g>
						<path style="fill:#434A59;" d="M860.4,925.714c0,0,2.996,3.669,2.838,9.792c-0.157,6.123-25.082,27.111-28.068,28.617
							c-2.986,1.506-11.518-3.08-13.397-9.043c-1.036-3.287-0.06-8.945,0.506-13.093c0.461-3.376,0.083-4.676,0.566-7.523
							c1.873-11.029,15.722-16.399,22.601-14.635C852.325,921.593,860.4,925.714,860.4,925.714z"/>
					</g>
				</g>
				<g>
					<g>
						<g>
							<g>
								<path style="fill:#FF867A;" d="M835.4,959.826l-9.272,30.064c-1.506,4.955,7.048,21.34,16.794,17.372
									c2.853-1.161,1.831-8.88,1.172-14.677l1.689-27.668L835.4,959.826z"/>
							</g>
						</g>
					</g>
				</g>
				<g>
					<g>
						<g>
							<g>
								<path style="fill:#FF867A;" d="M839.575,939.087c0,0-3.807,8.362-4.896,14.847c-1.606,9.567,3.913,15.198,13.217,18.091
									c9.07,2.82,12.622,1.402,15.794-4.639c0.787-1.498,1.702-3.792,2.082-5.987c0.631-3.647,0.318-10.025-1.557-14.486
									c-0.855-2.034-1.132-5.099-1.548-6.656C859.638,928.92,846.195,926.623,839.575,939.087z"/>
							</g>
						</g>
					</g>
				</g>
				<g>
					<g>
						<g>
							<g>
								<path style="fill:#FFFFFF;" d="M852.22,958.039c2.786,9.087,8.054,4.019,10.526,0.898c0.624-0.788,0.098-1.95-0.906-2.009
									l-8.356-0.494C852.622,956.383,851.967,957.212,852.22,958.039z"/>
							</g>
						</g>
					</g>
				</g>
				<g>
					<g>
						<g>
							<g>
								<path style="fill:#C66C67;" d="M857.693,954.45c-0.266-0.063-0.459-0.307-0.448-0.59c0.013-0.322,0.284-0.573,0.606-0.56
									c1.998,0.078,2.141-1.352,2.146-1.414c0.027-0.321,0.309-0.559,0.63-0.532c0.323,0.025,0.56,0.309,0.533,0.63
									c-0.076,0.901-0.874,2.579-3.355,2.482C857.766,954.464,857.729,954.459,857.693,954.45z"/>
							</g>
						</g>
					</g>
				</g>
				<g>
					<g>
						<g>
							<g>
								<path style="fill:#434A59;" d="M853.065,945.679c-0.099,0.62-0.507,1.071-0.913,1.007c-0.406-0.064-0.655-0.619-0.556-1.24
									c0.098-0.62,0.507-1.071,0.913-1.007C852.914,944.503,853.163,945.058,853.065,945.679z"/>
							</g>
						</g>
					</g>
				</g>
				<g>
					<g>
						<g>
							<g>
								<path style="fill:#434A59;" d="M862.689,946.431c-0.099,0.62-0.507,1.071-0.913,1.007c-0.406-0.064-0.655-0.619-0.556-1.24
									c0.098-0.62,0.507-1.071,0.913-1.007C862.538,945.256,862.787,945.811,862.689,946.431z"/>
							</g>
						</g>
					</g>
				</g>
				<g>
					<g>
						<g>
							<g>
								<path style="fill:#C66C67;" d="M837.909,964.008c-1.062,1.343,1.415,15.258,6.794,18.595l0.537-8.794
									c0.08-1.313,1.373-2.183,2.629-1.791c0.009,0.003,0.017,0.005,0.026,0.008c7.418,2.306,11.145,1.777,13.992-1.796
									c-1.931,0.453-6.308,1.207-10.603,0.038C845.545,968.703,839.038,962.581,837.909,964.008z"/>
							</g>
						</g>
					</g>
				</g>
				<g>
					<g>
						<g>
							<path style="fill:#434A59;" d="M863.665,941.603c-0.781-1.224-2.163-1.452-3.399-1.459c-0.991-0.006-1.016,1.751-0.023,1.757
								c0.466,0.003,0.889-0.018,1.334,0.156c0.21,0.082,0.608,0.2,0.745,0.416c0.246,0.386,0.656,0.577,1.05,0.329
								C863.707,942.591,863.909,941.985,863.665,941.603z"/>
						</g>
					</g>
				</g>
				<g>
					<g>
						<g>
							<path style="fill:#434A59;" d="M854.452,940.03c-1.201-0.925-2.778-0.703-4.132-0.316c-1.087,0.31-0.617,2.003,0.472,1.692
								c0.51-0.146,0.968-0.3,1.504-0.275c0.253,0.012,0.722-0.002,0.933,0.161c0.379,0.292,0.881,0.344,1.242-0.02
								C854.777,940.965,854.827,940.319,854.452,940.03z"/>
						</g>
					</g>
				</g>
				<g>
					<g>
						<path style="fill:#434A59;" d="M861.642,930.973c0,0-2.116,4.779-6.713,7.61c-4.597,2.831-16.224,7.28-23.111,8.338
							c-6.887,1.058,1.311-15.679,10.111-20.128c8.8-4.448,13.901-2.972,15.014-1.348S861.642,930.973,861.642,930.973z"/>
					</g>
				</g>
				<g>
					<g>
						<g>
							<g>
								<path style="fill:#FF867A;" d="M836.667,948.235c-0.266-1.042-0.369-2.109-0.409-3.183
									c-0.075-2.041-0.662-5.056-3.655-3.457c-4.354,2.326-3.357,13.176,1.75,13.821
									C838.146,955.895,837.335,950.859,836.667,948.235z"/>
							</g>
						</g>
					</g>
				</g>
				<g>
					<g>
						<path style="fill:#434A59;" d="M824.282,951.549c0,0-0.279,5.144-10.585,4.742c-8.887-0.347-14.014,5.269-15.257,10.923
							c-1.242,5.654-2.456,11.758-1.063,11.42c1.393-0.339,1.098-3.743,8.753-2.973c12.064,1.213,23.412-4.797,23.115-15.489
							C828.947,949.478,825.441,950.68,824.282,951.549z"/>
					</g>
				</g>
				<g>
					<path style="fill:#FFFFFF;" d="M864.393,935.782c0,0-0.262-4.012-1.657-4.919c-1.395-0.907-19.291,2.359-26.296,2.321
						c-7.006-0.038-12.138-0.662-13.595,1.28c-1.457,1.942-1.387,6.704-0.971,7.306c0.416,0.602,7.467,1.456,15.36,1.384
						c7.893-0.072,22.6-1.992,24.721-2.19C864.076,940.765,864.765,938.211,864.393,935.782z"/>
				</g>
				<g>
					<path style="fill:#84C0CE;" d="M864.393,935.782c0,0-0.053-0.797-0.234-1.76c-1.668,0.424-3.623,0.888-4.899,1.083
						c-2.584,0.393-5.799,0.883-11.119,0.952c-1.509,0.02-2.924,0.056-4.259,0.09c-3.315,0.084-6.177,0.157-8.669-0.082
						c-2.873-0.276-9.943-0.133-13.095-0.051c-0.321,1.051-0.467,2.281-0.496,3.344c2.691-0.074,10.419-0.254,13.272,0.021
						c1.388,0.134,2.846,0.178,4.401,0.178c1.463,0,3.013-0.039,4.672-0.082c1.322-0.034,2.723-0.07,4.217-0.089
						c5.551-0.072,9.034-0.603,11.578-0.99c1.272-0.194,3.088-0.613,4.715-1.02C864.502,936.856,864.475,936.317,864.393,935.782z"
						/>
				</g>
			</g>
		</g>
		<g>
			<g>
				<g>
					<g>
						<path style="fill:#D47328;" d="M3196.13,1581.076h-18.927l45.342-260.336c0.778-4.465,4.653-7.724,9.185-7.724l0,0
							c5.789,0,10.178,5.22,9.185,10.923L3196.13,1581.076z"/>
					</g>
				</g>
				<g>
					<g>
						<path style="fill:#D47328;" d="M3306.441,1591.556l-16.937-10.48l45.342-260.336c0.778-4.465,4.653-7.724,9.185-7.724l0,0
							c5.789,0,10.178,5.22,9.185,10.923L3306.441,1591.556z"/>
					</g>
				</g>
				<g>
					<g>
						<path style="fill:#D47328;" d="M3041.848,1591.37l18.926-0.23l-42.176,293.4c-0.723,4.474-4.559,7.779-9.091,7.834l0,0
							c-5.788,0.07-10.241-5.096-9.317-10.811L3041.848,1591.37z"/>
					</g>
				</g>
				<g>
					<g>
						<path style="fill:#D47328;" d="M3152.887,1591.37l18.926-0.23l-42.176,293.4c-0.723,4.474-4.559,7.779-9.09,7.834l0,0
							c-5.788,0.07-10.241-5.096-9.317-10.811L3152.887,1591.37z"/>
					</g>
				</g>
				<g>
					<g>
						<path style="fill:#D47328;" d="M3307.828,1591.37l-18.926-0.23l42.176,293.4c0.723,4.474,4.559,7.779,9.091,7.834l0,0
							c5.788,0.07,10.241-5.096,9.317-10.811L3307.828,1591.37z"/>
					</g>
				</g>
				<g>
					<g>
						<path style="fill:#D47328;" d="M3196.129,1591.37l-18.926-0.23l42.176,293.4c0.723,4.474,4.559,7.779,9.091,7.834l0,0
							c5.788,0.07,10.241-5.096,9.317-10.811L3196.129,1591.37z"/>
					</g>
				</g>
				<g>
					<g>
						<rect x="3222.208" y="1349.609" style="fill:#D47328;" width="110.198" height="18.507"/>
					</g>
				</g>
				<g>
					<g>
						<rect x="3209.129" y="1415.791" style="fill:#D47328;" width="110.198" height="18.507"/>
					</g>
				</g>
				<g>
					<g>
						<rect x="3041.558" y="1651.391" style="fill:#D47328;" width="270.658" height="18.507"/>
					</g>
				</g>
				<g>
					<g>
						<path style="fill:#D47328;" d="M3307.8,1593.137h-266.242v-16.887c0-3.566,2.891-6.456,6.456-6.456H3307.8V1593.137z"/>
					</g>
				</g>
			</g>
			<g>
				<g>
					<g>
						<g>
							<g>
								<path style="fill:#434A59;" d="M2759.988,1411.634c-0.06,27.672-19.868,50.062-44.243,50.009
									c-24.375-0.053-44.084-22.528-44.025-50.2c0.06-27.672,19.867-50.061,44.242-50.008S2760.048,1383.961,2759.988,1411.634z"
									/>
							</g>
						</g>
					</g>
					<g>
						<g>
							<g>
								<path style="fill:#32373F;" d="M2751.909,1382.611c-0.409-0.656-0.831-1.3-1.267-1.932
									c-0.871-1.264-1.794-2.479-2.766-3.641c-0.729-0.872-1.485-1.714-2.267-2.524c-0.521-0.54-1.054-1.067-1.598-1.578
									c-0.272-0.256-0.547-0.508-0.824-0.757c-0.555-0.497-1.12-0.979-1.696-1.446c-1.152-0.934-2.344-1.806-3.575-2.613
									c-0.615-0.403-1.24-0.791-1.874-1.161c-0.317-0.185-0.636-0.366-0.957-0.543c-0.642-0.353-1.293-0.689-1.953-1.008
									c-0.659-0.318-1.327-0.619-2.002-0.901c-4.727-1.977-9.836-3.061-15.168-3.073h0.001c0,0,0,0-0.001,0l9.859,0.021
									c24.375,0.053,44.086,22.527,44.026,50.199c-0.023,10.809-3.06,20.813-8.205,28.988c-0.412,0.654-0.837,1.296-1.275,1.926
									c-1.314,1.89-2.746,3.67-4.283,5.326c-0.512,0.552-1.036,1.09-1.571,1.614c-0.802,0.786-1.63,1.539-2.481,2.259
									c-0.567,0.48-1.145,0.944-1.733,1.393c-0.882,0.673-1.786,1.312-2.712,1.913c-2.468,1.604-5.085,2.944-7.822,3.989
									c-0.342,0.13-0.686,0.256-1.032,0.378c-4.149,1.455-8.559,2.234-13.129,2.224l-9.859-0.021
									c24.375,0.053,44.183-22.337,44.243-50.009c0.022-9.945-2.51-19.218-6.894-27.021
									C2752.713,1383.934,2752.317,1383.267,2751.909,1382.611z"/>
							</g>
						</g>
					</g>
				</g>
				<g>
					<g>
						<path style="fill:#F27C79;" d="M2704.891,1112.987c-32.061,33.499-29.481,95.805-40.256,141.006
							c-10.775,45.201-13.015,160.514,3.856,160.032s56.505-111.836,63.924-147.025
							C2739.835,1231.81,2742.811,1073.366,2704.891,1112.987z"/>
					</g>
				</g>
				<g>
					<g>
						<g>
							<g>
								<path style="fill:#C4C4C4;" d="M2661.277,1400.104L2661.277,1400.104
									C2661.277,1400.104,2661.277,1400.104,2661.277,1400.104l51.612,0.112c5.608,0.012,10.143,5.183,10.129,11.549
									c-0.005,2.487-0.704,4.788-1.888,6.669c-1.796,2.853-4.863,4.844-8.291,4.836l-51.612-0.112
									C2666.835,1423.171,2664.708,1400.112,2661.277,1400.104z"/>
							</g>
						</g>
					</g>
				</g>
				<g>
					<g>
						<path style="fill:#F27C79;" d="M2661.227,1417.399c0,0,21.484-4.097,23.654,2.41c2.169,6.508-3.001,15.772-8.677,15.908
							c-5.676,0.136-20.728,0.723-22.415-4.097C2652.102,1426.799,2650.863,1422.461,2661.227,1417.399z"/>
					</g>
				</g>
				<g>
					<g>
						<g>
							<g>
								<path style="fill:#434A59;" d="M2662.394,1411.634c-0.06,27.672-19.868,50.062-44.243,50.009
									c-24.375-0.053-44.084-22.528-44.024-50.2c0.06-27.672,19.867-50.061,44.241-50.008S2662.454,1383.961,2662.394,1411.634z"
									/>
							</g>
						</g>
					</g>
					<g>
						<g>
							<g>
								<path style="fill:#32373F;" d="M2654.314,1382.611c-0.409-0.656-0.831-1.3-1.267-1.932
									c-0.871-1.264-1.794-2.479-2.766-3.641c-0.729-0.872-1.485-1.714-2.267-2.524c-0.521-0.54-1.054-1.067-1.598-1.578
									c-0.272-0.256-0.547-0.508-0.824-0.757c-0.555-0.497-1.12-0.979-1.696-1.446c-1.152-0.934-2.344-1.806-3.575-2.613
									c-0.615-0.403-1.24-0.791-1.873-1.161c-0.317-0.185-0.636-0.366-0.957-0.543c-0.642-0.353-1.293-0.689-1.953-1.008
									s-1.327-0.619-2.002-0.901c-4.728-1.977-9.836-3.061-15.168-3.073h0.001c0,0,0,0-0.001,0l9.859,0.021
									c24.375,0.053,44.086,22.527,44.026,50.199c-0.023,10.809-3.06,20.813-8.205,28.988c-0.412,0.654-0.837,1.296-1.275,1.926
									c-1.314,1.89-2.746,3.67-4.282,5.326c-0.512,0.552-1.036,1.09-1.571,1.614c-0.802,0.786-1.63,1.539-2.481,2.259
									c-0.567,0.48-1.145,0.944-1.733,1.393c-0.882,0.673-1.787,1.312-2.712,1.913c-2.468,1.604-5.085,2.944-7.822,3.989
									c-0.342,0.13-0.686,0.256-1.032,0.378c-4.149,1.455-8.559,2.234-13.129,2.224l-9.859-0.021
									c24.375,0.053,44.183-22.337,44.243-50.009c0.021-9.945-2.51-19.218-6.895-27.021
									C2655.118,1383.934,2654.723,1383.267,2654.314,1382.611z"/>
							</g>
						</g>
					</g>
				</g>
				<g>
					<g>
						<g>
							<g>
								<path style="fill:#E2E2E2;" d="M2613.927,1411.604c0,6.366-4.546,11.527-10.154,11.527c-5.608,0-10.154-5.161-10.154-11.527
									c0-6.367,4.546-11.527,10.154-11.527C2609.381,1400.077,2613.927,1405.238,2613.927,1411.604z"/>
							</g>
						</g>
					</g>
					<g>
						<g>
							<g>
								<path style="fill:#C4C4C4;" d="M2612.054,1404.931c-1.787-2.853-4.85-4.854-8.281-4.854l0,0l0,0h15.377
									c5.608,0,10.154,5.161,10.154,11.527c0,2.487-0.694,4.79-1.873,6.673c-1.79,2.857-4.852,4.854-8.281,4.854h-15.377
									c5.608,0,10.154-5.161,10.154-11.527c0-2.288-0.587-4.42-1.6-6.213C2612.239,1405.235,2612.148,1405.082,2612.054,1404.931z
									"/>
							</g>
						</g>
					</g>
				</g>
				<g>
					<g>
						<path style="fill:#C66C67;" d="M2706.812,1274.494c0.856,0,1.69-0.434,2.166-1.22c0.724-1.196,0.343-2.751-0.853-3.476
							c-0.681-0.412-16.783-10.106-26.912-10.866c-1.39-0.108-2.609,0.941-2.713,2.334s0.941,2.608,2.334,2.713
							c8.933,0.67,24.511,10.053,24.668,10.148C2705.913,1274.376,2706.365,1274.494,2706.812,1274.494z"/>
					</g>
				</g>
				<g>
					<g>
						<path style="fill:#FF867A;" d="M2699.206,1228.786c-8.42-37.469-13.786-57.484-5.889-88.084
							c7.897-30.6,22.607-54.194,75.911-56.169c53.304-1.974,65.149,76.007,67.124,96.737c1.37,14.38,7.019,41.588,26.167,72.723
							c-27.752,7.033-110.325,27.137-157.037,29.724C2706.835,1263.747,2702.277,1242.452,2699.206,1228.786z"/>
					</g>
				</g>
				<g>
					<g>
						<g>
							<path style="fill:#434A59;" d="M3165.947,1547.326c0,0,7.793-12.241,10.429-14.769c2.635-2.529,7.993-4.768,10.621-4.104
								c2.627,0.664,13.172,9.319,21.331,13.377c8.159,4.058,27.086,11.871,32.329,17.987s3.812,14.939,1.836,16.436
								c-1.976,1.497-23.49-2.171-31.092-3.693c-7.602-1.522-43.746-2.35-43.746-2.35S3162.888,1554.307,3165.947,1547.326z"/>
						</g>
					</g>
				</g>
				<g>
					<g>
						<path style="fill:#FF867A;" d="M3084.843,1538.676l81.807,7.555c0,0,7.592,8.453,3.913,20.361
							c-2.348,7.599-38.402,19.07-83.042,29.163C3089.853,1576.179,3086.878,1551.764,3084.843,1538.676z"/>
					</g>
				</g>
				<g>
					<g>
						<path style="fill:#FF867A;" d="M2775.024,1867.394l-27.477,3.615c0,0-18.089-49.391-36.479-111.227
							c24.515-2.418,48.825-7.328,63.375-10.609L2775.024,1867.394z"/>
					</g>
				</g>
				<g>
					<g>
						<path style="fill:#36995E;" d="M2703.092,1306.633c0.895-6.389,1.812-14.388,2.39-22.916
							c46.712-2.587,129.284-22.692,157.037-29.724c8.454,13.746,19.535,28.257,34.047,42.769
							c47.381,47.381,59.226,229.996,59.226,229.996l132.084,10.19c12.533,27.959,10.465,87.054-3.032,118.825
							c-66.781-1.446-139.475-34.412-166.562-40.175c-46.394-9.871-111.906-162.063-111.906-162.063l-64.131,98.838l46.277,207.764
							c-25.549,14.461-75.2,14.461-102.677,9.641c-16.368-55.037-43.793-175.002-39.046-223.672
							C2654.329,1468.9,2693.549,1374.79,2703.092,1306.633z"/>
					</g>
				</g>
				<g>
					<g>
						<g>
							<path style="fill:#434A59;" d="M2712.627,1357.366c0.589,5.868,1.013,7.199,4.164,7.963c3.67,0.889,7.594-0.905,11.75-2.805
								c6.333-2.892,15.002-6.854,22.543,2.196c4.792,5.752,6.052,14.093,7.162,21.453c1.767,11.713,3.036,14.325,6.803,14.018
								c2.2-0.186,4.112,1.441,4.296,3.63c0.184,2.189-1.441,4.112-3.63,4.296c-0.478,0.04-0.939,0.06-1.385,0.06
								c-10.807-0.001-12.543-11.503-13.949-20.817c-1.002-6.639-2.038-13.503-5.408-17.548c-3.352-4.023-6.108-3.26-13.127-0.053
								c-4.963,2.268-10.587,4.837-16.93,3.3c-8.926-2.164-9.634-9.225-10.204-14.898c-0.489-4.875-0.952-9.48-5.227-13.57
								c-1.059-1.013-2.163-1.736-3.283-2.233c0.62-2.65,1.216-5.277,1.785-7.879c2.392,0.83,4.757,2.222,6.996,4.364
								C2711.382,1344.963,2712.101,1352.132,2712.627,1357.366z"/>
						</g>
					</g>
					<g>
						<g>
							<path style="fill:#FFAE43;" d="M2962.363,1627.349c2.07-4.81,0.142-6.922-5.894-11.729
								c-4.269-3.399-9.107-7.252-10.606-13.603c-2.111-8.938,3.865-12.766,8.666-15.843c4.126-2.643,8.022-5.14,9.734-10.803
								c3.304-10.932-10.101-16.385-10.706-16.625c-2.042-0.798-3.053-3.098-2.26-5.143c0.794-2.048,3.098-3.063,5.146-2.269
								c7.241,2.81,19.786,11.931,15.432,26.337c-2.561,8.475-8.627,12.361-13.056,15.199c-4.966,3.182-5.961,4.162-5.216,7.318
								c0.867,3.672,4.244,6.361,7.82,9.209c5.445,4.336,12.902,10.274,8.246,21.094c-0.179,0.415-0.373,0.823-0.58,1.224
								c-2.623-0.86-5.19-1.712-7.695-2.549C2961.77,1628.574,2962.096,1627.968,2962.363,1627.349z"/>
						</g>
					</g>
					<g>
						<g>
							<path style="fill:#434A59;" d="M2671.369,1709.883c7.455-0.804,15.085,2.774,21.826,5.928
								c10.732,5.023,13.616,5.415,15.438,2.107c1.06-1.925,3.478-2.623,5.403-1.564c1.923,1.06,2.624,3.478,1.564,5.402
								c-5.835,10.59-16.891,5.417-25.776,1.259c-6.081-2.846-12.375-5.786-17.603-5.225c-0.071,0.008-0.133,0.02-0.203,0.029
								c-0.621-2.559-1.241-5.15-1.86-7.768C2670.55,1709.986,2670.951,1709.928,2671.369,1709.883z"/>
						</g>
					</g>
					<g>
						<g>
							<path style="fill:#FFAE43;" d="M2658.383,1651.154c3.27,4.909,4.269,5.886,7.411,5.084c3.656-0.933,6.284-4.358,9.066-7.984
								c4.238-5.522,10.042-13.084,20.944-8.623c6.929,2.835,11.95,9.614,16.379,15.596c7.05,9.519,9.4,11.241,12.578,9.196
								c1.847-1.187,4.308-0.654,5.497,1.194c1.188,1.847,0.654,4.308-1.193,5.496c-2.335,1.501-4.514,2.141-6.559,2.141
								c-6.869-0.001-12.216-7.219-16.714-13.293c-3.996-5.395-8.127-10.974-13-12.968c-4.848-1.981-6.924-0.018-11.622,6.104
								c-3.322,4.328-7.087,9.235-13.41,10.848c-3.142,0.802-5.662,0.583-7.75-0.242c-0.953-4.75-1.875-9.501-2.764-14.235
								C2657.645,1650.048,2658.022,1650.614,2658.383,1651.154z"/>
						</g>
					</g>
					<g>
						<g>
							<path style="fill:#434A59;" d="M2765.922,1503.702c-1.609-3.132-4.127-5.209-7.698-6.351
								c-7.223-2.309-11.703-5.504-13.695-9.768c-2.744-5.871-0.206-12.099,2.25-18.122c0.806-1.976,1.639-4.02,2.283-6.033
								c0.709-2.216,0.428-2.898,0.426-2.903c-0.468-0.687-3.933-1.336-6.003-1.723c-3.882-0.727-8.711-1.631-13.313-4.221
								c-3.797-2.137-6.369-5.307-7.436-9.17c-2.087-7.554,2.077-15.163,2.558-16.006c1.09-1.907,3.519-2.569,5.426-1.48
								c1.907,1.09,2.57,3.519,1.48,5.426c-0.794,1.39-2.83,6.202-1.797,9.941c0.504,1.826,1.705,3.251,3.669,4.356
								c3.457,1.945,7.399,2.683,10.876,3.334c4.694,0.879,9.128,1.709,11.369,5.465c1.458,2.444,1.563,5.52,0.32,9.403
								c-0.738,2.306-1.63,4.495-2.492,6.611c-1.975,4.847-3.681,9.032-2.409,11.753c0.988,2.114,3.985,3.984,8.911,5.559
								c5.607,1.792,9.761,5.255,12.35,10.291c0.494,0.961,0.907,1.955,1.262,2.968l-6.275,9.671
								C2767.858,1509.521,2767.279,1506.343,2765.922,1503.702z"/>
						</g>
					</g>
					<g>
						<g>
							<path style="fill:#434A59;" d="M3043.787,1646.15c0.709-2.216,0.428-2.898,0.425-2.903c-0.467-0.687-3.932-1.336-6.003-1.723
								c-3.881-0.727-8.711-1.631-13.313-4.221c-3.797-2.137-6.368-5.308-7.435-9.169c-2.086-7.554,2.077-15.164,2.558-16.006
								c1.087-1.902,3.502-2.56,5.409-1.48c1.906,1.08,2.577,3.504,1.504,5.414c-0.579,1.032-5.446,10.197,1.864,14.311
								c3.457,1.945,7.399,2.683,10.877,3.334c4.694,0.879,9.127,1.709,11.369,5.465c1.459,2.444,1.563,5.52,0.321,9.403
								c-0.431,1.347-0.916,2.65-1.416,3.926c-2.678-0.422-5.351-0.879-8.017-1.365
								C3042.596,1649.488,3043.256,1647.81,3043.787,1646.15z"/>
						</g>
					</g>
					<g>
						<g>
							<path style="fill:#5CBEC6;" d="M2901.07,1548.495c4.153-0.147,16.194-1.888,21.966-8.098
								c2.397-2.579,3.494-5.654,3.353-9.399c-0.287-7.578,1.193-12.877,4.524-16.202c4.587-4.577,11.306-4.31,17.807-4.051
								c1.909,0.076,3.874,0.148,5.781,0.106c0.276,3.042,0.504,5.706,0.687,7.941c-2.319,0.074-4.589-0.012-6.785-0.1
								c-5.229-0.209-9.746-0.388-11.872,1.733c-1.652,1.648-2.39,5.104-2.195,10.271c0.222,5.882-1.62,10.967-5.475,15.115
								c-9.177,9.874-26.767,10.606-27.511,10.632c-0.048,0.002-0.095,0.002-0.143,0.002c-2.131,0-3.896-1.689-3.971-3.836
								C2897.159,1550.415,2898.875,1548.573,2901.07,1548.495z"/>
						</g>
					</g>
					<g>
						<g>
							<path style="fill:#FFAE43;" d="M2700.162,1473.962c3.31,6.68,3.811,13.09,1.488,19.052
								c-4.402,11.299-17.51,16.458-18.066,16.672c-0.469,0.181-0.952,0.267-1.426,0.267c-1.593,0-3.095-0.966-3.706-2.541
								c-0.793-2.044,0.222-4.346,2.265-5.144c0.104-0.041,10.434-4.157,13.534-12.172c1.484-3.836,1.086-7.958-1.215-12.602
								c-3.962-7.993-12.272-8.939-16.863-8.792c-4.853,0.156-10.399,1.678-15.68,4.449c0.822-3.264,1.664-6.534,2.523-9.808
								c4.401-1.585,8.813-2.459,12.902-2.59C2686.983,1460.399,2695.826,1465.211,2700.162,1473.962z"/>
						</g>
					</g>
					<g>
						<g>
							<path style="fill:#434A59;" d="M2848.878,1485.947c7.452,0.219,13.344,2.791,17.514,7.645
								c7.902,9.198,6.292,23.192,6.219,23.783c-0.266,2.18-2.243,3.731-4.431,3.464c-2.18-0.267-3.73-2.251-3.464-4.431
								c0.013-0.11,1.191-11.173-4.358-17.633c-2.688-3.129-6.52-4.725-11.715-4.878c-8.925-0.273-13.656,6.622-15.688,10.749
								c-0.354,0.718-0.681,1.474-0.985,2.256c-1.548-2.98-3.044-5.902-4.483-8.748
								C2832.5,1490.108,2840.12,1485.701,2848.878,1485.947z"/>
						</g>
					</g>
					<g>
						<g>
							<path style="fill:#434A59;" d="M2725.531,1772.639c-2.382-7.065-3.095-14.283-2.23-20.464
								c1.536-10.97,7.785-18.857,17.146-21.64c7.146-2.124,13.548-1.526,19.027,1.779c10.384,6.263,13.236,20.057,13.352,20.641
								c0.429,2.154-0.97,4.248-3.124,4.677c-2.155,0.429-4.248-0.969-4.677-3.124c-0.021-0.109-2.366-10.985-9.658-15.383
								c-3.533-2.13-7.673-2.446-12.653-0.966c-8.551,2.542-10.898,10.563-11.535,15.119c-0.789,5.635,0.111,12.526,2.773,19.124
								C2731.134,1772.532,2728.323,1772.607,2725.531,1772.639z"/>
						</g>
					</g>
					<g>
						<g>
							<path style="fill:#5CBEC6;" d="M2742.943,1634.532c-8.212-5.824-8.199-18.574-8.188-29.824
								c0.009-8.993,0.019-18.291-4.14-19.401c-6.141-1.638-11.841,0.913-17.874,3.615c-8.935,4.002-20.053,8.982-30.543-5.08
								c-12.472-16.723,8.057-39.029,8.937-39.97c1.5-1.605,4.016-1.689,5.621-0.189c1.604,1.5,1.689,4.016,0.189,5.621
								c-0.17,0.182-16.777,18.513-8.37,29.783c6.394,8.573,11.3,6.883,20.915,2.576c6.706-3.003,14.306-6.408,23.176-4.041
								c10.068,2.686,10.055,15.094,10.043,27.094c-0.009,9.321-0.02,19.884,4.835,23.328c2.424,1.718,6.349,1.913,11.691,0.605
								l1.729,7.762c-2.88,0.69-5.513,1.039-7.907,1.038C2749.037,1637.449,2745.686,1636.477,2742.943,1634.532z"/>
						</g>
					</g>
					<g>
						<g>
							<path style="fill:#FFFFFF;" d="M2792.077,1270.32c3.095-0.646,6.163-1.297,9.192-1.95
								c5.076,5.393,12.948,14.354,22.502,27.231c9.004,12.136,10.312,26.702,3.414,38.013
								c-5.263,8.631-14.412,13.555-24.657,13.555c-1.763,0-3.558-0.146-5.372-0.443c-19.253-3.161-20.766-19.038-21.872-30.63
								c-0.479-5.037-0.933-9.795-2.605-12.303c-4.656-6.984-11.947-19.33-16.188-26.609c2.767-0.483,5.55-0.982,8.341-1.496
								c4.278,7.299,10.463,17.69,14.465,23.692c2.783,4.174,3.328,9.899,3.906,15.961c1.267,13.296,2.925,21.515,15.241,23.537
								c9.23,1.514,17.435-2,21.95-9.404c5.177-8.49,4.023-19.652-3.011-29.133
								C2805.529,1284.361,2796.232,1274.487,2792.077,1270.32z"/>
						</g>
					</g>
					<g>
						<g>
							<path style="fill:#434A59;" d="M3060.286,1596.733c-5.266,4.623-11.782,6.99-18.543,6.99c-4.67,0-9.458-1.13-14.029-3.425
								c-14.513-7.289-14.036-14.084-11.525-24.41c1.441-5.925,3.234-13.299,0.887-24.147c-1.163-5.378-3.127-13.456-4.914-20.634
								l8.355,0.644c1.619,6.546,3.291,13.485,4.334,18.308c2.732,12.634,0.614,21.347-0.933,27.708
								c-0.923,3.797-1.59,6.54-0.919,8.572c0.717,2.17,3.427,4.411,8.285,6.85c8.358,4.197,17.237,3.288,23.754-2.433
								c7.472-6.56,9.699-17.56,5.81-28.706c-4.233-12.136-8.206-21.52-11.224-28.054l9.054,0.698
								c2.796,6.342,6.14,14.583,9.681,24.735C3073.335,1573.698,3070.242,1587.992,3060.286,1596.733z"/>
						</g>
					</g>
					<g>
						<g>
							<path style="fill:#FFAE43;" d="M2801.065,1381.675c-1.501,1.602-4.016,1.685-5.619,0.186c-1.604-1.5-1.688-4.016-0.188-5.621
								c1.159-1.239,28.646-30.155,52.163-13.935c11.078,7.64,13.375,18.635,15.403,28.337c2.398,11.477,4.118,17.556,14.178,19.479
								c11.549,2.207,20.678-3.225,28.734-8.017c7.788-4.633,15.841-9.424,24.111-4.953c5.029,2.718,8.021,6.93,10.203,11.426
								c1.663,8.286,3.168,16.557,4.527,24.657c-4.721-3.13-6.91-9.014-8.897-14.362c-2.28-6.131-4.432-11.922-9.614-14.724
								c-4.102-2.215-8.623,0.247-16.262,4.792c-8.812,5.243-19.779,11.768-34.293,8.995c-15.737-3.008-18.252-15.045-20.471-25.664
								c-1.89-9.042-3.674-17.583-12.132-23.416C2825.021,1356.519,2801.303,1381.422,2801.065,1381.675z"/>
						</g>
					</g>
					<g>
						<g>
							<path style="fill:#434A59;" d="M2864.161,1534.402c0.208-2.187,2.156-3.794,4.336-3.583c2.186,0.208,3.791,2.149,3.583,4.335
								l-3.259,34.285c-2.355-3.404-4.689-6.906-6.994-10.478L2864.161,1534.402z"/>
						</g>
					</g>
				</g>
				<g>
					<g>
						<path style="fill:#434A59;" d="M2713.785,1102.299c0.501,19.121,5.567,43.3,12.071,49.023
							c9.039,7.954,30.008-47.858,30.731-54.004c0.392-3.33,1.313-8.249,2.077-12.06c3.344-0.342,6.858-0.587,10.565-0.725
							c1.833-0.068,3.613-0.032,5.349,0.083c5.552,14.904,18.362,52.515,24.932,59.981c5.114,5.811,20.963,6.434,30.901,3.771
							c3.671,13.826,5.311,26.283,5.942,32.902c0.098,1.026,0.22,2.123,0.365,3.276c-16.742,2.481-98.812,15.282-139.911,33.598
							c-13.669-20.68-18.5-36.496-11.385-64.065C2689.314,1138.989,2702.766,1112.229,2713.785,1102.299z"/>
					</g>
				</g>
				<g>
					<g>
						<g>
							<g>
								<g>
									<path style="fill:#434A59;" d="M2998.804,1411.634c-0.06,27.672-19.868,50.062-44.243,50.009
										c-24.375-0.053-44.084-22.528-44.025-50.2c0.06-27.672,19.867-50.061,44.242-50.008S2998.865,1383.961,2998.804,1411.634z"
										/>
								</g>
							</g>
						</g>
						<g>
							<g>
								<g>
									<path style="fill:#32373F;" d="M2990.725,1382.611c-0.409-0.656-0.831-1.3-1.266-1.932
										c-0.871-1.264-1.794-2.479-2.766-3.641c-0.729-0.872-1.485-1.714-2.267-2.524c-0.521-0.54-1.054-1.067-1.598-1.578
										c-0.272-0.256-0.547-0.508-0.824-0.757c-0.555-0.497-1.12-0.979-1.696-1.446c-1.152-0.934-2.344-1.806-3.575-2.613
										c-0.615-0.403-1.24-0.791-1.874-1.161c-0.317-0.185-0.636-0.366-0.957-0.543c-0.642-0.353-1.293-0.689-1.953-1.008
										c-0.659-0.318-1.327-0.619-2.002-0.901c-4.728-1.977-9.836-3.061-15.168-3.073h0.001c0,0,0,0-0.001,0l9.859,0.021
										c24.375,0.053,44.086,22.527,44.026,50.199c-0.023,10.809-3.06,20.813-8.205,28.988c-0.412,0.654-0.837,1.296-1.275,1.926
										c-1.314,1.89-2.746,3.67-4.283,5.326c-0.512,0.552-1.036,1.09-1.571,1.614c-0.802,0.786-1.63,1.539-2.481,2.259
										c-0.567,0.48-1.145,0.944-1.733,1.393c-0.882,0.673-1.786,1.312-2.712,1.913c-2.468,1.604-5.085,2.944-7.822,3.989
										c-0.342,0.13-0.686,0.256-1.032,0.378c-4.149,1.455-8.559,2.234-13.129,2.224l-9.859-0.021
										c24.375,0.053,44.183-22.337,44.243-50.009c0.021-9.945-2.51-19.218-6.895-27.021
										C2991.529,1383.934,2991.134,1383.267,2990.725,1382.611z"/>
								</g>
							</g>
						</g>
					</g>
					<g>
						<g>
							<g>
								<g>
									<path style="fill:#C4C4C4;" d="M2900.093,1400.104L2900.093,1400.104
										C2900.094,1400.104,2900.094,1400.104,2900.093,1400.104l51.612,0.112c5.608,0.012,10.143,5.183,10.129,11.549
										c-0.006,2.487-0.704,4.788-1.888,6.669c-1.796,2.853-4.863,4.844-8.291,4.836l-51.612-0.112
										C2905.651,1423.171,2903.524,1400.112,2900.093,1400.104z"/>
								</g>
							</g>
						</g>
					</g>
					<g>
						<g>
							<g>
								<g>
									<path style="fill:#434A59;" d="M2901.21,1411.634c-0.06,27.672-19.868,50.062-44.243,50.009
										c-24.375-0.053-44.084-22.528-44.025-50.2c0.06-27.672,19.867-50.061,44.242-50.008S2901.27,1383.961,2901.21,1411.634z"/>
								</g>
							</g>
						</g>
						<g>
							<g>
								<g>
									<path style="fill:#32373F;" d="M2893.13,1382.611c-0.409-0.656-0.831-1.3-1.267-1.932
										c-0.871-1.264-1.794-2.479-2.766-3.641c-0.729-0.872-1.485-1.714-2.267-2.524c-0.521-0.54-1.054-1.067-1.598-1.578
										c-0.272-0.256-0.547-0.508-0.824-0.757c-0.555-0.497-1.12-0.979-1.696-1.446c-1.152-0.934-2.344-1.806-3.575-2.613
										c-0.615-0.403-1.24-0.791-1.874-1.161c-0.317-0.185-0.636-0.366-0.957-0.543c-0.643-0.353-1.294-0.689-1.953-1.008
										c-0.659-0.318-1.327-0.619-2.002-0.901c-4.727-1.977-9.836-3.061-15.168-3.073h0.001c0,0,0,0-0.001,0l9.859,0.021
										c24.375,0.053,44.086,22.527,44.026,50.199c-0.023,10.809-3.06,20.813-8.206,28.988c-0.411,0.654-0.837,1.296-1.275,1.926
										c-1.314,1.89-2.746,3.67-4.283,5.326c-0.512,0.552-1.036,1.09-1.571,1.614c-0.802,0.786-1.63,1.539-2.481,2.259
										c-0.568,0.48-1.146,0.944-1.733,1.393c-0.882,0.673-1.787,1.312-2.712,1.913c-2.468,1.604-5.085,2.944-7.822,3.989
										c-0.342,0.13-0.686,0.256-1.032,0.378c-4.149,1.455-8.559,2.234-13.129,2.224l-9.859-0.021
										c24.375,0.053,44.183-22.337,44.243-50.009c0.021-9.945-2.51-19.218-6.895-27.021
										C2893.934,1383.934,2893.539,1383.267,2893.13,1382.611z"/>
								</g>
							</g>
						</g>
					</g>
					<g>
						<g>
							<g>
								<g>
									<path style="fill:#E2E2E2;" d="M2852.743,1411.604c0,6.366-4.546,11.527-10.154,11.527
										c-5.608,0-10.154-5.161-10.154-11.527c0-6.367,4.546-11.527,10.154-11.527
										C2848.197,1400.077,2852.743,1405.238,2852.743,1411.604z"/>
								</g>
							</g>
						</g>
						<g>
							<g>
								<g>
									<path style="fill:#C4C4C4;" d="M2850.87,1404.931c-1.787-2.853-4.85-4.854-8.281-4.854h0c0,0,0,0,0,0h15.377
										c5.608,0,10.154,5.161,10.154,11.527c0,2.487-0.694,4.79-1.873,6.673c-1.79,2.857-4.852,4.854-8.281,4.854h-15.378
										c5.608,0,10.154-5.161,10.154-11.527c0-2.288-0.587-4.42-1.6-6.213C2851.055,1405.235,2850.964,1405.082,2850.87,1404.931z
										"/>
								</g>
							</g>
						</g>
					</g>
				</g>
				<g>
					<g>
						<g>
							<path style="fill:#7F635D;" d="M2754.974,1036.721c0,0,8.461-5.533,13.177,2.427c4.717,7.96-1.186,17.677-8.125,17.981
								C2753.088,1057.434,2742.273,1041.044,2754.974,1036.721z"/>
						</g>
					</g>
				</g>
				<g>
					<g>
						<g>
							<path style="fill:#7F635D;" d="M2721.212,1015.848c0,0,8.386-7.152,14.667-6.857c10.033,0.472,13.332,5.019,17.823,14.722
								c2.19,4.732,3.56,17.765,1.98,23.622c-1.579,5.857-8.559,20.967-11.585,20.974s-28.168-18.636-31.99-25.719
								C2708.286,1035.507,2703.398,1018.867,2721.212,1015.848z"/>
						</g>
					</g>
				</g>
				<g>
					<g>
						<g>
							<g>
								<path style="fill:#FF867A;" d="M2741.887,1054.532l8.801,24.665l3.622,6.713c1.627,5.294-9.781,23.568-20.158,19.348
									c-3.038-1.235-4.156-8.823-3.487-15.022l0.217-30.24L2741.887,1054.532z"/>
							</g>
						</g>
					</g>
				</g>
				<g>
					<g>
						<g>
							<g>
								<path style="fill:#C66C67;" d="M2730.757,1077.304l0.094-13.129l9.167-4.861
									C2740.018,1059.314,2741.333,1073.872,2730.757,1077.304z"/>
							</g>
						</g>
					</g>
				</g>
				<g>
					<g>
						<g>
							<g>
								<path style="fill:#FF867A;" d="M2734.51,1034.641l7.778,8.185c5.193,8.968,0.583,21.121-8.883,25.337
									c-11.806,5.258-18.64,4.849-22.404-6.526c-2.207-6.67-0.301-20.684,0.504-26.126c0.942-6.363,5.059-10.526,9.991-11.393
									C2726.183,1023.295,2722.555,1030.712,2734.51,1034.641z"/>
							</g>
						</g>
					</g>
				</g>
				<g>
					<g>
						<g>
							<g>
								<g>
									<path style="fill:#C66C67;" d="M2720.278,1049.422c-1.523-0.152-2.886-0.634-4.168-1.47
										c-0.971-0.633-1.768,0.983-0.808,1.609c1.39,0.906,2.959,1.458,4.609,1.623
										C2721.054,1051.299,2721.43,1049.537,2720.278,1049.422z"/>
								</g>
							</g>
						</g>
					</g>
				</g>
				<g>
					<g>
						<g>
							<path style="fill:#FFFFFF;" d="M2724.628,1052.993c-1.892,0.16-6.479,1.221-11.556,1.096
								c-0.371-0.009-0.566,0.518-0.439,0.93c0.373,1.215,1.236,2.743,2.759,3.339c1.691,0.661,6.393,2.111,9.914-4.42
								C2725.536,1053.514,2725.065,1052.956,2724.628,1052.993z"/>
						</g>
					</g>
				</g>
				<g>
					<g>
						<g>
							<g>
								<path style="fill:#FF867A;" d="M2740.962,1042.147c0.387-1.082,0.605-2.208,0.757-3.347c0.287-2.165,1.215-5.315,4.217-3.31
									c4.367,2.917,2.206,14.366-3.26,14.535C2738.616,1050.151,2739.987,1044.873,2740.962,1042.147z"/>
							</g>
						</g>
					</g>
				</g>
				<g>
					<g>
						<g>
							<g>
								<path style="fill:#7F635D;" d="M2721.365,1036.101c1.718,0.026,3.592,0.32,5.206,0.978c0.767,0.313,0.276,1.43-0.49,1.118
									c-1.385-0.565-3.086-0.844-4.562-0.867C2720.708,1037.318,2720.544,1036.088,2721.365,1036.101z"/>
							</g>
						</g>
					</g>
				</g>
				<g>
					<g>
						<g>
							<g>
								<path style="fill:#7F635D;" d="M2710.704,1039.073c0.885-0.591,1.819-1.103,2.759-1.608
									c0.718-0.386,1.369,0.668,0.648,1.056c-0.94,0.506-1.875,1.017-2.76,1.608
									C2710.677,1040.579,2710.031,1039.522,2710.704,1039.073z"/>
							</g>
						</g>
					</g>
				</g>
				<g>
					<g>
						<g>
							<path style="fill:#434A59;" d="M2722.17,1042.201c0.176,1.022,0.88,1.753,1.573,1.634c0.693-0.119,1.113-1.044,0.938-2.066
								c-0.176-1.022-0.88-1.753-1.573-1.634C2722.414,1040.255,2721.994,1041.18,2722.17,1042.201z"/>
						</g>
					</g>
				</g>
				<g>
					<g>
						<g>
							<path style="fill:#434A59;" d="M2710.666,1043.646c0.175,1.022,0.88,1.753,1.573,1.634c0.693-0.119,1.113-1.044,0.938-2.066
								c-0.175-1.022-0.88-1.753-1.573-1.634C2710.91,1041.7,2710.49,1042.625,2710.666,1043.646z"/>
						</g>
					</g>
				</g>
				<g>
					<g>
						<path style="fill:#FF867A;" d="M2802.033,1095.994c0,0,79.524,45.19,112.304,128.103
							c23.379,59.135,36.472,172.052,16.602,179.805s-71.024-165.991-71.024-165.991s-54.698-73.672-67.227-105.809
							S2791.537,1088.584,2802.033,1095.994z"/>
					</g>
				</g>
				<g>
					<g>
						<path style="fill:#FF867A;" d="M2938.44,1383.475c0,0,7.592,18.981,8.315,24.042c0.723,5.062,0.723,18.077-2.892,19.162
							c-3.615,1.085-21.692,1.265-23.138-1.808c-1.446-3.073,2.712-12.473,1.446-15.185c-1.265-2.712-5.423-9.582-5.423-9.582
							s0.723-18.256,3.977-21.149C2923.978,1376.063,2937.355,1376.244,2938.44,1383.475z"/>
					</g>
				</g>
				<g>
					<g>
						<g>
							<path style="fill:#434A59;" d="M2775.024,1856.561c0,0,9.001,21.755,9.095,25.406c0.094,3.651-1.86,9.12-4.121,10.614
								c-2.26,1.495-13.859,2.202-22.354,5.499s-33.642,8.785-41.694,8.539c-8.052-0.245-13.609-7.246-13.385-9.714
								c0.224-2.469,16.683-10.567,22.928-15.16s17.847-22.514,17.847-22.514S2758.394,1863.296,2775.024,1856.561z"/>
						</g>
					</g>
				</g>
				<g>
					<g>
						<path style="fill:#C66C67;" d="M2859.917,1240.442c0.547,0,1.098-0.176,1.561-0.54c13.34-10.471,30.628-13.033,30.801-13.058
							c1.384-0.197,2.346-1.479,2.149-2.862c-0.197-1.383-1.481-2.344-2.862-2.148c-0.762,0.108-18.815,2.787-33.213,14.088
							c-1.099,0.863-1.291,2.454-0.428,3.553C2858.424,1240.109,2859.167,1240.442,2859.917,1240.442z"/>
					</g>
				</g>
				<g>
					<g>
						<path style="fill:#2F6C70;" d="M2806.374,1456.79c0.279,0,0.563-0.036,0.845-0.112c1.736-0.465,2.765-2.25,2.3-3.986
							c-10.134-37.783-32.887-49.091-33.851-49.554c-1.618-0.777-3.564-0.096-4.342,1.524c-0.776,1.616-0.099,3.556,1.514,4.337
							c0.255,0.126,21.096,10.717,30.393,45.379C2803.623,1455.832,2804.938,1456.79,2806.374,1456.79z"/>
					</g>
				</g>
				<g>
					<g>
						<path style="fill:#2F6C70;" d="M2711.396,1570.47c0.473,0,0.953-0.103,1.409-0.322l30.851-14.842
							c1.619-0.779,2.301-2.724,1.521-4.343c-0.779-1.62-2.722-2.301-4.343-1.522l-30.851,14.842
							c-1.619,0.779-2.301,2.724-1.521,4.343C2709.022,1569.791,2710.185,1570.47,2711.396,1570.47z"/>
					</g>
				</g>
				<g>
					<g>
						<path style="fill:#2F6C70;" d="M2940.664,1549.964c0.983,0,1.955-0.444,2.595-1.288l15.126-19.951
							c1.085-1.432,0.805-3.473-0.627-4.559c-1.432-1.085-3.473-0.806-4.559,0.627l-15.126,19.951
							c-1.086,1.432-0.805,3.473,0.627,4.559C2939.288,1549.748,2939.979,1549.964,2940.664,1549.964z"/>
					</g>
				</g>
			</g>
		</g>
		<g>
			<g>
				<g>
					<g>
						<path style="fill:#434A59;" d="M2965.903,2019.012l-48.887,11.87c-11.14,2.705-9.178,19.103,2.286,19.103h1238.63
							c29.394,0,58.528-5.505,85.896-16.23l6.841-2.681c9.967-3.906,7.17-18.708-3.535-18.708H3021.448
							C3002.735,2012.365,2984.088,2014.596,2965.903,2019.012z"/>
					</g>
				</g>
			</g>
			<g>
				<g>
					<path style="fill:#FF867A;" d="M3503.385,1048.42c-4.24-10.601-9.059-15.461-11.565-15.151
						c-2.506,0.31-31.418-5.087-32.574,2.815c-1.156,7.903,13.17,22.429,16.383,24.479c3.213,2.05,24.884,19.853,25.655,16.191
						l10.774-12.548C3512.059,1064.205,3505.472,1053.637,3503.385,1048.42z"/>
				</g>
				<g>
					<path style="fill:#F27C79;" d="M3921.7,1286.576c0,0,155.952-9.553,171.145-14.276c36.59-11.374,194.417-64.453,206.296-46.428
						c11.88,18.025-123.194,97.771-186.086,115.796c-62.892,18.025-190.568,33.319-203.845,18.571
						C3895.933,1345.493,3921.7,1286.576,3921.7,1286.576z"/>
				</g>
				<g>
					<path style="fill:#F27C79;" d="M4288.305,1241.349c0,0,19.271,1.362,23.325,3.097c4.054,1.735,7.7,8.045,8.598,2.135
						c0.898-5.91-9.294-8.257-11.68-10.122c-2.385-1.865,13.317-14.293,24.912-26.767c5.521-5.94-32.105-2.606-39.549,2.504
						c-7.443,5.109-19.182,12.275-16.283,18.789S4286.7,1241.227,4288.305,1241.349z"/>
				</g>
				<g>
					<path style="fill:#FF867A;" d="M3640.312,1308.624c-1.939,0.029-4.175-0.113-6.667-0.406l55.776,170.413
						c2.798-1.334,16.097-4.337,35.47-9.664c-15.162-27.43-35.47-118.149-60.255-164.661
						C3656.4,1306.915,3648.271,1308.503,3640.312,1308.624z"/>
				</g>
				<g>
					<path style="fill:#FF5F4A;" d="M3806.632,1238.982c-42.971,0.558-120.033,54.518-167.747,69.633
						c14.622,39.314,60.417,157.863,86.005,197.19c55.734-15.325,161.76-86.734,212.832-156.216
						C3975.621,1298.029,3869.719,1238.163,3806.632,1238.982z"/>
				</g>
				<g>
					<path style="fill:#FF867A;" d="M3409.266,1219.04c0,0,68.658-110.781,70.871-172.596c0.316-8.841,0.009-13.817-10.241-13.109
						c-14.735,1.017-145.018,144.739-138.464,206.188c3.156,29.586,33.263,64.95,83.82,107.616
						c36.619-8.2,58.74-42.833,29.614-109.078C3413.594,1223.109,3409.266,1219.04,3409.266,1219.04z"/>
				</g>
				<g>
					<path style="fill:#FF867A;" d="M3562.477,1705.171c0,0,0.819,275.48,14.748,285.312c13.928,9.832,25.988,8.024,26.389-5.206
						c0.385-12.721,56.154-206.595,56.154-349.75c-28.925-1.776-73.634,13.567-103.641,10.673
						C3559.887,1680.555,3562.477,1705.171,3562.477,1705.171z"/>
				</g>
				<g>
					<path style="fill:#434A59;" d="M3689.42,1478.631l-55.776-170.413c-36.419-4.279-128.919-41.537-188.78-70.157
						c-6.925,22.275-30.227,74.699-43.792,117.264c54.448,45.951,127.251,90.922,130.225,93.896
						c3.983,3.983,7.42,119.944,9.058,204.3c30.007,2.895,101.794,1.282,130.719,3.058c16.284-91.663,16.407-175.828,17.842-177.621
						C3688.993,1478.863,3689.162,1478.754,3689.42,1478.631z"/>
				</g>
				<g>
					<g>
						<path style="fill:#FFFFFF;" d="M3440.506,1250.59c16.572,7.485,89.262,40.311,103.415,46.574
							c16.037,7.097,68.794,25.002,71.032,25.76l2.104-6.207c-0.545-0.185-54.715-18.568-70.485-25.547
							c-14.269-6.314-88.208-39.706-103.83-46.762C3442.064,1246.343,3441.32,1248.399,3440.506,1250.59z"/>
					</g>
					<g>
						<path style="fill:#FFFFFF;" d="M3611.675,1339.857l2.106-6.207c-0.934-0.317-93.712-31.794-123.377-42.563
							c-23.108-8.389-45.196-24.631-53.471-31.099c-0.798,2.061-1.629,4.192-2.49,6.385c9.506,7.33,30.821,22.56,53.725,30.875
							C3517.896,1308.041,3610.741,1339.54,3611.675,1339.857z"/>
					</g>
				</g>
				<g>
					<g>
						<path style="fill:#FFFFFF;" d="M3549.338,1457.804l-8.182,0.415l9.933,195.993c2.631,0.105,5.371,0.18,8.215,0.224
							L3549.338,1457.804z"/>
					</g>
				</g>
				<g>
					<path style="fill:#FF867A;" d="M3800.077,1239.429c0,0-144.199-94.703-147.476-99.192
						c-3.277-4.489-153.985-93.603-164.636-82.952c-10.651,10.651,88.44,112.874,122.032,136.634
						c33.592,23.76,100.926,81.369,134.367,86.847C3752.45,1282.092,3802.535,1269.372,3800.077,1239.429z"/>
				</g>
				<g>
					<g>
						<g>
							<g>
								<g>
									<path style="fill:#33373F;" d="M3924.921,1218.446c0,0,4.875-1.241,8.858-4.803c6.621-5.92,3.287-13.484,1.688-17.926
										c-1.6-4.442-6.24-7.836-12.199-9.113c-9.484-2.031-12.027,1.471-18.823-4.512c-2.687-2.366-7.351-2.479-7.41-1.247
										c-0.058,1.232,1.872,3.737,1.872,3.737s-10.101,0.002-15.033,13.864c-4.933,13.862-2.612,37.091,4.164,40.404
										C3894.813,1242.163,3924.921,1218.446,3924.921,1218.446z"/>
								</g>
							</g>
						</g>
					</g>
				</g>
				<g>
					<g>
						<g>
							<g>
								<g>
									<path style="fill:#FF867A;" d="M3898.689,1222.835l-32.262,29.284c-5.407,5.423,1.249,35.611,11.506,36.487
										c3.003,0.257,6.108-3.75,8.433-9.135l17.206-36.896L3898.689,1222.835z"/>
								</g>
							</g>
						</g>
					</g>
				</g>
				<g>
					<g>
						<g>
							<g>
								<g>
									<path style="fill:#C66C67;" d="M3900.927,1248.251c-3.123-4.573-7.132-10.602-7.132-10.602s-4.316,3.119-3.812,13.433
										c0.228,4.664,1.798,8.687,4.079,11.889L3900.927,1248.251z"/>
								</g>
							</g>
						</g>
					</g>
				</g>
				<g>
					<g>
						<g>
							<g>
								<g>
									<path style="fill:#FF867A;" d="M3903.079,1208.251l-10.445,15.417c-4.009,7.162-3.525,16.085,2.465,21.697
										c5.524,5.176,9.188,8.434,17.252,9.675c6.719,1.034,11.8-4.269,14.187-12.787c3.095-11.05,2.805-22.108,2.319-28.015
										c-0.521-6.324-4.033-10.851-8.647-12.55C3914.996,1199.77,3914.781,1207.588,3903.079,1208.251z"/>
								</g>
							</g>
						</g>
					</g>
				</g>
				<g>
					<g>
						<g>
							<g>
								<g>
									<path style="fill:#C66C67;" d="M3918.521,1230.323c1.689-0.154,3.204-0.675,4.633-1.589c1.082-0.693,1.95,1.106,0.88,1.791
										c-1.549,0.991-3.293,1.588-5.123,1.755C3917.644,1232.396,3917.244,1230.44,3918.521,1230.323z"/>
								</g>
							</g>
						</g>
					</g>
				</g>
				<g>
					<g>
						<g>
							<g>
								<g>
									<path style="fill:#FFFFFF;" d="M3912.104,1235.066c0.007,0.001,7.218,0.558,14.484,2.436c0,0-2.663,5.465-6.959,4.876
										C3917.412,1242.075,3911.894,1239.989,3912.104,1235.066z"/>
								</g>
							</g>
						</g>
					</g>
				</g>
				<g>
					<g>
						<g>
							<g>
								<g>
									<path style="fill:#FF867A;" d="M3897.054,1222.107c-0.178-1.407-0.141-2.822-0.02-4.235c0.231-2.685-0.048-6.729-4.2-5.113
										c-6.04,2.351-6.488,16.724,0.055,18.386C3897.747,1232.378,3897.502,1225.651,3897.054,1222.107z"/>
								</g>
							</g>
						</g>
					</g>
				</g>
				<g>
					<g>
						<g>
							<g>
								<g>
									<path style="fill:#33373F;" d="M3917.285,1213.745c-0.672-0.811-2.19-1.31-3.207-1.246c-1.051,0.066-2.38,0.44-3.173,1.211
										c-0.114,0.068-0.193,0.16-0.241,0.266c-0.001,0.002-0.003,0.003-0.004,0.005c-0.144,0.188-0.115,0.387-0.005,0.532
										c0.109,0.283,0.39,0.502,0.792,0.422c1.625-0.325,3.535-0.273,5.146,0.011
										C3917.37,1215.084,3917.801,1214.094,3917.285,1213.745z"/>
								</g>
							</g>
						</g>
					</g>
				</g>
				<g>
					<g>
						<g>
							<g>
								<g>
									<path style="fill:#33373F;" d="M3929.803,1217.224c-0.04-0.045-0.086-0.086-0.145-0.118
										c-0.414-0.229-0.902-0.61-1.414-0.923c-0.038-0.029-0.073-0.054-0.104-0.07c-0.014-0.007-0.028-0.011-0.042-0.018
										c-0.758-0.437-1.558-0.681-2.244-0.029c-0.088,0.084-0.132,0.184-0.146,0.286c-0.194,0.36-0.126,0.887,0.365,1.04
										c1.095,0.34,2.186,0.689,3.247,1.14C3930.093,1218.861,3930.477,1217.632,3929.803,1217.224z"/>
								</g>
							</g>
						</g>
					</g>
				</g>
				<g>
					<g>
						<path style="fill:#33373F;" d="M3925.859,1222.719c-0.187,1.024,0.24,1.96,0.954,2.09c0.713,0.13,1.443-0.595,1.63-1.619
							s-0.24-1.96-0.954-2.09S3926.046,1221.695,3925.859,1222.719z"/>
					</g>
				</g>
				<g>
					<g>
						<path style="fill:#33373F;" d="M3913.418,1220.592c-0.187,1.024,0.24,1.96,0.954,2.09s1.443-0.595,1.63-1.619
							s-0.24-1.96-0.954-2.09C3914.335,1218.843,3913.605,1219.568,3913.418,1220.592z"/>
					</g>
				</g>
				<g>
					<g>
						<path style="fill:#FFE1D6;" d="M3451.071,1045.032c2.508-5.667,3.053-12.006,2.165-18.139
							c-2.293-15.835-5.987-40.46-7.246-43.788c-1.876-4.958-4.606-16.957,15.274-4.246c19.881,12.712,36.811,39.482,39.745,45.767
							c2.935,6.285-18.595,27.354-20.802,35.747C3477.433,1070.919,3445.472,1057.682,3451.071,1045.032z"/>
					</g>
				</g>
				<g>
					<g>
						<path style="fill:#FFFFFF;" d="M3607.165,1969.782c1.585,5.991,0.787,25.141,5.315,29.372
							c11.689,10.925,26.392,18.286,29.455,20.096c4.564,2.697,14.197,10.355-9.267,12.863
							c-23.463,2.508-53.413-7.801-59.633-10.872c-6.22-3.071-0.784-35.18-1.486-48.489
							C3570.976,1961.863,3603.626,1956.409,3607.165,1969.782z"/>
					</g>
				</g>
				<g>
					<path style="fill:#C66C67;" d="M4085.87,1307.619c-0.234,0-0.471-0.025-0.709-0.077c-1.787-0.39-2.919-2.154-2.53-3.941
						l6.979-32.005c0.39-1.787,2.152-2.918,3.942-2.53c1.787,0.39,2.919,2.154,2.53,3.941l-6.979,32.005
						C4088.765,1306.561,4087.393,1307.619,4085.87,1307.619z"/>
				</g>
				<g>
					<path style="fill:#C66C67;" d="M3649.485,1196.293c-0.477,0-0.962-0.104-1.421-0.323c-1.651-0.786-2.353-2.762-1.566-4.414
						l10.28-21.588c0.786-1.651,2.762-2.355,4.414-1.566c1.651,0.786,2.353,2.762,1.566,4.414l-10.28,21.588
						C3651.91,1195.596,3650.723,1196.293,3649.485,1196.293z"/>
				</g>
			</g>
		</g>
		<g>
			<g>
				<g>
					<g>
						<g>
							<ellipse style="fill:#FFAE43;" cx="4565.915" cy="1681.946" rx="204.236" ry="198.98"/>
						</g>
					</g>
				</g>
				<g>
					<g>
						<g>
							<g>
								<path style="fill:#D47328;" d="M4655.078,1502.882c6.988,35.342,13.601,94.622-7.802,162.143
									c-34.398,108.523-139.09,135.701-252.81,125.087c36.403,54.657,99.591,90.814,171.449,90.814
									c112.796,0,204.236-89.087,204.236-198.98C4770.151,1603.198,4723.197,1535.137,4655.078,1502.882z"/>
							</g>
						</g>
					</g>
				</g>
				<g>
					<g>
						<path style="fill:#D47328;" d="M4587.973,1560.182c-22.468,0-44.04-0.878-62.963-2.067
							c-59.477-3.739-106.285-11.276-106.751-11.352c-1.512-0.246-2.538-1.67-2.292-3.181c0.246-1.512,1.661-2.54,3.182-2.292
							c0.463,0.075,47.048,7.575,106.265,11.294c54.539,3.426,131.248,4.259,186.972-11.229c1.477-0.41,3.005,0.453,3.414,1.929
							c0.41,1.475-0.454,3.004-1.928,3.414C4676.829,1556.993,4630.784,1560.182,4587.973,1560.182z"/>
					</g>
				</g>
				<g>
					<g>
						<path style="fill:#D47328;" d="M4593.803,1769.631c-28.361,0-55.604-0.877-79.495-2.066
							c-75.094-3.736-134.179-11.265-134.767-11.341c-1.519-0.195-2.592-1.585-2.397-3.104c0.195-1.518,1.588-2.594,3.104-2.396
							c0.586,0.075,59.494,7.58,134.38,11.304c69.024,3.432,166.123,4.265,236.713-11.263c1.493-0.327,2.976,0.617,3.304,2.112
							c0.329,1.496-0.617,2.975-2.112,3.304C4705.851,1766.451,4647.8,1769.631,4593.803,1769.631z"/>
					</g>
				</g>
				<g>
					<g>
						<path style="fill:#D47328;" d="M4595.223,1662.786c-29.82,0-58.462-1.165-83.582-2.745
							c-78.953-4.963-141.079-14.967-141.697-15.067c-1.512-0.246-2.538-1.67-2.292-3.181c0.246-1.511,1.665-2.539,3.181-2.292
							c0.616,0.1,62.519,10.066,141.211,15.01c72.513,4.556,174.516,5.662,248.654-14.945c1.479-0.41,3.005,0.454,3.414,1.929
							c0.41,1.475-0.454,3.004-1.929,3.414C4713.075,1658.558,4652.014,1662.786,4595.223,1662.786z"/>
					</g>
				</g>
			</g>
			<g>
				<g>
					<path style="fill:#FFE164;" d="M4736.222,1160.527c-1.127-2.495-11.205-16.692-16.344-21.08
						c-8.672-7.405-23.891-17.254-36.063-7.129c0,0-12.864,0.274-18.282,13.049c-3.727,8.787,11.062,52.553,10.415,57.766
						c-3.543,28.548-8.375,40.874-13.315,63.609c-7.436,34.225,19.603,66.358,54.556,54.49
						c34.953-11.868,55.982-61.652,47.507-94.386C4758.503,1202.928,4743.73,1174.244,4736.222,1160.527z"/>
				</g>
				<g>
					<path style="fill:#FF867A;" d="M4709.752,1223.727l-55.774,146.21c0,0-147.124,120.043-127.152,142.678
						c19.971,22.634,157.697-69.457,184.404-107.181c35.505-50.151,41.94-117.832,38.612-148.455
						S4709.752,1223.727,4709.752,1223.727z"/>
				</g>
				<g>
					<path style="fill:#FF867A;" d="M5036.358,866.895c-0.917-9.852-7.638-21.264-0.204-18.804s7.683,12.714,12.704,14.953
						c5.02,2.238,22.297-26.539,26.542-22.108c2.819,2.942-10.018,16.523-8.885,16.978c1.132,0.455,12.415-14.203,15.768-10.373
						c4.111,4.697,5.06,12.112,1.777,19.244c2.023-1.379,3.94-2.176,4.918-1.214c2.63,2.587-35.529,50.299-49.451,24.17
						C5036.515,884.089,5037.77,882.064,5036.358,866.895z"/>
				</g>
				<g>
					<g>
						<path style="fill:#FF867A;" d="M5269.618,1851.434l29.441-16.612l-204.121-279.889
							c-40.607,27.932-82.577,51.835-96.207,59.447C5116.692,1728.545,5269.618,1851.434,5269.618,1851.434z"/>
					</g>
					<g>
						<path style="fill:#F2C3A7;" d="M5097.958,1552.846c29.755-20.652,58.369-43.307,74.085-63.111
							c-36.122-61.271-67.915-112.129-83.898-130.29c-20.307-23.074-56.771-52.047-95.836-80.661
							c-11.145,14.094-29.252,35.927-49.631,56.306c-27.462,27.462-78.457,70.219-96.461,85.163
							c17.263,23,19.054,43.078,48.85,82.174c24.66,32.356,61.98,71.61,103.665,111.953c13.629-7.611,55.6-31.515,96.207-59.447
							l-85.985-108.351L5097.958,1552.846z"/>
					</g>
					<g>
						<path style="fill:#FF867A;" d="M5097.958,1552.846l227.694,273.322l25.422-18.008c0,0-99.903-184.204-179.031-318.426
							C5156.326,1509.539,5127.713,1532.195,5097.958,1552.846z"/>
					</g>
				</g>
				<g>
					<path style="fill:#FF867A;" d="M4774.37,1167.819l154.313-133.214c0,0,109.724-166.051,127.021-147.878
						c17.297,18.174-45.694,141.27-69.826,170.886c-17.079,20.96-80.371,113.839-124.862,136.944
						C4840.658,1205.13,4780.545,1188.896,4774.37,1167.819z"/>
				</g>
				<g>
					<path style="fill:#FF867A;" d="M4814.416,1210.378c23.475,13.072,57.635-1.221,70.277-7.413
						c-17.443-12.244-31.721-22.553-40.542-29.867c-16.042-13.301-44.574-13.643-71.521-4.719
						C4778.809,1178.412,4793.079,1198.497,4814.416,1210.378z"/>
				</g>
				<g>
					<path style="fill:#F95873;" d="M4884.693,1202.965c-12.642,6.192-46.802,20.484-70.277,7.413
						c-21.337-11.881-35.607-31.966-41.785-41.999c-5.542,1.835-11.014,4.064-16.299,6.651c1.117,8.044,3.12,22.78,4.494,34.682
						c1.997,17.309-2.996,42.939-2.996,42.939c-17.319-6.873-36.679-33.041-42.897-41.946c-2.537,4.242-4.567,8.703-6.004,13.356
						c4.299,8.984,13.283,27.069,14.283,38.576c0.708,8.135,2.073,19.183,3.197,27.752c27.031,40.604,74.253,78.062,113.304,121.924
						c2.408,2.705,4.553,5.34,6.503,7.939c18.004-14.943,68.999-57.701,96.461-85.163c20.379-20.379,38.486-42.212,49.631-56.306
						C4954.844,1251.341,4914.99,1224.231,4884.693,1202.965z"/>
				</g>
				<g>
					<path style="fill:#FF867A;" d="M4708.929,1224.061c-0.381,1.233-0.733,2.475-1.028,3.735
						c-2.254,9.626-1.557,20.618,3.035,32.986c3.762,10.133,9.05,19.959,15.473,29.608c-1.124-8.569-2.489-19.617-3.197-27.752
						C4722.212,1251.13,4713.229,1233.045,4708.929,1224.061z"/>
				</g>
				<g>
					<path style="fill:#FF867A;" d="M4757.83,1252.651c0,0,4.993-25.63,2.996-42.939c-1.374-11.903-3.376-26.638-4.494-34.682
						c-17.23,8.435-32.441,20.695-41.399,35.675C4721.151,1219.61,4740.511,1245.779,4757.83,1252.651z"/>
				</g>
				<g>
					<path style="fill:#FF867A;" d="M4546.298,1500.299c5.492,10.818-2.343,17.648-11.826,23.516s-12.916,18.005-17.464,18.007
						c-4.549,0.001,2.998-12.629,2.809-15.611c-0.19-2.982-14.069,3.333-27.004,4.586c-14.755,1.43-1.876-5.976-1.876-5.976
						s-11.792-0.056-9.716-7.283s12.562-10.461,12.562-10.461s-4.776-0.848,2.754-5.588
						C4504.066,1496.749,4540.401,1488.684,4546.298,1500.299z"/>
				</g>
				<g>
					<path style="fill:#FFFFFF;" d="M5265.765,1848.323c0,0,8.995,11.464,10.66,14.127c1.664,2.663-9.994,10.651-5.33,15.312
						c4.664,4.66,30.294,5.659,37.95,3.661s21.303-12.316,5.992-27.96s-23.591-29.08-23.591-29.08
						S5261.763,1839.855,5265.765,1848.323z"/>
				</g>
				<g>
					<path style="fill:#FFFFFF;" d="M5304.198,1800.416c0,0,17.163,31.743,23.82,39.732s32.953,27.96,41.94,30.623
						c8.987,2.663,16.31,5.326,16.976-6.324c0.666-11.65,3.329-17.642,0-24.964s-9.653-9.638-27.294-26.962
						c-6.858-6.735-20.305-25.9-20.305-25.9L5304.198,1800.416z"/>
				</g>
				<g>
					<g>
						<g>
							<g>
								<g>
									<path style="fill:#FF867A;" d="M4709.833,1165.507l28.14,22.871c4.958,4.237,6.991,27.42-6.041,29.818
										c-3.815,0.702-7.964-8.181-11.194-14.778l-15.964-23.776L4709.833,1165.507z"/>
								</g>
							</g>
						</g>
						<g>
							<g>
								<g>
									<path style="fill:#FF867A;" d="M4693.654,1149.967c0,0,8.604,5.575,13.524,11.019c7.259,8.03,5.453,16.641-1.558,24.951
										c-6.834,8.101-11.025,8.902-17.638,5.128c-1.64-0.936-3.878-2.542-5.555-4.379c-2.785-3.05-6.322-9.235-7.24-14.556
										c-0.418-2.426-1.999-5.475-2.543-7.189C4668.681,1152.462,4679.941,1142.226,4693.654,1149.967z"/>
								</g>
							</g>
						</g>
						<g>
							<g>
								<g>
									<path style="fill:#C66C67;" d="M4710.194,1172.399c1.805,0.625,7.646,15.789,4.594,22.158l-5.67-7.672
										c-0.865-1.187-2.531-2.094-3.477-0.971c-0.006,0.008-0.013,0.016-0.02,0.023c-5.589,6.626-9.411,8.367-14.235,6.718
										c2.088-0.734,6.656-2.655,9.993-6.336C4705.835,1181.401,4708.276,1171.735,4710.194,1172.399z"/>
								</g>
							</g>
						</g>
					</g>
					<g>
						<g>
							<g>
								<g>
									<path style="fill:#FFFFFF;" d="M4695.296,1172.345c-3.285,3.911-8.304,7.303-10.663,8.147
										c-0.807,0.288-1.063,1.296-0.509,1.845c10.401,10.316,15.306-3.386,12.988-9.461
										C4696.776,1171.998,4695.939,1171.58,4695.296,1172.345z"/>
								</g>
							</g>
						</g>
					</g>
				</g>
				<g>
					<g>
						<path style="fill:#FFE164;" d="M4682.693,1145.414c0,0-0.752,9.57-3.241,12.657c-2.489,3.087-4.117-2.764-4.117-2.764
							s1.127,5.146-0.877,7.067c-2.005,1.921-3.349-4.114-3.349-4.114s1.096,5.657-1.167,7.391
							c-2.263,1.734-4.818-5.02-2.511-11.949c2.308-6.93,10.59-14.93,12.806-12.368
							C4682.453,1143.896,4682.693,1145.414,4682.693,1145.414z"/>
					</g>
				</g>
				<g>
					<g>
						<g>
							<path style="fill:#C66C67;" d="M4687.425,1173.886c-1.568,0.593-3.139,0.786-4.804,0.592
								c-1.261-0.147-1.254,1.826-0.007,1.972c1.804,0.211,3.612-0.013,5.311-0.656
								C4689.102,1175.348,4688.61,1173.437,4687.425,1173.886z"/>
						</g>
						<g>
							<path style="fill:#434A59;" d="M4687.949,1161.2c-0.203,0.083-0.85,0.302-0.748,1.135c0.078,0.627,0.342,1.331,0.774,1.831
								c0.505,0.583,1.416,0.529,1.861-0.079C4690.454,1163.242,4689.311,1160.64,4687.949,1161.2z"/>
						</g>
						<g>
							<path style="fill:#434A59;" d="M4677.126,1168.355c-0.203,0.083-0.851,0.302-0.748,1.135
								c0.077,0.627,0.342,1.331,0.774,1.831c0.505,0.583,1.416,0.529,1.861-0.08
								C4679.631,1170.398,4678.488,1167.795,4677.126,1168.355z"/>
						</g>
					</g>
					<g>
						<path style="fill:#FFE164;" d="M4684.52,1157.621c1.758-0.671,3.782-1.133,5.691-1.12c0.907,0.006,0.862,1.343-0.044,1.336
							c-1.638-0.012-3.481,0.395-4.991,0.971C4684.347,1159.125,4683.679,1157.942,4684.52,1157.621z"/>
					</g>
					<g>
						<path style="fill:#FFE164;" d="M4672.535,1166.719c0.663-0.958,1.409-1.855,2.164-2.748c0.575-0.682,1.663,0.13,1.084,0.815
							c-0.754,0.894-1.5,1.79-2.163,2.748C4673.114,1168.264,4672.03,1167.447,4672.535,1166.719z"/>
					</g>
				</g>
				<g>
					<path style="fill:#CE9D84;" d="M5034.763,1482.09c-1.344,0-2.679-0.574-3.608-1.687c-21.64-25.916-53.608-63.968-62.333-73.79
						c-6.62,4.56-24.333,18.552-40.174,31.509c-2.01,1.643-4.968,1.346-6.61-0.662c-1.643-2.008-1.346-4.968,0.662-6.61
						c0.106-0.087,10.729-8.773,21.433-17.238c6.308-4.989,11.418-8.933,15.188-11.722c7.096-5.25,9.486-6.841,12.531-5.318
						c1.274,0.638,1.977,0.989,34.664,39.819c15.853,18.833,31.692,37.802,31.851,37.991c1.663,1.992,1.396,4.954-0.595,6.617
						C5036.892,1481.732,5035.825,1482.09,5034.763,1482.09z"/>
				</g>
				<g>
					<path style="fill:#C66C67;" d="M4840.382,1208.486c-1.061,0-2.089-0.566-2.631-1.565c-0.787-1.451-0.248-3.266,1.204-4.053
						l27.141-14.717c1.451-0.786,3.265-0.249,4.053,1.203c0.786,1.451,0.248,3.266-1.204,4.053l-27.141,14.717
						C4841.352,1208.37,4840.863,1208.486,4840.382,1208.486z"/>
				</g>
				<g>
					<path style="fill:#C66C67;" d="M4949.223,1053.928c-0.652,0-1.309-0.212-1.859-0.649l-20.542-16.333
						c-1.292-1.027-1.506-2.908-0.479-4.2c1.027-1.293,2.907-1.507,4.2-0.48l20.541,16.333c1.292,1.027,1.506,2.908,0.479,4.2
						C4950.974,1053.541,4950.103,1053.928,4949.223,1053.928z"/>
				</g>
				<g>
					<path style="fill:#C66C67;" d="M4674.175,1390.545c-0.697,0-1.398-0.242-1.964-0.736l-20.197-17.619
						c-1.245-1.085-1.373-2.974-0.288-4.218c1.086-1.244,2.974-1.373,4.218-0.288l20.197,17.619
						c1.245,1.086,1.373,2.974,0.288,4.218C4675.837,1390.198,4675.008,1390.545,4674.175,1390.545z"/>
				</g>
				<g>
					<g>
						<path style="fill:#FFFFFF;" d="M4745.745,1245.287c-7.962,5.208-15.986,10.372-22.872,14.77
							c0.15,0.889,0.267,1.753,0.339,2.58c0.073,0.832,0.153,1.701,0.238,2.589c7.707-4.913,17.086-10.94,26.303-16.982
							C4748.413,1247.334,4747.075,1246.34,4745.745,1245.287z"/>
					</g>
					<g>
						<path style="fill:#FFFFFF;" d="M4804.724,1204.119c-1.268-0.935-2.503-1.893-3.707-2.87
							c-6.386,6.948-12.997,13.802-17.863,18.02c-3.912,3.391-12.598,9.493-22.853,16.381c-0.232,2.168-0.486,4.224-0.74,6.111
							c11.807-7.875,22.142-15.069,26.644-18.971C4791.327,1218.352,4798.176,1211.249,4804.724,1204.119z"/>
					</g>
					<g>
						<path style="fill:#FFFFFF;" d="M4972.115,1264.173c-14.274,14.648-43.093,44.521-57.375,61.424
							c-15.907,18.823-69.144,60.099-86.973,73.729c1.075,1.135,2.145,2.276,3.212,3.419c18.351-14.013,71.011-54.84,87.321-74.141
							c14.362-16.996,43.592-47.27,57.646-61.685C4974.669,1266.003,4973.393,1265.087,4972.115,1264.173z"/>
					</g>
					<g>
						<path style="fill:#FFFFFF;" d="M4872.386,1314.144c19.929-18.949,55.391-52.935,72.438-69.282
							c-1.3-0.912-2.598-1.82-3.892-2.725c-17.288,16.578-52.092,49.931-71.758,68.63c-20.365,19.364-54.541,47.579-69.729,59.917
							c1.115,1.097,2.23,2.196,3.347,3.297c0.061-0.049,0.118-0.095,0.178-0.145c4.512-3.665,11.71-9.552,20.379-16.785
							C4837.905,1344.908,4858.226,1327.607,4872.386,1314.144z"/>
					</g>
					<g>
						<path style="fill:#FFFFFF;" d="M4759.184,1196.325c0.243,1.895,0.484,3.802,0.718,5.691l21.983-20.397
							c-1.003-1.275-1.946-2.52-2.834-3.728L4759.184,1196.325z"/>
					</g>
					<g>
						<path style="fill:#FFFFFF;" d="M4847.794,1280.499c17.636-16.217,43.082-49.256,54.87-64.992
							c-1.292-0.898-2.569-1.786-3.838-2.67c-11.781,15.692-37.104,48.524-54.186,64.231c-17.82,16.385-58.878,48.803-76.497,62.596
							c1.092,1.113,2.188,2.227,3.292,3.341C4789.322,1328.997,4830.001,1296.858,4847.794,1280.499z"/>
					</g>
					<g>
						<path style="fill:#FFFFFF;" d="M4717.048,1241.778l12.854-11.927c-1.044-1.189-2.059-2.372-3.036-3.541l-11.771,10.921
							C4715.754,1238.715,4716.409,1240.238,4717.048,1241.778z"/>
					</g>
					<g>
						<path style="fill:#FFFFFF;" d="M4775.766,1282.81c12.872-9.631,59.395-47.974,87.786-71.472
							c-3.36,1.023-6.907,1.948-10.554,2.682c-28.42,23.493-68.307,56.292-80.024,65.059c-10.772,8.06-25.951,17.792-36.926,24.621
							c0.955,1.227,1.925,2.453,2.911,3.677C4749.978,1300.512,4765.021,1290.849,4775.766,1282.81z"/>
					</g>
				</g>
			</g>
		</g>
		<g>
			<g>
				<g>
					<g>
						<g>
							<path style="fill:#7F635D;" d="M2336.634,1883.753H1265.575c-4.554,0-8.246-3.692-8.246-8.246v-222.484h1087.55v222.484
								C2344.879,1880.061,2341.188,1883.753,2336.634,1883.753z"/>
						</g>
					</g>
				</g>
				<g>
					<g>
						<path style="fill:#6B504B;" d="M2324.001,1414.124l-526.798-0.78c-22.219,2.15-39.332,22.869-39.332,47.87v214.629
							c0,26.528,19.183,48.033,42.847,48.033h521.291c23.664,0,42.847-21.505,42.847-48.033v-213.742
							C2364.856,1436.438,2346.872,1415.254,2324.001,1414.124z"/>
					</g>
				</g>
				<g>
					<g>
						<g>
							<path style="fill:#B1D5DE;" d="M2351.818,1723.876h-708.359v-50.751h721.397v37.714
								C2364.856,1718.039,2359.019,1723.876,2351.818,1723.876z"/>
						</g>
					</g>
				</g>
				<g>
					<g>
						<g>
							<path style="fill:#DAEBEB;" d="M1729.43,1666.42c-0.615,19.147-2.639,38.251-6.553,57.092
								c-4.885,23.511-6.763,62.776,34.995,63.303c59.654,0.753,284.447-19.576,342.265-20.329
								c57.818-0.753,143.169,4.517,178.043,3.012c34.875-1.506,85.351-9.461,86.268-14.142c0.677-3.451,0.356-113.073,0.14-170.47
								c-0.071-18.965-18.831-34.297-41.948-34.297l-670.587,1.042C1652.054,1551.631,1731.107,1614.154,1729.43,1666.42z"/>
						</g>
					</g>
				</g>
				<g>
					<g>
						<g>
							<g>
								<path style="fill:#B1D5DE;" d="M1265.052,1723.876h423.103c23.664,0,42.847-21.505,42.847-48.033v-75.564
									c0-25.663-17.984-46.847-40.855-47.978c-35.786-1.769-411.931-2.394-428.61-0.78c-22.219,2.15-39.332,22.869-39.332,47.87
									v76.452C1222.205,1702.371,1241.388,1723.876,1265.052,1723.876z"/>
							</g>
						</g>
					</g>
				</g>
				<g>
					<g>
						<path style="fill:#B1D5DE;" d="M2207.658,1759.979c-1.541,0-2.975-0.978-3.483-2.521
							c-7.766-23.541-4.734-115.767-4.601-119.681c0.069-2.025,1.756-3.609,3.791-3.542c2.025,0.069,3.611,1.766,3.542,3.791
							c-0.032,0.946-3.124,94.825,4.235,117.135c0.635,1.924-0.41,3.998-2.334,4.633
							C2208.427,1759.919,2208.039,1759.979,2207.658,1759.979z"/>
					</g>
				</g>
				<g>
					<path style="fill:#DAEBEB;" d="M1743.097,1551.375c0,0,20.967-40.864,29.353-58.333s25.631-39.831,27.84-42.626
						c2.208-2.795-1.984-20.265,7.799-21.663c9.783-1.398,129.832-2.096,147.373,0c17.541,2.096,71.068-2.096,72.955,2.795
						c1.887,4.891-13.486,32.843-13.486,32.843s-29.349,87.349-39.831,90.843C1964.617,1558.728,1747.986,1557.3,1743.097,1551.375z
						"/>
				</g>
				<g>
					<path style="fill:#DAEBEB;" d="M1982.083,1551.375c0,0,20.967-40.864,29.353-58.333c8.385-17.47,25.631-39.831,27.84-42.626
						c2.208-2.795-1.984-20.265,7.799-21.663c9.783-1.398,129.833-2.096,147.373,0c17.541,2.096,71.068-2.096,72.955,2.795
						c1.887,4.891-13.486,32.843-13.486,32.843s-29.349,87.349-39.831,90.843C2203.603,1558.728,1986.972,1557.3,1982.083,1551.375z
						"/>
				</g>
				<g>
					<g>
						<path style="fill:#B1D5DE;" d="M2127.662,1741.051c-1.414,0-2.761-0.822-3.364-2.201
							c-12.954-29.646-15.505-128.161-15.607-132.341c-0.05-2.025,1.552-3.707,3.578-3.757c2.005-0.036,3.708,1.553,3.757,3.578
							c0.025,1.009,2.615,101.248,14.995,129.582c0.811,1.857-0.036,4.019-1.893,4.831
							C2128.651,1740.952,2128.153,1741.051,2127.662,1741.051z"/>
					</g>
				</g>
				<g>
					<g>
						<path style="fill:#B1D5DE;" d="M2033.022,1744.121c-1.423,0-2.777-0.833-3.373-2.224c-6.333-14.776-9.376-89.198-9.502-92.359
							c-0.081-2.024,1.495-3.731,3.519-3.812c2.028-0.094,3.732,1.494,3.812,3.519c0.847,21.156,4.098,78.523,8.915,89.761
							c0.798,1.862-0.065,4.019-1.926,4.817C2033.994,1744.025,2033.504,1744.121,2033.022,1744.121z"/>
					</g>
				</g>
				<g>
					<path style="fill:#95C0C9;" d="M2218.085,1554.92h-474.987c-1.958,0-3.545-1.587-3.545-3.545c0-1.958,1.587-3.545,3.545-3.545
						h474.987c1.958,0,3.545,1.587,3.545,3.545C2221.63,1553.333,2220.042,1554.92,2218.085,1554.92z"/>
				</g>
			</g>
			<g>
				<g>
					<path style="fill:#7F635D;" d="M2156.846,1292.844c0,0,7.071-3.333,7.349-11.11c0.278-7.777-5.138-14.582-13.263-14.86
						c-8.124-0.278-12.499,11.18-22.845,11.388c-10.346,0.208-8.958,2.222-8.68,3.472c0.278,1.25,0.625,1.389,0.625,1.389
						s-4.791,5.833-3.333,16.526c1.458,10.693,4.791,17.429,6.805,19.373C2125.518,1320.967,2156.846,1292.844,2156.846,1292.844z"
						/>
				</g>
				<g>
					<path style="fill:#5CBEC6;" d="M2252.569,1634.304c-56.922,0.844-127.746,18.719-127.746,18.719s0.55-7.523,2.81-19.358
						c-34.549,3.281-173.46,14.231-251.189-13.099c-10.092,48.986-8.422,92.898,26.239,127.244
						c76.923,76.224,281.718,26.846,345.578,8.999C2229.407,1705.708,2247.341,1648.828,2252.569,1634.304z"/>
				</g>
				<g>
					<path style="fill:#FF867A;" d="M2313.479,1646.875c-12.207-9.844-35.133-12.953-60.91-12.571
						c-5.228,14.523-23.162,71.404-4.309,122.505c12.233-3.419,19.302-5.682,19.302-5.682l177.611,156.668
						c0,0,15.143,5.386,20.236,4.444c3.73-0.69,12.675-8.342,12.675-8.342S2352.642,1678.457,2313.479,1646.875z"/>
				</g>
				<g>
					<path style="fill:#F27C79;" d="M2163.77,1498.943c0,0,41.336,68.327,35.111,76.66c-6.225,8.333-18.002,12.356-27.212,10.087
						c-22.898-5.643-61.659-37.862-57.895-52.861S2134.884,1493.944,2163.77,1498.943z"/>
				</g>
				<g>
					<path style="fill:#FF867A;" d="M1841.338,1614.054c0,0,21.738,31.964,23.564,38.526c1.826,6.562-3.934,46.743-6.445,46.578
						c-6.631-0.436-4.143-29.646-4.143-29.646s-5.943,27.612-9.818,27.988s-4.903-1.615-4.903-1.615s-3.015,2.012-6.459-0.688
						c-2.162-1.695-3.073-25.243-3.073-25.243s-0.859,10.112-3.455,15.929c-2.596,5.817-2.952-12.995-4.328-21.212
						c-1.375-8.216-12.377-21.677-15.434-37.158c-3.057-15.48,4.284-18.234,8.902-19.333
						C1820.364,1607.081,1834.715,1604.067,1841.338,1614.054z"/>
				</g>
				<g>
					<path style="fill:#FF867A;" d="M1842.418,1617.558c0,0,19.4,18.998,26.4,23.698c7,4.7-0.05,9.113-8.058,5.693
						c-10.52-4.493-18.476-6.01-22.136-10.582C1834.963,1631.795,1833.276,1617.804,1842.418,1617.558z"/>
				</g>
				<g>
					<path style="fill:#F27C79;" d="M2169.224,1579.677c0,0-3.218,10.987-11.302,14.668c-8.084,3.681-7.294,9.073-1.831,9.227
						c5.464,0.154,19.065-5.456,19.065-5.456s24.885,17.936,40.033,22.047c15.148,4.111,11.727-11.864,3.406-25.54
						c-4.248-6.981-14.071-26.181-23.745-31.71C2185.175,1557.384,2169.984,1565.883,2169.224,1579.677z"/>
				</g>
				<g>
					<path style="fill:#529AE3;" d="M2127.633,1633.664c3.467-18.156,10.963-46.464,26.694-73.363
						c27.962-47.812,59.733-124.786,47.912-169.959c-11.666-44.579-194.552-85.814-242.48-12.499
						c-26.815,41.019-40.824,98.051-58.743,155.542c-9.395,30.143-18.865,59.473-24.573,87.181
						C1954.173,1647.896,2093.084,1636.945,2127.633,1633.664z"/>
				</g>
				<g>
					<g>
						<path style="fill:#FF867A;" d="M2234.019,1636.473c-8.479-4.619-24.069-5.801-43.348-4.804
							c-4.051,16.275-23.032,66.95-16.176,98.144c2.01,9.143,4.029,16.52,5.939,22.474c10.411-3.728,24.67-8.167,24.67-8.167
							s22.952,46.734,32.964,61.184c26.274,37.92,130.672,133.822,130.672,133.822l38.897-6.889
							C2407.637,1932.238,2273.788,1658.138,2234.019,1636.473z"/>
					</g>
					<g>
						<path style="fill:#5CBEC6;" d="M2190.671,1631.669c-71.149,3.679-192.58,37.053-192.58,37.053
							c-114.573,24.092-96.241,107.579-11.249,118.133c66.819,8.298,169.201,2.991,207.481-10.715
							c-1.91-5.954-10.366-38.177-11.249-47.496C2179.324,1689.065,2186.621,1647.944,2190.671,1631.669z"/>
					</g>
				</g>
				<g>
					<g>
						<path style="fill:#434A59;" d="M2445.174,1907.796c0,0-0.479,25.469,0.03,29.594c0.509,4.124,3.627,9.949,6.422,11.251
							c2.795,1.302,15.966,0.146,26.08,2.427c10.114,2.28,39.333,4.225,48.353,2.595c9.02-1.631,14.095-10.443,13.427-13.183
							c-0.667-2.74-20.551-9.084-28.351-13.202c-6.301-3.327-24.497-18.363-31.259-24.02c-1.469-1.229-3.573-1.313-5.14-0.212
							c-2.77,1.947-7.36,4.735-11.647,5.334C2457.595,1909.147,2445.174,1907.796,2445.174,1907.796z"/>
					</g>
				</g>
				<g>
					<path style="fill:#434A59;" d="M2368.741,1939.127c0,0,7.494-0.5,11.955-5.222s9.235-14.443,17.151-9.235
						c6.117,4.024,9.235,2.059,12.291,7.036c3.055,4.977,31.108,39.418,38.608,46.084c7.499,6.666-8.055,14.721-24.165,10.277
						c-16.11-4.444-33.608-10.832-41.663-19.998C2374.863,1958.902,2368.741,1939.127,2368.741,1939.127z"/>
				</g>
				<g>
					<g>
						<g>
							<g>
								<path style="fill:#FF867A;" d="M2127.519,1370.691c5.942,0.982,11.559-3.076,12.588-9.009
									c0.327-1.886,0.502-3.565,0.473-4.934l0.267-6.769l1.243-31.358l0.145-3.676l-13.669-11.49l-14.173,37.924
									c-2.46,6.583-2.442,13.835,0.073,20.397c0.137,0.357,0.276,0.719,0.418,1.086c1.233,3.187,3.864,5.646,7.146,6.599
									C2123.642,1369.931,2125.463,1370.351,2127.519,1370.691z"/>
							</g>
						</g>
					</g>
				</g>
				<g>
					<g>
						<g>
							<g>
								<g>
									<path style="fill:#C66C67;" d="M2130.522,1314.988c0,0-1.387,21.195,6.143,29.717c2.658,3.008,2.865,4.382,4.183,5.273
										l1.243-31.358C2136.435,1316.836,2130.522,1314.988,2130.522,1314.988z"/>
								</g>
							</g>
						</g>
					</g>
				</g>
				<g>
					<g>
						<g>
							<g>
								<g>
									<path style="fill:#FF867A;" d="M2133.262,1292.291l-7.215,17c-2.664,7.247,0.514,14.531,4.981,18.844
										c4.728,4.565,10.094,6.291,17.77,6.25c6.395-0.034,10.331-5.712,11.287-13.978c1.241-10.724-0.22-20.776-1.134-26.276
										c-0.603-3.624,0.614-8.154-8.944-9.958C2144.654,1288.737,2137.649,1284.351,2133.262,1292.291z"/>
								</g>
							</g>
						</g>
					</g>
				</g>
				<g>
					<g>
						<g>
							<g>
								<g>
									<path style="fill:#FF867A;" d="M2130.927,1301.74c-0.624-1.307-1.043-2.691-1.378-4.1c-0.638-2.678-2.207-6.51-5.714-3.609
										c-5.102,4.219-2.091,17.255,4.786,16.766C2133.729,1310.433,2132.5,1305.033,2130.927,1301.74z"/>
								</g>
							</g>
						</g>
					</g>
				</g>
				<g>
					<g>
						<g>
							<g>
								<g>
									<path style="fill:#434A59;" d="M2142.426,1298.489c0.267-0.513,0.821-0.919,1.431-0.806
										c0.521,0.097,1.032,0.499,1.135,1.041c0.156,0.183,0.259,0.405,0.261,0.662c0.004,0.726-0.174,1.296-0.577,1.9
										c-0.499,0.746-1.66,0.6-2.149-0.046C2141.939,1300.464,2141.99,1299.326,2142.426,1298.489z"/>
								</g>
							</g>
						</g>
					</g>
				</g>
				<g>
					<g>
						<g>
							<g>
								<g>
									<path style="fill:#434A59;" d="M2156.235,1299.69c0.763-0.459,1.773-0.028,2.074,0.81c0.239,0.666,0.183,1.419-0.059,2.085
										c-0.263,0.724-1.031,1.152-1.767,0.849c-0.656-0.27-0.83-0.76-0.821-1.321c0.007-0.438-0.002-0.876-0.007-1.314
										C2155.65,1300.365,2155.8,1299.951,2156.235,1299.69z"/>
								</g>
							</g>
						</g>
					</g>
				</g>
				<g>
					<g>
						<g>
							<g>
								<g>
									<path style="fill:#7F635D;" d="M2140.906,1295.092c0,0,2.503-0.138,3.977,0.011c1.475,0.149,1.422,0.347,1.578-0.104
										c0.156-0.451,0.365-1.769-0.2-1.885c-0.565-0.117-4.956-0.557-5.519,0.226
										C2140.181,1294.122,2140.109,1294.913,2140.906,1295.092z"/>
								</g>
							</g>
						</g>
					</g>
				</g>
				<g>
					<g>
						<g>
							<g>
								<g>
									<path style="fill:#7F635D;" d="M2159.446,1297.391c0,0-1.762-0.72-2.836-0.921c-1.074-0.2-1.067,0.004-1.108-0.471
										c-0.042-0.475,0.013-1.805,0.434-1.786c0.421,0.019,3.617,0.62,3.897,1.513
										C2160.113,1296.618,2160.042,1297.404,2159.446,1297.391z"/>
								</g>
							</g>
						</g>
					</g>
				</g>
				<g>
					<g>
						<g>
							<g>
								<path style="fill:#7F635D;" d="M2152.68,1309.931c0,0,3.192-0.094,4.675,1.756s3.641,2.166,3.983,3.841
									c0.342,1.675-0.301,7.507-0.947,10.897c-0.646,3.389-1.68,7.731-6.673,8.633s-10.18,2.017-14.832-0.552
									s-8.149-5.026-10.135-8.198c-1.985-3.172,1.584-15.476,1.422-20.403c-0.163-4.926-2.416-12.093-0.463-13.443
									c1.954-1.349,2.573,3.98,2.93,6.583s0.947,7.776,3.481,9.644c2.534,1.868,6.475-1.302,9.745-0.154
									C2149.137,1309.683,2151.363,1310.66,2152.68,1309.931z"/>
							</g>
						</g>
					</g>
				</g>
				<g>
					<g>
						<g>
							<g>
								<g>
									<path style="fill:#FFFFFF;" d="M2141.348,1311.249c0,0,5.829,3.195,14.928,4.445c0,0,0.416,5.737-5.256,6.174
										C2145.939,1322.26,2141.612,1318.657,2141.348,1311.249z"/>
								</g>
							</g>
						</g>
					</g>
				</g>
				<g>
					<g>
						<g>
							<g>
								<g>
									<path style="fill:#C66C67;" d="M2150.332,1310.747c-0.403-0.108-0.648-0.242-0.677-0.258
										c-0.491-0.276-0.666-0.897-0.39-1.388c0.274-0.492,0.902-0.666,1.387-0.391c0.091,0.046,1.083,0.503,2.418-0.47
										c0.983-0.717,1.139-1.441,1.146-1.471c0.111-0.542,0.634-0.911,1.178-0.816c0.55,0.098,0.917,0.593,0.835,1.139
										c-0.022,0.157-0.275,1.568-1.958,2.795C2152.632,1311.083,2151.154,1310.968,2150.332,1310.747z"/>
								</g>
							</g>
						</g>
					</g>
				</g>
				<g>
					<path style="fill:#C66C67;" d="M2205.103,1747.223c-1.651,0-3.024-1.301-3.097-2.966c-0.067-1.52-1.59-37.407,2.673-51.901
						c0.483-1.643,2.206-2.583,3.852-2.101c1.644,0.483,2.584,2.208,2.101,3.852c-3.975,13.513-2.443,49.515-2.427,49.878
						c0.075,1.712-1.251,3.16-2.963,3.235C2205.195,1747.222,2205.149,1747.223,2205.103,1747.223z"/>
				</g>
				<g>
					<path style="fill:#C66C67;" d="M2354.581,1830.985c-1.101,0-2.168-0.588-2.73-1.624c-0.418-0.773-42.095-77.63-60.252-109.136
						c-18.089-31.39-45.759-69.364-46.036-69.744c-1.01-1.384-0.708-3.324,0.676-4.335c1.384-1.011,3.324-0.708,4.334,0.676
						c0.28,0.383,28.142,38.621,46.401,70.305c18.196,31.575,59.911,108.503,60.331,109.277c0.816,1.506,0.257,3.389-1.249,4.206
						C2355.587,1830.864,2355.08,1830.985,2354.581,1830.985z"/>
				</g>
				<g>
					<g>
						<path style="fill:#FF867A;" d="M1856.785,1360.114c-27.072,7.397-50.323,17.585-62.982,31.617
							c-46.107,51.107,1.667,235.535,19.443,238.312c17.776,2.778,26.109-2.777,27.775-8.888s16.665-176.095,16.665-176.095
							s4.377-0.468,11.68-1.39C1874.907,1416.173,1877.685,1375.066,1856.785,1360.114z"/>
					</g>
					<g>
						<path style="fill:#529AE3;" d="M2035.445,1339.21c0,0-107.131,1.358-178.66,20.904c-1.22,18.516-0.424,69.072,13.956,94.389
							c33.048-4.173,124.681-28.482,143.598-49.995C2042.67,1372.288,2035.445,1339.21,2035.445,1339.21z"/>
					</g>
				</g>
				<g>
					<path style="fill:#2E8AA3;" d="M1986.562,1659.809c-1.665,0-3.041-1.32-3.099-2.996c-0.058-1.712,1.282-3.148,2.994-3.207
						c1.001-0.034,100.548-3.589,139.092-16.834c1.623-0.556,3.385,0.306,3.942,1.925c0.557,1.62-0.305,3.385-1.925,3.942
						c-39.42,13.546-136.771,17.026-140.896,17.168C1986.634,1659.808,1986.598,1659.809,1986.562,1659.809z"/>
				</g>
				<g>
					<path style="fill:#3F5FAF;" d="M1932.716,1437.142c-1.694,0-3.193-1.219-3.49-2.945c-0.332-1.93,0.964-3.763,2.893-4.095
						c38.039-6.539,67.407-19.561,67.699-19.692c1.787-0.8,3.884,0,4.684,1.787c0.8,1.787,0.001,3.884-1.786,4.684
						c-1.224,0.548-30.431,13.51-69.396,20.209C1933.117,1437.125,1932.915,1437.142,1932.716,1437.142z"/>
				</g>
				<g>
					<polygon style="fill:#70B6EF;" points="2131.279,1404.758 2138.306,1454.218 2177.532,1471.779 2139.015,1499.16 
						2133.575,1550.195 2102.743,1517.657 2060.154,1531.637 2079.617,1484.147 2058.736,1441.752 2101.595,1444.939 					"/>
				</g>
			</g>
		</g>
	</g>
</g>
</svg>
