<svg xmlns="http://www.w3.org/2000/svg" enable-background="new 0 0 1000 1000" viewBox="0 0 1000 1000"><g id="Layer_1"><path fill="#ffeab1" d="M459.2,163.9l12.7-22.2c6-10.5,21.7-8.9,25.4,2.7l7.8,24.3c3.3,10.2,16.5,13,23.7,5l17.1-19
				c8.1-9,23-4.2,24.3,7.9l2.6,25.4c1.1,10.7,13.4,16.2,22.1,9.8l20.7-15.1c9.8-7.1,23.4,0.7,22.1,12.8l-2.7,25.4
				c-1.2,10.7,9.7,18.6,19.6,14.2l23.3-10.5c11.1-5,22.7,5.6,19,17.1l-8,24.3c-3.4,10.2,5.7,20.2,16.2,18l25-5.4
				c11.8-2.5,21.1,10.2,15,20.6l-12.8,22.1c-5.4,9.3,1.3,21,12.1,21l25.6-0.1c12.1,0,18.5,14.3,10.4,23.3l-17.2,19
				c-7.2,8-3.1,20.8,7.5,23l25,5.3c11.8,2.5,15.1,17.9,5.3,25l-20.7,15c-8.7,6.3-7.3,19.7,2.5,24.1l23.4,10.3
				c11.1,4.9,11.1,20.6,0,25.5l-23.4,10.3c-9.8,4.4-11.3,17.8-2.5,24.1l20.7,15c9.8,7.1,6.5,22.5-5.3,25l-25,5.3
				c-10.5,2.2-14.7,15-7.5,23l17.2,19c8.1,9,1.7,23.3-10.4,23.3l-25.6-0.1c-10.8,0-17.5,11.6-12.1,21l12.8,22.1
				c6.1,10.5-3.2,23.2-15,20.6l-25-5.4c-10.5-2.3-19.5,7.7-16.2,18l8,24.3c3.8,11.5-7.9,22-19,17.1l-23.3-10.5
				c-9.8-4.4-20.7,3.5-19.6,14.2l2.7,25.4c1.3,12-12.3,19.9-22.1,12.8l-20.7-15.1c-8.7-6.3-21-0.9-22.1,9.8l-2.6,25.4
				c-1.2,12-16.2,16.9-24.3,7.9l-17.1-19c-7.2-8-20.4-5.2-23.7,5l-7.8,24.3c-3.7,11.5-19.3,13.2-25.4,2.7l-12.7-22.2
				c-5.4-9.3-18.8-9.3-24.2,0l-12.7,22.2c-6,10.5-21.7,8.9-25.4-2.7l-7.8-24.3c-3.3-10.2-16.5-13-23.7-5l-17.1,19
				c-8.1,9-23,4.2-24.3-7.9l-2.6-25.4c-1.1-10.7-13.4-16.2-22.1-9.8l-20.7,15.1c-9.8,7.1-23.4-0.7-22.1-12.8l2.7-25.4
				c1.2-10.7-9.7-18.6-19.6-14.2l-23.3,10.5c-11.1,5-22.7-5.6-19-17.1l8-24.3c3.4-10.2-5.7-20.2-16.2-18l-25,5.4
				c-11.8,2.5-21.1-10.2-15-20.6l12.8-22.1c5.4-9.3-1.3-21-12.1-21l-25.6,0.1c-12.1,0-18.5-14.3-10.4-23.3l17.2-19
				c7.2-8,3.1-20.8-7.5-23l-25-5.3c-11.8-2.5-15.1-17.9-5.3-25l20.7-15c8.7-6.3,7.3-19.7-2.5-24.1l-23.4-10.3
				c-11.1-4.9-11.1-20.6,0-25.5l23.4-10.3c9.8-4.4,11.3-17.8,2.5-24.1l-20.7-15c-9.8-7.1-6.5-22.5,5.3-25l25-5.3
				c10.5-2.2,14.7-15,7.5-23l-17.2-19c-8.1-9-1.7-23.3,10.4-23.3l25.6,0.1c10.8,0,17.5-11.6,12.1-21l-12.8-22.1
				c-6.1-10.5,3.2-23.2,15-20.6l25,5.4c10.5,2.3,19.5-7.7,16.2-18l-8-24.3c-3.8-11.5,7.9-22,19-17.1l23.3,10.5
				c9.8,4.4,20.7-3.5,19.6-14.2l-2.7-25.4c-1.3-12,12.3-19.9,22.1-12.8l20.7,15.1c8.7,6.3,21,0.9,22.1-9.8l2.6-25.4
				c1.2-12,16.2-16.9,24.3-7.9l17.1,19c7.2,8,20.4,5.2,23.7-5l7.8-24.3c3.7-11.5,19.3-13.2,25.4-2.7l12.7,22.2
				C440.4,173.2,453.8,173.2,459.2,163.9z"/><path fill="#232e91" d="M302.4,178.9c0,0-6.5-78.6,70.6-81.5c0,0-43.6-30.9-56.7-31.3c-13.1-0.4-23.6,3.3-24.7,14.5
					S291.5,166.9,302.4,178.9z"/><path fill="#4047b8" d="M291.5,80.7c0,0,2.9-17.5,22.6-11.6s69.1,99.7,96,109.1c0,0,32.7,10.2,51.6-3.6c18.9-13.8,16-47.3,16-47.3
					s-29.8-40-36.4-41.5S347.5,64,316.2,63.2C316.2,63.2,290.7,64,291.5,80.7z"/><path fill="#4047b8" d="M391.5,188.4c0,0-68.2-7.7-77.5-13.1c-21.8-12.7-18.9-50.2-22.6-94.6c-7.3,80-13.5,132.8,6.2,168.8
					c6,10.9,38.2,16.4,49.1,14.2C357.7,261.5,399.1,197.1,391.5,188.4z"/><path fill="#232e91" d="M191.6,347.4c0,0-1.9-17.7,15.5-26.4c17.5-8.7,16.9-64.4,86.7-44.7c0,0-24.6,32.7-36,64.4
					c-11.5,31.6-42.6,86.7-42.6,86.7S194.1,383.1,191.6,347.4z"/><path fill="#162372" d="M223.3,547c0,0-16.5-33.5,2.5-57.3c13.5-16.9,36.9,44.4,36.9,44.4S236.5,551.2,223.3,547z"/><path fill="#fea329" d="M395.9,854.8c0,0-53-182.8-67.9-215.3c-14.9-32.5-75.8-82-98.8-155s-24.4-132.6,0-151.6
					c24.4-18.9,17.6-46,48.7-52.8s39.2-35.2,63.6-44.7c24.4-9.5,14.9-5.4,14.9-5.4s23-63.6,47.4-66.3c24.4-2.7,35.2,10.8,35.2,10.8
					s46,31.1,48.7,70.4c2.7,39.2,6.8,67.7-8.1,70.4c0,0,57.2,75.7,44.7,148.9c-21.7,125.8,4.3,145.6,85.1,301.7
					c27.6,53.4,31.5,125-55.7,161.5C493.5,952.6,412.1,926.5,395.9,854.8z"/><path fill="#fea329" d="M524.2,464.2c0,0,28.4-79.8,10.8-144.8s-39.2-152.9-32.5-178.6s-58.2-54.1-67.7,46
					C425.4,286.9,411.9,449.3,524.2,464.2z"/><path fill="#232e91" d="M255.4,507c0,0-0.4,31.9-32.1,40l47.1,38.2c7,5.1,16.5,5.3,23.8,0.5c20.5-13.6,62-44.5,62.4-117.2
					l-39.1,0.5L255.4,507z"/><path fill="#4047b8" d="M334.7,414.2c0,0-20.5,33.4-73.1,25c-42.5-6.8-62.8-56.8-70.1-91.8c0,0-6.4,76.4,2.4,108.7
					c7.2,26.5,76.7,97.3,168.6,10.9c0,0-24.8-13.9-10.7-43L334.7,414.2z"/><circle cx="387.5" cy="694" r="137.8" fill="#af0c00"/><path fill="#4047b8" d="M350.6,474.8c0,0,14.7,55.1,45.8,40.4s27.3-54,25.1-67.1l-18.5-1.6c0,0-6,27.8-16.9,28.9
					c-10.9,1.1-23.5-8.3-23.5-8.3L350.6,474.8z"/><circle cx="387.5" cy="674.2" r="137.8" fill="#ff1d00"/><path fill="#e28617" d="M384.3,481.6c-3.1,0-6.5-0.7-10.4-2.2c-29.4-11-33.5-40.1-30.7-61c-11.1,4.8-25.7,6.9-29.6,7.4
					c-2.7,0.3-5.2-1.6-5.5-4.3c-0.3-2.7,1.6-5.2,4.3-5.5c11.9-1.5,30.3-6,34.1-11.3c1.4-2,4-2.6,6.2-1.6c2.2,1.1,3.2,3.5,2.5,5.9
					c0,0.1-3.7,12.5-2.6,26.3c1.4,17.5,9.7,29.3,24.7,34.9c4.4,1.6,7.7,2,9.7,1c3.9-1.9,6.2-9.7,9.2-19.6c0.6-2.1,1.3-4.3,2-6.6
					c0.4-1.3,1.3-2.4,2.6-3c1.2-0.6,2.6-0.7,3.9-0.2c0.4,0.2,11.2,4,21.9-3c12.9-8.5,20.6-29.7,22.2-61.4c0.1-1.9,1.3-3.7,3.2-4.4
					c0.1,0,12.2-5,18.2-19c5.7-13.3,4.3-30.5-4.1-50.9c-0.9-2.3,0-4.9,2.1-6.2c0.9-0.5,22.3-13.4,18.5-46.2
					c-4-34.4-35.9-56.2-36.2-56.4c-2.3-1.5-2.9-4.6-1.3-6.8c1.5-2.3,4.6-2.9,6.8-1.4c1.5,1,36,24.4,40.5,63.4
					c3.6,31.2-12.4,47.7-19.8,53.5c8.1,21.5,9,40,2.5,55.1c-5.7,13.3-15.7,20-20.6,22.7c-2.2,33.9-11.1,56.2-26.6,66.3
					c-9.8,6.4-19.7,6.1-25.5,5.2c-0.2,0.7-0.4,1.4-0.6,2c-3.6,12.2-6.5,21.8-14.2,25.6C389.3,481,386.9,481.6,384.3,481.6z"/><path fill="#e28617" d="M409,430.6c-0.5,0-1-0.1-1.5-0.2c-2.6-0.8-4-3.6-3.2-6.2c0-0.1,2-6.3,3.8-16.3c2.6-13.9-29.3-51.7-46-61.2
					c-17.8-10.1-77.3-6.1-98.7-3.6c-2.7,0.3-5.2-1.6-5.5-4.3c-0.3-2.7,1.6-5.2,4.3-5.5c3.3-0.4,80.4-8.9,104.7,4.9
					c16.3,9.3,54.8,50.1,50.9,71.6c-2,10.7-4.1,17.3-4.2,17.5C413,429.3,411,430.6,409,430.6z"/><path fill="#e28617" d="M453.1,389.2c-0.1,0-0.1,0-0.2,0c-2.7-0.1-4.9-2.4-4.8-5.1c1-30.1-36-89.9-55.5-96.5
					c-25.9-8.8-76.5,8.2-77,8.4c-2.6,0.9-5.4-0.5-6.3-3.1c-0.9-2.6,0.5-5.4,3.1-6.3c2.2-0.7,54.3-18.2,83.4-8.4
					c25,8.5,63.3,74,62.2,106.2C458,387.1,455.8,389.2,453.1,389.2z"/><path fill="#e28617" d="M472.2,311.1c-2.1,0-4.1-1.4-4.7-3.6c-19.8-69.8-43.8-81.8-51.7-85.7c-9.2-4.6-27.2,2.6-33.4,5.8
					c-2.4,1.2-5.4,0.3-6.6-2.1c-1.3-2.4-0.3-5.4,2.1-6.6c0.3-0.1,6.6-3.4,14.7-5.8c11.5-3.4,20.8-3.4,27.6-0.1
					c24.4,12.2,42.4,41.3,56.7,91.8c0.7,2.6-0.8,5.3-3.4,6.1C473.1,311.1,472.7,311.1,472.2,311.1z"/><path fill="#ff1d00" d="M390.6,557.1c-10.2,0-18.5-8.3-18.5-18.5c0-10.2,8.3-18.5,18.5-18.5c10.2,0,18.5,8.3,18.5,18.5
					C409.1,548.8,400.8,557.1,390.6,557.1z M390.6,530c-4.8,0-8.6,3.9-8.6,8.6c0,4.8,3.9,8.6,8.6,8.6c4.8,0,8.6-3.9,8.6-8.6
					C399.2,533.9,395.3,530,390.6,530z"/><path fill="#ff1d00" d="M390.6,530c-2.7,0-4.9-2.2-4.9-4.9v-11.5c0-2.7,2.2-4.9,4.9-4.9s4.9,2.2,4.9,4.9v11.5
					C395.5,527.8,393.3,530,390.6,530z"/><path fill="#af0c00" d="M387.5,785.9c-61.6,0-111.6-50.1-111.6-111.6s50.1-111.6,111.6-111.6s111.6,50.1,111.6,111.6
					S449.1,785.9,387.5,785.9z M387.5,572.5c-56.1,0-101.8,45.7-101.8,101.8c0,56.1,45.7,101.8,101.8,101.8s101.8-45.7,101.8-101.8
					C489.3,618.1,443.6,572.5,387.5,572.5z"/><path fill="#af0c00" d="M372.4,738.6c-0.9-0.9-1.4-2-1.4-3.3v-70.6l-10.5,8.1c-0.7,0.6-1.6,0.9-2.6,0.9c-1.5,0-2.9-0.8-4-2.3
						l-15.4-19.9c-0.5-1.2-0.7-2-0.7-2.6c0-0.8,0-5.1,0-6.3l35.3-23.6c1.2-0.8,2.4-1.2,3.8-1.2h33c1.3,0,2.4,0.5,3.3,1.4
						c0.9,0.9,1.4,2,1.4,3.3v112.9c0,1.3-0.5,2.4-1.4,3.3c-0.9,0.9-2,1.4-3.3,1.4h-34.2C374.4,740,373.3,739.5,372.4,738.6z"/><path fill="#fff" d="M372.4,732c-0.9-0.9-1.4-2-1.4-3.3v-70.6l-10.5,8.1c-0.7,0.6-1.6,0.9-2.6,0.9c-1.5,0-2.9-0.8-4-2.3
						l-15.4-19.9c-0.5-1.2-0.7-2-0.7-2.6c0-0.8,0.2-1.6,0.6-2.4c0.4-0.8,1-1.4,1.7-1.8l33-25.7c1.2-0.8,2.4-1.2,3.8-1.2h33
						c1.3,0,2.4,0.5,3.3,1.4c0.9,0.9,1.4,2,1.4,3.3v112.9c0,1.3-0.5,2.4-1.4,3.3c-0.9,0.9-2,1.4-3.3,1.4h-34.2
						C374.4,733.4,373.3,732.9,372.4,732z"/><g><circle cx="719.9" cy="264.1" r="77.1" fill="#4047b8"/><path fill="#fff" d="M727.2,234.3l5.6,11.7c1.4,2.9,4.2,4.7,7.3,4.7h6.3c7.1,0,10.8,8.9,5.9,14.4l-6.6,7.4
					c-1.9,2.1-2.7,5.2-1.9,8l1.9,7.5c1.8,7.1-5.2,13-11.5,9.8l-10.5-5.5c-2.3-1.2-5-1.2-7.3,0l-10.5,5.5c-6.2,3.3-13.2-2.7-11.5-9.8
					l1.9-7.5c0.7-2.8,0-5.9-1.9-8l-6.6-7.4c-4.9-5.4-1.2-14.4,5.9-14.4h6.3c3.1,0,5.9-1.8,7.3-4.7l5.6-11.7
					C715.6,228,724.2,228,727.2,234.3z"/></g><g><circle cx="820" cy="500" r="100.1" fill="#4047b8"/><path fill="#fff" d="M870.4,519.5l-17.3-17.3l4.3-4.3c4.4-4.4,4.4-11.7,0-16.1l-4.8-4.8c-0.6-0.6-0.9-1.4-0.9-2.3v-5.2
					c0-6.3-5.1-11.4-11.4-11.4h-5.2c-0.9,0-1.7-0.3-2.3-0.9l-4.8-4.8c-2.1-2.1-5-3.3-8-3.3s-5.9,1.2-8,3.3l-4.8,4.8
					c-0.6,0.6-1.4,0.9-2.3,0.9h-5.2c-6.3,0-11.4,5.1-11.4,11.4v5.2c0,0.9-0.3,1.7-0.9,2.3l-4.8,4.8c-2.2,2.2-3.3,5-3.3,8.1
					s1.2,5.9,3.3,8.1l4.3,4.3l-17.3,17.3c-2.2,2.2-3.1,5.3-2.4,8.3c0.7,3,2.9,5.4,5.8,6.4l8,2.7l2.7,8c1,2.9,3.4,5.1,6.4,5.8
					c0.7,0.2,1.4,0.2,2.1,0.2c2.3,0,4.6-0.9,6.2-2.6l18.2-18.2c1.1,0.3,2.2,0.6,3.3,0.6s2.3-0.2,3.3-0.6l18.2,18.2
					c1.7,1.7,3.9,2.6,6.2,2.6c0.7,0,1.4-0.1,2.1-0.2c3-0.7,5.4-2.9,6.4-5.8l2.7-8l8-2.7c2.9-1,5.1-3.4,5.8-6.4
					C873.5,524.8,872.6,521.7,870.4,519.5z M792.7,542.6c-0.2,0.2-0.4,0.2-0.7,0.2c-0.3-0.1-0.4-0.2-0.5-0.5l-3.3-9.9
					c-0.4-1.2-1.4-2.2-2.6-2.6l-9.9-3.3c-0.2-0.1-0.4-0.3-0.5-0.5c-0.1-0.3,0-0.5,0.2-0.7l13.1-13.1c0.9,5.4,5.6,9.4,11.2,9.4h5.2
					c0.9,0,1.7,0.3,2.3,0.9l2.8,2.8L792.7,542.6z M864.4,526.4l-9.9,3.3c-1.2,0.4-2.2,1.4-2.6,2.6l-3.3,9.9
					c-0.1,0.2-0.3,0.4-0.5,0.5c-0.3,0.1-0.5,0-0.7-0.2l-17.3-17.3l2.8-2.8c0.6-0.6,1.4-0.9,2.3-0.9h5.2c5.6,0,10.3-4.1,11.2-9.4
					l13.1,13.1c0.2,0.2,0.3,0.4,0.2,0.7C864.8,526.2,864.6,526.4,864.4,526.4z"/></g></g><text id="Layer_3" display="none" font-family="MyriadPro-Regular" font-size="33.577" transform="translate(456.569 117.988)">Medal</text></svg>