<svg xmlns="http://www.w3.org/2000/svg" viewBox="0 0 64 64"><path fill="#4891d3" d="M48 30V26a1 1 0 0 0-1-1H42a1 1 0 0 0 0 2h4v3a1 1 0 0 0 2 0zM32 20a1 1 0 0 0-1 1v4H19a1 1 0 0 0-1 1v4a1 1 0 0 0 2 0V27H32a1 1 0 0 0 1-1V21A1 1 0 0 0 32 20zM57 42H55a1 1 0 0 0 0 2h1v4a1 1 0 0 0 2 0V43A1 1 0 0 0 57 42zM45 37a1 1 0 0 0-1 1v4H39a1 1 0 0 0-1 1v5a1 1 0 0 0 2 0V44h5a1 1 0 0 0 1-1V38A1 1 0 0 0 45 37z"/><path fill="#f8664f" d="M38.414 28.414a1 1 0 0 0 .707-1.707L38.414 26l.707-.707a1 1 0 1 0-1.414-1.414L37 24.586l-.707-.707a1 1 0 1 0-1.414 1.414l.707.707-.707.707a1 1 0 1 0 1.414 1.414L37 27.414l.707.707A1 1 0 0 0 38.414 28.414zM51.891 40.923a1 1 0 0 0-1.414 0l-.708.708-.707-.708a1 1 0 0 0-1.414 1.414l.707.708-.707.707a1 1 0 1 0 1.414 1.414l.707-.707.708.707a1 1 0 1 0 1.414-1.414l-.708-.707.708-.708A1 1 0 0 0 51.891 40.923z"/><path fill="#4891d3" d="M10 42H7a1 1 0 0 0-1 1v5a1 1 0 0 0 2 0V44h2a1 1 0 0 0 0-2zM27 42H21V38a1 1 0 0 0-2 0v5a1 1 0 0 0 1 1h6v4a1 1 0 0 0 2 0V43A1 1 0 0 0 27 42z"/><path fill="#f8664f" d="M17.39,40.923a1,1,0,0,0-1.414,0l-.708.708-.707-.708a1,1,0,1,0-1.414,1.414l.707.708-.707.707a1,1,0,1,0,1.414,1.414l.707-.707.708.707a1,1,0,1,0,1.414-1.414l-.708-.707.708-.708A1,1,0,0,0,17.39,40.923Z"/><path fill="#e59730" d="M42,4a1,1,0,0,0-1-1H23a1,1,0,0,0-1,1,9.011,9.011,0,0,0,9,9h2A9.011,9.011,0,0,0,42,4Zm-9,7H31a7.011,7.011,0,0,1-6.929-6H39.929A7.011,7.011,0,0,1,33,11Z"/><polygon fill="#fcbc04" points="33 17 31 17 30 12 34 12 33 17"/><path fill="#e59730" d="M32,13.9V14a2,2,0,0,0,1.23,1.84L33,17H31l-1-5h4l-.23,1.15A4.884,4.884,0,0,1,32,13.9Z"/><path fill="#f9e109" d="M27 3H37a0 0 0 0 1 0 0V8a5 5 0 0 1-5 5h0a5 5 0 0 1-5-5V3A0 0 0 0 1 27 3zM31 17h2a4 4 0 0 1 4 4v0a0 0 0 0 1 0 0H27a0 0 0 0 1 0 0v0A4 4 0 0 1 31 17z"/><path fill="#fcbc04" d="M36.56 10.06A5 5 0 0 1 27 8V3h2.5V5.5a5 5 0 0 0 5 5A5.073 5.073 0 0 0 36.56 10.06zM37 21H27a4.025 4.025 0 0 1 1.17-2.83 4.216 4.216 0 0 1 1.16-.8A2.991 2.991 0 0 0 32 19h4.46A3.989 3.989 0 0 1 37 21z"/><rect width="10" height="8" x="42" y="30" fill="#84d2f4"/><rect width="8" height="8" x="35" y="48" fill="#84d2f4"/><rect width="8" height="8" x="53" y="48" fill="#c4f236"/><rect width="10" height="8" x="14.038" y="30" fill="#f8664f"/><rect width="8" height="8" x="23" y="48" fill="#f8664f" transform="rotate(180 27 52)"/><rect width="8" height="8" x="3" y="48" fill="#f9e109" transform="rotate(180 7 52)"/><path fill="#57b7eb" d="M52,35v3H42V30h4v1a4,4,0,0,0,4,4Z"/><path fill="#cc5144" d="M24,35v3H14V30h4v1a4,4,0,0,0,4,4Z"/><path fill="#a1d51c" d="M61,53v3H53V48h3A5,5,0,0,0,61,53Z"/><path fill="#57b7eb" d="M43,53v3H35V48h3A5,5,0,0,0,43,53Z"/><path fill="#cc5144" d="M31,53v3H23V48h3A5,5,0,0,0,31,53Z"/><path fill="#fcbc04" d="M11,53v3H3V48H6A5,5,0,0,0,11,53Z"/></svg>