<svg xmlns="http://www.w3.org/2000/svg" viewBox="0 0 3777.88 3897.35"><defs><style>.e{fill:#fff}.f{fill:#ed6b74}.g{fill:#d56734}.h{fill:#e38859}.i{fill:#5e2f0b}.j{fill:#e7e4eb}.k{fill:#d5d2db}.l{fill:#392141}.m{fill:#54435b}.n{fill:#8bc541}.o{fill:#603b3b}.p{fill:#a0503a}.q{fill:#ea5a59}.r{fill:#544040}.s{fill:#e08a29}.u{fill:#c36a4c}.v{fill:#2b90ca}.x{fill:#72c49a}.y{fill:#d14a4a}.aa{fill:#f4b683}.ab{fill:#3a3944}.ac{fill:#c9585e}.ad{fill:#602f03}.ae{fill:#352525}.af{fill:#e0a503}.ag{fill:#eaaa7a}.ah{fill:#804000}</style></defs><g id="a"><ellipse cx="1825.48" cy="3504.54" rx="1171.78" ry="133.12" style="fill:#ced3dd;opacity:.44"/><path d="M3106.73 2031.89c-55.65-203.97-11.57-461.66-172.44-594.19-102.4-84.36-247.05-77.78-374.18-111.36-180.51-47.68-327.27-178.1-487.56-275.79-160.29-97.7-365.51-163-529.45-71.92-128.01 71.11-194.96 217.18-289.64 330.7-95.2 114.13-220.88 197.09-322.8 304.92-186.23 197.04-285.03 478.1-264.3 751.9 11 145.23 57.11 292.65 155.82 397.24 151.75 207.84 493.72 182.44 711.95 174.09 335.79-12.84 677.07 7.26 1014.82 17.65 149.43 4.59 302.79 8.61 443.98-41.87 141.19-50.47 269.72-168.16 290.79-320.19 27.33-197.26-124.64-369.32-176.98-561.18Z" style="fill:#c4cfe1;opacity:.8"/></g><g id="b"><path class="aa" d="m2396.17 2652.68-61.64 362.89 114.92 19.52 111.99-365.72-165.27-16.69z"/><ellipse class="aa" cx="2395.01" cy="3020.29" rx="61.87" ry="60.42" transform="rotate(-80.36 2394.994 3020.294)"/><path class="aa" d="m2454.57 3030.41-118.95 1.98-41.04 328.88c-.32 2.53-.36 5.04-.16 7.52l-.15-.02-8.41 64.4 71.98 15.63 10.2-66.83c2.79-4.36 4.68-9.3 5.44-14.56l81.1-337Z"/><path class="q" d="m2448.09 3057.36-113.19-19.23-40.32 323.14c-.32 2.53-.36 5.04-.16 7.52l-.15-.02-8.41 64.4 71.98 15.63 10.2-66.83c2.79-4.36 4.68-9.3 5.44-14.56l74.62-310.06Z"/><path class="m" d="M2290.23 3437.32c1.38-4.74 2.93-9.39 4.48-14.3 1.92 3.33 4.2 5.4 6.66 7.13 7.57 5.33 15.69 8.21 24.17 9.51 7.02 1.07 13.97.31 20.87-2.91 4.62-2.16 8.83-5.58 12.96-9.3 2.64-2.38 5.34-4.67 8.38-5.74 1.1-.38 2.18-.46 3.18-.07 3.18-.06 28.58 28.27 28.58 28.27.35.12.68.44 1 .92 4.97 4.56 9.74 9.19 14.72 13.28 12.94 10.61 27.1 16.98 41.77 21.47 6.59 2.02 13.19 3.99 19.76 6.13 3.12 1.02 8.65-2.49 11.3.1 2.4 2.34 3.73 5.58 3.55 9.99-.14 3.27-3.64 11-5.14 13.47-2.63 4.31-5.96 7.11-9.51 9.39-8.05 5.2-16.51 7.6-25.07 9.21-9.52 1.79-19.04 2.21-28.55 1.83-11.72-.46-23.31-2.09-34.6-5.98-8.87-3.06-17.64-6.63-26.42-10.15-6.96-2.8-13.98-5.22-21.1-7.04-16.52-2.39-31.77-4.58-32.6-4.67-.93-.1-2.25-.36-3.33-.59-4.8-1.05-9.42-2.35-13.67-5.36-4.2-2.98-6.81-7.68-7.37-14.62-.51-6.23-.59-12.49-.04-18.8.93-10.75 3.1-21.1 6.03-31.18Z"/><path class="l" d="M2291 3426.61c1.38-4.74 2.93-9.39 4.48-14.3 1.92 3.33 4.2 5.41 6.66 7.13 7.57 5.33 15.69 8.21 24.17 9.51 7.02 1.07 13.97.31 20.87-2.91 4.62-2.16 8.83-5.58 12.96-9.3 2.64-2.38 5.34-4.67 8.38-5.74 1.1-.38 2.18-.46 3.18-.07 3.18-.06 28.58 28.27 28.58 28.27.35.12.68.44 1 .92 4.97 4.56 9.74 9.19 14.72 13.28 12.94 10.61 27.1 16.98 41.77 21.47 6.59 2.02 13.19 3.99 19.76 6.13 3.12 1.02 6.15 2.46 8.81 5.04 2.4 2.34 3.73 5.58 3.55 9.99-.14 3.27-1.15 6.06-2.65 8.53-2.63 4.31-5.97 7.11-9.51 9.39-8.05 5.2-16.51 7.6-25.07 9.21-9.52 1.79-19.04 2.21-28.55 1.84-11.72-.46-23.31-2.09-34.6-5.98-8.87-3.06-17.64-6.63-26.42-10.15-6.96-2.8-13.98-5.22-21.1-7.04-16.52-2.39-31.77-4.58-32.6-4.67-.93-.1-2.25-.36-3.33-.59-4.8-1.05-9.42-2.35-13.67-5.36-4.2-2.98-6.81-7.68-7.37-14.62-.51-6.23-.59-12.49-.04-18.8.93-10.75 3.1-21.1 6.03-31.18Z"/><path class="e" d="M2415.99 3453.42c5.24 4.3 10.68 7.89 16.27 10.95-27.9 11.79-45.18 37.25-52.84 50.98-5.46-2.09-10.9-4.27-16.33-6.46 4.15-37.37 52.9-55.47 52.9-55.47ZM2332.05 3060.98l110.64 18.79 5.4-22.41-113.19-19.23-2.85 22.85z"/><path class="aa" d="M2757.42 2658.31v368.09h-116.56l-49.17-379.3 165.73 11.21z"/><ellipse class="aa" cx="2697.01" cy="3020.93" rx="60.42" ry="61.87"/><ellipse class="aa" cx="2992.27" cy="1519.49" rx="26.48" ry="45.14" transform="rotate(-58.45 2992.29 1519.492)"/><path class="aa" transform="rotate(-148.45 2926.389 1626.798)" d="M2881.25 1500.88h90.28v251.85h-90.28z"/><ellipse class="y" cx="2782.52" cy="1850.56" rx="43.87" ry="54.36" transform="rotate(-58.45 2782.545 1850.563)"/><path class="y" d="m2736.2 1822.12 92.65 56.88 125.03-197.56-92.64-56.89-125.04 197.57z"/><path class="j" d="m2919.73 1735.4-90.46-60.34 31.97-50.51 92.64 56.89-34.15 53.96z"/><ellipse class="aa" cx="1991.15" cy="2335.98" rx="50.38" ry="33.31" transform="rotate(-50.59 1991.189 2335.994)"/><path class="aa" transform="rotate(-140.59 2143.298 2150.832)" d="M2109.98 1911.21h66.61v479.26h-66.61z"/><path class="h" d="M1934.93 2425.91c-.8 8.38-.49 16.82-.18 25.23.27 7.27.55 14.61 2.33 21.66.22.88.47 1.78.72 2.68 2.01 7.11-8.52 10.6-10.94 3.62-2.64-7.63-4.2-15.82-5.71-23.58-2.28-11.71-4.44-23.43-6.27-35.21-.28-1.78-.47-3.59-.07-5.34.54-2.36 2.12-4.33 3.62-6.24a214.12 214.12 0 0 0 25.68-41.62c4.13 20.8-7.23 38.3-9.18 58.78Z"/><path class="h" d="M1948.76 2411.78c-1.75 8.23-2.4 16.65-3.05 25.05-.56 7.26-1.12 14.58-.16 21.79.12.9.26 1.82.41 2.75 1.19 7.29-9.67 9.56-11.28 2.35-1.76-7.88-2.37-16.2-2.99-24.08-.93-11.89-1.74-23.78-2.21-35.7-.07-1.8-.06-3.62.54-5.31.81-2.29 2.6-4.06 4.31-5.78a213.931 213.931 0 0 0 30.26-38.42c1.73 21.14-11.55 37.22-15.83 57.35Z"/><path class="aa" d="M2011.4 2379.37c-4.17 3.67-8.57 7.15-12.04 11.45-12.16 15.08-11.96 39.07-27.38 51.08-2.97 2.31-7.27 4.06-11.23 1.96-5.19-2.76-5.61-9.52-4.91-14.58 2.11-15.21 6.21-29.82 12.19-43.44 1.95-4.45 4.13-8.92 4.23-14.03.07-3.71-.97-7.55-1.63-11.34-4.73-26.95 18.81-68.7 53.22-58.14 41.43 12.72.83 65.35-12.44 77.04Z"/><path class="aa" d="M1959.38 2380.21c-2.38 1.66-4.15 4.05-5.86 6.4-8.86 12.1-17.71 24.2-26.57 36.3-1.4 1.92-2.83 3.89-3.5 6.17-1 3.4-.18 7.04.48 10.52 2.83 15.07 2.5 30.72-.91 45.66-1.2 5.28-8.87 5.22-10.01-.08-.5-2.32-.88-4.69-1.24-7.01l-7.35-47.48c-.6-3.88-1.2-7.82-.69-11.71.81-6.16 4.31-11.58 7.48-16.92 7.97-13.42 14.4-27.76 19.13-42.63 1.09-3.43 2.11-6.92 3.9-10.04 2.42-4.2 6.11-7.49 9.67-10.79 20.17-18.71 37.73-40.04 55.36-61.14 26.18 19.63 15.17 11.38 41.35 31.01a288.177 288.177 0 0 1-40.04 46.5c-6.24 5.85-12.75 12.43-20.19 16.78-6.54 3.82-14.88 4.17-21.02 8.45Z"/><ellipse class="y" cx="2397.9" cy="1854.24" rx="43.87" ry="54.36" transform="rotate(-50.59 2397.938 1854.243)"/><path class="y" d="m2355.91 1819.73 84 69.02-145.97 182.65-84-69.02 145.97-182.65z"/><path class="j" d="m2333.81 2021.51-86.55-65.82-37.32 46.69 84 69.02 39.87-49.89z"/><path class="k" d="M2665.05 1763.86s-49.45-43.09-164.83 0c-115.38 43.09-42.88 163.53-42.88 163.53l238.77 12.75-31.07-176.28Z"/><path class="o" d="m2580.59 2490.3-174.86-135.88-33.25 377.95 194.27 13.95 13.84-256.02zM2599.58 2485.45l180.33-27.63 10.64 280.55-198.86 15.9 7.89-268.82z"/><path class="o" d="M2545.02 2376.69h93.34c78.61 0 142.43 63.82 142.43 142.43v78.09c0 5.03-4.09 9.12-9.12 9.12h-359.96c-5.03 0-9.12-4.09-9.12-9.12v-78.09c0-78.61 63.82-142.43 142.43-142.43Z" transform="rotate(180 2591.69 2491.505)"/><path class="y" d="M2661.56 1770.84s-55.23-42.59-143.26-8.88c-88.03 33.7 110.31 134.94 110.31 134.94l32.95-126.06Z"/><path class="aa" transform="rotate(180 2589.9 1746.425)" d="M2534.54 1659.53h110.73v173.78h-110.73z"/><path class="g" d="M2534.54 1659.53h94.8c4.15 2.76 8.24 5.81 12.28 9.17 1.24 1.03 2.45 2.08 3.65 3.14v107.3c-.61.13-1.23.25-1.84.36-17.34 3.19-35.42 1.17-52.81-1.82-19.34-3.32-39.04-8.21-56.07-16.29v-101.86Z"/><path class="q" d="m2352.33 1817 146.26-45.21 13.95 34.08 83.78 26.04 65.24-26.04 3.49-42.01 175.26 53.14-63.82 481.34s26.59 54.52 2.66 98.39c0 0-36.26 19.26-156.9 12.81v.49l-6.37-.85c-6.3-.38-12.82-.82-19.56-1.34-6.75.52-13.27.96-19.56 1.34l-6.36.85v-.49c-120.64 6.45-156.9-12.81-156.9-12.81-23.93-43.88 2.66-98.39 2.66-98.39L2352.34 1817Z"/><path class="j" d="M2665.05 1763.86s-8.67 63.93-76.91 59.08c-77.32-5.5-87.92-59.08-87.92-59.08l-22.23 14.3s42.69 69.74 110.16 69.72c81.44-.03 95.94-78.24 95.94-78.24l-19.03-5.77Z"/><path class="aa" d="m2636.59 3020.93 116.94 21.87-14.61 331.11c-.11 2.54-.49 5.03-1.1 7.44h.15l-2.5 64.9-73.58 3.35 1.14-67.59c-2.02-4.76-3.06-9.96-2.92-15.26l-23.52-345.83Z"/><path class="q" d="M2638.47 3048.58h114.81l-14.36 325.33c-.11 2.54-.49 5.03-1.1 7.44h.15l-2.5 64.9-73.58 3.35 1.14-67.59c-2.02-4.76-3.06-9.96-2.92-15.26l-21.64-318.17Z"/><path class="m" d="M2661.9 3449.61c.56-4.91 1.32-9.75 2.02-14.84 2.45 2.97 5.05 4.62 7.76 5.91 8.36 3.98 16.84 5.47 25.42 5.33 7.1-.12 13.83-2.03 20.08-6.36 4.2-2.9 7.77-6.98 11.22-11.34 2.21-2.79 4.48-5.5 7.3-7.06 1.02-.56 2.07-.82 3.12-.6 3.12-.6 32.91 23.09 32.91 23.09.36.06.74.32 1.14.74 5.67 3.66 11.14 7.43 16.74 10.63 14.54 8.29 29.56 12.2 44.77 14.17 6.84.89 13.68 1.73 20.51 2.74 3.25.48 8.11-3.9 11.16-1.79 2.76 1.91 4.62 4.88 5.17 9.26.41 3.24-1.74 11.46-2.81 14.14-1.87 4.69-4.69 8.01-7.8 10.85-7.07 6.47-15 10.26-23.17 13.28-9.09 3.36-18.4 5.36-27.84 6.59-11.63 1.51-23.33 1.84-35.11-.11-9.26-1.53-18.5-3.58-27.74-5.59-7.33-1.59-14.66-2.81-21.98-3.41-16.68.41-32.09.8-32.92.86-.94.06-2.28.03-3.38-.02-4.91-.23-9.68-.74-14.38-3-4.64-2.24-8-6.44-9.72-13.18-1.54-6.06-2.67-12.21-3.19-18.53-.88-10.76-.47-21.32.72-31.75Z"/><path class="l" d="M2660.86 3438.93c.56-4.91 1.32-9.75 2.02-14.84 2.45 2.97 5.05 4.62 7.76 5.92 8.36 3.98 16.84 5.47 25.42 5.33 7.1-.12 13.83-2.03 20.08-6.36 4.2-2.9 7.77-6.98 11.22-11.34 2.21-2.79 4.48-5.5 7.3-7.06 1.02-.56 2.07-.82 3.12-.6 3.12-.6 32.91 23.09 32.91 23.09.36.06.74.32 1.14.74 5.67 3.66 11.14 7.43 16.74 10.63 14.54 8.29 29.56 12.2 44.77 14.17 6.84.89 13.68 1.73 20.51 2.74 3.25.48 6.48 1.39 9.53 3.5 2.76 1.91 4.62 4.88 5.17 9.26.41 3.24-.11 6.17-1.18 8.85-1.87 4.69-4.69 8.01-7.8 10.85-7.07 6.47-15 10.26-23.17 13.28-9.09 3.36-18.4 5.36-27.84 6.59-11.63 1.51-23.33 1.84-35.11-.11-9.26-1.53-18.5-3.58-27.74-5.59-7.33-1.59-14.66-2.81-21.98-3.41-16.68.41-32.09.8-32.92.86-.94.06-2.28.03-3.38-.02-4.91-.23-9.68-.74-14.38-3-4.64-2.24-8-6.44-9.72-13.18-1.54-6.06-2.67-12.21-3.19-18.53-.88-10.76-.47-21.32.72-31.75Z"/><path class="e" d="M2788.57 3444.43c5.88 3.36 11.85 5.99 17.87 8.07-25.53 16.29-38.31 44.29-43.56 59.11-5.73-1.14-11.46-2.39-17.18-3.63-2.16-37.54 42.87-63.55 42.87-63.55ZM2752.27 3071.58h-112.23l-1.57-23h114.81l-1.01 23z"/><ellipse class="ah" cx="2583.65" cy="1494.26" rx="155.02" ry="157.98" transform="rotate(-9.92 2582.683 1493.81)"/><path class="aa" d="M2736.52 1521.42c-19.37-23.62-36.38 13.75-36.38 13.75l3.35 62.76c37.46-15.46 52.39-52.88 33.02-76.51Z"/><path class="h" d="M2704.61 1548.81s7.78-22.83 19.65-18.32c11.87 4.5 15.27 37.84-16.48 50.32l-3.17-31.99Z"/><circle class="aa" cx="2590.44" cy="1471.84" r="118.01" transform="rotate(-45 2590.443 1471.833)"/><path class="aa" d="M2496.65 1620.62c11.22 64.2 72.11 105.52 136.57 95.93 109.6-16.31 107.15-72.37 95.93-136.57-11.22-64.2-72.37-107.15-136.57-95.93-64.2 11.22-107.15 72.37-95.93 136.57Z"/><path class="aa" transform="rotate(170.08 2602.13 1538.983)" d="M2484.15 1466.77h236.03v144.27h-236.03z"/><path class="aa" d="M2478.57 1566.51c10.2-28.79 38.88.59 38.88.59l18.14 60.17c-40.48-1.83-67.22-31.97-57.02-60.76Z"/><path class="h" d="M2517.88 1581.45s-15.07-18.83-24.7-10.57c-9.64 8.26-1.53 40.78 32.57 41.74l-7.87-31.17Z"/><path class="ab" d="M2601.06 1549.83c1.1 6.31-2.33 12.19-7.67 13.12-5.34.93-10.57-3.43-11.67-9.74-1.1-6.31 2.33-12.19 7.67-13.12 5.34-.93 10.57 3.43 11.67 9.74ZM2683.07 1535.42c1.1 6.28 6.32 10.62 11.66 9.69 5.34-.93 8.78-6.79 7.68-13.07-1.1-6.28-6.32-10.62-11.66-9.69-5.34.93-8.78 6.79-7.68 13.07Z"/><path class="g" d="M2651.92 1549.73c.52 6.6 1.64 13.01 2.93 19.37 1.31 6.36 2.84 12.65 4.53 18.88l1.29 4.66 1.33 4.64.34 1.15.23 1.03c.14.68.37 1.36.4 2.06.06.69.23 1.39.18 2.1v1.06c.01.18.02.36.02.53l-.06.53c-.43 5.72-3.33 11.49-7.45 16.6 1.5-.72 2.88-1.68 4.18-2.75.68-.51 1.26-1.12 1.89-1.7.57-.62 1.19-1.23 1.71-1.91 2.17-2.67 3.87-5.88 4.69-9.43.4-1.77.61-3.62.53-5.46.04-.93-.12-1.83-.25-2.75l-.21-1.36-.25-1.2c-.34-1.61-.73-3.19-1.1-4.77l-1.22-4.72c-1.7-6.27-3.67-12.46-5.9-18.57-2.25-6.1-4.72-12.14-7.82-17.99Z"/><path class="ad" d="M2703.2 1489.38c-5.3-9.4-15.29-14.36-24.18-12.44-4.37 1.15-8.45 3.45-11.58 7.06-1.66 1.63-2.87 3.87-4.2 5.83-1.09 2.27-2.1 4.57-2.86 7.03 1.94-1.11 3.57-2.48 5.23-3.71 1.77-1.04 3.33-2.37 5.02-3.29 3.32-2.02 6.67-3.43 10.1-4.23 3.43-.88 7.02-.7 10.74-.12 3.74.68 7.57 2.02 11.72 3.86ZM2615.07 1505.35c-6.41-9.2-19.15-13.69-30.83-11.27-5.75 1.39-11.19 3.93-15.45 7.73-2.25 1.74-3.95 4.06-5.78 6.11-1.54 2.35-2.97 4.72-4.09 7.25 2.59-1.22 4.78-2.69 7.01-4.02 2.35-1.15 4.46-2.56 6.71-3.59 4.43-2.21 8.87-3.81 13.38-4.8 4.51-1.07 9.17-1.08 13.99-.68 4.84.49 9.75 1.63 15.06 3.28Z"/><path class="ah" d="M2680.15 1446.1c3.55-1.58 7.17-3 10.85-4.23 13.16-4.4 48.03-21.87 30.49-80.4-21.41-71.42-89.22-41.06-156.89-18.16-67.67 22.9-96.81-14.9-96.81-14.9s-5.87 140.07 103.35 135.58c3.01-.12 6.01-.24 9.02-.25 14.7-.05 63.7-1.49 99.99-17.64Z"/><path class="ah" d="M2516.15 1566.08c-29.31-9.35-53.71-32.95-64.02-61.94-10.31-28.99-6.31-62.69 10.52-88.45 8.13-12.46 20.45-23.7 35.3-24.53 13.54-.76 26.63 7.81 33.19 19.68 15.83 28.64-7.57 42.92-16.71 68.05-10.16 27.92-9.99 59.77 1.73 87.19Z"/><ellipse class="aa" cx="3043.08" cy="1280.82" rx="27.01" ry="44.37" transform="rotate(-77.71 3043.13 1280.802)"/><path class="aa" transform="rotate(-167.71 3015.759 1406.297)" d="M2971.37 1277.88h88.75v256.89h-88.75z"/><path class="h" d="m3055.3 1302.84-54.02-5.57c-5.01-.52-8.69-5.04-8.17-10.05l11.27-109.31c.52-5.01 5.04-8.69 10.05-8.17l84.9 8.75c5.01.52 17.98 10.44 17.46 15.45l-8.09 78.43c-.93 8.98-13.89 28.41-19.63 34.59-8.32 8.96-20.76-2.77-33.78-4.12Z"/><path class="aa" d="M3101.31 1163.58c-7.36-.67-13.94 4.8-14.62 12.16l-8.01 87.39a13.3 13.3 0 0 0 1.96 8.28c2.15 3.47 5.85 5.94 10.2 6.33 7.36.67 13.94-4.8 14.62-12.16l8.01-87.39c.41-4.49-1.46-8.69-4.66-11.44a13.29 13.29 0 0 0-7.5-3.18ZM3077.78 1145.27c-7.28-1.32-14.48 4.49-16 12.9l-18.08 99.86c-.62 3.44-.21 6.8 1 9.66 1.75 4.15 5.15 7.25 9.46 8.03 7.28 1.32 14.48-4.49 16-12.9l18.08-99.86c.93-5.13-.46-10.1-3.34-13.49-1.84-2.17-4.29-3.69-7.12-4.21ZM3041.05 1141.96c-7.36-.77-14.11 5.67-15.01 14.3l-10.69 102.42c-.37 3.53.3 6.89 1.71 9.7 2.05 4.06 5.67 6.94 10.02 7.39 7.35.77 14.11-5.67 15.01-14.3l10.69-102.42c.55-5.26-1.2-10.18-4.32-13.39-1.99-2.05-4.55-3.4-7.42-3.7ZM3002.8 1145.98c-7.39-.03-13.47 6.02-13.49 13.44l-.3 88.01c-.01 3.03.99 5.84 2.68 8.1 2.45 3.28 6.35 5.41 10.72 5.43 7.4.02 13.47-6.02 13.49-13.44l.3-88.01c.02-4.52-2.22-8.55-5.65-11.01a13.36 13.36 0 0 0-7.75-2.52Z"/><path class="ag" d="M2987.59 1306.81c-8.96-11.32-15.12-24.83-17.77-39.02-.38-2.05-.69-4.17-.2-6.2.42-1.75 1.41-3.3 2.45-4.77 11.65-16.58 30.27-26.89 49.12-34.33 7.79-3.08 15.96-5.8 24.34-5.53 8.37.26 17.07 4.05 21.21 11.33 1.41 2.47 2.25 5.42 1.53 8.17-1.38 5.27-7.52 7.52-12.87 8.56-13.8 2.68-28.86 3.01-40.19 11.33-1.15.84-2.37 2.18-1.84 3.51.4 1.01 1.6 1.39 2.66 1.62 6.67 1.47 13.54 1.94 20.18 3.55 6.64 1.61 13.26 4.56 17.51 9.91 4.33 5.45 5.68 12.69 6.02 19.64.3 6.19-.1 12.52-2.33 18.31-5.37 13.97-20.89 22.25-35.85 22.4-13 .13-27.04-6.19-31.75-18.31l-2.22-10.18Z"/><path class="i" d="m2679.41 1638.19-86.54-.74s-3.27 44.66 41.48 45.13c44.74.47 45.06-44.39 45.06-44.39Z"/><path class="ac" d="M2635.54 1649.13c14.12.06 26.65 6.72 34.71 17.05-6.42 8.98-17.33 16.6-35.91 16.41-18-.19-28.22-7.53-34.02-16.23 8.13-10.52 20.89-17.28 35.22-17.22Z"/><path class="aa" d="m1508.17 2643.09 75.03 360.36-114.12 23.76-125.45-361.32 164.54-22.8z"/><ellipse class="aa" cx="1522.94" cy="3010.41" rx="60.42" ry="61.87" transform="rotate(-11.76 1523.095 3010.657)"/><path class="aa" d="m1463.79 3022.72 118.95-2.43 53.19 327.14c.41 2.51.55 5.03.44 7.51l.15-.03 10.78 64.04-71.35 18.28-12.66-66.41a36.637 36.637 0 0 1-5.97-14.35l-93.52-333.77Z"/><path class="q" d="m1471.27 3049.41 112.4-23.4 52.26 321.43c.41 2.51.55 5.03.44 7.51l.15-.03 10.78 64.04-71.35 18.28-12.66-66.41a36.637 36.637 0 0 1-5.97-14.35l-86.04-307.08Z"/><path class="m" d="M1643.08 3423.27c-1.55-4.69-3.28-9.27-5-14.12-1.8 3.4-4 5.56-6.39 7.37-7.37 5.6-15.37 8.79-23.8 10.39-6.98 1.33-13.95.83-20.96-2.13-4.7-1.99-9.03-5.25-13.3-8.82-2.73-2.29-5.51-4.47-8.59-5.42-1.11-.34-2.19-.38-3.18.05-3.18.05-27.52 29.31-27.52 29.31-.34.13-.66.46-.97.96-4.8 4.74-9.39 9.55-14.22 13.82-12.54 11.08-26.45 17.97-40.94 23-6.51 2.26-13.04 4.48-19.52 6.86-3.08 1.13-8.73-2.16-11.29.52-2.31 2.43-3.53 5.72-3.17 10.12.26 3.26 4.04 10.86 5.64 13.27 2.79 4.21 6.22 6.88 9.85 9.04 8.24 4.9 16.78 6.98 25.39 8.28 9.58 1.44 19.11 1.5 28.6.78 11.69-.89 23.22-2.95 34.35-7.26 8.75-3.39 17.39-7.27 26.02-11.13 6.85-3.06 13.78-5.74 20.82-7.82 16.42-3 31.58-5.76 32.4-5.87.93-.13 2.24-.44 3.3-.71 4.75-1.22 9.33-2.69 13.46-5.87 4.09-3.14 6.52-7.93 6.83-14.89.27-6.24.13-12.5-.66-18.79-1.33-10.71-3.88-20.97-7.18-30.94Z"/><path class="l" d="M1641.92 3412.6c-1.55-4.69-3.28-9.27-5-14.12-1.8 3.4-4 5.56-6.39 7.37-7.37 5.6-15.37 8.79-23.8 10.39-6.98 1.33-13.95.83-20.96-2.13-4.7-1.99-9.03-5.25-13.3-8.82-2.73-2.28-5.51-4.47-8.59-5.42-1.11-.34-2.19-.38-3.18.05-3.18.05-27.52 29.31-27.52 29.31-.34.13-.66.46-.97.96-4.8 4.74-9.39 9.55-14.22 13.82-12.54 11.08-26.45 17.97-40.94 23-6.51 2.26-13.04 4.48-19.52 6.86-3.08 1.13-6.06 2.68-8.61 5.37-2.31 2.43-3.53 5.72-3.17 10.12.26 3.26 1.37 6.02 2.96 8.42 2.79 4.21 6.22 6.88 9.85 9.04 8.24 4.9 16.78 6.98 25.39 8.28 9.58 1.44 19.11 1.5 28.6.78 11.69-.89 23.22-2.95 34.35-7.26 8.75-3.39 17.39-7.27 26.02-11.13 6.85-3.06 13.78-5.74 20.82-7.82 16.42-3 31.58-5.76 32.4-5.87.93-.13 2.24-.44 3.3-.71 4.75-1.22 9.33-2.69 13.46-5.87 4.09-3.14 6.52-7.93 6.83-14.89.27-6.24.13-12.5-.66-18.79-1.33-10.71-3.88-20.97-7.18-30.94Z"/><path class="e" d="M1518.01 3444.01c-5.08 4.49-10.38 8.27-15.85 11.54 28.32 10.75 46.53 35.55 54.69 48.99 5.38-2.29 10.73-4.67 16.08-7.06-5.54-37.19-54.92-53.47-54.92-53.47ZM1587.36 3048.73l-109.87 22.88-6.22-22.2 112.4-23.4 3.69 22.72z"/><path class="aa" d="M1137.82 2660.55v368.09h116.57l49.16-379.31-165.73 11.22z"/><ellipse class="aa" cx="1198.23" cy="3023.16" rx="60.42" ry="61.87"/><ellipse class="aa" cx="902.97" cy="1521.73" rx="45.14" ry="26.48" transform="rotate(-31.55 902.96 1521.708)"/><path class="aa" transform="rotate(-31.55 968.847 1629.037)" d="M923.72 1503.11H1014v251.85h-90.28z"/><ellipse class="y" cx="1112.72" cy="1852.79" rx="54.36" ry="43.87" transform="rotate(-31.55 1112.694 1852.782)"/><path class="y" d="m1159.04 1824.35-92.65 56.89-125.03-197.57 92.64-56.88 125.04 197.56z"/><path class="j" d="m975.51 1737.63 90.46-60.34-31.97-50.5-92.64 56.88 34.15 53.96z"/><ellipse class="aa" cx="1904.09" cy="2338.21" rx="33.31" ry="50.38" transform="rotate(-39.41 1904.054 2338.194)"/><path class="aa" transform="rotate(-39.41 1751.923 2153.05)" d="M1718.65 1913.44h66.61v479.26h-66.61z"/><path class="h" d="M1960.31 2428.15c.8 8.38.49 16.82.18 25.23-.27 7.27-.55 14.61-2.33 21.66-.22.89-.47 1.78-.72 2.68-2.01 7.11 8.52 10.6 10.94 3.62 2.64-7.63 4.2-15.82 5.71-23.58 2.28-11.71 4.44-23.43 6.27-35.21.28-1.78.47-3.59.07-5.34-.54-2.36-2.12-4.33-3.62-6.24a214.12 214.12 0 0 1-25.68-41.62c-4.13 20.8 7.23 38.3 9.18 58.78Z"/><path class="h" d="M1946.48 2414.01c1.75 8.23 2.4 16.65 3.05 25.05.56 7.26 1.12 14.58.16 21.79-.12.9-.26 1.82-.41 2.75-1.18 7.29 9.67 9.56 11.28 2.35 1.76-7.88 2.37-16.2 2.99-24.08.93-11.89 1.74-23.78 2.21-35.7.07-1.8.06-3.62-.54-5.31-.81-2.29-2.6-4.06-4.31-5.78a213.931 213.931 0 0 1-30.26-38.42c-1.73 21.14 11.55 37.22 15.83 57.35Z"/><path class="aa" d="M1883.84 2381.6c4.17 3.67 8.57 7.15 12.04 11.45 12.16 15.08 11.96 39.07 27.38 51.08 2.97 2.31 7.27 4.06 11.23 1.96 5.19-2.76 5.61-9.52 4.91-14.58-2.11-15.21-6.21-29.82-12.19-43.44-1.95-4.45-4.13-8.92-4.23-14.03-.07-3.71.97-7.55 1.63-11.34 4.73-26.95-18.81-68.7-53.22-58.14-41.43 12.72-.83 65.35 12.44 77.04Z"/><path class="aa" d="M1935.86 2382.44c2.38 1.66 4.15 4.05 5.86 6.4 8.86 12.1 17.71 24.2 26.57 36.3 1.4 1.92 2.83 3.89 3.5 6.17 1 3.4.18 7.04-.48 10.52-2.83 15.07-2.5 30.72.91 45.66 1.2 5.28 8.87 5.22 10.01-.08.5-2.32.88-4.69 1.24-7.01l7.35-47.48c.6-3.88 1.2-7.82.69-11.71-.81-6.16-4.31-11.58-7.48-16.92a205.687 205.687 0 0 1-19.13-42.63c-1.09-3.43-2.11-6.92-3.9-10.04-2.42-4.2-6.11-7.49-9.67-10.79-20.17-18.71-37.73-40.04-55.36-61.14-26.18 19.63-15.17 11.38-41.35 31.01a288.177 288.177 0 0 0 40.04 46.5c6.24 5.85 12.75 12.43 20.19 16.78 6.54 3.82 14.88 4.17 21.02 8.45Z"/><ellipse class="y" cx="1497.34" cy="1856.47" rx="54.36" ry="43.87" transform="rotate(-39.41 1497.304 1856.445)"/><path class="y" d="m1539.33 1821.96-83.99 69.02 145.96 182.65 84-69.02-145.97-182.65z"/><path class="j" d="m1561.43 2023.75 86.56-65.83 37.31 46.69-84 69.02-39.87-49.88z"/><path class="k" d="M1230.19 1766.09s49.45-43.09 164.83 0c115.38 43.09 42.88 163.53 42.88 163.53l-238.77 12.75 31.07-176.28Z"/><path class="o" d="m1314.65 2492.53 174.86-135.87 33.25 377.94-194.27 13.95-13.84-256.02zM1295.66 2487.69l-180.33-27.63-10.64 280.54 198.86 15.91-7.89-268.82z"/><path class="o" d="M1123.57 2378.92h359.96c5.03 0 9.12 4.09 9.12 9.12v78.09c0 78.61-63.82 142.43-142.43 142.43h-93.34c-78.61 0-142.43-63.82-142.43-142.43v-78.09c0-5.03 4.09-9.12 9.12-9.12Z"/><path class="y" d="M1233.68 1773.08s55.23-42.59 143.26-8.88c88.03 33.7-110.31 134.94-110.31 134.94l-32.95-126.06Z"/><path class="aa" d="M1249.98 1661.77h110.73v173.78h-110.73z"/><path class="g" d="M1360.7 1661.77h-94.8c-4.15 2.76-8.24 5.81-12.28 9.17-1.24 1.03-2.45 2.08-3.65 3.14v107.3c.61.13 1.23.25 1.84.36 17.34 3.19 35.42 1.17 52.81-1.82 19.34-3.32 39.04-8.21 56.07-16.29v-101.86Z"/><path class="q" d="m1542.92 1819.23-146.26-45.21-13.95 34.08-83.78 26.04-65.24-26.04-3.49-42.01-175.26 53.14 63.82 481.34s-26.59 54.52-2.66 98.39c0 0 36.26 19.26 156.9 12.81v.49l6.37-.85c6.3-.38 12.82-.82 19.56-1.34 6.75.52 13.27.96 19.56 1.34l6.36.85v-.49c120.64 6.45 156.9-12.81 156.9-12.81 23.93-43.88-2.66-98.39-2.66-98.39l63.82-481.34Z"/><path class="j" d="M1230.19 1766.09s8.67 63.93 76.91 59.08c77.32-5.5 87.92-59.08 87.92-59.08l22.23 14.3s-42.69 69.74-110.16 69.72c-81.44-.03-95.94-78.24-95.94-78.24l19.03-5.77Z"/><path class="aa" d="m1258.65 3023.16-116.94 21.87 14.61 331.11c.11 2.54.49 5.03 1.1 7.44h-.15l2.5 64.9 73.58 3.35-1.14-67.59c2.02-4.76 3.06-9.96 2.92-15.26l23.52-345.83Z"/><path class="q" d="M1256.77 3050.82h-114.81l14.36 325.33c.11 2.54.49 5.03 1.1 7.44h-.15l2.5 64.9 73.58 3.35-1.14-67.59c2.02-4.76 3.06-9.96 2.92-15.26l21.64-318.17Z"/><path class="m" d="M1233.34 3451.84c-.56-4.91-1.32-9.75-2.02-14.84-2.45 2.97-5.05 4.62-7.76 5.91-8.36 3.99-16.84 5.47-25.42 5.33-7.1-.12-13.83-2.03-20.08-6.36-4.2-2.9-7.77-6.98-11.22-11.34-2.21-2.79-4.48-5.5-7.3-7.06-1.02-.56-2.07-.82-3.12-.6-3.12-.6-32.91 23.09-32.91 23.09-.36.06-.74.32-1.14.74-5.67 3.66-11.14 7.43-16.74 10.63-14.54 8.29-29.56 12.2-44.77 14.17-6.84.89-13.68 1.73-20.51 2.74-3.25.48-8.11-3.9-11.16-1.79-2.76 1.91-4.62 4.88-5.17 9.26-.41 3.24 1.74 11.46 2.81 14.14 1.87 4.69 4.69 8.01 7.8 10.85 7.07 6.47 15 10.26 23.17 13.28 9.09 3.36 18.4 5.36 27.84 6.59 11.63 1.51 23.33 1.84 35.11-.11 9.26-1.53 18.5-3.58 27.74-5.59 7.33-1.59 14.66-2.81 21.98-3.41 16.68.41 32.09.8 32.92.86.94.06 2.28.03 3.38-.02 4.91-.23 9.68-.74 14.38-3 4.64-2.24 8-6.44 9.72-13.18 1.54-6.06 2.67-12.21 3.19-18.53.88-10.76.47-21.32-.72-31.75Z"/><path class="l" d="M1234.38 3441.16c-.56-4.91-1.32-9.75-2.02-14.84-2.45 2.97-5.05 4.62-7.76 5.92-8.36 3.98-16.84 5.47-25.42 5.33-7.1-.12-13.83-2.03-20.08-6.36-4.2-2.9-7.77-6.98-11.22-11.34-2.21-2.79-4.48-5.5-7.3-7.06-1.02-.56-2.07-.82-3.12-.6-3.12-.6-32.91 23.09-32.91 23.09-.36.06-.74.32-1.14.74-5.67 3.66-11.14 7.43-16.74 10.63-14.54 8.29-29.56 12.2-44.77 14.17-6.84.89-13.68 1.73-20.51 2.74-3.25.48-6.48 1.39-9.53 3.5-2.76 1.91-4.62 4.88-5.17 9.26-.41 3.24.11 6.17 1.18 8.85 1.87 4.69 4.69 8.01 7.8 10.85 7.07 6.47 15 10.26 23.17 13.28 9.09 3.36 18.4 5.36 27.84 6.59 11.63 1.51 23.33 1.84 35.11-.11 9.26-1.53 18.5-3.58 27.74-5.59 7.33-1.59 14.66-2.81 21.98-3.41 16.68.41 32.09.8 32.92.86.94.06 2.28.03 3.38-.02 4.91-.23 9.68-.74 14.38-3 4.64-2.24 8-6.44 9.72-13.18 1.54-6.06 2.67-12.21 3.19-18.53.88-10.76.47-21.32-.72-31.75Z"/><path class="e" d="M1106.67 3446.66c-5.88 3.36-11.85 5.99-17.87 8.07 25.53 16.29 38.31 44.29 43.56 59.11 5.73-1.14 11.46-2.39 17.18-3.63 2.16-37.54-42.87-63.55-42.87-63.55ZM1142.97 3073.82h112.23l1.57-23h-114.81l1.01 23z"/><path class="r" d="M1166.43 1508.86c3.37 38.8 14.34 76.66 17.41 115.49a2484.78 2484.78 0 0 0 49.8-153.19c4.74-16.37 9.32-33.82 4.62-50.2-7.92-27.58-37.93-34.41-53.19-10.7-18.46 28.67-21.52 65.45-18.64 98.61Z"/><path class="aa" d="M1159.53 1535.24c17.23-24.61 36.7 10.77 36.7 10.77l1.38 61.79c-37.89-12.37-55.31-47.96-38.07-72.57Z"/><path class="h" d="M1192.86 1559.73s-9.33-21.81-20.63-16.51c-11.3 5.3-12.16 38.25 19.9 48.12l.73-31.61Z"/><circle class="aa" cx="1299.1" cy="1475.75" r="116.06" transform="rotate(-45 1299.098 1475.756)"/><path class="aa" d="M1402.14 1614.68c-6.23 63.8-62.86 108.84-126.8 104.23-108.69-7.84-110.46-63-104.23-126.8s63-110.46 126.8-104.23c63.8 6.23 110.46 63 104.23 126.8Z"/><path class="aa" transform="rotate(5.58 1292.407 1542.192)" d="M1176.52 1471.46h232.13v141.88h-232.13z"/><path class="ab" d="M1294.48 1553.03c-.61 6.27 3.19 11.78 8.5 12.29 5.31.52 10.11-4.15 10.72-10.42.61-6.27-3.19-11.78-8.5-12.3-5.31-.52-10.11 4.15-10.72 10.42ZM1212.98 1545c-.61 6.24-5.41 10.89-10.72 10.37-5.31-.52-9.12-6-8.51-12.24.61-6.24 5.41-10.89 10.72-10.37 5.31.52 9.12 6 8.51 12.25Z"/><path class="g" d="M1244.6 1556.71c-.02 6.51-.64 12.88-1.43 19.22-.81 6.33-1.84 12.61-3.03 18.85l-.92 4.67-.95 4.65-.25 1.16-.15 1.03c-.09.68-.26 1.36-.24 2.05 0 .68-.12 1.38-.02 2.07l.07 1.04c.01.17.01.35.04.52l.1.52c.85 5.57 4.12 11.02 8.54 15.73-1.52-.6-2.95-1.43-4.31-2.38-.7-.45-1.32-1-1.98-1.52-.61-.57-1.26-1.12-1.82-1.75-2.33-2.45-4.24-5.48-5.3-8.9-.53-1.71-.86-3.5-.93-5.31-.11-.91-.02-1.81.04-2.71l.1-1.35.16-1.2c.21-1.6.48-3.18.72-4.76l.85-4.72c1.2-6.28 2.67-12.49 4.4-18.65 1.76-6.15 3.72-12.26 6.33-18.22Z"/><path class="ae" d="M1189.83 1501.34c4.5-9.61 13.92-15.22 22.79-13.99 4.37.8 8.54 2.76 11.88 6.06 1.75 1.48 3.11 3.58 4.55 5.4 1.24 2.14 2.4 4.32 3.32 6.69-1.99-.94-3.68-2.16-5.41-3.25-1.81-.89-3.44-2.07-5.17-2.85-3.41-1.73-6.8-2.87-10.22-3.4-3.43-.61-6.93-.17-10.54.69-3.62.95-7.28 2.54-11.2 4.66ZM1277.43 1510.45c5.6-9.5 17.76-14.85 29.4-13.35 5.74.94 11.26 3.02 15.72 6.43 2.33 1.53 4.17 3.68 6.12 5.56 1.68 2.19 3.27 4.41 4.55 6.81-2.63-1.01-4.89-2.28-7.18-3.42-2.39-.95-4.56-2.18-6.85-3.02-4.51-1.84-8.98-3.08-13.48-3.71-4.51-.71-9.08-.38-13.77.37-4.71.84-9.44 2.33-14.52 4.33Z"/><path class="r" d="M1427.3 1391.58c-38.57-60.92-117.37-90-184.89-57.41-20.03 9.67-72.7 50.44-42.88 65.18 6.16 3.05 16.87-.71 23.87 1.52 9.49 3.03 16.85 11.49 25.41 16.33 15.64 8.82 28.4 11.87 45.68 4.48 17.58-7.52 35.63-21.05 55.83-17.03 14.85 2.96 25.92 15.11 35.38 26.94 5.33 6.67 15.29 7.35 23.78 8.18 8.49.83 17.74-1.97 22.84-8.82 8.42-11.31 2.53-27.47-5.02-39.38Z"/><path class="r" d="M1451.34 1428.26c17.01 15.42 25.16 39.21 24.11 62.14-1.65 36.01-25.55 67.62-44.2 96.98-15.39 24.23-32.9 48.91-58.76 61.37 7.91-15.42 10.25-33.21 9.45-50.53-.75-16.24-7.23-32.35-7.7-48.28-.4-13.56 6.95-27.69 11.78-40.09 5.92-15.21 10.56-32.56 3.96-47.49-3.92-8.86-11.43-15.82-14.95-24.85-15.73-40.45 61.75-22.45 76.3-9.26Z"/><path class="aa" d="M1415.85 1560.28c-12.15-27.48-38.09 3.47-38.09 3.47l-13.31 60.36c39.57-4.8 63.54-36.35 51.4-63.83Z"/><path class="h" d="M1378.41 1577.85s13.37-19.59 23.44-12.2c10.06 7.39 4.53 39.88-28.84 43.36l5.4-31.15Z"/><path class="r" d="M1255.11 1252.15c-18.41 24.27-25.39 56.85-18.55 86.53-19.56-1.48-36.78-18.44-38.57-37.96-13.69 18.72-16.16 45.04-6.2 65.98-10.66-5.7-18.96-15.64-22.68-27.14-9.37 36.35 2.09 77.33 28.96 103.55-5.17-5.04 28.66-43.42 32.81-47.47 14.81-14.47 38.08-20.12 51.74-33.4 17.44-16.96.49-28.02-10.14-45.93-11.47-19.32-17.82-41.63-17.38-64.15Z"/><ellipse class="aa" cx="852.16" cy="1283.05" rx="44.37" ry="27.01" transform="rotate(-12.29 852.102 1282.947)"/><path class="aa" transform="rotate(-12.29 879.415 1408.456)" d="M835.12 1280.11h88.75V1537h-88.75z"/><path class="h" d="m839.94 1305.08 54.02-5.57c5.01-.52 8.69-5.04 8.17-10.05l-11.27-109.31c-.52-5.01-5.04-8.69-10.05-8.17l-84.9 8.75c-5.01.52-17.98 10.44-17.46 15.45l8.09 78.43c.93 8.98 13.89 28.41 19.63 34.59 8.32 8.96 20.76-2.77 33.78-4.12Z"/><path class="aa" d="M793.93 1165.81c7.36-.67 13.94 4.8 14.62 12.16l8.01 87.39a13.3 13.3 0 0 1-1.96 8.28c-2.15 3.47-5.85 5.94-10.2 6.34-7.36.67-13.94-4.8-14.62-12.16l-8.01-87.39c-.41-4.49 1.46-8.69 4.66-11.44a13.29 13.29 0 0 1 7.5-3.18ZM817.46 1147.51c7.28-1.32 14.48 4.49 16 12.9l18.08 99.86c.62 3.44.21 6.8-1 9.66-1.75 4.15-5.15 7.25-9.46 8.03-7.28 1.32-14.48-4.49-16-12.9L807 1165.2c-.93-5.13.46-10.1 3.34-13.49 1.84-2.17 4.29-3.69 7.12-4.21ZM854.19 1144.2c7.36-.77 14.11 5.67 15.01 14.3l10.69 102.42c.37 3.53-.3 6.89-1.71 9.7-2.05 4.06-5.67 6.94-10.02 7.39-7.35.77-14.11-5.67-15.01-14.3l-10.69-102.42c-.55-5.26 1.2-10.18 4.32-13.39 1.99-2.05 4.55-3.4 7.42-3.7ZM892.44 1148.22c7.4-.02 13.47 6.02 13.49 13.44l.3 88.01c.01 3.03-.99 5.84-2.68 8.1-2.45 3.28-6.35 5.41-10.72 5.43-7.4.03-13.47-6.02-13.49-13.44l-.3-88.01c-.02-4.52 2.22-8.55 5.65-11.01a13.36 13.36 0 0 1 7.75-2.52Z"/><path class="ag" d="M907.65 1309.04c8.96-11.32 15.12-24.83 17.77-39.02.38-2.05.69-4.17.2-6.2-.42-1.75-1.41-3.3-2.45-4.77-11.65-16.58-30.27-26.89-49.12-34.33-7.79-3.08-15.96-5.8-24.34-5.53-8.37.26-17.07 4.05-21.21 11.33-1.41 2.47-2.25 5.42-1.53 8.17 1.38 5.27 7.52 7.52 12.87 8.56 13.8 2.68 28.86 3.01 40.19 11.33 1.15.84 2.37 2.18 1.84 3.51-.4 1.01-1.6 1.39-2.66 1.62-6.67 1.47-13.54 1.94-20.18 3.55-6.64 1.61-13.26 4.56-17.51 9.91-4.33 5.45-5.68 12.69-6.02 19.64-.3 6.19.1 12.52 2.33 18.31 5.37 13.97 20.89 22.25 35.85 22.4 13 .13 27.04-6.19 31.75-18.31l2.22-10.18Z"/><path class="i" d="m1215.83 1640.43 86.54-.74s3.27 44.66-41.48 45.13c-44.74.47-45.06-44.39-45.06-44.39Z"/><path class="ac" d="M1259.7 1651.37c-14.12.06-26.65 6.72-34.71 17.05 6.42 8.98 17.33 16.6 35.91 16.41 18-.19 28.22-7.53 34.02-16.23-8.14-10.52-20.89-17.28-35.22-17.22Z"/><ellipse class="aa" cx="1788.22" cy="1430.46" rx="35.41" ry="40.21" transform="rotate(-40.51 1788.145 1430.433)"/><path class="aa" transform="rotate(49.49 1660.175 1539.924)" d="M1619.94 1371.43h80.43v336.88h-80.43z"/><ellipse class="aa" cx="2307.63" cy="1412.79" rx="40.21" ry="32.79" transform="rotate(-23.52 2308.008 1412.932)"/><path class="aa" transform="rotate(-23.52 2370.255 1555.918)" d="M2329.66 1399.84h80.43v311.88h-80.43z"/><path class="aa" d="M2131.2 2663.9v368.09h-116.57l-49.16-379.31 165.73 11.22z"/><ellipse class="aa" cx="2070.79" cy="3026.52" rx="60.42" ry="61.87"/><path class="aa" d="m2010.37 3026.51 116.94 21.87-14.61 331.11c-.11 2.54-.49 5.03-1.1 7.44h.15l-2.5 64.9-73.58 3.35 1.14-67.59c-2.02-4.76-3.06-9.96-2.92-15.26l-23.52-345.83Z"/><path class="q" d="M2012.25 3054.17h114.81l-14.36 325.33c-.11 2.54-.49 5.03-1.1 7.44h.15l-2.5 64.9-73.58 3.35 1.14-67.59c-2.02-4.76-3.06-9.96-2.92-15.26l-21.64-318.17Z"/><path class="m" d="M2035.67 3455.2c.56-4.91 1.32-9.75 2.02-14.84 2.45 2.97 5.05 4.62 7.76 5.91 8.36 3.99 16.84 5.47 25.42 5.33 7.1-.12 13.83-2.03 20.08-6.36 4.2-2.9 7.77-6.98 11.22-11.34 2.21-2.79 4.48-5.5 7.3-7.06 1.02-.56 2.07-.82 3.12-.6 3.12-.6 32.91 23.09 32.91 23.09.36.06.74.32 1.14.74 5.67 3.66 11.14 7.43 16.74 10.63 14.54 8.29 29.56 12.2 44.77 14.17 6.84.89 13.68 1.73 20.51 2.74 3.25.48 8.11-3.9 11.16-1.79 2.76 1.91 4.62 4.88 5.17 9.26.41 3.24-1.74 11.46-2.81 14.14-1.87 4.69-4.69 8.01-7.8 10.85-7.07 6.47-15 10.26-23.17 13.28-9.09 3.36-18.4 5.36-27.84 6.59-11.63 1.51-23.33 1.84-35.11-.11-9.26-1.53-18.5-3.58-27.74-5.59-7.33-1.59-14.66-2.81-21.98-3.41-16.68.41-32.09.8-32.92.86-.94.06-2.28.03-3.38-.02-4.91-.23-9.68-.74-14.38-3-4.64-2.24-8-6.44-9.72-13.18-1.54-6.06-2.67-12.21-3.19-18.53-.88-10.76-.47-21.32.72-31.75Z"/><path class="l" d="M2034.64 3444.51c.56-4.91 1.32-9.75 2.02-14.84 2.45 2.97 5.05 4.62 7.76 5.91 8.36 3.98 16.84 5.47 25.42 5.33 7.1-.12 13.83-2.03 20.08-6.36 4.2-2.9 7.77-6.98 11.22-11.34 2.21-2.79 4.48-5.5 7.3-7.06 1.02-.56 2.07-.82 3.12-.6 3.12-.6 32.91 23.09 32.91 23.09.36.06.74.32 1.14.74 5.67 3.66 11.14 7.43 16.74 10.63 14.54 8.29 29.56 12.2 44.77 14.17 6.84.89 13.68 1.73 20.51 2.74 3.25.48 6.48 1.39 9.53 3.5 2.76 1.91 4.62 4.88 5.17 9.26.41 3.24-.11 6.17-1.18 8.85-1.87 4.69-4.69 8.01-7.8 10.85-7.07 6.47-15 10.26-23.17 13.28-9.09 3.36-18.4 5.36-27.84 6.59-11.63 1.51-23.33 1.84-35.11-.11-9.26-1.53-18.5-3.58-27.74-5.59-7.33-1.59-14.66-2.81-21.98-3.41-16.68.41-32.09.8-32.92.86-.94.06-2.28.03-3.38-.02-4.91-.23-9.68-.74-14.38-3-4.64-2.24-8-6.44-9.72-13.18-1.54-6.06-2.67-12.21-3.19-18.53-.88-10.76-.47-21.32.72-31.75Z"/><path class="e" d="M2162.35 3450.01c5.88 3.36 11.85 5.99 17.87 8.07-25.53 16.29-38.31 44.29-43.56 59.11-5.73-1.14-11.46-2.39-17.18-3.63-2.16-37.54 42.87-63.55 42.87-63.55ZM2126.04 3077.17h-112.22l-1.57-23h114.81l-1.02 23z"/><path class="aa" d="M1776.37 2663.9v368.09h116.57l49.16-379.31-165.73 11.22z"/><ellipse class="aa" cx="1836.79" cy="3026.52" rx="60.42" ry="61.87"/><ellipse class="aa" cx="1543.18" cy="1618.75" rx="45.14" ry="26.78" transform="rotate(-35.13 1543.156 1618.741)"/><path class="aa" transform="rotate(-35.13 1616.446 1722.923)" d="M1571.34 1595.55h90.28v254.78h-90.28z"/><ellipse class="y" cx="1774.88" cy="1938.48" rx="54.36" ry="43.87" transform="rotate(-35.13 1774.833 1938.449)"/><path class="y" d="m1819.33 1907.2-88.91 62.56-137.13-189.38 88.91-62.56 137.13 189.38z"/><path class="j" d="m1630.74 1832.11 86.52-65.88-35.06-48.41-88.91 62.56 37.45 51.73z"/><ellipse class="aa" cx="2445.28" cy="1712.65" rx="34.45" ry="45.14" transform="rotate(-26.08 2445.576 1712.766)"/><path class="aa" transform="rotate(63.92 2298.078 1784.558)" d="M2252.99 1620.84h90.28v327.69h-90.28z"/><ellipse class="y" cx="2089.85" cy="1894.92" rx="43.87" ry="54.36" transform="rotate(-26.08 2090.131 1895.078)"/><path class="y" d="m2113.75 1943.74-47.8-97.64 208.58-105.65 47.8 97.65-208.58 105.64z"/><path class="j" d="m2217.56 1769.31 51.45 95.79 53.32-27-47.8-97.65-56.97 28.86z"/><path class="k" d="M1868.74 1769.45s49.45-43.09 164.83 0c115.38 43.09 42.88 163.53 42.88 163.53l-238.77 12.75 31.07-176.28Z"/><path class="o" d="m1953.2 2495.89 183.51-37.63 24.6 279.69-194.27 13.95-13.84-256.01zM1934.21 2491.04l-180.32-27.63-10.65 280.54 198.86 15.91-7.89-268.82z"/><path class="o" d="M1762.12 2382.27h359.96c5.03 0 9.12 4.09 9.12 9.12v78.09c0 78.61-63.82 142.43-142.43 142.43h-93.34c-78.61 0-142.43-63.82-142.43-142.43v-78.09c0-5.03 4.09-9.12 9.12-9.12Z"/><path class="y" d="M1872.23 1776.43s55.23-42.59 143.26-8.88c88.03 33.7-110.31 134.94-110.31 134.94l-32.95-126.06Z"/><path class="aa" d="M1888.53 1665.12h110.73v173.78h-110.73z"/><path class="g" d="M1999.26 1665.12h-94.8c-4.15 2.76-8.24 5.81-12.28 9.17-1.24 1.03-2.45 2.08-3.65 3.14v107.3c.61.13 1.23.25 1.84.36 17.34 3.19 35.42 1.17 52.81-1.82 19.34-3.32 39.04-8.21 56.07-16.29v-101.86Z"/><path class="q" d="m2181.47 1822.58-146.26-45.21-13.95 34.08-83.78 26.04-65.24-26.04-3.49-42.01-175.26 53.14 63.82 481.34s-26.59 54.52-2.66 98.39c0 0 36.26 19.26 156.9 12.81v.49l6.37-.85c6.3-.38 12.82-.82 19.57-1.34 6.75.52 13.27.96 19.56 1.34l6.36.85v-.49c120.64 6.45 156.9-12.81 156.9-12.81 23.93-43.88-2.66-98.39-2.66-98.39l63.82-481.34Z"/><path class="u" d="M1842.17 1345.07c-20.47 12.58-36.81 32.02-46.28 54.22-21.27 49.84-10.64 128.58 26.22 169.33 10.57 11.69 25.55 21.57 40.87 18.6 11.49-2.22 20.58-11.24 27.29-21.01 22.43-32.65 24.94-75.13 23.49-114.97-.63-17.2-1.86-34.39-2.11-51.61-.21-14.75 10.9-44.53 3.51-57.7-8.6-15.34-38.39-11.27-51.52-6.9-7.54 2.51-14.73 5.9-21.47 10.04Z"/><path class="u" d="M1986.86 1316.97c28.35 9.05 51.45 33.03 59.44 61.7 17.74 1 29.73 18.46 36.26 34.98 10.9 27.56 14.65 57.91 10.79 87.3-1.79 13.65-5.33 27.39-13.03 38.81-9.7 14.4-25.43 24.02-42.11 28.82-35.43 10.19-75.2-.82-103.21-24.79-28.01-23.97-44.69-59.58-49.55-96.12-4.3-32.27-3.07-80.87 14.36-109.84 15.75-26.17 61.23-29.1 87.05-20.86Z"/><path class="u" d="M1851.02 1320.27c-22.45 8.11-40.47 23.11-54.63 39.75 24.36-16.47 59-21.69 88.73-13.36 7.31 2.05 14.39 4.86 22.03 5.72 7.64.86 16.28-.68 20.9-5.82 11.02-12.25-1.4-24.25-14.74-27.84-20.83-5.61-41.92-5.81-62.29 1.55Z"/><path class="aa" d="M2055.73 1466.78c-2.13-63.3-54.11-113.97-117.94-113.97s-115.8 50.67-117.94 113.97h-.08v144.27h.41c4.99 60.58 55.73 108.2 117.6 108.2s112.61-47.61 117.6-108.2h.41v-144.27h-.08Z"/><path class="aa" d="M2084.27 1544.82c-15.01-26.6-38.2 7.28-38.2 7.28l-7.5 62.4c39.57-8.77 60.71-43.07 45.7-69.67Z"/><path class="h" d="M2048.12 1566.31s11.6-21.15 22.51-14.67c10.91 6.48 8.53 39.91-24.9 46.73l2.39-32.06Z"/><path class="aa" d="M1786.94 1544.82c15.01-26.6 38.2 7.28 38.2 7.28l7.5 62.4c-39.57-8.77-60.71-43.07-45.7-69.67Z"/><path class="h" d="M1823.09 1566.31s-11.6-21.15-22.51-14.67c-10.91 6.48-8.53 39.91 24.9 46.73l-2.39-32.06Z"/><path class="g" d="M1936.82 1558.14c.62 6.59.62 13.1.45 19.59-.19 6.49-.62 12.95-1.21 19.38l-.47 4.82-.51 4.8-.14 1.2-.05 1.05c-.02.7-.13 1.4-.04 2.1.06.69.02 1.41.19 2.1l.17 1.05c.03.17.05.35.09.53l.15.51c1.41 5.56 5.26 10.75 10.19 15.07-1.6-.45-3.13-1.16-4.59-1.99-.76-.39-1.44-.88-2.16-1.35-.67-.52-1.38-1.01-2.02-1.59-2.6-2.25-4.83-5.12-6.25-8.48-.7-1.68-1.22-3.46-1.46-5.29-.2-.91-.2-1.83-.22-2.75l-.03-1.38.04-1.23c.05-1.64.17-3.26.26-4.89l.39-4.86c.6-6.47 1.47-12.91 2.61-19.31 1.17-6.4 2.55-12.77 4.6-19.06Z"/><path class="p" d="M1849.71 1507.52c4.73-10.17 16.51-16.78 28.43-16.41 5.9.38 11.7 1.94 16.55 4.96 2.51 1.32 4.59 3.32 6.74 5.02 1.92 2.05 3.74 4.14 5.28 6.44-2.76-.76-5.17-1.83-7.6-2.76-2.52-.73-4.83-1.76-7.23-2.38-4.74-1.41-9.39-2.23-14.01-2.43-4.63-.28-9.22.52-13.9 1.74-4.68 1.31-9.33 3.29-14.27 5.82ZM1956.12 1508.08c4.73-10.17 16.51-16.78 28.43-16.41 5.9.38 11.7 1.94 16.55 4.96 2.51 1.32 4.59 3.32 6.74 5.02 1.92 2.05 3.74 4.14 5.28 6.44-2.76-.76-5.17-1.83-7.6-2.76-2.52-.73-4.83-1.76-7.23-2.38-4.74-1.41-9.39-2.23-14.01-2.43-4.63-.28-9.22.52-13.9 1.74-4.68 1.31-9.33 3.29-14.27 5.82Z"/><path class="ab" d="M1849.71 1564.53c4.73-10.17 16.51-16.78 28.43-16.42 5.9.38 11.7 1.94 16.55 4.96 2.51 1.32 4.59 3.32 6.74 5.02 1.92 2.05 3.74 4.14 5.28 6.44-2.76-.76-5.17-1.83-7.6-2.76-2.52-.73-4.83-1.76-7.23-2.38-4.74-1.41-9.39-2.23-14.01-2.43-4.63-.28-9.22.52-13.9 1.74-4.68 1.31-9.33 3.29-14.27 5.82ZM1956.12 1565.09c4.73-10.17 16.51-16.78 28.43-16.41 5.9.38 11.7 1.94 16.55 4.96 2.51 1.32 4.59 3.32 6.74 5.02 1.92 2.05 3.74 4.14 5.28 6.44-2.76-.76-5.17-1.83-7.6-2.76-2.52-.73-4.83-1.76-7.23-2.38-4.74-1.41-9.39-2.23-14.01-2.43-4.63-.28-9.22.52-13.9 1.74-4.68 1.31-9.33 3.29-14.27 5.82Z"/><path class="u" d="M1881.8 1406.82c22.98-1.67 32.62 34.04 55.41 37.48 22.31 3.38 35.93-25.35 57.39-32.33 15.63-5.09 33.22 2.78 43.94 15.24 10.72 12.46 15.88 28.67 19.98 44.59 5.09-50.64-22.57-103.24-67.49-127.17-44.92-23.93-104.42-17.32-142.56 16.39-38.14 33.7-51.96 92.42-32.25 139.34-6.05-14.41 6.78-56.14 17.67-66.29 8.65-8.06 36.33-26.41 47.91-27.25Z"/><path class="j" d="M1868.74 1769.45s8.67 63.93 76.91 59.08c77.32-5.5 87.92-59.08 87.92-59.08l22.23 14.3s-42.69 69.74-110.16 69.72c-81.44-.03-95.94-78.24-95.94-78.24l19.03-5.77Z"/><path class="aa" d="m1897.2 3026.51-116.94 21.87 14.61 331.11c.11 2.54.49 5.03 1.1 7.44h-.15l2.5 64.9 73.58 3.35-1.14-67.59c2.02-4.76 3.06-9.96 2.92-15.26l23.52-345.83Z"/><path class="q" d="M1895.32 3054.17h-114.81l14.36 325.33c.11 2.54.49 5.03 1.1 7.44h-.15l2.5 64.9 73.58 3.35-1.14-67.59c2.02-4.76 3.06-9.96 2.92-15.26l21.64-318.17Z"/><path class="m" d="M1871.9 3455.2c-.56-4.91-1.32-9.75-2.02-14.84-2.45 2.97-5.05 4.62-7.76 5.91-8.36 3.99-16.84 5.47-25.42 5.33-7.1-.12-13.83-2.03-20.08-6.36-4.2-2.9-7.77-6.98-11.22-11.34-2.21-2.79-4.48-5.5-7.3-7.06-1.02-.56-2.07-.82-3.12-.6-3.12-.6-32.91 23.09-32.91 23.09-.36.06-.74.32-1.14.74-5.67 3.66-11.14 7.43-16.74 10.63-14.54 8.29-29.56 12.2-44.77 14.17-6.84.89-13.68 1.73-20.51 2.74-3.25.48-8.11-3.9-11.16-1.79-2.76 1.91-4.62 4.88-5.17 9.26-.41 3.24 1.74 11.46 2.81 14.14 1.87 4.69 4.69 8.01 7.8 10.85 7.07 6.47 15 10.26 23.17 13.28 9.09 3.36 18.4 5.36 27.84 6.59 11.63 1.51 23.33 1.84 35.11-.11 9.26-1.53 18.5-3.58 27.74-5.59 7.33-1.59 14.66-2.81 21.98-3.41 16.68.41 32.09.8 32.92.86.94.06 2.28.03 3.38-.02 4.91-.23 9.68-.74 14.38-3 4.64-2.24 8-6.44 9.72-13.18 1.54-6.06 2.67-12.21 3.19-18.53.88-10.76.47-21.32-.72-31.75Z"/><path class="l" d="M1872.93 3444.51c-.56-4.91-1.32-9.75-2.02-14.84-2.45 2.97-5.05 4.62-7.76 5.91-8.36 3.98-16.84 5.47-25.42 5.33-7.1-.12-13.83-2.03-20.08-6.36-4.2-2.9-7.77-6.98-11.22-11.34-2.21-2.79-4.48-5.5-7.3-7.06-1.02-.56-2.07-.82-3.12-.6-3.12-.6-32.91 23.09-32.91 23.09-.36.06-.74.32-1.14.74-5.67 3.66-11.14 7.43-16.74 10.63-14.54 8.29-29.56 12.2-44.77 14.17-6.84.89-13.68 1.73-20.51 2.74-3.25.48-6.48 1.39-9.53 3.5-2.76 1.91-4.62 4.88-5.17 9.26-.41 3.24.11 6.17 1.18 8.85 1.87 4.69 4.69 8.01 7.8 10.85 7.07 6.47 15 10.26 23.17 13.28 9.09 3.36 18.4 5.36 27.84 6.59 11.63 1.51 23.33 1.84 35.11-.11 9.26-1.53 18.5-3.58 27.74-5.59 7.33-1.59 14.66-2.81 21.98-3.41 16.68.41 32.09.8 32.92.86.94.06 2.28.03 3.38-.02 4.91-.23 9.68-.74 14.38-3 4.64-2.24 8-6.44 9.72-13.18 1.54-6.06 2.67-12.21 3.19-18.53.88-10.76.47-21.32-.72-31.75Z"/><path class="e" d="M1745.22 3450.01c-5.88 3.36-11.85 5.99-17.87 8.07 25.53 16.29 38.31 44.29 43.56 59.11 5.73-1.14 11.46-2.39 17.18-3.63 2.16-37.54-42.87-63.55-42.87-63.55ZM1781.53 3077.17h112.23l1.56-23h-114.81l1.02 23z"/><path class="u" d="M1864.4 1442c25.15 20.09 56.22 32.66 88.26 35.73-3.71-5.46-7.42-10.91-11.12-16.37 14.59 6.36 29.18 12.72 43.78 19.08-3.74-8.05-7.47-16.1-11.21-24.15a233.939 233.939 0 0 1 69.48 38.7c-1.99-12.06-3.99-24.12-5.98-36.18 8.46 6.08 16.92 12.16 25.37 18.24-3.84-20.34-7.71-40.81-15.01-60.18-7.3-19.37-18.27-37.8-34.24-50.97-18.31-15.1-42.07-22.37-65.71-24.47-23.56-2.09-47.95.77-69.15 11.26-18.31 9.06-34 24.64-43.81 42.55-3.79 6.92-6.25 14.65-5.33 22.61 1.02 8.89 5.85 16.84 11.35 23.69 7.13 8.9 17.27 17.27 28.18 21.09-1.08-6.9-3.23-13.82-4.85-20.63Z"/><path class="u" d="M1751.11 1478.52a207.715 207.715 0 0 1 25.37-32.8c.51 27.86 7.31 55.59 19.75 80.53-5.03-37.72.64-76.81 16.17-111.55 6.54-14.63 14.76-28.43 23.29-41.96 2.38-3.78 5.32-7.54 7.28-11.53-3.54-2.06-9.37-4.65-13.62-4.09-4.84.63-9.29 4.6-13.08 7.4a160.268 160.268 0 0 0-24.13 21.99 165.581 165.581 0 0 0-19.38 26.51c-5.54 9.4-10.15 19.34-13.73 29.65-3.57 10.3-6.1 20.96-7.46 31.78-.17 1.36-.32 2.72-.46 4.09ZM2043.75 1321.56c14.83 1.43 29.14 6.15 43.11 11.35-24.03-5.43-50.59 2.13-68.17 19.4 14.14 6.9 23.26 22.91 22 38.59 15.06-.76 29.81 5.44 41.97 14.36 12.16 8.92 22.1 20.46 31.93 31.89-6.83-4.7-14.17-8.66-21.84-11.81 13.02 19.03 20.32 41.92 20.73 64.97-4.07-5.22-8.14-10.45-12.22-15.67-5.16 13.76-10.32 27.52-15.49 41.29-8.49-33-20.5-67.44-47.26-88.54-12.29-9.69-27.26-16.15-37.62-27.88-11.05-12.5-14.93-30.45-11.43-46.61 1.39-6.44 3.87-13.69 7.61-19.19 3.14-4.61 8.17-6.68 13.26-8.44 10.76-3.71 22.09-4.78 33.4-3.7Z"/><path class="p" d="M1936.81 1719.23c-.17-4.6-.65-9.18-1.47-13.71-20.12.03-39.36-8.4-56.47-18.98-8.33-5.15-16.45-10.97-22.41-18.74-5.06-6.6-8.37-14.35-11.36-22.11-.61-1.57-1.2-3.15-1.79-4.72a380.247 380.247 0 0 1-19.82-77.81c-.2-1.36-1.44-8.17-3.72-9.62v57.5h.41c4.96 60.26 55.2 107.69 116.62 108.19Z"/><path class="p" d="M2055.71 1570.38c-.32-1.35-.69-2.68-1.01-3.93-.83-3.34-1.85-6.63-3.05-9.85-3.35 25.66-6.78 51.66-16.55 75.63-5.29 12.98-12.58 25.26-22.05 35.63-4.7 5.15-9.94 9.81-15.7 13.74a80.211 80.211 0 0 1-8.98 5.31c-3.22 1.62-6.17 3.58-9.37 5.29-14.29 7.65-30.08 13.3-46.46 13.34h-.24c-.81 4.46-1.29 8.98-1.46 13.51 2.3.13 4.62.21 6.96.21 61.87 0 112.61-47.61 117.6-108.2h.41v-23.56c0-2.85-.32-5.9.14-8.73.16-.95.48-1.85.5-2.82.05-1.79-.3-3.7-.74-5.56Z"/><path class="p" d="M1919.96 1689.16c10.96 1.61 22.03-.97 33.03-2.3.62-.07 1.27-.14 1.83.12 1.08.49 1.36 1.87 1.49 3.04.58 4.95 1.15 9.9 1.73 14.86.03.27.06.56-.08.8-.15.27-.46.39-.75.49-6.61 2.27-13.71 1.86-20.59 1.76-3.48-.05-6.97-.04-10.43.42-1.38.18-2.98 1.04-3.51-.52-.58-1.72-.57-3.89-.83-5.68-.63-4.33-1.26-8.65-1.9-12.98Z"/><path class="p" d="M1886.95 1651.02c.17-1.71.39-3.5 1.39-4.89.96-1.34 2.49-2.12 3.99-2.79 10.94-4.82 23.14-5.79 35.09-6.34 17.45-.8 34.93-.84 52.38-.12 2.27.09 4.67.24 6.55 1.53 2.75 1.88 3.5 5.54 3.98 8.84a442.02 442.02 0 0 1 4.34 45.51c1.95.8 4.24-.59 5.18-2.48s.88-4.09.79-6.19c-.57-13.9-1.35-27.79-2.33-41.67-.26-3.71-.62-7.64-2.86-10.61-1.88-2.5-4.84-3.95-7.81-4.95-12.73-4.29-26.6-1.82-39.94-.27a277.599 277.599 0 0 1-35.42 1.85c-7.6-.09-15.69-.36-22.18 3.59-10.3 6.27-12.27 20.24-12.23 32.29.02 5.66.23 11.32.65 16.97.21 2.88.4 5.78.81 8.64.22 1.55.53 4.95 2.31 5.56 1.39.48 2.86-.88 3.61-1.89 1.35-1.8 1.22-3.58 1.08-5.72-.37-5.76-.52-11.53-.45-17.3.08-6.53.44-13.07 1.09-19.57Z"/><path class="ag" d="M1904.49 1381.97c-4.37 9.39-7.04 19.61-7.85 30.03-.21 2.69-.43 5.69-2.41 7.46-5.31 4.74-14.1-5.2-20.35-1.81 1.89 5.61 3.44 12.74-.88 16.6-1.49 1.33-3.45 1.98-5.35 2.6-4.62 1.5-9.25 3-13.87 4.5-.71 3.64-1.41 7.28-2.12 10.91-8.14 4.51-18.58 4.58-26.95.17-13.3-7.01-19.6-23.11-31.8-31.97-5.15-3.74-11.16-6.03-16.51-9.47-5.35-3.44-10.27-8.56-11.03-14.89-.85-7.02 3.49-13.33 6.1-19.81 4.85-12.01 5.06-25.29 17.44-32.11 8.32-4.58 24.05-5.53 33.65-4.42 29.15 3.37 57.43 27.27 81.93 42.21Z"/><path class="af" d="m1985.19 1346.36-49.2-57.59c-11.43-13.38-9.85-33.5 3.53-44.93l34.77-29.7 90.61 106.05-34.77 29.7a31.706 31.706 0 0 1-20.5 7.64c-9.06.05-18.08-3.74-24.43-11.17ZM1881.55 1151.81c-35.02-40.99-30.16-102.82 10.83-137.83 40.99-35.02 102.82-30.16 137.83 10.83 35.02 40.99 30.16 102.82-10.83 137.83-40.99 35.02-102.82 30.16-137.84-10.82Zm128.76-110.01c-25.64-30.01-70.92-33.57-100.93-7.93-30.01 25.64-33.57 70.92-7.93 100.93 25.64 30.01 70.92 33.57 100.93 7.93 30.01-25.64 33.57-70.92 7.93-100.93ZM2111.36 1420.81c-35.02-40.99-30.16-102.82 10.83-137.83 40.99-35.02 102.82-30.16 137.83 10.83 35.02 40.99 30.16 102.82-10.83 137.83s-102.82 30.16-137.84-10.82Zm128.76-110.01c-25.64-30.01-70.92-33.57-100.93-7.93-30.01 25.64-33.57 70.92-7.93 100.93 25.64 30.01 70.92 33.57 100.93 7.93 30.01-25.64 33.57-70.92 7.93-100.93Z"/><path class="af" d="M2320.16 1298.7c-39.47-76.91-119.56-169.31-119.56-169.31l-6.76-7.91-.57-.66-6.76-7.91s-78.77-93.53-148.57-144.53c0 0-161.39 132.39-26.58 301.01l-.15.12c1.24 1.45 2.48 2.83 3.73 4.23 1.2 1.45 2.36 2.89 3.6 4.34l.14-.13c145.5 159.48 301.47 20.74 301.47 20.74Z"/><path d="M2312.36 1324c-42.05-81.93-127.36-180.36-127.36-180.36l-7.2-8.42-.6-.71-7.2-8.42s-83.9-99.63-158.26-153.96c0 0-171.92 141.03-28.32 320.64l-.16.13c1.32 1.55 2.65 3.01 3.97 4.51 1.27 1.54 2.51 3.08 3.83 4.63l.15-.14c155 169.89 321.13 22.09 321.13 22.09Z" style="fill:#f0c806"/><path class="af" transform="rotate(49.49 1819.929 1438.672)" d="M1797.27 1226.04h45.26v425.14h-45.26z"/><path class="aa" d="M1855.98 1337.72c2.57-2.05 5.67-4.22 8.92-3.4 1.54.39 2.84 1.4 4.05 2.42 12.03 10.11 21.21 23.52 26.18 38.25 1.6 4.75 2.78 9.81 1.83 14.67-.94 4.86-4.47 9.45-9.4 10.34-4.39.79-8.95-1.47-12.05-4.74-3.1-3.26-5-7.42-6.86-11.48-1.49-3.27-2.97-6.53-4.46-9.8-4.94 8.74-13.93 15.07-23.95 16.88-4.86.88-10.19.65-14.46-1.95-11.29-6.87-8.73-23.9.09-31.23 3.39-2.82 7.77-3.54 11.58-5.65 6.68-3.7 12.59-9.58 18.53-14.31ZM1819.56 1419c-4.22-2.32-9.53-4.24-13.64-1.73-3.14 1.91-4.45 5.91-4.35 9.58.22 7.99 5.71 14.74 10.92 20.81 4.88 5.67 9.76 11.34 14.63 17.02 3.74 4.34 7.66 8.83 12.93 11.07s12.29 1.48 15.51-3.26c11.99-17.64-24.11-46.94-36.01-53.48Z"/><path class="aa" d="M1854.4 1382.74c-4.65-1.24-10.27-1.84-13.66 1.57-2.59 2.61-2.91 6.8-1.94 10.34 2.12 7.71 9.06 12.95 15.58 17.59 6.09 4.34 12.18 8.69 18.28 13.03 4.66 3.33 9.55 6.74 15.2 7.66 5.65.92 12.29-1.5 14.28-6.87 7.43-20-34.62-39.82-47.74-43.33Z"/><path class="aa" d="M1837.95 1395.66c-2.78-1.46-5.93-2.84-8.96-2.01-5.74 1.59-6.59 9.45-5.19 15.23 3.26 13.46 32.73 53.17 49.44 34.9 15.59-17.04-24.42-42.41-35.29-48.13Z"/><path d="m1761.85 1678.46-196.21-229.66c38.01-32.48 95.16-27.99 127.63 10.03l78.61 92.01c17.46 20.44 24.24 46.41 20.86 71.1-2.9 21.23-13.31 41.52-30.89 56.53Z" style="fill:#fec400"/><path class="af" transform="rotate(49.49 1654.205 1570.033)" d="M1490.68 1556.43h327.01v27.1h-327.01z"/><path class="aa" d="M2255.84 1324.39c-7.54-4.71-17.19-4.69-25.58.09-2.22 1.26-4.8 2.56-8.3 4.44-2.52 1.36-5.35 2.87-6.45 5.6-2.96 7.33 9.25 11.87 7.87 19.56-5.97.51-13.29 2.01-15.7 7.97-.83 2.06-.87 4.3-.89 6.46l-.15 15.79c-3.29 2.26-6.57 4.52-9.86 6.78-1.89 10.06 5.77 14.63 12.53 21.11 10.75 10.29 23.56 15.6 35.76 24.01 5.15 3.55 9.17 8.58 14.08 12.45 4.92 3.87 11.32 6.6 17.65 4.66 7.01-2.15 11.77-9.18 17.22-14.57 10.09-9.98 22.81-15.86 25.63-31.15 1.9-10.27-1.93-26.4-5.89-35.52-9.75-22.45-36.55-34.35-57.93-47.69Z"/><path class="aa" d="M2141.16 1380.16c.94-4.92 6.48-8.04 12.32-6.92l69.25 13.2c2.38.45 4.46 1.55 6.02 3.02 2.26 2.13 3.44 5.04 2.88 7.95-.94 4.92-6.48 8.04-12.32 6.92l-69.25-13.2c-3.56-.68-6.44-2.78-7.93-5.43-.95-1.7-1.34-3.62-.97-5.54ZM2134.93 1336.04c2.38-5.57 9.86-7.75 16.63-4.86l80.32 34.32c2.76 1.18 5 3.03 6.51 5.19 2.19 3.13 2.88 6.89 1.47 10.19-2.38 5.57-9.86 7.75-16.63 4.86l-80.32-34.32c-4.13-1.76-7.08-5.03-8.21-8.57-.72-2.26-.7-4.64.22-6.81ZM2140.35 1310.73c2.36-5.53 9.24-7.93 15.3-5.35l71.8 30.68c2.47 1.06 4.44 2.79 5.74 4.84 1.88 2.98 2.37 6.64.97 9.91-2.36 5.53-9.24 7.93-15.3 5.35l-71.8-30.68c-3.69-1.58-6.25-4.66-7.15-8.08-.58-2.19-.47-4.51.45-6.67ZM2179.58 1290.73c2.8-4.71 8.95-6.26 13.66-3.46l55.88 33.28a9.955 9.955 0 0 1 4.11 4.78c1.14 2.8 1.01 6.09-.64 8.87-2.8 4.71-8.95 6.26-13.66 3.46l-55.88-33.28c-2.87-1.71-4.57-4.66-4.83-7.78-.16-1.99.27-4.04 1.36-5.88ZM2292.85 1385.41c-7.64-2.41-12.67-8.28-11.17-13.03l17.82-56.42c.61-1.94 2.22-3.41 4.44-4.3 3.2-1.29 7.67-1.38 12.19.05 7.64 2.41 12.67 8.28 11.17 13.03l-17.82 56.42c-.92 2.9-4.06 4.74-8.1 5.19-2.59.29-5.54 0-8.52-.94Z"/><path class="i" d="m1894.5 1643.02 86.54-.38s3.08 44.67-41.66 44.96c-44.74.29-44.88-44.58-44.88-44.58Z"/><path class="ac" d="M1938.32 1654.14c-14.12 0-26.68 6.61-34.78 16.9 6.38 9.01 17.26 16.67 35.84 16.55 18-.12 28.25-7.41 34.09-16.09-8.09-10.55-20.82-17.37-35.15-17.37Z"/><path class="f" d="M1158.66 764.66a5.745 5.745 0 1 0-7.6 8.62c5.44 4.8 8.9 11.75 9.7 18.97a30.647 30.647 0 0 0-3.72-3.66c-7.08-5.89-16.33-7.48-23.57-4-7.23 3.45-11.81 11.58-11.66 20.72.13 7.63 3.26 14.45 6.3 20.13 1.16 2.16 3.57 6.65 8.39 8.34 4.27 1.5 8.32.17 11.01-.96 5.91-2.5 11.18-6.51 15.32-11.46.73 2.44 1.24 4.92 1.41 7.4.4 5.62-.91 11.66-3.96 18.27-1.19-2.59-4.37-8.97-10.86-11.12-5.28-1.75-10.56.04-13.4 1-6.52 2.21-13.94 5.22-19.6 10.84-6.79 6.76-9.42 16.23-6.69 24.13 4.23 12.25 19.08 16.54 30.29 12.86 5.53-1.81 10.15-5.09 13.99-8.77-1.28 16.58-10.38 32.71-24.93 41.04-2.75 1.58-3.71 5.09-2.13 7.84a5.746 5.746 0 0 0 7.84 2.13c22.05-12.63 33.9-39.83 30.08-64.66 8.04-12.46 11.58-23.73 10.83-34.39-.49-7.02-2.83-13.49-5.51-19.48a38.87 38.87 0 0 0 1.71-6.65c2.21-13.51-3-28.09-13.26-37.15Zm-5.97 95.17c-3.75 5.26-9.23 11.68-16.24 13.98-5.77 1.89-13.94-.18-15.85-5.69-1.26-3.65.36-8.68 3.93-12.23 2.43-2.42 5.49-4.21 8.77-5.66 2.08-.92 4.25-1.71 6.4-2.44 2.33-.79 4.68-1.45 6.1-.98 1.37.45 2.78 2.25 4.19 5.34 1.13 2.49 2.03 5.06 2.69 7.68Zm-9.64-37.62c-2.08.88-2.7.71-2.72.7-.19-.07-.77-.5-2.08-2.94-2.39-4.45-4.85-9.71-4.93-14.88-.07-4.5 2.03-8.68 5.11-10.15.05-.02.1-.05.15-.07 3.1-1.38 7.64-.35 11.12 2.54 3.46 2.88 5.92 7.15 7.93 11.25-3.16 5.98-8.29 10.91-14.57 13.55Z"/><path class="a`" d="M945.53 701.13c.85-3.06-.95-6.22-4-7.07-3.06-.85-6.23.94-7.07 4-1.94 6.99-6.68 13.14-12.81 17.02.68-1.59 1.25-3.23 1.67-4.94 2.2-8.94-.42-17.96-6.71-22.94-6.27-4.99-15.58-5.55-23.73-1.42-6.81 3.45-11.57 9.25-15.34 14.47-1.43 1.99-4.41 6.12-3.83 11.2.52 4.49 3.48 7.56 5.67 9.48 4.83 4.22 10.74 7.21 17.01 8.76-1.88 1.72-3.88 3.27-6.03 4.51-4.88 2.82-10.88 4.28-18.16 4.43 1.81-2.21 6.15-7.85 5.25-14.63-.74-5.51-4.66-9.48-6.76-11.61-4.84-4.9-10.79-10.26-18.32-12.88-9.05-3.15-18.72-1.37-24.63 4.54-9.17 9.16-6.53 24.39 1.69 32.87 4.04 4.18 9.01 6.91 14 8.75-15.47 6.1-33.95 4.98-47.81-4.47a5.74 5.74 0 0 0-7.98 1.51c-1.67 2.46-1.19 5.75 1.04 7.62.15.13.31.25.47.36 21 14.31 50.64 13.06 71.3-1.24 14.72 1.78 26.4.04 35.66-5.3 6.09-3.51 10.89-8.45 15.11-13.47 2.28-.26 4.53-.71 6.72-1.37 13.12-3.92 23.95-14.98 27.61-28.18Zm-88.2 36.27c-6.37-1.07-14.54-3.19-19.68-8.49-4.22-4.36-5.94-12.62-1.81-16.74 2.73-2.73 7.96-3.47 12.72-1.81 3.24 1.13 6.19 3.1 8.93 5.41 1.74 1.47 3.4 3.08 5 4.69 1.73 1.75 3.35 3.57 3.55 5.06.19 1.43-.81 3.49-2.97 6.1a44.713 44.713 0 0 1-5.73 5.78Zm29.61-25.12c-1.7-1.49-1.82-2.12-1.82-2.14-.02-.2.11-.92 1.73-3.16 2.96-4.1 6.61-8.6 11.22-10.95 4.02-2.04 8.69-1.97 11.36.16.04.04.09.07.13.11 2.6 2.19 3.66 6.72 2.58 11.11-1.07 4.37-3.84 8.45-6.65 12.05-6.76-.22-13.44-2.68-18.56-7.18Z"/><path class="v" d="M745.91 1059.89a38.68 38.68 0 0 0 6.08 3.19c2.65 6 5.88 12.08 10.75 17.15 7.4 7.71 18.14 12.64 32.77 15.03 15.85 19.49 43.97 28.95 68.13 21.06.19-.06.38-.13.56-.21a5.751 5.751 0 0 0 3.13-7.03 5.741 5.741 0 0 0-7.25-3.68c-15.95 5.2-34.01 1.14-47.16-9.04 5.3-.38 10.84-1.61 15.89-4.5 10.25-5.85 17.03-19.74 10.78-31.09-4.03-7.32-12.82-11.73-22.39-11.23-7.96.42-15.18 3.9-21.19 7.26-2.62 1.46-7.49 4.18-9.73 9.27-2.76 6.26-.16 12.89.96 15.51-6.95-2.17-12.3-5.25-16.21-9.32-1.72-1.79-3.21-3.83-4.54-6.01 6.45.25 12.96-.97 18.78-3.67 2.64-1.23 6.34-3.35 8.09-7.52 1.98-4.72.26-9.52-.56-11.82-2.16-6.06-5.13-12.96-10.7-18.17-6.67-6.24-15.77-8.3-23.18-5.25-7.43 3.03-12.46 10.96-12.84 20.16-.07 1.76.01 3.5.22 5.21-4.81-5.44-7.65-12.67-7.56-19.92a5.751 5.751 0 0 0-11.5-.14c-.17 13.69 7.16 27.33 18.66 34.76Zm52.04 17.51c-1.35-3.12-1.74-5.37-1.15-6.69.61-1.37 2.67-2.67 4.82-3.87 1.98-1.11 4.02-2.19 6.11-3.11 3.28-1.45 6.66-2.52 10.08-2.7 5.04-.27 9.85 1.91 11.71 5.29 2.81 5.11-1.14 12.57-6.41 15.57-6.41 3.66-14.84 3.41-21.26 2.67-1.5-2.25-2.81-4.64-3.89-7.15Zm-37.36-23.51c-1.69-4.24-3.21-8.93-3.02-13.43.19-4.51 2.47-8.57 5.57-9.95.05-.02.1-.04.15-.07 3.16-1.3 7.67-.06 10.96 3.02 3.78 3.54 6.03 8.88 7.73 13.64.93 2.61.86 3.33.78 3.52 0 .02-.3.59-2.35 1.55-6.17 2.89-13.27 3.39-19.82 1.72Z"/><path class="x" d="M1553.73 870.6a38.91 38.91 0 0 0 4.66-5.03c6.49-1 13.19-2.53 19.36-5.91 9.37-5.14 16.93-14.22 23.05-27.72 22.95-10.22 39.41-34.91 38.09-60.29a5.753 5.753 0 0 0-6.04-5.44 5.742 5.742 0 0 0-5.44 6.04c.87 16.75-7.77 33.13-21.02 43.18 1.02-5.22 1.27-10.88-.2-16.51-2.98-11.42-14.62-21.59-27.21-18.51-8.12 1.98-14.67 9.32-16.67 18.69-1.67 7.8-.19 15.67 1.49 22.35.73 2.91 2.09 8.32 6.41 11.81 5.32 4.3 12.4 3.52 15.23 3.12-3.9 6.14-8.28 10.51-13.22 13.22-2.18 1.2-4.54 2.1-6.99 2.81 1.92-6.16 2.44-12.76 1.34-19.09-.5-2.87-1.58-7-5.15-9.77-4.04-3.14-9.12-2.73-11.56-2.54-6.42.51-13.85 1.57-20.33 5.6-7.76 4.81-12.13 13.06-11.11 21.01.99 7.96 7.34 14.88 16.12 17.65 1.68.53 3.38.9 5.09 1.14-6.5 3.23-14.22 4.08-21.2 2.11-3.05-.86-6.23.91-7.09 3.96-.86 3.05.91 6.23 3.96 7.09 13.17 3.73 28.25.21 38.42-8.96Zm30.47-45.68c-3.36.49-5.64.28-6.76-.63-1.17-.94-1.88-3.28-2.48-5.66-.55-2.2-1.06-4.45-1.41-6.71-.55-3.54-.7-7.09.02-10.44 1.06-4.93 4.41-9.01 8.16-9.93 5.66-1.38 11.84 4.37 13.36 10.24 1.86 7.14-.57 15.22-2.97 21.22-2.57.86-5.21 1.5-7.92 1.89Zm-32.44 29.95c-4.54.53-9.46.77-13.75-.58-4.31-1.36-7.63-4.62-8.15-7.97 0-.06-.02-.11-.02-.17-.43-3.39 1.94-7.42 5.77-9.79 4.4-2.73 10.14-3.5 15.18-3.9 2.76-.22 3.44.04 3.6.16.02.01.49.45.88 2.67 1.18 6.71-.18 13.7-3.51 19.59Z"/><path class="a`" transform="rotate(-68.94 702.857 1289.651)" d="M690.42 1253.32h25.05v72.75h-25.05z"/><path class="x" transform="rotate(6.06 907.188 898.652)" d="M893.98 861.51h25.05v72.75h-25.05z"/><path class="s" transform="rotate(-83.94 1182.806 637.661)" d="M1170.35 601.27h25.05v72.75h-25.05z"/><path class="n" transform="rotate(96.06 1376.175 910.892)" d="M1363.64 889.95h25.05v41.73h-25.05z"/><path class="f" d="M2992.86 842.65c.88-3.05-.87-6.24-3.92-7.12-3.05-.88-6.24.87-7.12 3.92-2.02 6.96-6.84 13.06-13.02 16.87.7-1.58 1.29-3.22 1.73-4.92 2.3-8.91-.2-17.96-6.43-23.02-6.21-5.07-15.51-5.74-23.71-1.7-6.85 3.37-11.68 9.11-15.52 14.28-1.46 1.97-4.49 6.06-3.97 11.15.46 4.5 3.39 7.6 5.56 9.55 4.78 4.28 10.66 7.34 16.9 8.97-1.9 1.7-3.92 3.22-6.09 4.43-4.91 2.76-10.93 4.15-18.21 4.21 1.83-2.18 6.25-7.78 5.42-14.57-.67-5.52-4.54-9.53-6.62-11.69-4.78-4.96-10.67-10.38-18.17-13.1-9.01-3.26-18.7-1.6-24.68 4.24-9.28 9.05-6.82 24.31 1.29 32.89 3.99 4.23 8.93 7.01 13.9 8.92-15.54 5.92-34.01 4.57-47.75-5.04a5.744 5.744 0 0 0-8 1.42 5.757 5.757 0 0 0 .95 7.64c.15.13.3.25.47.37 20.83 14.56 50.48 13.67 71.31-.37 14.69 1.95 26.4.35 35.72-4.87 6.14-3.44 10.99-8.31 15.27-13.29 2.28-.23 4.54-.66 6.74-1.29 13.16-3.76 24.13-14.69 27.95-27.84Zm-88.63 35.2c-6.36-1.15-14.5-3.36-19.58-8.73-4.17-4.41-5.78-12.69-1.61-16.76 2.76-2.69 8-3.38 12.74-1.66 3.22 1.17 6.15 3.17 8.86 5.52 1.73 1.49 3.36 3.12 4.94 4.75 1.7 1.77 3.31 3.61 3.49 5.1.18 1.44-.85 3.48-3.05 6.07a45.325 45.325 0 0 1-5.8 5.71Zm29.91-24.76c-1.68-1.51-1.8-2.14-1.8-2.16-.02-.2.12-.92 1.77-3.14 3.01-4.06 6.71-8.52 11.36-10.81 4.04-1.99 8.71-1.87 11.36.29.04.04.09.07.13.11 2.57 2.22 3.58 6.77 2.45 11.14-1.13 4.36-3.94 8.41-6.79 11.97-6.76-.3-13.4-2.84-18.47-7.4Z"/><path class="a`" d="M2959.4 622.78a5.746 5.746 0 0 0 4.69-6.64 5.746 5.746 0 0 0-6.64-4.69c-7.15 1.23-14.73-.43-20.86-4.33 1.72-.06 3.46-.25 5.18-.6 9.02-1.83 16.06-8.04 17.89-15.85 1.84-7.8-1.62-16.46-8.84-22.07-6.03-4.68-13.3-6.52-19.63-7.71-2.41-.45-7.42-1.38-11.76 1.31-3.84 2.38-5.35 6.38-6.15 9.17-1.76 6.17-1.94 12.79-.67 19.12-2.36-.97-4.61-2.12-6.65-3.53-4.63-3.21-8.52-8.01-11.75-14.54 2.77.69 9.72 2.21 15.47-1.5 4.67-3.02 6.59-8.26 7.62-11.07 2.37-6.46 4.67-14.14 3.83-22.07-1.01-9.53-6.75-17.51-14.61-20.34-12.2-4.38-24.85 4.5-29.01 15.55-2.06 5.44-2.4 11.1-1.94 16.4-12.12-11.39-18.98-28.58-16.35-45.15.5-3.13-1.64-6.08-4.78-6.58a5.734 5.734 0 0 0-6.57 4.77c-3.98 25.1 9.79 51.38 31.53 63.96 4.67 14.07 11.23 23.9 20.01 29.99 5.78 4.01 12.28 6.25 18.63 7.92a38.59 38.59 0 0 0 4.11 5.5c9.14 10.19 23.77 15.27 37.26 12.95Zm-70.42-64.3c-1.75-6.22-3.32-14.51-.72-21.42 2.14-5.68 8.88-10.75 14.37-8.78 3.63 1.3 6.54 5.72 7.07 10.73.36 3.41-.16 6.92-1.08 10.38-.59 2.2-1.33 4.39-2.11 6.52-.84 2.31-1.8 4.55-3.06 5.37-1.21.79-3.5.76-6.79-.09-2.65-.68-5.21-1.59-7.67-2.72Zm35.35 16.06c.62-2.17 1.14-2.55 1.16-2.56.18-.1.88-.29 3.6.22 4.97.93 10.6 2.31 14.69 5.48 3.56 2.76 5.49 7.02 4.71 10.35-.01.05-.03.11-.04.16-.87 3.28-4.52 6.17-8.95 7.07-4.41.89-9.28.14-13.74-.87-2.68-6.21-3.31-13.3-1.42-19.85Z"/><path class="v" d="M2549.77 595.26c-.3 2.27-.4 4.57-.3 6.86-4.3 4.96-8.41 10.47-10.92 17.04-3.81 9.98-3.69 21.8.38 36.05-10.87 22.65-7.43 52.12 10.01 70.61a5.744 5.744 0 0 0 8.36-7.88c-11.51-12.2-15.53-30.28-11.94-46.51 2.6 4.64 6.08 9.12 10.84 12.45 9.66 6.78 25.12 6.98 32.72-3.51 4.91-6.77 5.14-16.6.61-25.04-3.78-7.02-10-12.06-15.6-16.07-2.44-1.74-6.98-4.99-12.53-4.85-6.84.17-11.73 5.35-13.62 7.48-1-7.21-.5-13.37 1.51-18.63.89-2.32 2.1-4.54 3.5-6.67 2.52 5.94 6.4 11.31 11.33 15.41 2.24 1.86 5.73 4.31 10.25 4.11 5.11-.22 8.72-3.82 10.46-5.55 4.56-4.54 9.53-10.17 11.87-17.43 2.8-8.7.78-17.81-5.14-23.21-5.91-5.42-15.23-6.59-23.71-3.01a32.72 32.72 0 0 0-4.62 2.43c2.87-6.67 8.2-12.32 14.79-15.33a5.74 5.74 0 0 0 2.84-7.61c-1.32-2.88-4.73-4.16-7.61-2.84-12.45 5.69-21.67 18.13-23.48 31.7Zm6.36 54.53c2.24-2.55 4.11-3.86 5.56-3.9 1.5-.04 3.56 1.28 5.55 2.71 1.85 1.32 3.69 2.71 5.42 4.2 2.71 2.34 5.12 4.95 6.75 7.97 2.39 4.44 2.48 9.72.21 12.85-3.42 4.72-11.85 4.33-16.82.85-6.04-4.24-9.42-11.97-11.48-18.1 1.4-2.32 3-4.52 4.81-6.57Zm5.33-43.82c3.11-3.34 6.71-6.71 10.86-8.46 4.16-1.75 8.81-1.42 11.38.8.04.04.08.07.13.11 2.52 2.31 3.32 6.91 1.94 11.2-1.59 4.93-5.46 9.24-9.04 12.81-1.96 1.95-2.65 2.2-2.85 2.21-.02 0-.66-.02-2.4-1.47-5.25-4.35-8.73-10.56-10.01-17.2Z"/><path class="x" d="M3065.55 1245.16c2.12.88 4.31 1.57 6.54 2.07 3.67 5.44 7.92 10.85 13.61 14.99 8.64 6.28 20.08 9.24 34.9 9.03 19.04 16.39 48.38 20.75 70.77 8.74a5.75 5.75 0 0 0 2.35-7.78 5.743 5.743 0 0 0-7.78-2.35c-14.78 7.93-33.28 7.11-48.02-.59 5.16-1.31 10.39-3.49 14.85-7.22 9.06-7.56 13.29-22.43 5.14-32.51-5.26-6.5-14.68-9.29-24.01-7.11-7.77 1.82-14.25 6.52-19.58 10.88-2.32 1.9-6.64 5.44-7.95 10.84-1.61 6.65 2.11 12.72 3.68 15.1-7.22-.91-13.04-3-17.59-6.32-2.01-1.46-3.84-3.21-5.53-5.12 6.39-.89 12.58-3.23 17.84-6.93 2.38-1.68 5.65-4.41 6.64-8.83 1.11-4.99-1.42-9.41-2.63-11.54-3.2-5.59-7.33-11.85-13.73-16-7.67-4.97-16.99-5.39-23.75-1.09-6.78 4.29-10.33 12.99-9.09 22.11.24 1.75.63 3.44 1.14 5.09-5.69-4.5-9.76-11.12-10.95-18.28a5.75 5.75 0 0 0-6.61-4.73 5.75 5.75 0 0 0-4.73 6.61c2.25 13.5 11.86 25.64 24.49 30.93Zm54.31 8.07c-1.88-2.83-2.66-4.98-2.31-6.38.35-1.46 2.16-3.1 4.06-4.66 1.76-1.44 3.58-2.86 5.46-4.14 2.97-2.01 6.11-3.66 9.45-4.44 4.91-1.15 10.03.14 12.46 3.14 3.67 4.53 1.09 12.57-3.56 16.46-5.67 4.73-14.01 5.97-20.46 6.37a45.396 45.396 0 0 1-5.09-6.35Zm-40.92-16.56c-2.41-3.88-4.73-8.22-5.34-12.69-.61-4.48.92-8.87 3.73-10.78.05-.03.09-.06.14-.09 2.88-1.84 7.54-1.41 11.32 1.04 4.34 2.82 7.5 7.68 10.01 12.07 1.37 2.4 1.43 3.13 1.39 3.33 0 .02-.19.64-2.04 1.94-5.57 3.93-12.47 5.67-19.21 5.18Z"/><path class="a`" transform="rotate(-4.18 2326.072 655.06)" d="M2311.06 618.05h25.05v72.75h-25.05z"/><path class="x" transform="rotate(70.82 2764.674 671.265)" d="M2752.27 635.04h25.05v72.75h-25.05z"/><path class="s" transform="rotate(-19.18 3118.776 810.44)" d="M3105.54 774h25.05v72.75h-25.05z"/><path class="n" transform="rotate(160.81 2953.41 1101.848)" d="M2940.91 1080.85h25.05v41.73h-25.05z"/><path class="f" d="M1945.5 421.9a4.42 4.42 0 0 0-6.11-1.29 4.42 4.42 0 0 0-1.29 6.11c3.04 4.67 4.18 10.53 3.3 16.04-.57-1.2-1.23-2.36-2-3.47-4.04-5.81-10.57-8.88-16.64-7.79-6.06 1.08-11.12 6.16-12.88 12.96-1.47 5.68-.55 11.37.54 16.2.42 1.83 1.28 5.65 4.51 7.9 2.85 1.99 6.13 1.83 8.35 1.55 4.89-.64 9.62-2.53 13.69-5.35.04 1.96-.09 3.9-.47 5.77-.86 4.24-3.06 8.45-6.68 12.72-.35-2.16-1.4-7.54-5.77-10.46-3.55-2.38-7.83-2.13-10.13-2-5.28.3-11.4 1.01-16.74 4.02-6.42 3.62-10.3 10.09-9.9 16.51.63 9.94 10.75 16.16 19.81 15.73 4.47-.21 8.56-1.69 12.16-3.63-4.34 12.02-14.38 22.1-26.87 25.29-2.36.6-3.79 3.01-3.18 5.37.57 2.21 2.71 3.61 4.92 3.27.15-.02.3-.05.45-.09 18.92-4.84 33.27-22.56 35.52-41.73 8.5-7.58 13.44-15.2 15.07-23.25 1.07-5.3.66-10.57-.09-15.56a29.59 29.59 0 0 0 2.63-4.57c4.4-9.55 3.54-21.42-2.21-30.23Zm-23.91 69.27c-3.86 3.13-9.23 6.76-14.89 7.03-4.66.22-10.29-2.99-10.57-7.46-.19-2.96 2.04-6.35 5.42-8.25 2.3-1.29 4.93-1.99 7.66-2.4 1.73-.26 3.5-.4 5.24-.5 1.88-.11 3.76-.12 4.72.53.92.62 1.6 2.24 2.01 4.82.33 2.07.47 4.16.42 6.24Zm.56-29.84c-1.72.22-2.15-.03-2.16-.04-.13-.09-.47-.53-.94-2.6-.86-3.79-1.6-8.18-.61-12.03.87-3.35 3.28-6.01 5.87-6.47.04 0 .09-.01.13-.02 2.58-.38 5.73 1.31 7.72 4.16 1.98 2.84 2.92 6.51 3.57 9.96-3.56 3.78-8.37 6.38-13.57 7.05Z"/><path class="a`" d="M1800.65 331.19c1.25-2.09.57-4.8-1.52-6.06a4.417 4.417 0 0 0-6.06 1.52c-2.87 4.78-7.64 8.37-12.98 9.98.83-1.04 1.59-2.14 2.25-3.32 3.46-6.17 3.37-13.39-.27-18.37-3.62-4.98-10.4-7.3-17.29-5.91-5.75 1.16-10.47 4.48-14.33 7.57-1.47 1.18-4.52 3.63-5.13 7.51-.54 3.43 1.03 6.31 2.26 8.18 2.72 4.12 6.48 7.54 10.8 9.97-1.74.89-3.54 1.62-5.39 2.1-4.19 1.09-8.94.95-14.36-.44 1.79-1.26 6.16-4.56 6.88-9.76.58-4.23-1.51-7.97-2.63-9.99-2.58-4.62-5.89-9.81-10.94-13.29-6.06-4.19-13.58-4.85-19.17-1.68-8.67 4.91-9.83 16.73-5.48 24.69 2.14 3.93 5.26 6.96 8.58 9.35-12.71 1.35-26.16-3.27-34.5-13.1a4.409 4.409 0 0 0-6.22-.51c-1.74 1.48-2.06 4.02-.79 5.86.08.12.18.25.28.36 12.63 14.9 34.84 20.05 53.07 13.69 10.54 4.33 19.55 5.43 27.5 3.38 5.23-1.35 9.79-4.03 13.95-6.88 1.74.27 3.5.4 5.26.36 10.52-.22 20.81-6.19 26.22-15.22Zm-72.75 8.8c-4.5-2.1-10.12-5.34-12.84-10.32-2.24-4.09-1.81-10.56 2.09-12.77 2.58-1.46 6.61-.94 9.79 1.26 2.17 1.5 3.95 3.56 5.51 5.83.99 1.45 1.89 2.97 2.74 4.5.92 1.65 1.75 3.33 1.59 4.47-.15 1.1-1.31 2.42-3.45 3.91-1.72 1.2-3.54 2.24-5.43 3.11Zm27.08-12.55c-.95-1.45-.92-1.94-.91-1.96.03-.15.27-.66 1.93-1.99 3.03-2.43 6.66-5.02 10.56-5.81 3.39-.69 6.84.32 8.39 2.44.02.04.05.07.07.11 1.47 2.15 1.33 5.73-.36 8.76-1.69 3.02-4.57 5.48-7.39 7.57-4.96-1.55-9.4-4.74-12.28-9.12Z"/><path class="v" d="M1579.32 556.04c1.17 1.32 2.46 2.52 3.85 3.61.73 4.99 1.88 10.15 4.45 14.91 3.9 7.22 10.85 13.08 21.19 17.85 7.75 17.68 26.64 30.45 46.15 29.56.15 0 .31-.02.45-.04a4.429 4.429 0 0 0 3.76-4.57 4.415 4.415 0 0 0-4.61-4.21c-12.88.59-25.42-6.12-33.08-16.35 4.01.81 8.36 1.03 12.69-.08 8.79-2.23 16.66-11.13 14.36-20.82-1.48-6.25-7.09-11.31-14.28-12.9-5.99-1.32-12.04-.22-17.18 1.04-2.24.55-6.4 1.56-9.11 4.87-3.33 4.07-2.76 9.52-2.47 11.69-4.7-3.03-8.04-6.41-10.1-10.22-.91-1.68-1.59-3.5-2.13-5.38 4.72 1.51 9.79 1.94 14.66 1.12 2.21-.37 5.38-1.18 7.53-3.91 2.43-3.09 2.14-6.99 2.01-8.87-.36-4.93-1.14-10.65-4.2-15.65-3.66-5.99-9.98-9.38-16.1-8.64-6.12.73-11.47 5.57-13.64 12.31-.41 1.29-.71 2.6-.9 3.91-2.45-5.01-3.07-10.95-1.52-16.3.68-2.34-.67-4.79-3.01-5.47-2.34-.68-4.79.67-5.47 3.01-2.93 10.11-.3 21.71 6.7 29.57Zm34.96 23.63c-.36-2.58-.19-4.33.52-5.19.73-.89 2.53-1.43 4.36-1.88 1.69-.41 3.43-.8 5.16-1.05 2.72-.41 5.45-.51 8.02.06 3.78.83 6.91 3.43 7.59 6.32 1.04 4.36-3.42 9.07-7.94 10.22-5.5 1.4-11.69-.51-16.3-2.38-.65-1.98-1.13-4.01-1.42-6.09Zm-22.86-25.07c-.39-3.49-.55-7.27.51-10.57 1.06-3.3 3.59-5.84 6.17-6.23.04 0 .09-.01.13-.02 2.61-.32 5.69 1.53 7.5 4.48 2.08 3.39 2.65 7.81 2.93 11.69.15 2.12-.05 2.64-.14 2.77-.01.01-.35.38-2.06.67-5.17.88-10.52-.21-15.04-2.79Z"/><path class="x" d="M2216.43 581.28c1.58-.79 3.08-1.72 4.49-2.77 5.01.59 10.29.83 15.55-.42 7.99-1.89 15.45-7.07 22.75-15.81 19.09-2.87 36.34-17.78 40.56-36.85.03-.15.06-.3.08-.45.26-2.22-1.2-4.32-3.43-4.82-2.38-.53-4.74.97-5.27 3.36-2.79 12.59-12.54 22.95-24.41 27.68 1.82-3.66 3.17-7.8 3.23-12.27.14-9.07-6.41-18.98-16.36-19.29-6.42-.2-12.77 3.9-16.18 10.43-2.83 5.43-3.35 11.57-3.47 16.86-.05 2.3-.16 6.59 2.33 10.06 3.06 4.27 8.47 5.14 10.64 5.43-4.15 3.75-8.28 6.09-12.5 7.08-1.86.44-3.79.63-5.75.65 2.69-4.17 4.42-8.95 4.9-13.86.22-2.23.26-5.51-1.82-8.29-2.35-3.15-6.19-3.89-8.04-4.25-4.86-.94-10.58-1.67-16.21-.02-6.74 1.98-11.66 7.19-12.53 13.29-.89 6.1 2.39 12.53 8.33 16.38 1.14.74 2.32 1.36 3.54 1.89-5.48 1.06-11.37.11-16.13-2.78-2.08-1.27-4.8-.6-6.07 1.48a4.43 4.43 0 0 0 1.48 6.07c8.99 5.46 20.88 5.94 30.29 1.23Zm31.92-27.59c-2.59-.33-4.23-.95-4.88-1.85-.67-.94-.72-2.81-.68-4.7.04-1.74.12-3.52.33-5.26.32-2.74.93-5.39 2.15-7.73 1.79-3.44 5.11-5.77 8.07-5.68 4.48.14 7.87 5.66 7.8 10.32-.08 5.67-3.54 11.16-6.55 15.11-2.08.11-4.17.04-6.25-.22Zm-30.16 15.54c-3.47-.54-7.16-1.36-10.07-3.25s-4.71-4.99-4.41-7.58c0-.04.01-.09.02-.13.37-2.6 2.96-5.1 6.28-6.07 3.82-1.12 8.23-.52 12.05.22 2.09.4 2.54.73 2.63.86 0 .01.27.43.11 2.16-.5 5.22-2.94 10.11-6.61 13.79Z"/><path class="a`" transform="rotate(-53.48 1500.407 717.465)" d="M1490.8 689.51h19.25v55.91h-19.25z"/><path class="x" transform="rotate(21.52 1731.48 468.963)" d="M1721.82 440.99h19.25v55.91h-19.25z"/><path class="s" transform="rotate(-68.48 1989.445 332.783)" d="M1979.83 304.83h19.25v55.91h-19.25z"/><path class="n" transform="rotate(111.52 2076.668 574.698)" d="M2067.04 558.67h19.25v32.07h-19.25z"/></g></svg>