<svg xmlns="http://www.w3.org/2000/svg" xmlns:xlink="http://www.w3.org/1999/xlink" viewBox="0 0 1728.94 1378.243"><defs><linearGradient id="linear-gradient" x1="234.354" y1="863.34" x2="325.18" y2="863.34" gradientUnits="userSpaceOnUse"><stop offset="0" stop-color="#00d6dc"/><stop offset=".599" stop-color="#00bfc8"/><stop offset="1" stop-color="#00b6bf"/></linearGradient><linearGradient id="linear-gradient-2" x1="272.604" y1="874.332" x2="325.18" y2="874.332" gradientUnits="userSpaceOnUse"><stop offset="0" stop-color="#e8ecf7"/><stop offset=".419" stop-color="#edf0f9"/><stop offset=".943" stop-color="#fdfdfe"/><stop offset="1" stop-color="#fff"/></linearGradient><linearGradient id="linear-gradient-3" x1="234.354" y1="853" x2="300.385" y2="853" gradientUnits="userSpaceOnUse"><stop offset="0"/><stop offset="1" stop-color="#024e56"/></linearGradient><linearGradient id="linear-gradient-4" x1="992.595" y1="1220.082" x2="1073.504" y2="1220.082" xlink:href="#linear-gradient"/><linearGradient id="linear-gradient-5" x1="992.595" y1="1212.039" x2="1028.695" y2="1212.039" gradientUnits="userSpaceOnUse"><stop offset="0"/><stop offset=".19" stop-color="#011416"/><stop offset=".533" stop-color="#013439"/><stop offset=".816" stop-color="#02474e"/><stop offset="1" stop-color="#024e56"/></linearGradient><linearGradient id="linear-gradient-6" x1="1018.916" y1="1230.581" x2="1073.504" y2="1230.581" gradientUnits="userSpaceOnUse"><stop offset="0" stop-color="#e8ecf7"/><stop offset="1" stop-color="#fff"/></linearGradient><linearGradient id="linear-gradient-7" x1="1339.687" y1="732.96" x2="1422.539" y2="732.96" xlink:href="#linear-gradient"/><linearGradient id="linear-gradient-8" x1="1339.687" y1="737.144" x2="1422.539" y2="737.144" xlink:href="#linear-gradient-6"/><linearGradient id="linear-gradient-9" x1="1339.687" y1="727.126" x2="1385.95" y2="727.126" xlink:href="#linear-gradient-5"/><linearGradient id="linear-gradient-10" x1="399.45" y1="505.923" x2="512.5" y2="70.151" gradientUnits="userSpaceOnUse"><stop offset=".165" stop-color="#fff"/><stop offset=".465" stop-color="#f1f2fd"/><stop offset="1" stop-color="#ced3f8"/></linearGradient><linearGradient id="linear-gradient-11" x1="598.996" y1="466.797" x2="487.878" y2="76.438" gradientUnits="userSpaceOnUse"><stop offset=".031" stop-color="#fff"/><stop offset=".244" stop-color="#e8e9f6"/><stop offset=".527" stop-color="#cfd3ed"/><stop offset=".786" stop-color="#c0c5e8"/><stop offset="1" stop-color="#bbc0e6"/></linearGradient><linearGradient id="linear-gradient-12" x1="413.71" y1="379.475" x2="463.954" y2="227.776" gradientUnits="userSpaceOnUse"><stop offset="0" stop-color="#fefeff"/><stop offset="1" stop-color="#e8ecf7"/></linearGradient><linearGradient id="linear-gradient-13" x1="451.781" y1="264.578" x2="481.735" y2="172.785" xlink:href="#linear-gradient-12"/><linearGradient id="linear-gradient-14" x1="647.991" y1="469.593" x2="561.03" y2="248.325" gradientUnits="userSpaceOnUse"><stop offset=".165" stop-color="#fff"/><stop offset=".544" stop-color="#f1f3fb"/><stop offset="1" stop-color="#dae0f5"/></linearGradient><linearGradient id="linear-gradient-15" x1="342.769" y1="456.889" x2="386.25" y2="392.151" xlink:href="#linear-gradient-12"/><linearGradient id="linear-gradient-16" x1="361.802" y1="801.356" x2="361.802" y2="688.197" gradientTransform="rotate(-25.658 343.476 638.437)" gradientUnits="userSpaceOnUse"><stop offset="0" stop-color="#5652cc"/><stop offset="1" stop-color="#f3b378"/></linearGradient><linearGradient id="linear-gradient-17" x1="341.181" y1="816.205" x2="341.181" y2="733.256" gradientTransform="rotate(-31.493 332.754 653.915)" gradientUnits="userSpaceOnUse"><stop offset="0" stop-color="#6b67e9"/><stop offset="1" stop-color="#f3b378"/></linearGradient><linearGradient id="linear-gradient-18" x1="397.13" y1="792.193" x2="397.13" y2="728.255" gradientTransform="rotate(-25.658 343.476 638.437)" xlink:href="#linear-gradient-17"/><linearGradient id="linear-gradient-19" x1="1497.292" y1="502.435" x2="1497.292" y2="423.658" gradientTransform="rotate(39.652 892.558 731.445)" xlink:href="#linear-gradient-16"/><linearGradient id="linear-gradient-20" x1="1514.035" y1="502.435" x2="1514.035" y2="448.231" gradientTransform="rotate(39.652 892.558 731.445)" xlink:href="#linear-gradient-17"/><linearGradient id="linear-gradient-21" x1="1475.392" y1="502.435" x2="1475.392" y2="453.591" gradientTransform="rotate(39.652 892.558 731.445)" xlink:href="#linear-gradient-17"/><linearGradient id="linear-gradient-22" x1="1438.579" y1="1059.671" x2="1638.058" y2="1059.671" gradientUnits="userSpaceOnUse"><stop offset="0" stop-color="#dae0f5"/><stop offset=".459" stop-color="#e8ecf9"/><stop offset="1" stop-color="#fff"/></linearGradient><linearGradient id="linear-gradient-23" x1="1415.652" y1="1195.889" x2="1193.652" y2="973.889" gradientUnits="userSpaceOnUse"><stop offset="0" stop-color="#009aaa"/><stop offset="1" stop-color="#00d6dc"/></linearGradient><linearGradient id="linear-gradient-24" x1="1359.579" y1="1234.629" x2="1200.913" y2="1075.962" xlink:href="#linear-gradient-6"/><linearGradient id="linear-gradient-25" x1="1199.076" y1="1085.631" x2="1140.493" y2="1027.048" gradientUnits="userSpaceOnUse"><stop offset="0" stop-color="#024e56"/><stop offset="1"/></linearGradient><linearGradient id="linear-gradient-26" x1="1381.246" y1="1055.208" x2="1514.082" y2="1055.208" gradientUnits="userSpaceOnUse"><stop offset="0" stop-color="#c3c9e7"/><stop offset=".606" stop-color="#e6e8f5"/><stop offset="1" stop-color="#fff"/></linearGradient><linearGradient id="linear-gradient-27" x1="1462.665" y1="1053.064" x2="1268.461" y2="858.86" gradientUnits="userSpaceOnUse"><stop offset="0" stop-color="#00b6bf"/><stop offset="1" stop-color="#00d6dc"/></linearGradient><linearGradient id="linear-gradient-28" x1="1493.637" y1="1022.092" x2="1387.126" y2="915.582" xlink:href="#linear-gradient-6"/><linearGradient id="linear-gradient-29" x1="1372.412" y1="900.205" x2="1510.246" y2="900.205" gradientUnits="userSpaceOnUse"><stop offset="0" stop-color="#fff"/><stop offset="1" stop-color="#e8ecf7"/></linearGradient><linearGradient id="linear-gradient-30" x1="1328.324" y1="974.383" x2="1240.631" y2="886.69" xlink:href="#linear-gradient-5"/><linearGradient id="linear-gradient-31" x1="1372.412" y1="900.205" x2="1488.22" y2="900.205" xlink:href="#linear-gradient-5"/><linearGradient id="linear-gradient-32" x1="594.579" y1="1222.655" x2="697.605" y2="1222.655" gradientUnits="userSpaceOnUse"><stop offset="0" stop-color="#d1d7f3"/><stop offset=".383" stop-color="#dfe4f7"/><stop offset="1" stop-color="#fff"/></linearGradient><linearGradient id="linear-gradient-33" x1="599.746" y1="1293.129" x2="390.079" y2="1083.462" xlink:href="#linear-gradient-27"/><linearGradient id="linear-gradient-34" x1="599.746" y1="1293.129" x2="390.079" y2="1083.462" xlink:href="#linear-gradient-6"/><linearGradient id="linear-gradient-35" x1="719.215" y1="906.993" x2="482.382" y2="670.16" xlink:href="#linear-gradient-23"/><linearGradient id="linear-gradient-36" x1="685.932" y1="940.276" x2="515.726" y2="770.07" xlink:href="#linear-gradient-29"/><linearGradient id="linear-gradient-37" x1="820.042" y1="820.077" x2="622.42" y2="622.455" xlink:href="#linear-gradient-27"/><linearGradient id="linear-gradient-38" x1="856.641" y1="783.478" x2="750.212" y2="677.049" xlink:href="#linear-gradient-6"/><linearGradient id="linear-gradient-39" x1="693.859" y1="733.402" x2="602.666" y2="642.208" xlink:href="#linear-gradient-3"/><linearGradient id="linear-gradient-40" x1="600.829" y1="897.17" x2="749.913" y2="897.17" xlink:href="#linear-gradient-32"/><linearGradient id="linear-gradient-41" x1="749.913" y1="799.919" x2="980.339" y2="799.919" xlink:href="#linear-gradient-32"/><linearGradient id="linear-gradient-42" x1="388.139" y1="1160.7" x2="527.237" y2="919.775" gradientUnits="userSpaceOnUse"><stop offset="0" stop-color="#fff"/><stop offset=".068" stop-color="#fff1e6"/><stop offset=".185" stop-color="#ffddc1"/><stop offset=".308" stop-color="#ffcca3"/><stop offset=".437" stop-color="#ffbf8b"/><stop offset=".574" stop-color="#ffb67a"/><stop offset=".724" stop-color="#ffb170"/><stop offset=".912" stop-color="#ffaf6d"/></linearGradient><linearGradient id="linear-gradient-43" x1="766.885" y1="1021.658" x2="893.149" y2="1021.658" xlink:href="#linear-gradient-32"/><linearGradient id="linear-gradient-44" x1="479.506" y1="967.234" x2="520.277" y2="967.234" gradientUnits="userSpaceOnUse"><stop offset="0" stop-color="#c4cae9"/><stop offset=".095" stop-color="#ced3ed"/><stop offset=".409" stop-color="#e9ebf7"/><stop offset=".687" stop-color="#f9fafd"/><stop offset=".899" stop-color="#fff"/></linearGradient><linearGradient id="linear-gradient-45" x1="907.099" y1="1068.5" x2="919.036" y2="1062.104" gradientTransform="rotate(-16.817 360.868 2486.18)" gradientUnits="userSpaceOnUse"><stop offset="0" stop-color="#34318f"/><stop offset=".191" stop-color="#383595"/><stop offset=".441" stop-color="#4340a5"/><stop offset=".723" stop-color="#5453c0"/><stop offset="1" stop-color="#6a6ae2"/></linearGradient><linearGradient id="linear-gradient-46" x1="457.59" y1="888.261" x2="479.59" y2="961.261" gradientUnits="userSpaceOnUse"><stop offset="0" stop-color="#131147"/><stop offset=".171" stop-color="#16144d"/><stop offset=".395" stop-color="#1d1c5d"/><stop offset=".648" stop-color="#2a2978"/><stop offset=".922" stop-color="#3b3b9e"/><stop offset="1" stop-color="#4141aa"/></linearGradient><linearGradient id="linear-gradient-47" x1="303.269" y1="940.941" x2="311.449" y2="940.941" gradientTransform="matrix(-1 0 0 1 720.6 0)" gradientUnits="userSpaceOnUse"><stop offset="0" stop-color="#6a6ae2"/><stop offset=".277" stop-color="#5453c0"/><stop offset=".559" stop-color="#4340a5"/><stop offset=".809" stop-color="#383595"/><stop offset="1" stop-color="#34318f"/></linearGradient><linearGradient id="linear-gradient-48" x1="265.135" y1="910.159" x2="308.056" y2="910.159" gradientTransform="matrix(-1 0 0 1 720.6 0)" gradientUnits="userSpaceOnUse"><stop offset="0" stop-color="#1e1c6b"/><stop offset=".172" stop-color="#211f71"/><stop offset=".402" stop-color="#2b2982"/><stop offset=".667" stop-color="#3c399e"/><stop offset=".954" stop-color="#524ec5"/><stop offset="1" stop-color="#5652cc"/></linearGradient><linearGradient id="linear-gradient-49" x1="254.2" y1="859.595" x2="286.81" y2="859.595" gradientTransform="matrix(-1 0 0 1 720.6 0)" gradientUnits="userSpaceOnUse"><stop offset="0" stop-color="#f6f6fb"/><stop offset="1" stop-color="#fff"/></linearGradient><linearGradient id="linear-gradient-50" x1="277.029" y1="841.56" x2="289.734" y2="841.56" xlink:href="#linear-gradient-49"/><linearGradient id="linear-gradient-51" x1="813.6" y1="711.64" x2="902.346" y2="711.64" gradientUnits="userSpaceOnUse"><stop offset="0" stop-color="#c4c8e2"/><stop offset=".145" stop-color="#d7daeb"/><stop offset=".406" stop-color="#f4f5fa"/><stop offset=".555" stop-color="#fff"/></linearGradient><linearGradient id="linear-gradient-52" x1="752.783" y1="662.526" x2="853.12" y2="604.596" gradientUnits="userSpaceOnUse"><stop offset="0" stop-color="#009aaa"/><stop offset=".414" stop-color="#0f5f8f"/><stop offset=".807" stop-color="#1b2c78"/><stop offset="1" stop-color="#20196f"/></linearGradient><linearGradient id="linear-gradient-53" x1="760.302" y1="624.359" x2="848.236" y2="573.59" gradientUnits="userSpaceOnUse"><stop offset="0" stop-color="#009aaa"/><stop offset=".037" stop-color="#0195a8"/><stop offset=".7" stop-color="#173c7f"/><stop offset="1" stop-color="#20196f"/></linearGradient><linearGradient id="linear-gradient-54" x1="766.116" y1="558.838" x2="861.083" y2="558.838" gradientUnits="userSpaceOnUse"><stop offset="0" stop-color="#009aaa"/><stop offset="1" stop-color="#362e94"/></linearGradient><linearGradient id="linear-gradient-55" x1="494.095" y1="1159.102" x2="569.624" y2="1159.102" xlink:href="#linear-gradient-51"/><linearGradient id="linear-gradient-56" x1="442.335" y1="1117.303" x2="527.728" y2="1068.001" xlink:href="#linear-gradient-52"/><linearGradient id="linear-gradient-57" x1="448.734" y1="1084.82" x2="523.572" y2="1041.612" xlink:href="#linear-gradient-53"/><linearGradient id="linear-gradient-58" x1="453.682" y1="1029.057" x2="534.506" y2="1029.057" xlink:href="#linear-gradient-54"/><linearGradient id="linear-gradient-59" x1="1324.926" y1="918.332" x2="1402.134" y2="918.332" xlink:href="#linear-gradient-51"/><linearGradient id="linear-gradient-60" x1="1272.016" y1="875.603" x2="1359.307" y2="825.206" xlink:href="#linear-gradient-52"/><linearGradient id="linear-gradient-61" x1="1278.557" y1="842.398" x2="1355.058" y2="798.23" xlink:href="#linear-gradient-53"/><linearGradient id="linear-gradient-62" x1="1283.615" y1="785.396" x2="1366.235" y2="785.396" xlink:href="#linear-gradient-54"/><linearGradient id="linear-gradient-63" x1="692.112" y1="742.415" x2="785.507" y2="742.415" gradientUnits="userSpaceOnUse"><stop offset="0" stop-color="#c4cae9"/><stop offset=".145" stop-color="#d7dbf0"/><stop offset=".406" stop-color="#f4f5fb"/><stop offset=".555" stop-color="#fff"/></linearGradient><linearGradient id="linear-gradient-64" x1="645.651" y1="663.39" x2="738.574" y2="663.39" xlink:href="#linear-gradient-54"/><linearGradient id="linear-gradient-65" x1="500.604" y1="709.429" x2="567.405" y2="709.429" xlink:href="#linear-gradient-63"/><linearGradient id="linear-gradient-66" x1="461.087" y1="642.214" x2="540.122" y2="642.214" xlink:href="#linear-gradient-54"/><linearGradient id="linear-gradient-67" x1="1434.75" y1="990.846" x2="1497.988" y2="990.846" xlink:href="#linear-gradient-63"/><linearGradient id="linear-gradient-68" x1="1397.34" y1="927.216" x2="1472.159" y2="927.216" xlink:href="#linear-gradient-54"/><linearGradient id="linear-gradient-69" x1="1020.746" y1="1216.878" x2="1095.47" y2="1216.878" gradientUnits="userSpaceOnUse"><stop offset="0" stop-color="#c4c9e5"/><stop offset=".076" stop-color="#c9cee7"/><stop offset=".683" stop-color="#f0f1f8"/><stop offset="1" stop-color="#fff"/></linearGradient><linearGradient id="linear-gradient-70" x1="281.181" y1="861.117" x2="353.531" y2="861.117" xlink:href="#linear-gradient-69"/><linearGradient id="linear-gradient-71" x1="1384.085" y1="730.191" x2="1448.993" y2="730.191" xlink:href="#linear-gradient-63"/><linearGradient id="linear-gradient-72" x1="1345.688" y1="664.881" x2="1422.482" y2="664.881" xlink:href="#linear-gradient-54"/><linearGradient id="linear-gradient-73" x1="1036.676" y1="844.152" x2="1172.422" y2="844.152" gradientUnits="userSpaceOnUse"><stop offset=".427" stop-color="#c2c8e7"/><stop offset=".559" stop-color="#c9ceea"/><stop offset=".745" stop-color="#dbdef1"/><stop offset=".961" stop-color="#f9f9fd"/><stop offset="1" stop-color="#fff"/></linearGradient><linearGradient id="linear-gradient-74" x1="1084.379" y1="832.02" x2="1152.232" y2="832.02" gradientUnits="userSpaceOnUse"><stop offset="0" stop-color="#c2c8e7"/><stop offset=".916" stop-color="#fff"/></linearGradient><linearGradient id="linear-gradient-75" x1="1016.5" y1="857.133" x2="1152.251" y2="857.133" gradientUnits="userSpaceOnUse"><stop offset="0" stop-color="#00b6bf"/><stop offset="1" stop-color="#362e92"/></linearGradient><linearGradient id="linear-gradient-76" x1="1084.379" y1="817.668" x2="1118.061" y2="817.668" gradientUnits="userSpaceOnUse"><stop offset="0" stop-color="#c2c8e7"/><stop offset="1" stop-color="#fff"/></linearGradient><linearGradient id="linear-gradient-77" x1="1050.654" y1="834.051" x2="1118.098" y2="834.051" gradientUnits="userSpaceOnUse"><stop offset="0" stop-color="#ff826a"/><stop offset=".116" stop-color="#f57767"/><stop offset=".708" stop-color="#c84557"/><stop offset="1" stop-color="#b73251"/></linearGradient><linearGradient id="linear-gradient-78" x1="1067.514" y1="791.78" x2="1101.234" y2="791.78" xlink:href="#linear-gradient-77"/><linearGradient id="linear-gradient-79" x1="1067.514" y1="767.594" x2="1101.234" y2="767.594" gradientUnits="userSpaceOnUse"><stop offset="0" stop-color="#fff"/><stop offset=".14" stop-color="#fbfcfe"/><stop offset="1" stop-color="#e8ecf7"/></linearGradient><linearGradient id="linear-gradient-80" x1="939.67" y1="660.484" x2="1229.078" y2="660.484" xlink:href="#linear-gradient-77"/><linearGradient id="linear-gradient-81" x1="951.227" y1="555.116" x2="1217.526" y2="555.116" gradientUnits="userSpaceOnUse"><stop offset="0" stop-color="#b73251"/><stop offset=".194" stop-color="#be3a53"/><stop offset=".488" stop-color="#d14f5a"/><stop offset=".844" stop-color="#f07165"/><stop offset="1" stop-color="#ff826a"/></linearGradient><linearGradient id="linear-gradient-82" x1="627.075" y1="1052.029" x2="667.847" y2="1052.029" xlink:href="#linear-gradient-44"/><linearGradient id="linear-gradient-83" x1="963.967" y1="1174.298" x2="974.88" y2="1168.45" gradientTransform="rotate(-16.817 392.536 2271.943)" gradientUnits="userSpaceOnUse"><stop offset="0" stop-color="#34318f"/><stop offset=".246" stop-color="#373595"/><stop offset=".57" stop-color="#4140a5"/><stop offset=".934" stop-color="#5251c0"/><stop offset="1" stop-color="#5555c6"/></linearGradient><linearGradient id="linear-gradient-84" x1="607.296" y1="978.062" x2="626.963" y2="1047.395" gradientUnits="userSpaceOnUse"><stop offset="0" stop-color="#20196f"/><stop offset=".5" stop-color="#302a8d"/><stop offset="1" stop-color="#423eaf"/></linearGradient><linearGradient id="linear-gradient-85" x1="213.41" y1="1028.341" x2="220.888" y2="1028.341" gradientTransform="matrix(-1 0 0 1 783.935 0)" xlink:href="#linear-gradient-47"/><linearGradient id="linear-gradient-86" x1="178.545" y1="1000.2" x2="217.582" y2="1000.2" gradientTransform="matrix(-1 0 0 1 783.935 0)" gradientUnits="userSpaceOnUse"><stop offset="0" stop-color="#423eaf"/><stop offset=".062" stop-color="#413dad"/><stop offset="1" stop-color="#34318f"/></linearGradient><linearGradient id="linear-gradient-87" x1="168.677" y1="953.024" x2="197.727" y2="953.024" gradientTransform="matrix(-1 0 0 1 783.935 0)" gradientUnits="userSpaceOnUse"><stop offset="0" stop-color="#e33c5c"/><stop offset=".347" stop-color="#ec6161"/><stop offset="1" stop-color="#ffaf6d"/></linearGradient><linearGradient id="linear-gradient-88" x1="945.752" y1="931.019" x2="983.079" y2="931.019" xlink:href="#linear-gradient-44"/><linearGradient id="linear-gradient-89" x1="517.25" y1="1054.664" x2="535.88" y2="1054.664" gradientTransform="matrix(-.7274 -.4192 -.4993 .8664 1806.61 240.857)" gradientUnits="userSpaceOnUse"><stop offset="0" stop-color="#20196f"/><stop offset=".304" stop-color="#28227e"/><stop offset=".891" stop-color="#3e39a7"/><stop offset="1" stop-color="#423eaf"/></linearGradient><linearGradient id="linear-gradient-90" x1="891.911" y1="888.485" x2="940.89" y2="888.485" gradientUnits="userSpaceOnUse"><stop offset="0" stop-color="#20196f"/><stop offset=".112" stop-color="#1e1869"/><stop offset=".664" stop-color="#161350"/><stop offset="1" stop-color="#131147"/></linearGradient><linearGradient id="linear-gradient-91" x1="663.754" y1="928.651" x2="683.85" y2="928.651" gradientTransform="matrix(-1 0 0 1 1623.347 0)" gradientUnits="userSpaceOnUse"><stop offset="0" stop-color="#20196f"/><stop offset=".481" stop-color="#29227e"/><stop offset="1" stop-color="#362e94"/></linearGradient><linearGradient id="linear-gradient-92" x1="901.494" y1="888.044" x2="951.429" y2="888.044" gradientUnits="userSpaceOnUse"><stop offset="0" stop-color="#362e94"/><stop offset=".631" stop-color="#1f1b60"/><stop offset="1" stop-color="#131147"/></linearGradient><linearGradient id="linear-gradient-93" x1="907.893" y1="781.913" x2="924.179" y2="781.913" gradientUnits="userSpaceOnUse"><stop offset="0" stop-color="#009aaa"/><stop offset=".085" stop-color="#0a92ae"/><stop offset=".49" stop-color="#336fbe"/><stop offset=".809" stop-color="#4d5ac8"/><stop offset="1" stop-color="#5652cc"/></linearGradient><linearGradient id="linear-gradient-94" x1="901.374" y1="822.216" x2="964.203" y2="822.216" gradientUnits="userSpaceOnUse"><stop offset="0" stop-color="#00b6bf"/><stop offset=".209" stop-color="#0da7c1"/><stop offset=".613" stop-color="#307ec6"/><stop offset="1" stop-color="#5652cc"/></linearGradient><linearGradient id="linear-gradient-95" x1="929.29" y1="858.467" x2="948.702" y2="803.954" gradientUnits="userSpaceOnUse"><stop offset="0" stop-color="#fff"/><stop offset=".169" stop-color="#eef0fb"/><stop offset=".399" stop-color="#dee2f6"/><stop offset=".658" stop-color="#d4daf4"/><stop offset="1" stop-color="#d1d7f3"/></linearGradient><linearGradient id="linear-gradient-96" x1="485.623" y1="800.578" x2="485.623" y2="768.407" gradientUnits="userSpaceOnUse"><stop offset="0" stop-color="#ff5a72"/><stop offset="1" stop-color="#ffaf6d"/></linearGradient><linearGradient id="linear-gradient-97" x1="451.746" y1="784.493" x2="475.3" y2="784.493" gradientUnits="userSpaceOnUse"><stop offset="0" stop-color="#ffaf6d"/><stop offset="1" stop-color="#e33c5c"/></linearGradient><linearGradient id="linear-gradient-98" x1="467.082" y1="800.578" x2="467.082" y2="784.502" gradientUnits="userSpaceOnUse"><stop offset="0" stop-color="#fb944b"/><stop offset="1" stop-color="#ffc16b"/></linearGradient><linearGradient id="linear-gradient-99" x1="1278.211" y1="978.295" x2="1278.211" y2="942.91" gradientUnits="userSpaceOnUse"><stop offset="0" stop-color="#ff5a72"/><stop offset=".263" stop-color="#ff7170"/><stop offset=".812" stop-color="#ffab6c"/><stop offset="1" stop-color="#ffc16b"/></linearGradient><linearGradient id="linear-gradient-100" x1="1257.819" y1="978.295" x2="1257.819" y2="960.612" gradientUnits="userSpaceOnUse"><stop offset="0" stop-color="#ffaf6d"/><stop offset="1" stop-color="#ffc16b"/></linearGradient><linearGradient id="linear-gradient-101" x1="570.614" y1="1178.023" x2="570.614" y2="1151.16" xlink:href="#linear-gradient-99"/><linearGradient id="linear-gradient-102" x1="555.134" y1="1178.023" x2="555.134" y2="1164.599" xlink:href="#linear-gradient-100"/><linearGradient id="linear-gradient-103" x1="707.415" y1="1151.264" x2="759.828" y2="1151.264" gradientTransform="translate(152.864)" gradientUnits="userSpaceOnUse"><stop offset="0" stop-color="#d1d6f0"/><stop offset=".163" stop-color="#dde1f4"/><stop offset=".57" stop-color="#f6f7fc"/><stop offset=".817" stop-color="#fff"/></linearGradient><linearGradient id="linear-gradient-104" x1="-47.551" y1="986.335" x2="-7.472" y2="986.335" xlink:href="#linear-gradient-103"/><radialGradient id="radial-gradient" cx="995.777" cy="1107.645" r="76.706" gradientUnits="userSpaceOnUse"><stop offset="0" stop-color="#00b6bf"/><stop offset="1" stop-color="#362e94"/></radialGradient><radialGradient id="radial-gradient-2" cx="257.005" cy="755.354" r="74.269" xlink:href="#radial-gradient"/><style>.cls-50{mix-blend-mode:multiply}.cls-14,.cls-50{fill:#dae0f5}.cls-26{fill:#a5abcc}.cls-28{fill:#bbc0e6}.cls-29{fill:#8990ad}.cls-51{fill:#fff}.cls-52{fill:#ffaf6d}.cls-59{fill:#1e1c6b}.cls-60{fill:#ffd3ab}.cls-61{fill:#4141aa}.cls-67{fill:#f4c59f}.cls-69{fill:#362e94}.cls-70{fill:#110f42}.cls-94{fill:#ff826a}.cls-95{fill:#e33c5c}.cls-112{fill:#131147}.cls-120{fill:#fcd1a9}.cls-132{fill:#57ecea}.cls-133{fill:#00b6bf}</style></defs><g style="isolation:isolate"><g id="Objects"><g id="Little_yramids" data-name="Little yramids"><path style="fill:url(#linear-gradient)" d="m276.282 839.132-22.294 8.744-19.634 18.991 38.25 20.681 42.5-10.705 10.076-12.685-24.795-19.513-24.103-5.513z"/><path style="fill:url(#linear-gradient-2);mix-blend-mode:multiply" d="m272.604 887.548 8.577-26.431 43.999 3.041-10.076 12.685-42.5 10.705z"/><path style="fill:url(#linear-gradient-3);mix-blend-mode:screen" d="m234.354 866.867 46.827-5.75 19.204-16.472-24.103-5.513-22.294 8.744-19.634 18.991z"/><path style="fill:url(#linear-gradient-4)" d="m1024.605 1200.536-22.294 4.855-9.716 18.151 26.321 16.086 54.588-14.066-24.795-19.513-24.104-5.513z"/><path style="fill:url(#linear-gradient-5);mix-blend-mode:screen" d="m992.595 1223.542 36.1-2.008-4.09-20.998-22.294 4.855-9.716 18.151z"/><path style="fill:url(#linear-gradient-6);mix-blend-mode:multiply" d="m1018.916 1239.628 9.779-18.094 44.809 4.028-54.588 14.066z"/><path style="fill:url(#linear-gradient-7)" d="m1385.95 714.96-22.293 4.855-23.97 19.478 43.667 11.667 39.185-11.667v-15.964l-36.589-8.369z"/><path style="fill:url(#linear-gradient-8);mix-blend-mode:multiply" d="m1339.687 739.293 44.398-1.167 38.454-14.797v15.964l-39.185 11.667-43.667-11.667z"/><path style="fill:url(#linear-gradient-9);mix-blend-mode:screen" d="m1339.687 739.293 32.725-12.019 13.538-12.314-22.293 4.855-23.97 19.478z"/><path style="fill:url(#linear-gradient-10)" d="M504.858 572.814V72.447L291.319 449.528l213.539 123.286z"/><path style="fill:url(#linear-gradient-11)" d="M504.858 572.814V72.447l213.538 377.081-213.538 123.286z"/><path style="fill:#f6f6fb" d="m504.858 307.887-46.702-82.452-30.919 35.861-11.142-32.105 88.763-156.744v235.44z"/><path class="cls-14" d="M504.858 72.447v235.44l60.228-64.416 40.741 7.276-100.969-178.3z"/><path style="fill:url(#linear-gradient-12);mix-blend-mode:multiply" d="m427.237 261.296-11.142 120.967 62.373-120.967-20.312-35.861-30.919 35.861z"/><path style="fill:url(#linear-gradient-13);mix-blend-mode:multiply" d="m427.237 261.296 46.379-89.97 4.852 89.97-20.312-35.861-30.919 35.861z"/><path style="fill:url(#linear-gradient-14);mix-blend-mode:multiply" d="m565.086 243.471 66.082 256.418 46.833-27.039-112.915-229.379z"/><path style="fill:url(#linear-gradient-15);mix-blend-mode:multiply" d="m374.416 379.389 10.95 44.46-48.279 41.765 37.329-86.225z"/><path d="M360.598 690.359c1.898 11.675 26.225 6.499 41.902 23.557 16.431 16.364 30.938 42.69 42.805 56.352-3.843-17.654-8.79-49.088-27.263-73.698-9.132-12.155-29.308-15.139-40.634-15.455-11.284-.6-17.263 4.056-16.81 9.244Z" style="fill:url(#linear-gradient-16)"/><path d="M355.966 739.995c3.284 11.09 20.364 7.214 39.395 9.645 19.28 1.648 43.77 14.11 58.313 20.52-8.366-12.863-26.54-36.381-53.432-43.67-26.835-7.04-47.835 3.473-44.276 13.505Z" style="fill:url(#linear-gradient-17)"/><path d="M446.382 691.362c-4.63-4.876-16.615 8.029-16.298 25.815-.502 17.389 8.137 35.022 14.646 43.201-1.725-10.44-3.283-28.383-1.039-42.164 1.629-14.026 7.454-22.397 2.69-26.852Z" style="fill:url(#linear-gradient-18)"/><path d="M1558.805 884.861c-3.11-8.21-19.822-2.247-31.493 11.406-12.235 13.174-21.627 31.386-25.99 42.297 9.951-6.388 25.916-18.74 38.58-28.766 12.548-10.64 22.162-16.683 18.903-24.937Z" style="fill:url(#linear-gradient-19)"/><path d="M1566.584 925.364c1.973-5.116-10.824-11.47-27.625-10.178-17.065.798-33.933 13.685-37.637 23.378 8.101-6.913 24.34-12.023 38.075-11.164 13.784.435 25.21 3.653 27.187-2.036Z" style="fill:url(#linear-gradient-20)"/><path d="M1501.565 879.58c-4.726 3.827 1.446 12.357 4.414 23.797 3.134 11.349-.032 26.733-4.657 35.187 7.903-4.701 18.842-20.723 16.703-37.227-2.212-16.087-12.472-25.399-16.46-21.757Z" style="fill:url(#linear-gradient-21)"/><path style="fill:url(#linear-gradient-22);mix-blend-mode:multiply" d="M1438.579 1183.629h33l79.108-40.334 17-61.669h17.667l52.704-35.331v-48.609l-113.617-61.972-85.862 247.915z"/><path class="cls-26" d="m1564.434 986.629-68.071 37.158v36.334l68.071-37.159v-36.333z"/><path style="fill:url(#linear-gradient-23)" d="m1180.391 993.118-33.145 27.177-5.333 82-20 52.667 85.787 53.333 95.546-42 135.333-10.666 66-48.667 12.667-60.667-20.883-22.508-315.972-30.669z"/><path class="cls-26" d="m1207.7 1208.295 95.546-22v-20l-95.546 42z"/><path class="cls-28" d="m1438.579 1155.629-135.333 10.666v20l135.333-2.666v-28z"/><path class="cls-26" d="m1438.579 1155.629 66-48.667v36.333l-66 40.334v-28z"/><path class="cls-29" d="m1517.246 1046.295-12.667 60.667v36.333l12.667-60.666v-36.334z"/><path style="fill:url(#linear-gradient-24);mix-blend-mode:multiply" d="m1121.913 1154.962 191.333-99.333 125.333 100-135.333 10.666-95.546 42-85.787-53.333z"/><path style="fill:url(#linear-gradient-25);mix-blend-mode:screen" d="M1180.391 993.118v21.511l48.687 41-87.165 46.666 5.333-82 33.145-27.177z"/><path style="fill:url(#linear-gradient-26);mix-blend-mode:multiply" d="m1514.082 1042.885-17.719-19.098-115.117 62.842h61.199l71.637-43.744z"/><path style="fill:url(#linear-gradient-27)" d="m1313.246 1020.295 68 31 183.188-100-54.188-26.5-22.026-54.681h-53.974l-80-22.656-83.5 52.837-19.5-2-33.72 11.5-37.135 69.5 48.687 41h84.168z"/><path class="cls-26" d="M1229.078 1020.295h84.168v35.333h-84.168z"/><path class="cls-28" d="m1229.078 1055.629-48.687-41v-35.334l48.687 41v35.334zM1381.246 1086.629l-68-31v-35.334l68 31v35.334z"/><path class="cls-26" d="m1564.434 986.629-183.188 100v-35.334l183.188-100v35.334z"/><path style="fill:url(#linear-gradient-28);mix-blend-mode:multiply" d="m1381.246 1051.295-8.834-121 137.834-5.5 54.188 26.5-183.188 100z"/><path style="fill:url(#linear-gradient-29);mix-blend-mode:multiply" d="m1372.412 930.295 115.808-60.181 22.026 54.681-137.834 5.5z"/><path style="fill:url(#linear-gradient-30);mix-blend-mode:screen" d="m1229.078 1020.295 143.334-90-18.166-82.837-83.5 52.837-19.5-2-33.72 11.5-37.135 69.5 48.687 41z"/><path style="fill:url(#linear-gradient-31);mix-blend-mode:screen" d="M1434.246 870.114h53.974l-115.808 60.181 61.834-60.181z"/><path style="fill:url(#linear-gradient-32);mix-blend-mode:multiply" d="M594.579 1305.795h8.301l94.725-88.5-88.251-77.781-14.775 166.281z"/><path style="fill:url(#linear-gradient-33)" d="m316.579 1156.962 95.334-72.667 137.369-6.771 104.297 90.438-59 130.333h-136.89l-121.11-89.333-20-52z"/><path class="cls-26" d="M457.689 1298.295H594.58v7.5H457.689z"/><path class="cls-29" d="m653.579 1217.295-59 88.5v-7.5l59-130.333v49.333z"/><path class="cls-28" d="m457.689 1298.295-121.11-89.333v44.667l121.11 52.166v-7.5z"/><path style="fill:#ced3f8" d="m336.579 1208.962-20-52v59.333l20 37.334v-44.667z"/><path style="fill:url(#linear-gradient-34);mix-blend-mode:multiply" d="m316.579 1156.962 145.667 63.333 191.333-52.333-59 130.333h-136.89l-121.11-89.333-20-52z"/><path style="fill:url(#linear-gradient-35)" d="m749.913 876.295-149.167 30.693-56-49.855-93-23.082-37-66.457 68-97.799 110-32.336 67.228 15.766 89.939 223.07z"/><path class="cls-28" d="m451.746 862.295-37-47.35v-47.351l37 66.457v28.244z"/><path class="cls-26" d="m451.746 834.051 93 23.082v21.829l-93-16.667v-28.244z"/><path class="cls-28" d="m544.746 878.962 56 39v-10.974l-56-49.855v21.829z"/><path class="cls-26" d="m600.746 906.988 149.167-30.693-149.167 41.667v-10.974z"/><path style="fill:url(#linear-gradient-36);mix-blend-mode:multiply" d="m451.746 834.051 185.71-14.175 112.457 56.419-149.167 30.693-56-49.855-93-23.082z"/><path style="fill:url(#linear-gradient-37)" d="m749.913 807.9 107.333-28.837 40.667-36.857V693.6l-37.334-33.116-103.29-28.494-184.71 40.305-39.333 65.334L749.913 807.9z"/><path class="cls-26" d="m857.246 847.458-107.333 28.837V807.9l107.333-28.837v68.395z"/><path class="cls-28" d="M749.913 876.295 533.246 767.594v-29.965L749.913 807.9v68.395z"/><path class="cls-29" d="m897.913 810.601-40.667 36.857v-68.395l40.667-36.857v68.395z"/><path style="fill:url(#linear-gradient-38);mix-blend-mode:multiply" d="m749.913 807.9-40.667-89.885 151.333-57.531 37.334 33.116v48.606l-40.667 36.857L749.913 807.9z"/><path style="fill:url(#linear-gradient-39);mix-blend-mode:screen" d="m572.579 672.295 184.71-40.305-48.043 86.025-176 19.614 39.333-65.334z"/><g style="mix-blend-mode:multiply"><path style="fill:url(#linear-gradient-40)" d="m627.104 918.045 122.809-41.75-149.084 41.75h26.275z"/><path style="fill:url(#linear-gradient-41)" d="M897.913 722.995v87.606l-40.667 36.857-107.333 28.837 82.426.548 107.334-28.837 40.666-36.857v-62.555l-82.426-25.599z"/></g><path class="cls-50" d="M1351.629 959.505a8.482 8.482 0 0 1 7.675 0c2.12 1.224 2.12 3.208 0 4.432a8.484 8.484 0 0 1-7.675 0c-2.12-1.224-2.12-3.208 0-4.432Z"/><path class="cls-51" d="M1350.836 958.353a8.482 8.482 0 0 1 7.676 0c2.12 1.224 2.12 3.208 0 4.432a8.483 8.483 0 0 1-7.676 0c-2.12-1.224-2.12-3.208 0-4.432Z"/><path class="cls-50" d="M1299.804 1089.821a8.483 8.483 0 0 1 7.676 0c2.12 1.224 2.12 3.208 0 4.432a8.482 8.482 0 0 1-7.676 0c-2.12-1.224-2.12-3.208 0-4.432Z"/><path class="cls-14" d="M1299.012 1088.67a8.484 8.484 0 0 1 7.676 0c2.12 1.223 2.12 3.207 0 4.43a8.482 8.482 0 0 1-7.676 0c-2.12-1.223-2.12-3.207 0-4.43Z"/><ellipse class="cls-50" cx="440.488" cy="1168.538" rx="5.427" ry="3.133"/><path class="cls-51" d="M435.858 1165.17a8.484 8.484 0 0 1 7.675 0c2.12 1.224 2.12 3.208 0 4.432a8.482 8.482 0 0 1-7.675 0c-2.12-1.224-2.12-3.208 0-4.432Z"/><path class="cls-50" d="M575.707 1244.295a8.483 8.483 0 0 1 7.202-2.654c2.412.415 3.098 2.277 1.532 4.158a8.483 8.483 0 0 1-7.202 2.655c-2.412-.416-3.098-2.277-1.532-4.159Z"/><path class="cls-14" d="M574.565 1243.488a8.483 8.483 0 0 1 7.202-2.654c2.412.415 3.098 2.277 1.532 4.158a8.483 8.483 0 0 1-7.202 2.654c-2.412-.415-3.098-2.276-1.532-4.158Z"/><path class="cls-50" d="M1419.342 1119.048a8.482 8.482 0 0 1 7.656-.546c2.202 1.07 2.343 3.049.316 4.42a8.483 8.483 0 0 1-7.657.546c-2.2-1.07-2.342-3.049-.315-4.42Z"/><path class="cls-14" d="M1418.47 1117.955a8.483 8.483 0 0 1 7.656-.546c2.202 1.07 2.343 3.049.316 4.42a8.483 8.483 0 0 1-7.657.546c-2.2-1.07-2.342-3.049-.315-4.42Z"/><path class="cls-50" d="M1348.746 985.107a5.342 5.342 0 0 1 4.833 0c1.334.77 1.334 2.02 0 2.79a5.341 5.341 0 0 1-4.833 0c-1.335-.77-1.335-2.02 0-2.79Z"/><path class="cls-51" d="M1348.247 984.381a5.34 5.34 0 0 1 4.833 0c1.334.77 1.335 2.02 0 2.79a5.341 5.341 0 0 1-4.833 0c-1.335-.77-1.335-2.02 0-2.79Z"/><path class="cls-50" d="M1252.803 1126.97a6.58 6.58 0 0 1 5.954 0c1.644.948 1.644 2.487 0 3.437a6.58 6.58 0 0 1-5.954 0c-1.644-.95-1.644-2.489 0-3.438Z"/><path class="cls-14" d="M1252.189 1126.075a6.58 6.58 0 0 1 5.954 0c1.644.95 1.644 2.489 0 3.438a6.58 6.58 0 0 1-5.954 0c-1.644-.95-1.644-2.488 0-3.438Z"/><path class="cls-50" d="M1214.859 951.956a5.342 5.342 0 0 1 4.576 1.556c1.015 1.159.613 2.341-.898 2.641a5.341 5.341 0 0 1-4.576-1.555c-1.016-1.159-.614-2.342.898-2.642Z"/><path class="cls-51" d="M1214.62 951.109a5.341 5.341 0 0 1 4.576 1.555c1.016 1.16.614 2.342-.898 2.642a5.342 5.342 0 0 1-4.576-1.555c-1.015-1.16-.613-2.342.898-2.642Z"/><path class="cls-50" d="M1325.604 969.058a4.032 4.032 0 0 1 3.648 0 1.112 1.112 0 0 1 0 2.106 4.032 4.032 0 0 1-3.648 0 1.112 1.112 0 0 1 0-2.106Z"/><path class="cls-51" d="M1325.227 968.51a4.031 4.031 0 0 1 3.648 0 1.112 1.112 0 0 1 0 2.106 4.031 4.031 0 0 1-3.648 0 1.112 1.112 0 0 1 0-2.106Z"/><ellipse class="cls-50" cx="1219.935" cy="1085.596" rx="2.579" ry="1.489"/><path class="cls-51" d="M1217.734 1083.995a4.031 4.031 0 0 1 3.648 0 1.112 1.112 0 0 1 0 2.107 4.031 4.031 0 0 1-3.648 0 1.112 1.112 0 0 1 0-2.107Z"/><path class="cls-50" d="M1173.89 1036.699a4.032 4.032 0 0 1 3.455 1.171 1.112 1.112 0 0 1-.676 1.995 4.032 4.032 0 0 1-3.455-1.172 1.112 1.112 0 0 1 .677-1.994Z"/><path class="cls-51" d="M1173.71 1036.06a4.031 4.031 0 0 1 3.455 1.17 1.112 1.112 0 0 1-.676 1.995 4.03 4.03 0 0 1-3.455-1.171 1.112 1.112 0 0 1 .676-1.995Z"/><path class="cls-50" d="M1448.796 877.28a4.031 4.031 0 0 1 3.648 0 1.112 1.112 0 0 1 0 2.105 4.031 4.031 0 0 1-3.648 0 1.112 1.112 0 0 1 0-2.106Z"/><path class="cls-51" d="M1448.42 876.731a4.032 4.032 0 0 1 3.647 0 1.112 1.112 0 0 1 0 2.107 4.031 4.031 0 0 1-3.647 0 1.112 1.112 0 0 1 0-2.107Z"/><path class="cls-50" d="M1227.443 976.295a4.031 4.031 0 0 1 3.647 0 1.112 1.112 0 0 1 0 2.106 4.033 4.033 0 0 1-3.647 0 1.112 1.112 0 0 1 0-2.106Z"/><path class="cls-51" d="M1227.066 975.748a4.032 4.032 0 0 1 3.648 0 1.112 1.112 0 0 1 0 2.106 4.032 4.032 0 0 1-3.648 0 1.112 1.112 0 0 1 0-2.106Z"/><path class="cls-50" d="M1238.464 958.996a4.031 4.031 0 0 1 3.041-2.016c1.161-.071 1.682.715 1.163 1.756a4.032 4.032 0 0 1-3.04 2.015c-1.161.072-1.682-.714-1.164-1.755Z"/><path class="cls-51" d="M1237.848 958.747a4.031 4.031 0 0 1 3.04-2.015c1.162-.072 1.682.714 1.164 1.756a4.031 4.031 0 0 1-3.04 2.015c-1.162.071-1.683-.715-1.164-1.756Z"/><path class="cls-50" d="M1161.386 1059.908a6.463 6.463 0 0 1 5.79.823c1.467 1.15 1.254 2.647-.476 3.343a6.463 6.463 0 0 1-5.79-.823c-1.467-1.15-1.254-2.648.476-3.343Z"/><path class="cls-51" d="M1160.912 1058.954a6.463 6.463 0 0 1 5.79.823c1.467 1.15 1.254 2.647-.476 3.343a6.464 6.464 0 0 1-5.79-.824c-1.467-1.15-1.254-2.647.476-3.342Z"/><path class="cls-50" d="M1203.099 1124.584a4.031 4.031 0 0 1 3.648 0 1.112 1.112 0 0 1 0 2.106 4.032 4.032 0 0 1-3.648 0 1.112 1.112 0 0 1 0-2.106Z"/><path class="cls-14" d="M1202.722 1124.037a4.032 4.032 0 0 1 3.648 0 1.112 1.112 0 0 1 0 2.106 4.033 4.033 0 0 1-3.648 0 1.112 1.112 0 0 1 0-2.106Z"/><path class="cls-50" d="M1211.276 1170.183a4.031 4.031 0 0 1 3.648 0 1.112 1.112 0 0 1 0 2.106 4.031 4.031 0 0 1-3.648 0 1.112 1.112 0 0 1 0-2.106Z"/><path class="cls-14" d="M1210.9 1169.635a4.032 4.032 0 0 1 3.647 0 1.112 1.112 0 0 1 0 2.106 4.032 4.032 0 0 1-3.648 0 1.112 1.112 0 0 1 0-2.106Z"/><path class="cls-50" d="M1351.17 1123.369a4.032 4.032 0 0 1 3.649 0 1.112 1.112 0 0 1 0 2.106 4.031 4.031 0 0 1-3.648 0 1.112 1.112 0 0 1 0-2.106Z"/><path class="cls-14" d="M1350.794 1122.821a4.031 4.031 0 0 1 3.648 0 1.112 1.112 0 0 1 0 2.106 4.031 4.031 0 0 1-3.648 0 1.112 1.112 0 0 1 0-2.106Z"/><path class="cls-50" d="M1461.79 1111.837a4.031 4.031 0 0 1 3.23-1.696c1.163.046 1.601.881.98 1.864a4.032 4.032 0 0 1-3.23 1.696c-1.162-.046-1.6-.881-.98-1.864Z"/><path class="cls-14" d="M1461.203 1111.527a4.032 4.032 0 0 1 3.23-1.696c1.162.047 1.6.881.979 1.865a4.031 4.031 0 0 1-3.23 1.695c-1.162-.046-1.6-.881-.98-1.864Z"/><ellipse class="cls-50" cx="1473.77" cy="1086.832" rx="1.911" ry="1.103"/><ellipse class="cls-14" cx="1473.491" cy="1086.426" rx="1.911" ry="1.103"/><ellipse class="cls-50" cx="1486.309" cy="957.638" rx="1.911" ry="1.103"/><path class="cls-14" d="M1484.679 956.452a2.986 2.986 0 0 1 2.702 0 .824.824 0 0 1 0 1.56 2.988 2.988 0 0 1-2.702 0 .824.824 0 0 1 0-1.56Z"/><path class="cls-50" d="M1399.95 984.661a2.988 2.988 0 0 1 2.704 0 .824.824 0 0 1 0 1.56 2.987 2.987 0 0 1-2.703 0 .824.824 0 0 1 0-1.56Z"/><ellipse class="cls-14" cx="1401.023" cy="985.036" rx="1.911" ry="1.103"/><path class="cls-50" d="M1422.345 1005.762a2.987 2.987 0 0 1 2.542.92c.555.66.317 1.317-.532 1.468a2.988 2.988 0 0 1-2.541-.92c-.556-.66-.318-1.317.53-1.468Z"/><path class="cls-14" d="M1422.22 1005.286a2.988 2.988 0 0 1 2.542.92c.556.66.318 1.316-.53 1.467a2.987 2.987 0 0 1-2.543-.92c-.555-.659-.317-1.316.532-1.467Z"/><path class="cls-50" d="M1326.216 1004.834a2.987 2.987 0 0 1 2.703 0 .824.824 0 0 1 0 1.56 2.988 2.988 0 0 1-2.703 0 .824.824 0 0 1 0-1.56Z"/><path class="cls-51" d="M1325.937 1004.428a2.987 2.987 0 0 1 2.703 0 .824.824 0 0 1 0 1.561 2.988 2.988 0 0 1-2.703 0 .824.824 0 0 1 0-1.56Z"/><path class="cls-50" d="M411.412 1140.818a5.342 5.342 0 0 1 4.833 0c1.334.77 1.334 2.02 0 2.79a5.34 5.34 0 0 1-4.833 0c-1.335-.77-1.335-2.02 0-2.79Z"/><path class="cls-51" d="M410.913 1140.092a5.34 5.34 0 0 1 4.833 0c1.335.77 1.335 2.02 0 2.79a5.341 5.341 0 0 1-4.833 0c-1.335-.77-1.335-2.02 0-2.79Z"/><path class="cls-50" d="M565.122 1122.588a5.34 5.34 0 0 1 4.833 0c1.335.77 1.335 2.02 0 2.79a5.342 5.342 0 0 1-4.833 0c-1.334-.77-1.334-2.02 0-2.79Z"/><path class="cls-51" d="M564.624 1121.862a5.341 5.341 0 0 1 4.833 0c1.334.771 1.334 2.02 0 2.79a5.34 5.34 0 0 1-4.833 0c-1.335-.77-1.335-2.019 0-2.79Z"/><path class="cls-50" d="M550.267 1269.108a5.342 5.342 0 0 1 4.687-1.18c1.482.42 1.787 1.632.682 2.705a5.342 5.342 0 0 1-4.687 1.181c-1.482-.421-1.788-1.632-.682-2.706Z"/><path class="cls-14" d="M549.606 1268.527a5.341 5.341 0 0 1 4.687-1.181c1.482.42 1.787 1.632.682 2.705a5.341 5.341 0 0 1-4.687 1.181c-1.482-.42-1.788-1.632-.682-2.705Z"/><ellipse class="cls-50" cx="390.507" cy="1173.091" rx="2.671" ry="1.542"/><ellipse class="cls-51" cx="390.117" cy="1172.524" rx="2.671" ry="1.542"/><path class="cls-50" d="M466.12 1254.596a6.28 6.28 0 0 1 5.259 2.154c1.109 1.434.552 2.793-1.244 3.037a6.282 6.282 0 0 1-5.26-2.155c-1.108-1.433-.551-2.793 1.245-3.036Z"/><path class="cls-14" d="M465.9 1253.584a6.28 6.28 0 0 1 5.26 2.154c1.108 1.434.551 2.793-1.244 3.037a6.282 6.282 0 0 1-5.26-2.155c-1.108-1.433-.551-2.792 1.244-3.036Z"/><path class="cls-50" d="M533.294 1146.807a2.987 2.987 0 0 1 2.703 0 .824.824 0 0 1 0 1.56 2.988 2.988 0 0 1-2.703 0 .824.824 0 0 1 0-1.56Z"/><ellipse class="cls-51" cx="534.366" cy="1147.182" rx="1.911" ry="1.104"/><path class="cls-50" d="M524.158 1236.618a2.987 2.987 0 0 1 2.686-.307.824.824 0 0 1 .177 1.55 2.987 2.987 0 0 1-2.685.307.824.824 0 0 1-.178-1.55Z"/><path class="cls-14" d="M523.835 1236.247a2.987 2.987 0 0 1 2.686-.308.824.824 0 0 1 .177 1.55 2.987 2.987 0 0 1-2.685.308.824.824 0 0 1-.178-1.55Z"/><path class="cls-50" d="M439.465 1253.922a2.987 2.987 0 0 1 2.612.695.824.824 0 0 1-.402 1.508 2.988 2.988 0 0 1-2.612-.695.824.824 0 0 1 .402-1.508Z"/><path class="cls-14" d="M439.3 1253.458a2.988 2.988 0 0 1 2.612.695.824.824 0 0 1-.402 1.508 2.987 2.987 0 0 1-2.612-.695.824.824 0 0 1 .402-1.508Z"/><path class="cls-50" d="M541.71 1220.506a4.369 4.369 0 0 1 3.822-1.01 1.205 1.205 0 0 1 .584 2.206 4.369 4.369 0 0 1-3.822 1.01 1.205 1.205 0 0 1-.584-2.206Z"/><path class="cls-14" d="M541.164 1220.037a4.369 4.369 0 0 1 3.822-1.011 1.205 1.205 0 0 1 .583 2.206 4.369 4.369 0 0 1-3.821 1.011 1.205 1.205 0 0 1-.584-2.206Z"/><path class="cls-50" d="M802.596 741.087a8.483 8.483 0 0 1 7.676 0c2.12 1.224 2.12 3.208 0 4.431a8.483 8.483 0 0 1-7.676 0c-2.12-1.223-2.12-3.207 0-4.431Z"/><path class="cls-14" d="M801.804 739.935a8.483 8.483 0 0 1 7.676 0c2.12 1.223 2.12 3.207 0 4.431a8.484 8.484 0 0 1-7.676 0c-2.12-1.224-2.12-3.208 0-4.431Z"/><path class="cls-50" d="M597.21 696.887a8.483 8.483 0 0 1 7.615-.96c2.256.95 2.504 2.918.554 4.397a8.483 8.483 0 0 1-7.616.96c-2.255-.95-2.503-2.918-.553-4.397Z"/><path class="cls-51" d="M596.28 695.843a8.483 8.483 0 0 1 7.615-.96c2.256.95 2.504 2.918.554 4.397a8.483 8.483 0 0 1-7.616.96c-2.255-.95-2.503-2.918-.553-4.397Z"/><path class="cls-50" d="M523.98 811.997a8.483 8.483 0 0 1 7.676 0c2.12 1.224 2.12 3.208 0 4.432a8.482 8.482 0 0 1-7.675 0c-2.12-1.224-2.12-3.208 0-4.432Z"/><path class="cls-51" d="M523.188 810.845a8.484 8.484 0 0 1 7.676 0c2.12 1.224 2.12 3.208 0 4.431a8.482 8.482 0 0 1-7.676 0c-2.12-1.223-2.12-3.207 0-4.431Z"/><path class="cls-50" d="M672.315 865.18a8.483 8.483 0 0 1 7.5 1.633c1.81 1.647 1.389 3.585-.943 4.33a8.483 8.483 0 0 1-7.5-1.633c-1.81-1.647-1.388-3.585.943-4.33Z"/><path class="cls-14" d="M671.786 863.885a8.483 8.483 0 0 1 7.5 1.634c1.811 1.646 1.389 3.585-.943 4.33a8.483 8.483 0 0 1-7.5-1.633c-1.81-1.647-1.388-3.586.943-4.33Z"/><path class="cls-50" d="M776.989 766.63a5.34 5.34 0 0 1 4.833 0c1.335.77 1.335 2.02 0 2.79a5.342 5.342 0 0 1-4.833 0c-1.335-.77-1.335-2.02 0-2.79Z"/><ellipse class="cls-14" cx="778.907" cy="767.3" rx="3.417" ry="1.973"/><path class="cls-50" d="M663.828 764.294a5.34 5.34 0 0 1 4.833 0c1.335.771 1.335 2.02 0 2.79a5.342 5.342 0 0 1-4.833 0c-1.334-.77-1.334-2.019 0-2.79Z"/><path class="cls-51" d="M663.33 763.569a5.342 5.342 0 0 1 4.832 0c1.335.77 1.335 2.02 0 2.79a5.34 5.34 0 0 1-4.833 0c-1.334-.77-1.334-2.02 0-2.79Z"/><path class="cls-50" d="M605.014 844.094a5.342 5.342 0 0 1 4.498 1.769c.96 1.205.503 2.368-1.021 2.597a5.341 5.341 0 0 1-4.498-1.769c-.96-1.205-.503-2.368 1.02-2.597Z"/><path class="cls-14" d="M604.815 843.237a5.342 5.342 0 0 1 4.498 1.768c.96 1.205.503 2.368-1.021 2.597a5.342 5.342 0 0 1-4.498-1.768c-.96-1.206-.503-2.368 1.021-2.597Z"/><path class="cls-50" d="M574.087 715.729a5.342 5.342 0 0 1 4.742-.934c1.458.498 1.7 1.724.539 2.738a5.34 5.34 0 0 1-4.742.934c-1.458-.499-1.7-1.724-.539-2.738Z"/><path class="cls-51" d="M573.457 715.113a5.342 5.342 0 0 1 4.742-.933c1.459.498 1.7 1.724.54 2.737a5.341 5.341 0 0 1-4.742.934c-1.459-.498-1.7-1.724-.54-2.738Z"/><ellipse class="cls-50" cx="582.579" cy="655.924" rx="3.417" ry="1.973"/><path class="cls-51" d="M579.663 653.803a5.34 5.34 0 0 1 4.833 0c1.335.77 1.335 2.02 0 2.79a5.342 5.342 0 0 1-4.833 0c-1.334-.77-1.334-2.02 0-2.79Z"/><path class="cls-50" d="M542.579 790.707a5.34 5.34 0 0 1 4.833 0c1.334.77 1.334 2.02 0 2.79a5.342 5.342 0 0 1-4.833 0c-1.335-.77-1.335-2.02 0-2.79Z"/><path class="cls-51" d="M542.08 789.981a5.341 5.341 0 0 1 4.833 0c1.335.771 1.335 2.02 0 2.79a5.34 5.34 0 0 1-4.833 0c-1.335-.77-1.335-2.019 0-2.79Z"/><path class="cls-50" d="M456.245 745.404a5.341 5.341 0 0 1 4.833 0c1.334.77 1.334 2.02 0 2.79a5.342 5.342 0 0 1-4.833 0c-1.335-.77-1.335-2.02 0-2.79Z"/><path class="cls-51" d="M455.746 744.678a5.343 5.343 0 0 1 4.833 0c1.335.77 1.335 2.02 0 2.79a5.34 5.34 0 0 1-4.833 0c-1.335-.77-1.335-2.02 0-2.79Z"/><ellipse class="cls-50" cx="849.336" cy="734.033" rx="1.911" ry="1.103"/><path class="cls-14" d="M847.706 732.847a2.987 2.987 0 0 1 2.703 0 .824.824 0 0 1 0 1.56 2.988 2.988 0 0 1-2.703 0 .824.824 0 0 1 0-1.56Z"/><path class="cls-50" d="M761.173 741.573a2.987 2.987 0 0 1 2.703 0 .824.824 0 0 1 0 1.56 2.988 2.988 0 0 1-2.703 0 .824.824 0 0 1 0-1.56Z"/><ellipse class="cls-14" cx="762.246" cy="741.948" rx="1.911" ry="1.104"/><path class="cls-50" d="M653.025 738.44a2.986 2.986 0 0 1 2.703 0 .824.824 0 0 1 0 1.56 2.988 2.988 0 0 1-2.703 0 .824.824 0 0 1 0-1.56Z"/><ellipse class="cls-51" cx="654.097" cy="738.814" rx="1.911" ry="1.104"/><ellipse class="cls-50" cx="494.234" cy="728.581" rx="1.911" ry="1.104"/><path class="cls-51" d="M492.604 727.395a2.988 2.988 0 0 1 2.703 0 .824.824 0 0 1 0 1.56 2.987 2.987 0 0 1-2.703 0 .824.824 0 0 1 0-1.56Z"/><ellipse class="cls-50" cx="507.048" cy="790.332" rx="1.911" ry="1.103"/><ellipse class="cls-51" cx="506.769" cy="789.926" rx="1.911" ry="1.103"/><path class="cls-50" d="M634.92 861.371a2.988 2.988 0 0 1 2.571.837.824.824 0 0 1-.483 1.484 2.987 2.987 0 0 1-2.57-.837.824.824 0 0 1 .483-1.484Z"/><path class="cls-14" d="M634.781 860.899a2.988 2.988 0 0 1 2.57.837.824.824 0 0 1-.483 1.484 2.987 2.987 0 0 1-2.57-.837.824.824 0 0 1 .483-1.484Z"/><path class="cls-50" d="M591.806 861.803a2.988 2.988 0 0 1 2.69.268.824.824 0 0 1-.155 1.553 2.987 2.987 0 0 1-2.69-.268.824.824 0 0 1 .155-1.553Z"/><path class="cls-14" d="M591.569 861.372a2.988 2.988 0 0 1 2.69.268.824.824 0 0 1-.155 1.553 2.987 2.987 0 0 1-2.69-.268.824.824 0 0 1 .155-1.553Z"/><path class="cls-50" d="M634.822 684.565a2.988 2.988 0 0 1 2.703 0 .824.824 0 0 1 0 1.56 2.987 2.987 0 0 1-2.703 0 .824.824 0 0 1 0-1.56Z"/><ellipse class="cls-51" cx="635.894" cy="684.94" rx="1.911" ry="1.103"/><ellipse class="cls-50" cx="558.025" cy="674.701" rx="1.911" ry="1.104"/><ellipse class="cls-51" cx="557.746" cy="674.295" rx="1.911" ry="1.104"/><ellipse class="cls-50" cx="750.287" cy="686.905" rx="1.911" ry="1.103"/><ellipse class="cls-51" cx="750.008" cy="686.499" rx="1.911" ry="1.103"/><path class="cls-50" d="M852.474 698.556a4.369 4.369 0 0 1 3.953 0 1.205 1.205 0 0 1 0 2.283 4.369 4.369 0 0 1-3.953 0 1.205 1.205 0 0 1 0-2.283Z"/><path class="cls-14" d="M852.066 697.963a4.369 4.369 0 0 1 3.953 0 1.205 1.205 0 0 1 0 2.282 4.369 4.369 0 0 1-3.953 0 1.205 1.205 0 0 1 0-2.282Z"/><path class="cls-50" d="M730.7 667.606a4.37 4.37 0 0 1 3.954 0 1.205 1.205 0 0 1 0 2.283 4.37 4.37 0 0 1-3.953 0 1.205 1.205 0 0 1 0-2.283Z"/><path class="cls-51" d="M730.293 667.013a4.37 4.37 0 0 1 3.953 0 1.205 1.205 0 0 1 0 2.282 4.37 4.37 0 0 1-3.953 0 1.205 1.205 0 0 1 0-2.282Z"/><path class="cls-50" d="M599.617 1161.379a2.988 2.988 0 0 1 2.703 0 .824.824 0 0 1 0 1.56 2.987 2.987 0 0 1-2.703 0 .824.824 0 0 1 0-1.56Z"/><path class="cls-51" d="M599.338 1160.973a2.988 2.988 0 0 1 2.703 0 .824.824 0 0 1 0 1.56 2.987 2.987 0 0 1-2.703 0 .824.824 0 0 1 0-1.56Z"/><path class="cls-50" d="M1259.121 920.672a2.987 2.987 0 0 1 2.703 0 .824.824 0 0 1 0 1.56 2.988 2.988 0 0 1-2.703 0 .824.824 0 0 1 0-1.56Z"/><ellipse class="cls-51" cx="1260.194" cy="921.047" rx="1.911" ry="1.104"/><ellipse class="cls-50" cx="1357.657" cy="907.981" rx="1.911" ry="1.103"/><ellipse class="cls-51" cx="1357.378" cy="907.576" rx="1.911" ry="1.103"/><ellipse class="cls-50" cx="1399.531" cy="1098.317" rx="1.911" ry="1.104"/><path class="cls-14" d="M1397.9 1097.13a2.988 2.988 0 0 1 2.703 0 .824.824 0 0 1 0 1.561 2.987 2.987 0 0 1-2.703 0 .824.824 0 0 1 0-1.56Z"/><path class="cls-50" d="M1436.985 1099.333a4.998 4.998 0 0 1 4.52 0 1.378 1.378 0 0 1 0 2.61 4.997 4.997 0 0 1-4.52 0 1.378 1.378 0 0 1 0-2.61Z"/><path class="cls-14" d="M1436.518 1098.655a4.997 4.997 0 0 1 4.521 0 1.378 1.378 0 0 1 0 2.61 4.996 4.996 0 0 1-4.52 0 1.378 1.378 0 0 1-.001-2.61Z"/><path class="cls-50" d="M1495.96 948.411a4.996 4.996 0 0 1 4.522 0 1.378 1.378 0 0 1 0 2.61 4.996 4.996 0 0 1-4.521 0 1.378 1.378 0 0 1 0-2.61Z"/><path class="cls-14" d="M1495.494 947.732a4.996 4.996 0 0 1 4.521 0 1.378 1.378 0 0 1 0 2.61 4.996 4.996 0 0 1-4.521 0 1.378 1.378 0 0 1 0-2.61Z"/><path class="cls-52" d="m992.289 883.338-160.833 21.794 26.905 15.536-34.398 24.571 69.283 40 34.396-24.573 26.906 15.534 37.741-92.862z"/><path style="fill:#ef7060" d="m828.527 985.237-69.279-40.002 64.715.004 69.283 40-64.719-.002z"/><path style="fill:#ff946e" d="m766.885 1058.135-69.28-40.001 61.641-72.897 69.281 40-61.642 72.898z"/><path d="m697.603 1018.136-18.02 10.395a38.875 38.875 0 0 1-38.863-.007L465.687 927.47a152.88 152.88 0 0 0-152.879 0l-164.315 94.868 69.28 40.001 152.046-87.784a38.875 38.875 0 0 1 38.873-.001l175.05 101.05a152.88 152.88 0 0 0 152.826.021l30.317-17.49Z" style="fill:url(#linear-gradient-42)"/><path style="fill:url(#linear-gradient-43);mix-blend-mode:multiply" d="m766.885 1058.136 126.264-35.59-.003-37.365-64.619.056-61.642 72.899z"/><path style="fill:url(#linear-gradient-44);mix-blend-mode:multiply" d="M520.277 963.142h-40.771l3.444 8.183h37.327v-8.183z"/><path d="M471.557 961.242c-2.314.7-2.494 4.607-.992 6.844a9.226 9.226 0 0 0 2.801 1.252s7.884 2.075 9.584 1.987c1.703-.084 5.353-1.21 5.275-4.128-.517-1.713-2.132-2.555-4.086-3.391-2.544-1.086-4.761-2.295-6.786-2.979-1.665-.56-5.796.415-5.796.415Z" style="fill:url(#linear-gradient-45)"/><path class="cls-59" d="M482.798 970.564c-1.752.091-9.866-2.041-9.866-2.041a10.067 10.067 0 0 1-2.793-1.228 5.376 5.376 0 0 0 .426.791 9.226 9.226 0 0 0 2.801 1.252s7.884 2.075 9.584 1.987c1.703-.084 5.353-1.21 5.275-4.128-.018-.054-.046-.106-.066-.164-.479 2.471-3.761 3.451-5.361 3.531Z"/><path class="cls-60" d="M476.316 958.031a42.037 42.037 0 0 0-4.802 2.556 2.31 2.31 0 0 1-.045 1.134c-.025.057-.045.113-.07.173-.617.78-1.204 2.096 1.055 2.49 4.386.764 7.599-2.537 5.818-3.268-1.196-.49-1.692-2.207-1.956-3.085Z"/><path class="cls-61" d="M478.991 961.463a1.458 1.458 0 0 0-2.338-.176 3.103 3.103 0 0 0-1.085 3.265c.286.937 2.962-.14 3.047-.298.088-.16.376-2.791.376-2.791Z"/><path class="cls-51" d="M480.49 962.615a5.684 5.684 0 0 0-2.185 2.776.765.765 0 0 1-1.456-.469 7.194 7.194 0 0 1 2.864-3.623.765.765 0 0 1 .778 1.316ZM483.025 963.798a5.676 5.676 0 0 0-2.184 2.773.765.765 0 0 1-1.458-.466 7.185 7.185 0 0 1 2.864-3.626.765.765 0 1 1 .778 1.319Z"/><path d="M465.693 882.235c4.76 27.153 10.336 56.219 11.681 76.655.563 3.307-6.258 3.83-8.242.58-2.373-9.956-5.5-20.71-6.99-31.433-5.823-13.619-11.126-29.737-13.793-44.945 3.16 1.005 14.184-1.86 17.344-.857Z" style="fill:url(#linear-gradient-46)"/><path d="M417.174 940.175c.416 3.4.137 10.324-2.458 10.253-3.602-.1-4.83-2.928-5.207-7.848-.377-4.914-1.083-10.365 1.826-10.976a8.032 8.032 0 0 1 5.302.825s.122 4.346.537 7.746Z" style="fill:url(#linear-gradient-47)"/><path class="cls-59" d="M410.544 931.744c.212-.043.41-.057.616-.08-2.694.796-2.018 6.108-1.651 10.916.361 4.716 1.529 7.481 4.796 7.791a1.256 1.256 0 0 1-.405.06c-3.575-.1-4.796-2.907-5.167-7.79-.375-4.877-1.077-10.29 1.81-10.897Z"/><path class="cls-51" d="M417.2 940.723c-1.368.089-4.348.172-4.476.177a.726.726 0 0 1-.04-1.451c.032 0 3.08-.085 4.422-.173a.725.725 0 1 1 .094 1.447ZM417.454 943.847a18.517 18.517 0 0 1-4.773.204.724.724 0 1 1 .057-1.448 17.074 17.074 0 0 0 4.469-.182.724.724 0 0 1 .247 1.426Z"/><path class="cls-60" d="M413.91 932.646c-1.287 0-2.294 1.55-1.89 3.12.4 1.57 1.739 3.174 3.766 2.295 2.879-1.25-1.876-5.415-1.876-5.415Z"/><path d="M413.602 931.498c2.456-1.948 15.81-8.536 15.81-8.536s2.086-18.103 3.573-24.712c0-5.948.013-11.902 2.514-16.202l13.845 2.363 6.121 2.375s-10.249 31.319-13.55 39.404a15.82 15.82 0 0 1-6.142 7.728s-13.38 4.07-19.564 4.325c-3.597.448-4.709-4.643-2.607-6.745Z" style="fill:url(#linear-gradient-48)"/><path class="cls-60" d="M469.504 842.373c2.159 3.975 2.748 6.196 4.355 10.211 1.978-.992 8.124-1.83 12.962-6.582.957-1.51-.987-3.367 1.746-6.444 2.77-3.106 3.494-.64 3.494-.64a1.15 1.15 0 0 1 1.448.419c.538.846 1.22.165 1.41 1.044.197.875 1.517-.277 1.325 1.595-.189 1.873-1.302 3.092-3.2 5.4-4.414 6.858-21.301 17.288-22.288 15.89a87.446 87.446 0 0 1-11.709-24.306c-2.366-6.079 5.962-7.477 10.457 3.413Z"/><path class="cls-14" d="M462.855 849.642c1.718-.342 7.57-2.743 8.547-5.352-2.218-4.676-4.838-8.539-9.062-10.481-.968 3.301.515 15.833.515 15.833Z"/><path d="M439.607 833.51c2.639-1.467 5.724-3.157 12.782-2.605 7.554.591 11.192 2.13 12.458 7.42 3.207 13.39-.368 36.828 1.302 42.509.859 2.922-.432 4.215-4.647 5.782-6.36 2.367-16.669 2.367-23.032 0-2.878-1.07-4.732-2.645-4.679-3.145.725-6.835 3.13-48.468 5.816-49.961Z" style="fill:url(#linear-gradient-49)"/><path d="M440.486 849.61c-2.297-.65-9.62-4.139-9.62-4.139.76-2.512 1.154-8.53 8.741-11.961 7.384 4.123 2.493 14.638.88 16.1Z" style="fill:url(#linear-gradient-50)"/><path class="cls-60" d="M431.143 845.604c1.547.73 6.421 2.998 8.711 3.8a105.993 105.993 0 0 1-4.658 11.971c2.224 1.453 11.877 6.69 14.594 7.45 1.775.189 2.574-2.382 6.55-1.3 4.013 1.094 2.127 2.836 2.127 2.836a1.153 1.153 0 0 1 .268 1.486c-.515.855.392 1.167-.305 1.731-.698.564.922 1.23-.839 1.897-1.761.664-3.348.21-6.259-.464a126.188 126.188 0 0 1-16.874-4.796c-5.533-2.106-7.695-5.088-7.503-6.896a84.492 84.492 0 0 1 4.188-17.715ZM448.97 819.907c-.261-2.319 7.755 2.404 7.432 5.467-.264 2.491-1.698 5.025 1.532 6.244.868.694 3.841 5.538-.73 5.592-6.538.077-8.283-1.718-13.008-5.768 2.508-.817 5.624-4.015 4.775-11.535Z"/><path class="cls-60" d="m447.083 818.534 3.256-4.581h14.175v8.531c0 4.714-3.175 8.533-7.087 8.533a7.747 7.747 0 0 1-7.51-7.661l-1.72-.596Z"/><path class="cls-67" d="M456.38 833.3c-3.764-.488-6.86-5.44-6.464-9.943a7.763 7.763 0 0 0 6.83 7.59 4.015 4.015 0 0 0 1.188.671 2.171 2.171 0 0 1 .236.237c0 .69-1.18 1.523-1.79 1.444Z"/><path class="cls-59" d="M463.686 810.101c1.295-.225 1.413-1.305-3.841-3.123-3.051-1.497-7.38-1.957-10.181-.224-3.795 2.35-4.937 5.805-4.259 10.138a23.744 23.744 0 0 0 2.846 7.85c.42.423 1.091-.968.751-2.447a2.795 2.795 0 0 1-.496-1.267c-1.006-4.403 1.689-3.747 2.058-3.376.831.342-.777 3.988 1.66 3.624 1.176-.175 1.016-3.466 1.014-4.623a5.113 5.113 0 0 1 .529.14c2.01 1.119 8.844 1.93 5.051-.443 2.642 0 6.246 1.219 7.463-.46 1.445-1.994-.87-4.17-2.595-5.789Z"/><path style="fill:url(#linear-gradient-51);mix-blend-mode:multiply" d="M813.6 708.286h88.746v6.707H813.6z"/><path class="cls-69" d="m813.6 714.993-5.32-3.066v-59.935l5.32 3.069v59.932z"/><path class="cls-70" d="m813.6 714.993 5.319-3.066v-59.935l-5.319 3.069v59.932z"/><path d="M872.102 637.805 813.6 551.027s-59.4 88.047-59.795 88.688a23.319 23.319 0 0 0-3.658 12.277c0 9.376 6.197 18.747 18.584 25.904 24.781 14.304 64.957 14.304 89.735 0 12.39-7.157 18.584-16.528 18.584-25.904a24.038 24.038 0 0 0-4.948-14.187Z" style="fill:url(#linear-gradient-52)"/><path d="M864.874 602.693 813.6 526.645l-51.271 76.048a21.066 21.066 0 0 0-4.338 12.434c0 8.215 5.432 16.43 16.287 22.701 21.717 12.54 56.926 12.54 78.64 0 10.858-6.271 16.292-14.486 16.292-22.701a21.113 21.113 0 0 0-4.336-12.434Z" style="fill:url(#linear-gradient-53)"/><path d="M858.346 573.727c-.294-.483-44.746-66.375-44.746-66.375s-44.453 65.892-44.748 66.375a17.423 17.423 0 0 0-2.736 9.181c0 7.018 4.637 14.033 13.908 19.385 18.545 10.709 48.608 10.709 67.153 0 9.271-5.352 13.906-12.367 13.906-19.385a17.424 17.424 0 0 0-2.737-9.181Z" style="fill:url(#linear-gradient-54)"/><path style="fill:url(#linear-gradient-55);mix-blend-mode:multiply" d="M494.095 1156.248h75.529v5.708h-75.529z"/><path class="cls-69" d="m494.095 1161.956-4.528-2.609v-51.009l4.528 2.611v51.007z"/><path class="cls-70" d="m494.095 1161.956 4.526-2.609v-51.009l-4.526 2.611v51.007z"/><path d="m543.884 1096.264-49.79-73.854s-50.553 74.934-50.89 75.479a19.847 19.847 0 0 0-3.112 10.449c0 7.98 5.274 15.955 15.816 22.046 21.09 12.174 55.283 12.174 76.37 0 10.545-6.091 15.816-14.066 15.816-22.046a20.457 20.457 0 0 0-4.21-12.074Z" style="fill:url(#linear-gradient-56)"/><path d="m537.732 1066.381-43.637-64.723-43.636 64.723a17.928 17.928 0 0 0-3.692 10.582c0 6.991 4.623 13.983 13.862 19.32 18.482 10.672 48.447 10.672 66.928 0 9.24-5.337 13.865-12.329 13.865-19.32a17.97 17.97 0 0 0-3.69-10.582Z" style="fill:url(#linear-gradient-57)"/><path d="M532.177 1041.728c-.251-.41-38.082-56.49-38.082-56.49s-37.833 56.08-38.084 56.49a14.828 14.828 0 0 0-2.329 7.815c0 5.972 3.946 11.943 11.837 16.497 15.783 9.115 41.368 9.115 57.151 0 7.891-4.554 11.836-10.525 11.836-16.497a14.829 14.829 0 0 0-2.33-7.815Z" style="fill:url(#linear-gradient-58)"/><path style="fill:url(#linear-gradient-59);mix-blend-mode:multiply" d="M1324.926 915.414h77.208v5.835h-77.208z"/><path class="cls-69" d="m1324.926 921.249-4.629-2.667v-52.143l4.629 2.67v52.14z"/><path class="cls-70" d="m1324.926 921.249 4.627-2.667v-52.143l-4.627 2.67v52.14z"/><path d="m1375.822 854.096-50.896-75.495s-51.678 76.6-52.021 77.157a20.289 20.289 0 0 0-3.183 10.681c0 8.157 5.392 16.31 16.168 22.536 21.56 12.445 56.512 12.445 78.068 0 10.78-6.226 16.168-14.379 16.168-22.536a20.912 20.912 0 0 0-4.304-12.343Z" style="fill:url(#linear-gradient-60)"/><path d="m1369.533 823.55-44.607-66.162-44.606 66.162a18.329 18.329 0 0 0-3.774 10.817c0 7.147 4.726 14.294 14.17 19.75 18.893 10.909 49.525 10.909 68.416 0 9.446-5.456 14.174-12.603 14.174-19.75a18.369 18.369 0 0 0-3.773-10.817Z" style="fill:url(#linear-gradient-61)"/><path d="M1363.854 798.35c-.256-.42-38.928-57.746-38.928-57.746s-38.674 57.325-38.93 57.745a15.158 15.158 0 0 0-2.38 7.988c0 6.105 4.033 12.209 12.1 16.865 16.133 9.316 42.287 9.316 58.42 0 8.067-4.656 12.1-10.76 12.1-16.865a15.156 15.156 0 0 0-2.382-7.988Z" style="fill:url(#linear-gradient-62)"/><path style="fill:url(#linear-gradient-63);mix-blend-mode:multiply" d="M692.112 738.886h93.395v7.058h-93.395z"/><path class="cls-69" d="m692.112 745.944-5.003-2.883v-56.359l5.003 2.885v56.357z"/><path class="cls-70" d="m692.112 745.944 5.001-2.883v-56.359l-5.001 2.885v56.357z"/><path d="m734.951 691.167-42.837-92.765s-43.495 93.694-43.784 94.163c-1.516 3.018-2.679 5.944-2.679 8.99 0 6.866 4.538 13.727 13.608 18.967 18.146 10.475 47.564 10.475 65.707 0 9.073-5.24 13.608-12.101 13.608-18.967 0-3.538-1.87-6.418-3.623-10.388Z" style="fill:url(#linear-gradient-64)"/><path style="fill:url(#linear-gradient-65);mix-blend-mode:multiply" d="M500.604 706.428h66.801v6.003h-66.801z"/><path class="cls-69" d="m500.604 712.431-4.255-2.452v-47.937l4.255 2.454v47.935z"/><path class="cls-70" d="m500.604 712.431 4.254-2.452v-47.937l-4.254 2.454v47.935z"/><path d="m537.04 665.84-36.435-78.901s-36.994 79.691-37.24 80.09a17.288 17.288 0 0 0-2.278 7.647c0 5.84 3.86 11.675 11.574 16.132 15.433 8.91 40.455 8.91 55.886 0 7.717-4.457 11.575-10.293 11.575-16.132 0-3.01-1.591-5.459-3.082-8.836Z" style="fill:url(#linear-gradient-66)"/><path style="fill:url(#linear-gradient-67);mix-blend-mode:multiply" d="M1434.75 988.004h63.238v5.683h-63.238z"/><path class="cls-69" d="m1434.75 993.688-4.029-2.322v-45.38l4.029 2.324v45.378z"/><path class="cls-70" d="m1434.75 993.688 4.026-2.322v-45.38l-4.026 2.324v45.378z"/><path d="m1469.243 949.582-34.492-74.693s-35.021 75.441-35.254 75.819a16.366 16.366 0 0 0-2.157 7.238c0 5.528 3.654 11.053 10.957 15.272 14.61 8.434 38.297 8.434 52.906 0 7.305-4.219 10.956-9.744 10.956-15.272 0-2.849-1.505-5.167-2.916-8.364Z" style="fill:url(#linear-gradient-68)"/><path style="fill:url(#linear-gradient-69);mix-blend-mode:multiply" d="M1020.746 1214.359h74.724v5.036h-74.724z"/><path class="cls-69" d="m1017.087 1150.092 3.659 2.111v67.193l-3.658-2.114-.001-67.19z"/><path class="cls-70" d="m1024.407 1150.092-3.661 2.111v67.193l3.661-2.114v-67.19z"/><path d="M973.637 1125.682a47.11 47.11 0 1 1 47.109 47.112 47.108 47.108 0 0 1-47.11-47.112Z" style="fill:url(#radial-gradient)"/><path style="fill:url(#linear-gradient-70);mix-blend-mode:multiply" d="M281.181 858.678h72.35v4.876h-72.35z"/><path class="cls-69" d="m277.638 796.452 3.543 2.045v65.058l-3.541-2.046-.002-65.057z"/><path class="cls-70" d="m284.726 796.452-3.545 2.045v65.058l3.545-2.046v-65.057z"/><path d="M235.568 772.818a45.613 45.613 0 1 1 45.613 45.616 45.611 45.611 0 0 1-45.613-45.616Z" style="fill:url(#radial-gradient-2)"/><path style="fill:url(#linear-gradient-71);mix-blend-mode:multiply" d="M1384.085 727.274h64.908v5.833h-64.908z"/><path class="cls-69" d="m1384.085 733.108-4.135-2.383v-46.578l4.135 2.385v46.576z"/><path class="cls-70" d="m1384.085 733.108 4.133-2.383v-46.578l-4.133 2.385v46.576z"/><path d="m1419.488 687.837-35.402-76.665s-35.946 77.433-36.184 77.821a16.798 16.798 0 0 0-2.214 7.43c0 5.673 3.75 11.344 11.246 15.675 14.996 8.656 39.308 8.656 54.302 0 7.498-4.33 11.246-10.002 11.246-15.675 0-2.924-1.545-5.304-2.994-8.586Z" style="fill:url(#linear-gradient-72)"/><path class="cls-94" d="M969.66 611.172v-12.77C956 590.513 945.697 573.1 945.697 557.9v-51.964l32.492 18.757v-12.77l-43.553-25.145v64.735c0 22.11 15.384 48.32 35.026 59.658Z"/><path class="cls-52" d="m934.635 486.779 11.061-6.386 43.553 25.145-11.061 6.387-43.553-25.146z"/><path class="cls-95" d="M956.755 512.323v39.19c0 15.202 10.305 32.616 23.97 40.504l-11.064 6.385c-13.662-7.889-23.965-25.302-23.965-40.501v-51.964Z"/><path d="M1056.555 816.447c26.503-15.308 69.483-15.308 95.986 0 26.508 15.3 26.508 40.112 0 55.415-26.503 15.301-69.483 15.301-95.986 0-26.505-15.303-26.505-40.115 0-55.415Z" style="fill:url(#linear-gradient-73);mix-blend-mode:multiply"/><path d="M1036.379 803.219c26.507-15.306 69.482-15.306 95.99 0 26.508 15.305 26.508 40.117 0 55.419s-69.48 15.301-95.99 0c-26.501-15.302-26.501-40.114 0-55.42Z" style="fill:#f5f5f9"/><path d="M1084.379 850.403h58.902c11.228-11.312 11.892-25.157 1.998-36.766h-60.9Z" style="fill:url(#linear-gradient-74);mix-blend-mode:multiply"/><path d="M1132.37 858.638c-26.509 15.301-69.481 15.301-95.991 0-13.25-7.653-19.88-17.682-19.88-27.71v13.223c0 10.029 6.63 20.064 19.88 27.71 26.51 15.302 69.482 15.302 95.99 0 13.255-7.646 19.882-17.681 19.882-27.71v-13.223c0 10.028-6.627 20.057-19.882 27.71Z" style="fill:url(#linear-gradient-75)"/><path class="cls-52" d="M1060.529 803.935c13.169-7.602 34.526-7.602 47.693 0 13.169 7.603 13.169 19.938 0 27.535-13.167 7.603-34.524 7.603-47.693 0-13.17-7.604-13.17-19.932 0-27.535Z"/><path d="M1084.379 827.436h29.168c6.043-6.034 6.02-13.52-.074-19.536h-29.094Z" style="fill:url(#linear-gradient-76);mix-blend-mode:multiply"/><path d="M1108.222 831.47c-13.167 7.603-34.524 7.603-47.693 0-6.584-3.804-9.875-8.781-9.875-13.767v13.225c0 4.986 3.291 9.966 9.875 13.766 13.169 7.606 34.526 7.606 47.693 0 6.583-3.8 9.876-8.78 9.876-13.766v-13.225c0 4.986-3.293 9.963-9.876 13.767Z" style="fill:url(#linear-gradient-77)"/><path d="M1067.514 756.124v61.579c0 2.489 1.647 4.98 4.942 6.882 6.581 3.801 17.26 3.801 23.84 0 3.294-1.902 4.938-4.393 4.938-6.882v-61.579Z" style="fill:url(#linear-gradient-78)"/><path d="M1067.514 769.33c0 2.49 1.647 4.98 4.942 6.883 6.581 3.8 17.26 3.8 23.84 0 3.294-1.903 4.938-4.393 4.938-6.884v-13.205h-33.72Z" style="fill:url(#linear-gradient-79);mix-blend-mode:multiply"/><path d="M1229.078 555.115H939.67c0 102.086 71.146 210.738 144.709 210.738 73.558 0 144.7-108.652 144.7-210.738Z" style="fill:url(#linear-gradient-80)"/><path class="cls-52" d="M982.06 496.04c56.505-32.625 148.127-32.625 204.634.003 56.51 32.624 56.51 85.523.002 118.149-56.506 32.624-148.13 32.624-204.637 0-56.515-32.626-56.515-85.525 0-118.152Z"/><path d="M990.225 500.76c52-30.023 136.303-30.023 188.298 0 52.002 30.018 52.004 78.695.002 108.715-51.995 30.02-136.298 30.02-188.298 0-52-30.023-52-78.697-.002-108.715Z" style="fill:url(#linear-gradient-81)"/><path class="cls-95" d="m1213.299 740.361 1.39-7.352s9.255-8.939 9.255-15.047v-64.737l11.066-6.387v64.737c0 10.37-3.403 17.71-9.02 21.434h.022Z"/><path class="cls-94" d="M1188.918 737.177c19.641 11.338 35.026 2.899 35.026-19.215v-64.737l-43.553-25.147v12.771l32.496 18.762v51.964c0 15.202-10.307 20.718-23.969 12.828Z"/><path class="cls-52" d="m1180.391 628.078 11.061-6.384 43.558 25.144-11.066 6.387-43.553-25.147zM1210.808 721.554c-3.66 7.18-11.861 8.638-21.89 2.85l11.061-6.389a23.942 23.942 0 0 0 10.829 3.54Z"/><path style="fill:url(#linear-gradient-82);mix-blend-mode:multiply" d="M667.847 1047.937h-40.772l3.445 8.184h37.327v-8.184z"/><path d="M620.104 1046.903c-2.116.64-2.28 4.211-.907 6.257a8.461 8.461 0 0 0 2.561 1.145s7.208 1.897 8.762 1.816c1.556-.077 4.895-1.106 4.823-3.773-.473-1.568-1.95-2.337-3.736-3.101-2.325-.994-4.353-2.099-6.204-2.723-1.523-.513-5.3.379-5.3.379Z" style="fill:url(#linear-gradient-83)"/><path class="cls-59" d="M630.38 1055.425c-1.6.084-9.02-1.866-9.02-1.866a9.21 9.21 0 0 1-2.553-1.123 4.89 4.89 0 0 0 .39.724 8.461 8.461 0 0 0 2.561 1.145s7.208 1.897 8.762 1.816c1.556-.077 4.895-1.106 4.823-3.773-.017-.051-.043-.098-.06-.151-.438 2.259-3.44 3.155-4.903 3.228Z"/><path class="cls-60" d="M624.455 1043.967a38.399 38.399 0 0 0-4.392 2.336 2.117 2.117 0 0 1-.04 1.038c-.023.051-.04.102-.064.157-.564.713-1.101 1.917.965 2.276 4.01.699 6.947-2.318 5.319-2.986-1.094-.447-1.547-2.02-1.788-2.821Z"/><path class="cls-61" d="M626.9 1047.105a1.333 1.333 0 0 0-2.137-.162 2.838 2.838 0 0 0-.992 2.986c.261.856 2.708-.127 2.786-.273.079-.145.343-2.551.343-2.551Z"/><path class="cls-51" d="M628.272 1048.158a5.195 5.195 0 0 0-2 2.538.7.7 0 0 1-1.33-.428 6.58 6.58 0 0 1 2.618-3.314.7.7 0 0 1 .712 1.204ZM630.588 1049.24a5.183 5.183 0 0 0-1.996 2.535.7.7 0 0 1-1.333-.428 6.564 6.564 0 0 1 2.618-3.313.7.7 0 1 1 .711 1.205Z"/><path d="M614.741 974.668c4.353 24.826 9.452 51.4 10.682 70.085.513 3.023-4.136 4.03-5.948 1.541-2.447-8.825-6.17-19.5-7.532-29.303-5.323-12.452-10.62-27.635-13.058-41.539 2.888.918 12.968-1.701 15.856-.784Z" style="fill:url(#linear-gradient-84)"/><path d="M570.381 1027.641c.381 3.109.126 9.44-2.246 9.374-3.293-.092-4.416-2.677-4.761-7.176-.344-4.492-.99-9.476 1.67-10.034a7.344 7.344 0 0 1 4.847.754s.111 3.974.49 7.082Z" style="fill:url(#linear-gradient-85)"/><path class="cls-59" d="M564.32 1019.933c.194-.039.376-.051.564-.073-2.464.728-1.846 5.585-1.51 9.98.33 4.312 1.398 6.84 4.385 7.124a1.152 1.152 0 0 1-.37.054c-3.27-.092-4.385-2.658-4.725-7.123-.342-4.458-.984-9.408 1.656-9.962Z"/><path class="cls-51" d="M570.406 1028.141c-1.25.083-3.975.159-4.092.164a.664.664 0 0 1-.037-1.327c.03 0 2.817-.078 4.042-.159a.662.662 0 1 1 .087 1.322ZM570.638 1030.998a16.876 16.876 0 0 1-4.364.187.662.662 0 1 1 .051-1.324 15.616 15.616 0 0 0 4.088-.166.661.661 0 0 1 .225 1.303Z"/><path class="cls-60" d="M567.399 1020.758c-1.178 0-2.097 1.416-1.73 2.852.367 1.435 1.592 2.902 3.443 2.099 2.634-1.142-1.713-4.951-1.713-4.951Z"/><path d="M567.116 1020.573c2.246-1.782 15.234-9.055 15.234-9.055s1.907-16.553 3.268-22.594c-.474-5.913-.767-10.496 1.52-14.427l12.657 2.16 5.596 2.17s-9.371 28.636-12.388 36.028a14.46 14.46 0 0 1-5.616 7.065s-12.233 3.722-17.888 3.955c-3.289.41-3.843-3.842-2.383-5.302Z" style="fill:url(#linear-gradient-86)"/><path class="cls-60" d="M615.555 935.33c1.572 5.997 1.788 7.348 3.076 11.086 1.852-.816 7.365-2.399 11.994-6.522.943-1.334-.75-3.117 1.885-5.805 2.667-2.712 3.219-.429 3.219-.429a1.05 1.05 0 0 1 1.301.448c.454.797 1.108.206 1.243 1.016.14.81 1.397-.184 1.139 1.516-.258 1.702-1.327 2.765-3.165 4.788-4.337 6.066-19.646 14.358-20.485 13.037a79.97 79.97 0 0 1-9.604-22.72c-1.889-5.656 5.78-6.56 9.397 3.585Z"/><path d="M591.114 958.536c.533-9.262-5.96-27.796-4.677-28.825 4.314-3.46 7.035-4.107 13.96-3.935 6.928.173 10.173 1.593 11.584 6.362 1.328 4.493 1.736 5.327 2.83 9.728 1.086 4.371-2.788 7.958-3.13 13.905-.455 7.927 2.11 14.722 3.113 17.615 1.254 1.831-.03 3.856-3.884 5.288-5.814 2.164-15.24 2.164-21.057 0-2.632-.979-3.691-1.783-3.643-2.242.663-6.248 4.396-9.067 4.904-17.896Z" style="fill:url(#linear-gradient-87)"/><path class="cls-60" d="M585.28 930.881a13.154 13.154 0 0 1 4.786-3.609c2.518.173 5.098 3.605 4.258 7.964-.825 4.286-3.449 5.726-3.558 5.785-2.33 4.929-3.065 8.814-4.132 12.373a97.406 97.406 0 0 0 13.929 5.218c1.629.094 2.246-2.288 5.923-1.475 3.713.821 2.068 2.498 2.068 2.498a1.05 1.05 0 0 1 .31 1.343c-.433.805.41 1.049-.202 1.594-.613.545.897 1.084-.683 1.768-1.579.685-3.05.339-5.736-.146a115.518 115.518 0 0 1-15.62-3.64c-5.145-1.678-6.907-3.961-6.81-5.62a79.986 79.986 0 0 1 5.468-24.053ZM597.695 916.51c.122-2.13 7.411 2.11 7.25 4.921-.132 2.287-.43 4.59.427 4.886a10.213 10.213 0 0 1 3.382 3.727c.612 1.148 2.692 4.924-2.119 5.237-3.868.25-7.728-.883-9.057-3.101-1.486-2.489-3.304-4.977-5.198-5.757 2.254-.462 4.919-3.011 5.315-9.913Z"/><path class="cls-112" d="M602.07 902.4c-1.097-3.286-4.029-9.354-14.234-3.746-10.203 5.608-15.848-.03-14.6-4.53a10.752 10.752 0 0 0 12.091 15.448c8.515-2.016 13.242-10.08 14.701-5.572 1.033 3.19 2.041-1.6 2.041-1.6Z"/><path class="cls-60" d="m595.938 913.561 2.193-5.491h13.907v8.37c0 4.623-3.113 8.37-6.953 8.37-3.724 0-6.74-3.532-6.92-7.963l-.969.028Z"/><path class="cls-67" d="M599.366 921.136a6.725 6.725 0 0 0 5.431 3.652 1.932 1.932 0 0 0 .432 1.423 5.894 5.894 0 0 1-1.182-.143 6.674 6.674 0 0 1-4.68-4.932Z"/><path class="cls-112" d="M604.171 902.238a.73.73 0 0 1 .13-.001c7.586.19 8.155 5.86 7.737 6.798-2.406.86-3.923-.77-5.434-.645-.73.06-3.693.461-4.915 2.027-1.318 1.689-.898 4.384-2.14 4.32-.54-.023-.703-1.831-1.508-1.878a1.354 1.354 0 0 0-1.275 1.625c.104 1.394 1.423 2.239 1.229 2.913-.324 1.108-3.098-.882-3.045-4.84.054-3.928 2.676-10.585 9.221-10.319Z"/><path style="fill:url(#linear-gradient-88);mix-blend-mode:multiply" d="M983.079 926.469h-34.286l-3.041 9.099h37.327v-9.099z"/><path d="M888.647 933.715c2.111-7.715 5.817-4.754 5.817-4.754a28.02 28.02 0 0 0 6.104.899c4.045.26 8.14 3.417 2.515 7.442a2.427 2.427 0 0 1-.2.151 2.805 2.805 0 0 1-1.289.375l-8.73.341c-1.684.126-5-3.036-4.217-4.454Z" style="fill:url(#linear-gradient-89)"/><path class="cls-112" d="M889.021 933.114c-.739 1.441 2.545 4.536 4.213 4.411l8.73-.34a8.762 8.762 0 0 0 1.675-.324c-.178.144-.344.284-.556.441a2.427 2.427 0 0 1-.2.151 2.805 2.805 0 0 1-1.289.375l-8.73.341c-1.573.116-4.653-2.536-4.323-4.156a2.004 2.004 0 0 1 .123-.296 6.4 6.4 0 0 1 .357-.603Z"/><path class="cls-51" d="M892.405 926.528a45.63 45.63 0 0 1 5.246 2.744 2.52 2.52 0 0 0 .054 1.237 1.295 1.295 0 0 1 .077.188c.684.844 1.274 2.044-1.129 2.717a2.941 2.941 0 0 1-3.58-1.336 3.478 3.478 0 0 0-.785-1.685 3.116 3.116 0 0 0-.992-.81.818.818 0 0 0 .023-.107s.57-3.1 1.086-2.948Z"/><path d="M901.725 846.744c-.312 13.417 1.446 32.945 1.976 46.237-6.52 10.931-9.437 23.646-11.79 34.094.261 2.241 4.209 4.259 5.734 2.453 5.774-10.399 15.673-22.498 18.793-35.123 2.466-14.347 5.625-32.448 7.461-47.263-4.927-.09-17.244-.308-22.174-.398Z" style="fill:url(#linear-gradient-90)"/><path d="M939.498 932.491c0-7.867 4.991-8.094 4.991-8.094a20.614 20.614 0 0 0 7.089-1.821c4.328-1.798 10.43-1.107 7.02 5.186a1.572 1.572 0 0 1-.121.234 3.031 3.031 0 0 1-1.104.971l-10.897 6.391c-1.662.948-6.938-1.246-6.978-2.867Z" style="fill:url(#linear-gradient-91)"/><path class="cls-112" d="M939.528 931.787c.093 1.618 5.3 3.768 6.948 2.827l10.897-6.392a9.908 9.908 0 0 0 1.537-1.123c-.102.22-.186.433-.311.663a1.572 1.572 0 0 1-.122.234 3.031 3.031 0 0 1-1.104.971l-10.897 6.391c-1.554.887-6.284-.978-6.907-2.549a1.612 1.612 0 0 1-.05-.321 4.84 4.84 0 0 1 .009-.701Z"/><path class="cls-51" d="M941.525 923.361a45.881 45.881 0 0 1 5.808 1.148 2.555 2.555 0 0 0 .402 1.171c.046.05.083.102.126.152.893.62 1.802 1.605-.315 2.932a2.937 2.937 0 0 1-3.812-.271 3.5 3.5 0 0 0-1.229-1.394 3.134 3.134 0 0 0-1.18-.498.417.417 0 0 0-.01-.105s-.325-3.135.21-3.135Z"/><path d="M936.26 860.923c-4.877.714-29.89-11.869-34.766-11.151 1.087 23.285 16.7 30.548 36.88 41.303 0 0 .541 23.923 2.843 33.84 1.216 1.906 5.647 2 6.23-.284.674-11.879 3.98-22.027 3.982-36.218 0-9.388-6.423-17.195-15.17-27.49Z" style="fill:url(#linear-gradient-92)"/><path d="M908.398 810.099c-1.002-5.489-.36-24.825.608-29.701.968-4.876 10.344-26.67 10.344-26.67 1.698 1.114 4.829 2.918 4.829 2.918-1.063 3.015-7.52 21.848-8.05 25.668-.531 3.82-.74 18.052.675 19.75 1.415 1.697-8.406 8.035-8.406 8.035Z" style="fill:url(#linear-gradient-93)"/><path d="M958.844 776.172c-1.38 4.1-6.45 16.897-10.302 23.355-1.865 3.126-7.155 7.034-10.954 9.34a4.066 4.066 0 0 1-4.578-.25c-1.183-.899-2.52-2.042-3.935-3.333-3.402-3.104-5.699-6.058-7.449-6.416-14.444-2.947-15.716 21.448-20.252 50.224a19.981 19.981 0 0 0 10.574 14.874c10.558 5.926 21.61 5.94 25.379-1.347-1.41-13.568-2.73-24.61-.01-37.61 7.757-4.814 14.839-12.343 18.468-20.106 4.509-9.648 7.925-23.91 8.418-26.461 0 0-2.263-.99-5.36-2.27Z" style="fill:url(#linear-gradient-94)"/><path class="cls-120" d="M912.845 801.603c2.665-2.797 3.248-7.183 3.146-10.3a15.233 15.233 0 0 1-.31-5.39c.81-6.817 5.851-12.186 11.126-11.185 10.628 2.011 8.05 7.42 7.24 14.233-.752 6.314-4.131 10.317-9.007 10.481a5.12 5.12 0 0 0 2.185 4.079c-3.079 2.724-8.32 2.684-10.486 2.153-2.307-.566-5.063-2.307-3.894-4.071Z"/><path d="M931.254 771.602c-.215-.866-1.816-1.51-7.49.348-.035.015-1.376.46-1.461.492-10.52 3.924-8.639 15.92-7.262 19.154a6.36 6.36 0 0 1 .617 3.775c4.057.042 5.219 2.383 7.926.246 1.94-1.528 4.818-3.291 5.327-4.064a3.159 3.159 0 0 0 .479-1.945c.303-5.69 2.753-2.078 2.597-.779 1.103-.466 1.151-2.758 1.207-5.302 9.07-6.075 4.61-10.81-1.94-11.925Z" style="fill:#121149"/><path class="cls-120" d="M959.387 776.398a3.58 3.58 0 0 0 0-3.039c-.578-.796-.95-4.51 1.226-4.828 0-.69 1.751-2.14 3.997-.496 2.246 1.645 2.742 3.997 1.946 5.377s-2.53 3.604-2.883 4.8c-.769-.33-4.286-1.814-4.286-1.814ZM919.838 754.041c.433-1.074-.204-4.328.716-5.743.92-1.415 2.264-2.76 4.174-1.627 1.91 1.131 2.476 2.42 2.193 3.473a2.257 2.257 0 0 1-.783 3.247 4.986 4.986 0 0 0-2.564 2.903c-.717-.42-3.736-2.253-3.736-2.253Z"/><path d="M953.94 808.337c-3.555 5.06-14.078 13.128-17.15 13.88-3.078.751-5.306 2.556-5.2 3.192a21.055 21.055 0 0 1 1.199 9.445c-.667 4.875-1.786 25.653 4.056 28.546.164-.257.338-.504.482-.781-1.41-13.568-2.73-24.61-.01-37.61a51.915 51.915 0 0 0 16.623-16.672Z" style="fill:url(#linear-gradient-95);mix-blend-mode:multiply"/><path class="cls-50" d="M469.574 797.693a11.047 11.047 0 0 1 9.995 0c2.761 1.596 2.761 4.177 0 5.77a11.029 11.029 0 0 1-9.993 0c-2.761-1.593-2.763-4.174-.002-5.77Z"/><path d="M497.341 770.539c-.371-3.735-9.94-2.863-16.571 5.026-6.622 7.642-8.005 19.375-6.196 25.013 1.472-5.835 6.473-14.393 12.138-19.332 5.563-5.063 11.328-6.667 10.63-10.707Z" style="fill:url(#linear-gradient-96)"/><path d="M451.804 770.539c.371-3.735 9.94-2.863 16.571 5.026 6.622 7.642 8.005 19.375 6.199 25.013-1.476-5.835-6.477-14.393-12.143-19.332-5.561-5.063-11.326-6.667-10.627-10.707Z" style="fill:url(#linear-gradient-97)"/><path d="M458.804 790.173c1.728 3.622 5.184 2.562 7.886 2.914 2.742-.553 6.41 3.83 7.884 7.491 1.7-2.561 2.754-12.167-5.581-15.383-7.414-2.386-11.99 1.91-10.19 4.978Z" style="fill:url(#linear-gradient-98)"/><path class="cls-50" d="M1260.558 975.122a12.154 12.154 0 0 1 10.996 0c3.036 1.754 3.036 4.594 0 6.347a12.146 12.146 0 0 1-10.992 0c-3.038-1.753-3.04-4.593-.004-6.347Z"/><path d="M1291.1 945.253c-.408-4.106-10.933-3.148-18.228 5.53-7.281 8.406-8.803 21.31-6.814 27.512 1.62-6.418 7.12-15.83 13.352-21.264 6.118-5.57 12.458-7.332 11.69-11.778Z" style="fill:url(#linear-gradient-99)"/><path d="M1248.713 966.85c1.9 3.985 5.7 2.82 8.675 3.206 3.015-.61 7.05 4.213 8.67 8.24 1.872-2.818 3.03-13.383-6.136-16.921-8.157-2.626-13.192 2.1-11.21 5.475Z" style="fill:url(#linear-gradient-100)"/><path class="cls-50" d="M557.213 1175.614a9.226 9.226 0 0 1 8.348 0c2.305 1.332 2.305 3.488 0 4.818a9.22 9.22 0 0 1-8.345 0c-2.306-1.33-2.307-3.486-.003-4.818Z"/><path d="M580.4 1152.94c-.31-3.118-8.3-2.391-13.838 4.198-5.528 6.38-6.684 16.177-5.174 20.885a36.572 36.572 0 0 1 10.137-16.143c4.644-4.228 9.458-5.566 8.875-8.94Z" style="fill:url(#linear-gradient-101)"/><path d="M548.221 1169.335c1.442 3.024 4.328 2.14 6.586 2.434 2.289-.463 5.352 3.198 6.581 6.254 1.422-2.138 2.301-10.159-4.658-12.845-6.192-1.994-10.014 1.595-8.509 4.157Z" style="fill:url(#linear-gradient-102)"/><path d="m1336.73 422.796-12.68 7.319c-7.403 4.277-17.602-19.067-25.89-14.281l-22.222 12.829c-16.572 9.566-10.587-18.287-35.373-3.98-29.123 16.818-26.74 50.57-43.308 60.136l-22.221 12.831c-8.283 4.783-10.547 24.588-17.953 28.862l-12.68 7.323c-2.764 1.592-8.035 5.994-8.035 11.767 3.767-2.172 104.197-60.159 104.197-60.159s100.43-57.983 104.2-60.158c0-5.772-5.274-4.086-8.036-2.49Z" style="fill:#e8ecf7"/><path style="fill:url(#linear-gradient-103);mix-blend-mode:multiply" d="m860.279 1140.368 18.87 10.896-18.87 10.895 52.412-10.895-52.412-10.896z"/><path class="cls-132" d="M860.279 1118.32v43.839l-18.871-10.893 18.871-32.946z"/><path class="cls-133" d="M860.279 1118.32v43.839l18.87-10.893-18.87-32.946z"/><path style="fill:url(#linear-gradient-104);mix-blend-mode:multiply" d="m105.312 978.003 14.43 8.332-14.43 8.331 40.08-8.331-40.08-8.332z"/><path class="cls-132" d="M105.312 961.143v33.523l-14.43-8.33 14.43-25.193z"/><path class="cls-133" d="M105.312 961.143v33.523l14.43-8.33-14.43-25.193z"/></g></g></g></svg>