<svg xmlns="http://www.w3.org/2000/svg" id="Layer_1" x="0" y="0" enable-background="new 0 0 1364 960" version="1.1" viewBox="0 0 1364 960" xml:space="preserve"><ellipse cx="393.17" cy="461.39" fill="#fff8d9" rx="77.75" ry="37.94" transform="rotate(-71.174 393.166 461.385)"/><ellipse cx="994.47" cy="226.39" fill="#fff8d9" rx="37.63" ry="77.12" transform="rotate(-60 994.491 226.403)"/><path fill="#302d70" d="M1210.13,870.11H153.87c-1.49,0-2.7,1.21-2.7,2.7s1.21,2.7,2.7,2.7h1056.25c1.49,0,2.7-1.21,2.7-2.7
			S1211.62,870.11,1210.13,870.11z"/><path fill="#302d70" d="M711.21,898.92h-59.76c-1.49,0-2.7,1.21-2.7,2.7s1.21,2.7,2.7,2.7h59.76c1.49,0,2.7-1.21,2.7-2.7
			S712.7,898.92,711.21,898.92z"/><path fill="#302d70" d="M965.14,898.92H749.53c-1.49,0-2.7,1.21-2.7,2.7s1.21,2.7,2.7,2.7h215.61c1.49,0,2.7-1.21,2.7-2.7
			S966.63,898.92,965.14,898.92z"/><path fill="#87ad34" d="M224.81,600.91c-2.09-3.45-1.62-8.09,0.6-11.46c2.21-3.37,5.93-5.55,9.82-6.58c3.9-1.02,8-0.99,12.02-0.66
		c6.65,0.54,13.44,1.97,19.16,5.3c-2.68-9.42-6.08-18.64-10.18-27.56c-0.37-0.81-0.76-1.61-1.14-2.42
		c-6.13,3.36-12.26,6.72-18.39,10.07c-4.09,2.24-8.31,4.52-12.94,5.07c-4.63,0.55-9.84-1.04-12.25-5.03
		c-2.09-3.45-1.62-8.09,0.6-11.46c2.21-3.37,5.92-5.55,9.82-6.58c3.9-1.02,8-0.99,12.02-0.66c6.86,0.56,13.87,2.06,19.7,5.62
		c-4.85-9.75-10.51-19.09-16.91-27.9c-6.34,3.16-12.68,6.33-19.02,9.49c-4.17,2.08-8.48,4.2-13.13,4.57
		c-4.65,0.37-9.79-1.41-12.05-5.5c-1.95-3.53-1.31-8.14,1.04-11.42s6.13-5.32,10.07-6.2c3.94-0.87,8.03-0.68,12.04-0.2
		c6.41,0.77,12.92,2.37,18.4,5.69c-4.78-6.26-9.93-12.24-15.44-17.87c-1.63-1.67-3.31-3.29-5-4.89c-6.63,3.04-13.26,6.08-19.89,9.12
		c-4.24,1.94-8.61,3.92-13.27,4.14c-4.66,0.22-9.74-1.73-11.86-5.89c-1.84-3.59-1.04-8.18,1.41-11.38c2.45-3.2,6.31-5.12,10.27-5.86
		c3.96-0.74,8.05-0.42,12.04,0.2c5.7,0.88,11.45,2.42,16.43,5.22c-5.93-5.23-12.2-10.07-18.77-14.5
		c-7.09-0.47-14.19-0.95-21.28-1.42c-4.66-0.31-9.44-0.65-13.65-2.68c-4.21-2.03-7.75-6.16-7.64-10.82
		c0.09-4.03,2.98-7.68,6.66-9.33c3.68-1.65,7.98-1.49,11.83-0.26c3.84,1.23,7.29,3.47,10.5,5.9c5.93,4.49,11.42,9.99,14.29,16.81
		c0.02,0.01,0.04,0.02,0.07,0.04c6.99,4.7,13.65,9.87,19.94,15.47c-2.86-5.28-4.25-11.38-4.91-17.39c-0.44-4.01-0.6-8.11,0.31-12.04
		c0.91-3.93,2.99-7.7,6.29-10.01c3.3-2.31,7.92-2.91,11.43-0.93c4.06,2.3,5.8,7.46,5.38,12.11s-2.58,8.93-4.7,13.08
		c-3.23,6.33-6.46,12.65-9.69,18.98c7.49,7.08,14.4,14.76,20.65,22.95c-1.72-6.08-1.59-12.68-0.69-18.99
		c0.57-3.99,1.43-8,3.29-11.58c1.86-3.58,4.81-6.72,8.58-8.13c3.77-1.42,8.4-0.86,11.31,1.94c3.37,3.23,3.77,8.66,2.21,13.06
		c-1.56,4.4-4.71,8.01-7.8,11.5c-4.7,5.32-9.39,10.64-14.09,15.96c0.19,0.26,0.39,0.52,0.58,0.78c6.21,8.64,11.7,17.78,16.43,27.29
		c-1.05-7,0.51-14.26,2.92-20.97c1.36-3.79,3.02-7.54,5.57-10.67c2.54-3.13,6.07-5.6,10.05-6.23c3.98-0.62,8.4,0.86,10.69,4.19
		c2.64,3.85,1.94,9.24-0.48,13.23c-2.42,3.99-6.24,6.89-9.97,9.68c-5.86,4.4-11.72,8.79-17.58,13.19c0.06,0.13,0.13,0.27,0.19,0.4
		l0.21,0.03c-0.05,0.03-0.1,0.06-0.15,0.08c4.45,9.33,8.17,19.02,11.08,28.95c1.61-6.15,5.06-11.83,9.03-16.87
		c2.54-3.23,5.35-6.32,8.82-8.53c3.47-2.21,7.67-3.47,11.72-2.8c4.05,0.67,7.84,3.52,8.98,7.47c1.32,4.57-1.1,9.55-4.72,12.63
		c-3.62,3.08-8.25,4.66-12.75,6.16c-6.4,2.14-12.8,4.28-19.2,6.43c-0.18,0.1-0.36,0.2-0.54,0.3c2.92,11.02,4.83,22.29,5.67,33.66
		c0.09,1.2-1.77,1.57-1.86,0.35c-0.83-11.18-2.7-22.25-5.53-33.07c-5.82,3.19-11.63,6.37-17.45,9.56
		c-4.09,2.24-8.31,4.52-12.94,5.07C232.43,606.49,227.22,604.91,224.81,600.91z"/><path fill="#fff8d9" d="M1119.86,636.77c12.66-25.14,77.18-153.29,17.05-231.38c-34.87-45.29-78.82-31.09-164.12-81.67
			c-116.12-68.85-99.95-133.88-183.3-173.05c-111-52.17-297.26-10.89-351.68,81.67c-52.62,89.49,55.29,163.51,4.26,295.55
			c-38.4,99.35-118.6,106.87-117.23,171.11c1.97,92.64,166.17,153,319.07,165.6C852.19,881.76,1046.13,783.21,1119.86,636.77z"/><path fill="#87ad34" d="M1087.75,539.88c3.41-2.96,4.49-8.06,3.29-12.4c-1.2-4.34-4.41-7.94-8.21-10.37
		c-3.8-2.43-8.18-3.79-12.58-4.82c-7.27-1.7-14.99-2.51-22.22-0.91c6.08-9.12,12.86-17.77,20.27-25.86
		c0.67-0.74,1.36-1.46,2.05-2.19c5.38,5.67,10.76,11.35,16.13,17.02c3.59,3.79,7.3,7.66,12.04,9.83c4.74,2.17,10.83,2.27,14.77-1.16
		c3.41-2.96,4.49-8.06,3.29-12.4c-1.2-4.34-4.41-7.94-8.21-10.37s-8.18-3.79-12.58-4.82c-7.5-1.75-15.48-2.56-22.9-0.76
		c8.5-8.72,17.72-16.73,27.56-23.92c5.67,5.54,11.34,11.08,17.01,16.62c3.73,3.64,7.59,7.37,12.41,9.36
		c4.82,1.99,10.91,1.85,14.71-1.73c3.29-3.09,4.18-8.22,2.81-12.52s-4.71-7.77-8.6-10.04c-3.89-2.28-8.32-3.48-12.75-4.33
		c-7.09-1.37-14.57-1.9-21.54-0.24c7.23-5.03,14.76-9.63,22.56-13.74c2.31-1.22,4.65-2.37,7-3.5c6.02,5.5,12.04,11.01,18.05,16.51
		c3.85,3.52,7.83,7.12,12.71,8.95c4.89,1.83,10.96,1.49,14.65-2.21c3.19-3.2,3.91-8.36,2.4-12.6c-1.51-4.25-4.96-7.61-8.93-9.76
		c-3.97-2.15-8.43-3.2-12.89-3.91c-6.37-1.02-13.02-1.35-19.29-0.06c8.11-3.54,16.44-6.55,24.95-9.01
		c7.72,1.93,15.43,3.85,23.15,5.78c5.06,1.26,10.28,2.54,15.45,1.82c5.17-0.72,10.36-3.9,11.84-8.91c1.28-4.33-0.54-9.2-3.89-12.22
		c-3.35-3.01-7.99-4.33-12.5-4.33c-4.51,0-8.94,1.2-13.21,2.69c-7.85,2.75-15.58,6.73-20.97,13.01c-0.03,0.01-0.05,0.01-0.08,0.02
		c-9.05,2.61-17.92,5.84-26.53,9.65c4.85-4.64,8.42-10.66,11.18-16.84c1.84-4.12,3.41-8.43,3.79-12.93
		c0.37-4.5-0.54-9.22-3.27-12.82c-2.73-3.59-7.43-5.81-11.85-4.9c-5.11,1.06-8.73,5.96-9.88,11.05s-0.31,10.39,0.52,15.54
		c1.27,7.84,2.55,15.68,3.82,23.52c-10.4,4.97-20.39,10.79-29.85,17.37c3.92-5.88,6.03-12.96,7.24-19.98
		c0.76-4.45,1.21-9.01,0.46-13.46c-0.75-4.45-2.82-8.8-6.35-11.6c-3.53-2.8-8.65-3.79-12.71-1.81c-4.69,2.29-6.98,7.93-6.83,13.15
		c0.15,5.22,2.28,10.14,4.37,14.92c3.18,7.27,6.36,14.55,9.54,21.82c-0.29,0.21-0.59,0.42-0.88,0.64
		c-9.56,7.07-18.54,14.92-26.84,23.43c3.51-7.09,4.34-15.36,4.07-23.32c-0.15-4.51-0.64-9.07-2.28-13.27
		c-1.64-4.2-4.54-8.04-8.57-10.07c-4.03-2.03-9.24-1.96-12.81,0.8c-4.13,3.19-5.23,9.18-4.02,14.25c1.21,5.07,4.29,9.47,7.3,13.72
		c4.74,6.69,9.47,13.37,14.21,20.06c-0.11,0.12-0.23,0.24-0.34,0.36l-0.23-0.04c0.04,0.05,0.09,0.09,0.13,0.14
		c-7.94,8.42-15.21,17.45-21.71,27.03c0.39-7.1-1.34-14.33-3.84-21.06c-1.6-4.31-3.53-8.56-6.47-12.1
		c-2.94-3.54-6.98-6.32-11.52-6.99c-4.55-0.67-9.56,1.07-12.12,4.88c-2.97,4.41-2.1,10.55,0.7,15.07c2.8,4.52,7.19,7.78,11.47,10.93
		c6.08,4.47,12.17,8.94,18.25,13.42c0.16,0.17,0.32,0.33,0.47,0.5c-6.88,10.74-12.78,22.08-17.57,33.9
		c-0.51,1.25,1.35,2.28,1.86,1.01c4.71-11.62,10.49-22.77,17.21-33.33c5.1,5.38,10.2,10.77,15.3,16.15
		c3.59,3.78,7.3,7.66,12.04,9.83C1077.72,543.22,1083.81,543.31,1087.75,539.88z"/><path fill="#ffc83f" d="M1081.62,258.65L903.47,678.04l-2.4,5.67l-12.93,30.45l-5.63,13.25l-4.34,10.19l-5.63,13.25l-4.88,11.49
			l-5.62,13.27l-8.41,19.79l23.31,11.25l9.89-19.75l6.47-12.89l5.59-11.17l6.46-12.87l4.96-9.91l6.44-12.88l13.51-26.93l3.74-7.48
			l204.73-408.62c8.26-16.51,3.29-35.7-10.95-42.2l-6.26-2.84C1107.03,232.5,1088.96,241.35,1081.62,258.65z"/><path fill="#e6d2c3" d="M1121.51,239.11l6.26,2.84c2.93,1.34,5.44,3.23,7.55,5.51c-12.26-0.81-25.16,7.32-31.32,21.03L912.16,681.67
			l2.45,8.02l-13.56,30.17l-5.91,13.13l-4.55,10.1l-5.91,13.13l-5.11,11.39l-5.9,13.15l-8.82,19.61l12.14,6.17l-0.06,0.11
			l-23.31-11.25l8.41-19.79l5.62-13.27l4.88-11.49l5.63-13.25l4.34-10.19l5.63-13.25l12.93-30.45l2.4-5.67l178.15-419.39
			C1088.96,241.35,1107.03,232.5,1121.51,239.11z"/><polygon fill="#8a5451" points="903.47 678.04 901.07 683.71 888.14 714.16 882.5 727.41 878.16 737.6 872.53 750.85 867.66 762.34 862.03 775.61 853.62 795.4 876.93 806.65 886.82 786.91 893.29 774.01 898.88 762.84 905.33 749.97 910.29 740.06 916.73 727.18 930.24 700.25 933.99 692.76"/><ellipse cx="864.11" cy="803.31" fill="#ffc83f" rx="7.75" ry="18.96" transform="rotate(-65.513 864.06 803.272)"/><path fill="#939598" d="M998.04,520.75l11.54,5.57c0.69,0.34,1.53,0.04,1.86-0.65l114.62-237.53c0.33-0.69,0.04-1.53-0.65-1.86
			l-11.54-5.57c-0.69-0.34-1.53-0.04-1.86,0.65L997.39,518.88C997.06,519.58,997.35,520.41,998.04,520.75z"/><path fill="#fff2db" d="M365.68,851.37c-8.7,11.19-21.99,17.81-36.15,18.07l-36.21,0.66c-7.15,0.13-14.16-1.38-20.5-4.3
			c-6.2-2.85-11.79-7.08-16.28-12.44c-81.94-97.92-40.74-218.34,18.67-311.38c1.54-2.41,5.69-6.97,7.92-12.95
			c2.01-5.34,2.47-11.82-1.82-18.87c-0.96-1.64-2.21-3.3-3.74-4.98c-3.46-3.82-6.39-8.27-8.79-13.16
			c-2.84-5.77-4.97-12.13-6.35-18.79c-7.68-36.48,6.08-81.55,39.68-82.17l1.17-0.02c3.06-0.06,5.99,0.27,8.73,0.94
			c27.48,6.51,39.69,46.34,33.91,79.72c-1.14,6.7-3.03,13.14-5.66,19.01c-2.22,4.97-4.99,9.53-8.31,13.47
			c-1.46,1.73-2.65,3.46-3.55,5.11c-4.03,7.22-3.33,13.66-1.15,18.93c2.44,5.89,6.75,10.3,8.41,12.65
			C394.36,624,443.99,750.53,365.68,851.37z"/><path fill="#e64835" d="M327.25,528.22l-44.13,0.81c2.01-5.34,2.47-11.82-1.82-18.87l47.1-0.86
			C324.37,516.52,325.07,522.95,327.25,528.22z"/><path fill="#e64835" d="M345.92,471.7c-1.14,6.7-3.03,13.14-5.66,19.01l-71.49,1.3c-2.84-5.77-4.97-12.13-6.35-18.79L345.92,471.7z"/><path fill="#f0dec9" d="M365.68,851.37c-8.7,11.19-21.99,17.81-36.15,18.07l-36.21,0.66c-7.15,0.13-14.16-1.38-20.5-4.3
			c145.26-79.77,99.36-251.95,53.01-314.13c-14.68-19.7-32.42-22.83-32.42-22.83c60.46-36.09,40.13-124.02,18.6-136.86
			c27.48,6.51,39.69,46.34,33.91,79.72c-1.14,6.7-3.03,13.14-5.66,19.01c-2.22,4.97-4.99,9.53-8.31,13.47
			c-1.46,1.73-2.65,3.46-3.55,5.11c-4.03,7.22-3.33,13.66-1.15,18.93c2.44,5.89,6.75,10.3,8.41,12.65
			C394.36,624,443.99,750.53,365.68,851.37z"/><ellipse cx="269.77" cy="699.11" fill="#bcbec0" rx="89.6" ry="37.29" transform="rotate(-85.837 269.765 699.089)"/><ellipse cx="291.85" cy="451.94" fill="#bcbec0" rx="47.14" ry="19.62" transform="rotate(-88.298 291.83 451.92)"/><g><path fill="#ffb24d" d="M532.94,583.82c0,0,0,0-0.03,0.05c-35.12,15.18-55.66,50.7-66.08,86.11l0.01,0.04
					c-8.08,27.49-11.19,56.33-10.96,84.89l-0.04,0.01c0.06,2.62,0.14,5.21,0.23,7.76c-29.89,6.92-66.04,7.69-91.65-7.63
					c-23.55-95.68,70.62-193.01,168.4-171.19L532.94,583.82z"/><path fill="#302d70" d="M533.65,583.51c-0.24,0.09-0.43,0.2-0.66,0.33c-0.05-0.02-0.05-0.02-0.05-0.02
					C533.18,583.73,533.41,583.6,533.65,583.51z"/><path fill="#302d70" d="M532.82,583.86c0.03,0.01,0.18-0.12,0.09,0.01c-35.12,15.18-55.66,50.7-66.08,86.11l0.01,0.04
					c-8.05,27.48-11.23,56.33-10.96,84.89l-0.04,0.01c0.05,2.63,0.12,5.2,0.23,7.76c-15.88,3.74-32.31,5.35-47.64,4.47
					C398.6,654.19,433.22,561.31,532.82,583.86z"/><path fill="#ffb24d" d="M534.4,583.19c-0.48,0.18-0.95,0.39-1.41,0.65c-0.05-0.02-0.05-0.02-0.05-0.02
					C533.43,583.62,533.92,583.39,534.4,583.19z"/><path fill="#fff" d="M533,583.84c-0.05-0.02-0.05-0.02-0.05-0.02c0.48-0.2,0.97-0.42,1.46-0.62
					C533.92,583.37,533.45,583.59,533,583.84z"/><path fill="#fff" d="M583.22,603.84c-60.17,13.82-82.67,73.47-70.53,132.57c-18.66,13.81-35.07,21.23-56.58,26.25
					c-0.13-2.51-0.14-5.25-0.23-7.76l0.04-0.01c-0.31-28.54,2.87-57.39,10.92-84.87l-0.01-0.04c10.28-35.37,31.18-71.06,66.08-86.11
					C550.8,587.32,567.86,594.16,583.22,603.84z"/><path fill="#302d70" d="M372.23,780.45c-0.16-0.08-0.34-0.19-0.48-0.33c0.16,0.08,0.3,0.21,0.47,0.29
				C372.23,780.45,372.23,780.45,372.23,780.45z"/><path fill="#ffb24d" d="M590.1,842.17c-71.36,56.44-185.88,22.65-217.85-61.68c55.1,38.25,128.46,12.44,181.16-18.14
				C573.18,783.9,591.09,813.8,590.1,842.17z"/><path fill="#ffb24d" d="M372.23,780.45c-0.16-0.08-0.34-0.19-0.48-0.33c0.16,0.08,0.3,0.21,0.47,0.29
				C372.23,780.45,372.23,780.45,372.23,780.45z"/><path fill="#302d70" d="M579.42,799.53c-79.12,54.34-173.29,75.79-207.18-19.04c55.1,38.25,128.46,12.44,181.16-18.14
				C563.89,773.72,572.94,786.52,579.42,799.53z"/><path fill="#ddddeb" d="M548.87,762.68c-2.71,1.44-5.52,2.88-8.33,4.31c-1.38,0.73-2.78,1.38-4.21,2.08
				c-4.41,2.16-8.87,4.19-13.51,6.11c-1.03,0.42-2.02,0.83-3,1.28c-3.93,1.62-8.02,3.15-12.13,4.65
				c-6.09,2.18-12.33,4.22-18.69,5.91c-2.6,0.77-5.19,1.39-7.78,2.06c-2.65,0.6-5.31,1.21-7.91,1.7c-0.24,0.09-0.44,0.16-0.66,0.19
				c-1.95,0.39-3.95,0.8-5.88,1.14c-5.87,1.05-11.72,1.77-17.65,2.15c-1.89,0.19-3.87,0.27-5.83,0.39c-3.9,0.19-7.8,0.25-11.63,0.14
				c-1.94-0.07-3.86-0.19-5.77-0.31c-1.07-0.06-2.15-0.13-3.21-0.29c-2-0.23-3.98-0.42-6.04-0.67c-2.03-0.31-4.11-0.64-6.13-1.05
				c-1.04-0.22-1.98-0.42-3.01-0.63c-0.7-0.16-1.34-0.29-1.99-0.46c-1-0.23-2.01-0.5-3.02-0.77c-2.04-0.58-3.99-1.19-5.95-1.8
				c-1.97-0.65-3.93-1.39-5.81-2.17c-1.33-0.52-2.59-1.11-3.9-1.68c-0.81-0.34-1.59-0.74-2.32-1.11c-0.55-0.26-1.08-0.47-1.61-0.78
				c-0.89-0.45-1.84-0.93-2.77-1.45c-0.59-0.38-1.27-0.72-1.85-1.06l-0.05-0.02c-0.77-0.49-1.52-0.91-2.29-1.4
				c-0.72-0.47-1.48-0.92-2.22-1.47c-0.73-0.51-1.51-1-2.24-1.51c-0.43-0.3-0.86-0.6-1.29-0.9c-0.01-0.04-0.01-0.04-0.03-0.08
				c-2.42-6.64-4.33-13.38-5.74-20.12l-0.01-0.04c-1.98-9.54-3.59-18.51-3.63-27.99c0.01-1.6-0.04-3.76-0.01-5.32
				c7.25,8.12,18.82,18.01,33.26,24.7c3.09,1.47,6.23,2.7,9.38,3.7c1.29,0.4,2.57,0.8,3.83,1.11c14.44,3.95,29.45,3.58,44.51-0.18
				l0.08-0.03c1.37-0.36,2.71-0.71,4.05-1.16c15.39-4.47,30.69-12.43,45.54-23.23c0.07-0.07,0.21-0.17,0.36-0.27
				c0.21-0.17,0.46-0.35,0.72-0.54c1.69,0.89,3.33,1.75,4.94,2.67c0.4,0.22,0.85,0.46,1.27,0.72l0.01,0.04
				c1.07,0.57,2.11,1.15,3.14,1.73c0.69,0.39,1.35,0.83,2.06,1.26c5.61,3.38,10.65,6.93,15.2,10.52
				C536.12,748.72,542.76,755.42,548.87,762.68z"/><path fill="#fff" d="M553.39,762.31c-52.68,30.65-126.01,56.45-181.15,18.18l-0.01-0.04c-7.06-17.07-11.38-35.98-11.45-54.25
				c39.13,45.52,99.6,39.91,144.66,1.32c2.11,1.03,4.29,2.01,6.34,3.12l0.01,0.04C528.14,738.51,541.25,749.1,553.39,762.31z"/><path fill="#ddddeb" d="M545.25,767.01c-1.2,0.71-2.51,1.37-3.79,2.11c-15.78-34.12-38.97-39.3-38.97-39.3
				c0.65-0.46,1.25-0.96,1.88-1.46c0.07-0.07,0.21-0.17,0.36-0.27c0.21-0.17,0.45-0.39,0.7-0.58c0.66,0.31,1.33,0.65,1.99,0.96
				c1.48,0.69,2.93,1.4,4.34,2.16l0.01,0.04c1.92,0.89,3.62,1.78,5.34,2.75c5.76,3.15,10.93,6.46,15.64,9.85
				c7.26,5.65,14.21,12.06,20.63,19.03C550.72,763.88,548.02,765.46,545.25,767.01z"/><path fill="#ddddeb" d="M590.1,842.17c-0.39,0.55-0.76,1.05-1.2,1.58c-10.16,7.17-21.41,13.1-33.65,17.57
				c-3.87,1.41-7.75,2.64-11.65,3.7c-1.57,0.44-3.12,0.82-4.71,1.22c10.09-20.11,13.8-36.2,13.98-50.08
				c0.19-14.49-3.47-26.52-7.73-38.2c-1.15-3.14-2.39-6.06-3.68-8.83c1.31-0.66,2.55-1.39,3.81-2.07c2.82-1.53,5.53-3.11,8.14-4.7
				c10.49,11.37,19.54,24.17,26.02,37.18C586.61,813.97,590.71,828.72,590.1,842.17z"/><g><path fill="#ffb24d" d="M641.43,676.23c22.37,61.49,0.64,128.74-50.58,166.13c19.16-48.83-4.32-101.52-34.01-140.88
					c-2.62-3.56-18.5-16.33-21.31-19.65c-6.98-8.46-14.33-16.24-21.97-23.69c15.29-25.02,36.59-47.64,63.48-57.97
					c2.14,1.2,4.11,2.38,6.18,3.68l0.01,0.04C609.18,620.33,630.09,645.14,641.43,676.23z"/><path fill="#302d70" d="M633.21,793.51c-10.09,18.98-24.51,35.96-42.36,48.85c19.16-48.83-4.32-101.52-34.01-140.88
					c-2.62-3.56-18.5-16.33-21.31-19.65c-6.98-8.46-14.33-16.24-21.97-23.69c8.35-13.63,18.42-26.29,29.4-36.46
					C608.01,675.79,643.02,745.9,633.21,793.51z"/><path fill="#fff" d="M589.85,750.06c14.94,47.7,9.02,76.37,2.92,90.91c-14.39,10.82-31.38,19.26-49.17,24.05
					c27.75-42.55,12.79-100.93-26.47-131.59c-76.12-36.61-4.03-75.16-3.59-75.24C539.49,668.48,575.16,709.04,589.85,750.06z"/></g><path fill="#ddddeb" d="M581.87,603.01c-8.79,3.3-22.15,9.81-35.03,22.04c-4.73,4.42-9.37,9.58-13.72,15.68
				c-4.74,6.65-8.9,13.51-12.46,20.38c-0.49,0.91-0.98,1.82-1.43,2.71c-13.25,26.46-17.82,52.08-15.17,63.47
				c-14.94-23.2,9.47-69.1,9.47-69.1c0.04-0.01,0.05,0.02,0.09,0.01c-0.01-0.04-0.05-0.02-0.07-0.06
				c8.35-13.63,18.42-26.29,29.4-36.46c9.8-9.14,22.57-17.04,34.08-21.51C578.71,601.11,580.27,602,581.87,603.01z"/><ellipse cx="439.43" cy="663.73" fill="#a7a9ac" rx="77.45" ry="44.19" transform="rotate(-45.001 439.421 663.735)"/><path fill="#ddddeb" d="M638.28,668.68l0.01-0.04c-0.98-2.24-1.95-4.34-3.03-6.52c-6.94-14.14-16.17-27.09-27.29-38.32
			c-0.04-0.01-0.07-0.06-0.07-0.06c67.58,120.02-98.07,265.3-229.57,169.89c16.67,31.24,44.66,56.29,80.14,68.52
			c3.82,1.32,7.73,2.49,11.71,3.5c12.63,3.2,25.26,4.64,37.7,4.43c0.79,0.02,1.59,0.01,2.4-0.05c0.8-0.02,1.56-0.05,2.36-0.06
			c21.26-1.02,41.78-6.78,60.15-16.45c34.99-18.36,62.36-50.95,72.84-92.29C653.76,729.16,650.45,696.88,638.28,668.68z"/></g><g><path fill="#1a6960" d="M336.16,378.19c47.33,100.98,148.86,153.24,226.77,116.73c77.91-36.52,102.71-147.98,55.38-248.97
			S469.45,92.71,391.54,129.23C313.62,165.74,288.83,277.21,336.16,378.19z M347.42,372.91c-44.34-94.61-22.18-198.88,49.4-232.43
			s165.89,16.13,210.24,110.74s22.18,198.88-49.4,232.43S391.76,467.53,347.42,372.91z"/><path fill="#ffb24d" d="M607.05,251.23c-6.77-14.45-14.71-27.84-23.56-40.06l11.45-5.37c8.74,12.31,16.61,25.73,23.36,40.15
				c18.03,38.47,25.58,78.46,23.73,115.25l-12.84,6.02C632.26,330.65,625.28,290.12,607.05,251.23z"/><path fill="#ffc83f" d="M347.42,372.91c18.23,38.89,44.91,70.19,74.97,91.23l-12.84,6.02c-29.46-22.11-55.36-53.5-73.39-91.97
				c-6.76-14.42-12.04-29.05-15.91-43.64l11.45-5.37C335.43,343.79,340.65,358.47,347.42,372.91z"/><path fill="#1a6960" d="M428.8,483c0,0,152.68,90.48,183.71,154.4l14.1-6.61l14.1-6.61c-29.27-64.74-1.13-239.97-1.13-239.97
			C609.35,487.53,537.39,517.56,428.8,483z M537.95,528.67c-3.8-2.87-2.57-8.87,2.06-9.98c20.41-4.92,39.03-13.64,55.86-26.18
			c3.82-2.84,9.22,0.05,8.99,4.8c-1.38,28.83-1.18,54.17,0.61,75.91c0.43,5.21-5.84,8.14-9.56,4.48
			C580.33,562.42,560.99,546.05,537.95,528.67z"/><path fill="#1a6960" d="M607.48,624.62l26.63-12.48c37.99,56.51,66.44,116.55,84.56,180.42l-26.63,12.48
			C654.54,750.25,626.6,689.97,607.48,624.62z"/><path fill="#ffb24d" d="M681.63,797.19l37.66-17.65c1.77-0.83,3.87-0.07,4.7,1.7l3.48,7.43c0.83,1.77,0.07,3.87-1.7,4.7
			l-37.66,17.65c-1.77,0.83-3.87,0.07-4.7-1.7l-3.48-7.43C679.11,800.12,679.87,798.02,681.63,797.19z"/><path fill="#b6b5eb" d="M383.82,412.71l9.93,21.19l-3.98,1.86c0.45,0.48,0.9,0.95,1.35,1.43l3.42-1.6l4.4,9.38
				c1.2,1.14,2.41,2.25,3.63,3.36l-6.34-13.53l21.19-9.93l9.93,21.19l-17.77,8.33c0.53,0.44,1.06,0.88,1.59,1.31l16.98-7.96
				l9.93,21.19l-4.84,2.27c0.64,0.39,1.28,0.78,1.93,1.16l3.71-1.74l2.42,5.16c0.91,0.49,1.82,0.96,2.73,1.43l-3.46-7.38l21.19-9.93
				l9.93,21.19l-9.11,4.27c0.83,0.3,1.66,0.6,2.49,0.89l7.41-3.47l3.15,6.72c0.78,0.21,1.56,0.41,2.34,0.6l-3.8-8.12l21.2-9.93
				l9.93,21.19l-1.54,0.72c1.37,0.07,2.74,0.12,4.1,0.14l21.12-9.9l3.6,7.67c0.63-0.13,1.25-0.26,1.88-0.39l-3.78-8.07l21.19-9.93
				l4.94,10.54c0.28-0.13,0.57-0.25,0.85-0.38c0.28-0.13,0.56-0.28,0.84-0.41l-4.94-10.54l21.19-9.93l3.78,8.07
				c0.5-0.39,1.01-0.79,1.5-1.19l-3.6-7.67l21.12-9.9c0.86-1.06,1.69-2.15,2.52-3.24l-1.54,0.72l-9.93-21.19l21.19-9.93l3.8,8.12
				c0.35-0.73,0.7-1.45,1.04-2.19l-3.15-6.72l7.41-3.47c0.31-0.82,0.61-1.65,0.91-2.49l-9.11,4.27l-9.93-21.19l21.19-9.93l3.46,7.38
				c0.22-1,0.44-2,0.65-3.01l-2.42-5.16l3.71-1.74c0.12-0.74,0.23-1.48,0.34-2.22l-4.84,2.27l-9.93-21.19l16.98-7.96
				c0.01-0.69,0-1.38,0.01-2.06l-17.77,8.33l-9.93-21.19l21.2-9.93l6.34,13.53c-0.07-1.64-0.15-3.29-0.26-4.94l-4.4-9.38l3.42-1.6
				c-0.07-0.65-0.15-1.3-0.23-1.95l-3.98,1.86l-9.93-21.19l9.68-4.54c-0.14-0.62-0.3-1.23-0.44-1.85l-10.03,4.7l-9.93-21.19
				l13.31-6.24c-0.21-0.59-0.4-1.18-0.61-1.77l-13.49,6.32l-9.93-21.19l14.55-6.82c-0.13-0.28-0.26-0.57-0.39-0.85
				s-0.27-0.56-0.4-0.84l-14.55,6.82l-9.93-21.19l13.49-6.32c-0.32-0.54-0.65-1.07-0.97-1.6l-13.31,6.24l-9.93-21.19l10.03-4.7
				c-0.38-0.51-0.76-1.02-1.14-1.53l-9.68,4.54l-9.93-21.19l3.98-1.86c-0.45-0.48-0.9-0.95-1.35-1.43l-3.42,1.6l-4.4-9.38
				c-1.2-1.14-2.41-2.25-3.63-3.36l6.34,13.53l-21.2,9.93l-9.93-21.19l17.78-8.33c-0.53-0.44-1.06-0.88-1.59-1.31l-16.98,7.96
				l-9.93-21.19l4.84-2.27c-0.64-0.39-1.28-0.78-1.93-1.16l-3.71,1.74l-2.42-5.16c-0.91-0.49-1.82-0.96-2.73-1.43l3.46,7.38
				l-21.19,9.93l-9.93-21.19l9.11-4.27c-0.83-0.3-1.66-0.6-2.49-0.89l-7.41,3.47l-3.15-6.72c-0.78-0.21-1.56-0.41-2.34-0.6l3.8,8.12
				l-21.19,9.93l-9.93-21.19l1.54-0.72c-1.37-0.07-2.74-0.12-4.1-0.14l-21.12,9.9l-3.6-7.68c-0.63,0.13-1.25,0.26-1.88,0.39
				l3.78,8.07l-21.19,9.93l-4.94-10.54c-0.28,0.13-0.57,0.25-0.85,0.38c-0.28,0.13-0.56,0.28-0.84,0.41l4.94,10.54l-21.19,9.93
				l-3.78-8.07c-0.5,0.39-1.01,0.79-1.5,1.19l3.6,7.68l-21.12,9.9c-0.86,1.06-1.69,2.15-2.52,3.24l1.54-0.72l9.93,21.19l-21.2,9.93
				l-3.8-8.12c-0.35,0.73-0.7,1.45-1.04,2.19l3.15,6.72l-7.41,3.47c-0.31,0.82-0.61,1.65-0.91,2.49l9.11-4.27l9.93,21.19
				l-21.19,9.93l-3.46-7.38c-0.22,1-0.44,2-0.65,3.01l2.42,5.16l-3.71,1.74c-0.12,0.74-0.23,1.48-0.34,2.22l4.84-2.27l9.93,21.19
				l-16.98,7.96c-0.01,0.69,0,1.38-0.01,2.06l17.77-8.33l9.93,21.19l-21.19,9.93l-6.34-13.53c0.07,1.64,0.15,3.29,0.26,4.94
				l4.4,9.38l-3.42,1.6c0.07,0.65,0.15,1.3,0.23,1.95l3.98-1.86l9.93,21.19l-9.68,4.54c0.14,0.62,0.3,1.23,0.45,1.85l10.03-4.7
				l9.93,21.19l-13.31,6.24c0.2,0.59,0.4,1.18,0.61,1.77l13.49-6.32l9.93,21.19l-14.55,6.82c0.13,0.28,0.26,0.57,0.39,0.85
				s0.27,0.56,0.4,0.84l14.55-6.82l9.93,21.19l-13.49,6.32c0.32,0.54,0.65,1.07,0.97,1.6l13.31-6.24l9.93,21.19l-10.03,4.7
				c0.38,0.51,0.76,1.02,1.14,1.53L383.82,412.71z M591.46,315.39l21.2-9.93l9.93,21.19l-21.2,9.93L591.46,315.39z M580.73,292.5
				l21.2-9.93l9.93,21.19l-21.2,9.93L580.73,292.5z M570.01,269.62l21.2-9.93l9.93,21.19l-21.2,9.93L570.01,269.62z M559.28,246.74
				l21.2-9.93l9.93,21.19l-21.2,9.93L559.28,246.74z M548.56,223.85l21.2-9.93l9.93,21.19l-21.2,9.93L548.56,223.85z M537.83,200.97
				l21.2-9.93l9.93,21.19l-21.2,9.93L537.83,200.97z M590.02,371.88l21.19-9.93l9.93,21.19l-21.19,9.93L590.02,371.88z M579.3,349
				l21.19-9.93l9.93,21.19l-21.19,9.93L579.3,349z M568.57,326.11l21.19-9.93l9.93,21.19l-21.19,9.93L568.57,326.11z M557.85,303.23
				l21.19-9.93l9.93,21.19l-21.19,9.93L557.85,303.23z M547.12,280.35l21.19-9.93l9.93,21.19l-21.19,9.93L547.12,280.35z
				 M536.4,257.46l21.19-9.93l9.93,21.19l-21.19,9.93L536.4,257.46z M525.67,234.58l21.19-9.93l9.93,21.19l-21.19,9.93
				L525.67,234.58z M514.95,211.7l21.19-9.93l9.93,21.19l-21.19,9.93L514.95,211.7z M504.22,188.81l21.19-9.93l9.93,21.19
				l-21.19,9.93L504.22,188.81z M493.5,165.93l21.19-9.93l9.93,21.19l-21.19,9.93L493.5,165.93z M577.87,405.49l21.19-9.93
				l9.93,21.19l-21.19,9.93L577.87,405.49z M567.14,382.6l21.19-9.93l9.93,21.19l-21.19,9.93L567.14,382.6z M556.42,359.72
				l21.19-9.93l9.93,21.19l-21.19,9.93L556.42,359.72z M545.69,336.84l21.19-9.93l9.93,21.19l-21.19,9.93L545.69,336.84z
				 M534.97,313.95l21.19-9.93l9.93,21.19l-21.19,9.93L534.97,313.95z M524.24,291.07l21.19-9.93l9.93,21.19l-21.19,9.93
				L524.24,291.07z M513.52,268.19l21.19-9.93l9.93,21.19l-21.19,9.93L513.52,268.19z M502.79,245.3l21.19-9.93l9.93,21.19
				l-21.19,9.93L502.79,245.3z M492.07,222.42l21.19-9.93l9.93,21.19L502,243.62L492.07,222.42z M481.34,199.54l21.19-9.93
				l9.93,21.19l-21.19,9.93L481.34,199.54z M470.62,176.65l21.19-9.93l9.93,21.19l-21.19,9.93L470.62,176.65z M459.89,153.77
				l21.19-9.93l9.93,21.19l-21.19,9.93L459.89,153.77z M565.71,439.1l21.2-9.93l9.93,21.19l-21.2,9.93L565.71,439.1z M554.98,416.21
				l21.2-9.93l9.93,21.19l-21.2,9.93L554.98,416.21z M544.26,393.33l21.2-9.93l9.93,21.19l-21.2,9.93L544.26,393.33z M533.53,370.45
				l21.2-9.93l9.93,21.19l-21.2,9.93L533.53,370.45z M522.81,347.56l21.2-9.93l9.93,21.19l-21.2,9.93L522.81,347.56z M512.08,324.68
				l21.2-9.93l9.93,21.19l-21.2,9.93L512.08,324.68z M501.36,301.8l21.2-9.93l9.93,21.19l-21.2,9.93L501.36,301.8z M490.63,278.91
				l21.2-9.93l9.93,21.19l-21.2,9.93L490.63,278.91z M479.91,256.03l21.2-9.93l9.93,21.19l-21.2,9.93L479.91,256.03z M469.18,233.15
				l21.2-9.93l9.93,21.19l-21.2,9.93L469.18,233.15z M458.46,210.26l21.2-9.93l9.93,21.19l-21.2,9.93L458.46,210.26z M447.73,187.38
				l21.2-9.93l9.93,21.19l-21.2,9.93L447.73,187.38z M437.01,164.5l21.2-9.93l9.93,21.19l-21.2,9.93L437.01,164.5z M426.28,141.61
				l21.2-9.93l9.93,21.19l-21.2,9.93L426.28,141.61z M542.82,449.82l21.19-9.93l9.93,21.19l-21.19,9.93L542.82,449.82z
				 M532.1,426.94l21.19-9.93l9.93,21.19l-21.19,9.93L532.1,426.94z M521.37,404.06l21.19-9.93l9.93,21.19l-21.19,9.93
				L521.37,404.06z M510.65,381.17l21.19-9.93l9.93,21.19l-21.19,9.93L510.65,381.17z M499.92,358.29l21.19-9.93l9.93,21.19
				l-21.19,9.93L499.92,358.29z M489.2,335.41l21.19-9.93l9.93,21.19l-21.19,9.93L489.2,335.41z M478.47,312.52l21.19-9.93
				l9.93,21.19l-21.19,9.93L478.47,312.52z M467.75,289.64l21.19-9.93l9.93,21.19l-21.19,9.93L467.75,289.64z M457.02,266.75
				l21.19-9.93l9.93,21.19l-21.19,9.93L457.02,266.75z M446.3,243.87l21.19-9.93l9.93,21.19l-21.19,9.93L446.3,243.87z
				 M435.57,220.99l21.19-9.93l9.93,21.19l-21.19,9.93L435.57,220.99z M424.85,198.1l21.19-9.93l9.93,21.19l-21.19,9.93
				L424.85,198.1z M414.12,175.22l21.19-9.93l9.93,21.19l-21.19,9.93L414.12,175.22z M403.4,152.34l21.19-9.93l9.93,21.19
				l-21.19,9.93L403.4,152.34z M519.94,460.55l21.19-9.93l9.93,21.19l-21.19,9.93L519.94,460.55z M509.22,437.66l21.19-9.93
				l9.93,21.19l-21.19,9.93L509.22,437.66z M498.49,414.78l21.19-9.93l9.93,21.19l-21.19,9.93L498.49,414.78z M487.77,391.9
				l21.19-9.93l9.93,21.19l-21.19,9.93L487.77,391.9z M477.04,369.01l21.19-9.93l9.93,21.19l-21.19,9.93L477.04,369.01z
				 M466.32,346.13l21.19-9.93l9.93,21.19l-21.19,9.93L466.32,346.13z M455.59,323.25l21.19-9.93l9.93,21.19l-21.19,9.93
				L455.59,323.25z M444.87,300.36l21.19-9.93l9.93,21.19l-21.19,9.93L444.87,300.36z M434.14,277.48l21.19-9.93l9.93,21.19
				l-21.19,9.93L434.14,277.48z M423.42,254.6l21.19-9.93l9.93,21.19l-21.19,9.93L423.42,254.6z M412.69,231.71l21.19-9.93
				l9.93,21.19l-21.19,9.93L412.69,231.71z M401.97,208.83l21.19-9.93l9.93,21.19l-21.19,9.93L401.97,208.83z M391.24,185.95
				l21.19-9.93l9.93,21.19l-21.19,9.93L391.24,185.95z M380.51,163.06l21.19-9.93l9.93,21.19l-21.19,9.93L380.51,163.06z
				 M497.06,471.27l21.19-9.93l9.93,21.19l-21.19,9.93L497.06,471.27z M486.33,448.39l21.19-9.93l9.93,21.19l-21.19,9.93
				L486.33,448.39z M475.61,425.51l21.19-9.93l9.93,21.19l-21.19,9.93L475.61,425.51z M464.88,402.62l21.19-9.93l9.93,21.19
				l-21.19,9.93L464.88,402.62z M454.16,379.74l21.19-9.93l9.93,21.19l-21.19,9.93L454.16,379.74z M443.43,356.85l21.19-9.93
				l9.93,21.19l-21.19,9.93L443.43,356.85z M432.71,333.97l21.19-9.93l9.93,21.19l-21.19,9.93L432.71,333.97z M421.98,311.09
				l21.19-9.93l9.93,21.19l-21.19,9.93L421.98,311.09z M411.26,288.2l21.19-9.93l9.93,21.19l-21.19,9.93L411.26,288.2z
				 M400.53,265.32l21.19-9.93l9.93,21.19l-21.19,9.93L400.53,265.32z M389.81,242.44L411,232.5l9.93,21.19l-21.19,9.93
				L389.81,242.44z M379.08,219.55l21.19-9.93l9.93,21.19l-21.19,9.93L379.08,219.55z M368.36,196.67l21.19-9.93l9.93,21.19
				l-21.19,9.93L368.36,196.67z M357.63,173.79l21.19-9.93l9.93,21.19l-21.19,9.93L357.63,173.79z M463.45,459.11l21.2-9.93
				l9.93,21.19l-21.2,9.93L463.45,459.11z M452.72,436.23l21.2-9.93l9.93,21.19l-21.2,9.93L452.72,436.23z M442,413.35l21.2-9.93
				l9.93,21.19l-21.2,9.93L442,413.35z M431.27,390.46l21.2-9.93l9.93,21.19l-21.2,9.93L431.27,390.46z M420.55,367.58l21.2-9.93
				l9.93,21.19l-21.2,9.93L420.55,367.58z M409.82,344.7l21.2-9.93l9.93,21.19l-21.2,9.93L409.82,344.7z M399.1,321.81l21.2-9.93
				l9.93,21.19l-21.2,9.93L399.1,321.81z M388.37,298.93l21.2-9.93l9.93,21.19l-21.2,9.93L388.37,298.93z M377.65,276.05l21.2-9.93
				l9.93,21.19l-21.2,9.93L377.65,276.05z M366.92,253.16l21.2-9.93l9.93,21.19l-21.2,9.93L366.92,253.16z M356.2,230.28l21.2-9.93
				l9.93,21.19l-21.2,9.93L356.2,230.28z M345.47,207.4l21.2-9.93l9.93,21.19l-21.2,9.93L345.47,207.4z M429.84,446.96l21.19-9.93
				l9.93,21.19l-21.19,9.93L429.84,446.96z M419.12,424.07l21.19-9.93l9.93,21.19l-21.19,9.93L419.12,424.07z M408.39,401.19
				l21.19-9.93l9.93,21.19l-21.19,9.93L408.39,401.19z M397.67,378.31l21.19-9.93l9.93,21.19l-21.19,9.93L397.67,378.31z
				 M386.94,355.42l21.19-9.93l9.93,21.19l-21.19,9.93L386.94,355.42z M376.22,332.54l21.19-9.93l9.93,21.19l-21.19,9.93
				L376.22,332.54z M365.49,309.65l21.19-9.93l9.93,21.19l-21.19,9.93L365.49,309.65z M354.77,286.77l21.19-9.93l9.93,21.19
				l-21.19,9.93L354.77,286.77z M344.04,263.89l21.19-9.93l9.93,21.19l-21.19,9.93L344.04,263.89z M333.31,241l21.19-9.93
				l9.93,21.19l-21.19,9.93L333.31,241z M385.51,411.91l21.19-9.93l9.93,21.19l-21.19,9.93L385.51,411.91z M374.78,389.03
				l21.19-9.93l9.93,21.19l-21.19,9.93L374.78,389.03z M364.06,366.15l21.19-9.93l9.93,21.19l-21.19,9.93L364.06,366.15z
				 M353.33,343.26l21.19-9.93l9.93,21.19l-21.19,9.93L353.33,343.26z M342.61,320.38l21.19-9.93l9.93,21.19l-21.19,9.93
				L342.61,320.38z M331.88,297.5l21.19-9.93l9.93,21.19l-21.19,9.93L331.88,297.5z"/><path fill="#ffc83f" d="M605.25,629.34l33.91-15.89c3.63-1.7,7.95-0.14,9.65,3.49l5.58,11.9c1.7,3.63,0.14,7.95-3.49,9.65
			l-33.91,15.89c-3.63,1.7-7.95,0.14-9.65-3.49l-5.58-11.9C600.06,635.36,601.62,631.04,605.25,629.34z"/></g><g><polygon fill="#ffc83f" points="885.43 675.89 714.65 675.89 768.7 502.37 831.38 502.37"/><polygon fill="#e8dacc" points="831.38 502.37 815.1 502.37 868.61 674.16 715.18 674.16 714.65 675.89 885.43 675.89"/><path fill="#ffc83f" d="M884.49,615.37h-169.9c-9.18,0-16.61,7.44-16.61,16.61v70.28c0,9.18,7.44,16.61,16.61,16.61l169.9,0
				c9.18,0,16.61-7.44,16.61-16.61v-70.28C901.1,622.8,893.66,615.37,884.49,615.37z"/><path fill="#e8dacc" d="M886.44,615.49v69.96c0,9.17-7.43,16.6-16.6,16.6H699.91c-0.66,0-1.3-0.05-1.94-0.12v0.34
				c0,9.17,7.43,16.6,16.6,16.6H884.5c9.17,0,16.6-7.43,16.6-16.6v-70.3C901.1,623.46,894.69,616.45,886.44,615.49z"/><path fill="#ffc83f" d="M901.82,746.76H696.39c-9.85,0-17.83-7.98-17.83-17.83l0,0c0-9.85,7.98-17.83,17.83-17.83h205.43
				c9.85,0,17.83,7.98,17.83,17.83l0,0C919.64,738.78,911.66,746.76,901.82,746.76z"/><path fill="#ffc83f" d="M799.97,533.32L799.97,533.32c-26.88,0-48.67-21.79-48.67-48.67l0,0h97.34l0,0
						C848.64,511.53,826.85,533.32,799.97,533.32z"/><path fill="#e8dacc" d="M835.7,484.65c-3.6,23.33-23.76,41.19-48.1,41.19l0,0c-6.63,0-12.94-1.33-18.7-3.73
					c8.43,7,19.25,11.2,31.06,11.2l0,0c26.88,0,48.67-21.79,48.67-48.67l0,0H835.7z"/><path fill="#ffc83f" d="M915.46,433.82l-10.95-34.21c69.97-22.4,106.89-70.08,116.18-150.07c0.91-7.84-1.49-15.42-6.76-21.34
						c-5.32-5.97-12.65-9.26-20.64-9.26h-75.26v-35.92l75.26,0c18.12,0,35.42,7.76,47.47,21.29c12.01,13.48,17.7,31.48,15.62,49.38
						c-5.59,48.16-21.04,87.96-45.91,118.3C987.29,400.25,955.33,421.06,915.46,433.82z"/><path fill="#e8dacc" d="M1007.9,223.1c-1.14-2.53-2.67-4.91-4.59-7.07c-5.32-5.97-12.65-9.26-20.64-9.26l-64.65,0v12.16h75.26
						C998.58,218.94,1003.58,220.39,1007.9,223.1z"/><path fill="#e8dacc" d="M1040.75,204.31c-1.67-1.88-3.45-3.63-5.31-5.28c8.32,12.42,12.06,27.49,10.31,42.49
						c-5.59,48.16-21.04,87.96-45.91,118.3c-21.98,26.82-51.89,46.9-88.93,59.79l4.55,14.21c39.87-12.76,71.83-33.57,95-61.84
						c24.87-30.34,40.31-70.14,45.91-118.3C1058.45,235.79,1052.76,217.79,1040.75,204.31z"/><path fill="#ffc83f" d="M683.31,431.75c-39.87-12.76-74.11-34.08-97.29-62.35c-24.87-30.34-40.31-70.14-45.91-118.3
						c-2.08-17.9,3.61-35.9,15.62-49.38c12.05-13.53,29.35-21.29,47.47-21.29h75.26v35.92H603.2c-7.99,0-15.32,3.29-20.64,9.26
						c-5.27,5.92-7.67,13.5-6.76,21.34c9.29,79.98,46.21,127.67,116.18,150.07L683.31,431.75z"/><g><path fill="#e8dacc" d="M670.5,198.22h-75.26c-7.99,0-15.32,3.29-20.64,9.26c-5.27,5.92-7.67,13.5-6.76,21.34
						c3.3,28.43,10.12,52.76,20.64,73.35c-6.1-16.37-10.3-34.72-12.68-55.21c-0.91-7.84,1.49-15.42,6.76-21.34
						c5.32-5.97,12.65-9.26,20.64-9.26h75.26v-35.92h-7.96V198.22z"/><path fill="#e8dacc" d="M679.6,392.66l-6.54,20.44c-39.87-12.76-71.83-33.57-95-61.84c-8.66-10.57-16.16-22.31-22.51-35.13
						c7.71,20.09,17.88,37.9,30.48,53.27c23.17,28.27,57.42,49.59,97.29,62.35l8.67-34.73C687.73,395.67,683.61,394.21,679.6,392.66
						z"/></g><g><path fill="#ffc83f" d="M934.88,170.3l0,191.4c0,77.42-64.16,140.47-141.49,136.87c-71.64-3.34-128.7-62.48-128.7-134.94l0-193.4
					c0-9.09,7.95-16.12,16.97-15.02c78.09,9.47,156.79,9.91,236.17,0.07C926.88,154.16,934.88,161.18,934.88,170.3z"/><path fill="#e8dacc" d="M934.88,178.64v15.32c-5.17,2.06-11.94,4.3-20.7,6.45c-22.29,5.49-57.45,10.42-111.83,10.42
					c-73.91,0-115.93-8.48-137.66-15.2v-17.61c11.79,4.11,54.95,16.85,136.36,16.85c50.06,0,88.07-5.62,113.14-11.05
					C922.52,182,929.43,180.2,934.88,178.64z"/><path fill="#e8dacc" d="M934.88,178.64v184.98c0,37.3-15.12,71.08-39.57,95.52c-24.45,24.45-58.23,39.57-95.53,39.57
					c-36.85,0-70.25-14.76-94.63-38.69c10.62,6.95,22.29,12.46,34.7,16.22c12.42,3.76,25.59,5.79,39.24,5.79
					c74.62,0,135.1-60.49,135.1-135.09V183.81C922.52,182,929.43,180.2,934.88,178.64z"/></g><path fill="#6d6e71" d="M685.03,247.06c0,0-9.92,159.14,30.62,189.76c40.54,30.62,63.83,22.43,63.83,22.43
				s-47.12-20.92-58.22-49.17C710.47,382.64,685.03,247.06,685.03,247.06z"/><path fill="#302d70" d="M939.39,736.41H657.24c-7.36,0-13.32,5.97-13.32,13.32v107.05c0,7.36,5.96,13.32,13.32,13.32h282.15
			c7.36,0,13.32-5.97,13.32-13.32V749.73C952.71,742.38,946.74,736.41,939.39,736.41z"/><path fill="#4c4ca8" d="M891.38,771.89H706.4c-5.14,0-9.31,4.17-9.31,9.31v47.69c0,5.14,4.17,9.31,9.31,9.31l184.98,0
			c5.14,0,9.31-4.17,9.31-9.31V781.2C900.69,776.06,896.52,771.89,891.38,771.89z"/></g><g><path fill="#302d70" d="M682.83,796.13h-369.3c-5.37,0-9.72,4.35-9.72,9.72c0,5.37,4.35,9.72,9.72,9.72h369.3
			c5.37,0,9.72-4.35,9.72-9.72C692.55,800.48,688.2,796.13,682.83,796.13z"/><path fill="#cbcbcf" d="M680.51,801.59H315.27c-1.93,0-3.5,1.57-3.5,3.5c0,1.93,1.57,3.5,3.5,3.5h365.24c1.93,0,3.5-1.57,3.5-3.5
			C684.01,803.15,682.44,801.59,680.51,801.59z"/><ellipse cx="657" cy="805.85" fill="#ffc83f" rx="12.12" ry="26.8"/><path fill="#e64835" d="M655.61,845.12c-0.2,0.99-0.4,1.98-0.64,2.9c-0.56,2.54-1.19,4.8-1.98,6.75c-0.2,0.52-0.44,1.03-0.64,1.47
					c-0.75,1.51-1.55,2.78-2.46,3.65c-1.03,0.99-1.98,1.75-2.62,2.26c0,0-1.15,0.79-2.42,1.47c-1.47,0.79-6.23,1.23-12.98,0.64
					c-1.07-0.12-2.22-0.24-3.41-0.4c-1.71-0.24-3.49-0.56-5.36-0.91c0.44-4.76,0.91-9.29,1.31-13.54c0.16-1.39,0.28-2.7,0.4-4.01
					c1.63-16.48,2.7-28.07,2.98-31.76c0.28-3.77,0.28-6.63,0.32-7.86c0.32-9.88,0.64-20.17-0.44-30.29
					c-0.28-2.62-0.71-5.68-1.39-9.13c-1.03-5.4-2.66-11.67-5.2-18.66c2.14-0.4,4.21-0.71,6.11-0.95c1.23-0.16,2.38-0.28,3.49-0.36
					c6.83-0.6,11.67-0.2,13.1,0.56c1.27,0.63,2.42,1.43,2.42,1.43c0.67,0.48,1.63,1.23,2.7,2.22c0.91,0.83,1.71,2.02,2.46,3.45
					c0.2,0.48,0.44,0.91,0.64,1.39c1.27,2.94,2.3,6.75,3.1,10.92c0.36,1.83,0.67,3.73,0.95,5.64c1.51,10.16,2.06,21.28,2.26,27.59
					c0.08,3.26,0.12,5.24,0.12,5.24v0.64C658.43,805.46,658.71,828.61,655.61,845.12z"/><path fill="#821a99" d="M637.31,820.67c-0.32,7.46-0.95,16.59-2.26,24.65c-0.67,4.13-1.55,8.02-2.62,11.23
					c-1.07,3.22-2.38,5.76-3.97,7.3c-1.11,1.07-2.14,1.91-2.82,2.42c-0.87,0.63-1.71,1.15-2.54,1.59c-2.5,1.27-5.12,1.91-7.58,2.14
					c-3.89-0.28-7.23-1.31-9.17-1.98c2.06-6.19,4.29-13.74,6.07-22.51c2.3-11.19,3.97-24.3,3.93-38.94v-2.14
					c-0.44-26.16-6.15-47.32-11.16-61.25c1.95-0.75,5.24-1.83,9.13-2.14c2.5,0.16,5.08,0.75,7.62,1.98
					c0.83,0.44,1.71,0.91,2.58,1.55c0.64,0.48,1.59,1.19,2.66,2.18c0.08,0.04,0.16,0.12,0.2,0.16c3.37,3.1,5.6,10.72,7.11,19.45
					c0.16,0.83,0.32,1.71,0.44,2.58c0.91,6.15,1.55,12.62,1.95,18.42c0.32,4.61,0.48,8.77,0.6,11.87c0.12,3.57,0.12,5.76,0.12,5.76
					v0.64C637.59,805.62,637.67,812.05,637.31,820.67z"/><path fill="#e64835" d="M637.31,820.67c-0.32,7.46-0.95,16.59-2.26,24.65c-0.67,4.13-1.55,8.02-2.62,11.23
					c-1.07,3.22-2.38,5.76-3.97,7.3c-1.11,1.07-2.14,1.91-2.82,2.42c-0.87,0.63-1.71,1.15-2.54,1.59c-2.5,1.27-5.12,1.91-7.58,2.14
					c-5.4,0.48-10.32-0.99-12.9-1.91c-0.04,0-0.08-0.04-0.12-0.04c2.06-6.19,4.29-13.78,6.07-22.55c1.55-7.38,2.78-15.64,3.41-24.61
					c0.36-4.56,0.52-9.37,0.52-14.29v-2.14c-0.12-5.91-0.48-11.55-1.03-16.91c-0.83-7.66-2.02-14.77-3.45-21.2
					c-2.02-9.05-4.41-16.83-6.67-23.14c0.04-0.04,0.08-0.04,0.12-0.04c2.3-0.87,6.43-2.22,11.12-2.22c0.56,0,1.15,0.04,1.75,0.08
					c2.5,0.16,5.08,0.75,7.62,1.98c0.83,0.44,1.71,0.91,2.58,1.55c0.64,0.48,1.59,1.19,2.66,2.18c0.08,0.04,0.16,0.12,0.2,0.16
					c3.37,3.1,5.6,10.72,7.11,19.45c0.16,0.83,0.32,1.71,0.44,2.58c0.91,6.15,1.55,12.62,1.95,18.42c0.32,4.61,0.48,8.77,0.6,11.87
					c0.12,3.57,0.12,5.76,0.12,5.76v0.64C637.59,805.62,637.67,812.05,637.31,820.67z"/><path fill="#b2b2b5" d="M655.1,766.36h-47.08c-2.02-9.05-4.41-16.83-6.67-23.14c0.04-0.04,0.08-0.04,0.12-0.04
					c2.3-0.87,6.43-2.22,11.12-2.22c0.56,0,1.15,0.04,1.75,0.08c2.5,0.16,5.08,0.75,7.62,1.98c0.83,0.44,1.71,0.91,2.58,1.55
					c0.64,0.48,1.59,1.19,2.66,2.18c1.23-0.16,2.38-0.28,3.49-0.36c6.83-0.6,11.67-0.2,13.1,0.56c1.27,0.63,2.42,1.43,2.42,1.43
					c0.67,0.48,1.63,1.23,2.7,2.22c0.91,0.83,1.71,2.02,2.46,3.45c0.2,0.48,0.44,0.91,0.64,1.39
					C653.27,758.38,654.3,762.19,655.1,766.36z"/><path fill="#b2b2b5" d="M654.98,848.02c-0.56,2.54-1.19,4.8-1.98,6.75c-0.2,0.52-0.44,1.03-0.64,1.47
					c-0.75,1.51-1.55,2.78-2.46,3.65c-1.03,0.99-1.98,1.75-2.62,2.26c0,0-1.15,0.79-2.42,1.47c-1.47,0.79-6.23,1.23-12.98,0.64
					c-0.95,0.87-1.79,1.55-2.38,1.98c-0.87,0.63-1.71,1.15-2.54,1.59c-3.85,1.98-7.86,2.42-11.43,2.18
					c-5.4,0.48-10.32-0.99-12.9-1.91c-3.53,0-7.23-9.37-9.92-22.43c8.77,1.79,19.45,3.33,31.72,3.73c3.18,0.12,6.47,0.16,9.88,0.08
					C641.72,849.37,648.63,848.81,654.98,848.02z"/><path fill="#7a2323" d="M588.48,805.92c0.15,13.5,1.81,28.1,4.22,39.76c2.7,13.06,6.36,22.43,9.91,22.42l0.02,0
					c3.56-0.04,6.98-9.49,9.38-22.6c2.15-11.72,3.47-26.37,3.35-39.83c-0.27-28.54-7.18-62.14-13.89-62.52
					c-0.04-0.01-0.09-0.01-0.13-0.01C594.6,743.21,588.16,777.09,588.48,805.92z"/><path fill="#ffc83f" d="M592.23,805.71c-0.17-18.78,2.12-34.47,5.33-38.14l0,0c0,0,0,0,0,0c0.29-0.33,0.59-0.57,0.89-0.7
					c0.58-0.34,1.39-0.65,2.31-0.45c0.67,0.14,1.14,0.5,1.41,0.74c0,0-0.56,1.47-0.6,1.47c-0.1,0-0.21,0.02-0.35,0.03
					c2.89,5.06,5.09,19.67,5.25,36.92c0.16,17.76-1.88,32.75-4.81,37.44l0.95,1.41c-0.27,0.16-0.99,0.56-1.98,0.5
					c-1.32-0.08-2.13-0.92-2.3-1.1c0,0,0,0,0,0C595.02,840.36,592.4,824.62,592.23,805.71z"/><ellipse cx="601.57" cy="805.63" fill="#ffc83f" rx="7.12" ry="38.89" transform="matrix(1 -.00922 .00922 1 -7.402 5.58)"/><path fill="#7a2323" d="M638.9,845.28c-0.83,5.28-1.98,10.08-3.53,13.7c-0.87,2.06-1.91,3.73-3.06,4.84
					c-0.12,0.16-0.28,0.28-0.44,0.44c-0.95,0.87-1.79,1.55-2.38,1.98c-0.87,0.63-1.71,1.15-2.54,1.59
					c-3.85,1.98-7.86,2.42-11.43,2.18c2.46-0.24,5.08-0.87,7.58-2.14c0.83-0.44,1.67-0.95,2.54-1.59c0.67-0.52,1.71-1.35,2.82-2.42
					c1.59-1.55,2.9-4.09,3.97-7.3c1.07-3.22,1.95-7.11,2.62-11.23c1.31-8.06,1.95-17.19,2.26-24.65c0.36-8.61,0.28-15.05,0.28-15.05
					v-0.64c0,0,0-2.18-0.12-5.76c-0.12-3.1-0.28-7.26-0.6-11.87c-0.4-5.8-1.03-12.27-1.95-18.42c-0.12-0.87-0.28-1.75-0.44-2.58
					c-1.51-8.73-3.73-16.35-7.11-19.45c-0.04-0.04-0.12-0.12-0.2-0.16c-1.07-0.99-2.02-1.71-2.66-2.18
					c-0.87-0.63-1.75-1.11-2.58-1.55c-2.54-1.23-5.12-1.83-7.62-1.98c3.57-0.32,7.58,0.04,11.47,1.95c0.83,0.44,1.71,0.91,2.58,1.55
					c0.56,0.44,1.39,1.03,2.3,1.87c0.2,0.16,0.36,0.32,0.56,0.52c1.19,1.07,2.22,2.74,3.14,4.8c6.87,15.28,7.07,53.23,7.07,53.23
					v0.64C641.44,805.58,641.72,827.89,638.9,845.28z"/><g><ellipse cx="342.65" cy="805.85" fill="#ffc83f" rx="12.12" ry="26.8"/><path fill="#e64835" d="M344.04,845.12c0.2,0.99,0.4,1.98,0.64,2.9c0.56,2.54,1.19,4.8,1.98,6.75c0.2,0.52,0.44,1.03,0.64,1.47
					c0.75,1.51,1.55,2.78,2.46,3.65c1.03,0.99,1.98,1.75,2.62,2.26c0,0,1.15,0.79,2.42,1.47c1.47,0.79,6.23,1.23,12.98,0.64
					c1.07-0.12,2.22-0.24,3.41-0.4c1.71-0.24,3.49-0.56,5.36-0.91c-0.44-4.76-0.91-9.29-1.31-13.54c-0.16-1.39-0.28-2.7-0.4-4.01
					c-1.63-16.48-2.7-28.07-2.98-31.76c-0.28-3.77-0.28-6.63-0.32-7.86c-0.32-9.88-0.64-20.17,0.44-30.29
					c0.28-2.62,0.71-5.68,1.39-9.13c1.03-5.4,2.66-11.67,5.2-18.66c-2.14-0.4-4.21-0.71-6.11-0.95c-1.23-0.16-2.38-0.28-3.49-0.36
					c-6.83-0.6-11.67-0.2-13.1,0.56c-1.27,0.63-2.42,1.43-2.42,1.43c-0.67,0.48-1.63,1.23-2.7,2.22c-0.91,0.83-1.71,2.02-2.46,3.45
					c-0.2,0.48-0.44,0.91-0.64,1.39c-1.27,2.94-2.3,6.75-3.1,10.92c-0.36,1.83-0.67,3.73-0.95,5.64
					c-1.51,10.16-2.06,21.28-2.26,27.59c-0.08,3.26-0.12,5.24-0.12,5.24v0.64C341.22,805.46,340.94,828.61,344.04,845.12z"/><path fill="#821a99" d="M362.34,820.67c0.32,7.46,0.95,16.59,2.26,24.65c0.67,4.13,1.55,8.02,2.62,11.23
					c1.07,3.22,2.38,5.76,3.97,7.3c1.11,1.07,2.14,1.91,2.82,2.42c0.87,0.63,1.71,1.15,2.54,1.59c2.5,1.27,5.12,1.91,7.58,2.14
					c3.89-0.28,7.23-1.31,9.17-1.98c-2.06-6.19-4.29-13.74-6.07-22.51c-2.3-11.19-3.97-24.3-3.93-38.94v-2.14
					c0.44-26.16,6.15-47.32,11.16-61.25c-1.95-0.75-5.24-1.83-9.13-2.14c-2.5,0.16-5.08,0.75-7.62,1.98
					c-0.83,0.44-1.71,0.91-2.58,1.55c-0.64,0.48-1.59,1.19-2.66,2.18c-0.08,0.04-0.16,0.12-0.2,0.16c-3.37,3.1-5.6,10.72-7.11,19.45
					c-0.16,0.83-0.32,1.71-0.44,2.58c-0.91,6.15-1.55,12.62-1.95,18.42c-0.32,4.61-0.48,8.77-0.6,11.87
					c-0.12,3.57-0.12,5.76-0.12,5.76v0.64C362.06,805.62,361.98,812.05,362.34,820.67z"/><path fill="#e64835" d="M362.34,820.67c0.32,7.46,0.95,16.59,2.26,24.65c0.67,4.13,1.55,8.02,2.62,11.23
					c1.07,3.22,2.38,5.76,3.97,7.3c1.11,1.07,2.14,1.91,2.82,2.42c0.87,0.63,1.71,1.15,2.54,1.59c2.5,1.27,5.12,1.91,7.58,2.14
					c5.4,0.48,10.32-0.99,12.9-1.91c0.04,0,0.08-0.04,0.12-0.04c-2.06-6.19-4.29-13.78-6.07-22.55c-1.55-7.38-2.78-15.64-3.41-24.61
					c-0.36-4.56-0.52-9.37-0.52-14.29v-2.14c0.12-5.91,0.48-11.55,1.03-16.91c0.83-7.66,2.02-14.77,3.45-21.2
					c2.02-9.05,4.41-16.83,6.67-23.14c-0.04-0.04-0.08-0.04-0.12-0.04c-2.3-0.87-6.43-2.22-11.12-2.22c-0.56,0-1.15,0.04-1.75,0.08
					c-2.5,0.16-5.08,0.75-7.62,1.98c-0.83,0.44-1.71,0.91-2.58,1.55c-0.64,0.48-1.59,1.19-2.66,2.18c-0.08,0.04-0.16,0.12-0.2,0.16
					c-3.37,3.1-5.6,10.72-7.11,19.45c-0.16,0.83-0.32,1.71-0.44,2.58c-0.91,6.15-1.55,12.62-1.95,18.42
					c-0.32,4.61-0.48,8.77-0.6,11.87c-0.12,3.57-0.12,5.76-0.12,5.76v0.64C362.06,805.62,361.98,812.05,362.34,820.67z"/><path fill="#b2b2b5" d="M344.56,766.36h47.08c2.02-9.05,4.41-16.83,6.67-23.14c-0.04-0.04-0.08-0.04-0.12-0.04
					c-2.3-0.87-6.43-2.22-11.12-2.22c-0.56,0-1.15,0.04-1.75,0.08c-2.5,0.16-5.08,0.75-7.62,1.98c-0.83,0.44-1.71,0.91-2.58,1.55
					c-0.64,0.48-1.59,1.19-2.66,2.18c-1.23-0.16-2.38-0.28-3.49-0.36c-6.83-0.6-11.67-0.2-13.1,0.56c-1.27,0.63-2.42,1.43-2.42,1.43
					c-0.67,0.48-1.63,1.23-2.7,2.22c-0.91,0.83-1.71,2.02-2.46,3.45c-0.2,0.48-0.44,0.91-0.64,1.39
					C346.38,758.38,345.35,762.19,344.56,766.36z"/><path fill="#b2b2b5" d="M344.68,848.02c0.56,2.54,1.19,4.8,1.98,6.75c0.2,0.52,0.44,1.03,0.64,1.47c0.75,1.51,1.55,2.78,2.46,3.65
					c1.03,0.99,1.98,1.75,2.62,2.26c0,0,1.15,0.79,2.42,1.47c1.47,0.79,6.23,1.23,12.98,0.64c0.95,0.87,1.79,1.55,2.38,1.98
					c0.87,0.63,1.71,1.15,2.54,1.59c3.85,1.98,7.86,2.42,11.43,2.18c5.4,0.48,10.32-0.99,12.9-1.91c3.53,0,7.23-9.37,9.92-22.43
					c-8.77,1.79-19.45,3.33-31.72,3.73c-3.18,0.12-6.47,0.16-9.88,0.08C357.94,849.37,351.03,848.81,344.68,848.02z"/><path fill="#7a2323" d="M411.17,805.92c-0.15,13.5-1.81,28.1-4.22,39.76c-2.7,13.06-6.36,22.43-9.91,22.42l-0.02,0
					c-3.56-0.04-6.98-9.49-9.38-22.6c-2.15-11.72-3.47-26.37-3.35-39.83c0.27-28.54,7.18-62.14,13.89-62.52
					c0.04-0.01,0.09-0.01,0.13-0.01C405.05,743.21,411.49,777.09,411.17,805.92z"/><path fill="#ffc83f" d="M407.42,805.71c0.17-18.78-2.12-34.47-5.33-38.14h0c0,0,0,0,0,0c-0.29-0.33-0.59-0.57-0.89-0.7
					c-0.58-0.34-1.39-0.65-2.31-0.45c-0.67,0.14-1.14,0.5-1.41,0.74c0,0,0.56,1.47,0.6,1.47c0.1,0,0.21,0.02,0.35,0.03
					c-2.89,5.06-5.09,19.67-5.25,36.92c-0.16,17.76,1.88,32.75,4.81,37.44l-0.95,1.41c0.27,0.16,0.99,0.56,1.98,0.5
					c1.32-0.08,2.13-0.92,2.3-1.1c0,0,0,0,0,0C404.63,840.36,407.25,824.62,407.42,805.71z"/><ellipse cx="398.08" cy="805.63" fill="#ffc83f" rx="38.89" ry="7.12" transform="matrix(.00922 -1 1 .00922 -411.19 1196.267)"/><path fill="#7a2323" d="M360.75,845.28c0.83,5.28,1.98,10.08,3.53,13.7c0.87,2.06,1.91,3.73,3.06,4.84
					c0.12,0.16,0.28,0.28,0.44,0.44c0.95,0.87,1.79,1.55,2.38,1.98c0.87,0.63,1.71,1.15,2.54,1.59c3.85,1.98,7.86,2.42,11.43,2.18
					c-2.46-0.24-5.08-0.87-7.58-2.14c-0.83-0.44-1.67-0.95-2.54-1.59c-0.67-0.52-1.71-1.35-2.82-2.42c-1.59-1.55-2.9-4.09-3.97-7.3
					c-1.07-3.22-1.95-7.11-2.62-11.23c-1.31-8.06-1.95-17.19-2.26-24.65c-0.36-8.61-0.28-15.05-0.28-15.05v-0.64
					c0,0,0-2.18,0.12-5.76c0.12-3.1,0.28-7.26,0.6-11.87c0.4-5.8,1.03-12.27,1.95-18.42c0.12-0.87,0.28-1.75,0.44-2.58
					c1.51-8.73,3.73-16.35,7.11-19.45c0.04-0.04,0.12-0.12,0.2-0.16c1.07-0.99,2.02-1.71,2.66-2.18c0.87-0.63,1.75-1.11,2.58-1.55
					c2.54-1.23,5.12-1.83,7.62-1.98c-3.57-0.32-7.58,0.04-11.47,1.95c-0.83,0.44-1.71,0.91-2.58,1.55c-0.56,0.44-1.39,1.03-2.3,1.87
					c-0.2,0.16-0.36,0.32-0.56,0.52c-1.19,1.07-2.22,2.74-3.14,4.8c-6.87,15.28-7.07,53.23-7.07,53.23v0.64
					C358.21,805.58,357.94,827.89,360.75,845.28z"/></g><path fill="#302d70" d="M600.67,788.7c-1.77-0.01-3.35,3.4-4.27,8.56l-191.62-1.02c-0.87-5.16-2.41-8.59-4.18-8.6
			c-2.77-0.01-5.06,8.29-5.11,18.54c-0.01,1.79,0.05,3.52,0.17,5.15c0.56,7.76,2.46,13.44,4.75,13.45c1.77,0.01,3.35-3.4,4.27-8.56
			l0,0l191.62,1.02l0,0c0.87,5.16,2.41,8.59,4.18,8.6c2.26,0.01,4.21-5.54,4.87-13.17c0.15-1.7,0.23-3.5,0.24-5.38
			C605.64,797.04,603.44,788.71,600.67,788.7z"/></g><g><path fill="#e64835" d="M801.84,436.81l-52.56-14.6c-16.51-43.97-34.05-111.89-51.58-179.2l12.14-2.72
				C732.92,307.5,763.6,373,801.84,436.81z"/><path fill="#302d70" d="M676.89,247.68c12.9,68.35,26.03,137.26,29.87,184.07l-41.3,35.64c7.35-74.03,7.11-146.35-0.7-216.99
				L676.89,247.68z"/><path fill="#ffc83f" d="M749.28,422.21l-23.8-6.61l-18.71,16.14c-3.84-46.81-16.97-115.72-29.87-184.07l20.81-4.66
				C715.23,310.32,732.77,378.25,749.28,422.21z"/><path fill="#fff" d="M725.47,415.61l23.81,6.61c-16.51-43.97-34.06-111.89-51.58-179.21l-20.8,4.66
				c12.89,68.35,26.03,137.27,29.87,184.08L725.47,415.61z"/><path fill="#ffb24d" d="M703,315.39c-3.17,0.71-7-3.47-10.15-3.27c-3.23,0.21-6.5,4.83-9.65,4.53c-3.21-0.3-5.55-5.46-8.63-6.26
			c-3.11-0.8-7.66,2.58-10.58,1.31c-2.94-1.27-3.58-6.91-6.28-8.62c-2.7-1.71-8.07,0.11-10.47-2c-2.39-2.1-1.28-7.66-3.33-10.13
			c-2.03-2.44-7.7-2.36-9.34-5.13c-1.61-2.72,1.17-7.65-0.02-10.66c-1.16-2.93-6.57-4.61-7.29-7.78c-0.71-3.17,3.47-7,3.27-10.15
			c-0.21-3.23-4.83-6.5-4.53-9.65c0.3-3.21,5.46-5.55,6.26-8.63c0.8-3.11-2.58-7.66-1.31-10.58c1.27-2.94,6.91-3.58,8.62-6.28
			c1.71-2.7-0.11-8.07,2-10.47c2.1-2.39,7.66-1.28,10.13-3.33c2.44-2.03,2.36-7.7,5.13-9.34c2.72-1.62,7.65,1.17,10.66-0.02
			c2.93-1.16,4.61-6.57,7.78-7.29c3.17-0.71,7,3.47,10.15,3.27c3.23-0.21,6.5-4.83,9.65-4.53c3.21,0.3,5.55,5.46,8.63,6.26
			c3.11,0.8,7.66-2.58,10.58-1.31c2.94,1.27,3.58,6.91,6.28,8.62c2.7,1.71,8.07-0.11,10.47,2c2.39,2.1,1.28,7.66,3.33,10.13
			c2.03,2.44,7.7,2.36,9.34,5.13c1.62,2.72-1.17,7.65,0.02,10.66c1.16,2.93,6.57,4.61,7.29,7.78c0.71,3.17-3.47,7-3.27,10.15
			c0.21,3.23,4.83,6.5,4.53,9.65c-0.3,3.21-5.46,5.55-6.26,8.63c-0.8,3.11,2.58,7.66,1.31,10.58c-1.27,2.94-6.91,3.58-8.62,6.28
			c-1.71,2.7,0.11,8.07-2,10.47c-2.1,2.39-7.66,1.28-10.13,3.33c-2.44,2.03-2.36,7.7-5.13,9.34c-2.72,1.62-7.65-1.17-10.66,0.02
			C707.85,309.26,706.17,314.68,703,315.39z"/><circle cx="689.13" cy="253.52" r="51.42" fill="#e6d2c3"/><circle cx="689.13" cy="253.52" r="47.17" fill="#fff"/><path fill="#ffb24d" d="M699.78,265.81l-8.8-39.25l-4.92,1.1c-2.58,2.69-5.73,5.25-9.45,7.71c-3.72,2.45-7.19,4.14-10.42,5.07
			l1.91,8.51l11.96-2.68l5.12,22.82l-11.96,2.68l2.53,11.3l38.08-8.54l-2.53-11.3L699.78,265.81z"/></g><g><circle cx="779.67" cy="809.56" r="60.53" fill="#97b023"/><ellipse cx="744.92" cy="786.92" fill="#a7a9ac" rx="25.81" ry="12.95" transform="rotate(-56.282 744.958 786.914)"/><path fill="#e8edab" d="M822.6,788.13c-9.38-15.67-28.46-25.14-43.18-28.77c-4.22-1.04-6.98-2.67-8.2-4.83
			c-0.66-1.17-0.9-2.61-0.73-4.29l0.05-0.52c-3.01,0.46-5.96,1.15-8.84,2.04c0.07,2.58,0.71,4.96,1.9,7.07
			c2.45,4.34,7.07,7.38,13.72,9.02c13.02,3.21,29.77,11.41,37.77,24.77c4.63,7.73,5.75,16.47,3.33,25.97l-0.04,0.16
			c-2.06,9.57-6.96,16.9-14.56,21.76c-13.12,8.4-31.77,8.26-44.86,5.34c-6.69-1.49-12.17-0.84-16.3,1.96
			c-2.01,1.36-3.64,3.21-4.85,5.49c2.18,2.09,4.51,4.02,7,5.77l0.18-0.49c0.59-1.58,1.45-2.77,2.57-3.52
			c2.06-1.39,5.25-1.62,9.5-0.67c14.8,3.31,36.1,3.34,51.48-6.51c9.6-6.15,15.79-15.3,18.38-27.21
			C829.91,808.86,828.45,797.91,822.6,788.13z"/><path fill="#fff" d="M763.56,751.21c-0.01,2.45,0.55,4.71,1.67,6.7c2.19,3.88,6.41,6.61,12.54,8.12
			c13.38,3.3,30.64,11.77,38.93,25.63c4.9,8.18,6.08,17.4,3.54,27.39l-0.01,0.05l-0.01,0.05c-2.16,10.07-7.35,17.8-15.38,22.94
			c-13.6,8.71-32.82,8.6-46.27,5.59c-6.16-1.38-11.16-0.81-14.84,1.68c-1.89,1.28-3.4,3.06-4.48,5.26c1.29,1.16,2.62,2.26,4.01,3.3
			c0.62-1.65,1.62-3.3,3.27-4.42c2.5-1.69,6.19-2.01,10.95-0.94c14.43,3.23,35.16,3.28,50.06-6.26
			c9.19-5.88,15.09-14.65,17.56-26.06c2.87-11.32,1.49-21.8-4.11-31.16c-9.09-15.18-27.67-24.37-42.02-27.92
			c-4.74-1.17-7.9-3.1-9.38-5.73c-0.98-1.73-1.14-3.66-0.96-5.41C766.91,750.36,765.22,750.75,763.56,751.21z"/><path fill="#e8edab" d="M838.59,823.42c5.03-21.39-1.96-42.8-16.59-57.13c3.28,29.18,2.76,100.71-84.18,87.01
			c7.55,7.24,17.07,12.61,27.99,15.18C798.35,876.14,830.94,855.96,838.59,823.42z"/></g><g><path fill="#e64835" d="M1097.88,851.47c3.44-1.84,6.78-3.75,10.02-5.81l4.33-2.76c42.71-28.38,69.25-73.27,75.55-121.47
			c0.4-2.93,0.74-5.8,0.97-8.74c0.01-0.03-0.01-0.07-0.02-0.09c2.52-31.8-3.73-64.69-19.88-94.92
			c-9.45-17.69-21.55-33.07-35.57-45.9c0,0,0,0-0.01-0.02c-3.01-2.79-6.12-5.43-9.32-7.98c-28.55-22.65-63.54-35.64-99.65-37.3
			c-1.59-0.08-3.15-0.13-4.74-0.16c-21.27-0.4-42.81,3.12-63.59,10.92c-1.82,0.68-3.62,1.4-5.42,2.15
			c-5.22,2.15-10.38,4.59-15.47,7.31c-23.07,12.32-42.2,29.14-56.89,48.78c-2.74,3.65-5.31,7.39-7.73,11.24
			c-31.02,49.12-36.35,112.59-9.27,168.07c0.01,0.02,0.01,0.02,0.02,0.04c0.92,1.88,1.89,3.78,2.88,5.65
			c1.37,2.57,2.79,5.08,4.3,7.55c0.01,0.02,0.01,0.02,0.01,0.02c23.4,39.06,60.18,65.76,101.24,77.31c2.02,0.6,4.03,1.12,6.07,1.6
			C1015.53,876.64,1058.91,872.29,1097.88,851.47z"/><path fill="#d9b9b9" d="M975.72,866.95c-2.04-0.48-4.05-1-6.07-1.6c-41.07-11.55-77.85-38.24-101.24-77.31c0,0,0,0-0.01-0.02
			c-1.51-2.47-2.93-4.98-4.3-7.55c-1-1.86-1.96-3.77-2.88-5.65c-0.01-0.02-0.01-0.02-0.02-0.04c-1.95-4-3.72-8.05-5.34-12.13
			c23.44,34.18,57.61,57.71,95.45,68.35c2.02,0.6,4.03,1.12,6.07,1.6c39.81,9.69,83.19,5.34,122.16-15.48
			c3.44-1.84,6.78-3.75,10.02-5.81l4.33-2.76c42.71-28.38,69.25-73.27,75.55-121.47c0.4-2.93,0.74-5.8,0.97-8.74
			c0.01-0.03-0.01-0.07-0.02-0.09c2.04-25.65-1.65-52-11.62-77.1c3.62,5.27,7.01,10.76,10.09,16.53
			c16.15,30.24,22.41,63.12,19.88,94.92c0.01,0.02,0.03,0.06,0.02,0.09c-0.24,2.95-0.57,5.81-0.97,8.74
			c-6.3,48.19-32.84,93.09-75.55,121.47l-4.33,2.76c-3.24,2.05-6.58,3.97-10.02,5.81C1058.91,872.29,1015.53,876.64,975.72,866.95z"/><path fill="#7a2323" d="M1073.98,716.98c-17.43-43.98-40.31-86.17-68.47-124.23c-4.99-6.76-10.21-13.39-15.79-19.7
			c-4.48,1.54-8.88,3.31-13.19,5.26c-8.43,3.81-16.41,8.29-23.96,13.36c7.86,9.24,12.47,21.69,13.69,33.5
			c1.25,11.9-0.17,23.75-2.07,35.39c-2.16,13.4-4.65,26.73-6.98,40.06c-2.31,13.16-5,26.31-6.33,39.63
			c-1.32,13.27-0.22,26.34,1.57,39.62c4.01,29.43,8.03,59.89,22.97,86.35c0.13,0.25,0.23,0.49,0.28,0.73c-2.04-0.48-4.05-1-6.07-1.6
			c-11.38-21.5-16.18-45.58-19.67-69.35c-1.83-12.49-3.91-25.11-4.44-37.71c-0.5-12.3,1.12-24.42,3.15-36.42
			c2.18-13.01,4.55-26.02,6.81-39.02c2.13-12.11,4.62-24.24,5.85-36.53c1.8-17.86-0.17-38.24-12.67-51.98
			c-15.12,10.71-28.44,23.79-39.97,38.63c-16.82,21.63-30.87,45.21-38.16,71.68c-7.5,27.11-8.24,55.88-2.18,83.23
			c0,0.05,0.02,0.09,0.02,0.15c-1.51-2.47-2.93-4.98-4.3-7.55c-1-1.86-1.96-3.77-2.88-5.65c-0.01-0.02-0.01-0.02-0.02-0.04
			c-2.78-20.4-1.95-41.23,2.36-61.45c5.82-27.23,18.45-51.97,34.84-74.46c8.83-12.12,18.41-23.84,29.5-34.02
			c5.44-5.01,11.23-9.67,17.3-13.95c-0.85-0.8-1.77-1.53-2.74-2.24c-10.3-7.57-21.87-7.21-33.25-3.54
			c-13.54,4.41-26.07,11.74-36.8,21.05c-0.62,0.54-1.32,0.68-1.95,0.54c2.42-3.85,4.99-7.59,7.73-11.24
			c7.23-5.14,15.04-9.42,23.3-12.69c10.15-4.01,21.36-7.15,32.37-3.79c5.94,1.8,11.06,5.01,15.39,9.13
			c4.76-3.21,9.7-6.16,14.77-8.88c7.25-3.87,14.71-7.14,22.36-9.92c-10.5-11.43-22.16-21.7-35.53-29.73
			c-0.12-0.07-0.2-0.13-0.3-0.21c1.81-0.75,3.6-1.47,5.42-2.15c13.19,8.34,24.79,18.86,35.22,30.46c10.63-3.52,21.54-6.07,32.62-7.9
			c-4.57-10.55-6.54-22.11-4.25-33.48c1.59,0.03,3.15,0.07,4.74,0.16c-2.41,11.08-0.35,22.36,4.34,32.58
			c6.36-0.95,12.76-1.63,19.18-2.12c25.55-1.99,51.59-0.3,76.14,6.84c3.2,2.55,6.32,5.2,9.32,7.98
			c-23.72-8.62-49.09-11.63-74.4-10.75c-9.34,0.3-18.75,1.07-28.1,2.37c0.7,1.3,1.44,2.59,2.24,3.84
			c9.07,14.53,22.68,25.02,37.15,33.82c15.82,9.63,32.68,17.52,47.97,28.06c15.06,10.4,28.76,22.78,40.58,36.75
			c12.02,14.18,22.14,29.94,30.01,46.76c0.01,0.02,0.03,0.06,0.02,0.09c-0.24,2.95-0.57,5.81-0.97,8.74
			c-0.26-0.18-0.42-0.44-0.57-0.76c-15.04-34.98-39.79-65.57-71.11-87.28c-29.01-20.12-65.78-31.49-86.07-62.15
			c-1.52-2.3-2.93-4.69-4.17-7.17c-10.64,1.66-21.15,4.06-31.34,7.35c3,3.48,5.91,7.04,8.75,10.66
			c14.52,18.57,27.46,38.49,39.22,58.91c24.06,41.74,42.73,86.61,55.45,133.05c6.23,22.63,11,45.66,14.3,68.87l-4.33,2.76
			C1101.77,801.64,1090.37,758.32,1073.98,716.98z"/><ellipse cx="949.04" cy="605.57" fill="#a7a9ac" rx="78.02" ry="39.2" transform="rotate(-40.051 949.03 605.549)"/></g></svg>