<svg id="Grand_Opening_Tokyo" data-name="Grand Opening Tokyo" xmlns="http://www.w3.org/2000/svg" xmlns:xlink="http://www.w3.org/1999/xlink" viewBox="0 0 1080 1080"><defs><style>.cls-1{fill:#e2ffff;}.cls-2{fill:#c0ebeb;}.cls-3{fill:url(#linear-gradient);}.cls-4{fill:#97a3bf;}.cls-5{fill:#d7dfff;}.cls-6{fill:#229dd3;}.cls-7{fill:#fff;}.cls-8{fill:#198ab2;}.cls-9{fill:#4890a0;}.cls-10{fill:#47b3a8;}.cls-11{fill:#fc90a2;}.cls-12{fill:#d85b71;}.cls-13{fill:#e96879;}.cls-14{fill:#c64b66;}.cls-15{fill:#ffb6c6;}.cls-16{fill:#3c4042;}.cls-17{fill:#ea244f;}.cls-18{fill:#d11c4b;}.cls-19{fill:#ff5e3e;}.cls-20{fill:#e24329;}.cls-21{fill:#b52f15;}.cls-22{fill:#137e9b;}.cls-23{fill:#2a8275;}.cls-24{fill:#825041;}.cls-25{fill:#07659a;}.cls-26{fill:#035073;}.cls-27{fill:#5e312a;}.cls-28{fill:#379b8f;}.cls-29{fill:#1e1e1e;}.cls-30{fill:#f96;}.cls-31{fill:#b6bfe0;}.cls-32{fill:#fc9;}.cls-33{fill:#fec2a0;}.cls-34{fill:#fb9a77;}.cls-35{fill:#d27563;}.cls-36{fill:#5b6ac2;}.cls-37{fill:#07333f;}.cls-38{fill:#feca63;}.cls-39{fill:#eab557;}.cls-40{fill:#392524;}.cls-41{fill:#e56655;}.cls-42{fill:#c70025;}</style><linearGradient id="linear-gradient" x1="540.264" y1="906.826" x2="540.264" y2="750.724" gradientUnits="userSpaceOnUse"><stop offset="0" stop-color="#d7dfff"/><stop offset="0.451" stop-color="#d5ddfc"/><stop offset="0.728" stop-color="#cdd5f4"/><stop offset="0.958" stop-color="#bfc8e6"/><stop offset="1" stop-color="#bcc5e2"/></linearGradient></defs><title>Grand Opening Tokyo</title><g id="Grand_Opening_Tokyo-2" data-name="Grand Opening Tokyo"><g id="Background"><path class="cls-1" d="M1024.224,750.724c-.05.12-.11.24-.17.36a72.782,72.782,0,0,1-7.56,12.26c-7.87,10.28-17.86,17.45-28.83,22.63q-2.535,1.2-5.13,2.25c-11.11,4.54-23.01,7.32-34.58,9.43a371.873,371.873,0,0,1-42.24,5.44c-2.18.14-4.37.27-6.55.36a231.055,231.055,0,0,1-52.96-3.39c-28.62-5.38-56.02-17.1-84.01-25.88-2.76-.87-5.52-1.71-8.29-2.5-3.04-.89-6.1-1.72-9.16-2.5q-3.555-.9-7.14-1.7a218.659,218.659,0,0,0-100.15,1.7c-3.09.76-6.17,1.6-9.24,2.5-2.68.78-5.35,1.62-8.01,2.5a242.148,242.148,0,0,0-62.7,31.65q-1.755,1.23-3.5,2.5c-1.14.82-2.26,1.66-3.39,2.5a252.415,252.415,0,0,0-29.82,26.45c-7.27,7.55-14.26,15.68-21.87,22.74-.91.85-1.84,1.69-2.77,2.5-.98.86-1.97,1.69-2.98,2.5a74.633,74.633,0,0,1-10.05,6.94c-10.43,5.93-22,8.53-33.41,11.07-72.06,16.03-145.88,32.11-218.38,18.93a240.158,240.158,0,0,1-90.88-36.94c-1.22-.82-2.42-1.65-3.62-2.5-1.17-.82-2.33-1.65-3.48-2.5-1.02-.74-2.03-1.49-3.03-2.26q-2-1.5-3.96-3.08a208.593,208.593,0,0,1-46.4-51.13q-1.365-2.115-2.67-4.27a197.181,197.181,0,0,1-17.68-37.92q-1.755-5.1-3.21-10.28c-.03-.12-.07-.24-.1-.36-.15-.52-.29-1.03-.43-1.55-24.25-89.19,14.55-191.9,78.64-250.44,67.03-61.24,155.3-82.19,240.61-86.74,33.77-1.81,69.52-1.94,98.4-22.28,56.84-40.01,59.99-135.65,103.88-193.51,46.59-61.42,128.97-66.48,197.03-44.69,24.84,7.96,49.46,19.14,69.29,38.2,17.47,16.78,30.43,38.89,42.6,61.08.02.03.04.07.06.1,2.41,4.4,4.81,8.86,7.09,13.41,7.53,15,13.73,30.89,14.48,48.03.74,16.8-3.85,33.22-8.51,49.17-.12.42-.25.84-.37,1.26-1.34,4.58-2.87,9.3-4.51,14.11-.24.72-.49,1.44-.74,2.17-.35,1.02-.71,2.05-1.07,3.08-1.2,3.46-2.45,6.95-3.71,10.49-.17.5-.35,1-.53,1.51-14.92,41.98-30.74,88.38-.01,121.27,27.69,29.63,60.31,45.91,88.44,72.76a178.1,178.1,0,0,1,27.65,33.38c14.23,22.31,25.13,50.57,27.54,77.92C1033.754,717.614,1031.6,735.374,1024.224,750.724Z"/><path class="cls-2" d="M578.611,264.091H476.027a16.144,16.144,0,0,1,21.448-22.38,24.832,24.832,0,1,1,47.471,11.995C556.154,257.261,567.147,261.612,578.611,264.091Z"/><path class="cls-2" d="M662.765,223.227H784.7a19.19,19.19,0,0,0-25.494-26.6,29.517,29.517,0,1,0-56.428,14.258C689.459,215.109,676.392,220.281,662.765,223.227Z"/><path class="cls-3" d="M1024.224,750.724c-.05.12-.11.24-.17.36a72.782,72.782,0,0,1-7.56,12.26c-7.87,10.28-17.86,17.45-28.83,22.63q-2.535,1.2-5.13,2.25c-11.11,4.54-23.01,7.32-34.58,9.43a371.873,371.873,0,0,1-42.24,5.44c-2.18.14-4.37.27-6.55.36a231.055,231.055,0,0,1-52.96-3.39c-28.62-5.38-56.02-17.1-84.01-25.88-2.76-.87-5.52-1.71-8.29-2.5-3.04-.89-6.1-1.72-9.16-2.5q-3.555-.9-7.14-1.7a218.659,218.659,0,0,0-100.15,1.7c-3.09.76-6.17,1.6-9.24,2.5-2.68.78-5.35,1.62-8.01,2.5a242.148,242.148,0,0,0-62.7,31.65q-1.755,1.23-3.5,2.5c-1.14.82-2.26,1.66-3.39,2.5a252.415,252.415,0,0,0-29.82,26.45c-7.27,7.55-14.26,15.68-21.87,22.74-.91.85-1.84,1.69-2.77,2.5-.98.86-1.97,1.69-2.98,2.5a74.633,74.633,0,0,1-10.05,6.94c-10.43,5.93-22,8.53-33.41,11.07-72.06,16.03-145.88,32.11-218.38,18.93a240.158,240.158,0,0,1-90.88-36.94c-1.22-.82-2.42-1.65-3.62-2.5-1.17-.82-2.33-1.65-3.48-2.5-1.02-.74-2.03-1.49-3.03-2.26q-2-1.5-3.96-3.08a208.593,208.593,0,0,1-46.4-51.13q-1.365-2.115-2.67-4.27a197.181,197.181,0,0,1-17.68-37.92q-1.755-5.1-3.21-10.28c-.03-.12-.07-.24-.1-.36Z"/><path class="cls-4" d="M944.584,750.724l43.08,35.25q-2.535,1.2-5.13,2.25l-44.69-36.56.77-.94,2.39-2.93Z"/><path class="cls-4" d="M143.384,751.664l-63.42,51.89q-1.365-2.115-2.67-4.27l59.35-48.56,3.58-2.93,2.39,2.93Z"/><path class="cls-4" d="M905.714,803.094c-2.18.14-4.37.27-6.55.36l-27.88-29.27-4.76-5-16.9-17.74.76-.72,2.86-2.72,2.59,2.72Z"/><path class="cls-4" d="M231.6,751.444l-16.9,17.74-4.76,5-30.15,31.65-4.76,5-44.71,46.93q-2-1.5-3.96-3.08l44.15-46.35,2.38-2.5,32.53-34.15,2.38-2.5,17.59-18.46,2.59-2.72,2.86,2.72Z"/><path class="cls-4" d="M637.454,769.184c-3.09.76-6.17,1.6-9.24,2.5-2.68.78-5.35,1.62-8.01,2.5H205.424v-5Z"/><path class="cls-4" d="M871.474,769.184v5H762.194c-2.76-.87-5.52-1.71-8.29-2.5-3.04-.89-6.1-1.72-9.16-2.5Z"/><path class="cls-4" d="M557.5,805.834q-1.755,1.23-3.5,2.5c-1.14.82-2.26,1.66-3.39,2.5h-380.1v-5Z"/><path class="cls-4" d="M498.924,860.024c-.91.85-1.84,1.69-2.77,2.5-.98.86-1.97,1.69-2.98,2.5H140.454c-1.22-.82-2.42-1.65-3.62-2.5-1.17-.82-2.33-1.65-3.48-2.5Z"/><ellipse class="cls-5" cx="859.093" cy="850.762" rx="53.727" ry="13.219"/><ellipse class="cls-5" cx="519.412" cy="924.452" rx="64.173" ry="15.789"/></g><g id="Fuji_Mountain" data-name="Fuji Mountain"><path class="cls-6" d="M1024.054,751.084H56.4c-.18-.64-.36-1.27-.53-1.91,126.36-38.53,246.48-114.09,344.3-189.89,140.97-109.25,235.56-218.99,235.56-218.99,20.84,13.73,33.62,2.84,33.62,2.84,4.27,6.63,27.95,5.21,27.95,5.21,39.04,46.24,83.05,88.92,128.96,127.83,49.31,41.78,100.81,79.2,150.68,111.98a178.1,178.1,0,0,1,27.65,33.38c14.23,22.31,25.13,50.57,27.54,77.92C1033.764,717.754,1031.574,735.654,1024.054,751.084Z"/><path class="cls-7" d="M400.171,559.283c37.025-10.585,81.21-44.694,99.662-61.068,22.02-19.535,8.883,4.972,17.767-3.3s13.49-4.508,13.49-4.508c-6.032,24.507,5.68,4.508,5.68,4.508,80.271-69.366,23.8,7.569,15.269,37.047s28.418-18.12,61.444-39.422c32.561-21.016,19.9-43.4,19.546-44.031,34.439,15.988,59.3,79.542,68.172,39.766,6.98-31.252,22.506,18.832,28.84,41.735a1.3,1.3,0,0,0,2.544-.363c-.169-13.372-.043-35.114,2.36-41.372,3.546-9.237,4.265,15.623,11.369-12.077s46.163,29.832,46.163,29.832c-12.077-52.56,41.909,0,41.909,0-5.248-10.12-7.326-21.435-8.121-29.854-45.909-38.9-89.917-81.586-128.964-127.826,0,0-23.678,1.414-27.943-5.215,0,0-12.784,10.894-33.622-2.84C635.736,340.291,541.145,450.03,400.171,559.283Z"/><path class="cls-5" d="M679.779,376.283s26.991,31.726,31.726,52.561,20.835,39.3,15.626,66.768c0,0-11.889-31.21-29.415-48.212a30.744,30.744,0,0,1-8.92-17.015Z"/><path class="cls-5" d="M662.258,370.127s-1.7,9.218-16.1-8.05-26.991,51.614-54.456,62.032,4.735,27.938,0,45.932-17.994,46.406-19.888,48.774,23.2-21.309,34.094-43.091,37.882-44.038,41.2-52.088S663.679,384.806,662.258,370.127Z"/><path class="cls-5" d="M576.076,421.741l-37.883,62.506s6.748-18.7-12.785-6.274-35.515,14.916-35.515,14.916S574.182,420.913,576.076,421.741Z"/><path class="cls-8" d="M1024.054,751.084H841.684c10.36-27.68,27.16-52.47,54.5-59.98,71.02-19.49,7.1-31.65,7.1-31.65,7.11-17.05-44.04-31.26-44.04-31.26,56.83-53.97,106.55,56.83,106.55,56.83-2.84-18.47-12.79-56.83-12.79-56.83,14.58,20.75,46.2,47.04,79.13,71.26C1033.764,717.754,1031.574,735.654,1024.054,751.084Z"/><path class="cls-8" d="M581.021,751.082H749.585c11.745-50.46,22.33-120.39-1.15-145.614,0,0-17.512,54.858-41.334,70.559-11.5,7.579-26.86-.686-27.468-14.453-.552-12.463-2.707-27.832-10.618-10.518a65.221,65.221,0,0,0-5.535,32.252l.574,7.126a10.706,10.706,0,0,1-12.817,11.359C631.946,697.815,597.815,699.241,581.021,751.082Z"/><path class="cls-8" d="M420.7,751.082H556.846c1.734-25.655-6.453-56.515-41.732-84.171,0,0,47.952-39.544,41.953-83.1,0,0-37.7,36.219-50.483,34.087a94.46,94.46,0,0,1-4.53,30.285,11.968,11.968,0,0,1-18.231,6.11c-16.552-11.668-43.478-37.633-36.9-80.072,0,0-29.932,30.893,6.718,110.148a25.167,25.167,0,0,1-1.945,24.606C444.4,719.825,432.931,736.222,420.7,751.082Z"/><path class="cls-9" d="M199.189,751.082h54.494c10.673-7.966,23.137-16.5,37.688-25.567,107.606-67.123,90.856-112.136,90.856-112.136-7.845,44.483-101.872,74.15-110.479,76.779,1.569-2.585-11.281-26.44-11.281-26.44C264.887,681.385,224.547,725.493,199.189,751.082Z"/></g><g id="Sakura"><path class="cls-10" d="M892.754,382.124c-1.2,3.46-2.45,6.95-3.71,10.49-2.21-1.72-4.42-3.42-6.63-5.12-.69-.33-1.38-.65-2.08-.97-.67-.3-1.34-.6-2.02-.88-2.5-1.08-5.06-2.06-7.67-2.96q-2.835-.975-5.74-1.81a124.4,124.4,0,0,0-15.24-3.33,128.716,128.716,0,0,0-17.71-1.47,123.391,123.391,0,0,0-20.72,1.46q-5.22.81-10.32,2.05a132.669,132.669,0,0,0-19.47,6.37c-3.68,1.52-7.28,3.14-10.86,4.81-6.01,2.78-11.93,5.69-17.97,8.45q-2.76,1.26-5.57,2.48c-.32.14-.63.27-.95.41a15.119,15.119,0,0,1,5.25,8.77,27.771,27.771,0,0,1,.43,5.29c-.01,1.3-.09,2.62-.19,3.92a21.357,21.357,0,0,1-2.15,8.66c-2.69,5.04-8.26,7.39-14.32,9.13-.7.2-1.42.4-2.14.59q-9.2,2.43-18.41,4.87c-.28.07-.57.14-.85.22l-1.35.36-1.94.51c-.14.04-.27.07-.41.11H710l-1.13.3c-.11.03-.21.05-.32.08a5.805,5.805,0,0,1-.69.11,4.584,4.584,0,0,1-3.92-1.35,3.845,3.845,0,0,1-1.05-2.52v-.01a3.272,3.272,0,0,1,.43-1.73,2.074,2.074,0,0,1,.19-.32,3.86,3.86,0,0,1,.82-.85,3.725,3.725,0,0,1,.44-.29,4.791,4.791,0,0,1,1.02-.47l.01-.01c.1-.03.2-.06.31-.09a.983.983,0,0,1,.16-.05l.58-.15c.19-.06.39-.11.58-.16.37-.1.74-.19,1.1-.29.6-.16,1.2-.32,1.79-.47,4.51-1.2,9-2.39,13.5-3.57.51-.14,1.03-.27,1.54-.41,4.49-1.19,11.28-2.06,14.26-5.33,2.83-3.09,2.44-8.32,2.37-11.92-.03-2.17-.43-4.95-2.08-6.86a6.271,6.271,0,0,0-3.38-1.99,3.221,3.221,0,0,1-.44-.14c-.29.11-.57.22-.86.33a126.467,126.467,0,0,1-13.86,4.03,98.113,98.113,0,0,1-12.25,2.03,107.736,107.736,0,0,1-29.25-1.27,157.621,157.621,0,0,1-26.35-7.11c-7.74-2.76-15.27-5.96-22.65-9.31-1.08-.49-2.15-.98-3.22-1.48h-.01c-.26-.12-.51-.24-.77-.36-.83-.38-1.66-.77-2.49-1.16q-2.625-1.215-5.22-2.45c-.08-.04-.15-.07-.22-.11a4.647,4.647,0,0,1-.79-.5A3.5,3.5,0,0,1,617,387.2c-.97-2.56,1.93-5.72,5.52-5.12h.02a6.138,6.138,0,0,1,1.56.5c.29.14.58.27.87.41l1.14.54.18.09a1.867,1.867,0,0,1,.32.15c.18.08.35.16.52.24.07.03.13.06.19.09s.1.05.15.07c.21.1.42.19.62.29l.18.09q.45.2.9.42c.68.31,1.35.63,2.03.94,1.07.5,2.15.99,3.22,1.48.31.14.61.28.91.42,1.98.9,3.96,1.78,5.96,2.65,1.39.61,2.8,1.21,4.21,1.8,4.82,2.02,9.72,3.92,14.73,5.62,4.89,1.65,9.89,3.12,15.01,4.3.74.18,1.49.35,2.24.51a102.165,102.165,0,0,0,27.78,2.29,88.673,88.673,0,0,0,19.37-3.52c.62-.17,1.24-.36,1.85-.55,1.17-.36,2.32-.74,3.46-1.14,1.46-.51,2.91-1.04,4.34-1.6.6-.22,1.2-.45,1.79-.69,1.34-.52,2.68-1.07,4-1.63.18-.07.37-.15.55-.23.05-.02.09-.04.13-.06a.689.689,0,0,0,.08-.03c.1-.04.19-.08.28-.12a.355.355,0,0,0,.09-.04c.01,0,.02-.01.03-.01a.2.2,0,0,0,.08-.04.865.865,0,0,0,.17-.07c.16-.06.31-.13.46-.2a.689.689,0,0,0,.08-.03,2.557,2.557,0,0,0,.24-.11c.42-.17.84-.36,1.25-.55.52-.22,1.04-.45,1.56-.68.72-.32,1.43-.64,2.15-.97,4.48-2.05,8.91-4.18,13.36-6.29,5.13-2.44,10.28-4.84,15.57-7.04a137.68,137.68,0,0,1,78.3-8.98q3.855.675,7.63,1.57c-1.07-.81-2.14-1.62-3.22-2.43q-9.825-7.425-19.8-14.72c-11.42-8.32-23.04-16.73-36.81-22.56a81.95,81.95,0,0,0-13.15-4.32,74.623,74.623,0,0,0-7.36-1.38q-2.97-.405-5.98-.54c-1.26-.07-2.52-.1-3.78-.1-.81-.01-1.62,0-2.42.03q-.66,0-1.32.03c-1.5.05-3,.13-4.49.24-.6.04-1.19.09-1.78.14-1.72.14-3.43.32-5.12.51-3.2.37-6.38.78-9.56,1.19-13.81,1.82-27.49,3.74-41.63,2.77-5.31-.37-10.54-1.01-15.69-1.88q-6.09-1.02-12.04-2.47a251.8,251.8,0,0,1-39.78-13.55c-7.47-3.18-14.77-6.58-21.94-10.03-.37-.17-.73-.35-1.09-.52-.85-.41-1.7-.82-2.55-1.24-.5-.24-.99-.48-1.48-.72-.6-.29-1.2-.58-1.79-.87-1.12-.55-2.24-1.1-3.35-1.65-.37-.18-.75-.37-1.12-.55a4.552,4.552,0,0,1-1.55-1.18,3.059,3.059,0,0,1-.54-3.13,4.989,4.989,0,0,1,7.03-2.4c.07.04.15.07.22.11.33.16.66.33,1,.49.32.16.64.32.97.48.06.03.13.06.2.1.14.07.29.14.44.21.09.05.18.09.27.14.17.08.35.17.53.26h.01c.23.11.46.23.7.35.64.31,1.29.63,1.94.94.57.29,1.15.57,1.73.85.69.34,1.37.67,2.06,1.01,1.69.81,3.39,1.63,5.09,2.44q3.57,1.71,7.17,3.37c20.94,9.64,42.93,18.05,66.92,21.03a129.872,129.872,0,0,0,24.15.69c8.77-.55,17.4-1.98,26.08-3.12l2.59-.33c3.36-.42,6.74-.79,10.14-1.06.96-.08,1.92-.14,2.88-.2l.61-.03c.23-.02.46-.03.69-.04.05,0,.1-.01.15-.01.09,0,.17-.01.26-.01a4.386,4.386,0,0,0-.18-.69,7.04,7.04,0,0,0-.79-1.67,12.032,12.032,0,0,0-1.49-1.88q-.3-.315-.63-.63a41.7,41.7,0,0,0-6.38-4.69c-.64-.41-1.3-.81-1.96-1.2a126.065,126.065,0,0,0-14.13-6.96c-11.17-4.8-22.95-8.69-33.96-13.76-.5-.22-1-.46-1.49-.69-2.52-1.19-4.99-2.46-7.39-3.8-1-.57-1.98-1.14-2.95-1.73-.99-.59-1.95-1.2-2.9-1.84-.32-.2-.64-.42-.96-.63-.75-.51-1.48-1.03-2.2-1.56-.64-.46-1.27-.94-1.89-1.42a1.738,1.738,0,0,1-.15-.13,3.785,3.785,0,0,1-.82-.9c-1.25-1.89.04-4.03,2.14-5.03a5.7,5.7,0,0,1,2.2-.56c.13-.01.26-.01.39-.01a4.814,4.814,0,0,1,.92.11.234.234,0,0,1,.11.02,2.25,2.25,0,0,1,.22.05,4.107,4.107,0,0,1,.46.15,1.458,1.458,0,0,1,.19.07,1.6,1.6,0,0,1,.27.12,4.674,4.674,0,0,1,.82.49c.06.04.11.08.17.12.53.41,1.06.82,1.61,1.21.37.28.76.56,1.14.82.86.61,1.74,1.2,2.63,1.77.65.43,1.31.84,1.97,1.23a138.51,138.51,0,0,0,19.85,9.62c3.45,1.4,6.95,2.75,10.46,4.1,4.58,1.77,9.17,3.53,13.66,5.43a118.059,118.059,0,0,1,20.26,10.55,38.9,38.9,0,0,1,3.72,2.85c.68.59,1.33,1.21,1.93,1.84a.832.832,0,0,1,.16.17,17.533,17.533,0,0,1,4.17,6.66,12.263,12.263,0,0,1,.51,2.39c.77.04,1.54.09,2.3.15a85.79,85.79,0,0,1,20.27,4c.12.03.24.07.36.11,14.69,4.89,27.23,12.81,39.03,21.17,9.08,6.42,17.97,13.02,26.78,19.68q4.575,3.45,9.12,6.93c.01,0,.01.01.02.01l2.37,1.8a1.132,1.132,0,0,0,.13.1c.15.12.29.23.44.34-.05-.13-.1-.26-.14-.39s-.09-.23-.13-.35c-.09-.23-.17-.47-.26-.7a72.892,72.892,0,0,1-3.6-15.77,86.416,86.416,0,0,1-.52-13.79c.54-13.25,3.46-26.33,5.49-39.46.78-5.02,1.43-10.05,1.77-15.1.12-1.58.2-3.17.24-4.75.03-1.28.05-2.56.02-3.84-.11-4.51-.87-8.97-4.1-12.86-4.2-5.07-11.22-8.72-17.55-11.92-.92-.47-1.85-.92-2.79-1.38a143.25,143.25,0,0,0-15.79-6.42c-1.15-.4-2.31-.77-3.48-1.13-.21-.08-.43-.14-.65-.21-2.47-.75-4.17-2.61-3.42-4.78a3.055,3.055,0,0,1,.53-.94,4.956,4.956,0,0,1,1.17-1.05,5.643,5.643,0,0,1,2.25-.86,4.683,4.683,0,0,1,2.07.13c.68.21,1.37.42,2.05.64.05.01.09.03.14.04.13.04.27.09.41.13a.145.145,0,0,0,.07.02s0,.01.01,0a.037.037,0,0,0,.03.01.035.035,0,0,0,.02.01c.01.01.02.01.04.01.11.04.23.08.35.12a.433.433,0,0,0,.05.01v.01c.15.04.31.1.47.15a.564.564,0,0,1,.12.04l1.11.36c.19.06.38.13.58.2,1.4.46,2.79.95,4.18,1.46a148.472,148.472,0,0,1,14.44,6.06,97.135,97.135,0,0,1,15.74,9.46q1.56,1.17,2.94,2.43a30.128,30.128,0,0,1,4.29,4.8,21.841,21.841,0,0,1,3.68,8.1c1.37,6.4.9,13.02.29,19.46-2.31,24.4-11.24,49.17-4.74,73.62.13.5.27.99.41,1.48.01.02.01.03.02.05.01.06.03.11.04.17q.345,1.125.72,2.25c.05.15.1.29.16.44a53.7,53.7,0,0,0,3.58,8.17c.41.77.85,1.54,1.3,2.29C891.334,380.074,892.014,381.1,892.754,382.124Z"/><path class="cls-11" d="M851.668,289.178c2.62-6.539,10.871-20.881,30.184-9.7,0,0,5.007,14-27.134,12.847C852.753,292.257,851.111,290.57,851.668,289.178Z"/><path class="cls-12" d="M798.568,405.553c-3.843-5.9-10.831-20.9,9.425-30.27,0,0,14.333,3.956-5.1,29.587C801.71,406.436,799.386,406.81,798.568,405.553Z"/><path class="cls-11" d="M675.524,352.508c-3.844-5.9-10.831-20.9,9.425-30.271,0,0,14.332,3.956-5.1,29.587C678.666,353.391,676.341,353.764,675.524,352.508Z"/><path class="cls-13" d="M759.546,275.87c-.864,6.991-5.181,22.964-26.709,17.081,0,0-8.414-12.259,22.957-19.347C757.711,273.17,759.73,274.382,759.546,275.87Z"/><path class="cls-13" d="M687.97,384.53c-.863,6.991-5.18,22.964-26.709,17.081,0,0-8.414-12.259,22.957-19.347C686.136,381.83,688.154,383.042,687.97,384.53Z"/><path class="cls-13" d="M893.474,264.3a23.673,23.673,0,0,1-8.24-1.32c-.91-.3-1.88-.65-2.89-1.05a7.975,7.975,0,0,1-1.4-3.75c-.21-2.26.74-5.11,5.44-7.29C888.794,255.294,891.194,259.754,893.474,264.3Z"/><path class="cls-12" d="M893.824,379.044c-.35,1.02-.71,2.05-1.07,3.08-1.2,3.46-2.45,6.95-3.71,10.49-.17.5-.35,1-.53,1.51-3.86-1.18-7.4-3.08-9.2-6.09a8.453,8.453,0,0,1-1-2.39,10.5,10.5,0,0,1-.1-4.21,12.662,12.662,0,0,1,.38-1.69,16.493,16.493,0,0,1,.61-1.79c.14-.37.3-.74.48-1.12a8.433,8.433,0,0,1,.83-.29,7.282,7.282,0,0,1,.78-.2,15.029,15.029,0,0,1,4.02-.37,14.566,14.566,0,0,1,4.08.75,14.956,14.956,0,0,1,3.07,1.42C892.914,378.414,893.374,378.714,893.824,379.044Z"/><path class="cls-13" d="M899.444,361.5c-.12.42-.25.84-.37,1.26-1.34,4.58-2.87,9.3-4.51,14.11a22.17,22.17,0,0,1-2.1,1.27q-.915.5-1.77.87a17.392,17.392,0,0,1-8.39,1.56,2.986,2.986,0,0,1-.43-.04,11.549,11.549,0,0,1-3.28-.79c-.24-.1-.37-.17-.37-.17-.03-.22-.06-.43-.08-.64q-.045-.42-.06-.81a11.049,11.049,0,0,1-.04-1.14c0-.34.02-.68.04-1.01v-.05c.02-.23.05-.47.08-.7,0-.01-.01-.01,0-.02s.01-.04.01-.07a.06.06,0,0,1,.01-.04.34.34,0,0,1,.01-.1,10.349,10.349,0,0,1,.23-1.16,2.251,2.251,0,0,1,.09-.35,9.663,9.663,0,0,1,.5-1.43,12.3,12.3,0,0,1,2.92-4.21.176.176,0,0,1,.05-.04,14.879,14.879,0,0,1,1.74-1.41c.37-.26.75-.51,1.15-.75C889.164,363.084,894.754,361.964,899.444,361.5Z"/><path class="cls-13" d="M861.2,398.718c-1.006-6.957-1.258-23.5,19.017-23.813,0,0,10.431,9.448-15.171,24.951C863.476,400.8,861.409,400.2,861.2,398.718Z"/><path class="cls-12" d="M869.415,353.644c7.3,3.232,23.111,12.272,8.76,25.285,0,0-16.46,1.353-12.613-23.482C865.8,353.929,867.862,352.957,869.415,353.644Z"/><path class="cls-11" d="M847.032,375.46c5.677,4.882,20.458,14.969,32.883.751,0,0-2.279-13.069-31.606-4.165C846.516,372.59,845.824,374.421,847.032,375.46Z"/><ellipse class="cls-14" cx="878.15" cy="376.75" rx="7.199" ry="4.675" transform="translate(-32.746 88.033) rotate(-5.634)"/><path class="cls-15" d="M879.842,364.251s-7.06,8.135-.648,12.633C879.194,376.884,875.176,372.707,879.842,364.251Z"/><path class="cls-15" d="M885.759,365.2s-10.263,5.339-7.024,11.831C878.735,377.028,877.4,371.664,885.759,365.2Z"/><path class="cls-15" d="M883.572,364.647s-9.31,6.481-4.837,12.381C878.735,377.028,876.388,371.983,883.572,364.647Z"/><path class="cls-15" d="M888.911,366.882s-11.322,3.127-10.34,10.268C878.571,377.15,879.02,371.534,888.911,366.882Z"/><ellipse class="cls-15" cx="878.499" cy="376.013" rx="1.649" ry="0.967" transform="translate(-41.256 116.789) rotate(-7.432)"/><path class="cls-12" d="M851.686,266.672c-7.9-5.218-25.039-18.614-9.8-28.244,0,0,17.685,2.894,13.913,27.395C855.573,267.32,853.367,267.782,851.686,266.672Z"/><path class="cls-13" d="M873.768,239.259c-8.262-4.795-28.517-14.566-34.663.7,0,0,8.642,13.417,34.968,2.889C875.682,242.2,875.526,240.279,873.768,239.259Z"/><path class="cls-13" d="M813.2,246.769c2.619-6.54,10.871-20.882,30.184-9.7,0,0,5.007,14-27.135,12.846C814.28,249.847,812.638,248.16,813.2,246.769Z"/><path class="cls-12" d="M844.089,212.724c5.238,6.9,15.536,23.585-4.7,26.65,0,0-16.244-8.135.134-27.278C840.525,210.925,842.975,211.257,844.089,212.724Z"/><path class="cls-11" d="M811.75,218.807c2.858,7.4,11.645,24.4,30.678,19.217,0,0,4.554-12.5-27.72-21.426C812.735,216.053,811.142,217.233,811.75,218.807Z"/><ellipse class="cls-14" cx="840.484" cy="237.49" rx="4.678" ry="7.918" transform="translate(254.863 885.458) rotate(-63.672)"/><path class="cls-15" d="M848.5,227.717s-10.844,2.994-7.095,10.477C841.4,238.194,839.75,232.339,848.5,227.717Z"/><path class="cls-15" d="M853.6,231.871s-12.436-1.214-12.706,6.187C840.9,238.058,842.387,232.7,853.6,231.871Z"/><path class="cls-15" d="M851.816,230.163s-12.12.3-10.921,7.895C840.9,238.058,841.265,232.4,851.816,230.163Z"/><path class="cls-15" d="M855.714,235.1s-12.3-3.71-15.037,2.973C840.677,238.07,843.982,233.5,855.714,235.1Z"/><ellipse class="cls-15" cx="841.192" cy="237.054" rx="0.969" ry="1.813" transform="translate(274.565 902.435) rotate(-65.321)"/><path class="cls-11" d="M720.432,284.783c-8.315,2.373-27.852,6.149-25.979-11.475,0,0,12.292-11.132,27.745,7.875C723.143,282.345,722.2,284.278,720.432,284.783Z"/><path class="cls-13" d="M713.455,250.338c-8.22,2.921-26.946,11.4-19.51,26.039,0,0,14.645,2.508,22.269-23.887C716.68,250.877,715.205,249.717,713.455,250.338Z"/><path class="cls-13" d="M683.886,300c-3.194-6.263-8.75-21.847,10.449-28.692,0,0,12.965,5.577-6.423,28.527C686.727,301.241,684.565,301.336,683.886,300Z"/><path class="cls-12" d="M677.225,254.665c7.986.7,25.942,4.155,16.464,21.115,0,0-15.233,6.6-19.552-18.163C673.873,256.1,675.525,254.516,677.225,254.665Z"/><path class="cls-11" d="M662.93,282.554c6.972,2.789,24.284,7.567,31.542-9.91,0,0-6.37-11.64-31.424,6.265C661.517,280,661.446,281.96,662.93,282.554Z"/><ellipse class="cls-14" cx="692.965" cy="273.724" rx="7.236" ry="4.675" transform="translate(-51.242 309.53) rotate(-24.309)"/><path class="cls-15" d="M690.559,261.342s-4.107,9.983,3.443,12.171C694,273.513,688.835,270.855,690.559,261.342Z"/><path class="cls-15" d="M696.5,260.326s-8.054,8.371-2.884,13.472C693.611,273.8,690.617,269.15,696.5,260.326Z"/><path class="cls-15" d="M694.236,260.512s-6.78,9.144-.625,13.286C693.611,273.8,689.755,269.78,694.236,260.512Z"/><path class="cls-15" d="M700.037,260.9s-9.773,6.619-6.543,13.063C693.494,273.966,692.116,268.5,700.037,260.9Z"/><ellipse class="cls-15" cx="693.06" cy="272.913" rx="1.658" ry="0.967" transform="translate(-49.393 332.729) rotate(-26.1)"/><path class="cls-12" d="M635.4,316.322c-8.768-.462-28.782-3.4-21.233-20.877,0,0,15.451-7.161,24.106,17.789C638.8,314.759,637.262,316.42,635.4,316.322Z"/><path class="cls-13" d="M639.927,278.448c-8.856.135-29.625,2.316-27.253,19.978,0,0,13.262,7.693,29.2-16.8A2.037,2.037,0,0,0,639.927,278.448Z"/><path class="cls-13" d="M595.295,319.221c-1.027-7.559-1.284-25.533,19.407-25.871,0,0,10.645,10.264-15.483,27.107C597.622,321.487,595.513,320.83,595.295,319.221Z"/><path class="cls-12" d="M603.683,270.25c7.449,3.511,23.585,13.332,8.94,27.472,0,0-16.8,1.469-12.872-25.513A2.858,2.858,0,0,1,603.683,270.25Z"/><path class="cls-11" d="M580.841,293.952c5.793,5.3,20.877,16.264,33.558.817,0,0-2.326-14.2-32.255-4.526C580.314,290.834,579.608,292.823,580.841,293.952Z"/><ellipse class="cls-14" cx="612.597" cy="295.354" rx="7.352" ry="5.075" transform="translate(-30.021 72.754) rotate(-6.635)"/><path class="cls-15" d="M614.324,281.774s-7.2,8.838-.661,13.725C613.663,295.5,609.562,290.961,614.324,281.774Z"/><path class="cls-15" d="M620.362,282.8s-10.474,5.8-7.168,12.853C613.194,295.655,611.833,289.828,620.362,282.8Z"/><path class="cls-15" d="M618.13,282.2s-9.5,7.041-4.936,13.451C613.194,295.655,610.8,290.175,618.13,282.2Z"/><path class="cls-15" d="M623.579,284.632s-11.554,3.4-10.552,11.156C613.027,295.788,613.484,289.687,623.579,284.632Z"/><ellipse class="cls-15" cx="612.953" cy="294.553" rx="1.685" ry="1.05" transform="matrix(0.989, -0.148, 0.148, 0.989, -36.772, 93.73)"/><path class="cls-12" d="M650.994,408.256c-9.334-.433-30.641-3.192-22.6-19.613,0,0,16.448-6.728,25.662,16.713C654.616,406.789,652.981,408.349,650.994,408.256Z"/><path class="cls-13" d="M655.818,372.674c-9.428.127-31.538,2.176-29.013,18.77,0,0,14.118,7.228,31.089-15.785C658.931,374.252,657.824,372.647,655.818,372.674Z"/><path class="cls-13" d="M608.3,410.98c-1.094-7.1-1.367-23.987,20.66-24.306,0,0,11.332,9.643-16.482,25.468C610.782,413.109,608.536,412.492,608.3,410.98Z"/><path class="cls-12" d="M617.234,364.973c7.93,3.3,25.108,12.525,9.517,25.809,0,0-17.883,1.381-13.7-23.969C613.3,365.263,615.546,364.271,617.234,364.973Z"/><path class="cls-11" d="M592.917,387.24c6.167,4.983,22.225,15.28,35.724.767,0,0-2.476-13.34-34.337-4.251C592.356,384.311,591.6,386.18,592.917,387.24Z"/><ellipse class="cls-14" cx="626.723" cy="388.558" rx="7.817" ry="4.774" transform="translate(-30.782 54.722) rotate(-4.88)"/><path class="cls-15" d="M628.562,375.8s-7.671,8.3-.7,12.9C627.858,388.694,623.493,384.43,628.562,375.8Z"/><path class="cls-15" d="M634.99,376.765s-11.15,5.45-7.631,12.076C627.359,388.841,625.909,383.366,634.99,376.765Z"/><path class="cls-15" d="M632.613,376.2s-10.114,6.614-5.254,12.637C627.359,388.841,624.808,383.692,632.613,376.2Z"/><path class="cls-15" d="M638.414,378.484s-12.3,3.192-11.233,10.481C627.181,388.965,627.668,383.233,638.414,378.484Z"/><ellipse class="cls-15" cx="627.102" cy="387.805" rx="1.79" ry="0.988" transform="translate(-40.334 74.469) rotate(-6.585)"/><path class="cls-11" d="M740.336,444.758c-8.189,4.466-27.908,13.328-30.611-3.137,0,0,10.079-13.5,31.527-.612C742.563,441.8,742.079,443.808,740.336,444.758Z"/><path class="cls-13" d="M723.772,415.544c-7.943,4.935-25.552,17.822-13.768,29,0,0,16.2-1.814,17.267-27.817C727.336,415.132,725.463,414.494,723.772,415.544Z"/><path class="cls-13" d="M705.618,468.716c-5.054-4.775-15.094-17.324,3.451-28.868,0,0,15.236,1.43.776,27.6C708.961,469.044,706.693,469.733,705.618,468.716Z"/><path class="cls-12" d="M686.491,429.56c8.659-1.591,28.624-3.474,23.082,14.51,0,0-14.4,10.216-25.572-10.978C683.318,431.8,684.649,429.9,686.491,429.56Z"/><path class="cls-11" d="M678.747,458.774c8.138.579,27.772.075,30.822-17.759,0,0-9.853-8.754-31.667,14.429C676.569,456.861,677.015,458.651,678.747,458.774Z"/><ellipse class="cls-14" cx="708.258" cy="442.413" rx="7.719" ry="4.53" transform="translate(-126.82 444.056) rotate(-32.104)"/><path class="cls-15" d="M702.412,431.882s-1.7,10.176,6.89,10.051C709.3,441.933,703.114,440.969,702.412,431.882Z"/><path class="cls-15" d="M708.438,429.308s-6.316,9.818.525,12.991C708.963,442.3,704.551,438.929,708.438,429.308Z"/><path class="cls-15" d="M706.091,430.106s-4.759,10.162,2.872,12.193C708.963,442.3,703.8,439.739,706.091,430.106Z"/><path class="cls-15" d="M712.349,428.843s-8.606,8.711-3.465,13.641C708.884,442.484,705.969,437.927,712.349,428.843Z"/><ellipse class="cls-15" cx="708.143" cy="441.653" rx="1.76" ry="0.942" transform="translate(-125.539 480.355) rotate(-34.609)"/><path class="cls-12" d="M797.7,323.6c-7.366,4.465-25.1,13.328-27.533-3.137,0,0,9.065-13.5,28.357-.612C799.7,320.637,799.268,322.648,797.7,323.6Z"/><path class="cls-13" d="M782.8,294.384c-7.144,4.935-22.983,17.822-12.384,29,0,0,14.573-1.814,15.531-27.817C786.008,293.972,784.323,293.334,782.8,294.384Z"/><path class="cls-13" d="M766.473,347.556c-4.546-4.775-13.576-17.324,3.1-28.868,0,0,13.705,1.43.7,27.6C769.48,347.884,767.44,348.573,766.473,347.556Z"/><path class="cls-12" d="M749.269,308.4c7.788-1.591,25.747-3.474,20.761,14.51,0,0-12.955,10.216-23-10.978C746.415,310.636,747.612,308.739,749.269,308.4Z"/><path class="cls-11" d="M742.3,337.614c7.319.579,24.98.075,27.723-17.759,0,0-8.863-8.754-28.483,14.429C740.345,335.7,740.746,337.491,742.3,337.614Z"/><ellipse class="cls-14" cx="768.848" cy="321.253" rx="7.19" ry="4.374" transform="translate(-34.262 543.39) rotate(-38.138)"/><path class="cls-15" d="M763.589,310.722s-1.529,10.176,6.2,10.051C769.786,320.773,764.221,319.809,763.589,310.722Z"/><path class="cls-15" d="M769.01,308.148s-5.681,9.818.472,12.991C769.482,321.139,765.513,317.769,769.01,308.148Z"/><path class="cls-15" d="M766.9,308.946s-4.281,10.162,2.583,12.193C769.482,321.139,764.841,318.579,766.9,308.946Z"/><path class="cls-15" d="M772.527,307.683s-7.74,8.711-3.116,13.641C769.411,321.324,766.789,316.767,772.527,307.683Z"/><ellipse class="cls-15" cx="768.744" cy="320.493" rx="1.646" ry="0.906" transform="translate(-26.226 568.899) rotate(-39.984)"/><path class="cls-12" d="M760.236,418.658c-8.411-1.857-27.36-7.7-17.748-21.283,0,0,15.878-3.5,20.933,19.14C763.73,417.9,762.026,419.053,760.236,418.658Z"/><path class="cls-11" d="M769.634,387.24c-8.575-1.365-28.93-2.982-28.98,12.419,0,0,11.793,8.751,30.443-9.395C772.237,389.155,771.459,387.53,769.634,387.24Z"/><path class="cls-13" d="M721.105,414.421c.01-6.593,2.144-21.9,22.181-18.736,0,0,8.925,10.5-18.553,20.442C723.054,416.735,721.1,415.824,721.105,414.421Z"/><path class="cls-12" d="M735.7,374.22c6.732,4.227,21.02,15.267,5,24.832,0,0-16.425-1.558-9.055-23.824C732.093,373.867,734.269,373.321,735.7,374.22Z"/><path class="cls-11" d="M710.49,390.54c4.894,5.473,18.016,17.3,32.315,6.3,0,0-.365-12.452-30.565-9.234C710.394,387.8,709.448,389.375,710.49,390.54Z"/><ellipse class="cls-14" cx="740.987" cy="397.036" rx="4.374" ry="7.19" transform="translate(274.317 1096.263) rotate(-84.464)"/><path class="cls-15" d="M744.455,385.788s-8.133,6.3-2.458,11.549C742,397.337,738.637,392.8,744.455,385.788Z"/><path class="cls-15" d="M750.154,387.67s-10.89,3.178-8.63,9.722C741.524,397.392,740.981,392.214,750.154,387.67Z"/><path class="cls-15" d="M748.076,386.789s-10.114,4.394-6.552,10.6C741.524,397.392,739.935,392.336,748.076,386.789Z"/><path class="cls-15" d="M753.019,389.762s-11.614.956-11.674,7.715C741.345,397.477,742.6,392.37,753.019,389.762Z"/><ellipse class="cls-15" cx="741.437" cy="396.415" rx="0.906" ry="1.646" transform="translate(298.122 1110.8) rotate(-86.31)"/></g><g id="Tokyo_Gate" data-name="Tokyo Gate"><path class="cls-16" d="M25.1,371.605s219.971,32.438,509.886,0L508.633,406.07H49.431Z"/><polygon class="cls-17" points="85.041 406.074 89.583 410.851 110.137 432.423 449.957 432.423 470.511 410.851 475.052 406.074 85.041 406.074"/><polygon class="cls-18" points="85.041 406.074 89.583 410.851 470.511 410.851 475.052 406.074 85.041 406.074"/><rect class="cls-17" x="127.295" y="432.426" width="75.013" height="17.233" transform="translate(329.604 882.085) rotate(-180)"/><rect class="cls-18" x="127.295" y="432.426" width="75.013" height="3.294" transform="translate(329.604 868.147) rotate(-180)"/><rect class="cls-19" x="145.542" y="449.659" width="38.52" height="301.066" transform="translate(329.604 1200.384) rotate(-180)"/><rect class="cls-20" x="145.542" y="449.659" width="38.52" height="3.294" transform="translate(329.604 902.612) rotate(-180)"/><rect class="cls-21" x="145.542" y="488.433" width="38.52" height="3.294" transform="translate(329.604 980.16) rotate(-180)"/><rect class="cls-20" x="145.542" y="602.219" width="38.52" height="3.294" transform="translate(329.604 1207.733) rotate(-180)"/><rect class="cls-16" x="139.713" y="677.232" width="50.178" height="73.493" transform="translate(329.604 1427.958) rotate(-180)"/><path class="cls-16" d="M138.446,477.029h52.712a0,0,0,0,1,0,0v5.7a5.7,5.7,0,0,1-5.7,5.7H144.148a5.7,5.7,0,0,1-5.7-5.7v-5.7A0,0,0,0,1,138.446,477.029Z" transform="translate(329.604 965.461) rotate(-180)"/><polygon class="cls-17" points="92.07 602.219 193.946 602.219 193.946 589.041 84.974 589.041 92.07 602.219"/><rect class="cls-19" x="103.22" y="602.219" width="18.246" height="148.506" transform="translate(224.687 1352.944) rotate(-180)"/><rect class="cls-20" x="103.22" y="602.219" width="18.246" height="3.294" transform="translate(224.687 1207.733) rotate(-180)"/><rect class="cls-17" x="357.717" y="432.426" width="75.013" height="17.233"/><rect class="cls-18" x="357.717" y="432.426" width="75.013" height="3.294"/><rect class="cls-19" x="375.964" y="449.659" width="38.52" height="301.066"/><rect class="cls-20" x="375.964" y="449.659" width="38.52" height="3.294"/><rect class="cls-21" x="375.964" y="488.433" width="38.52" height="3.294"/><rect class="cls-21" x="375.964" y="602.219" width="38.52" height="3.294"/><rect class="cls-16" x="370.135" y="677.232" width="50.178" height="73.493"/><path class="cls-16" d="M374.57,477.029h41.308a5.7,5.7,0,0,1,5.7,5.7v5.7a0,0,0,0,1,0,0H368.868a0,0,0,0,1,0,0v-5.7A5.7,5.7,0,0,1,374.57,477.029Z"/><polygon class="cls-20" points="467.956 602.219 366.08 602.219 366.08 589.041 475.052 589.041 467.956 602.219"/><rect class="cls-19" x="438.559" y="602.219" width="18.246" height="148.506"/><rect class="cls-20" x="438.559" y="602.219" width="18.246" height="3.294"/><polygon class="cls-17" points="96.378 484.705 100.655 489.205 120.014 509.523 440.079 509.523 459.439 489.205 463.716 484.705 96.378 484.705"/></g><g id="People"><path class="cls-22" d="M608.246,456.428a41.312,41.312,0,0,0,3.309-7.09l-3.272-.019Z"/><path class="cls-22" d="M247.39,456.428a41.312,41.312,0,0,0,3.309-7.09l-3.272-.019Z"/></g><g id="Human_2" data-name="Human 2"><path class="cls-23" d="M289.727,721.169s39.508,7.139,64.144-4.657C353.871,716.512,338.463,695.714,289.727,721.169Z"/><path class="cls-7" d="M231.679,787.728l-1.391,39.644a18.654,18.654,0,0,0,18.642,19.309h0a18.654,18.654,0,0,0,18.579-20.33l-3.655-40.532Z"/><path class="cls-24" d="M351.347,841.677a48.225,48.225,0,0,1-17.847,6.248,49.125,49.125,0,0,1-26.587-3.873l-20.6-181.55L267.357,766.629l-3.806,20.87c-18.629,31.454-31.869,0-31.869,0l-3.409-20.493-22.3-134.161L345.292,601.97Q348.319,721.828,351.347,841.677Z"/><path class="cls-25" d="M267.357,766.629l-3.806,20.87c-13.085,22.1-23.506,13.153-28.557,5.871v-.009a35.765,35.765,0,0,1-3.312-5.862l-3.409-20.493c4.471,2.269,20.667,9.387,35.288,1.921A29.1,29.1,0,0,0,267.357,766.629Z"/><path class="cls-26" d="M267.357,766.629l-3.806,20.87c-13.085,22.1-23.506,13.153-28.557,5.871v-.009c23.294,18,27.737-13.453,28.567-24.434A29.1,29.1,0,0,0,267.357,766.629Z"/><path class="cls-27" d="M217.717,705.343l1.133,4.961s27.056,15.685,60.607-10.162Z"/><path class="cls-27" d="M348.171,712.251s-25.633-24.3-55.386,7.285c0,0,42.588-14.474,55.386-3.627"/><path class="cls-7" d="M351.348,841.68l4.921,43.36H301.926q2.46-21.679,4.921-43.36a80.421,80.421,0,0,0,44.5,0Z"/><path class="cls-26" d="M356.269,885.04v3.37a2.728,2.728,0,0,1-2.728,2.728H304.654a2.728,2.728,0,0,1-2.728-2.728v-3.37a124.673,124.673,0,0,1,54.343,0Z"/><path class="cls-25" d="M314.993,859.157l-.8-1.829c.586-.259,14.514-6.226,27.47.015l-.866,1.8C328.684,853.306,315.13,859.1,314.993,859.157Z"/><path class="cls-25" d="M314.994,865.633l-.8-1.829c.586-.258,14.514-6.225,27.47.015l-.866,1.8C328.684,859.782,315.13,865.576,314.994,865.633Z"/><path class="cls-10" d="M353.868,716.517c-20.6-20.494-64.145,4.654-64.145,4.654L286.314,662.5l-3.786,31.358a10.7,10.7,0,0,1-4.674,7.6c-26.065,17.423-49.9,9.1-60.137,3.883a10.684,10.684,0,0,1-5.785-8.518l-1.014-10.894-2.481-26.673L206.93,643.1l-.821-8.827-.135-1.429.135-.029.068-.02,131.167-29.069,7.629-1.69.319-.067.744,9.976,4.809,64.222Z"/><path class="cls-23" d="M345.292,602.486c-4.066,1.081-10.24,1.689-16.572,4.954-45.8,23.612-68.885,44.386-96.11,43.574-7.668-.231-13.009.006-25.68-7.913l-.956-10.256L345.292,601.97Z"/><path class="cls-25" d="M344.761,646.432a103.245,103.245,0,0,0-3.564-31.415c-1.014-3.583-2.24-7.011-3.515-10.382,1.941-.579,3.737-1.091,5.35-1.535a4.7,4.7,0,0,0,1.941-1.063l.319-.067.744,9.976,4.809,64.222a232.445,232.445,0,0,1-18.117,22.8C338.223,682.7,344.036,665.564,344.761,646.432Z"/><path class="cls-25" d="M222.826,697.433s-5.427-4.741-11.908-11.5l-2.481-26.673C211.556,673.145,217.331,685.564,222.826,697.433Z"/><path class="cls-25" d="M299.094,775.14s12.808-15.817,50.456-4.629l1.8,71.169s-22.1,7-44.5,0Z"/><path class="cls-26" d="M301.514,772.972,311.6,832.605a8.7,8.7,0,0,0,6.593,7.02c5.229,1.229,15.017,2.41,33.155,2.055,0,0-17.138,6.9-44.5,0l-7.753-66.54Z"/><path class="cls-7" d="M300.1,781.113l-.786-1.217c.23-.148,23.344-14.734,50.7-3.131l-.566,1.333C322.787,766.789,300.32,780.969,300.1,781.113Z"/><path class="cls-28" d="M286.314,662.5l-3.786,31.358a10.7,10.7,0,0,1-4.674,7.6c-26.065,17.423-49.9,9.1-60.137,3.883a10.534,10.534,0,0,1-3.312-2.627v-.01c23.265,8.161,39.286,5.708,49.089,1.739a25.734,25.734,0,0,0,14.785-16.254Z"/><rect class="cls-23" x="283.726" y="650.742" width="1.449" height="12.055" transform="translate(-189.076 120.084) rotate(-18.005)"/><path class="cls-24" d="M413.483,431.835l-9.764,122.089H373.182l-9.193-84.435-18.7,6.384-15.722,5.369-.628-4.317-7.861-53.753L383.96,407A23.69,23.69,0,0,1,413.483,431.835Z"/><polygon class="cls-27" points="374.724 465.842 372.666 549.155 363.986 469.489 374.724 465.842"/><rect class="cls-27" x="363.282" y="464.507" width="26.482" height="1.448" transform="translate(-129.647 145.854) rotate(-18.765)"/><path class="cls-24" d="M343.438,602.984c-3.776,1.043-8.547,2.453-13.975,4.259-49.89,16.63-64.347,37.133-91.571,36.321-7.446-.222-17.683-2.086-29.88-9.445a15.709,15.709,0,0,1-7.533-11.878c-2.3-22.9-3.438-45.709-4.858-68.539-1.014-16.176-2.173-32.362-3.988-48.587l-27.978-38.861a6.225,6.225,0,0,1,3.728-9.715l23.158-5.022,125.605-27.273,4.935-1.072,7.861,53.753.628,4.317,6.547,44.772.174,1.217,10.363,70.827A4.441,4.441,0,0,1,343.438,602.984Z"/><path class="cls-27" d="M336.117,526.014l.174,1.217a36.649,36.649,0,0,1-3.563,3.457l-10.345-44.961a7.2,7.2,0,0,1,6.559-8.8h0l47.511-11.694L329.57,481.242Z"/><path class="cls-27" d="M194.327,499.02q9.779,55.365,4.5,56.84-1.21.337-3.211-2.158l-3.986-48.584Z"/><path class="cls-10" d="M346.586,597.624l-.241-1.652-7.958-54.419v-.01l-1.623-11.067v-.01l-.647-4.452s-31.946,10.527-19.971-101.77l-5.312,1.149L195.322,450.474l-4.781,1.043s32.246,49.88,5.08,102.185c.048.7.087,1.391.126,2.086.009.232.029.454.038.686,1.362,21.951,2.5,43.893,4.713,65.9a15.814,15.814,0,0,0,1.12,4.452,15.009,15.009,0,0,0,4.491,5.988.145.145,0,0,0,.068.048,13.458,13.458,0,0,0,1.429,1c12.371,7.572,22.753,9.474,30.286,9.7,27.224.812,41.681-19.691,91.571-36.321,2.955-.985,5.708-1.845,8.219-2.608,1.941-.579,3.737-1.091,5.35-1.535a4.7,4.7,0,0,0,1.941-1.063A4.914,4.914,0,0,0,346.586,597.624Z"/><path class="cls-7" d="M233.162,516.6l58.342-10.08a6.424,6.424,0,0,1,7.435,5.3l4.145,25.593a6.424,6.424,0,0,1-5.3,7.367l-59.36,9.717a6.424,6.424,0,0,1-7.413-5.549l-3.128-25.23A6.424,6.424,0,0,1,233.162,516.6Z"/><path class="cls-24" d="M153.658,468.28h0a20.508,20.508,0,0,1,14.164-11.725l8.022-1.85S168.451,472.107,153.658,468.28Z"/><path class="cls-25" d="M207.191,623.6a81.5,81.5,0,0,0-1.014,9.194.081.081,0,0,0,0,.068c-.039.463-.058.937-.068,1.41l-.135-1.429.135-.029a15.009,15.009,0,0,1-4.491-5.988,15.814,15.814,0,0,1-1.12-4.452c-2.211-22.009-3.351-43.951-4.713-65.9-.009-.232-.029-.454-.038-.686l1.989-.213c8.141,1.459,15.867,16.08,16.283,30.808C214.405,600.173,209.335,610.97,207.191,623.6Z"/><path class="cls-25" d="M344.973,602.037a4.7,4.7,0,0,1-1.941,1.063c-1.613.444-3.409.956-5.35,1.535-.116-.3-.222-.608-.338-.908-3.525-9.261-7.34-18.233-8.228-29.252-1.043-13.076,3.061-26.626,9.271-32.922l7.958,54.419.241,1.652A4.914,4.914,0,0,1,344.973,602.037Z"/><path class="cls-24" d="M153.658,468.28,111.985,559.3c-11,24.018,8.023,50.963,34.337,48.647l89.082-7.844V554.474l-66.433,3.343,22.664-52.7L164.36,467.235A6.22,6.22,0,0,0,153.658,468.28Z"/><path class="cls-25" d="M214.44,446.327s5.131,10.622,9.635,23.153c5.188,14.432,19.271,25.133,36.007,23.532.285-.027.57-.057.855-.088,17.216-1.888,30.5-15.543,31.377-31.156.567-10.129,1.435-25.046,2.969-32.994Z"/><path class="cls-24" d="M219.149,445.305a205.961,205.961,0,0,1,9.027,22.719,31.03,31.03,0,0,0,32.709,21.305q.37-.041.743-.085a31.061,31.061,0,0,0,27.092-29.359c.492-9.759,1.347-22.609,2.679-30.268Z"/><path class="cls-24" d="M247.588,379.232l31.318,7.662c15,49.929-7.081,50.72-7.081,50.72l1.126,7.8A16.517,16.517,0,0,1,256.687,464.3h0a16.519,16.519,0,0,1-16.609-16.432l-.182-33.991-5.931.031h0a8.994,8.994,0,0,1-9.043-8.947h0q0-.489.039-.978a10.746,10.746,0,0,1,11.626-9.786l3.124.269Z"/><path class="cls-27" d="M229.969,405.9c-.011-.029-1.014-3.011.406-4.857.944-1.225,2.795-1.747,5.506-1.551l.12-1.669c-3.311-.238-5.653.5-6.957,2.208-1.966,2.57-.71,6.263-.655,6.419Z"/><polygon class="cls-27" points="278.797 413.977 272.852 402.673 271.371 403.451 276.566 413.331 270.427 416.865 271.261 418.315 278.797 413.977"/><path class="cls-29" d="M255.647,398.447a.473.473,0,0,1,.215-.632l8.386-4.213a2.1,2.1,0,0,1,2.58.567l.3.37a1.341,1.341,0,0,1-.789,2.151l-10.168,2.01A.472.472,0,0,1,255.647,398.447Z"/><path class="cls-29" d="M285.6,397.568a.413.413,0,0,0-.214-.544l-7.532-3.3a1.835,1.835,0,0,0-2.23.616l-.241.337a1.171,1.171,0,0,0,.79,1.845l8.988,1.284A.414.414,0,0,0,285.6,397.568Z"/><path class="cls-27" d="M272.967,445.517A28.174,28.174,0,0,1,255.6,437.7c5.06,1.657,16.226-.087,16.226-.087Z"/><ellipse class="cls-29" cx="264.814" cy="402.628" rx="1.463" ry="2.168"/><ellipse class="cls-29" cx="279.467" cy="402.628" rx="1.463" ry="2.168"/><path class="cls-7" d="M275,423.225l-11.911-1.455a.653.653,0,0,0-.618,1.02c2,2.846,7.587,9.255,12.985,1.467A.661.661,0,0,0,275,423.225Z"/><path class="cls-28" d="M343.032,603.1c-3.708,1.033-8.334,2.395-13.569,4.143-49.89,16.63-64.347,37.133-91.571,36.321-7.533-.222-17.915-2.124-30.286-9.7a14.918,14.918,0,0,1-5.988-7.04c19.316,10.623,34.286,11.617,43.927,10.838,21.158-1.708,31.774-13.173,68.912-29.386,13.632-5.951,24.976-9.983,31.888-12.308q.12.827.241,1.652A4.94,4.94,0,0,1,343.032,603.1Z"/><path class="cls-25" d="M336.764,530.466v.01c-38.436,5.707-25.93-105.083-25.93-105.083l5.312-1.149c-11.975,112.3,19.971,101.77,19.971,101.77Z"/><path class="cls-25" d="M195.8,556.464l-.01.01c-.048-.928-.106-1.845-.164-2.772,27.166-52.305-5.08-102.185-5.08-102.185l4.781-1.043S231.093,512.928,195.8,556.464Z"/><path class="cls-25" d="M289.555,712.594l-.733-1.249c.412-.241,41.424-23.91,64.923-3.382l-.954,1.091C330.079,689.212,289.957,712.358,289.555,712.594Z"/><path class="cls-25" d="M243.187,706.528c-21.092,0-31.582-9.025-31.736-9.162l.963-1.082c.226.2,23.124,19.79,69.89-.125l.567,1.332C266.966,704.264,253.746,706.528,243.187,706.528Z"/><rect class="cls-27" x="145.59" y="557.093" width="23.381" height="1.449"/><rect class="cls-27" x="188.601" y="499.738" width="10.18" height="1.448" transform="translate(-342.37 475.62) rotate(-66.189)"/><path class="cls-29" d="M239.955,424.654l.01,1.717c-2.275-2.1-3.95-7.068-5.151-12.462l5.057-.031Z"/><path class="cls-29" d="M279.89,390.281c-2.277-1.064-15.2.3-20.722.94a6.257,6.257,0,0,0-4.09,2.218L242.54,408.505a.743.743,0,0,1-1.416-.246L240.1,396.676a2.918,2.918,0,0,0-2.629-2.4l-.89-.075a10.721,10.721,0,0,0-4.467.558,18.081,18.081,0,0,1,1.011-9.357c2.235-5.529,6.835-8.128,12.417-11.175,4.9-2.674,12.715-6.943,22.763-5.8,4.177.477,8.883,1.015,11.8,4.76C283.362,377.379,283.164,384.022,279.89,390.281Z"/><path class="cls-27" d="M258.356,465.57l-2.982-5.628a3.645,3.645,0,0,0-3.852-1.887l-25.39,4.426-.249-1.427,25.39-4.426a5.08,5.08,0,0,1,5.38,2.635l2.983,5.628Z"/><path class="cls-27" d="M269.706,459.63l-.428-4.322a4.044,4.044,0,0,1,2.66-4.208l17.439-6.265.489,1.364-17.438,6.264a2.6,2.6,0,0,0-1.708,2.7l.428,4.322Z"/><path class="cls-25" d="M247.6,811.682a16.355,16.355,0,0,1-8.453-2.217l.793-1.212c.279.181,6.935,4.392,15.837-.042l.646,1.3A19.634,19.634,0,0,1,247.6,811.682Z"/><path class="cls-25" d="M247.566,819.122a20.544,20.544,0,0,1-9.6-2.2l.77-1.345c.079.045,7.991,4.427,18.241-.037l.619,1.42A24.969,24.969,0,0,1,247.566,819.122Z"/><path class="cls-7" d="M249.236,776.137a47.722,47.722,0,0,1-20.759-5.151l.706-1.265c.2.112,20.365,11.113,37.094.029l.8,1.207A31.767,31.767,0,0,1,249.236,776.137Z"/><rect class="cls-27" x="239.503" y="440.779" width="1.448" height="10.665" transform="translate(-21.586 12.316) rotate(-2.811)"/><path class="cls-7" d="M145.332,488.991l43.695,19.39a2.9,2.9,0,0,1,1.491,3.783l-7.525,17.7a2.9,2.9,0,0,1-3.814,1.527l-44.314-19.1a2.9,2.9,0,0,1-1.493-3.857l8.144-17.987A2.9,2.9,0,0,1,145.332,488.991Z"/><polygon class="cls-10" points="140.746 492.146 189.908 513.601 183.441 528.805 133.986 507.077 140.746 492.146"/><rect class="cls-7" x="161.377" y="483.321" width="1.448" height="53.831" transform="translate(-369.273 444.969) rotate(-65.373)"/><path class="cls-24" d="M229.313,556.609l9.937-4.08,12.049-10.36c3.784-3.254,8.675-3.815,12.573-1.49l6.3,3.758a5.5,5.5,0,0,0,4.231.591l6.47-1.662a2.9,2.9,0,0,1,3.51,1.848,11.439,11.439,0,0,1,.633,2.339,14.373,14.373,0,0,1-1.033,7.706,12.565,12.565,0,0,1,2.516,7.813,16.055,16.055,0,0,1-1.452,6.47,14.008,14.008,0,0,1,2.325,6.041,18.661,18.661,0,0,1-1.187,9.251,4.389,4.389,0,0,1,2.265,3.611,6.081,6.081,0,0,1-.216,2.163,4.147,4.147,0,0,1-3.249,2.992l-49.932,6.575S199.8,584.464,229.313,556.609Z"/><rect class="cls-27" x="254.178" y="546.071" width="16.341" height="1.449" transform="translate(-146.81 99.134) rotate(-16.796)"/><path class="cls-24" d="M373.3,552.084l-1.076,7.46-4.989,9.971a7.476,7.476,0,0,0,1.136,8.811l3.634,3.644a3.846,3.846,0,0,1,1.126,2.778l-.024,4.687a2.035,2.035,0,0,0,1.858,2.072,8.066,8.066,0,0,0,1.7.031,10.093,10.093,0,0,0,5.067-2.021,8.821,8.821,0,0,0,5.747.376,11.268,11.268,0,0,0,4.154-2.1,9.837,9.837,0,0,0,4.509.549,13.09,13.09,0,0,0,6.092-2.39,3.08,3.08,0,0,0,2.845.924,4.274,4.274,0,0,0,1.434-.517A2.91,2.91,0,0,0,408,583.641q-1.933-16.69-4.065-35.1S387.212,527.236,373.3,552.084Z"/><rect class="cls-27" x="366.544" y="575.519" width="11.466" height="1.448" transform="translate(-220.786 921.094) rotate(-87.313)"/></g><g id="Human_3" data-name="Human 3"><path class="cls-10" d="M816.606,662.756,802.755,698.3a17.94,17.94,0,0,0,10.792,23.447h0a17.939,17.939,0,0,0,23.319-12.555l9.552-37.952Z"/><path class="cls-30" d="M813.477,663.863s4.042,32.794,30.664,11.369c.985-3.154-.775-67.79-.775-67.79Z"/><path class="cls-7" d="M823.451,689.555a15.742,15.742,0,0,1-6.97-4.7l1.106-.848c.2.253,4.9,6.188,14.388,4.99l.175,1.382A18.869,18.869,0,0,1,823.451,689.555Z"/><path class="cls-7" d="M821.058,696.3a19.736,19.736,0,0,1-8.013-5.045l1.125-.976c.058.066,5.849,6.555,16.571,5.758l.11,1.486A24.019,24.019,0,0,1,821.058,696.3Z"/><path class="cls-31" d="M827.182,675.619s-27.09,14.129-59.914-5.374c0,0,33.888-61.39,60.248,3.535"/><path class="cls-32" d="M890.655,574.72,878.132,818.309h-39.02L837.267,620.1,823.03,675.022c-1.518,18.737-18.773,31.031-34.11,27.762-13.167-2.808-18.739-16.755-17.038-32.539,3.3-31.841,8.042-65.673,14.369-98.51Z"/><path class="cls-10" d="M878.377,810.322l4.316,38.029H835.032q2.157-19.016,4.315-38.029a70.539,70.539,0,0,0,39.03,0Z"/><path class="cls-7" d="M882.693,848.351v2.955A2.393,2.393,0,0,1,880.3,853.7H837.424a2.393,2.393,0,0,1-2.392-2.393v-2.955a109.332,109.332,0,0,1,47.661,0Z"/><path class="cls-7" d="M846.492,825.65l-.7-1.6c.514-.227,12.73-5.461,24.093.013l-.759,1.578C858.5,820.519,846.612,825.6,846.492,825.65Z"/><path class="cls-7" d="M846.493,831.33l-.7-1.6c.514-.227,12.73-5.46,24.093.013l-.759,1.578C858.5,826.2,846.612,831.28,846.493,831.33Z"/><path class="cls-30" d="M837.785,675.8s19.8,14.962,47.478,3.808l.183-3.576Z"/><path class="cls-30" d="M772.134,667.84l-.55,4s37.058-7.217,51.994,1.068C823.578,672.905,813.02,650.807,772.134,667.84Z"/><path class="cls-7" d="M890.648,574.72v95.259a5.733,5.733,0,0,1-3.3,5.21,60.317,60.317,0,0,1-50.643.13,5.719,5.719,0,0,1-3.3-5.656q1.587-20.548,3.2-41.105c.222-2.823.436-5.637.65-8.461L827.18,675.616a53.026,53.026,0,0,0-59.912-5.368q9.5-49.259,18.983-98.509l100.775,2.879,3.269.093Z"/><path class="cls-5" d="M890.648,576.6v9.287c-30.22,15.343-105.465-8.377-105.465-8.377l101.843-2.888,3.232-.093.037.186Z"/><path class="cls-5" d="M836.706,675.319a60.312,60.312,0,0,0,50.641-.13,77.4,77.4,0,0,1-25.424,1.909,22.888,22.888,0,0,1-20.388-21.909l-1.95-47.936-2.971,21.3q-1.605,20.547-3.2,41.105A5.727,5.727,0,0,0,836.706,675.319Z"/><path class="cls-25" d="M941,481.384c-.613.362-1.226.734-1.857,1.1a197.85,197.85,0,0,1-46.482,19.782.031.031,0,0,1-.019.009c-.186,1.421-.529,3.864-1.124,6.864a116.4,116.4,0,0,1-4.253,15.825,25.206,25.206,0,0,0-1.124,6.111l-66.635,15.379,5.971,34.335,63.794-11.9c.576,3.464.984,5.628.984,5.628s3.585,21.491-105.075,2.981c0,0,8.359-29.849,2.387-53.735s-5.972-38.8-5.972-38.8l-17.914,19.28L730.389,457.8l14.6-10.021,11.144-7.643c1.319-.9,2.61-1.867,3.882-2.851,8.266-6.39,15.853-13.81,26.227-13.81H889.534a29.678,29.678,0,0,1,25.484,14.46l1.7,2.851,9.529,15.937Z"/><path class="cls-29" d="M820.072,368.287s-3.893,13.99-1.93,22.2C818.142,390.486,825.412,373.1,820.072,368.287Z"/><path class="cls-7" d="M856.815,423.47l-.009,1.848c-.047,8.488-7.337,15.333-16.29,15.333h-.093c-9-.047-16.252-6.984-16.206-15.491a14.836,14.836,0,0,1,.121-1.69Z"/><path class="cls-33" d="M848.277,366.825l-25.826,6.319c-12.374,41.173,5.84,41.826,5.84,41.826l-.93,6.433a13.629,13.629,0,0,0,13.412,15.571h0a13.623,13.623,0,0,0,13.7-13.551l.15-28.03,4.891.026h0a7.417,7.417,0,0,0,7.457-7.378h0q0-.4-.032-.806a8.861,8.861,0,0,0-9.587-8.07l-2.576.221Z"/><path class="cls-33" d="M854.772,379.383v9.891s-22.419-8.934-27.425-14.311c0,0-4.318,5.135-6.91,5.618q.822-3.482,2.016-7.439l25.827-6.315Z"/><path class="cls-34" d="M862.807,388.817c.009-.024.835-2.483-.336-4.006-.778-1.01-2.3-1.44-4.54-1.278l-.1-1.377c2.73-.2,4.662.416,5.737,1.821,1.621,2.12.585,5.164.54,5.293Z"/><polygon class="cls-35" points="821.619 396.149 826.521 386.827 827.742 387.469 823.458 395.616 828.521 398.53 827.832 399.726 821.619 396.149"/><path class="cls-34" d="M827.349,421.487a23.235,23.235,0,0,0,14.322-6.446c-4.173,1.367-13.38-.071-13.38-.071Z"/><ellipse class="cls-29" cx="833.595" cy="386.118" rx="1.206" ry="1.787"/><ellipse class="cls-29" cx="821.988" cy="386.118" rx="1.206" ry="1.787"/><polygon class="cls-26" points="784.736 472.55 758.627 497.194 763.684 504.249 780.956 485.661 784.736 472.55"/><path class="cls-26" d="M890.371,476.609l13.419,22.175-10.249,3.237S893.171,479.894,890.371,476.609Z"/><rect class="cls-7" x="890.809" y="486.508" width="49.15" height="1.393" transform="translate(-120.6 442.116) rotate(-25.532)"/><path class="cls-36" d="M889.274,568.9l-63.794,11.9-5.971-34.335,66.635-15.379C885.243,542.159,887.788,559.9,889.274,568.9Z"/><rect class="cls-31" x="827.618" y="612.812" width="22.128" height="1.389" transform="translate(100.194 1344.542) rotate(-80.895)"/><path class="cls-37" d="M893.329,502.414l-1.367-.268c2.659-13.583-3.779-29.892-3.844-30.055l1.293-.518C889.684,472.255,896.066,488.43,893.329,502.414Z"/><path class="cls-32" d="M934.475,560.474l-45.2,8.423-37.79,6.325-5.971-34.335,40.631-9.807,10.485-2.424,1.783-.409-.009-.046-5.758-25.921a.032.032,0,0,1,.019-.009,197.171,197.171,0,0,0,26.849-9.7,199.32,199.32,0,0,0,18.045-9.157.592.592,0,0,0,.056-.037c.009,0,.009,0,.009-.009h.009c.511-.3,1.012-.6,1.514-.883l14.33,46.557A24.6,24.6,0,0,1,934.475,560.474Z"/><path class="cls-30" d="M900.106,510.476l9.542,14.848L898.4,528.2l-5.758-25.921a.032.032,0,0,1,.019-.009,197.171,197.171,0,0,0,26.849-9.7,199.32,199.32,0,0,0,18.045-9.157c-1.348.967-20.729,14.589-35.113,19.925A4.825,4.825,0,0,0,900.106,510.476Z"/><path class="cls-32" d="M852.846,540.144l-8.134.2L833.2,536.84a8.071,8.071,0,0,0-9.172,2.8l-3.221,4.527a4.158,4.158,0,0,1-2.753,1.7l-4.993.822a2.2,2.2,0,0,0-1.869,2.353,8.616,8.616,0,0,0,.275,1.814,10.884,10.884,0,0,0,3.067,5.028,9.514,9.514,0,0,0,.639,6.184,12.176,12.176,0,0,0,2.981,4.043,10.612,10.612,0,0,0,.231,4.9,14.13,14.13,0,0,0,3.645,6.051,3.327,3.327,0,0,0-.468,3.2,4.6,4.6,0,0,0,.809,1.433,3.145,3.145,0,0,0,3.166,1.084L862.16,572.1S881.808,550.452,852.846,540.144Z"/><rect class="cls-30" x="820.759" y="542.638" width="12.378" height="1.564" transform="translate(-59.735 104.168) rotate(-6.957)"/><rect class="cls-30" x="897.979" y="524.204" width="26.088" height="1.393" transform="translate(-104.166 251.268) rotate(-14.864)"/><path class="cls-32" d="M731.174,457.791,706.86,479.1a26.559,26.559,0,0,0-9,21.527l-12.277,98.775,29.845-2.672,21.08-85.716,19.63-17.592Z"/><path class="cls-32" d="M715.6,584.54l1.134,7.617,4.952,9.951a7.511,7.511,0,0,1-1.065,8.72l-3.482,3.61a3.777,3.777,0,0,0-1.059,2.711l.066,4.511a1.958,1.958,0,0,1-1.754,2.009,7.67,7.67,0,0,1-1.621.055,9.642,9.642,0,0,1-4.87-1.856,8.4,8.4,0,0,1-5.484.446,10.877,10.877,0,0,1-4.024-1.946,9.322,9.322,0,0,1-4.3.6,12.759,12.759,0,0,1-5.913-2.207,2.884,2.884,0,0,1-2.691.933,4.158,4.158,0,0,1-1.395-.476,2.9,2.9,0,0,1-1.531-2.606c.782-10.907,4.3-23,5.2-35.619C687.764,580.989,701.2,558.506,715.6,584.54Z"/><polygon class="cls-30" points="716.439 614.483 717.832 614.395 717.223 603.143 715.814 603.233 716.439 614.483"/><path class="cls-7" d="M690.229,563.69c6.152,1.25,25.676,4.785,31.7,5.872a1.879,1.879,0,0,1,1.523,2.127l-1.844,12.44a1.881,1.881,0,0,1-2.241,1.567l-32.291-6.66a1.881,1.881,0,0,1-1.462-2.221l2.4-11.66A1.879,1.879,0,0,1,690.229,563.69Z"/><path class="cls-10" d="M687.846,565.973c1.4.5,35.443,6.837,35.443,6.837l-1.453,9.8-36.075-6.5Z"/><rect class="cls-7" x="703.955" y="556.194" width="1.448" height="36.375" transform="translate(14.732 1166.377) rotate(-79.814)"/><path class="cls-37" d="M780.9,485c-.287-5.657,4.822-16.588,5.039-17.051l1.261.593c-.052.11-5.178,11.078-4.909,16.388Z"/><path class="cls-30" d="M731.174,457.791l13.559,29.145a12.491,12.491,0,0,1-.686,11.813L736.5,511.018l19.63-17.592Z"/><polygon class="cls-10" points="926.246 456.718 906.418 464.314 899.88 447.226 916.717 440.781 926.246 456.718"/><path class="cls-10" d="M767.268,446.418,752.948,457.8l-7.959-10.021,11.144-7.643c1.319-.9,2.61-1.867,3.882-2.851Z"/><path class="cls-7" d="M881.036,761.792l-2.5,48.525s-16.94,6.167-39.5.121l-.455-48.646a44.191,44.191,0,0,0,4.755,1.541C850.8,765.376,865.954,768.033,881.036,761.792Z"/><path class="cls-5" d="M878.538,810.317s-16.94,6.167-39.5.121l-.455-48.646a44.191,44.191,0,0,0,4.755,1.541l1.407,24.071a24.73,24.73,0,0,0,24.492,23.285C872.038,810.713,875.131,810.6,878.538,810.317Z"/><path class="cls-10" d="M858.987,770.025c-12.645,0-20.55-3.164-20.667-3.213l.529-1.288c.173.071,17.5,6.982,42-.025l.382,1.339A80.775,80.775,0,0,1,858.987,770.025Z"/><path class="cls-10" d="M860.065,774.758c-13.686,0-21.7-4.234-21.813-4.3l.665-1.224c.157.084,16.043,8.439,41.45,1.145l.385,1.339A74.85,74.85,0,0,1,860.065,774.758Z"/><rect class="cls-7" x="750.436" y="449.515" width="1.393" height="55.994" transform="translate(-137.909 520.205) rotate(-35.194)"/><path class="cls-25" d="M890.028,658.551c-14.464-14.062-10.082-73.833-9.888-76.371l1.792.137c-.046.613-4.515,61.466,9.35,74.945Z"/><path class="cls-25" d="M890.046,643.449c-6.3-5.682-5.573-56.854-5.47-62.671l1.8.032c-.4,22.513.569,57.418,4.877,61.3Z"/><path class="cls-25" d="M770.251,656.193l-.2-1.787c1.5-.168,5.691-4.222,12.115-38.14,3.575-18.875,6.079-37.878,6.1-38.067l1.783.233c-.025.19-2.534,19.237-6.118,38.162C777.331,651.453,772.962,655.889,770.251,656.193Z"/><path class="cls-29" d="M854.624,395.394l4.885.028a61.637,61.637,0,0,1-4.941,10.588Z"/><path class="cls-29" d="M857.832,356.718s15.111-21.607,27.649-4.293-12.538,42.12-5.075,51.658S897.08,414.97,897.08,414.97a21.772,21.772,0,0,1-13.241.293,21.521,21.521,0,0,1-9.105-5.523,8.827,8.827,0,0,0,4.478,6.269,14.353,14.353,0,0,1-5.523-.9,16.125,16.125,0,0,1-4.627-2.836c-3.161-2.905-2.291-14.034,3.828-27.183a21.538,21.538,0,0,0,1.612-4.552c1.2-5.609-.182-10.529-3.35-12.6a7.672,7.672,0,0,0-4.69-1.123Z"/><path class="cls-7" d="M855.05,356.251c2.56-1.009,6.281,3.355,7.631,4.94,1.06,1.243,5.58,6.545,3.928,9.078-.658,1.008-2.1,1.432-2.4,1.221-3.076-2.138-8.567-6.7-10.811-13.256C853.294,357.924,853.954,356.683,855.05,356.251Z"/><path class="cls-29" d="M863.158,380.711a8.81,8.81,0,0,0-5.813-1.551,2.816,2.816,0,0,0-2.573,2.8v4.794a1.686,1.686,0,0,1-2.333,1.559c-5.872-2.446-21.078-9.044-25.092-13.355,0,0-4.318,5.135-6.91,5.618-2.657.5-2.332-11.808,3.33-18.649,5.888-7.114,15.928-8.146,22.637-6.774a25.522,25.522,0,0,1,12.509,6.745,17.217,17.217,0,0,1,5.094,7.512A16.464,16.464,0,0,1,863.158,380.711Z"/><path class="cls-29" d="M839.817,381.6a.388.388,0,0,0-.283-.471l-7.49-1.945a1.729,1.729,0,0,0-1.982.9l-.174.349a1.107,1.107,0,0,0,1.009,1.6l8.546-.14A.39.39,0,0,0,839.817,381.6Z"/><path class="cls-29" d="M816.051,381.614a.341.341,0,0,1,.237-.419l6.527-1.83a1.515,1.515,0,0,1,1.752.758l.158.3a.966.966,0,0,1-.856,1.416l-7.488.021A.341.341,0,0,1,816.051,381.614Z"/><path class="cls-35" d="M825.127,405.957l-.115-1.389c.069,0,6.924-.613,9.224-3.793l1.129.816C832.688,405.291,825.435,405.931,825.127,405.957Z"/><rect class="cls-7" x="805.608" y="463.02" width="62.651" height="27.178" rx="5.229" transform="translate(14.246 -24.189) rotate(1.67)"/></g><g id="Human_1" data-name="Human 1"><path class="cls-33" d="M615.879,703.615c-2.53,18.117-18.89,30.256-34.767,28.054-13-1.8-23.912-12.969-25.9-27.378-.039-.222-.068-.445-.1-.676l-.512-7.282-2.395-33.849L540.628,894.378H492.872l-4.307-187.209-.029-1.352-.106-5.6-2.511-125.759,126.222-9.387q1.8,66.623,3.593,133.244Q615.806,700.964,615.879,703.615Z"/><path class="cls-34" d="M490.535,792.878s30.015,6.179,55.328-3.338l-.165,3.338S503.02,810.078,490.535,792.878Z"/><path class="cls-38" d="M545.7,792.878l-3.969,81.615s-19.856,21.874-45.979,2.579c-1.072-.792-2.144-1.652-3.235-2.579l-1.98-81.615s15.877,8.3,46.066,2.183C539.5,794.472,542.531,793.757,545.7,792.878Z"/><path class="cls-39" d="M545.7,792.878l-3.969,81.615s-19.856,21.874-45.979,2.579a66.073,66.073,0,0,0,20.358,2.389A21.9,21.9,0,0,0,536.6,857.505V795.061C539.5,794.472,542.531,793.757,545.7,792.878Z"/><path class="cls-34" d="M550.4,699.887s-32.084,22.168-61.84,7.28l-.139-6.949Z"/><path class="cls-34" d="M615.734,698.313s-40.6-6.229-60.523,5.978c-.039-.222-.068-.445-.1-.676l-.512-7.282a1.519,1.519,0,0,1,.6-.85c1.9-1.13,3.66-2.269,3.97-2.376S604.415,681.374,615.734,698.313Z"/><path class="cls-25" d="M617.55,694.923a3.792,3.792,0,0,1-5.264,3.65c-22.328-9.531-43.96-3.254-53.386.483a3.793,3.793,0,0,1-5.176-3.36l-.647-14.235-.87-18.977.3,33.965a3.828,3.828,0,0,1-2.1,3.438c-.319.164-.647.328-.966.493l-.029.009-2.588,1.2-.049.019c-26.809,11.753-51.783,1.767-59.113-1.748a3.781,3.781,0,0,1-2.154-3.428l.329-95.4.087-26.577,126.222-9.387.783,18.8Z"/><path class="cls-26" d="M613.43,596.034S601.913,619.021,485.5,609.709l.205-18.832Z"/><path class="cls-26" d="M552.207,662.484l.3,33.965a3.828,3.828,0,0,1-2.1,3.438c-.319.164-.647.328-.966.493l-.029.009-2.588,1.2-.049.019,5.437-69.167.87,49.022Z"/><path class="cls-33" d="M782.122,380.342l-42.647,105.6A30.608,30.608,0,0,1,705.094,504.5l-88.6-17.712-.724,16.341-.512,11.608-.155,3.515-2.955,61.8s-26.49,19.247-50.083,11.792-40.146,12.419-56.284,6.625-19.46-10.343-19.46-10.343L483.5,513.875l-.126-3.534-.251-6.973-.512-14.312L379.224,509.211a30.627,30.627,0,0,1-34.815-20.117l-36.467-106.4,38.268-13.7,39.542,86.957,74.922-22.318a169.953,169.953,0,0,1,29.967-6.056c1.207-.135,2.424-.251,3.631-.357q7.417-.652,14.883-.657h90.4q6.113,0,12.207.445,2.057.144,4.114.347a169.955,169.955,0,0,1,33.8,6.77l51.87,16.031,39.459-79.443Z"/><path class="cls-34" d="M614.155,434.379l.883,23.058a26.162,26.162,0,0,0,17.971,23.852l68.257,22.443L616.5,486.786l-.724,16.341S575.184,490.62,614.155,434.379Z"/><path class="cls-34" d="M492.013,434.379l-3.293,22.11a35.7,35.7,0,0,1-23.915,28.575l-52.591,17.715,70.392-13.723.512,14.312S518.391,483.791,492.013,434.379Z"/><path class="cls-25" d="M611.069,474.666a144.289,144.289,0,0,0,4.7,28.461l-.512,11.608-.155,3.515L483.5,513.875l-.126-3.534-.251-6.973a117.912,117.912,0,0,0,7.523-75.792c1.207-.135,2.424-.251,3.631-.357q7.417-.652,14.883-.657h90.4q6.113,0,12.207.445,2.057.144,4.114.347A145.025,145.025,0,0,0,611.069,474.666Z"/><path class="cls-38" d="M615.782,589.01a11.365,11.365,0,0,1-9.435,11.309,351.793,351.793,0,0,1-115.58.531,11.338,11.338,0,0,1-9.532-11.55c.01-.251.019-.512.019-.763q1.131-37.331,2.241-74.662l-.126-3.534a108.7,108.7,0,0,0,10.9-83.122q7.417-.652,14.883-.657h90.4q6.113,0,12.207.445a133.332,133.332,0,0,0,3.5,87.728l-.155,3.515Z"/><path class="cls-25" d="M590.888,426.562c-.7,5.281-1.808,19.243-4.418,31.314-3.627,16.775-19.61,28.5-37.31,27.042q-.4-.033-.789-.07a34.677,34.677,0,0,1-30.839-27.314,223.479,223.479,0,0,1-3.628-30.972Z"/><path class="cls-33" d="M586.906,426.562c-.623,4.915-1.622,17.911-3.966,29.147a31.628,31.628,0,0,1-33.5,25.17c-.237-.021-.473-.042-.708-.066a31.549,31.549,0,0,1-27.688-25.423,215.2,215.2,0,0,1-3.258-28.828Z"/><path class="cls-33" d="M559.742,360.98l-28.712,7.025c-13.756,45.773,6.493,46.5,6.493,46.5l-1.034,7.152A15.148,15.148,0,0,0,551.4,438.967h0A15.145,15.145,0,0,0,566.627,423.9l.166-31.162,5.438.029h0a8.247,8.247,0,0,0,8.29-8.2h0q0-.448-.036-.9a9.851,9.851,0,0,0-10.658-8.971l-2.864.245Z"/><path class="cls-34" d="M575.9,385.429c.01-.027.929-2.76-.373-4.453-.865-1.123-2.561-1.6-5.047-1.421l-.11-1.531c3.035-.217,5.182.463,6.378,2.025,1.8,2.356.65,5.741.6,5.884Z"/><polygon class="cls-35" points="532.096 392.834 537.546 382.471 538.904 383.184 534.141 392.241 539.77 395.481 539.005 396.811 532.096 392.834"/><path class="cls-40" d="M553.245,377.411a.431.431,0,0,0-.314-.524l-8.327-2.162a1.92,1.92,0,0,0-2.2,1l-.193.389a1.23,1.23,0,0,0,1.121,1.776l9.5-.156A.432.432,0,0,0,553.245,377.411Z"/><path class="cls-40" d="M525.64,377.286a.379.379,0,0,1,.263-.466l7.257-2.034a1.683,1.683,0,0,1,1.947.842l.176.337a1.076,1.076,0,0,1-.952,1.575l-8.324.023A.377.377,0,0,1,525.64,377.286Z"/><path class="cls-34" d="M536.476,421.749a25.833,25.833,0,0,0,15.922-7.166c-4.639,1.52-14.875-.079-14.875-.079Z"/><path class="cls-40" d="M539.169,334.245s-5.023-13.232,9.781-10.6c8.143,1.446,15.467,9.68,20.409,16.8a108.7,108.7,0,0,0,12.877,15.446,18.752,18.752,0,0,1,3.794,5.234c5.684,11.784-1.467,30.22-19.3,43.89l.065-12.267,5.446.029h.008a8.156,8.156,0,0,0,8.132-6.606A9.841,9.841,0,0,0,569.826,374.7a3.566,3.566,0,0,0-3.232,3.091l-.613,4.7a.92.92,0,0,1-.843.8.956.956,0,0,1-.941-.63l-4.438-11.446c-.023-.061-.049-.121-.077-.181a2.672,2.672,0,0,0-3.556-1.279c-4.8,2.3-15.646,6.147-25.722.367a27.047,27.047,0,0,1-8.066-7.253C507.623,343.565,530.158,329.565,539.169,334.245Z"/><ellipse class="cls-29" cx="545.881" cy="382.429" rx="1.341" ry="1.987"/><ellipse class="cls-29" cx="530.516" cy="382.429" rx="1.341" ry="1.987"/><path class="cls-41" d="M535.648,400.921l10.915-1.375a.6.6,0,0,1,.57.932c-1.825,2.617-6.923,8.512-11.9,1.39A.6.6,0,0,1,535.648,400.921Z"/><path class="cls-34" d="M542.282,448.028l-1-5.266a6.409,6.409,0,0,0-6.289-5.2H518.4v-1.931H534.99a8.341,8.341,0,0,1,8.186,6.773l1,5.267Z"/><path class="cls-34" d="M561.993,448.028l-1.9-.361,1-5.267a8.341,8.341,0,0,1,8.186-6.773h16.594v1.931H569.285a6.409,6.409,0,0,0-6.289,5.2Z"/><rect class="cls-37" x="551.48" y="626.437" width="1.449" height="51.311"/><rect class="cls-38" x="488.168" y="591.888" width="1.449" height="108.494"/><rect class="cls-38" x="610.659" y="584.041" width="1.448" height="114.882" transform="translate(-30.232 30.239) rotate(-2.765)"/><path class="cls-39" d="M613.04,596.523a11.31,11.31,0,0,1-6.693,3.8,351.793,351.793,0,0,1-115.58.531,11.338,11.338,0,0,1-9.532-11.55c.01-.251.019-.512.019-.763C495.132,592.97,543.921,606.026,613.04,596.523Z"/><rect class="cls-25" x="611.535" y="503.726" width="1.449" height="92.805" transform="translate(-9.163 10.372) rotate(-0.963)"/><rect class="cls-25" x="438.807" y="549.404" width="92.852" height="1.449" transform="translate(-81.918 1015.351) rotate(-87.948)"/><path class="cls-25" d="M487.069,922.452h60.1L541.728,874.5a39.658,39.658,0,0,1-49.217,0Z"/><path class="cls-7" d="M547.17,922.452v3.726a3.016,3.016,0,0,1-3.016,3.017H490.086a3.016,3.016,0,0,1-3.017-3.017v-3.726a137.856,137.856,0,0,1,60.1,0Z"/><path class="cls-7" d="M501.521,893.826l-.886-2.023c.648-.287,16.053-6.886,30.382.016l-.958,1.991C516.662,887.355,501.672,893.761,501.521,893.826Z"/><path class="cls-7" d="M501.522,900.988l-.887-2.023c.648-.285,16.053-6.885,30.382.017l-.958,1.99C516.662,894.517,501.672,900.925,501.522,900.988Z"/><path class="cls-7" d="M517.021,803.891c-16.32,0-26.555-5.347-26.707-5.428l.685-1.277c.222.12,22.662,11.8,54.195-.04l.51,1.357A81.292,81.292,0,0,1,517.021,803.891Z"/><path class="cls-7" d="M514.6,810.87c-15.825,0-23.665-4.678-24.148-4.976l.761-1.233c.174.107,17.8,10.556,53.656-.078l.411,1.389A108.11,108.11,0,0,1,514.6,810.87Z"/><path class="cls-33" d="M350.339,378.254l-3.268-6.115a7.376,7.376,0,0,1-.8-4.49c1.056-7.652,3.687-31.68-4.255-35.665l-10.669-45.816a5.306,5.306,0,0,0-10.416,1.978l6.007,40.7s-9.934-3.025-12.707,2.162c0,0-8.351-3.846-11.923,3.088-1.165-.468-5.017-1.847-8.483-.02a9,9,0,0,0-2.733,2.376c-.861,1.178-3.263,5.337,6.038,28.482a95.308,95.308,0,0,0,5.6,12.428c2.435,4.3,3.73,5.552,5.528,9.694.793,1.827,5.681,10.307,5.681,10.307l4.865,11.984"/><rect class="cls-34" x="304.637" y="333.855" width="1.902" height="26.6" transform="translate(-74.083 83.052) rotate(-13.821)"/><path class="cls-34" d="M317.609,362.873a5.39,5.39,0,0,1-.737.325c-2.189.771-4.772.079-7.693-2.059a6.972,6.972,0,0,1-3.269,4.084c-2.057,1.016-4.639.662-7.677-1.053l.936-1.656c2.451,1.384,4.433,1.723,5.891,1.008,2.156-1.059,2.617-4.131,2.622-4.162l.245-1.684,1.306,1.089c2.852,2.385,5.209,3.273,7.007,2.639,2.184-.767,3.086-3.707,3.288-4.484l-2.34-9.5,1.847-.455,2.446,9.933-.042.208C321.4,357.286,320.572,361.289,317.609,362.873Z"/><rect class="cls-34" x="314.101" y="330.975" width="1.902" height="7.525" transform="translate(-70.961 85.136) rotate(-13.848)"/><path class="cls-34" d="M329.4,360.324a6.338,6.338,0,0,1-2.364.732c-2.362.236-4.789-.936-7.215-3.483l1.377-1.312c2,2.1,3.9,3.077,5.649,2.9,2.268-.227,3.94-2.381,4.737-3.645l1.609,1.013A10.734,10.734,0,0,1,329.4,360.324Z"/><rect class="cls-34" x="326.717" y="328.586" width="1.902" height="6.819" transform="translate(-69.938 88.075) rotate(-13.848)"/><path class="cls-34" d="M334.265,362.558c-1.5-1.178-2.448-3.338-2.824-6.419a30.585,30.585,0,0,1-.115-5.482c.086-1.555.246-2.928.378-3.885l-6.6,1.414a11.627,11.627,0,0,1-7.324-.1c-5.424-2.022-7.383-7.99-7.463-8.243l-.31-.97,31.783-7.805.453,1.847-29.729,7.3c.736,1.615,2.57,4.834,5.928,6.086a9.851,9.851,0,0,0,6.2.044l9.408-2.022-.261,1.4a44.627,44.627,0,0,0-.568,5.043,28.569,28.569,0,0,0,.1,5.141c.313,2.565,1.023,4.3,2.112,5.156Z"/><path class="cls-33" d="M737.165,378.254l3.268-6.115a7.376,7.376,0,0,0,.8-4.49c-1.056-7.652-3.687-31.68,4.255-35.665l10.669-45.816a5.306,5.306,0,0,1,10.416,1.978l-6.007,40.7s9.934-3.025,12.707,2.162c0,0,8.351-3.846,11.923,3.088,1.165-.468,5.018-1.847,8.484-.02a9.026,9.026,0,0,1,2.733,2.376c.861,1.178,3.262,5.337-6.039,28.482a95.173,95.173,0,0,1-5.6,12.428c-2.435,4.3-3.729,5.552-5.528,9.694-.793,1.827-5.681,10.307-5.681,10.307L768.7,409.345"/><rect class="cls-34" x="768.616" y="346.204" width="26.6" height="1.902" transform="translate(258.023 1023.502) rotate(-76.179)"/><path class="cls-34" d="M769.9,362.873a5.39,5.39,0,0,0,.737.325c2.189.771,4.772.079,7.693-2.059a6.971,6.971,0,0,0,3.27,4.084c2.056,1.016,4.638.662,7.676-1.053l-.936-1.656c-2.451,1.384-4.433,1.723-5.891,1.008-2.156-1.059-2.617-4.131-2.622-4.162l-.245-1.684-1.306,1.089c-2.852,2.385-5.209,3.273-7.006,2.639-2.185-.767-3.087-3.707-3.289-4.484l2.34-9.5-1.846-.455-2.446,9.933.041.208C766.1,357.286,766.932,361.289,769.9,362.873Z"/><rect class="cls-34" x="768.689" y="333.787" width="7.525" height="1.902" transform="translate(262.561 1004.62) rotate(-76.152)"/><path class="cls-34" d="M758.107,360.324a6.338,6.338,0,0,0,2.364.732c2.362.236,4.789-.936,7.215-3.483l-1.377-1.312c-2,2.1-3.9,3.077-5.649,2.9-2.267-.227-3.94-2.381-4.737-3.645l-1.609,1.013A10.734,10.734,0,0,0,758.107,360.324Z"/><rect class="cls-34" x="756.426" y="331.045" width="6.819" height="1.902" transform="translate(255.627 990.286) rotate(-76.152)"/><path class="cls-34" d="M753.239,362.558c1.5-1.178,2.448-3.338,2.824-6.419a30.585,30.585,0,0,0,.115-5.482c-.086-1.555-.245-2.928-.378-3.885l6.6,1.414a11.627,11.627,0,0,0,7.324-.1c5.424-2.022,7.383-7.99,7.463-8.243l.31-.97-31.783-7.805-.453,1.847,29.729,7.3c-.735,1.615-2.57,4.834-5.928,6.086a9.848,9.848,0,0,1-6.2.044l-9.408-2.022.26,1.4a44.627,44.627,0,0,1,.568,5.043,28.569,28.569,0,0,1-.1,5.141c-.313,2.565-1.023,4.3-2.111,5.156Z"/><path class="cls-25" d="M309.892,390.972c7.855-2.914,32.48-12.654,40.08-15.665a2.5,2.5,0,0,1,3.223,1.338l6.67,15.4a2.511,2.511,0,0,1-1.438,3.354l-41.3,15.187A2.51,2.51,0,0,1,313.9,409.1l-5.493-14.908A2.508,2.508,0,0,1,309.892,390.972Z"/><path class="cls-7" d="M308.8,395.239c1.939-.414,45-17.2,45-17.2l5.256,12.138L313.574,408.2Z"/><rect class="cls-25" x="309.529" y="391.953" width="48.548" height="1.932" transform="translate(-121.439 150.918) rotate(-21.656)"/><rect class="cls-7" x="505.955" y="498.683" width="85.102" height="39.133" rx="4.598"/><path class="cls-39" d="M584.834,537.816l-.522,1.046a3.859,3.859,0,0,1-3.627,2.131l-70.132-3.177Z"/></g><path id="Line" class="cls-42" d="M264.082,682.253q-7.86,0-15.723-.466l8.746-9.43-6.938-10.774a231.587,231.587,0,0,0,95.643-14.391c8.232-3.141,10.794-6.045,10.744-6.959-.09-1.655-7.592-4.035-12.557-5.611-1.636-.519-3.284-1.043-4.914-1.59-10.043-3.37-17-10.605-18.614-19.353S322.9,596.332,331.3,590.7c10.744-7.207,26.757-12.321,47.6-15.2a1824.281,1824.281,0,0,1,328.983-15.256c10.531.464,20.062,5.152,25.5,12.539a21.439,21.439,0,0,1,1.564,23.925,46.46,46.46,0,0,1-8.151,10.358c-6.061,5.833-13.086,10.285-19.879,14.59a138.367,138.367,0,0,0-13.247,9.1,4.075,4.075,0,0,0-.33.3c1.106.743,3.732,2.037,8.613,3.17A630.821,630.821,0,0,0,844.3,650.445L836.769,660l7.527,10.7a661.064,661.064,0,0,1-149.161-16.992c-29.674-6.889-27.645-22.338-26.316-26.908a21.307,21.307,0,0,1,7.263-10.366,158.19,158.19,0,0,1,15.569-10.772c6.057-3.838,11.777-7.464,16.167-11.688a26.607,26.607,0,0,0,4.6-5.832,4.361,4.361,0,0,0-.357-4.944,7.056,7.056,0,0,0-5.521-2.728,1793.617,1793.617,0,0,0-323.487,15c-16.271,2.246-28.7,6-35.948,10.864a4.133,4.133,0,0,0-2.049,4.333,4.745,4.745,0,0,0,3.5,3.629c1.481.5,2.98.973,4.467,1.445,10.978,3.483,27.567,8.747,28.372,23.594.4,7.441-3.614,18.025-25.036,26.2A260.129,260.129,0,0,1,264.082,682.253Z"/></g></svg>