<svg xmlns="http://www.w3.org/2000/svg" id="Layer_1" x="0" y="0" enable-background="new 0 0 1364 960" version="1.1" viewBox="0 0 1364 960" xml:space="preserve"><ellipse cx="635.35" cy="818.99" fill="#e2e9e7" rx="420" ry="61.51"/><path fill="#fff8d9" d="M415.89,79.51c138.6-1.17,182.38,87.64,295.56,122.36c80.45,18.69,161.33-32.21,243.91-30.28
		c102.01,2.39,166.01,103.87,138.66,204.79c-26.96,99.46-106.1,86.03-75.22,249.95c6.08,32.26,2.17,73.1-11.66,96.21
		c-72.98,121.97-312.15-29.6-463.65,23.68c-91.53,32.19-166.43,32.19-238.19-31.88c-60.24-53.78-84.69-149.38-53.1-212.56
		c23.73-47.45,65.58-81.46,73.25-133.95c14.09-96.36-51.25-121.64-34.82-201.21C302.87,107.36,362.99,79.96,415.89,79.51z"/><path fill="#298089" d="M1041.52,590.44c-18.34,18.8-53.68,14.82-73.51,33.11c-10.99,10.97-9.26,25.42-10.5,38.5
						c-4.32,23.33-10.53,49.24-27.24,70.59c-8.39,9.45-20.34,16.99-26.8,27.25c10.54,2.66,23.68,4.13,37.12,3.74
						c0.31-0.19,0.62-0.39,0.93-0.58c11.92-7.78,22.01-18.85,25.29-33.02c3-12.9,0.96-27.47,8.36-39.08
						c4.05-6.35,10.5-10.54,16.63-14.66c6.32-4.26,12.16-8.73,16.36-15.19c7.02-10.78,10.32-24.9,21.13-32.83
						c6.6-4.83,14.84-5.82,22.56-7.74c4.32-1.07,8.57-2.52,12.25-5.07c3.15-2.18,5.81-4.95,8.16-7.95
						c4.63-5.92,8.15-12.62,12.68-18.62c4.6-6.09,10.41-10.98,17-14.8c14.39-8.33,30.93-11.37,46.71-15.96
						c14.28-4.16,29.28-9.94,39.52-21.19c0.35-0.38,0.69-0.77,1.02-1.17c-0.94-2.09-2.5-4.03-4.77-5.75
						c-20.91-11.97-47.32,14.59-70.04,17.76c-26.3,1.12-45.29-7.18-59.49,21.2C1051.01,576.32,1047.87,584.11,1041.52,590.44z"/><path fill="#196572" d="M1148.67,558.13c-15.78,4.59-32.32,7.64-46.71,15.96c-6.59,3.82-12.41,8.71-17,14.8
						c-4.54,5.99-8.05,12.69-12.68,18.62c-2.35,3-5.01,5.77-8.16,7.95c-3.69,2.55-7.93,4-12.25,5.07
						c-7.72,1.92-15.96,2.91-22.56,7.74c-10.81,7.93-14.11,22.05-21.13,32.83c-4.2,6.46-10.04,10.93-16.36,15.19
						c-6.13,4.12-12.58,8.31-16.63,14.66c-7.4,11.61-5.37,26.18-8.36,39.08c-3.29,14.17-13.38,25.23-25.29,33.02
						c-0.3,0.2-0.62,0.4-0.93,0.58c0.68-0.01,1.36-0.04,2.05-0.07c31.09-1.32,75.29-15.41,74.9-47.14
						c-1.21-14.84,3.87-27.32,22.48-37.88c35.31-14.35,65.41-7.75,69.28-47.17c2.93-17.39-0.59-44.67,21.82-55.95
						c9.49-3.24,19.48-1.86,29.02-4.84c17.28-4.07,33.85-21.09,29.51-33.7c-0.11-0.37-0.26-0.74-0.44-1.11
						c-0.33,0.4-0.67,0.79-1.02,1.17C1177.95,548.19,1162.94,553.97,1148.67,558.13z"/><path fill="#fff" d="M1148.67,558.13c-15.78,4.59-32.32,7.64-46.71,15.96c-6.59,3.82-12.41,8.71-17,14.8
						c-4.54,5.99-8.05,12.69-12.68,18.62c-2.35,3-5.01,5.77-8.16,7.95c-3.69,2.55-7.93,4-12.25,5.07
						c-7.72,1.92-15.96,2.91-22.56,7.74c-10.81,7.93-14.11,22.05-21.13,32.83c-4.2,6.46-10.04,10.93-16.36,15.19
						c-6.13,4.12-12.58,8.31-16.63,14.66c-7.4,11.61-5.37,26.18-8.36,39.08c-3.29,14.17-13.38,25.23-25.29,33.02
						c-0.3,0.2-0.62,0.4-0.93,0.58c0.68-0.01,1.36-0.04,2.05-0.07c2.82-1.87,5.55-3.95,8.19-6.26c4.85-4.26,9.1-9.21,12.25-14.85
						c3.35-6,5.09-12.5,5.96-19.29c0.89-6.92,1.06-13.96,2.64-20.78c1.79-7.8,5.78-14.08,12.02-19.1
						c6.11-4.91,13.18-8.53,18.94-13.91c4.84-4.53,8.14-10.27,11.1-16.13c3.08-6.13,5.83-12.52,10.02-18
						c5.08-6.66,11.96-9.92,19.99-11.82c7.77-1.83,15.8-3.09,22.29-8.1c5.74-4.44,9.71-10.69,13.57-16.72
						c4.27-6.66,8.64-13.08,14.82-18.12c6.59-5.36,14.32-9.1,22.25-12c23.85-8.74,55.66-11.22,72.97-31.6
						c-0.11-0.37-0.26-0.74-0.44-1.11c-0.33,0.4-0.67,0.79-1.02,1.17C1177.95,548.19,1162.94,553.97,1148.67,558.13z"/><path fill="#a2d459" d="M306.62,560.83c-9.83-14.47-21.08-21.99-30.8-37.95c4.71-1.69,16.54-7.81,27.85-28.78
			c0,0,5.33-23.16,28.75-42.16c0,0-45.4,7.37-58.1,68.37l-0.47-0.39c-8.24-18.62-11.34-32.32-12.02-43.75
			c55.11-33.22,46.01-79.53,46.01-79.53c-9.67,28.56-29.53,41.61-29.53,41.61c-11.09,12.61-15.16,22.89-16.58,29.62
			c0.49-15.03,4.38-26.88,3.36-43.63c54.81-33.21,45.74-79.37,45.74-79.37c-9.67,28.56-29.53,41.61-29.53,41.61
			c-11.91,13.54-15.73,24.41-16.86,31.06c-1.33-9.94-4.47-21.66-10.78-36.5c-4.5-92.5-69.4-112.56-69.4-112.56
			c29.59,31.73,32.59,65.8,32.59,65.8c13.24,35.63,31.03,45.38,35.7,47.39c6.87,16.21,9.92,28.7,10.97,39.23
			c-45.54-42.52-86.89-22.37-86.89-22.37c30.08,2.02,47.8,17.87,47.8,17.87c21.33,10.62,34.52,8.8,39.35,7.46
			c1.26,18.65-3.59,31.27-3.28,48.76c-45.52-42.47-86.84-22.33-86.84-22.33c30.08,2.02,47.8,17.87,47.8,17.87
			c21.06,10.48,34.18,8.84,39.15,7.51c0.58,11.17,3.43,24.5,11.09,42.42l-0.06-0.05c-4.76-4.79-14.15-11.46-31.69-15.66
			c0,0-23.76,0.78-48.12-16.97c0,0,19.2,42.95,83.13,38.48c8.82,14.27,18.83,21.71,27.9,33.71c-5.04-4.68-13.92-12.95-30.63-14.64
			c-12.69-1.29-23.76,0.78-48.12-16.97c0,0,19.26,43.09,83.44,38.46c6.24,10.07,11.79,23.55,15.83,44.73
			c0.41-0.08,0.84-0.15,1.26-0.24c-4.17-21.71-9.91-35.39-16.35-45.59c4.83-1.78,20.74-6.81,27.66-28.71c0,0,5.34-23.16,28.75-42.16
			C364.7,492.52,319.33,499.89,306.62,560.83z"/><path fill="#a2d459" d="M954.63,564.12c11.26-7.69,21.57-9.95,33.17-18.76c-2.94-2.57-9.78-10.38-12-28.83c0,0,2.73-18.33-8.84-38.8
			c0,0,30.85,18.3,22.66,66.19l0.45-0.15c11.29-11.16,17.45-20.23,21.2-28.32c-30.52-39.82-10.71-70.84-10.71-70.84
			c-1.13,23.48,9.56,38.62,9.56,38.62c4.45,12.31,4.48,20.94,3.59,26.23c3.93-11.05,4.49-20.76,10.01-32.62
			c-30.31-39.73-10.56-70.65-10.56-70.65c-1.13,23.48,9.56,38.62,9.56,38.62c4.78,13.23,4.46,22.2,3.38,27.35
			c3.8-6.83,9.42-14.45,18.23-23.41c29.64-65.85,82.47-61.89,82.47-61.89c-30.52,14.59-42.42,38.46-42.42,38.46
			c-19.77,22.08-35.46,24.08-39.43,24.21c-9.61,9.81-15.39,18-19.15,25.34c45.18-17.87,69.44,8.55,69.44,8.55
			c-22.41-7.11-39.78-0.66-39.78-0.66c-18.51,1.62-27.56-3.46-30.68-5.81c-6.24,13.17-6.32,23.72-11.53,36.33
			c45.15-17.84,69.39,8.56,69.39,8.56c-22.41-7.11-39.78-0.66-39.78-0.66c-18.27,1.6-27.33-3.33-30.56-5.72
			c-3.6,7.94-9.47,16.8-20.15,27.62l0.05-0.02c4.82-2.12,13.53-4.28,27.46-2.33c0,0,17.02,7.34,39.76,1.4
			c0,0-26.18,25.69-71.31,4.22c-10.47,7.85-19.86,10.38-29.86,16.51c4.99-1.96,13.8-5.42,26.4-1.89c9.58,2.69,17.02,7.34,39.76,1.4
			c0,0-26.27,25.78-71.53,4.11c-7.4,5.53-15.27,13.73-24.24,27.95c-0.28-0.17-0.57-0.35-0.85-0.53
			c9.22-14.57,17.28-22.86,24.87-28.42c-3-2.67-13.11-10.85-11.89-28.72c0,0,2.73-18.33-8.84-38.8
			C931.96,497.98,962.78,516.26,954.63,564.12z"/><path fill="#e64835" d="M885.03,256.45c-26.37-26.83-56.32-48.11-88.33-63.78c0,0,0,0-0.03-0.03c-6.89-3.42-13.9-6.54-21.01-9.43
			c-63.4-25.65-133.26-30.49-199.13-14.35c-2.9,0.69-5.74,1.45-8.62,2.23c-38.5,10.54-75.42,28.3-108.68,53.34
			c-2.92,2.19-5.77,4.44-8.62,6.75c-8.25,6.63-16.25,13.76-23.98,21.35c-35,34.4-60.51,74.81-76.55,117.94
			c-3,8.01-5.65,16.12-7.97,24.33c-29.81,104.86-5.79,221.91,72.36,307.44c0.03,0.03,0.03,0.03,0.06,0.06
			c2.66,2.89,5.4,5.81,8.18,8.64c3.83,3.9,7.72,7.67,11.74,11.32c0.03,0.03,0.03,0.03,0.03,0.03
			c62.81,57.92,143.16,86.49,223.2,85.52c3.96,0,7.85-0.12,11.78-0.34c76.79-3.64,152.57-34.46,211.7-92.58
			c5.21-5.13,10.21-10.35,14.96-15.76l6.32-7.27c61.85-73.71,85.83-168.58,71.65-258.67c-0.82-5.49-1.74-10.83-2.88-16.26
			c0-0.06-0.06-0.13-0.09-0.16C958.8,358.2,930.12,302.31,885.03,256.45z"/><path fill="#d9b9b9" d="M669.44,807.47c-3.93,0.22-7.82,0.34-11.78,0.34c-80.04,0.97-160.39-27.6-223.2-85.52c0,0,0,0-0.03-0.03
			c-4.02-3.65-7.91-7.42-11.74-11.32c-2.78-2.83-5.53-5.75-8.18-8.64c-0.03-0.03-0.03-0.03-0.06-0.06
			c-5.64-6.17-10.96-12.52-16.03-19c60.31,49.11,134.28,73.36,208.02,72.47c3.96,0,7.85-0.12,11.78-0.34
			c76.79-3.64,152.57-34.46,211.7-92.58c5.21-5.13,10.21-10.35,14.96-15.76l6.32-7.27c61.85-73.71,85.83-168.58,71.65-258.67
			c-0.82-5.49-1.74-10.83-2.88-16.26c0-0.06-0.06-0.13-0.09-0.16c-9.92-47.24-30.52-92.73-61.76-132.63
			c9.3,7.56,18.31,15.66,26.91,24.4c45.09,45.87,73.77,101.75,86.08,160.33c0.03,0.03,0.09,0.09,0.09,0.16
			c1.14,5.43,2.06,10.76,2.88,16.26c14.18,90.09-9.81,184.96-71.65,258.67l-6.32,7.27c-4.75,5.41-9.75,10.63-14.96,15.76
			C822.01,773.01,746.24,803.83,669.44,807.47z"/><path fill="#7a2323" d="M766.87,485.47c-54.67-69.94-118.2-133.75-189.05-187.35c-12.57-9.52-25.48-18.69-38.86-27.09
			c-7.24,5.14-14.23,10.66-20.95,16.46c-13.15,11.32-25.16,23.62-36.05,36.73c19.05,12.47,33.93,32.44,42.38,53.04
			c8.55,20.76,12.28,42.85,15.02,64.8c3.21,25.26,5.8,50.58,8.67,75.81c2.81,24.92,4.93,50.01,9.61,74.69
			c4.65,24.59,13.55,47.53,23.82,70.48c22.81,50.85,46.19,103.54,87.09,143.27c0.37,0.38,0.68,0.75,0.89,1.16
			c-3.93,0.22-7.82,0.34-11.78,0.34c-31.87-32.67-53.27-73.48-72.14-114.42c-9.91-21.52-20.35-43.13-27.98-65.54
			c-7.41-21.87-10.93-44.55-13.63-67.22c-2.97-24.57-5.59-49.24-8.4-73.84c-2.58-22.92-4.53-46.08-8.82-68.86
			c-6.23-33.11-20.57-68.74-50.35-86.85c-21.54,27.29-38.59,57.89-51.49,90.71c-18.82,47.85-31.61,97.74-30.72,149.24
			C395,623.82,408.92,675.99,434.32,722c0.03,0.09,0.09,0.16,0.12,0.25c-4.02-3.65-7.91-7.42-11.74-11.32
			c-2.78-2.83-5.53-5.75-8.18-8.64c-0.03-0.03-0.03-0.03-0.06-0.06c-15.8-35.24-25.36-73.18-28.3-111.86
			c-3.95-52.09,5.68-103.32,23.27-152.48c9.48-26.49,20.51-52.66,35.08-76.87c7.14-11.9,15.09-23.36,23.75-34.28
			c-1.95-0.98-4-1.81-6.11-2.58c-22.55-8.17-43.2-1.4-61.72,11.25c-22.03,15.11-40.7,34.95-55.1,57.38c-0.82,1.3-2.01,1.91-3.23,2
			c2.31-8.2,4.97-16.31,7.97-24.33c10.3-13.09,22.08-24.92,35.22-35.18c16.15-12.6,34.66-24.19,56.25-23.97
			c11.65,0.1,22.56,3.15,32.55,8.28c6.86-8.29,14.19-16.23,21.89-23.8c11-10.81,22.7-20.65,34.99-29.7
			c-24.95-15.01-51.39-27.32-79.7-34.7c-0.25-0.07-0.43-0.13-0.65-0.22c2.85-2.31,5.71-4.56,8.62-6.75
			c28.16,8.03,54.62,20.81,79.54,36.16c17.27-11.97,35.55-22.34,54.54-31.5c-13.81-16.57-23.49-36.34-25.39-58.01
			c2.87-0.79,5.71-1.54,8.62-2.23c1.53,21.23,11.21,40.44,25.06,56.35c10.95-5.08,22.11-9.69,33.39-13.98
			c44.94-17.12,92.7-27.87,140.68-28.02c7.11,2.9,14.12,6.01,21.01,9.43c-47.26-2.96-94.53,5.08-139.61,20.05
			c-16.65,5.5-33.19,11.87-49.32,19.14c1.95,1.98,3.95,3.9,6.06,5.72c24.02,21.36,54.08,33.02,84.79,41.19
			c33.57,8.95,68.1,14.23,101.22,25.1c32.62,10.75,63.83,25.78,92.52,44.65c29.15,19.16,55.71,42.16,78.79,68.28
			c0.03,0.03,0.09,0.09,0.09,0.16c1.14,5.43,2.06,10.76,2.88,16.26c-0.56-0.19-0.99-0.57-1.42-1.07
			c-45.6-55-106.37-96.95-174.24-119.44c-62.88-20.85-135.08-21.84-187.85-66.28c-3.96-3.34-7.76-6.89-11.31-10.69
			c-18.27,8.63-35.92,18.51-52.53,29.83c7.25,4.67,14.37,9.53,21.4,14.54c35.98,25.73,69.81,54.74,101.79,85.26
			c65.42,62.4,122.79,133.26,170.29,210.12c23.2,37.43,43.99,76.36,62.21,116.39l-6.32,7.27
			C861.74,623.13,818.27,551.2,766.87,485.47z"/><ellipse cx="510.33" cy="341.91" fill="#a7a9ac" rx="162.79" ry="83.5" transform="rotate(-53.76 510.301 341.888)"/><path fill="#fff" d="M524.5,655.59c0,88.96-72.39,161.35-161.36,161.35c-88.96,0-161.35-72.39-161.35-161.35
				c0-88.98,72.39-161.36,161.35-161.36C452.11,494.23,524.5,566.61,524.5,655.59z"/><polygon fill="#302d70" points="396.85 597.19 430.57 655.59 396.85 713.98 329.42 713.98 295.7 655.59 329.42 597.19"/><path fill="#302d70" d="M488.44,558.32l-52.04-4.08l-23.57-49.34C443.08,514.86,469.31,533.7,488.44,558.32z"/><path fill="#302d70" d="M314.8,504.46l-23.66,49.7l-53.4,4.25C257.17,533.38,283.93,514.32,314.8,504.46z"/><path fill="#302d70" d="M239.62,655.06l-28.24,46.87c-4.47-14.66-6.87-30.22-6.87-46.34c0-17.35,2.79-34.06,7.95-49.69
			L239.62,655.06z"/><path fill="#302d70" d="M315.27,806.87c-31.1-9.84-58.07-29-77.59-54.2l53.72,4.2L315.27,806.87z"/><path fill="#302d70" d="M490.02,750.81c-18.68,24.86-44.48,44.04-74.39,54.52l20.82-48.26L490.02,750.81z"/><path fill="#302d70" d="M521.76,655.59c0,16.51-2.52,32.44-7.2,47.4l-26.58-47.4L515,609.62
			C519.4,624.17,521.76,639.6,521.76,655.59z"/><rect width="69.48" height="5.45" x="382.49" y="572.24" fill="#302d70" transform="rotate(-47.476 417.2 574.936)"/><rect width="5.45" height="74.24" x="306.84" y="537.86" fill="#302d70" transform="rotate(-41.703 309.542 574.933)"/><rect width="5.45" height="78.03" x="413.84" y="696.41" fill="#302d70" transform="rotate(-42.597 416.603 735.474)"/><rect width="66.61" height="5.45" x="277.23" y="732.31" fill="#302d70" transform="rotate(-48.24 310.56 735.002)"/><rect width="73.91" height="5.45" x="422.86" y="652.86" fill="#302d70"/><rect width="5.45" height="67.15" x="266.45" y="621.76" fill="#302d70" transform="matrix(.00939 -1 1 .00939 -388.659 918.347)"/><path fill="#302d70" d="M363.14,816.94c-88.97,0-161.36-72.38-161.36-161.36s72.38-161.36,161.36-161.36
				c88.97,0,161.36,72.38,161.36,161.36S452.11,816.94,363.14,816.94z M363.14,499.68c-85.97,0-155.91,69.94-155.91,155.91
				s69.94,155.91,155.91,155.91s155.91-69.94,155.91-155.91S449.1,499.68,363.14,499.68z"/><path fill="#e1ebf4" d="M255.74,775.9c28.55,25.51,66.18,41.04,107.39,41.04c88.98,0,161.36-72.39,161.36-161.36
				c0-28.21-7.29-54.75-20.06-77.85C486.99,658.99,431.48,778.4,255.74,775.9z"/><g><path fill="#302d70" d="M836.53,294.14c-60.66-18.44-129.21,30.35-153.11,108.98c-23.9,78.62,5.91,157.31,66.57,175.74
			c60.66,18.44,129.21-30.35,153.11-108.98C927,391.26,897.2,312.58,836.53,294.14z M752.66,570.1
			c-55.73-16.94-82.86-90.65-60.47-164.31s85.94-119.81,141.68-102.88s82.86,90.65,60.47,164.31S808.4,587.04,752.66,570.1z"/><path fill="#ffb24d" d="M692.19,405.79c3.42-11.25,7.8-21.85,12.97-31.69l-8.92-2.71c-5.08,9.9-9.4,20.51-12.82,31.74
				c-9.1,29.95-10.41,59.91-5.18,86.55l10,3.04C682.16,466.36,682.99,436.07,692.19,405.79z"/><path fill="#ffb24d" d="M894.34,467.22c-9.2,30.28-25.37,55.91-45.08,74.42l10,3.04c19.16-19.23,34.75-44.84,43.85-74.8
				c3.41-11.23,5.72-22.45,7.01-33.5l-8.92-2.71C900.02,444.72,897.76,455.97,894.34,467.22z"/><path fill="#302d70" d="M682.45,506.19c0,0,38.95,124.84,24.42,175.13l10.98,3.34l10.98,3.34
			c15.91-49.88,117.74-131.92,117.74-131.92C771.01,592.69,715.37,578.36,682.45,506.19z M734.66,642.7
			c-2.33,3.06-7.21,1.58-7.45-2.26c-0.98-16.04-3.5-34.54-7.54-55.42c-0.67-3.44,2.97-6.12,6.05-4.45
			c13.6,7.37,28.09,11.78,43.49,13.22c3.49,0.33,5.02,4.57,2.55,7.06C756.79,615.95,744.41,629.92,734.66,642.7z"/><path fill="#302d70" d="M731.15,678.14l-20.73-6.3c-21.76,45.21-36.2,91.99-42.69,140.47l20.73,6.3
			C710.04,774.71,724.08,727.81,731.15,678.14z"/><rect width="35.85" height="11.25" x="661.63" y="810.28" fill="#ffb24d" transform="rotate(16.903 679.503 815.915)"/><path fill="#fff" d="M879.52,502.36c0.23-0.41,0.45-0.82,0.67-1.23l-7.81-2.37l5.02-16.5l10.36,3.15
			c0.18-0.42,0.36-0.85,0.54-1.27l-10.5-3.19l5.02-16.5l11.33,3.44c0.07-0.22,0.14-0.44,0.21-0.66c0.07-0.22,0.13-0.44,0.19-0.66
			l-11.33-3.44l5.02-16.5l10.5,3.19c0.09-0.45,0.17-0.9,0.26-1.36l-10.36-3.15l5.02-16.5l7.81,2.37c0.04-0.47,0.09-0.93,0.13-1.4
			l-7.54-2.29l5.02-16.5l3.1,0.94c-0.01-0.48-0.02-0.97-0.04-1.45l-2.66-0.81l2.22-7.3c-0.1-1.22-0.21-2.42-0.33-3.63l-3.2,10.53
			l-16.5-5.02l5.02-16.5l13.84,4.21c-0.07-0.5-0.14-1-0.22-1.5l-13.22-4.02l5.02-16.5l3.77,1.15c-0.16-0.53-0.32-1.06-0.48-1.58
			l-2.89-0.88l1.22-4.02c-0.26-0.71-0.52-1.42-0.79-2.13l-1.75,5.75l-16.5-5.02l5.02-16.5l7.09,2.16c-0.3-0.58-0.61-1.15-0.92-1.72
			l-5.77-1.75l1.59-5.23c-0.32-0.5-0.65-0.99-0.98-1.49l-1.92,6.32l-16.5-5.02l5.02-16.5l1.2,0.37c-0.72-0.71-1.44-1.41-2.18-2.1
			l-16.44-5l1.82-5.98c-0.4-0.24-0.81-0.48-1.22-0.71l-1.91,6.29l-16.5-5.02l2.49-8.21c-0.22-0.07-0.43-0.14-0.65-0.21
			c-0.22-0.07-0.44-0.12-0.66-0.19l-2.49,8.21l-16.5-5.02l1.91-6.29c-0.47-0.03-0.94-0.06-1.41-0.09l-1.82,5.98l-16.44-5
			c-0.99,0.16-1.99,0.34-2.98,0.53l1.2,0.37l-5.02,16.5l-16.5-5.02l1.92-6.32c-0.55,0.22-1.1,0.45-1.65,0.69l-1.59,5.23l-5.77-1.75
			c-0.58,0.3-1.15,0.6-1.72,0.91l7.09,2.16l-5.02,16.5l-16.5-5.02l1.75-5.75c-0.62,0.44-1.23,0.88-1.84,1.33l-1.22,4.02l-2.89-0.88
			c-0.43,0.34-0.86,0.7-1.28,1.05l3.77,1.15l-5.02,16.5l-13.22-4.02c-0.34,0.37-0.68,0.75-1.02,1.13l13.84,4.21l-5.02,16.5
			l-16.5-5.02l3.2-10.53c-0.77,0.93-1.54,1.87-2.3,2.83l-2.22,7.3l-2.66-0.81c-0.28,0.39-0.56,0.79-0.84,1.18l3.1,0.94l-5.02,16.5
			l-7.54-2.29c-0.23,0.41-0.45,0.82-0.67,1.23l7.81,2.37l-5.02,16.5l-10.36-3.15c-0.18,0.42-0.36,0.85-0.54,1.27l10.5,3.19
			l-5.02,16.5l-11.33-3.44c-0.07,0.22-0.14,0.44-0.21,0.66c-0.07,0.22-0.13,0.44-0.19,0.66l11.33,3.44l-5.02,16.5l-10.5-3.19
			c-0.09,0.45-0.17,0.9-0.26,1.36l10.36,3.15l-5.02,16.5l-7.81-2.37c-0.04,0.47-0.09,0.93-0.13,1.4l7.54,2.29l-5.02,16.5l-3.1-0.94
			c0.01,0.48,0.02,0.97,0.04,1.45l2.66,0.81l-2.22,7.3c0.1,1.22,0.21,2.42,0.33,3.63l3.2-10.53l16.5,5.02l-5.02,16.5l-13.84-4.21
			c0.07,0.5,0.14,1,0.22,1.5l13.22,4.02l-5.02,16.5l-3.77-1.15c0.16,0.53,0.32,1.06,0.48,1.58l2.89,0.88l-1.22,4.02
			c0.26,0.71,0.52,1.42,0.79,2.13l1.75-5.75l16.5,5.02l-5.02,16.5l-7.09-2.16c0.3,0.58,0.61,1.15,0.92,1.72l5.77,1.75l-1.59,5.23
			c0.32,0.5,0.65,0.99,0.98,1.49l1.92-6.32l16.5,5.02l-5.02,16.5l-1.2-0.37c0.72,0.71,1.44,1.41,2.18,2.1l16.44,5l-1.82,5.98
			c0.4,0.24,0.81,0.48,1.22,0.71l1.91-6.29l16.5,5.02l-2.49,8.21c0.22,0.07,0.43,0.14,0.65,0.21c0.22,0.07,0.44,0.12,0.66,0.19
			l2.49-8.21l16.5,5.02l-1.91,6.28c0.47,0.03,0.94,0.06,1.41,0.09l1.82-5.98l16.44,5c0.99-0.16,1.99-0.34,2.98-0.53l-1.2-0.37
			l5.02-16.5l16.5,5.02l-1.92,6.32c0.55-0.22,1.1-0.45,1.65-0.69l1.59-5.23l5.77,1.75c0.58-0.3,1.15-0.6,1.72-0.91l-7.09-2.16
			l5.02-16.5l16.5,5.02l-1.75,5.75c0.62-0.44,1.23-0.88,1.84-1.33l1.22-4.02l2.89,0.88c0.43-0.34,0.86-0.7,1.28-1.05l-3.77-1.15
			l5.02-16.5l13.22,4.02c0.34-0.37,0.68-0.75,1.02-1.13l-13.84-4.21l5.02-16.5l16.5,5.02l-3.2,10.53c0.77-0.93,1.54-1.87,2.3-2.83
			l2.22-7.3l2.66,0.81c0.28-0.39,0.56-0.79,0.84-1.18l-3.1-0.94l5.02-16.5L879.52,502.36z M705.3,467.44l-16.5-5.02l5.02-16.5
			l16.5,5.02L705.3,467.44z M710.71,449.62l-16.5-5.02l5.02-16.5l16.5,5.02L710.71,449.62z M716.13,431.8l-16.5-5.02l5.02-16.5
			l16.5,5.02L716.13,431.8z M721.54,413.99l-16.5-5.02l5.02-16.5l16.5,5.02L721.54,413.99z M726.96,396.17l-16.5-5.02l5.02-16.5
			l16.5,5.02L726.96,396.17z M732.37,378.35l-16.5-5.02l5.02-16.5l16.5,5.02L732.37,378.35z M712.28,508.49l-16.5-5.02l5.02-16.5
			l16.5,5.02L712.28,508.49z M717.7,490.67l-16.5-5.02l5.02-16.5l16.5,5.02L717.7,490.67z M723.11,472.85l-16.5-5.02l5.02-16.5
			l16.5,5.02L723.11,472.85z M728.53,455.04l-16.5-5.02l5.02-16.5l16.5,5.02L728.53,455.04z M733.94,437.22l-16.5-5.02l5.02-16.5
			l16.5,5.02L733.94,437.22z M739.36,419.4l-16.5-5.02l5.02-16.5l16.5,5.02L739.36,419.4z M744.77,401.58l-16.5-5.02l5.02-16.5
			l16.5,5.02L744.77,401.58z M750.19,383.77l-16.5-5.02l5.02-16.5l16.5,5.02L750.19,383.77z M755.6,365.95l-16.5-5.02l5.02-16.5
			l16.5,5.02L755.6,365.95z M761.02,348.13l-16.5-5.02l5.02-16.5l16.5,5.02L761.02,348.13z M724.69,531.72l-16.5-5.02l5.02-16.5
			l16.5,5.02L724.69,531.72z M730.1,513.9l-16.5-5.02l5.02-16.5l16.5,5.02L730.1,513.9z M735.52,496.08l-16.5-5.02l5.02-16.5
			l16.5,5.02L735.52,496.08z M740.93,478.27l-16.5-5.02l5.02-16.5l16.5,5.02L740.93,478.27z M746.35,460.45l-16.5-5.02l5.02-16.5
			l16.5,5.02L746.35,460.45z M751.76,442.63l-16.5-5.02l5.02-16.5l16.5,5.02L751.76,442.63z M757.18,424.82l-16.5-5.02l5.02-16.5
			l16.5,5.02L757.18,424.82z M762.59,407l-16.5-5.02l5.02-16.5l16.5,5.02L762.59,407z M768.01,389.18l-16.5-5.02l5.02-16.5
			l16.5,5.02L768.01,389.18z M773.42,371.37l-16.5-5.02l5.02-16.5l16.5,5.02L773.42,371.37z M778.84,353.55l-16.5-5.02l5.02-16.5
			l16.5,5.02L778.84,353.55z M784.25,335.73l-16.5-5.02l5.02-16.5l16.5,5.02L784.25,335.73z M737.09,554.95l-16.5-5.02l5.02-16.5
			l16.5,5.02L737.09,554.95z M742.5,537.13l-16.5-5.02l5.02-16.5l16.5,5.02L742.5,537.13z M747.92,519.32l-16.5-5.02l5.02-16.5
			l16.5,5.02L747.92,519.32z M753.33,501.5l-16.5-5.02l5.02-16.5l16.5,5.02L753.33,501.5z M758.75,483.68l-16.5-5.02l5.02-16.5
			l16.5,5.02L758.75,483.68z M764.16,465.87l-16.5-5.02l5.02-16.5l16.5,5.02L764.16,465.87z M769.58,448.05l-16.5-5.02l5.02-16.5
			l16.5,5.02L769.58,448.05z M774.99,430.23l-16.5-5.02l5.02-16.5l16.5,5.02L774.99,430.23z M780.41,412.41l-16.5-5.02l5.02-16.5
			l16.5,5.02L780.41,412.41z M785.82,394.6l-16.5-5.02l5.02-16.5l16.5,5.02L785.82,394.6z M791.24,376.78l-16.5-5.02l5.02-16.5
			l16.5,5.02L791.24,376.78z M796.65,358.96l-16.5-5.02l5.02-16.5l16.5,5.02L796.65,358.96z M802.07,341.15l-16.5-5.02l5.02-16.5
			l16.5,5.02L802.07,341.15z M807.48,323.33l-16.5-5.02l5.02-16.5l16.5,5.02L807.48,323.33z M754.9,560.36l-16.5-5.02l5.02-16.5
			l16.5,5.02L754.9,560.36z M760.32,542.55l-16.5-5.02l5.02-16.5l16.5,5.02L760.32,542.55z M765.73,524.73l-16.5-5.02l5.02-16.5
			l16.5,5.02L765.73,524.73z M771.15,506.91l-16.5-5.02l5.02-16.5l16.5,5.02L771.15,506.91z M776.56,489.1l-16.5-5.02l5.02-16.5
			l16.5,5.02L776.56,489.1z M781.98,471.28l-16.5-5.02l5.02-16.5l16.5,5.02L781.98,471.28z M787.39,453.46l-16.5-5.02l5.02-16.5
			l16.5,5.02L787.39,453.46z M792.81,435.65l-16.5-5.02l5.02-16.5l16.5,5.02L792.81,435.65z M798.22,417.83l-16.5-5.02l5.02-16.5
			l16.5,5.02L798.22,417.83z M803.64,400.01l-16.5-5.02l5.02-16.5l16.5,5.02L803.64,400.01z M809.05,382.2l-16.5-5.02l5.02-16.5
			l16.5,5.02L809.05,382.2z M814.47,364.38l-16.5-5.02l5.02-16.5l16.5,5.02L814.47,364.38z M819.88,346.56l-16.5-5.02l5.02-16.5
			l16.5,5.02L819.88,346.56z M825.3,328.75l-16.5-5.02l5.02-16.5l16.5,5.02L825.3,328.75z M772.72,565.78l-16.5-5.02l5.02-16.5
			l16.5,5.02L772.72,565.78z M778.14,547.96l-16.5-5.02l5.02-16.5l16.5,5.02L778.14,547.96z M783.55,530.15l-16.5-5.02l5.02-16.5
			l16.5,5.02L783.55,530.15z M788.97,512.33l-16.5-5.02l5.02-16.5l16.5,5.02L788.97,512.33z M794.38,494.51l-16.5-5.02l5.02-16.5
			l16.5,5.02L794.38,494.51z M799.8,476.7l-16.5-5.02l5.02-16.5l16.5,5.02L799.8,476.7z M805.21,458.88l-16.5-5.02l5.02-16.5
			l16.5,5.02L805.21,458.88z M810.63,441.06l-16.5-5.02l5.02-16.5l16.5,5.02L810.63,441.06z M816.04,423.24l-16.5-5.02l5.02-16.5
			l16.5,5.02L816.04,423.24z M821.46,405.43l-16.5-5.02l5.02-16.5l16.5,5.02L821.46,405.43z M826.87,387.61l-16.5-5.02l5.02-16.5
			l16.5,5.02L826.87,387.61z M832.29,369.79l-16.5-5.02l5.02-16.5l16.5,5.02L832.29,369.79z M837.7,351.98l-16.5-5.02l5.02-16.5
			l16.5,5.02L837.7,351.98z M843.12,334.16l-16.5-5.02l5.02-16.5l16.5,5.02L843.12,334.16z M790.54,571.19l-16.5-5.02l5.02-16.5
			l16.5,5.02L790.54,571.19z M795.95,553.38l-16.5-5.02l5.02-16.5l16.5,5.02L795.95,553.38z M801.37,535.56l-16.5-5.02l5.02-16.5
			l16.5,5.02L801.37,535.56z M806.78,517.74l-16.5-5.02l5.02-16.5l16.5,5.02L806.78,517.74z M812.2,499.93l-16.5-5.02l5.02-16.5
			l16.5,5.02L812.2,499.93z M817.61,482.11l-16.5-5.02l5.02-16.5l16.5,5.02L817.61,482.11z M823.03,464.29l-16.5-5.02l5.02-16.5
			l16.5,5.02L823.03,464.29z M828.44,446.48l-16.5-5.02l5.02-16.5l16.5,5.02L828.44,446.48z M833.86,428.66l-16.5-5.02l5.02-16.5
			l16.5,5.02L833.86,428.66z M839.27,410.84l-16.5-5.02l5.02-16.5l16.5,5.02L839.27,410.84z M844.69,393.03l-16.5-5.02l5.02-16.5
			l16.5,5.02L844.69,393.03z M850.1,375.21l-16.5-5.02l5.02-16.5l16.5,5.02L850.1,375.21z M855.52,357.39l-16.5-5.02l5.02-16.5
			l16.5,5.02L855.52,357.39z M860.93,339.58l-16.5-5.02l5.02-16.5l16.5,5.02L860.93,339.58z M813.77,558.79l-16.5-5.02l5.02-16.5
			l16.5,5.02L813.77,558.79z M819.19,540.98l-16.5-5.02l5.02-16.5l16.5,5.02L819.19,540.98z M824.6,523.16l-16.5-5.02l5.02-16.5
			l16.5,5.02L824.6,523.16z M830.01,505.34l-16.5-5.02l5.02-16.5l16.5,5.02L830.01,505.34z M835.43,487.53l-16.5-5.02l5.02-16.5
			l16.5,5.02L835.43,487.53z M840.84,469.71l-16.5-5.02l5.02-16.5l16.5,5.02L840.84,469.71z M846.26,451.89l-16.5-5.02l5.02-16.5
			l16.5,5.02L846.26,451.89z M851.67,434.07l-16.5-5.02l5.02-16.5l16.5,5.02L851.67,434.07z M857.09,416.26l-16.5-5.02l5.02-16.5
			l16.5,5.02L857.09,416.26z M862.5,398.44l-16.5-5.02l5.02-16.5l16.5,5.02L862.5,398.44z M867.92,380.62l-16.5-5.02l5.02-16.5
			l16.5,5.02L867.92,380.62z M873.33,362.81l-16.5-5.02l5.02-16.5l16.5,5.02L873.33,362.81z M837,546.39l-16.5-5.02l5.02-16.5
			l16.5,5.02L837,546.39z M842.42,528.57l-16.5-5.02l5.02-16.5l16.5,5.02L842.42,528.57z M847.83,510.76l-16.5-5.02l5.02-16.5
			l16.5,5.02L847.83,510.76z M853.25,492.94l-16.5-5.02l5.02-16.5l16.5,5.02L853.25,492.94z M858.66,475.12l-16.5-5.02l5.02-16.5
			l16.5,5.02L858.66,475.12z M864.08,457.31l-16.5-5.02l5.02-16.5l16.5,5.02L864.08,457.31z M869.49,439.49l-16.5-5.02l5.02-16.5
			l16.5,5.02L869.49,439.49z M874.91,421.67l-16.5-5.02l5.02-16.5l16.5,5.02L874.91,421.67z M880.32,403.86l-16.5-5.02l5.02-16.5
			l16.5,5.02L880.32,403.86z M885.74,386.04l-16.5-5.02l5.02-16.5l16.5,5.02L885.74,386.04z M865.65,516.17l-16.5-5.02l5.02-16.5
			l16.5,5.02L865.65,516.17z M871.06,498.35l-16.5-5.02l5.02-16.5l16.5,5.02L871.06,498.35z M876.48,480.54l-16.5-5.02l5.02-16.5
			l16.5,5.02L876.48,480.54z M881.89,462.72l-16.5-5.02l5.02-16.5l16.5,5.02L881.89,462.72z M887.31,444.9l-16.5-5.02l5.02-16.5
			l16.5,5.02L887.31,444.9z M892.72,427.09l-16.5-5.02l5.02-16.5l16.5,5.02L892.72,427.09z"/><path fill="#ffb24d" d="M726.88,700.7l-25.46-7.74c-3.08-0.94-4.82-4.2-3.89-7.28l2.53-8.33c0.94-3.08,4.2-4.82,7.28-3.89
			l25.46,7.74c3.08,0.94,4.82,4.2,3.89,7.28l-2.53,8.33C733.22,699.9,729.96,701.64,726.88,700.7z"/></g><g><path fill="#ffc83f" d="M453.77,288.22l225.24,404.15l3.04,5.47l16.35,29.34l7.12,12.77l5.48,9.82l7.12,12.77l6.17,11.08l7.11,12.79
			l10.63,19.07l-22.32,13.88l-12.12-18.87l-7.92-12.32l-6.85-10.67l-7.91-12.3l-6.08-9.47l-7.89-12.31l-16.55-25.73l-4.59-7.15
			l-250.91-390.4c-10.13-15.78-7.19-35.69,6.49-43.79l6.02-3.55C425.29,264.57,444.49,271.55,453.77,288.22z"/><path fill="#e6d2c3" d="M411.38,272.81l-6.02,3.55c-2.81,1.67-5.15,3.85-7.03,6.38c12.29-2.15,26.2,4.67,33.9,17.84l238.39,396.4
			l-1.61,8.37l16.96,29l7.39,12.61l5.68,9.7l7.39,12.61l6.4,10.94l7.38,12.64l11.03,18.85l-11.58,7.54l0.07,0.1l22.32-13.88
			L731.4,786.4l-7.11-12.79l-6.17-11.08L711,749.76l-5.48-9.82l-7.12-12.77l-16.35-29.34l-3.04-5.47L453.77,288.22
			C444.49,271.55,425.29,264.57,411.38,272.81z"/><polygon fill="#8a5451" points="679.01 692.36 682.05 697.83 698.4 727.18 705.52 739.94 711 749.76 718.12 762.53 724.29 773.6 731.4 786.4 742.03 805.47 719.72 819.35 707.6 800.48 699.67 788.16 692.82 777.49 684.91 765.19 678.83 755.72 670.93 743.42 654.38 717.69 649.79 710.54"/><ellipse cx="732.3" cy="814.59" fill="#ffc83f" rx="19.25" ry="7.87" transform="rotate(-30.605 732.282 814.59)"/><path fill="#939598" d="M566.53,543.78l-11.09,6.89c-0.65,0.41-1.52,0.21-1.92-0.45L412.07,322.78c-0.41-0.65-0.21-1.52,0.45-1.92
			l11.09-6.89c0.65-0.41,1.52-0.21,1.92,0.45l141.44,227.45C567.38,542.52,567.18,543.38,566.53,543.78z"/></g><g><path fill="#ffb24d" d="M899.81,577.41c0,0,0,0-0.02,0.05c-30.42,13.15-48.21,43.91-57.23,74.57l0.01,0.03
					c-7,23.81-9.69,48.78-9.49,73.52l-0.03,0.01c0.06,2.27,0.12,4.51,0.2,6.72c-25.89,6-57.19,6.66-79.38-6.6
					c-20.4-82.86,61.16-167.16,145.84-148.26L899.81,577.41z"/><path fill="#302d70" d="M900.43,577.14c-0.21,0.08-0.37,0.17-0.57,0.29c-0.05-0.02-0.05-0.02-0.05-0.02
					C900.02,577.33,900.22,577.22,900.43,577.14z"/><path fill="#302d70" d="M899.71,577.44c0.03,0.01,0.16-0.1,0.08,0.01c-30.42,13.14-48.21,43.91-57.23,74.57l0.01,0.03
					c-6.97,23.8-9.72,48.79-9.49,73.52l-0.03,0.01c0.04,2.28,0.1,4.51,0.2,6.72c-13.75,3.24-27.98,4.64-41.26,3.87
					C783.47,638.36,813.45,557.91,899.71,577.44z"/><path fill="#ffb24d" d="M901.08,576.87c-0.42,0.15-0.82,0.34-1.22,0.56c-0.05-0.02-0.05-0.02-0.05-0.02
					C900.23,577.23,900.65,577.04,901.08,576.87z"/><path fill="#fff" d="M899.86,577.43c-0.05-0.02-0.05-0.02-0.05-0.02c0.42-0.17,0.84-0.37,1.26-0.54
					C900.66,577.02,900.25,577.21,899.86,577.43z"/><path fill="#fff" d="M943.36,594.75c-52.11,11.97-71.6,63.63-61.08,114.82c-16.16,11.96-30.37,18.38-49,22.73
					c-0.11-2.18-0.12-4.54-0.2-6.72l0.03-0.01c-0.27-24.72,2.48-49.7,9.46-73.5l-0.01-0.03c8.9-30.63,27-61.54,57.23-74.57
					C915.28,580.44,930.05,586.36,943.36,594.75z"/><path fill="#302d70" d="M760.62,747.7c-0.14-0.07-0.3-0.17-0.42-0.28c0.14,0.07,0.26,0.18,0.41,0.25
				C760.62,747.7,760.62,747.7,760.62,747.7z"/><path fill="#ffb24d" d="M949.31,801.15c-61.8,48.88-160.98,19.61-188.67-53.42c47.72,33.12,111.25,10.77,156.9-15.71
				C934.66,750.69,950.17,776.58,949.31,801.15z"/><path fill="#ffb24d" d="M760.62,747.7c-0.14-0.07-0.3-0.17-0.42-0.28c0.14,0.07,0.26,0.18,0.41,0.25
				C760.62,747.7,760.62,747.7,760.62,747.7z"/><path fill="#302d70" d="M940.07,764.23c-68.52,47.06-150.08,65.64-179.43-16.49c47.72,33.12,111.25,10.77,156.9-15.71
				C926.62,741.87,934.45,752.96,940.07,764.23z"/><path fill="#ddddeb" d="M913.61,732.31c-2.35,1.25-4.78,2.49-7.21,3.74c-1.19,0.63-2.41,1.2-3.65,1.81
				c-3.82,1.87-7.68,3.63-11.7,5.3c-0.89,0.37-1.75,0.72-2.6,1.11c-3.4,1.4-6.95,2.73-10.5,4.03c-5.28,1.89-10.68,3.66-16.19,5.12
				c-2.25,0.66-4.5,1.21-6.74,1.79c-2.3,0.52-4.6,1.05-6.85,1.47c-0.21,0.08-0.38,0.14-0.57,0.17c-1.69,0.34-3.42,0.7-5.09,0.99
				c-5.08,0.91-10.15,1.53-15.28,1.86c-1.64,0.16-3.35,0.23-5.05,0.34c-3.38,0.17-6.76,0.21-10.07,0.12c-1.68-0.06-3.34-0.17-5-0.27
				c-0.93-0.06-1.86-0.11-2.78-0.25c-1.73-0.2-3.45-0.36-5.23-0.58c-1.76-0.27-3.56-0.56-5.31-0.91c-0.9-0.19-1.71-0.36-2.61-0.55
				c-0.6-0.14-1.16-0.25-1.73-0.4c-0.86-0.2-1.74-0.43-2.61-0.67c-1.76-0.5-3.46-1.03-5.15-1.56c-1.71-0.56-3.4-1.21-5.03-1.88
				c-1.15-0.45-2.25-0.96-3.38-1.46c-0.7-0.3-1.38-0.64-2.01-0.96c-0.48-0.22-0.94-0.41-1.39-0.68c-0.77-0.39-1.6-0.8-2.4-1.26
				c-0.51-0.33-1.1-0.63-1.6-0.92l-0.05-0.02c-0.67-0.43-1.31-0.79-1.98-1.21c-0.62-0.41-1.28-0.8-1.93-1.27
				c-0.63-0.44-1.3-0.87-1.94-1.31c-0.37-0.26-0.74-0.52-1.11-0.78c-0.01-0.03-0.01-0.03-0.03-0.07c-2.1-5.75-3.75-11.59-4.97-17.43
				l-0.01-0.03c-1.71-8.27-3.11-16.03-3.14-24.24c0.01-1.39-0.03-3.26-0.01-4.61c6.28,7.03,16.3,15.6,28.8,21.39
				c2.68,1.28,5.4,2.34,8.12,3.2c1.11,0.34,2.23,0.69,3.31,0.96c12.51,3.42,25.51,3.1,38.55-0.15l0.07-0.03
				c1.19-0.32,2.34-0.62,3.51-1c13.32-3.87,26.58-10.76,39.44-20.12c0.06-0.06,0.18-0.15,0.31-0.23c0.18-0.15,0.4-0.3,0.62-0.46
				c1.47,0.77,2.88,1.52,4.28,2.31c0.35,0.19,0.74,0.4,1.1,0.63l0.01,0.03c0.93,0.49,1.82,0.99,2.72,1.5
				c0.6,0.34,1.17,0.72,1.78,1.09c4.86,2.93,9.22,6,13.16,9.11C902.56,720.22,908.31,726.03,913.61,732.31z"/><path fill="#fff" d="M917.52,731.99c-45.62,26.55-109.13,48.89-156.88,15.74l-0.01-0.03c-6.11-14.79-9.86-31.16-9.92-46.98
				c33.88,39.42,86.25,34.56,125.28,1.14c1.83,0.89,3.71,1.74,5.49,2.7l0.01,0.03C895.65,711.38,907.01,720.55,917.52,731.99z"/><path fill="#ddddeb" d="M910.47,736.06c-1.04,0.62-2.17,1.19-3.28,1.83c-13.66-29.55-33.75-34.03-33.75-34.03
				c0.56-0.4,1.08-0.83,1.63-1.27c0.06-0.06,0.18-0.15,0.31-0.23c0.18-0.15,0.39-0.34,0.61-0.5c0.57,0.27,1.15,0.57,1.73,0.83
				c1.29,0.6,2.53,1.21,3.76,1.87l0.01,0.03c1.67,0.77,3.13,1.54,4.62,2.38c4.98,2.73,9.47,5.59,13.54,8.53
				c6.29,4.9,12.31,10.45,17.86,16.48C915.21,733.35,912.86,734.72,910.47,736.06z"/><path fill="#ddddeb" d="M949.31,801.15c-0.34,0.48-0.66,0.91-1.04,1.37c-8.8,6.21-18.54,11.35-29.14,15.21
				c-3.35,1.22-6.71,2.29-10.09,3.21c-1.36,0.38-2.7,0.71-4.08,1.05c8.74-17.41,11.96-31.35,12.11-43.38
				c0.16-12.55-3-22.97-6.69-33.08c-0.99-2.72-2.07-5.25-3.19-7.65c1.13-0.57,2.21-1.2,3.3-1.79c2.44-1.32,4.79-2.69,7.05-4.07
				c9.08,9.84,16.92,20.93,22.53,32.2C946.29,776.73,949.84,789.5,949.31,801.15z"/><g><path fill="#ffb24d" d="M993.76,657.44c19.37,53.26,0.55,111.49-43.8,143.88c16.6-42.29-3.74-87.92-29.45-122.01
					c-2.27-3.08-16.03-14.15-18.45-17.01c-6.04-7.33-12.41-14.07-19.02-20.52c13.24-21.67,31.69-41.26,54.98-50.2
					c1.85,1.04,3.56,2.06,5.35,3.18l0.01,0.03C965.83,609.03,983.94,630.52,993.76,657.44z"/><path fill="#302d70" d="M986.64,759.01c-8.74,16.43-21.23,31.14-36.68,42.3c16.6-42.29-3.74-87.92-29.45-122.01
					c-2.27-3.08-16.03-14.15-18.45-17.01c-6.04-7.33-12.41-14.07-19.02-20.52c7.23-11.8,15.95-22.77,25.46-31.57
					C964.82,657.06,995.15,717.78,986.64,759.01z"/><path fill="#fff" d="M949.09,721.38c12.94,41.31,7.81,66.14,2.52,78.73c-12.46,9.37-27.17,16.68-42.58,20.83
					c24.04-36.85,11.08-87.41-22.92-113.96c-65.92-31.71-3.49-65.09-3.11-65.16C905.48,650.73,936.37,685.86,949.09,721.38z"/></g><path fill="#ddddeb" d="M942.19,594.03c-7.61,2.86-19.18,8.5-30.34,19.09c-4.1,3.83-8.12,8.29-11.88,13.58
				c-4.1,5.76-7.7,11.7-10.79,17.65c-0.42,0.79-0.85,1.57-1.24,2.35c-11.48,22.91-15.43,45.1-13.14,54.97
				c-12.94-20.09,8.2-59.85,8.2-59.85c0.03-0.01,0.05,0.02,0.08,0.01c-0.01-0.03-0.05-0.02-0.06-0.06
				c7.23-11.8,15.95-22.77,25.46-31.57c8.49-7.92,19.55-14.76,29.51-18.63C939.45,592.38,940.8,593.15,942.19,594.03z"/><ellipse cx="818.82" cy="646.61" fill="#a7a9ac" rx="67.08" ry="38.27" transform="rotate(-45.001 818.817 646.625)"/><path fill="#ddddeb" d="M991.04,650.9l0.01-0.04c-0.85-1.94-1.69-3.76-2.63-5.64c-6.01-12.25-14-23.46-23.64-33.18
			c-0.04-0.01-0.06-0.05-0.06-0.05c58.52,103.94-84.93,229.76-198.82,147.14c14.44,27.06,38.68,48.75,69.41,59.34
			c3.31,1.14,6.69,2.16,10.14,3.03c10.94,2.77,21.88,4.02,32.65,3.84c0.68,0.02,1.38,0,2.08-0.05c0.69-0.02,1.35-0.04,2.04-0.06
			c18.41-0.88,36.18-5.87,52.09-14.25c30.3-15.9,54-44.13,63.08-79.93C1004.44,703.28,1001.58,675.32,991.04,650.9z"/></g><g><path fill="#fff2db" d="M579.88,823.09c-6.43,7.9-16.09,12.45-26.26,12.41l-26.03-0.1c-5.14-0.02-10.16-1.21-14.67-3.41
			c-4.41-2.15-8.36-5.27-11.5-9.2c-57.33-71.66-25.82-157.55,18.35-223.47c1.15-1.71,4.2-4.92,5.9-9.18
			c1.53-3.81,1.96-8.46-1.01-13.59c-0.67-1.19-1.54-2.41-2.61-3.64c-2.42-2.8-4.46-6.05-6.11-9.6c-1.95-4.19-3.38-8.8-4.26-13.6
			c-4.94-26.34,5.66-58.51,29.81-58.42l0.84,0c2.2,0.01,4.3,0.29,6.26,0.81c19.65,5.11,27.78,33.93,23.11,57.83
			c-0.93,4.8-2.39,9.4-4.37,13.57c-1.68,3.54-3.74,6.77-6.18,9.55c-1.08,1.22-1.96,2.44-2.63,3.62c-3.01,5.13-2.61,9.76-1.13,13.58
			c1.66,4.27,4.69,7.51,5.84,9.23C604.09,660.15,637.75,751.86,579.88,823.09z"/><path fill="#e64835" d="M557.38,590.26l-31.72-0.12c1.53-3.81,1.96-8.46-1.01-13.59l33.86,0.13
			C555.5,581.81,555.9,586.44,557.38,590.26z"/><path fill="#e64835" d="M571.7,549.94c-0.93,4.8-2.39,9.4-4.37,13.57l-51.39-0.2c-1.95-4.19-3.38-8.8-4.26-13.6L571.7,549.94z"/><path fill="#f0dec9" d="M579.88,823.09c-6.43,7.9-16.09,12.45-26.26,12.41l-26.03-0.1c-5.14-0.02-10.16-1.21-14.67-3.41
			c105.65-55.02,75.4-179.48,43.07-224.9c-10.24-14.39-22.94-16.92-22.94-16.92c44.02-24.98,30.8-88.48,15.54-98.06
			c19.65,5.11,27.78,33.93,23.11,57.83c-0.93,4.8-2.39,9.4-4.37,13.57c-1.68,3.54-3.74,6.77-6.18,9.55
			c-1.08,1.22-1.96,2.44-2.63,3.62c-3.01,5.13-2.61,9.76-1.13,13.58c1.66,4.27,4.69,7.51,5.84,9.23
			C604.09,660.15,637.75,751.86,579.88,823.09z"/><ellipse cx="513.37" cy="712.16" fill="#bcbec0" rx="64.4" ry="26.8" transform="rotate(-84.572 513.39 712.17)"/><ellipse cx="533.15" cy="534.88" fill="#bcbec0" rx="33.89" ry="14.1" transform="rotate(-87.037 533.105 534.864)"/></g><g><path fill="#e64835" d="M896.97,779.05c0,0,14.98,18.57-7.42,32.57l-0.96,0.53C692.5,941.76,565.9,738.63,565.9,738.63l-0.64-0.82
			c0,0-14.98-18.57,7.42-32.57l0.96-0.57c0,0,202.1-128.24,322.68,73.53L896.97,779.05z"/><path fill="#7a2323" d="M901.66,795.71c-0.2,1.33-0.56,2.69-1.12,4.06l-340.11-77.49l0.86-4.12l0-0.01L901.66,795.71z"/><path fill="#f8caaa" d="M807.88,769.54L666.3,737.29c-2.67-0.61-5.33,1.06-5.94,3.73l-0.81,3.55c-0.61,2.67,1.06,5.33,3.73,5.94
			l141.58,32.26c2.67,0.61,5.33-1.06,5.94-3.73l0.81-3.55C812.22,772.81,810.55,770.15,807.88,769.54z"/><path fill="#7a2323" d="M824.05,752.21c-2.43-4.41-9.4-12.96-26.78-12.95c-4.6,0-9.92,0.6-16.08,2.03
			c-1.77-1.62-12.85-11.26-27.05-11.26c-3.94,0-8.12,0.74-12.41,2.6c-8.35-9.66-20.08-11.81-28.89-11.81
			c-6.11,0-10.81,1.04-12.01,1.33c-10.98-8.44-19.65-11.3-26.97-11.3c-5.54,0-10.3,1.63-14.72,3.71c-1.86,0.87-6.41,3.54-8.39,9.31
			c-1.68,4.9-0.97,10.54,2.1,16.75c-4.7,3-7.72,7-8.74,11.59c-1.06,4.79,0.03,9.98,3.09,14.63c5.24,7.98,13.65,11.94,25.52,11.94
			c3.95,0,8.28-0.44,13-1.31c0.72-0.14,1.46-0.28,2.2-0.43c1.86,1.6,14.35,11.88,29.3,11.88c1.86,0,3.76-0.16,5.67-0.51
			c2.18-0.41,4.39-1.06,6.6-2.02c7.76,8.96,18.01,11.14,26.14,11.14c6.56,0,11.74-1.42,13.14-1.84c8.98,9.13,18.8,12.52,27.63,12.52
			c2.17,0,4.28-0.21,6.31-0.58c3.42-0.63,6.6-1.75,9.39-3.18c3.05-1.56,6.87-5.16,8.48-10.56c1.46-4.91,0.69-10.29-2.21-15.55
			C831.92,767.5,824.9,753.75,824.05,752.21z M815.22,780.08c2.43,4.4,3.09,8.82,1.91,12.78c-1.29,4.33-4.4,7.22-6.67,8.38
			c-2.61,1.34-5.44,2.3-8.41,2.85c-1.86,0.35-3.76,0.52-5.65,0.52c-9.03,0-17.69-3.96-25.06-11.44c-0.69-0.7-1.62-1.08-2.57-1.08
			c-0.35,0-0.7,0.05-1.04,0.15c-1.31,0.4-6.07,1.68-12.1,1.68c-9.85,0-17.73-3.33-23.41-9.9c-0.7-0.81-1.7-1.25-2.73-1.25
			c-0.48,0-0.97,0.1-1.43,0.3c-1.88,0.82-3.84,1.42-5.82,1.78c-1.63,0.3-3.32,0.45-5.02,0.45c-13.78,0-25.64-9.88-26.95-11.01
			c-0.66-0.57-1.5-0.87-2.35-0.87c-0.24,0-0.49,0.02-0.73,0.08c-0.72,0.15-1.43,0.29-2.12,0.42c-4.49,0.83-8.64,1.25-12.34,1.25
			c-10.59,0-17.95-3.37-22.51-10.32c-2.52-3.82-3.44-8.03-2.58-11.87c0.8-3.62,3.28-6.85,7.16-9.33c1.55-0.99,2.11-2.99,1.29-4.64
			c-2.63-5.31-3.28-10.02-1.92-13.98c1.54-4.47,5.07-6.54,6.52-7.22c4.94-2.33,9.01-3.37,13.18-3.37c7.43,0,15.53,3.45,24.77,10.55
			c0.64,0.49,1.41,0.75,2.2,0.75c0.28,0,0.57-0.03,0.85-0.1c0.84-0.2,5.34-1.23,11.16-1.23c7.77,0,18.61,1.83,26.17,10.57
			c0.7,0.81,1.7,1.25,2.73,1.25c0.48,0,0.97-0.1,1.43-0.3c3.52-1.53,7.22-2.3,10.97-2.3c12.99,0,23.47,9.26,24.62,10.31
			c0.67,0.62,1.54,0.95,2.44,0.95c0.27,0,0.55-0.03,0.82-0.09c5.53-1.28,10.67-1.93,15.27-1.93c15.24,0,21.34,6.95,23.62,11.09
			c1.13,2.06,6.22,12.78-4.77,21.57C814.75,776.62,814.37,778.55,815.22,780.08z"/><path fill="#fff" d="M871.3,742.23c0,0-14.77-17.61-24.15-25.75c-12.85,43.92-22.85,87.29-29.98,130.11c0,0,1.39,0.44,14.34-4.81
			c8.52-2.99,17.87-6.55,18.96-8.16C854.28,802.41,861.33,771.97,871.3,742.23z"/><path fill="#fff" d="M621.71,681.99c-11.08,32.05-18.5,64.68-22.31,97.91c9.94,10.71,25.07,23.15,25.07,23.15
			c5.25-43.94,15.05-87.59,29.41-130.94C653.88,672.1,636.45,676.35,621.71,681.99z"/><path fill="#e1ebf4" d="M889.54,811.62l-0.96,0.53C692.5,941.76,565.9,738.63,565.9,738.63l-0.64-0.82c0,0-10.61-13.15-0.62-25.67
				c0,0,167.07,165.55,294.22,16.01c0.01-0.02,0.04-0.04,0.05-0.06c13.07,13.83,25.63,30.4,37.41,50.11l0.64,0.86
				C896.97,779.06,911.94,797.62,889.54,811.62z"/><rect width="3.48" height="38.17" x="790.54" y="753.86" fill="#fff" transform="rotate(12.839 792.172 772.805)"/><rect width="3.48" height="38.17" x="767.35" y="748.57" fill="#fff" transform="rotate(12.839 768.987 767.523)"/><rect width="3.48" height="38.17" x="744.16" y="743.29" fill="#fff" transform="rotate(12.839 745.802 762.24)"/><rect width="3.48" height="38.17" x="720.97" y="738.01" fill="#fff" transform="rotate(12.839 722.617 756.958)"/><rect width="3.48" height="38.17" x="697.79" y="732.72" fill="#fff" transform="rotate(12.839 699.432 751.675)"/><rect width="3.48" height="38.17" x="674.6" y="727.44" fill="#fff" transform="rotate(12.839 676.247 746.393)"/><ellipse cx="671.95" cy="765.1" fill="#7a2323" rx="2.37" ry="2.78" transform="rotate(-77.162 671.98 765.102)"/><ellipse cx="680.43" cy="727.88" fill="#7a2323" rx="2.37" ry="2.78" transform="rotate(-77.162 680.459 727.89)"/><ellipse cx="695.17" cy="770.39" fill="#7a2323" rx="2.37" ry="2.78" transform="rotate(-77.162 695.198 770.392)"/><ellipse cx="703.65" cy="733.17" fill="#7a2323" rx="2.37" ry="2.78" transform="rotate(-77.162 703.676 733.179)"/><ellipse cx="718.39" cy="775.68" fill="#7a2323" rx="2.37" ry="2.78" transform="rotate(-77.162 718.415 775.682)"/><ellipse cx="726.87" cy="738.46" fill="#7a2323" rx="2.37" ry="2.78" transform="rotate(-77.162 726.894 738.47)"/><ellipse cx="750.08" cy="743.75" fill="#7a2323" rx="2.37" ry="2.78" transform="rotate(-77.162 750.112 743.759)"/><ellipse cx="764.82" cy="786.26" fill="#7a2323" rx="2.37" ry="2.78" transform="rotate(-77.162 764.85 786.262)"/><ellipse cx="773.3" cy="749.05" fill="#7a2323" rx="2.37" ry="2.78" transform="rotate(-77.162 773.329 749.049)"/><ellipse cx="788.04" cy="791.55" fill="#7a2323" rx="2.37" ry="2.78" transform="rotate(-77.162 788.068 791.552)"/><ellipse cx="796.52" cy="754.34" fill="#7a2323" rx="2.37" ry="2.78" transform="rotate(-77.162 796.547 754.339)"/><ellipse cx="741.6" cy="780.97" fill="#7a2323" rx="2.37" ry="2.78" transform="rotate(-77.162 741.633 780.972)"/><g><path fill="#e1ebf4" d="M889.54,811.62l-0.96,0.53C692.5,941.76,565.9,738.63,565.9,738.63l-0.64-0.82c0,0-5.6-6.94-4.83-15.54
				c0,0,89.69,114.05,216.3,103.72c91.33-7.45,110.39-62.34,110.39-62.34s0,0,0.01,0c3.12,4.64,6.19,9.48,9.2,14.54l0.64,0.86
				C896.97,779.06,911.94,797.62,889.54,811.62z"/></g><path fill="#a7a8ab" d="M636.57,685.02c21.41-11.71,96.44-16.92,130.77,2.33c38.24,21.44-36.61,3.2-76.63,0.77
			C658.97,686.19,617.3,695.56,636.57,685.02z"/></g><g><circle cx="448.16" cy="803.69" r="58.8" fill="#97b023"/><ellipse cx="414.41" cy="781.69" fill="#a7a9ac" rx="25.07" ry="12.58" transform="rotate(-56.282 414.44 781.695)"/><path fill="#e8edab" d="M489.87,782.87c-9.11-15.22-27.64-24.42-41.95-27.95c-4.1-1.01-6.78-2.59-7.97-4.69
			c-0.64-1.13-0.88-2.54-0.71-4.17l0.05-0.51c-2.92,0.45-5.79,1.11-8.59,1.99c0.07,2.51,0.68,4.82,1.84,6.87
			c2.38,4.22,6.87,7.16,13.33,8.76c12.64,3.12,28.92,11.08,36.69,24.07c4.5,7.51,5.59,16,3.24,25.23l-0.04,0.16
			c-2,9.3-6.76,16.41-14.14,21.14c-12.74,8.16-30.87,8.03-43.57,5.19c-6.49-1.45-11.82-0.81-15.84,1.9
			c-1.95,1.32-3.53,3.11-4.71,5.33c2.11,2.03,4.38,3.9,6.8,5.6l0.18-0.48c0.57-1.54,1.41-2.69,2.49-3.42c2-1.35,5.1-1.57,9.22-0.65
			c14.38,3.21,35.07,3.24,50.01-6.32c9.33-5.97,15.33-14.86,17.85-26.43C496.97,803.01,495.55,792.37,489.87,782.87z"/><path fill="#fff" d="M432.51,747c-0.01,2.38,0.53,4.58,1.62,6.51c2.13,3.76,6.23,6.42,12.18,7.89c13,3.21,29.76,11.44,37.82,24.9
			c4.76,7.95,5.91,16.91,3.44,26.61l-0.01,0.04l-0.01,0.04c-2.1,9.78-7.14,17.29-14.94,22.29c-13.22,8.46-31.89,8.35-44.95,5.43
			c-5.99-1.34-10.84-0.79-14.42,1.63c-1.84,1.24-3.3,2.97-4.35,5.11c1.25,1.12,2.55,2.19,3.9,3.21c0.6-1.6,1.58-3.21,3.18-4.29
			c2.43-1.64,6.01-1.95,10.64-0.92c14.02,3.13,34.16,3.18,48.63-6.08c8.92-5.71,14.66-14.23,17.06-25.31
			c2.79-10.99,1.45-21.18-3.99-30.26c-8.83-14.74-26.88-23.67-40.82-27.12c-4.61-1.14-7.67-3.01-9.12-5.56
			c-0.95-1.68-1.11-3.56-0.93-5.26C435.77,746.18,434.13,746.55,432.51,747z"/><path fill="#e8edab" d="M505.4,817.15c4.89-20.78-1.91-41.57-16.12-55.5c3.18,28.34,2.68,97.83-81.77,84.53
			c7.33,7.03,16.58,12.25,27.19,14.75C466.31,868.36,497.97,848.76,505.4,817.15z"/></g><g><path fill="#c6c5db" d="M605.49,794.42l-2.06,2.33c3.15,8.33,7.41,17.88,13.22,28.01c5.26,9.18,10.73,16.99,15.83,23.49
				c1.02-0.19,2.04-0.37,3.06-0.56c-5.31-6.55-11.1-14.6-16.61-24.22C612.85,812.88,608.55,802.93,605.49,794.42z"/><path fill="#c6c5db" d="M594.51,806.82c-0.71,0.74-1.41,1.49-2.12,2.23c2.07,6.72,5.25,14.85,10.24,23.48
				c4.47,7.73,9.29,13.96,13.62,18.82c1-0.22,2-0.44,3.01-0.66c-4.52-4.89-9.65-11.32-14.35-19.44
				C599.67,822.2,596.5,813.7,594.51,806.82z"/><path fill="#fff" d="M652.32,846.65c5.5-3.68,31.63-20.54,52.31-23.37c21.53-2.95,29.5,7.86,30.56,9.47
					c-0.47,1.86-4.48,14.68-25.79,18.92C688.92,855.75,658.72,848.33,652.32,846.65z"/><path fill="#e1ebf4" d="M709.39,851.67c-20.47,4.08-50.67-3.34-57.07-5.02c55.27,8.56,82.87-13.9,82.87-13.9
						C734.71,834.61,730.71,847.43,709.39,851.67z"/><path fill="#c6c5db" d="M720.41,835.59c-39.85,5.68-79.69,11.36-119.54,17.04c-1.46,0.12-2.33,1.31-2.12,2.15
				c0.2,0.76,1.34,1.39,2.6,1.07C641.04,849.09,680.72,842.34,720.41,835.59z"/><path fill="#fff" d="M650.66,833.37c5.02-4.32,28.91-24.21,49.1-29.52c21.02-5.53,30.23,4.24,31.48,5.71
					c-0.24,1.9-2.67,15.11-23.32,21.9C688.09,837.98,657.21,834.27,650.66,833.37z"/><path fill="#e1ebf4" d="M707.92,831.46c-19.83,6.52-50.7,2.81-57.26,1.91c55.9,1.82,80.58-23.81,80.58-23.81
						C730.99,811.46,728.56,824.67,707.92,831.46z"/><path fill="#c6c5db" d="M715.67,813.97c-38.74,10.92-77.48,21.85-116.22,32.77c-1.43,0.31-2.14,1.61-1.81,2.41
				c0.3,0.73,1.51,1.2,2.72,0.71C638.8,837.91,677.24,825.94,715.67,813.97z"/><path fill="#fff" d="M651.13,819.56c4.38-4.97,25.3-27.97,44.57-36c20.06-8.37,30.53,0.04,31.96,1.32
					c0.02,1.92-0.56,15.34-20.08,24.9C688.84,818.97,657.75,819.54,651.13,819.56z"/><path fill="#e1ebf4" d="M707.59,809.78c-18.74,9.19-49.83,9.76-56.45,9.78c55.62-5.89,76.53-34.68,76.53-34.68
						C727.68,786.8,727.1,800.21,707.59,809.78z"/><path fill="#c6c5db" d="M707.63,794.69c-37.06,15.69-74.13,31.39-111.19,47.08c-1.38,0.49-1.92,1.87-1.49,2.62
				c0.39,0.69,1.65,1,2.79,0.37C634.37,828.07,671,811.38,707.63,794.69z"/><path fill="#fff" d="M644.47,808.08c3.92-5.33,22.75-30.08,41.23-39.78c19.25-10.1,30.42-2.65,31.95-1.5
					c0.19,1.91,0.79,15.33-17.81,26.57C681.98,804.17,651.06,807.48,644.47,808.08z"/><path fill="#e1ebf4" d="M699.84,793.37c-17.86,10.8-48.78,14.11-55.37,14.71c54.89-10.76,73.18-41.28,73.18-41.28
						C717.84,768.71,718.44,782.12,699.84,793.37z"/><path fill="#c6c5db" d="M699.64,778.27c-35.61,18.76-71.22,37.52-106.83,56.28c-1.34,0.61-1.76,2.02-1.27,2.74
				c0.44,0.65,1.73,0.86,2.81,0.13C629.46,817.71,664.55,797.99,699.64,778.27z"/><path fill="#fff" d="M638.37,795.79c3.11-5.85,18.14-33.07,35.02-45.35c17.58-12.79,29.71-7.03,31.4-6.12
					c0.46,1.86,3,15.05-13.77,28.88C674.92,786.48,644.81,794.24,638.37,795.79z"/><path fill="#e1ebf4" d="M691.03,773.2c-16.11,13.28-46.22,21.04-52.65,22.59c52.75-18.61,66.42-51.46,66.42-51.46
						C705.26,746.19,707.8,759.38,691.03,773.2z"/><g><path fill="#fff" d="M624.98,789.91c2.73-6.03,16.03-34.14,32.1-47.46c16.74-13.86,29.21-8.89,30.95-8.08
					c0.58,1.83,3.94,14.83-11.92,29.68C660.87,778.32,631.31,787.96,624.98,789.91z"/><path fill="#e1ebf4" d="M676.11,764.06c-15.24,14.27-44.8,23.9-51.13,25.85c51.47-21.89,63.05-55.54,63.05-55.54
						C688.62,736.2,691.98,749.2,676.11,764.06z"/></g><g><path fill="#fff" d="M613.78,782.89c2.23-6.23,13.19-35.33,28.13-49.91c15.55-15.18,28.39-11.24,30.19-10.57
					c0.73,1.78,5.14,14.46-9.46,30.56C648.61,768.42,619.92,780.43,613.78,782.89z"/><path fill="#e1ebf4" d="M662.63,752.96c-14.03,15.46-42.71,27.47-48.85,29.93c49.52-26.01,58.32-60.49,58.32-60.49
						C672.82,724.18,677.24,736.86,662.63,752.96z"/></g><path fill="#c6c5db" d="M687.65,759.95c-33.14,22.84-66.28,45.69-99.41,68.53c-1.25,0.76-1.5,2.22-0.93,2.87
				c0.52,0.6,1.82,0.65,2.81-0.2C622.62,807.41,655.13,783.68,687.65,759.95z"/><path fill="#c6c5db" d="M676.71,744.29c-30.43,26.35-60.86,52.69-91.29,79.04c-1.16,0.89-1.25,2.37-0.61,2.96
				c0.58,0.53,1.88,0.44,2.77-0.51C617.29,798.62,647,771.46,676.71,744.29z"/><path fill="#c6c5db" d="M661.02,728.69c-26.66,30.16-53.32,60.31-79.97,90.47c-1.03,1.04-0.93,2.51-0.22,3.01
				c0.65,0.45,1.92,0.19,2.68-0.87C609.35,790.42,635.18,759.56,661.02,728.69z"/><path fill="#fff" d="M565.06,852.35L565.06,852.35c-5.77-10.23-2.64-23.19,7.17-29.65l10.55-7.13l22.92,40.64l-11.56,5.34
			C583.54,866.6,570.83,862.58,565.06,852.35z"/><g><path fill="#e1ebf4" d="M562.49,845.15c0.42,2.47,1.27,4.9,2.56,7.2l0,0c5.77,10.23,18.48,14.25,29.09,9.2l11.56-5.34l-6.17-10.95
				l-3.41-1.54C596.12,843.72,578.84,865.08,562.49,845.15z"/></g><g><path fill="#e64835" d="M606.71,855.08l-22.47-39.84c-0.49-0.88-1.6-1.18-2.48-0.69c-0.88,0.49-1.18,1.6-0.69,2.48l22.47,39.84
				c0.49,0.88,1.6,1.18,2.48,0.69C606.89,857.07,607.2,855.96,606.71,855.08z"/></g></g></svg>