<svg xmlns="http://www.w3.org/2000/svg" id="Layer_1" x="0" y="0" enable-background="new 0 0 1364 960" version="1.1" viewBox="0 0 1364 960" xml:space="preserve"><path fill="#fff8d9" d="M1112.48,609.75c-0.04,1.11-0.08,2.22-0.14,3.33c-3.56,68.45-50.03,127.17-115.33,148.01
		c-164.27,52.45-455.38,65.59-609.15-2.06c-69.36-25.92-116.26-81.53-132.55-146.8C243.03,563,254,511,283.55,469.75
		c5.88-8.21,11.63-17.23,16.43-28.55c16.05-35.91,14.27-83.16,7.72-112.56c-14.1-62.93,5.98-140.83,76.91-164.89
		c96.01-32.73,171.08,89.09,296.05,73.84c74.29-9.06,86.84-33.06,167.14-67.34c115.82-49.4,269.1,26.47,197.91,164.7
		c-15.96,33.65-35.43,64.42-24.9,100.71C1046.9,512.92,1112.04,526.68,1112.48,609.75z"/><path fill="#87ad34" d="M1019.88,717.89c4.02-5.47,1.33-13.81-4.17-17.78c-5.5-3.97-12.79-4.47-19.56-3.86
			c-10.96,0.99-20.71,4.23-30.76,8.07c7.18-7.25,14.1-14.75,20.76-22.45c4.4-5.09,8.7-10.28,12.88-15.57
			c12.37,8.96,27.47,14.13,42.74,14.59c5.79,0.17,12.36-0.71,15.78-5.39c3.99-5.46,1.3-13.8-4.18-17.77
			c-5.48-3.97-12.73-4.49-19.47-3.89c-11.31,1.01-21.34,4.44-31.73,8.45c12.71-16.43,24.27-33.77,34.23-51.97
			c13.5,6.66,28.98,9.27,43.91,7.34c5.74-0.74,12.1-2.66,14.73-7.82c3.07-6.03-0.91-13.83-6.94-16.88
			c-6.04-3.05-13.28-2.42-19.84-0.75c-10.63,2.69-19.71,7.43-28.98,12.79c10.2-19.36,19.01-40.37,21.4-62.19
			c0.05-0.45,0.08-0.91,0.13-1.36c14.44,4.81,30.32,5.24,44.98,1.14c5.58-1.56,11.59-4.36,13.46-9.84
			c2.18-6.4-2.87-13.56-9.28-15.72c-6.41-2.16-13.49-0.49-19.74,2.09c-11.02,4.55-19.89,11.22-29.07,18.54
			c2.06-25.28-0.52-51.04,2.41-76.21c14.63,5.05,30.81,5.57,45.72,1.4c5.58-1.56,11.59-4.36,13.46-9.84
			c2.18-6.4-2.87-13.56-9.28-15.72c-6.41-2.16-13.49-0.49-19.74,2.09c-11.31,4.67-20.36,11.58-29.81,19.14
			c0.84-6.28,2.05-12.51,3.8-18.69c3.54-12.51,9.72-24.14,17.71-34.53c13.01,9.04,28.86,13.93,44.7,13.74
			c5.79-0.07,12.32-1.23,15.54-6.04c3.76-5.63,0.72-13.84-4.92-17.58c-5.64-3.74-12.91-3.95-19.62-3.07
			c-12.3,1.62-22.94,6.06-34.18,11.01c13.23-16.5,31.03-29.72,49.93-38.09c12.71,6.7,27.33,9.78,41.66,8.7
			c5.78-0.44,12.22-2.01,15.12-7.02c3.39-5.85-0.16-13.86-6.03-17.23c-5.87-3.37-13.13-3.12-19.77-1.81
			c-10.59,2.09-19.79,6.23-29.18,10.99c-0.39-0.03-0.81,0.03-1.25,0.21c-16.25,6.76-31.03,16.85-43.63,29.1
			c-2.78,2.7-5.47,5.52-8.06,8.44c4.64-13.19,5.65-27.65,2.78-41.34c-1.19-5.67-3.59-11.85-8.94-14.07
			c-6.25-2.6-13.72,1.98-16.29,8.23c-2.58,6.26-1.38,13.43,0.79,19.84c4.04,11.95,10.62,21.66,17.79,31.92
			c-5.15,6.36-9.71,13.19-13.23,20.56c-5.33,11.17-8.29,22.9-9.93,34.89c-1.7-14.32-7.49-28.15-16.57-39.36
			c-3.64-4.5-8.61-8.91-14.38-8.44c-6.74,0.54-11.3,8.02-10.74,14.76c0.56,6.74,4.91,12.58,9.76,17.29
			c9.3,9.03,19.9,14.73,31.31,20.76c-2.15,19.85-1.12,40.3-1.58,60.04c-0.15,6.22-0.47,12.38-1.12,18.5
			c-1.06-15.62-7.01-30.89-16.85-43.07c-3.64-4.5-8.6-8.92-14.37-8.46c-6.74,0.53-11.31,8.01-10.76,14.75
			c0.55,6.74,4.89,12.58,9.74,17.3c9.5,9.25,20.36,15.02,32.06,21.22c-0.77,6.51-1.94,12.97-3.76,19.36
			c-3.33,11.7-7.99,23-13.3,33.93c-1.41,2.91-2.88,5.79-4.38,8.65c0.39-14.2-3.2-28.5-10.34-40.78
			c-2.91-5.01-7.13-10.12-12.91-10.56c-6.75-0.5-12.41,6.18-12.89,12.93c-0.48,6.75,2.91,13.18,6.98,18.59
			c7.52,9.99,16.7,17.1,26.63,24.51c-9.74,17.79-21.17,34.69-33.61,50.71c4.03-14.26,3.88-29.7-0.54-43.85
			c-1.73-5.53-4.71-11.46-10.25-13.16c-6.47-1.99-13.47,3.28-15.43,9.75c-1.97,6.47-0.09,13.5,2.68,19.67
			c5.26,11.71,12.9,20.86,21.18,30.57c-1.66,2.11-3.34,4.21-5.04,6.29c-9.31,11.41-19.18,22.45-29.62,32.9
			c3.72-13.95,3.45-28.95-0.85-42.74c-1.73-5.53-4.71-11.45-10.25-13.16c-6.47-1.99-13.47,3.28-15.43,9.75
			c-1.97,6.47-0.09,13.5,2.69,19.67c5.11,11.39,12.48,20.35,20.5,29.77c-12.05,11.77-24.86,22.75-38.48,32.62
			c-2.84,2.06,0.54,6.32,3.38,4.26c13.76-9.96,26.67-21.08,38.83-32.97c12.44,8.99,27.64,14.16,43.03,14.6
			C1009.83,723.47,1016.44,722.57,1019.88,717.89z"/><path fill="#0e7075" d="M991.64,774.18l5.24,11.43c4.98-10.4,10-20.91,17.16-29.96c21.28-26.86,57.7-36.58,91.88-38.97
					c34.18-2.4,69.05,0.83,102.35-7.27c9.44-2.29,20.02-6.88,22.32-16.32c0.46-1.96,0.53-3.93,0.25-5.89
					c-14.99-3.48-30.15-6.13-45.47-7.64c-23.82-2.34-48.05-1.91-71.6,2.69c-19.39,3.79-38.25,10.49-55.53,20.1
					c-17.04,9.47-32.58,21.84-44.93,36.98c-6.4,7.84-11.65,16.37-16.45,25.26C995.13,767.79,993.44,771,991.64,774.18z"/><path fill="#1c9399" d="M983.92,757.3l7.09,15.5l0.63,1.38c1.79-3.18,3.49-6.39,5.22-9.59c4.8-8.89,10.05-17.42,16.45-25.26
					c12.35-15.13,27.89-27.51,44.93-36.98c17.28-9.61,36.14-16.31,55.53-20.1c23.55-4.6,47.78-5.03,71.6-2.69
					c15.32,1.5,30.48,4.16,45.47,7.64c-0.05-0.45-0.13-0.89-0.23-1.33c-0.77-3.82-2.7-7.52-5.03-10.71
					c-11.49-15.79-31.66-22.66-50.99-25.55c-60.37-9.04-124.62,14.05-165.45,59.44C996.84,722.76,986.29,739.03,983.92,757.3z"/><path fill="#fff" d="M991.01,772.8l0.63,1.38c1.79-3.18,3.49-6.39,5.22-9.59c4.8-8.89,10.05-17.42,16.45-25.26
					c12.35-15.13,27.89-27.51,44.93-36.98c17.28-9.61,36.14-16.31,55.53-20.1c23.55-4.6,47.78-5.03,71.6-2.69
					c15.32,1.5,30.48,4.16,45.47,7.64c-0.05-0.45-0.13-0.89-0.23-1.33c-17.73-4.08-35.72-7.01-53.87-8.26
					c-23.4-1.62-47.18-0.43-70.08,4.9c-19.2,4.46-37.8,11.8-54.67,22.04c-16.67,10.1-31.65,23.09-43.34,38.73
					c-6.21,8.33-11.07,17.41-16.01,26.51C992.12,770.8,991.57,771.79,991.01,772.8z"/><path fill="#87ad34" d="M344.12,717.89c-4.02-5.47-1.33-13.81,4.17-17.78c5.5-3.97,12.79-4.47,19.56-3.86
			c10.96,0.99,20.71,4.23,30.76,8.07c-7.18-7.25-14.1-14.75-20.76-22.45c-4.4-5.09-8.7-10.28-12.88-15.57
			c-12.37,8.96-27.47,14.13-42.74,14.59c-5.79,0.17-12.36-0.71-15.78-5.39c-3.99-5.46-1.3-13.8,4.18-17.77
			c5.48-3.97,12.73-4.49,19.47-3.89c11.31,1.01,21.34,4.44,31.73,8.45c-12.71-16.43-24.27-33.77-34.23-51.97
			c-13.5,6.66-28.98,9.27-43.91,7.34c-5.74-0.74-12.1-2.66-14.73-7.82c-3.07-6.03,0.91-13.83,6.94-16.88
			c6.04-3.05,13.28-2.42,19.84-0.75c10.63,2.69,19.71,7.43,28.98,12.79c-10.2-19.36-19.01-40.37-21.4-62.19
			c-0.05-0.45-0.08-0.91-0.13-1.36c-14.44,4.81-30.32,5.24-44.98,1.14c-5.58-1.56-11.59-4.36-13.46-9.84
			c-2.18-6.4,2.87-13.56,9.28-15.72c6.41-2.16,13.49-0.49,19.74,2.09c11.02,4.55,19.89,11.22,29.07,18.54
			c-2.06-25.28,0.52-51.04-2.41-76.21c-14.63,5.05-30.81,5.57-45.72,1.4c-5.58-1.56-11.59-4.36-13.46-9.84
			c-2.18-6.4,2.87-13.56,9.28-15.72c6.41-2.16,13.49-0.49,19.74,2.09c11.32,4.67,20.36,11.58,29.81,19.14
			c-0.84-6.28-2.05-12.51-3.8-18.69c-3.54-12.51-9.73-24.14-17.71-34.53c-13.01,9.04-28.86,13.93-44.7,13.74
			c-5.79-0.07-12.32-1.23-15.54-6.04c-3.76-5.63-0.72-13.84,4.92-17.58c5.64-3.74,12.91-3.95,19.62-3.07
			c12.3,1.62,22.94,6.06,34.18,11.01c-13.23-16.5-31.03-29.72-49.93-38.09c-12.71,6.7-27.33,9.78-41.66,8.7
			c-5.78-0.44-12.22-2.01-15.12-7.02c-3.39-5.85,0.16-13.86,6.03-17.23c5.87-3.37,13.13-3.12,19.77-1.81
			c10.59,2.09,19.79,6.23,29.18,10.99c0.39-0.03,0.81,0.03,1.25,0.21c16.25,6.76,31.03,16.85,43.63,29.1
			c2.78,2.7,5.47,5.52,8.06,8.44c-4.64-13.19-5.65-27.65-2.78-41.34c1.19-5.67,3.59-11.85,8.94-14.07
			c6.25-2.6,13.72,1.98,16.29,8.23c2.58,6.26,1.38,13.43-0.79,19.84c-4.04,11.95-10.62,21.66-17.79,31.92
			c5.15,6.36,9.71,13.19,13.23,20.56c5.33,11.17,8.29,22.9,9.93,34.89c1.7-14.32,7.49-28.15,16.57-39.36
			c3.64-4.5,8.61-8.91,14.38-8.44c6.74,0.54,11.3,8.02,10.74,14.76c-0.56,6.74-4.91,12.58-9.76,17.29
			c-9.3,9.03-19.9,14.73-31.31,20.76c2.15,19.85,1.12,40.3,1.58,60.04c0.15,6.22,0.47,12.38,1.12,18.5
			c1.06-15.62,7.01-30.89,16.85-43.07c3.64-4.5,8.6-8.92,14.37-8.46c6.74,0.53,11.31,8.01,10.76,14.75
			c-0.55,6.74-4.89,12.58-9.74,17.3c-9.5,9.25-20.36,15.02-32.06,21.22c0.77,6.51,1.94,12.97,3.76,19.36
			c3.33,11.7,7.99,23,13.3,33.93c1.41,2.91,2.88,5.79,4.38,8.65c-0.39-14.2,3.2-28.5,10.34-40.78c2.91-5.01,7.13-10.12,12.91-10.56
			c6.75-0.5,12.41,6.18,12.89,12.93c0.48,6.75-2.91,13.18-6.98,18.59c-7.52,9.99-16.7,17.1-26.63,24.51
			c9.74,17.79,21.17,34.69,33.61,50.71c-4.03-14.26-3.88-29.7,0.54-43.85c1.73-5.53,4.71-11.46,10.25-13.16
			c6.47-1.99,13.47,3.28,15.43,9.75c1.97,6.47,0.09,13.5-2.68,19.67c-5.26,11.71-12.9,20.86-21.18,30.57
			c1.66,2.11,3.34,4.21,5.04,6.29c9.31,11.41,19.18,22.45,29.62,32.9c-3.72-13.95-3.45-28.95,0.85-42.74
			c1.73-5.53,4.71-11.45,10.25-13.16c6.47-1.99,13.47,3.28,15.43,9.75c1.97,6.47,0.09,13.5-2.69,19.67
			c-5.11,11.39-12.48,20.35-20.5,29.77c12.05,11.77,24.86,22.75,38.48,32.62c2.84,2.06-0.54,6.32-3.38,4.26
			c-13.76-9.96-26.67-21.08-38.83-32.97c-12.44,8.99-27.64,14.16-43.03,14.6C354.17,723.47,347.56,722.57,344.12,717.89z"/><path fill="#0e7075" d="M372.36,774.18l-5.24,11.43c-4.98-10.4-10-20.91-17.16-29.96c-21.28-26.86-57.7-36.58-91.88-38.97
					c-34.18-2.4-69.05,0.83-102.35-7.27c-9.44-2.29-20.02-6.88-22.32-16.32c-0.47-1.96-0.53-3.93-0.25-5.89
					c14.99-3.48,30.15-6.13,45.47-7.64c23.82-2.34,48.05-1.91,71.61,2.69c19.39,3.79,38.25,10.49,55.53,20.1
					c17.04,9.47,32.58,21.84,44.93,36.98c6.4,7.84,11.65,16.37,16.45,25.26C368.87,767.79,370.56,771,372.36,774.18z"/><path fill="#1c9399" d="M380.08,757.3l-7.09,15.5l-0.63,1.38c-1.79-3.18-3.49-6.39-5.22-9.59c-4.8-8.89-10.05-17.42-16.45-25.26
					c-12.35-15.13-27.89-27.51-44.93-36.98c-17.28-9.61-36.14-16.31-55.53-20.1c-23.55-4.6-47.78-5.03-71.61-2.69
					c-15.32,1.5-30.48,4.16-45.47,7.64c0.05-0.45,0.13-0.89,0.23-1.33c0.77-3.82,2.7-7.52,5.03-10.71
					c11.49-15.79,31.66-22.66,50.99-25.55c60.37-9.04,124.62,14.05,165.45,59.44C367.16,722.76,377.71,739.03,380.08,757.3z"/><path fill="#fff" d="M372.99,772.8l-0.63,1.38c-1.79-3.18-3.49-6.39-5.22-9.59c-4.8-8.89-10.05-17.42-16.45-25.26
					c-12.35-15.13-27.89-27.51-44.93-36.98c-17.28-9.61-36.14-16.31-55.53-20.1c-23.55-4.6-47.78-5.03-71.61-2.69
					c-15.32,1.5-30.48,4.16-45.47,7.64c0.05-0.45,0.13-0.89,0.23-1.33c17.73-4.08,35.72-7.01,53.87-8.26
					c23.4-1.62,47.18-0.43,70.08,4.9c19.2,4.46,37.8,11.8,54.67,22.04c16.67,10.1,31.65,23.09,43.34,38.73
					c6.21,8.33,11.07,17.41,16.01,26.51C371.88,770.8,372.43,771.79,372.99,772.8z"/><path fill="#e64835" d="M1012.48,579.72c0.02,0.04,0.07,0.12,0.05,0.18c-0.46,5.78-1.11,11.4-1.91,17.15
			c-7.86,60.09-31.77,117.58-69.69,165.77h-532.2c-8.72-11.08-16.81-22.82-24.22-35.19c0,0,0,0-0.02-0.04
			c-2.95-4.84-5.74-9.77-8.43-14.8c-1.95-3.66-3.84-7.39-5.65-11.07c-0.02-0.04-0.02-0.04-0.04-0.08
			c-53.1-108.78-42.64-233.19,18.16-329.49c4.74-7.54,9.79-14.88,15.16-22.03c28.8-38.5,66.29-71.47,111.52-95.63
			c9.98-5.34,20.11-10.12,30.33-14.33c3.55-1.47,7.07-2.89,10.64-4.22c40.73-15.28,82.96-22.19,124.66-21.4
			c3.11,0.06,6.18,0.14,9.29,0.3c70.78,3.26,139.38,28.72,195.35,73.12c6.27,5,12.39,10.19,18.28,15.65
			c0.02,0.05,0.02,0.05,0.02,0.05c27.47,25.14,51.2,55.3,69.72,89.97C1005.17,452.91,1017.43,517.38,1012.48,579.72z"/><path fill="#d9b9b9" d="M445.8,764.2h-35.99c-9.12-11.48-17.58-23.68-25.3-36.57c0,0,0,0-0.02-0.04c-2.95-4.84-5.74-9.77-8.43-14.8
			c-1.95-3.66-3.84-7.39-5.65-11.07c-0.02-0.04-0.02-0.04-0.04-0.08c-3.83-7.85-7.29-15.79-10.47-23.78
			C383.58,712.39,412.85,741.37,445.8,764.2z"/><path fill="#d9b9b9" d="M1012.48,579.72c0.02,0.04,0.07,0.12,0.05,0.18c-0.46,5.78-1.11,11.4-1.91,17.15
			c-7.94,60.67-32.23,118.67-70.77,167.15H831.88c80.6-55.78,130.68-142.04,142.77-234.49c0.79-5.75,1.45-11.37,1.91-17.14
			c0.02-0.07-0.03-0.15-0.05-0.19c3.99-50.28-3.23-101.94-22.78-151.14c7.09,10.32,13.74,21.09,19.77,32.39
			C1005.17,452.91,1017.43,517.38,1012.48,579.72z"/><path fill="#7a2323" d="M1012.53,579.9c-0.46,5.78-1.11,11.4-1.91,17.15c-0.5-0.36-0.82-0.87-1.11-1.5
			C980.03,526.97,931.5,467,870.1,424.45c-56.87-39.44-128.94-61.73-168.72-121.84c-2.99-4.51-5.75-9.19-8.19-14.05
			c-20.85,3.26-41.46,7.96-61.44,14.41c5.88,6.82,11.59,13.79,17.16,20.89c28.47,36.4,53.82,75.45,76.87,115.48
			c21.22,36.82,40.29,74.86,57.12,113.88c20.61,47.71,37.86,96.86,51.59,146.95c5.7,20.68,10.76,41.53,15.21,62.52h-9.41
			c-12.71-59.44-30.36-117.85-52.77-174.37c-4.66-11.77-9.53-23.47-14.6-35.1c-32-73.55-71.96-144.01-119.62-208.44
			c-9.79-13.24-20.02-26.25-30.96-38.61c-8.77,3.01-17.41,6.48-25.85,10.31c-16.52,7.47-32.18,16.25-46.97,26.18
			c15.42,18.12,24.44,42.53,26.84,65.67c2.44,23.32-0.33,46.56-4.06,69.38c-4.07,25.25-8.74,50.39-13.15,75.51
			c-0.18,1.01-0.35,2.01-0.53,3.02c-4.53,25.8-9.81,51.58-12.4,77.7c-2.59,26.02-0.43,51.64,3.09,77.67
			c2.31,16.94,4.62,34.05,7.47,51.08h-9.31c-1.08-6.49-2.08-12.98-3.03-19.46c-3.59-24.49-7.67-49.24-8.71-73.94
			c-0.98-24.11,2.19-47.87,6.17-71.39c2.49-14.9,5.11-29.79,7.75-44.68c1.87-10.61,3.75-21.21,5.6-31.81
			c4.18-23.73,9.06-47.52,11.48-71.62c3.52-35.02-0.34-74.96-24.85-101.9c-29.64,21.01-55.76,46.65-78.37,75.74
			c-30.64,39.4-56.59,82.11-71.57,129.59c-1.14,3.61-2.22,7.25-3.23,10.92C374,617.3,372.56,673.7,384.44,727.3
			c0.01,0.11,0.05,0.19,0.05,0.29c-2.95-4.84-5.74-9.77-8.43-14.8c-1.95-3.66-3.84-7.39-5.65-11.07c-0.02-0.04-0.02-0.04-0.04-0.08
			c-5.45-39.99-3.83-80.83,4.63-120.47c2.02-9.47,4.47-18.79,7.31-27.95c13.12-42.49,34.56-81.74,60.99-118.01
			c17.31-23.76,36.09-46.73,57.83-66.7c10.67-9.82,22.02-18.96,33.92-27.35c-1.67-1.56-3.48-3-5.37-4.38
			c-20.19-14.84-42.88-14.15-65.18-6.94c-26.53,8.65-51.1,23.03-72.15,41.26c-1.2,1.06-2.58,1.33-3.82,1.05
			c4.74-7.54,9.79-14.88,15.16-22.03c14.18-10.08,29.48-18.46,45.68-24.87c19.9-7.87,41.87-14.02,63.45-7.44
			c11.64,3.54,21.68,9.82,30.17,17.9c9.33-6.28,19.01-12.08,28.96-17.39c14.21-7.59,28.84-14,43.83-19.45
			c-20.58-22.41-43.44-42.55-69.65-58.29c-0.23-0.14-0.4-0.26-0.59-0.42c3.55-1.47,7.07-2.89,10.64-4.22
			c25.85,16.35,48.6,36.97,69.05,59.71c20.83-6.91,42.22-11.91,63.95-15.48c-8.96-20.68-12.83-43.35-8.34-65.63
			c3.11,0.06,6.18,0.14,9.29,0.3c-4.72,21.73-0.69,43.84,8.5,63.88c12.47-1.86,25.02-3.19,37.59-4.17
			c50.1-3.9,101.13-0.59,149.26,13.41c6.27,5,12.39,10.19,18.28,15.65c-46.5-16.9-96.24-22.79-145.84-21.08
			c-18.31,0.6-36.77,2.11-55.09,4.64c1.37,2.56,2.82,5.07,4.39,7.52c17.77,28.49,44.46,49.04,72.83,66.3
			c31,18.87,64.06,34.34,94.04,55.01c29.53,20.39,56.37,44.67,79.56,72.05c23.56,27.8,43.4,58.69,58.83,91.67
			C1012.5,579.76,1012.55,579.84,1012.53,579.9z"/><ellipse cx="542.61" cy="369.92" fill="#a7a9ac" rx="152.96" ry="76.84" transform="rotate(-40.051 542.597 369.904)"/><path fill="#fff" d="M879.46,829.33c-4.62,0-10.12-1.21-15.46-3.4c-5.34-2.18-10.1-5.16-13.4-8.4c-6.51-6.39-5.64-11.87-4.54-14.56
		c0.88-2.15,3.1-5.46,8.61-6.71l2.33-6.35l-102.21-2.35c-3.8-0.09-6.84-3.19-6.84-7c0-0.24,0.01-0.53,0.04-0.77
		c0.01-0.06,0.01-0.11,0.02-0.17c-11.28,4.67-23.54,7.4-36.08,7.98c-0.48,0.04-0.9,0.06-1.33,0.08c-0.07,0-0.13,0.01-0.2,0.01
		c-0.52,0.01-1.01,0.03-1.52,0.04c-0.56,0.04-1.11,0.06-1.65,0.06c-0.17,0-0.34,0-0.52-0.01c-0.55,0.01-1.11,0.01-1.66,0.01
		c-9.33,0-18.71-1.18-27.87-3.51c-3.01-0.76-6.03-1.66-9.21-2.74c-13.88-4.78-26.5-12.09-37.52-21.74c-2-1.69-3.94-3.46-5.77-5.25
		c-3.08-2.57-5.98-5.45-8.66-8.63c-4.56,5.17-9.61,10.04-15.08,14.53c-6.46,5.29-14.61,8.21-22.96,8.21c-2.46,0-4.94-0.25-7.36-0.75
		l-22.1-4.58c-1.5-0.31-2.98-0.72-4.44-1.23c-5.24,4.46-11.05,8.18-17.33,11.09c-0.14,0.07-0.29,0.13-0.44,0.19
		c-0.98,0.45-2,0.89-3.12,1.34c-0.41,0.17-0.8,0.31-1.19,0.45l-0.34,0.12c-0.69,0.27-1.39,0.53-2.08,0.77
		c-0.49,0.17-1.01,0.33-1.53,0.49l-0.79,0.25c-0.41,0.13-0.81,0.26-1.22,0.38c-0.64,0.19-1.27,0.35-1.92,0.52l-0.64,0.17
		c-0.34,0.09-0.68,0.18-1.02,0.26c-0.61,0.15-1.28,0.29-1.94,0.42l-0.84,0.17c-0.29,0.06-0.59,0.13-0.88,0.18
		c-0.83,0.15-1.65,0.28-2.47,0.4l-0.13,0.02c-0.33,0.06-0.66,0.11-1,0.15c-1.03,0.15-2.07,0.25-2.85,0.32l-0.72,0.07
		c-1.01,0.09-2,0.14-2.98,0.2c0,0-0.63,0.04-0.7,0.04c-0.87,0.03-1.73,0.05-2.6,0.05l-0.47,0l-0.26,0c-0.1,0-0.19,0-0.29,0
		c-1.17,0-2.26-0.05-3.19-0.1c-0.02,0-0.21-0.01-0.27-0.01c-1.19-0.07-2.29-0.16-3.36-0.27c-0.06,0-0.12-0.01-0.19-0.02
		c-1.24-0.13-2.39-0.27-3.49-0.44c0,0-0.17-0.03-0.25-0.04c-12.59-1.94-24.44-7-34.51-14.71l-39.15,9.8
		c-1.11,0.28-2.26,0.42-3.41,0.42c-6.42,0-11.99-4.36-13.54-10.59l-13.6-54.3c-1.86-7.46,2.69-15.06,10.15-16.94l4.32-1.08
		c-0.18-3.23,0.6-6.45,2.31-9.29c1.14-1.89,2.61-3.51,4.34-4.78l-8.65-34.51c-2.09-8.41,3.03-16.94,11.42-19.03l4.6-1.15l2.54-44.71
		c-3.05-2.64-5.57-5.81-7.43-9.37c-0.55-0.09-1.11-0.19-1.67-0.29c-0.48-0.1-0.91-0.19-1.35-0.29l-0.29-0.06
		c-0.62-0.13-1.32-0.28-2-0.45c-0.52-0.13-1.05-0.27-1.57-0.41c-0.65-0.17-1.33-0.36-2-0.56c-0.3-0.09-0.66-0.2-1.02-0.32
		l-0.99-0.32c-0.48-0.16-0.96-0.31-1.44-0.48c-0.54-0.18-1.07-0.38-1.6-0.59c-0.57-0.21-1.22-0.45-1.86-0.71
		c-0.47-0.19-0.98-0.41-1.49-0.62l-0.52-0.23c-0.44-0.19-0.88-0.38-1.31-0.58c-0.3-0.14-1.51-0.72-1.54-0.74
		c-0.58-0.28-1.16-0.57-1.73-0.86c-0.49-0.25-1.02-0.54-1.57-0.84c-0.48-0.26-1.04-0.56-1.57-0.87c-0.25-0.13-0.42-0.23-0.6-0.33
		c-0.14-0.08-0.27-0.17-0.4-0.25c-5.04-3-9.7-6.54-13.91-10.56c-4.34-0.37-8.66-0.93-12.86-1.69c-16.12-2.9-30.31-8.45-42.18-16.5
		c-1.12-0.75-2.18-1.5-3.21-2.27c-1.27-0.95-2.32-1.76-3.28-2.54c-0.07-0.06-0.57-0.49-0.57-0.49c-0.8-0.65-1.73-1.43-2.66-2.26
		c-0.03-0.03-0.42-0.38-0.42-0.38c-0.94-0.83-1.85-1.67-2.71-2.5c-0.03-0.03-0.26-0.26-0.26-0.26c-0.9-0.87-1.8-1.77-2.69-2.69
		c-0.05-0.05-0.1-0.1-0.13-0.13c-3.91-4.08-7.62-8.62-11.03-13.48c-6.62-9.44-12.31-20.4-16.91-32.59
		c-4.04-10.67-3.3-22.61,2.01-32.75c5.31-10.16,14.74-17.59,25.88-20.37l24.49-6.13c-0.48-3.65,0.39-7.36,2.48-10.42
		c2.41-3.52,6.23-5.84,10.46-6.37c40.98-5.14,80.74-15.08,118.18-29.54c1.74-0.67,3.55-1.01,5.39-1.01
		c6.75,0,12.61,4.49,14.39,10.96l22.85-5.72c3.19-0.8,6.46-1.2,9.75-1.2c7.19,0,14.25,1.92,20.43,5.56c0.09,0.05,0.18,0.1,0.27,0.15
		c0.66,0.4,1.31,0.81,1.95,1.24c0.02,0.01,0.07,0.05,0.08,0.06c5.21,3.55,9.56,8.37,12.59,13.92c0.68,1.24,1.3,2.53,1.83,3.82
		c1.35,3.26,2.27,6.69,2.73,10.18c1.5,11.43,1.79,22.46,0.86,32.76c-1.2,13.39-4.48,25.83-9.74,36.98
		c-6.01,12.72-14.8,24.17-26.13,34.02c-1,0.88-2.05,1.74-3.1,2.61c-3.7,3-7.63,5.84-11.72,8.48c-1.74,4.97-3.99,9.78-6.72,14.34
		c-4.92,8.2-11.19,15.31-18.68,21.18c0,0.18,0,0.37,0,0.56c-0.03,3.82-0.75,7.64-2.11,11.22l23.34,38.32c0,0,4.15-1.04,4.18-1.05
		c0.58-0.14,1.14-0.24,1.71-0.31c0.04-0.01,0.13-0.02,0.13-0.02c0.62-0.07,1.25-0.11,1.87-0.11c1.12,0,2.24,0.12,3.35,0.36
		c0.06,0.01,0.39,0.09,0.49,0.12c0.23,0.06,0.46,0.12,0.68,0.2c0.17,0.04,0.45,0.13,0.79,0.25c0.14,0.05,0.28,0.11,0.42,0.16
		c0.07,0.03,0.58,0.23,0.58,0.23c0.14,0.06,0.28,0.12,0.42,0.19c0.18,0.09,0.36,0.18,0.55,0.28c0.17,0.09,0.33,0.17,0.5,0.27
		c0.24,0.13,0.48,0.28,0.72,0.44c0.12,0.07,0.23,0.15,0.34,0.22c0.16,0.1,0.37,0.25,0.52,0.37l0.28,0.21
		c0.15,0.12,0.33,0.26,0.52,0.41c0.06,0.05,0.45,0.39,0.45,0.39c0.1,0.09,0.2,0.18,0.29,0.28c0.21,0.21,0.39,0.39,0.56,0.58
		c0.01,0.01,0.19,0.21,0.26,0.28c0.19,0.21,0.38,0.43,0.56,0.66c0.06,0.07,0.11,0.14,0.16,0.21c0.1,0.12,0.19,0.24,0.28,0.37
		c0.1,0.14,0.2,0.29,0.3,0.43c0.11,0.15,0.21,0.31,0.31,0.47c0.04,0.07,0.08,0.14,0.13,0.2c0.14,0.22,0.27,0.45,0.39,0.68
		c0.06,0.1,0.27,0.52,0.32,0.62c0.06,0.12,0.11,0.23,0.16,0.35c0.1,0.23,0.19,0.45,0.27,0.67c0.05,0.11,0.09,0.23,0.14,0.36
		c0.23,0.6,0.39,1.2,0.49,1.59l4.27,17.06c1.15,0.28,2.28,0.58,3.37,0.9c0.01,0,0.16,0.05,0.22,0.07c1.2,0.35,2.39,0.74,3.58,1.15
		c11.24-27.79,31.14-55.91,59.23-83.69c0.5-0.5,1.05-0.97,1.63-1.46c1.31-1.12,2.95-2.52,4.04-4.18c1.21-1.84,1.42-3.53,0.71-5.64
		c-0.01-0.04-0.02-0.08-0.04-0.11c-0.21-0.66-0.55-1.41-1.01-2.24c-1.85-3.28-3.28-6.98-4.24-11c-1.06-4.45-1.55-9.18-1.46-14.06
		c0.25-16.23,7.13-36.88,21.59-46.61c0.17-12.47-0.05-24.99-0.67-37.33c-2.19-1.16-3.46-3.03-4.25-4.48
		c-1.7-0.05-4.31-0.37-6.56-2.3c-2.21-1.91-2.93-4.32-3.27-6.15c-1.72-0.63-4.04-1.76-5.54-4.23c-1.5-2.45-1.43-5.03-1.2-6.84
		c-1.44-1.13-3.29-2.92-3.96-5.75c-0.67-2.82,0.19-5.25,0.97-6.91c-1.01-1.51-2.23-3.78-1.99-6.66c0.23-2.89,1.81-4.94,3.06-6.27
		c-0.49-1.75-0.94-4.28,0.17-6.94c1.12-2.67,3.24-4.13,4.84-5c0.06-1.82,0.42-4.38,2.31-6.58c1.9-2.2,4.31-2.91,6.13-3.25
		c0.62-1.71,1.75-4.03,4.21-5.54c1.48-0.9,3.15-1.34,5-1.34c0.67,0,1.3,0.06,1.86,0.13c1.12-1.43,2.91-3.28,5.71-3.96
		c0.73-0.17,1.41-0.25,2.1-0.25c1.96,0,3.59,0.61,4.85,1.21c1.39-0.94,3.38-2.02,5.93-2.02c0.24,0,0.48,0.01,0.72,0.03
		c2.89,0.23,4.94,1.8,6.26,3.06c0.96-0.28,2.11-0.53,3.4-0.53c1.25,0,2.44,0.23,3.54,0.7c2.7,1.15,4.12,3.22,5,4.84
		c1.72,0.06,4.32,0.39,6.56,2.3c2.2,1.87,2.94,4.34,3.28,6.14c1.71,0.62,4.03,1.75,5.54,4.21c1.52,2.52,1.45,5.04,1.21,6.87
		c1.43,1.12,3.27,2.91,3.95,5.7c0.66,2.87-0.19,5.31-0.96,6.96c1.01,1.51,2.23,3.78,1.99,6.66c-0.23,2.88-1.8,4.93-3.06,6.26
		c0.5,1.75,0.95,4.29-0.17,6.95c-1.13,2.67-3.24,4.12-4.84,5c-0.06,1.64-0.36,3.88-1.8,5.91c10.95,24.88,23.91,49.52,38.56,73.33
		c1.5,2.44,1.36,5.55-0.34,7.84c-1.34,1.8-3.44,2.82-5.62,2.82c-0.6,0-1.2-0.08-1.79-0.23l-33.7-8.93c1.56,10.94,0,23.51-4.59,34.55
		c-1.88,4.54-4.21,8.68-6.93,12.3c-2.45,3.29-5.24,6.13-8.27,8.42c-0.72,0.54-1.35,1.11-1.82,1.65c-1.59,1.76-2.05,3.35-1.68,5.55
		c0.34,1.95,1.29,3.89,2.05,5.44c0.33,0.67,0.64,1.31,0.9,1.94c3.37,8.13,6.38,16.41,8.98,24.72
		c15.95-12.44,34.69-20.59,53.76-23.26c4.44-0.81,9.13-1.23,13.94-1.23c6.9,0,14.26,0.85,21.88,2.53c0.41,0.05,0.82,0.13,1.21,0.25
		c12.39,2.46,24.29,6.99,35.38,13.45l0.08,0.04c0.26,0.15,0.53,0.3,0.78,0.46c0.37,0.21,0.74,0.44,1.12,0.67
		c0.45-8.72,0.86-17.4,1.22-25.91c-0.15-4.77-0.81-8.51-2.09-11.73c-0.55-1.32-1.22-2.73-2.03-4.28
		c-4.59-6.17-14.15-15.77-22.78-24.32l-0.67-0.66c-2.15-2.12-4.35-4.3-6.58-6.48c-24.12-23.8-42.82-42.98-46.09-55.59
		c-6.2-23.87-0.96-75.17,2.56-90.88c2.72-12.14,11.12-15.7,19.25-19.13c1.22-0.52,2.45-1.04,3.71-1.6l-8.97-2.93
		c-3.27-1.07-5.92-3.34-7.47-6.41c-0.73-1.45-1.18-2.99-1.33-4.56c-6.65-0.86-14.22-1.29-22.57-1.29
		c-28.61,0-67.71,5.17-113.07,14.96c-34.36,7.43-60.44,14.94-60.7,15.01c-14.88,4.38-30.71,6.98-47.03,7.75
		c-0.1,0.01-0.29,0.02-0.29,0.02c-2,0.09-4.11,0.16-6.66,0.21c-0.04,0-0.09,0-0.13,0c-0.98,0.01-2,0.02-3.03,0.02
		c-1.16,0-2.33-0.01-3.49-0.03h-0.13c-2.18-0.03-4.37-0.1-6.6-0.2c-0.22,0-0.44-0.02-0.65-0.03c-2.28-0.11-4.3-0.24-6.15-0.38
		c-0.17-0.01-0.34-0.02-0.52-0.04c-2.26-0.17-4.39-0.37-6.46-0.6l-0.81-0.09c-1.97-0.22-4.03-0.46-6.13-0.75l-0.44-0.06
		c-2.03-0.28-4.12-0.6-6.41-0.99c-0.16-0.02-1.07-0.18-1.07-0.18c-2.26-0.38-4.2-0.74-5.99-1.1c-0.22-0.04-0.39-0.07-0.55-0.1
		c-2.04-0.41-4.16-0.87-6.29-1.36l-0.07-0.01c-0.46-0.1-0.92-0.21-1.38-0.32c-1.9-0.44-3.88-0.93-5.8-1.43
		c-0.16-0.04-0.32-0.08-0.47-0.12c-1.89-0.49-3.88-1.05-6.26-1.74c-0.48-0.14-1.01-0.29-1.52-0.45c-2.05-0.6-4.15-1.25-6.24-1.93
		c-1.68-0.55-3.34-1.12-4.98-1.7c-0.24-0.08-1.43-0.51-1.43-0.51c-1.21-0.44-2.34-0.84-3.47-1.26l-2.03-0.78
		c-0.96-0.37-1.93-0.74-2.88-1.13c-0.57-0.22-1.12-0.44-1.67-0.67c-1.1-0.44-2.19-0.89-3.27-1.36c-0.48-0.2-1-0.42-1.53-0.66
		c-1.12-0.49-2.31-1.01-3.49-1.54c0,0-1.08-0.47-1.11-0.49c-1.39-0.65-2.78-1.29-4.15-1.96c0,0-0.36-0.16-0.39-0.18
		c-39.23-18.97-71.38-47.95-90.51-81.6c-19.64-34.55-24.41-72.08-13.43-105.68c18.59-56.86,78.62-93.6,152.94-93.6
		c10.24,0,20.71,0.73,31.12,2.16c3.51,0.49,6.99,1.05,10.36,1.67c0.18,0.03,0.37,0.07,0.55,0.1c1.48,0.27,2.97,0.56,4.45,0.86
		c0.06,0.01,1.24,0.27,1.24,0.27c1.07,0.22,2.15,0.46,3.23,0.7c0,0,0.56,0.12,0.6,0.13c0.46,0.11,0.93,0.22,1.38,0.32
		c1.24,0.29,2.39,0.57,3.54,0.86l1.65,0.42c0.97,0.25,1.87,0.49,2.77,0.74l2.36,0.65c1.14,0.31,2.32,0.66,3.51,1.02l1.48,0.43
		c1.64,0.5,3.25,1.01,4.86,1.53c0.13,0.04,0.25,0.08,0.37,0.12c1.76,0.57,3.62,1.21,6.01,2.06c0,0,1.16,0.42,1.54,0.56
		c1.6,0.58,3.78,1.38,5.95,2.24c0.1,0.04,0.2,0.08,0.29,0.12l0,0c0.03,0.01,0.07,0.03,0.1,0.04c1.94,0.77,3.86,1.56,5.72,2.35
		c0.47,0.21,0.85,0.37,1.23,0.53c2.04,0.88,4.01,1.76,5.94,2.66c0.06,0.03,0.43,0.2,0.43,0.2c1.7,0.79,3.49,1.66,5.47,2.64
		c0.05,0.03,0.1,0.05,0.16,0.08c0.27,0.14,0.54,0.27,0.82,0.41c0.03,0.01,0.07,0.03,0.1,0.05c1.76,0.88,3.62,1.86,5.71,2.97
		l0.33,0.18c1.82,0.98,3.63,1.99,5.46,3.05c0.16,0.09,0.4,0.23,0.63,0.37l0.15,0.09c1.9,1.1,3.79,2.23,5.56,3.32
		c0.05,0.03,0.3,0.19,0.37,0.23c1.63,1.02,3.35,2.12,5.25,3.37c0.02,0.01,0.35,0.22,0.47,0.31c1.96,1.31,3.7,2.5,5.33,3.65
		c0.07,0.04,0.23,0.16,0.24,0.17c1.76,1.26,3.54,2.56,5.29,3.88c0.05,0.04,0.1,0.08,0.15,0.11c1.83,1.39,3.53,2.71,5.18,4.03
		c0.04,0.03,0.08,0.06,0.12,0.1c3.38,2.72,6.66,5.54,9.77,8.38c0.08,0.06,0.15,0.13,0.23,0.2c3.17,2.9,6.32,5.96,9.35,9.11
		c5.03,5.23,9.8,10.76,14.16,16.46c0.83,1.07,82.87,106.82,141.48,139.09c2.38-2.68,5.83-4.3,9.59-4.3c1.35,0,2.69,0.21,3.99,0.64
		l12.68,4.15c1.33,0.43,2.54,1.06,3.62,1.85c5.44-11.92,15.92-18.93,28.62-18.93c10.99,0,21.47,5.46,27.9,14.4
		c4.92-3.13,10.65-4.79,16.68-4.79c10.75,0,21.01,5.32,27.33,14.02c5.16-3.41,11.24-5.23,17.63-5.23c11.66,0,22.45,6.17,28.17,16.11
		c0.29,0.51,0.65,1.39,1.03,2.48c4.94-3.74,10.95-5.75,17.26-5.75c10.62,0,20.71,5.65,26.33,14.75c1.9,3.08,3.11,7.32,3.69,12.92
		c0.56,1.18,1.15,2.57,1.78,4.19c1.88,3.61,3.6,9.04,5.27,16.56c0.95,3.48,1.82,6.94,2.55,10.1c0.98-0.22,2-0.33,3.02-0.33
		c1.46,0,2.91,0.23,4.3,0.68l7.8,2.56c3.53,1.16,6.41,3.62,8.09,6.94c1.68,3.32,1.97,7.09,0.81,10.63l-9.36,28.66
		c-1.54,4.7-5.37,8.13-10.02,9.23c0,0.03,0,0.06,0,0.09c0.11,10.21-0.32,18.48-1.3,24.61c-0.01,0.16-0.08,1.06-0.08,1.06
		c-0.05,0.7-0.2,1.39-0.44,2.04c-1.95,12.17-4.79,24.37-7.53,36.19c-6.08,26.18-11.83,50.91-9.22,76.34
		c0.01,0.08,0.01,0.15,0.02,0.23c0.12,1.13,0.25,2.25,0.41,3.39c0.88,6.61,1.62,13.53,2.2,20.57c0,0,0.37,4.51,0.52,6.34
		c0.35,0.29,0.78,0.64,1.3,1.13c0.16,0.14,0.34,0.32,0.53,0.51l113.42-309.59c5.83-15.85,19.8-26.5,34.78-26.5
		c2.38,0,4.75,0.28,7.03,0.83c0,0,0.17,0.04,0.25,0.07c0.38,0.09,0.7,0.18,1.02,0.27c0.05,0.02,0.58,0.18,0.58,0.18
		c0.28,0.08,0.57,0.17,0.85,0.27c0.6,0.21,1.1,0.39,1.61,0.6l6.15,2.52c7.83,3.2,14.01,9.56,17.38,17.9
		c4.03,9.98,3.68,21.77-0.97,32.36L982.51,603.27c0.18,0.24,0.42,0.55,0.69,0.94c0.89,1.26,1.73,2.74,2.47,4.34
		c0,0.01,0.04,0.09,0.04,0.1c0.14,0.3,0.28,0.62,0.42,0.96c1.43,3.4,2.32,7.14,2.64,11.11c2.36-0.45,4.42-0.59,6.08-0.59
		c2.34,0,3.98,0.26,4.75,0.42c1.91,0.39,3.56,1.56,4.57,3.22c1.13,1.86,3.65,6.81,4.01,14.4c1.45-0.18,2.89-0.27,4.33-0.27
		c4.31,0,7.35,0.85,8.46,1.21c1.86,0.61,3.38,1.97,4.19,3.76c1.52,3.34,8.12,21.15-10.8,43.6c-2.12,2.51-4.57,5.03-7.28,7.5
		c-0.65,0.59-1.31,1.19-2,1.79c-4.8,4.17-10.59,8.42-17.18,12.63c-0.71,0.46-1.46,0.93-2.21,1.39c-1.44,0.9-2.9,1.78-4.33,2.63
		l-2.08,1.21c-2.99,1.71-5.71,3.2-8.18,4.5c-0.61,0.32-1.24,0.66-1.87,0.98c-4.3,2.23-7.95,3.97-10.56,5.17l-1.28,1.44
		c-4.52,5.07-9.04,10.13-13.55,15.2l3.51,43.34c0.16,1.98-0.53,3.93-1.89,5.37c-1.32,1.4-3.17,2.2-5.09,2.2
		c-0.05,0-34.15-0.78-34.15-0.78c-1.39,0.97-2.85,1.84-4.36,2.59c-0.45,0.23-0.93,0.45-1.43,0.67c-0.73,0.32-1.47,0.61-2.22,0.87
		l-1.47,3.34l-5.47,12.48c3.29,4.89,2.55,8.92,1.65,11.14C891.79,824.81,888.59,829.33,879.46,829.33z"/><polygon fill="#ffc83f" points="499.67 639.93 413.02 661.62 418.41 566.72 450.21 558.76"/><polygon fill="#e8dacc" points="450.21 558.76 441.95 560.83 490.92 641.19 413.08 660.67 413.02 661.62 499.67 639.93"/><path fill="#ffc83f" d="M491.51,609.34l-86.2,21.57c-4.66,1.17-7.48,5.88-6.32,10.54l8.92,35.66c1.17,4.66,5.88,7.48,10.54,6.32
				l86.2-21.57c4.66-1.17,7.48-5.88,6.32-10.54l-8.92-35.65C500.88,611.01,496.16,608.18,491.51,609.34z"/><path fill="#e8dacc" d="M492.51,609.16l8.88,35.49c1.16,4.65-1.66,9.37-6.32,10.53l-86.21,21.58c-0.33,0.08-0.67,0.14-1,0.18
				l0.04,0.17c1.16,4.65,5.88,7.48,10.53,6.32l86.21-21.58c4.65-1.16,7.48-5.88,6.32-10.53l-8.93-35.67
				C500.96,611.34,496.82,608.6,492.51,609.16z"/><path fill="#ffc83f" d="M516.98,673.81l-104.23,26.09c-4.99,1.25-10.06-1.79-11.31-6.78l0,0c-1.25-4.99,1.79-10.06,6.78-11.31
				l104.23-26.09c4.99-1.25,10.06,1.79,11.31,6.78l0,0C525.01,667.49,521.98,672.56,516.98,673.81z"/><path fill="#ffc83f" d="M438.21,578.45L438.21,578.45c-13.64,3.41-27.46-4.87-30.87-18.51l0,0l49.38-12.36l0,0
						C460.13,561.21,451.84,575.03,438.21,578.45z"/><path fill="#e8dacc" d="M450.15,549.22c1.14,12.29-6.82,23.92-19.17,27.01l0,0c-3.36,0.84-6.73,0.97-9.96,0.48
					c5.16,2.48,11.19,3.24,17.18,1.74l0,0c13.64-3.41,21.93-17.24,18.51-30.87l0,0L450.15,549.22z"/><path fill="#ffc83f" d="M484.17,513.3l-9.9-15.97c32.66-20.25,45.33-49.13,39.89-90.89c-0.53-4.09-2.72-7.64-6.14-9.97
						c-3.46-2.35-7.59-3.09-11.65-2.08l-38.18,9.56l-4.56-18.23l38.18-9.56c9.19-2.3,18.96-0.56,26.79,4.78
						c7.8,5.32,12.98,13.72,14.19,23.07c3.28,25.14,0.5,47.3-8.27,65.85C516.35,487.15,502.77,501.77,484.17,513.3z"/><path fill="#e8dacc" d="M504.31,394.66c-0.9-1.14-1.98-2.15-3.23-3c-3.46-2.35-7.59-3.09-11.65-2.08l-32.8,8.21l1.54,6.17
						l38.18-9.56C499.05,393.73,501.77,393.83,504.31,394.66z"/><path fill="#e8dacc" d="M518.59,380.95c-1.09-0.74-2.21-1.4-3.36-2c5.8,5.25,9.61,12.41,10.63,20.25
						c3.28,25.14,0.49,47.3-8.27,65.85c-7.75,16.4-20.37,30.39-37.53,41.63l4.11,6.63c18.61-11.54,32.18-26.15,40.35-43.44
						c8.76-18.55,11.55-40.71,8.27-65.85C531.57,394.67,526.39,386.27,518.59,380.95z"/><path fill="#ffc83f" d="M366.12,541.73c-21.85-1.41-41.93-7.88-57.28-19.28c-16.47-12.24-29.36-30.47-38.31-54.19
						c-3.33-8.82-2.73-18.67,1.65-27.04c4.4-8.4,12.19-14.53,21.38-16.83l38.18-9.56l4.56,18.23l-38.18,9.56
						c-4.06,1.02-7.36,3.61-9.3,7.32c-1.92,3.67-2.18,7.82-0.72,11.69c14.87,39.4,39.65,58.9,78,61.38L366.12,541.73z"/><g><path fill="#e8dacc" d="M329.97,424.88l-38.18,9.56c-4.06,1.02-7.36,3.61-9.3,7.32c-1.92,3.67-2.18,7.82-0.72,11.69
						c5.29,14.01,11.83,25.48,19.79,34.59c-5.17-7.53-9.64-16.31-13.45-26.4c-1.46-3.86-1.2-8.01,0.72-11.69
						c1.94-3.71,5.24-6.3,9.3-7.32l38.18-9.56l-4.56-18.23l-4.04,1.01L329.97,424.88z"/><path fill="#e8dacc" d="M359.28,522.37l-0.72,11.2c-21.85-1.41-40.71-7.91-56.05-19.31c-5.74-4.26-11.03-9.27-15.88-14.97
						c6.46,9.21,13.88,16.96,22.23,23.16c15.35,11.4,35.43,17.87,57.28,19.28l-0.01-18.72
						C363.78,522.86,361.51,522.65,359.28,522.37z"/></g><g><path fill="#ffc83f" d="M460.55,377.14l24.3,97.11c9.83,39.28-14.71,79.42-54.41,87.41c-36.77,7.4-73.23-15.36-82.43-52.12
					l-24.56-98.12c-1.15-4.61,1.99-9.19,6.7-9.78c40.82-5.11,80.8-14.88,119.83-29.95C454.45,369.97,459.4,372.51,460.55,377.14z"/><path fill="#e8dacc" d="M461.61,381.37l1.95,7.77c-2.36,1.7-5.51,3.7-9.68,5.9c-10.61,5.61-27.83,12.58-55.42,19.49
					c-37.5,9.39-59.9,10.42-71.77,9.77l-2.24-8.94c6.51,0.59,30.02,1.57,71.32-8.77c25.4-6.36,43.97-14.04,56-19.97
					C455.77,384.64,459.05,382.85,461.61,381.37z"/><path fill="#e8dacc" d="M461.61,381.37l23.49,93.85c4.74,18.92,1.35,37.98-7.94,53.49c-9.3,15.51-24.52,27.47-43.44,32.21
					c-18.69,4.68-37.52,1.43-52.92-7.61c6.27,2.18,12.89,3.49,19.66,3.83c6.78,0.33,13.72-0.31,20.64-2.05
					c37.86-9.47,60.86-47.84,51.39-85.69l-20.72-82.77C455.77,384.64,459.05,382.85,461.61,381.37z"/></g><path fill="#6d6e71" d="M343.54,447.81c0,0,15.18,82,39.63,92.39c24.46,10.39,35.23,3.27,35.23,3.27s-26.56-4.63-35.78-17.55
				C373.67,513.37,343.54,447.81,343.54,447.81z"/><path fill="#302d70" d="M534.73,663.78l-143.15,35.83c-3.73,0.93-6,4.72-5.07,8.45l13.59,54.31c0.93,3.73,4.72,6,8.45,5.07
			l143.15-35.83c3.73-0.93,6-4.72,5.07-8.45l-13.59-54.31C542.25,665.12,538.46,662.85,534.73,663.78z"/><path fill="#4c4ca8" d="M514.88,687.88l-93.85,23.49c-2.61,0.65-4.19,3.3-3.54,5.91l6.06,24.19c0.65,2.61,3.3,4.19,5.91,3.54
			l93.85-23.49c2.61-0.65,4.19-3.3,3.54-5.91l-6.06-24.19C520.13,688.81,517.49,687.23,514.88,687.88z"/><g><path fill="#e64835" d="M683.63,491.74l-30.34-8.05c-9.79-25.18-20.34-64.14-30.87-102.75l6.97-1.65
				C643.12,417.81,661.2,455.29,683.63,491.74z"/><path fill="#302d70" d="M610.49,383.77c7.88,39.24,15.89,78.79,18.41,105.7l-23.52,20.78c3.73-42.64,3.11-84.25-1.85-124.83
				L610.49,383.77z"/><path fill="#ffc83f" d="M653.29,483.7l-13.74-3.64l-10.66,9.41c-2.52-26.9-10.53-66.46-18.41-105.7l11.94-2.82
				C632.96,419.55,643.5,458.51,653.29,483.7z"/><path fill="#fff" d="M639.55,480.06l13.74,3.64c-9.79-25.19-20.34-64.15-30.87-102.76l-11.94,2.82
				c7.87,39.24,15.89,78.8,18.41,105.7L639.55,480.06z"/><path fill="#ffb24d" d="M625.96,422.55c-1.82,0.43-4.05-1.95-5.86-1.81c-1.85,0.14-3.71,2.82-5.52,2.67
			c-1.85-0.15-3.23-3.11-5.01-3.54c-1.79-0.44-4.39,1.53-6.08,0.82c-1.7-0.71-2.11-3.95-3.67-4.91c-1.56-0.97-4.64,0.12-6.04-1.08
			c-1.39-1.19-0.79-4.4-1.98-5.8c-1.18-1.39-4.45-1.31-5.41-2.89c-0.95-1.56,0.62-4.41-0.08-6.13c-0.69-1.68-3.81-2.61-4.24-4.43
			c-0.43-1.82,1.95-4.05,1.81-5.86c-0.14-1.85-2.82-3.71-2.67-5.52c0.15-1.85,3.11-3.23,3.54-5.01c0.44-1.79-1.53-4.39-0.82-6.08
			c0.71-1.7,3.95-2.11,4.91-3.67c0.97-1.56-0.12-4.64,1.08-6.04c1.19-1.39,4.4-0.79,5.8-1.98c1.39-1.18,1.31-4.45,2.89-5.41
			c1.56-0.95,4.41,0.62,6.13-0.08c1.68-0.69,2.61-3.81,4.43-4.24s4.05,1.95,5.86,1.81c1.85-0.14,3.71-2.82,5.52-2.67
			c1.85,0.15,3.23,3.11,5.01,3.54c1.79,0.44,4.39-1.53,6.08-0.82c1.7,0.71,2.11,3.95,3.67,4.91c1.56,0.97,4.64-0.12,6.04,1.08
			c1.39,1.19,0.79,4.4,1.98,5.8c1.18,1.39,4.45,1.31,5.41,2.89c0.95,1.56-0.62,4.41,0.08,6.13c0.69,1.68,3.81,2.61,4.24,4.43
			c0.43,1.82-1.95,4.05-1.81,5.86c0.14,1.85,2.82,3.71,2.67,5.52c-0.15,1.85-3.11,3.23-3.54,5.01c-0.44,1.79,1.53,4.39,0.82,6.08
			c-0.71,1.7-3.95,2.11-4.91,3.67c-0.97,1.56,0.12,4.64-1.08,6.04c-1.19,1.39-4.4,0.79-5.8,1.98c-1.39,1.18-1.31,4.45-2.89,5.41
			c-1.56,0.95-4.41-0.62-6.13,0.08C628.71,418.99,627.78,422.12,625.96,422.55z"/><circle cx="617.56" cy="387.05" r="29.58" fill="#e6d2c3"/><circle cx="617.56" cy="387.05" r="27.14" fill="#fff"/><path fill="#ffb24d" d="M623.78,394.05l-5.33-22.52l-2.82,0.67c-1.47,1.56-3.26,3.06-5.38,4.5c-2.12,1.43-4.11,2.43-5.96,2.99
			l1.15,4.88l6.86-1.62l3.1,13.09l-6.86,1.62l1.53,6.48l21.85-5.17l-1.53-6.48L623.78,394.05z"/></g><g><path fill="#ffc83f" d="M1108.69,299.3L931.82,701.89l-2.4,5.44l-12.85,29.23l-5.58,12.72l-4.29,9.79l-5.58,12.72l-4.85,11.03
			l-5.61,12.73l-8.34,19l-23.32-8.94l7.34-20.01l4.78-13.07l4.15-11.32l4.77-13.05l3.68-10.04l4.79-13.05l9.99-27.31l2.78-7.58
			L1053,276.04c6.14-16.73,22.91-25.93,36.89-20.22l6.14,2.52C1110.25,264.15,1115.99,282.7,1108.69,299.3z"/><path fill="#e6d2c3" d="M1096.04,258.34l-6.14-2.52c-2.88-1.18-5.87-1.69-8.87-1.66c8.68,8.07,11.5,22.53,5.94,35.92l-163.45,408.1
			l-7.26,3.58l-12.23,29.49l-5.32,12.84l-4.09,9.87l-5.32,12.84l-4.62,11.13l-5.34,12.85l-7.95,19.17l-12.36-4.45l-0.04,0.11
			l23.32,8.94l8.34-19l5.61-12.73l4.85-11.03l5.58-12.72l4.29-9.79l5.58-12.72l12.85-29.23l2.4-5.44l176.87-402.59
			C1115.99,282.7,1110.25,264.15,1096.04,258.34z"/><polygon fill="#8a5451" points="931.82 701.89 929.42 707.33 916.57 736.55 910.99 749.28 906.7 759.06 901.11 771.79 896.26 782.81 890.66 795.55 882.31 814.55 858.99 805.61 866.33 785.6 871.11 772.53 875.26 761.21 880.03 748.16 883.72 738.11 888.51 725.07 898.5 697.76 901.28 690.18"/><ellipse cx="869.82" cy="812.4" fill="#ffc83f" rx="7.48" ry="18.3" transform="rotate(-67.754 869.793 812.376)"/><path fill="#939598" d="M979.75,531.37l-11.46-4.39c-0.72-0.28-1.08-1.08-0.8-1.8l91.06-237.56c0.28-0.72,1.08-1.08,1.8-0.8
			l11.46,4.39c0.72,0.28,1.08,1.08,0.8,1.8l-91.06,237.56C981.27,531.29,980.47,531.65,979.75,531.37z"/></g><g><path fill="#ffc69e" d="M737.43,490.65c10.46,15.42,26.07,29.1,33.14,46.13c4.26,10.75,2.04,22.71,2.2,33.92
			c-0.4,15.7-1.59,31.3-2.81,47.01c-4.15,54.29-9.22,108.55-14.67,162.71l185.42,4.25c-5.64-69.52-11.28-139.32-17.01-208.87
			c-0.56-6.76-1.26-13.5-2.16-20.22c-5.46-40.57,10.4-79.85,16.56-119.43c5.04-25.94-3.06-102.6-12.17-109.99
			c-11.06-14.67-44.46-10.25-44.46-10.25c-27.38-12-59.04-27.38-88.94-28.16l-0.01,0.02c-46.86-3.32-64.39,18.05-70.98,58.89
			c0.02,0,0,0,0.03,0c-1.65,8.66-3.13,17.77-4.64,26.84l0.01,0.01c-0.1,0.55-0.2,1.1-0.27,1.66l-0.01,0.01
			C706.35,423.88,705.53,454.98,737.43,490.65z"/><path fill="#f5d6c4" d="M723.05,338.86c4.92-23.77,21.31-61.29,32.32-65.93c29.38-12.38,48.55,56.44,91.91,72.27
			c16.92,6.18,68.83-35.81,77.26-23.4c4.37,6.44,11.06,31.93,12.37,41.22c3.78,26.86,3.17,50.07,1.32,73.01
			c-3.25,2.63-22.43-2.8-23.44-1.19c-6.06,9.63-14.12,11.19-22.92,11.28c-23.91,0.24-17.87-20.87-36.72-16.42
			c-25.84,6.11-23.07-19.34-48.25-11.91c-17.96,5.3-31.06-19.45-49.93-14.59c20.04,9.38,38.89,32.57,43.7,58.05
			c2.03,10.71,2.39,34.72,2.39,34.72s-6.81-15.82-11.7-33.96c-13.26-49.17-57.05-62.9-57.05-62.9c0.95-0.14,1.9-0.22,2.87-0.27
			c-5.9-4.06-9.67-9.06-9.67-9.06c-4.24-2.02-8.41-4.11-12.21-6.49C717.69,368.62,720.57,350.86,723.05,338.86z"/><path fill="#302d70" d="M239.08,150c-24.18,73.98,33.95,159.35,129.83,190.69s193.21-3.23,217.39-77.21
				c24.18-73.98-33.95-159.35-129.83-190.69S263.26,76.02,239.08,150z M575.62,259.99C553.4,327.95,462.25,359.36,372.41,330
				c-89.83-29.36-144.85-108.54-122.64-176.51s113.37-99.37,203.21-70.01S597.83,192.02,575.62,259.99z"/><path fill="#ffb24d" d="M372.41,330c-13.72-4.48-26.62-10.13-38.57-16.73l-3.55,10.88c12.02,6.49,24.94,12.07,38.63,16.54
					c36.53,11.94,73.26,14.3,106.09,8.57l3.98-12.19C446.49,343.86,409.34,342.07,372.41,330z"/><path fill="#ffb24d" d="M452.98,83.48c36.93,12.07,67.97,32.56,90.18,57.23l3.98-12.19c-23.11-24.01-54.15-43.79-90.67-55.73
					c-13.69-4.47-27.41-7.6-40.94-9.46l-3.55,10.88C425.51,75.94,439.26,78.99,452.98,83.48z"/><path fill="#302d70" d="M495.39,344.52c0,0,154.21-44.61,215.56-25.49l4.38-13.39l4.38-13.39c-60.8-20.8-158.9-147.87-158.9-147.87
				C603.81,238.05,584.8,305.97,495.39,344.52z M664.26,283.93c3.7,2.94,1.75,8.89-2.97,9.08c-19.71,0.8-42.48,3.41-68.21,7.84
				c-4.24,0.73-7.44-3.8-5.31-7.54c9.4-16.5,15.18-34.18,17.34-53.04c0.49-4.28,5.74-6.04,8.73-2.95
				C632,256.09,648.83,271.65,664.26,283.93z"/><path fill="#302d70" d="M708.33,287.13l-9.58,29.32c76.25,36.42,154.8,62.4,235.85,77.08l9.58-29.32
				C870.1,328.2,791.37,302.78,708.33,287.13z"/><path fill="#ffb24d" d="M954.9,361.93l-7.79-2.54c-3.64-1.19-7.55,0.8-8.74,4.43l-9.37,28.67c-1.19,3.64,0.8,7.55,4.43,8.74
				l7.79,2.54c3.64,1.19,7.55-0.8,8.74-4.43l9.37-28.67C960.52,367.03,958.54,363.12,954.9,361.93z"/><path fill="#b6b5eb" d="M495.73,102.57c-0.49-0.29-1-0.57-1.5-0.85l-3.11,9.52l-20.12-6.58l4.13-12.63
					c-0.52-0.23-1.03-0.47-1.55-0.69l-4.19,12.81l-20.12-6.58l4.51-13.81c-0.27-0.09-0.53-0.18-0.8-0.27
					c-0.27-0.09-0.54-0.17-0.8-0.25l-4.51,13.81l-20.12-6.58l4.19-12.81c-0.55-0.12-1.11-0.24-1.66-0.35l-4.13,12.63l-20.12-6.58
					l3.11-9.52c-0.57-0.07-1.14-0.14-1.71-0.2l-3.01,9.2l-20.12-6.58l1.23-3.78c-0.59,0-1.19,0-1.78,0.01l-1.06,3.25l-8.91-2.91
					c-1.49,0.09-2.98,0.2-4.46,0.32l12.85,4.2l-6.58,20.12l-20.12-6.58l5.52-16.88c-0.62,0.08-1.24,0.15-1.85,0.23l-5.27,16.12
					l-20.12-6.58l1.5-4.6c-0.65,0.18-1.31,0.36-1.96,0.55l-1.15,3.52l-4.9-1.6c-0.88,0.3-1.76,0.6-2.63,0.91l7.01,2.29l-6.58,20.12
					l-20.12-6.58l2.83-8.65c-0.71,0.36-1.43,0.72-2.13,1.09l-2.3,7.04l-6.38-2.09c-0.62,0.39-1.24,0.78-1.85,1.17l7.71,2.52
					l-6.58,20.12l-20.12-6.58l0.48-1.47c-0.89,0.86-1.77,1.73-2.63,2.62l-6.55,20.05l-7.29-2.38c-0.31,0.49-0.6,0.98-0.9,1.48
					l7.67,2.51l-6.58,20.12l-10.01-3.27c-0.09,0.27-0.19,0.53-0.28,0.8c-0.09,0.27-0.16,0.54-0.25,0.81l10.01,3.27l-6.58,20.12
					l-7.67-2.51c-0.05,0.58-0.1,1.15-0.15,1.73l7.29,2.38l-6.55,20.05c0.17,1.22,0.36,2.45,0.58,3.67l0.48-1.47l20.12,6.58
					l-6.58,20.12l-7.71-2.52c0.26,0.68,0.53,1.36,0.8,2.04l6.38,2.09l-2.3,7.04c0.35,0.72,0.71,1.43,1.08,2.14l2.83-8.65l20.12,6.58
					l-6.58,20.12l-7.01-2.29c0.52,0.77,1.05,1.53,1.58,2.29l4.9,1.6l-1.15,3.52c0.41,0.54,0.83,1.07,1.25,1.6l1.5-4.6l20.12,6.58
					l-5.27,16.12c0.45,0.43,0.9,0.85,1.36,1.28l5.52-16.88l20.12,6.58l-6.58,20.12l-12.85-4.2c1.12,0.97,2.26,1.94,3.41,2.89
					l8.91,2.91l-1.06,3.25c0.47,0.35,0.95,0.71,1.43,1.06l1.23-3.78l20.12,6.58l-3.01,9.2c0.5,0.29,1,0.57,1.5,0.85l3.11-9.52
					l20.12,6.58l-4.13,12.63c0.52,0.23,1.03,0.47,1.55,0.69l4.19-12.81l20.12,6.58l-4.51,13.81c0.27,0.09,0.53,0.18,0.8,0.27
					c0.27,0.09,0.54,0.17,0.8,0.25l4.51-13.81l20.12,6.58l-4.19,12.81c0.55,0.12,1.11,0.24,1.66,0.35l4.13-12.63l20.12,6.58
					l-3.11,9.52c0.57,0.06,1.14,0.13,1.71,0.19l3.01-9.19l20.12,6.58l-1.23,3.78c0.59,0,1.19,0,1.78-0.01l1.06-3.25l8.91,2.91
					c1.49-0.09,2.98-0.2,4.46-0.32l-12.85-4.2l6.58-20.12l20.12,6.58l-5.52,16.88c0.62-0.08,1.24-0.15,1.85-0.23l5.27-16.12
					l20.12,6.58l-1.5,4.6c0.65-0.18,1.31-0.36,1.96-0.55l1.15-3.52l4.9,1.6c0.88-0.3,1.76-0.6,2.63-0.91l-7.01-2.29l6.58-20.12
					l20.12,6.58l-2.83,8.65c0.71-0.36,1.43-0.72,2.13-1.09l2.3-7.04l6.38,2.09c0.62-0.39,1.24-0.78,1.85-1.17l-7.71-2.52l6.58-20.12
					l20.12,6.58l-0.48,1.46c0.89-0.86,1.77-1.73,2.63-2.62l6.55-20.05l7.29,2.38c0.31-0.49,0.61-0.98,0.9-1.48l-7.66-2.51
					l6.58-20.12l10.01,3.27c0.09-0.27,0.19-0.53,0.28-0.8c0.09-0.27,0.16-0.54,0.25-0.81l-10.01-3.27l6.58-20.12l7.66,2.5
					c0.05-0.58,0.1-1.15,0.15-1.73l-7.29-2.38l6.55-20.05c-0.17-1.22-0.37-2.45-0.58-3.67l-0.48,1.46l-20.12-6.58l6.58-20.12
					l7.71,2.52c-0.26-0.68-0.53-1.36-0.8-2.04l-6.38-2.09l2.3-7.03c-0.35-0.71-0.71-1.43-1.08-2.14l-2.83,8.65l-20.12-6.58
					l6.58-20.12l7.01,2.29c-0.52-0.77-1.05-1.53-1.58-2.29l-4.9-1.6l1.15-3.52c-0.41-0.54-0.83-1.07-1.25-1.6l-1.5,4.6l-20.12-6.58
					l5.27-16.12c-0.45-0.43-0.9-0.85-1.36-1.28l-5.52,16.88l-20.12-6.58l6.58-20.12l12.85,4.2c-1.12-0.97-2.26-1.94-3.41-2.89
					l-8.91-2.91l1.06-3.25c-0.47-0.35-0.95-0.71-1.43-1.06l-1.23,3.78l-20.12-6.58L495.73,102.57z M448.41,315.49l-6.58,20.12
					l-20.12-6.58l6.58-20.12L448.41,315.49z M426.68,308.39l-6.58,20.12l-20.12-6.58l6.58-20.12L426.68,308.39z M404.96,301.29
					l-6.58,20.12l-20.12-6.58l6.58-20.12L404.96,301.29z M383.23,294.19l-6.58,20.12l-20.12-6.58l6.58-20.12L383.23,294.19z
					 M361.5,287.09l-6.58,20.12l-20.12-6.58l6.58-20.12L361.5,287.09z M339.77,279.99l-6.58,20.12l-20.12-6.58l6.58-20.12
					L339.77,279.99z M498.97,307.97l-6.58,20.12l-20.12-6.58l6.58-20.12L498.97,307.97z M477.24,300.87l-6.58,20.12l-20.12-6.58
					l6.58-20.12L477.24,300.87z M455.51,293.76l-6.58,20.12l-20.12-6.58l6.58-20.12L455.51,293.76z M433.78,286.66l-6.58,20.12
					l-20.12-6.58l6.58-20.12L433.78,286.66z M412.06,279.56l-6.58,20.12l-20.12-6.58l6.58-20.12L412.06,279.56z M390.33,272.46
					l-6.58,20.12l-20.12-6.58l6.58-20.12L390.33,272.46z M368.6,265.36l-6.58,20.12l-20.12-6.58l6.58-20.12L368.6,265.36z
					 M346.87,258.26l-6.58,20.12l-20.12-6.58l6.58-20.12L346.87,258.26z M325.15,251.16l-6.58,20.12l-20.12-6.58l6.58-20.12
					L325.15,251.16z M303.42,244.06l-6.58,20.12l-20.12-6.58l6.58-20.12L303.42,244.06z M527.8,293.34l-6.58,20.12l-20.12-6.58
					l6.58-20.12L527.8,293.34z M506.07,286.24l-6.58,20.12l-20.12-6.58l6.58-20.12L506.07,286.24z M484.34,279.14l-6.58,20.12
					l-20.12-6.58l6.58-20.12L484.34,279.14z M462.61,272.04l-6.58,20.12l-20.12-6.58l6.58-20.12L462.61,272.04z M440.89,264.94
					l-6.58,20.12l-20.12-6.58l6.58-20.12L440.89,264.94z M419.16,257.83l-6.58,20.12l-20.12-6.58l6.58-20.12L419.16,257.83z
					 M397.43,250.73l-6.58,20.12l-20.12-6.58l6.58-20.12L397.43,250.73z M375.7,243.63l-6.58,20.12L349,257.18l6.58-20.12
					L375.7,243.63z M353.97,236.53l-6.58,20.12l-20.12-6.58l6.58-20.12L353.97,236.53z M332.25,229.43l-6.58,20.12l-20.12-6.58
					l6.58-20.12L332.25,229.43z M310.52,222.33l-6.58,20.12l-20.12-6.58l6.58-20.12L310.52,222.33z M288.79,215.23l-6.58,20.12
					l-20.12-6.58l6.58-20.12L288.79,215.23z M556.63,278.71l-6.58,20.12l-20.12-6.58l6.58-20.12L556.63,278.71z M534.9,271.61
					l-6.58,20.12l-20.12-6.58l6.58-20.12L534.9,271.61z M513.17,264.51l-6.58,20.12l-20.12-6.58l6.58-20.12L513.17,264.51z
					 M491.44,257.41l-6.58,20.12l-20.12-6.58l6.58-20.12L491.44,257.41z M469.71,250.31l-6.58,20.12l-20.12-6.58l6.58-20.12
					L469.71,250.31z M447.99,243.21l-6.58,20.12l-20.12-6.58l6.58-20.12L447.99,243.21z M426.26,236.11l-6.58,20.12l-20.12-6.58
					l6.58-20.12L426.26,236.11z M404.53,229l-6.58,20.12l-20.12-6.58l6.58-20.12L404.53,229z M382.8,221.9l-6.58,20.12l-20.12-6.58
					l6.58-20.12L382.8,221.9z M361.08,214.8l-6.58,20.12l-20.12-6.58l6.58-20.12L361.08,214.8z M339.35,207.7l-6.58,20.12
					l-20.12-6.58l6.58-20.12L339.35,207.7z M317.62,200.6l-6.58,20.12l-20.12-6.58l6.58-20.12L317.62,200.6z M295.89,193.5
					l-6.58,20.12l-20.12-6.58l6.58-20.12L295.89,193.5z M274.16,186.4l-6.58,20.12l-20.12-6.58l6.58-20.12L274.16,186.4z
					 M563.73,256.99l-6.58,20.12l-20.12-6.58l6.58-20.12L563.73,256.99z M542,249.89l-6.58,20.12l-20.12-6.58l6.58-20.12L542,249.89
					z M520.27,242.78l-6.58,20.12l-20.12-6.58l6.58-20.12L520.27,242.78z M498.54,235.68l-6.58,20.12l-20.12-6.58l6.58-20.12
					L498.54,235.68z M476.82,228.58l-6.58,20.12l-20.12-6.58l6.58-20.12L476.82,228.58z M455.09,221.48l-6.58,20.12l-20.12-6.58
					l6.58-20.12L455.09,221.48z M433.36,214.38l-6.58,20.12l-20.12-6.58l6.58-20.12L433.36,214.38z M411.63,207.28l-6.58,20.12
					l-20.12-6.58l6.58-20.12L411.63,207.28z M389.9,200.18l-6.58,20.12l-20.12-6.58l6.58-20.12L389.9,200.18z M368.18,193.07
					l-6.58,20.12l-20.12-6.58l6.58-20.12L368.18,193.07z M346.45,185.97l-6.58,20.12l-20.12-6.58l6.58-20.12L346.45,185.97z
					 M324.72,178.87L318.14,199l-20.12-6.58l6.58-20.12L324.72,178.87z M302.99,171.77l-6.58,20.12l-20.12-6.58l6.58-20.12
					L302.99,171.77z M281.27,164.67l-6.58,20.12l-20.12-6.58l6.58-20.12L281.27,164.67z M570.83,235.26l-6.58,20.12l-20.12-6.58
					l6.58-20.12L570.83,235.26z M549.1,228.16l-6.58,20.12l-20.12-6.58l6.58-20.12L549.1,228.16z M527.37,221.06l-6.58,20.12
					l-20.12-6.58l6.58-20.12L527.37,221.06z M505.65,213.95l-6.58,20.12l-20.12-6.58l6.58-20.12L505.65,213.95z M483.92,206.85
					l-6.58,20.12l-20.12-6.58l6.58-20.12L483.92,206.85z M462.19,199.75l-6.58,20.12l-20.12-6.58l6.58-20.12L462.19,199.75z
					 M440.46,192.65l-6.58,20.12l-20.12-6.58l6.58-20.12L440.46,192.65z M418.73,185.55l-6.58,20.12l-20.12-6.58l6.58-20.12
					L418.73,185.55z M397.01,178.45l-6.58,20.12L370.3,192l6.58-20.12L397.01,178.45z M375.28,171.35l-6.58,20.12l-20.12-6.58
					l6.58-20.12L375.28,171.35z M353.55,164.25l-6.58,20.12l-20.12-6.58l6.58-20.12L353.55,164.25z M331.82,157.14l-6.58,20.12
					l-20.12-6.58l6.58-20.12L331.82,157.14z M310.09,150.04l-6.58,20.12l-20.12-6.58l6.58-20.12L310.09,150.04z M288.37,142.94
					l-6.58,20.12l-20.12-6.58l6.58-20.12L288.37,142.94z M577.93,213.53l-6.58,20.12l-20.12-6.58l6.58-20.12L577.93,213.53z
					 M556.2,206.43l-6.58,20.12l-20.12-6.58l6.58-20.12L556.2,206.43z M534.47,199.33l-6.58,20.12l-20.12-6.58l6.58-20.12
					L534.47,199.33z M512.75,192.23l-6.58,20.12l-20.12-6.58l6.58-20.12L512.75,192.23z M491.02,185.13l-6.58,20.12l-20.12-6.58
					l6.58-20.12L491.02,185.13z M469.29,178.02l-6.58,20.12l-20.12-6.58l6.58-20.12L469.29,178.02z M447.56,170.92l-6.58,20.12
					l-20.12-6.58l6.58-20.12L447.56,170.92z M425.83,163.82l-6.58,20.12l-20.12-6.58l6.58-20.12L425.83,163.82z M404.11,156.72
					l-6.58,20.12l-20.12-6.58l6.58-20.12L404.11,156.72z M382.38,149.62l-6.58,20.12l-20.12-6.58l6.58-20.12L382.38,149.62z
					 M360.65,142.52l-6.58,20.12l-20.12-6.58l6.58-20.12L360.65,142.52z M338.92,135.42l-6.58,20.12l-20.12-6.58l6.58-20.12
					L338.92,135.42z M317.2,128.32l-6.58,20.12l-20.12-6.58l6.58-20.12L317.2,128.32z M295.47,121.21l-6.58,20.12l-20.12-6.58
					l6.58-20.12L295.47,121.21z M563.3,184.7l-6.58,20.12l-20.12-6.58l6.58-20.12L563.3,184.7z M541.58,177.6L535,197.73
					l-20.12-6.58l6.58-20.12L541.58,177.6z M519.85,170.5l-6.58,20.12l-20.12-6.58l6.58-20.12L519.85,170.5z M498.12,163.4
					l-6.58,20.12l-20.12-6.58l6.58-20.12L498.12,163.4z M476.39,156.3l-6.58,20.12l-20.12-6.58l6.58-20.12L476.39,156.3z
					 M454.66,149.2l-6.58,20.12l-20.12-6.58l6.58-20.12L454.66,149.2z M432.94,142.09l-6.58,20.12l-20.12-6.58l6.58-20.12
					L432.94,142.09z M411.21,134.99l-6.58,20.12l-20.12-6.58l6.58-20.12L411.21,134.99z M389.48,127.89l-6.58,20.12l-20.12-6.58
					l6.58-20.12L389.48,127.89z M367.75,120.79l-6.58,20.12l-20.12-6.58l6.58-20.12L367.75,120.79z M346.03,113.69l-6.58,20.12
					l-20.12-6.58l6.58-20.12L346.03,113.69z M324.3,106.59l-6.58,20.12l-20.12-6.58l6.58-20.12L324.3,106.59z M548.68,155.87
					L542.1,176l-20.12-6.58l6.58-20.12L548.68,155.87z M526.95,148.77l-6.58,20.12l-20.12-6.58l6.58-20.12L526.95,148.77z
					 M505.22,141.67l-6.58,20.12l-20.12-6.58l6.58-20.12L505.22,141.67z M483.49,134.57l-6.58,20.12l-20.12-6.58l6.58-20.12
					L483.49,134.57z M461.77,127.47l-6.58,20.12l-20.12-6.58l6.58-20.12L461.77,127.47z M440.04,120.37l-6.58,20.12l-20.12-6.58
					l6.58-20.12L440.04,120.37z M418.31,113.27l-6.58,20.12l-20.12-6.58l6.58-20.12L418.31,113.27z M396.58,106.16L390,126.29
					l-20.12-6.58l6.58-20.12L396.58,106.16z M374.85,99.06l-6.58,20.12l-20.12-6.58l6.58-20.12L374.85,99.06z M353.13,91.96
					l-6.58,20.12l-20.12-6.58L333,85.38L353.13,91.96z M512.32,119.94l-6.58,20.12l-20.12-6.58l6.58-20.12L512.32,119.94z
					 M490.59,112.84l-6.58,20.12l-20.12-6.58l6.58-20.12L490.59,112.84z M468.87,105.74l-6.58,20.12l-20.12-6.58l6.58-20.12
					L468.87,105.74z M447.14,98.64l-6.58,20.12l-20.12-6.58l6.58-20.12L447.14,98.64z M425.41,91.54l-6.58,20.12l-20.12-6.58
					l6.58-20.12L425.41,91.54z M403.68,84.44l-6.58,20.12l-20.12-6.58l6.58-20.12L403.68,84.44z"/><path fill="#ffb24d" d="M735.66,293.71l-10.97,33.58c-1,3.06-4.3,4.74-7.36,3.73l-12.68-4.14c-3.06-1-4.74-4.3-3.73-7.36
				l10.97-33.58c1-3.06,4.3-4.74,7.36-3.73l12.68,4.14C734.99,287.35,736.66,290.64,735.66,293.71z"/><g><path fill="#ffc69e" d="M922.72,312.28c-7.62-12.32-24.84-15.49-35.27-5.51c-0.39,0.37-0.79,0.77-1.15,1.2
				c-0.52,0.58-1.03,1.19-1.5,1.86c-0.23,0.31-0.45,0.64-0.67,0.98c-0.14,0.2-0.27,0.42-0.41,0.63c-0.69,1.1-1.31,2.31-1.88,3.61
				c-0.02-0.26-0.04-0.51-0.07-0.76c-0.17-1.67-3.15-12.54-3.8-13.67c-8.17-14.18-28.09-16.96-39.71-5.41l0,0.02
				c-0.78,0.77-1.53,1.62-2.23,2.54c-0.29-1.08-0.62-2.07-0.99-2.98c-0.41-1.03-0.88-1.96-1.37-2.78
				c-8.68-14.05-28.57-17.45-40.12-5.45c-0.52,0.55-1.05,1.11-1.52,1.73c-0.43-1.47-0.95-2.8-1.54-4c-0.28-0.54-0.56-1.07-0.87-1.56
				c-10.83-17.54-39.26-19.18-47.06,5.66c-6.89,21.94-6.67,53.3-9.59,77.55c-2.91,24.18,26.61,40.83,42.25,19.66
				c0.88-1.21,1.72-2.52,2.53-4c-0.07,0.6-0.14,1.17-0.22,1.76c-0.3,2.49-0.25,4.9,0.1,7.21l0,0.01
				c2.96,20.1,28.4,31.54,42.36,12.14c0.7-0.96,1.36-1.98,1.99-3.09c0.23,1.56,0.6,3.07,1.09,4.5l-0.01,0.02
				c5.67,16.79,27.43,25.13,40.43,8.74c0.7-0.86,1.36-1.81,2-2.82c0.96-1.53,1.87-3.22,2.66-5.08c0.01-0.02,0.01-0.03,0.01-0.03
				c0.73-1.64,1.4-3.41,1.99-5.34c0.29-0.92,0.56-1.88,0.82-2.87c0.76-2.94,1.46-5.85,2.15-8.69c-0.18,2.05-0.39,4.02-0.61,5.89
				c-0.16,1.31-0.21,2.58-0.16,3.83c0.06,1.59,0.26,3.13,0.63,4.59c0.02,0.15-0.99,14.19,12.16,22.42
				c9.61,6.01,23.6,0.41,28.68-19.5C924.92,361.84,929.24,322.85,922.72,312.28z"/><path fill="#f5d6c4" d="M793.56,286.54c-0.17,1.85-0.37,3.79-0.59,5.84c-2.76,25.18-9.08,62.73-12.78,83.85
				c-1.2,6.79-2.1,11.87-2.54,14.32c-0.35-2.32-0.4-4.72-0.1-7.21c0.08-0.59,0.15-1.17,0.22-1.76c-0.81,1.48-1.65,2.79-2.53,4
				c0.93-5.21,2.4-13.47,4.05-23.27l0.02-0.07c3.65-21.45,8.26-50.25,10.48-70.66c0,0,0.01-0.02,0.01-0.04c0.26-2.56,0.5-5,0.7-7.26
				c0.59,1.2,1.12,2.53,1.54,4C792.51,287.65,793.03,287.09,793.56,286.54z"/><path fill="#f5d6c4" d="M838.27,295.22c-0.23,2.96-0.56,6.19-0.92,9.61c-2.96,27.81-9.43,69.27-12.56,88.75
				c-0.91,5.67-1.53,9.47-1.72,10.53c-0.49-1.44-0.86-2.94-1.09-4.5c-0.62,1.11-1.29,2.13-1.99,3.09c0.36-2.22,1.22-7.44,2.36-14.59
				l0.02-0.08c3.53-22.21,9.74-62.75,12.22-88.2c0.16-1.76,0.32-3.45,0.45-5.06c0.37,0.91,0.7,1.9,0.99,2.98
				C836.74,296.84,837.49,295.99,838.27,295.22z"/><path fill="#f5d6c4" d="M887.08,310.82c-0.67,5.71-1.49,11.97-2.41,18.52c-0.22,1.66-0.46,3.35-0.7,5.05
				c-2.5,17.36-5.55,36.15-8.15,51.47l-0.01,0.06c-0.31,1.85-0.62,3.66-0.93,5.4c-0.69,4.02-1.31,7.73-1.88,11.02
				c-0.37-1.46-0.58-3-0.63-4.59c-0.05-1.25,0-2.52,0.16-3.83c0.23-1.87,0.43-3.85,0.61-5.89c-0.69,2.85-1.4,5.75-2.15,8.69
				c-0.25,1-0.52,1.95-0.82,2.87c0.36-2.14,0.76-4.42,1.17-6.84c0.8-4.72,1.68-9.92,2.61-15.43c1.34-8.08,2.76-16.81,4.12-25.59
				c0.81-5.28,1.62-10.58,2.38-15.77c0.66-4.49,1.27-8.88,1.83-13.12c0.1-0.74,0.2-1.48,0.29-2.21c0.42-3.19,0.8-6.28,1.14-9.21
				c0.01-0.06,0.02-0.12,0.02-0.17c0.07-0.61,0.14-1.21,0.21-1.8c0.25,0.11,0.5,0.21,0.74,0.31c0.04,0.01,0.07,0.02,0.1,0.04l0.01,0
				C885.56,310.15,886.32,310.47,887.08,310.82z"/></g><path fill="#f5d6c4" d="M780.33,316.55l-35.54,52.67c-14.94,14.98-4.82,20.19,5.89,24.99C740.28,379.7,795.98,353.36,780.33,316.55
			z"/><g><path fill="#ffc69e" d="M692.7,446.32c2.98,11.45,24.46,32.87,44.2,52.34c0.01,0,0.02,0.01,0.02,0.02
				c13.08,12.91,25.4,24.96,31.02,32.66l0.04-0.08l4.5-10.15l22-49.57c-11.49-62.12-54.82-58.23-55.28-84.91
				c0,0,12.84-10.95,27.94-28.25c18.89-21.62,18.37-39.82,6.64-48.88l0-0.01c-0.21-0.18-0.44-0.31-0.66-0.42
				c-6.01-2.99-22.31,6.76-38.44,20.3c-0.76,0.65-1.55,1.28-2.29,1.96c-3.18,2.85-6.24,5.07-9.17,6.87
				c-14.25,8.81-25.02,7.68-27.9,20.51C691.73,374.73,686.93,424.12,692.7,446.32z"/><path fill="#ffd8bd" d="M759.7,324.21c-4.61,3.74-10.96,4.7-16.36,2.24c-1.88-0.86-2.91-1.76-1.99-2.47
				c13.76-10.61,26.57-17.48,31.75-14.91c0.22,0.11,0.45,0.24,0.66,0.41l0.01,0.01C770.28,315.04,764.33,320.47,759.7,324.21z"/></g><path fill="#999b9e" d="M754.51,428.99c-6.63-6.86-13.98-12.99-21.21-19.24c-9-7.77-22.63,0.31-20.25,11.96
			c3.78,18.53,14.05,34.7,24.44,50.25c4.31,6.45,9.06,13.36,16.26,16.83c13.23,6.32,24.9-3.1,22.29-17.42
			C774.71,455.08,765.69,440.5,754.51,428.99z"/><path fill="#999b9e" d="M856.86,460.71c-2.82-0.39-5.7-0.85-8.48-0.27s-5.5,2.47-6.15,5.24c-0.64,2.69,0.83,5.51,2.88,7.37
			s4.63,3.01,7.04,4.37c7.41,4.18,13.49,10.67,17.2,18.32c2.27,4.69,3.98,10.18,8.46,12.84c5.51,3.26,12.66,0.69,17.88-3.01
			c8.9-6.3,15.47-15.81,18.22-26.36c1-3.85,1.5-7.99,0.22-11.75c-1.05-3.07-3.7-6.07-6.92-6.96c-1.21-0.33-2.45-0.07-3.66,0.11
			c-2.07,0.31-4.14,0.56-6.22,0.77c-8.65,0.9-17.36,1.12-26.05,0.68C866.46,461.83,861.65,461.38,856.86,460.71z"/><path fill="#f5d6c4" d="M772.48,521.11c-10.52-6.42-25.48-14.89-35.55-22.44c13.08,12.91,25.4,24.96,31.02,32.66l0.04-0.08
			c3.64,6.22,5.63,12.69,5.18,19.98c-3.21,77.94-10.16,154.99-17.88,229.19l32.29,0.74c-0.06-29.92,4.8-203.91,10.36-226.43
			c33.99,3.74,65.16,0.97,76.93-8.62C827.01,551.25,804.68,540.38,772.48,521.11z"/><path fill="#f5d6c4" d="M887.22,544.14c0,0,17.62,1.97,24.32-0.95c9.9-4.29,8.29,153.85,6.67,240.98l22.48,0.52
			c-4.75-58.59-9.53-117.46-14.32-176.09c-1.67-20.36-4.42-47.69-5.77-61.6c-0.58-5.9-0.26-24.73,2.22-37.13
			C921.86,511.76,909.26,537,887.22,544.14z"/></g><path fill="#fce9de" d="M879.77,712.48c1.68,45.49-53.22,74.07-89.48,46.86c0,0,0,0-0.01,0c-0.36-0.26-0.73-0.53-1.08-0.8
		c-0.01,0-0.01,0-0.01,0c-1.24-0.94-2.45-1.95-3.62-2.97c-0.89,0.71-1.79,1.41-2.71,2.09c-52.59,41.83-139.43,20.07-162.97-44.67
		c-0.12-0.06-0.25-0.15-0.35-0.24c0.12,0.05,0.22,0.15,0.34,0.21c-0.52-1.26-1.01-2.53-1.49-3.81c-4.31-11.59-6.88-23.96-6.96-36.24
		c0-1.09-0.02-2.36,0-3.33c0.01,0.02,0.02,0.03,0.04,0.05c1.52-62.28,64.38-116.41,127.17-101.93c0,0.01-0.01,0.03-0.02,0.04
		c13.23,2.55,25.82,7.62,37.18,14.76l0.01,0.03c24.93,15.32,44.12,43.99,48.28,74.29C853.84,656.68,879.88,682.81,879.77,712.48z"/><g><path fill="#4c4ca8" d="M872.3,705.4l-0.18,3.64c8.98,5.33,19.87,10.95,32.59,15.98c11.53,4.56,22.26,7.71,31.68,9.93
				c0.8-0.92,1.6-1.83,2.4-2.75c-9.65-2.11-20.84-5.25-32.93-10.02C892.54,716.93,881.34,710.96,872.3,705.4z"/><path fill="#4c4ca8" d="M871.32,724.79c-0.1,1.2-0.21,2.4-0.31,3.59c6.81,4.64,15.67,9.76,26.56,14.01
				c9.74,3.81,18.72,5.99,26.24,7.27c0.76-0.94,1.51-1.87,2.27-2.81c-7.71-1.17-17.12-3.31-27.36-7.31
				C887.3,735.1,878.17,729.64,871.32,724.79z"/><path fill="#fff" d="M953.4,718.98c2.35-7.4,13.94-41.95,30.81-59.67c17.57-18.45,32.77-14.38,34.91-13.68
					c0.93,2.05,6.64,16.72-9.78,36.2C993.57,700.54,960.5,715.84,953.4,718.98z"/><path fill="#ddddeb" d="M1009.34,681.83c-15.77,18.71-48.85,34.01-55.94,37.15c56.88-32.59,65.72-73.35,65.72-73.35
					C1020.05,647.68,1025.76,662.35,1009.34,681.83z"/><path fill="#4c4ca8" d="M1007.66,659.04c-32.34,34.35-64.67,68.7-97.01,103.05c-1.25,1.18-1.18,2.91-0.36,3.52
				c0.74,0.55,2.25,0.29,3.17-0.93C944.86,729.47,976.26,694.25,1007.66,659.04z"/><path fill="#fff" d="M942.16,708.04c1.44-7.62,8.76-43.33,23.37-62.96c15.21-20.44,30.79-18.23,33-17.8
					c1.17,1.92,8.61,15.79-5.33,37.11C979.81,684.87,948.82,704.06,942.16,708.04z"/><path fill="#ddddeb" d="M993.2,664.4c-13.39,20.48-44.38,39.66-51.04,43.64c52.53-39.23,56.37-80.76,56.37-80.76
					C999.7,629.2,1007.15,643.07,993.2,664.4z"/><path fill="#4c4ca8" d="M987.51,642.71c-27.48,38.34-54.97,76.69-82.45,115.03c-1.08,1.34-0.78,3.04,0.11,3.54
				c0.81,0.45,2.27-0.01,3.02-1.34C934.63,720.86,961.07,681.79,987.51,642.71z"/><path fill="#fff" d="M932.49,695.04c0.37-7.75,2.71-44.12,14.48-65.58c12.25-22.34,27.99-22.3,30.24-22.17
					c1.42,1.74,10.7,14.46-0.17,37.49C966.6,666.91,938.55,690.18,932.49,695.04z"/><path fill="#ddddeb" d="M977.04,644.78c-10.44,22.13-38.49,45.4-44.54,50.25c46.63-46.09,44.71-87.75,44.71-87.75
					C978.63,609.03,987.91,621.74,977.04,644.78z"/><path fill="#4c4ca8" d="M966.04,630.93c-22.46,41.49-44.93,82.97-67.39,124.46c-0.91,1.46-0.39,3.11,0.55,3.49
				c0.86,0.35,2.25-0.29,2.83-1.71C923.36,715.1,944.7,673.01,966.04,630.93z"/><path fill="#fff" d="M917.99,689.4c-0.31-7.75-1.18-44.19,8.65-66.59c10.24-23.33,25.92-24.68,28.17-24.75
					c1.57,1.61,11.93,13.46,3.13,37.36C949.49,658.38,923.59,684.03,917.99,689.4z"/><path fill="#ddddeb" d="M957.94,635.42c-8.46,22.96-34.35,48.61-39.95,53.98c42.39-50.01,36.82-91.34,36.82-91.34
					C956.38,599.67,966.75,611.51,957.94,635.42z"/><path fill="#4c4ca8" d="M946.72,621.74c-18.89,43.23-37.77,86.46-56.66,129.69c-0.78,1.53-0.13,3.14,0.84,3.44
				c0.88,0.27,2.21-0.48,2.67-1.94C911.29,709.2,929.01,665.47,946.72,621.74z"/><path fill="#fff" d="M903.42,682.6c-1.43-7.63-7.58-43.55-1.1-67.15c6.74-24.57,22.06-28.18,24.28-28.57
					c1.79,1.37,13.76,11.58,8.52,36.51C930.08,647.34,908.18,676.48,903.42,682.6z"/><path fill="#ddddeb" d="M935.12,623.4c-5.04,23.94-26.93,53.08-31.7,59.2c34.69-55.63,23.18-95.72,23.18-95.72
					C928.39,588.25,940.36,598.47,935.12,623.4z"/><g><path fill="#fff" d="M886.86,687.01c-1.91-7.52-10.3-42.99-5.32-66.94c5.19-24.94,20.25-29.51,22.44-30.04
					c1.87,1.25,14.46,10.7,10.8,35.91C911.25,650.15,891.22,680.6,886.86,687.01z"/><path fill="#ddddeb" d="M914.77,625.94c-3.52,24.21-23.54,54.67-27.91,61.08c31.12-57.7,17.12-96.99,17.12-96.99
					C905.84,591.28,918.43,600.73,914.77,625.94z"/></g><g><path fill="#fff" d="M871.46,688.78c-2.51-7.34-13.77-42.01-10.76-66.29c3.14-25.28,17.78-31.06,19.91-31.77
					c1.97,1.1,15.29,9.48,13.69,34.91C892.77,650.05,875.29,682.03,871.46,688.78z"/><path fill="#ddddeb" d="M894.3,625.63c-1.54,24.42-19.01,56.4-22.84,63.15c26.32-60.05,9.16-98.06,9.16-98.06
					C882.58,591.82,895.9,600.21,894.3,625.63z"/></g><path fill="#4c4ca8" d="M922.32,613.73c-13.64,45.16-27.27,90.33-40.91,135.49c-0.59,1.61,0.24,3.13,1.24,3.31
				c0.91,0.17,2.14-0.74,2.42-2.24C897.5,704.77,909.91,659.25,922.32,613.73z"/><path fill="#4c4ca8" d="M900.85,607.4c-8.59,46.39-17.19,92.77-25.78,139.16c-0.41,1.67,0.59,3.08,1.6,3.16
				c0.92,0.06,2.05-0.97,2.16-2.49C886.18,700.62,893.52,654.01,900.85,607.4z"/><path fill="#4c4ca8" d="M875.07,604.58c-2.35,47.12-4.71,94.24-7.06,141.35c-0.19,1.71,0.99,2.98,2.01,2.91
				c0.92-0.06,1.9-1.23,1.81-2.76C872.91,698.92,873.99,651.75,875.07,604.58z"/><path fill="#fff" d="M877.65,788.04L877.65,788.04c-12.77-5.15-19.38-19.31-15.12-32.4l4.44-14.25l50.72,20.45l-6.68,13.35
			C905,787.57,890.43,793.19,877.65,788.04z"/><path fill="#ddddeb" d="M870.04,783.32c2.19,1.95,4.75,3.56,7.61,4.72l0,0c12.77,5.15,27.35-0.47,33.36-12.86l6.68-13.35
			l-13.66-5.51l-4.25,1.08C899.79,757.41,899.59,789.61,870.04,783.32z"/><g><path fill="#e64835" d="M917.8,760.07l-49.73-20.05c-1.09-0.44-2.34,0.09-2.78,1.18c-0.44,1.09,0.09,2.34,1.18,2.78l49.73,20.05
				c1.09,0.44,2.34-0.09,2.78-1.18C919.42,761.75,918.89,760.51,917.8,760.07z"/></g></g><g><path fill="#fff2db" d="M596.83,754.92c-6.83,5.6-15.82,7.8-24.46,6.01l-22.1-4.58c-4.36-0.9-8.42-2.79-11.87-5.44
			c-3.37-2.59-6.19-5.92-8.18-9.8c-36.33-70.79,5.29-138.32,54.2-186.69c1.27-1.25,4.42-3.46,6.6-6.78
			c1.95-2.97,3.13-6.85,1.49-11.72c-0.36-1.13-0.89-2.31-1.59-3.54c-1.58-2.8-2.75-5.91-3.53-9.21c-0.93-3.9-1.35-8.06-1.27-12.29
			c0.36-23.23,14.92-48.73,35.42-44.48l0.71,0.15c1.87,0.39,3.6,0.99,5.18,1.77c15.81,7.74,17.74,33.63,9.64,53.12
			c-1.62,3.92-3.65,7.57-6.06,10.77c-2.04,2.72-4.35,5.11-6.9,7.04c-1.13,0.85-2.09,1.74-2.86,2.62c-3.44,3.84-3.9,7.85-3.3,11.35
			c0.67,3.92,2.69,7.19,3.37,8.85C645.56,620.68,658.31,704.41,596.83,754.92z"/><path fill="#e64835" d="M617.95,553.22l-26.93-5.58c1.95-2.97,3.13-6.85,1.49-11.72l28.74,5.96
			C617.81,545.72,617.35,549.72,617.95,553.22z"/><path fill="#e64835" d="M637.08,521.44c-1.62,3.92-3.65,7.57-6.06,10.77l-43.63-9.05c-0.93-3.9-1.35-8.06-1.27-12.29L637.08,521.44z"/><path fill="#f0dec9" d="M596.83,754.92c-6.83,5.6-15.82,7.8-24.46,6.01l-22.1-4.58c-4.36-0.9-8.42-2.79-11.87-5.44
			c99.27-28.49,95.07-139.46,75.46-183.63c-6.21-13.99-16.57-18.34-16.57-18.34c41.72-13.61,41.46-69.85,30.15-80.62
			c15.81,7.74,17.74,33.63,9.64,53.12c-1.62,3.92-3.65,7.57-6.06,10.77c-2.04,2.72-4.35,5.11-6.9,7.04
			c-1.13,0.85-2.09,1.74-2.86,2.62c-3.44,3.84-3.9,7.85-3.3,11.35c0.67,3.92,2.69,7.19,3.37,8.85
			C645.56,620.68,658.31,704.41,596.83,754.92z"/><ellipse cx="559.5" cy="649.18" fill="#bcbec0" rx="55.84" ry="23.24" transform="rotate(-73.076 559.512 649.182)"/><ellipse cx="606.93" cy="501.99" fill="#bcbec0" rx="29.38" ry="12.23" transform="rotate(-75.54 606.91 502.002)"/></g><path fill="#fce9de" d="M572.05,702.61c1.53-39.46-35.35-73.77-74.62-69.42c-80.08,7.44-83.07,124.14-4.15,136.11
		c25.04,4.22,52.56-7.87,66.45-28.6c0.01,0,0.02,0,0.03,0l0-0.05C567.49,729.51,571.82,716.25,572.05,702.61z"/><g><circle cx="495.39" cy="704.46" r="68.57" fill="#fff"/><path fill="#7a2323" d="M551.68,743.66l-0.02-0.45c-22.29-0.88-28.92-44.43-32.48-67.83c-0.35-2.31-0.68-4.49-1-6.41
				c-1.83-11.2-11.68-19.15-19.63-23.85c-8.58-5.07-16.85-7.55-16.93-7.57l-0.08,0.43c0.33,0.1,32.78,9.93,36.22,31.03
				c0.31,1.91,0.64,4.09,0.99,6.4c1.85,12.15,4.38,28.78,9.29,42.71C533.9,734.68,541.85,743.27,551.68,743.66z"/><path fill="#e64835" d="M520.62,705.37l0.08,0.06c0.28,0.23,0.7,0.17,0.9-0.14l1.77-2.63c0.22-0.33,0.68-0.37,0.95-0.09l2.75,2.78
					c0.25,0.26,0.67,0.24,0.91-0.03l0.01-0.01c0.21-0.24,0.2-0.61-0.03-0.84l-3.89-3.93c-0.28-0.28-0.74-0.23-0.95,0.09l-2.62,3.91
					C520.32,704.81,520.37,705.17,520.62,705.37z"/><path fill="#e64835" d="M524.9,719.82l0.08,0.05c0.31,0.19,0.72,0.08,0.88-0.25l1.42-2.83c0.18-0.35,0.63-0.45,0.94-0.21l3.08,2.41
					c0.28,0.22,0.69,0.16,0.9-0.14l0.01-0.01c0.18-0.27,0.12-0.63-0.13-0.83l-4.35-3.41c-0.31-0.24-0.76-0.14-0.94,0.21l-2.11,4.21
					C524.53,719.3,524.63,719.65,524.9,719.82z"/><path fill="#e64835" d="M532.64,734.48l0.03,0c0.36,0.05,0.69-0.22,0.71-0.58l0.19-3.4c0.02-0.39,0.4-0.67,0.78-0.56l3.49,0.97
					c0.35,0.1,0.71-0.13,0.78-0.49l0.01-0.08c0.05-0.31-0.14-0.62-0.45-0.7l-5.01-1.39c-0.38-0.11-0.76,0.17-0.78,0.56l-0.28,5.02
					C532.09,734.15,532.32,734.43,532.64,734.48z"/><path fill="#e64835" d="M540.81,744.46l0.03,0c0.36,0.05,0.69-0.22,0.71-0.58l0.19-3.4c0.02-0.39,0.4-0.67,0.78-0.56l3.49,0.97
					c0.35,0.1,0.71-0.13,0.78-0.49l0.01-0.08c0.05-0.31-0.14-0.62-0.45-0.7l-5.01-1.39c-0.38-0.11-0.76,0.17-0.78,0.56l-0.28,5.02
					C540.26,744.13,540.49,744.41,540.81,744.46z"/><path fill="#e64835" d="M518.15,693.39l0.08,0.06c0.28,0.23,0.7,0.16,0.9-0.14l1.77-2.63c0.22-0.33,0.68-0.37,0.95-0.09l2.75,2.78
					c0.25,0.26,0.67,0.24,0.91-0.03l0.01-0.01c0.21-0.24,0.2-0.61-0.03-0.84l-3.89-3.93c-0.28-0.28-0.74-0.23-0.95,0.09l-2.62,3.91
					C517.85,692.83,517.9,693.19,518.15,693.39z"/><path fill="#e64835" d="M516.35,682.34l0.08,0.06c0.28,0.23,0.7,0.16,0.9-0.14l1.77-2.63c0.22-0.33,0.68-0.37,0.95-0.09l2.75,2.78
					c0.25,0.26,0.67,0.24,0.91-0.03l0.01-0.01c0.21-0.24,0.2-0.61-0.03-0.84l-3.89-3.93c-0.28-0.28-0.74-0.23-0.95,0.09l-2.62,3.91
					C516.04,681.78,516.1,682.14,516.35,682.34z"/><path fill="#e64835" d="M515.86,671.74l0.05,0.02c0.35,0.12,0.72-0.09,0.81-0.44l0.75-3.22c0.09-0.39,0.52-0.59,0.87-0.42
					l3.34,1.62c0.33,0.16,0.73,0,0.85-0.34l0.02-0.05c0.11-0.3-0.03-0.63-0.31-0.77l-4.78-2.33c-0.36-0.17-0.78,0.03-0.87,0.42
					l-1.12,4.79C515.39,671.32,515.56,671.63,515.86,671.74z"/><path fill="#e64835" d="M512.59,662.98L512.59,662.98c0.36,0.01,0.65-0.27,0.65-0.62l-0.03-3.55c0-0.39,0.34-0.68,0.73-0.62
					l3.49,0.61c0.35,0.06,0.69-0.19,0.72-0.55l0.01-0.11c0.03-0.32-0.19-0.62-0.51-0.67l-4.97-0.86c-0.38-0.07-0.73,0.23-0.73,0.62
					l0.04,5.15C512,662.7,512.26,662.97,512.59,662.98z"/><path fill="#e64835" d="M487.42,643.65L487.42,643.65c0.28-0.18,0.37-0.55,0.2-0.84l-1.89-3.15c-0.19-0.32-0.06-0.73,0.27-0.88
					l3.23-1.49c0.31-0.14,0.45-0.51,0.3-0.82l-0.06-0.12c-0.14-0.31-0.51-0.45-0.82-0.3l-4.5,2.08c-0.33,0.15-0.46,0.57-0.27,0.88
					l2.67,4.45C486.74,643.75,487.13,643.84,487.42,643.65z"/><path fill="#e64835" d="M493.39,646.28L493.39,646.28c0.28-0.18,0.37-0.55,0.2-0.84l-1.89-3.15c-0.19-0.32-0.06-0.73,0.27-0.88
					l3.23-1.49c0.31-0.14,0.45-0.51,0.3-0.82l-0.06-0.12c-0.14-0.31-0.51-0.45-0.82-0.3l-4.5,2.08c-0.33,0.15-0.46,0.57-0.27,0.88
					l2.67,4.45C492.71,646.37,493.1,646.47,493.39,646.28z"/><path fill="#e64835" d="M499.72,649.49L499.72,649.49c0.28-0.18,0.37-0.55,0.2-0.84l-1.89-3.15c-0.19-0.32-0.06-0.73,0.27-0.88
					l3.23-1.49c0.31-0.14,0.45-0.51,0.3-0.82l-0.06-0.12c-0.14-0.31-0.51-0.45-0.82-0.3l-4.5,2.08c-0.33,0.15-0.46,0.57-0.27,0.88
					l2.67,4.45C499.04,649.59,499.43,649.68,499.72,649.49z"/><path fill="#e64835" d="M505.53,654.92L505.53,654.92c0.36-0.05,0.6-0.38,0.54-0.73l-0.65-3.48c-0.07-0.38,0.22-0.73,0.61-0.73
					l3.54,0c0.36,0,0.64-0.31,0.62-0.66l-0.01-0.11c-0.02-0.32-0.29-0.57-0.62-0.57l-5.05-0.01c-0.39,0-0.68,0.35-0.61,0.73
					l0.94,5.06C504.9,654.74,505.21,654.96,505.53,654.92z"/><g><path fill="#7a2323" d="M491.9,771.44l-0.33-0.31c13.8-17.53-15.02-50.84-30.51-68.74c-1.53-1.77-2.97-3.44-4.23-4.92
				c-7.33-8.66-6.98-21.32-5.4-30.41c1.71-9.82,5.2-17.71,5.23-17.79l0.38,0.22c-0.14,0.31-13.73,31.38,0.09,47.7
				c1.25,1.48,2.69,3.15,4.22,4.91c8.04,9.29,19.05,22.01,26.45,34.79C496.61,752.09,497.99,763.71,491.9,771.44z"/><path fill="#e64835" d="M482.94,722.96l0,0.1c-0.01,0.36-0.33,0.64-0.69,0.6l-3.15-0.36c-0.39-0.04-0.72,0.28-0.69,0.67l0.33,3.9
					c0.03,0.36-0.25,0.67-0.61,0.67l-0.01,0c-0.32,0-0.6-0.24-0.63-0.57l-0.47-5.51c-0.03-0.39,0.3-0.71,0.69-0.67l4.68,0.54
					C482.71,722.37,482.95,722.64,482.94,722.96z"/><path fill="#e64835" d="M491.15,735.59l-0.02,0.1c-0.06,0.36-0.41,0.59-0.76,0.51l-3.07-0.76c-0.38-0.09-0.75,0.18-0.77,0.58
					l-0.16,3.91c-0.02,0.36-0.33,0.63-0.69,0.59l-0.01,0c-0.32-0.04-0.56-0.32-0.55-0.64l0.23-5.52c0.02-0.39,0.39-0.67,0.77-0.58
					l4.57,1.13C491,734.98,491.2,735.28,491.15,735.59z"/><path fill="#e64835" d="M497.27,751l-0.02,0.02c-0.19,0.31-0.61,0.38-0.9,0.16l-2.71-2.06c-0.31-0.24-0.77-0.13-0.94,0.23
					l-1.53,3.28c-0.15,0.33-0.56,0.46-0.88,0.27l-0.07-0.04c-0.27-0.16-0.38-0.51-0.24-0.79l2.2-4.71c0.17-0.36,0.62-0.47,0.94-0.23
					l4,3.05C497.38,750.37,497.45,750.72,497.27,751z"/><path fill="#e64835" d="M499.56,763.69l-0.02,0.02c-0.19,0.31-0.61,0.38-0.9,0.16l-2.71-2.06c-0.31-0.24-0.77-0.13-0.94,0.23
					l-1.53,3.28c-0.15,0.33-0.56,0.46-0.88,0.27l-0.07-0.04c-0.27-0.16-0.38-0.51-0.24-0.79l2.2-4.71c0.17-0.36,0.62-0.47,0.94-0.23
					l4,3.05C499.67,763.06,499.73,763.42,499.56,763.69z"/><path fill="#e64835" d="M475.43,713.31l0,0.1c-0.01,0.36-0.33,0.64-0.69,0.6l-3.15-0.36c-0.39-0.04-0.72,0.28-0.69,0.67l0.33,3.9
					c0.03,0.36-0.25,0.67-0.61,0.67l-0.01,0c-0.32,0-0.6-0.24-0.63-0.57l-0.47-5.51c-0.03-0.39,0.3-0.71,0.69-0.67l4.68,0.54
					C475.2,712.71,475.44,712.98,475.43,713.31z"/><path fill="#e64835" d="M468.2,704.76l0,0.1c-0.01,0.36-0.33,0.64-0.69,0.6l-3.15-0.36c-0.39-0.04-0.72,0.28-0.69,0.67l0.33,3.9
					c0.03,0.36-0.25,0.67-0.61,0.67l-0.01,0c-0.32,0-0.6-0.24-0.63-0.57l-0.47-5.51c-0.03-0.39,0.3-0.71,0.69-0.67l4.68,0.54
					C467.97,704.16,468.2,704.44,468.2,704.76z"/><path fill="#e64835" d="M460.45,697.5l-0.02,0.05c-0.13,0.34-0.53,0.49-0.86,0.32l-2.94-1.52c-0.35-0.18-0.78,0.01-0.88,0.4
					l-0.93,3.59c-0.09,0.36-0.47,0.55-0.82,0.42l-0.05-0.02c-0.3-0.11-0.46-0.43-0.38-0.74l1.34-5.15c0.1-0.38,0.53-0.58,0.88-0.4
					l4.37,2.26C460.44,696.87,460.56,697.21,460.45,697.5z"/><path fill="#e64835" d="M455.91,689.33L455.91,689.33c-0.22,0.28-0.63,0.32-0.9,0.09l-2.68-2.33c-0.29-0.25-0.74-0.18-0.94,0.15
					l-1.8,3.04c-0.18,0.31-0.59,0.4-0.89,0.19l-0.09-0.06c-0.27-0.18-0.35-0.55-0.18-0.83l2.57-4.34c0.2-0.33,0.65-0.41,0.94-0.15
					l3.89,3.38C456.08,688.7,456.12,689.07,455.91,689.33z"/><path fill="#e64835" d="M457.55,657.64L457.55,657.64c-0.32,0.1-0.66-0.08-0.77-0.4l-1.17-3.48c-0.12-0.35-0.51-0.52-0.85-0.37
					l-3.23,1.49c-0.31,0.14-0.68,0.01-0.82-0.3l-0.06-0.12c-0.14-0.31-0.01-0.68,0.3-0.82l4.5-2.08c0.33-0.15,0.73,0.02,0.85,0.37
					l1.65,4.92C458.06,657.18,457.88,657.54,457.55,657.64z"/><path fill="#e64835" d="M455.67,663.89L455.67,663.89c-0.32,0.1-0.66-0.08-0.77-0.4l-1.17-3.48c-0.12-0.35-0.51-0.52-0.85-0.37
					l-3.23,1.49c-0.31,0.14-0.68,0.01-0.82-0.3l-0.06-0.12c-0.14-0.31-0.01-0.68,0.3-0.82l4.5-2.08c0.33-0.15,0.73,0.02,0.85,0.37
					l1.65,4.92C456.19,663.43,456,663.78,455.67,663.89z"/><path fill="#e64835" d="M454,670.79L454,670.79c-0.32,0.1-0.66-0.08-0.77-0.4l-1.17-3.48c-0.12-0.35-0.51-0.52-0.85-0.37
					l-3.23,1.49c-0.31,0.14-0.68,0.01-0.82-0.3l-0.06-0.12c-0.14-0.31-0.01-0.68,0.3-0.82l4.5-2.08c0.33-0.15,0.73,0.02,0.85,0.37
					l1.65,4.92C454.52,670.33,454.34,670.68,454,670.79z"/><path fill="#e64835" d="M454.36,678.73L454.36,678.73c-0.27,0.24-0.68,0.21-0.9-0.06l-2.23-2.75c-0.24-0.3-0.7-0.31-0.95-0.01
					l-2.3,2.7c-0.23,0.27-0.65,0.29-0.91,0.04l-0.08-0.08c-0.23-0.23-0.25-0.6-0.04-0.84l3.28-3.85c0.25-0.3,0.71-0.29,0.95,0.01
					l3.24,4C454.64,678.14,454.61,678.51,454.36,678.73z"/></g><path fill="#ddddeb" d="M501.57,636.18c16.9,5.93,31.48,18.42,39.57,35.97c15.86,34.39,0.84,75.12-33.55,90.98
			c-11.32,5.22-23.32,7.08-34.9,6.02c16.22,5.69,34.57,5.35,51.42-2.42c34.39-15.86,49.41-56.6,33.55-90.98
			C547.01,652.68,525.18,638.34,501.57,636.18z"/></g><g><path fill="#ffb24d" d="M725.59,569.13c0,0,0,0-0.02,0.04c-25.95,11.22-41.13,37.46-48.83,63.62l0.01,0.03
				c-5.97,20.31-8.27,41.62-8.1,62.72l-0.03,0.01c0.05,1.93,0.11,3.85,0.17,5.74c-22.09,5.12-48.8,5.68-67.72-5.63
				c-17.4-70.7,52.18-142.61,124.43-126.49L725.59,569.13z"/><path fill="#302d70" d="M726.12,568.9c-0.18,0.07-0.32,0.15-0.48,0.24c-0.04-0.02-0.04-0.02-0.04-0.02
				C725.77,569.06,725.94,568.97,726.12,568.9z"/><path fill="#302d70" d="M725.5,569.16c0.02,0.01,0.14-0.09,0.07,0.01c-25.95,11.21-41.13,37.46-48.83,63.62l0.01,0.03
				c-5.95,20.31-8.3,41.62-8.1,62.72l-0.03,0.01c0.03,1.94,0.09,3.84,0.17,5.74c-11.73,2.76-23.87,3.96-35.2,3.3
				C626.33,621.13,651.91,552.5,725.5,569.16z"/><path fill="#ffb24d" d="M726.67,568.67c-0.36,0.13-0.7,0.29-1.04,0.48c-0.04-0.02-0.04-0.02-0.04-0.02
				C725.95,568.98,726.31,568.82,726.67,568.67z"/><path fill="#fff" d="M725.63,569.15c-0.04-0.02-0.04-0.02-0.04-0.02c0.36-0.15,0.72-0.31,1.08-0.46
				C726.32,568.8,725.97,568.96,725.63,569.15z"/><path fill="#fff" d="M762.75,583.93c-44.46,10.21-61.09,54.28-52.11,97.96c-13.79,10.21-25.91,15.68-41.8,19.4
				c-0.1-1.86-0.11-3.88-0.17-5.74l0.03-0.01c-0.23-21.09,2.12-42.4,8.07-62.71l-0.01-0.03c7.6-26.13,23.04-52.5,48.83-63.62
				C738.79,571.72,751.39,576.77,762.75,583.93z"/><path fill="#302d70" d="M606.84,714.42c-0.12-0.06-0.25-0.14-0.36-0.24c0.12,0.06,0.22,0.15,0.35,0.21
			C606.84,714.42,606.84,714.42,606.84,714.42z"/><path fill="#ffb24d" d="M767.82,760.02c-52.72,41.7-137.35,16.73-160.97-45.58c40.71,28.26,94.92,9.19,133.86-13.4
			C755.33,716.97,768.56,739.06,767.82,760.02z"/><path fill="#ffb24d" d="M606.84,714.42c-0.12-0.06-0.25-0.14-0.36-0.24c0.12,0.06,0.22,0.15,0.35,0.21
			C606.84,714.42,606.84,714.42,606.84,714.42z"/><path fill="#302d70" d="M759.94,728.52c-58.46,40.15-128.04,56-153.08-14.07c40.71,28.26,94.92,9.19,133.86-13.4
			C748.46,709.44,755.15,718.9,759.94,728.52z"/><path fill="#ddddeb" d="M737.36,701.29c-2,1.07-4.08,2.13-6.15,3.19c-1.02,0.54-2.06,1.02-3.11,1.54c-3.26,1.59-6.56,3.1-9.98,4.52
			c-0.76,0.31-1.5,0.61-2.22,0.94c-2.9,1.19-5.93,2.33-8.96,3.44c-4.5,1.61-9.11,3.12-13.81,4.36c-1.92,0.57-3.84,1.03-5.75,1.52
			c-1.96,0.45-3.92,0.89-5.85,1.26c-0.18,0.07-0.33,0.12-0.49,0.14c-1.44,0.29-2.92,0.59-4.34,0.84c-4.34,0.77-8.66,1.3-13.04,1.59
			c-1.4,0.14-2.86,0.2-4.31,0.29c-2.88,0.14-5.77,0.18-8.59,0.1c-1.43-0.05-2.85-0.14-4.26-0.23c-0.79-0.05-1.59-0.1-2.37-0.21
			c-1.48-0.17-2.94-0.31-4.46-0.5c-1.5-0.23-3.04-0.48-4.53-0.77c-0.77-0.16-1.46-0.31-2.23-0.47c-0.51-0.12-0.99-0.21-1.47-0.34
			c-0.74-0.17-1.48-0.37-2.23-0.57c-1.5-0.43-2.95-0.88-4.4-1.33c-1.46-0.48-2.9-1.03-4.29-1.6c-0.98-0.38-1.92-0.82-2.88-1.24
			c-0.6-0.25-1.18-0.55-1.72-0.82c-0.41-0.19-0.8-0.35-1.19-0.58c-0.66-0.33-1.36-0.68-2.04-1.07c-0.44-0.28-0.94-0.53-1.36-0.78
			l-0.04-0.02c-0.57-0.37-1.12-0.67-1.69-1.04c-0.53-0.35-1.09-0.68-1.64-1.09c-0.54-0.38-1.11-0.74-1.65-1.12
			c-0.32-0.22-0.63-0.44-0.95-0.66c-0.01-0.03-0.01-0.03-0.02-0.06c-1.79-4.91-3.2-9.89-4.24-14.87l-0.01-0.03
			c-1.46-7.05-2.66-13.68-2.68-20.68c0.01-1.18-0.03-2.78-0.01-3.93c5.36,6,13.91,13.31,24.57,18.25c2.28,1.09,4.6,1.99,6.93,2.73
			c0.95,0.29,1.9,0.59,2.83,0.82c10.67,2.92,21.76,2.65,32.89-0.13l0.06-0.02c1.01-0.27,2-0.53,2.99-0.86
			c11.37-3.3,22.67-9.18,33.65-17.16c0.05-0.05,0.16-0.12,0.27-0.2c0.16-0.12,0.34-0.26,0.53-0.4c1.25,0.66,2.46,1.29,3.65,1.97
			c0.3,0.16,0.63,0.34,0.94,0.53l0.01,0.03c0.79,0.42,1.56,0.85,2.32,1.28c0.51,0.29,1,0.61,1.52,0.93
			c4.15,2.5,7.87,5.12,11.23,7.77C727.94,690.98,732.85,695.93,737.36,701.29z"/><path fill="#fff" d="M740.7,701.02c-38.92,22.65-93.11,41.71-133.85,13.43l-0.01-0.03c-5.21-12.62-8.41-26.59-8.46-40.08
			c28.91,33.64,73.59,29.49,106.89,0.98c1.56,0.76,3.17,1.48,4.68,2.3l0.01,0.03C722.05,683.43,731.73,691.26,740.7,701.02z"/><path fill="#ddddeb" d="M734.69,704.49c-0.89,0.53-1.85,1.01-2.8,1.56c-11.66-25.21-28.8-29.04-28.8-29.04
			c0.48-0.34,0.92-0.71,1.39-1.08c0.05-0.05,0.16-0.12,0.27-0.2c0.16-0.12,0.33-0.29,0.52-0.43c0.49,0.23,0.99,0.48,1.47,0.71
			c1.1,0.51,2.16,1.03,3.21,1.59l0.01,0.03c1.42,0.66,2.67,1.32,3.94,2.03c4.25,2.33,8.08,4.77,11.56,7.28
			c5.37,4.18,10.5,8.91,15.24,14.06C738.73,702.17,736.73,703.34,734.69,704.49z"/><path fill="#ddddeb" d="M767.82,760.02c-0.29,0.41-0.56,0.78-0.89,1.17c-7.51,5.3-15.82,9.68-24.86,12.98
			c-2.86,1.04-5.73,1.95-8.61,2.74c-1.16,0.32-2.31,0.61-3.48,0.9c7.46-14.86,10.2-26.74,10.33-37.01
			c0.14-10.7-2.56-19.59-5.71-28.22c-0.85-2.32-1.77-4.48-2.72-6.53c0.97-0.49,1.89-1.02,2.81-1.53c2.08-1.13,4.08-2.3,6.01-3.47
			c7.75,8.4,14.44,17.86,19.22,27.47C765.25,739.19,768.28,750.08,767.82,760.02z"/><g><path fill="#ffb24d" d="M805.75,637.41c16.53,45.44,0.47,95.12-37.37,122.75c14.16-36.08-3.19-75.01-25.13-104.1
				c-1.94-2.63-13.67-12.07-15.74-14.52c-5.16-6.25-10.59-12-16.23-17.51c11.3-18.49,27.04-35.2,46.91-42.83
				c1.58,0.88,3.04,1.76,4.56,2.72l0.01,0.03C781.92,596.11,797.37,614.44,805.75,637.41z"/><path fill="#302d70" d="M799.68,724.07c-7.46,14.02-18.11,26.57-31.3,36.09c14.16-36.08-3.19-75.01-25.13-104.1
				c-1.94-2.63-13.67-12.07-15.74-14.52c-5.16-6.25-10.59-12-16.23-17.51c6.17-10.07,13.61-19.43,21.73-26.94
				C781.06,637.09,806.93,688.89,799.68,724.07z"/><path fill="#fff" d="M767.64,691.97c11.04,35.24,6.66,56.43,2.15,67.17c-10.63,8-23.18,14.23-36.33,17.77
				c20.51-31.44,9.45-74.57-19.56-97.23c-56.24-27.05-2.98-55.54-2.65-55.6C730.43,631.69,756.78,661.66,767.64,691.97z"/></g><path fill="#ddddeb" d="M761.75,583.31c-6.49,2.44-16.37,7.25-25.88,16.28c-3.49,3.26-6.92,7.08-10.13,11.59
			c-3.5,4.92-6.57,9.98-9.21,15.05c-0.36,0.67-0.72,1.34-1.06,2c-9.79,19.55-13.17,38.48-11.21,46.9
			c-11.04-17.14,6.99-51.06,6.99-51.06c0.03-0.01,0.04,0.02,0.07,0.01c-0.01-0.03-0.04-0.02-0.05-0.05
			c6.17-10.07,13.61-19.43,21.73-26.94c7.24-6.75,16.68-12.59,25.18-15.89C759.41,581.91,760.56,582.57,761.75,583.31z"/><ellipse cx="656.5" cy="628.17" fill="#a7a9ac" rx="57.23" ry="32.65" transform="rotate(-45.001 656.492 628.185)"/><path fill="#ddddeb" d="M803.42,631.83l0.01-0.03c-0.72-1.65-1.44-3.21-2.24-4.82c-5.13-10.45-11.94-20.02-20.17-28.31
			c-0.03-0.01-0.05-0.05-0.05-0.05c49.93,88.68-72.46,196.03-169.62,125.53c12.32,23.09,33,41.59,59.22,50.63
			c2.82,0.98,5.71,1.84,8.66,2.59c9.33,2.37,18.67,3.43,27.85,3.27c0.58,0.02,1.18,0,1.77-0.04c0.59-0.01,1.15-0.03,1.74-0.05
			c15.71-0.75,30.87-5.01,44.44-12.15c25.85-13.57,46.07-37.65,53.82-68.19C814.86,676.52,812.42,652.67,803.42,631.83z"/></g><g><circle cx="810.17" cy="714.79" r="56.55" fill="#97b023"/><ellipse cx="777.71" cy="693.63" fill="#a7a9ac" rx="24.11" ry="12.1" transform="rotate(-56.282 777.742 693.627)"/><path fill="#e8edab" d="M850.28,694.77c-8.76-14.64-26.59-23.48-40.35-26.88c-3.94-0.97-6.52-2.49-7.66-4.51
			c-0.62-1.09-0.85-2.44-0.68-4.01l0.05-0.49c-2.81,0.43-5.57,1.07-8.26,1.91c0.07,2.41,0.66,4.64,1.77,6.61
			c2.29,4.06,6.61,6.89,12.82,8.42c12.16,3,27.82,10.66,35.29,23.15c4.33,7.22,5.37,15.39,3.11,24.26l-0.04,0.15
			c-1.92,8.95-6.5,15.79-13.6,20.33c-12.26,7.85-29.69,7.72-41.91,4.99c-6.25-1.4-11.37-0.78-15.23,1.83c-1.88,1.27-3.4,3-4.53,5.13
			c2.03,1.95,4.22,3.75,6.54,5.39l0.17-0.46c0.55-1.48,1.36-2.59,2.4-3.29c1.92-1.3,4.91-1.51,8.87-0.62
			c13.83,3.09,33.73,3.12,48.1-6.08c8.97-5.74,14.75-14.29,17.17-25.42C857.11,714.14,855.75,703.91,850.28,694.77z"/><path fill="#fff" d="M795.12,660.27c-0.01,2.29,0.51,4.4,1.56,6.26c2.05,3.62,5.99,6.17,11.72,7.59
			c12.5,3.09,28.62,11,36.37,23.95c4.58,7.65,5.68,16.26,3.31,25.59l-0.01,0.04l-0.01,0.04c-2.02,9.41-6.86,16.63-14.37,21.44
			c-12.71,8.13-30.67,8.03-43.23,5.22c-5.76-1.29-10.42-0.76-13.87,1.57c-1.77,1.2-3.18,2.86-4.19,4.91
			c1.2,1.08,2.45,2.11,3.75,3.09c0.57-1.54,1.52-3.08,3.06-4.12c2.34-1.58,5.78-1.88,10.23-0.88c13.48,3.01,32.85,3.06,46.77-5.85
			c8.58-5.49,14.1-13.68,16.41-24.35c2.68-10.57,1.4-20.37-3.84-29.11c-8.49-14.18-25.85-22.77-39.26-26.08
			c-4.43-1.09-7.38-2.89-8.77-5.35c-0.91-1.62-1.07-3.42-0.9-5.05C798.25,659.48,796.67,659.84,795.12,660.27z"/><path fill="#e8edab" d="M865.22,727.74c4.7-19.98-1.83-39.99-15.5-53.38c3.06,27.26,2.58,94.09-78.65,81.3
			c7.05,6.76,15.95,11.79,26.15,14.18C827.63,776.99,858.07,758.14,865.22,727.74z"/></g><g><path fill="#bd2714" d="M414.78,884.03c-36.27-4.97-73.29-0.94-112.09,21.6c9.42-45.33,22.73-71.74,38.47-85.86
				c-14.39-10.58-27.02-41.7-38.47-87.71c38.22,22.78,75.56,26.99,112.09,15.09C414.78,792.78,414.78,838.4,414.78,884.03z"/><path fill="#850e00" d="M361.51,860.06c18.02,4.78,44.85,11.01,53.27,23.97c0,0,0-37.48,0-44.37
				C405.02,840.76,361.51,860.06,361.51,860.06z"/><path fill="#bd2714" d="M948.06,884.03c36.27-4.97,73.29-0.94,112.09,21.6c-9.42-45.33-22.73-71.74-38.47-85.86
				c14.39-10.58,27.02-41.7,38.47-87.71c-38.22,22.78-75.56,26.99-112.09,15.09C948.06,792.78,948.06,838.4,948.06,884.03z"/><path fill="#850e00" d="M1001.33,860.06c-18.02,4.78-44.85,11.01-53.27,23.97c0,0,0-37.48,0-44.37
				C957.82,840.76,1001.33,860.06,1001.33,860.06z"/><path fill="#e64835" d="M362.12,706.96c0,51.03,0,102.06,0,153.08c117.02-24.8,521.68-24.85,638.73-0.45c0-50.66,0-101.33,0-151.99
			C883.8,742.12,479.15,742.04,362.12,706.96z"/></g></svg>