<svg xmlns="http://www.w3.org/2000/svg" id="Layer_1" x="0" y="0" enable-background="new 0 0 1364 960" version="1.1" viewBox="0 0 1364 960" xml:space="preserve"><path fill="#fff8d9" d="M1189.27,387.07c-17.96-44.2-64.03-69.31-107.48-89c-43.46-19.7-90.54-39.87-115.7-80.41
		c-19.07-30.73-22.76-69.36-43.22-99.18C900.89,86.46,862,69.15,823.37,65.22c-38.63-3.93-77.45,3.94-115.1,13.44
		c-52.07,13.13-104.07,29.78-149.1,59.05c-45.03,29.26-82.87,72.56-96.22,124.57c-14.17,55.2-2.92,122.06-43.58,162
		c-28.65,28.15-73.01,31.44-108.67,49.92c-41.62,21.56-70.57,65.78-73.7,112.55c-3.12,46.77,19.69,94.45,58.07,121.36
		c230.98,167.37,469.68,185.61,718.06,17.14c38.4-49.83,76.8-99.65,115.2-149.48c21.18-27.48,42.6-55.37,55.98-87.38
		C1197.7,456.37,1202.33,419.21,1189.27,387.07z"/><path fill="#87ad34" d="M1124.75,487.46c2.67-3.41,2.78-8.41,0.86-12.28c-1.92-3.88-5.59-6.69-9.61-8.29
		c-4.02-1.6-8.4-2.09-12.72-2.27c-7.16-0.29-14.58,0.34-21.1,3.15c4.08-9.69,8.91-19.07,14.43-28.03c0.5-0.82,1.02-1.62,1.53-2.43
		c6.09,4.38,12.19,8.75,18.28,13.13c4.06,2.92,8.26,5.9,13.12,7.09c4.86,1.19,10.61,0.18,13.71-3.76c2.67-3.41,2.78-8.41,0.86-12.28
		c-1.92-3.88-5.59-6.69-9.61-8.29c-4.02-1.6-8.4-2.09-12.72-2.27c-7.38-0.3-15.05,0.38-21.72,3.42
		c6.43-9.76,13.68-18.97,21.65-27.52c6.34,4.2,12.69,8.39,19.03,12.59c4.17,2.76,8.48,5.58,13.39,6.58c4.91,1,10.61-0.23,13.55-4.29
		c2.54-3.51,2.45-8.51,0.39-12.31c-2.07-3.8-5.84-6.47-9.92-7.91c-4.08-1.44-8.47-1.77-12.8-1.78c-6.93-0.01-14.08,0.84-20.34,3.66
		c5.91-6.05,12.17-11.74,18.78-17.02c1.96-1.56,3.95-3.07,5.96-4.56c6.67,4.1,13.33,8.2,20,12.3c4.26,2.62,8.66,5.3,13.6,6.14
		c4.94,0.84,10.6-0.58,13.41-4.73c2.42-3.59,2.17-8.58-0.02-12.31c-2.19-3.73-6.05-6.27-10.17-7.58c-4.12-1.31-8.52-1.49-12.85-1.36
		c-6.18,0.19-12.51,1.08-18.19,3.42c7-4.8,14.31-9.14,21.88-13c7.62,0.42,15.24,0.84,22.86,1.26c5,0.28,10.14,0.53,14.89-1.07
		c4.75-1.61,9.06-5.55,9.55-10.53c0.43-4.31-2.17-8.57-5.88-10.81c-3.7-2.24-8.31-2.63-12.56-1.82c-4.25,0.81-8.21,2.74-11.96,4.92
		c-6.9,4.01-13.47,9.16-17.41,16.05c-0.03,0.01-0.05,0.02-0.08,0.03c-8.06,4.09-15.83,8.74-23.26,13.88
		c3.73-5.25,6.01-11.57,7.5-17.89c0.99-4.21,1.69-8.56,1.23-12.87c-0.46-4.3-2.18-8.59-5.4-11.49c-3.22-2.89-8.06-4.14-12.06-2.48
		c-4.63,1.92-7.15,7.19-7.31,12.19s1.58,9.85,3.3,14.55c2.62,7.16,5.23,14.32,7.85,21.48c-8.9,6.56-17.26,13.85-24.99,21.76
		c2.63-6.25,3.34-13.3,3.21-20.14c-0.08-4.33-0.48-8.71-2-12.76c-1.51-4.05-4.24-7.78-8.08-9.78c-3.84-2-8.83-2.01-12.3,0.59
		c-4.01,3.01-5.14,8.74-4.06,13.62c1.09,4.89,3.98,9.15,6.81,13.27c4.31,6.28,8.62,12.56,12.93,18.84c-0.24,0.25-0.48,0.5-0.72,0.76
		c-7.74,8.39-14.78,17.41-21.06,26.93c2.03-7.32,1.32-15.26-0.37-22.71c-0.96-4.22-2.24-8.43-4.54-12.09
		c-2.3-3.66-5.73-6.76-9.9-7.94c-4.16-1.18-9.06-0.18-11.93,3.07c-3.32,3.76-3.27,9.59-1.22,14.16c2.05,4.56,5.75,8.15,9.36,11.61
		c5.67,5.45,11.34,10.89,17.01,16.34c-0.09,0.13-0.17,0.27-0.26,0.4l-0.22,0c0.05,0.04,0.1,0.07,0.15,0.11
		c-5.96,9.36-11.18,19.19-15.57,29.39c-0.91-6.76-3.85-13.26-7.42-19.15c-2.28-3.77-4.88-7.43-8.28-10.23
		c-3.4-2.8-7.72-4.7-12.12-4.51s-8.82,2.73-10.54,6.79c-2,4.69-0.07,10.32,3.38,14.07c3.45,3.75,8.18,6.03,12.78,8.23
		c6.54,3.12,13.08,6.23,19.62,9.35c0.18,0.13,0.36,0.26,0.54,0.38c-4.54,11.36-8.05,23.12-10.43,35.12
		c-0.25,1.27,1.68,1.9,1.93,0.62c2.34-11.8,5.77-23.35,10.2-34.51c5.78,4.15,11.56,8.3,17.34,12.45c4.06,2.92,8.26,5.9,13.12,7.09
		C1115.9,492.42,1121.65,491.41,1124.75,487.46z"/><path fill="#87ad34" d="M510.57,337.06c-1.12-4.18,0.74-8.82,4.03-11.63c3.29-2.81,7.76-3.96,12.09-3.85
		c4.33,0.11,8.54,1.37,12.59,2.9c6.7,2.54,13.27,6.04,18.17,11.18c0.05-10.51-0.71-21.03-2.28-31.45c-0.14-0.95-0.3-1.89-0.46-2.84
		c-7.32,1.63-14.64,3.27-21.96,4.9c-4.88,1.09-9.91,2.19-14.85,1.37c-4.94-0.81-9.83-4-11.13-8.84c-1.12-4.18,0.74-8.82,4.03-11.63
		c3.29-2.81,7.76-3.96,12.09-3.85c4.33,0.11,8.54,1.37,12.59,2.9c6.91,2.62,13.69,6.26,18.63,11.67c-2.09-11.5-5.14-22.82-9.11-33.8
		c-7.48,1.37-14.96,2.74-22.44,4.11c-4.92,0.9-9.99,1.8-14.9,0.8c-4.91-1-9.67-4.37-10.78-9.26c-0.96-4.22,1.08-8.79,4.47-11.47
		c3.39-2.68,7.91-3.66,12.23-3.38c4.32,0.27,8.49,1.69,12.47,3.38c6.38,2.71,12.62,6.3,17.27,11.35
		c-3.06-7.88-6.59-15.58-10.59-23.02c-1.19-2.2-2.43-4.38-3.69-6.53c-7.74,1.16-15.48,2.31-23.22,3.47
		c-4.95,0.74-10.05,1.47-14.92,0.31c-4.87-1.16-9.52-4.69-10.48-9.61c-0.82-4.25,1.37-8.74,4.85-11.32
		c3.48-2.57,8.03-3.4,12.33-2.98c4.31,0.41,8.43,1.97,12.35,3.79c5.61,2.6,11.08,5.91,15.38,10.29
		c-4.56-7.16-9.58-14.02-15.02-20.54c-7.17-2.6-14.34-5.21-21.52-7.81c-4.71-1.71-9.54-3.49-13.27-6.83
		c-3.73-3.34-6.15-8.66-4.65-13.44c1.3-4.13,5.36-7.03,9.65-7.64c4.28-0.6,8.68,0.84,12.27,3.26c3.59,2.42,6.48,5.75,9.07,9.22
		c4.78,6.4,8.79,13.71,9.72,21.59c0.02,0.02,0.04,0.03,0.06,0.06c5.81,6.93,11.13,14.25,15.94,21.89c-1.37-6.29-0.98-13,0.12-19.4
		c0.74-4.27,1.8-8.54,3.91-12.32c2.11-3.78,5.38-7.05,9.47-8.45c4.09-1.4,9.03-0.64,12.06,2.45c3.5,3.58,3.75,9.42,1.94,14.08
		c-1.82,4.67-5.32,8.44-8.74,12.09c-5.22,5.56-10.43,11.12-15.65,16.68c5.61,9.53,10.44,19.51,14.45,29.82
		c0.03-6.78,2.14-13.55,4.95-19.78c1.77-3.95,3.86-7.82,6.85-10.96c2.98-3.13,6.96-5.49,11.27-5.83c4.31-0.34,8.91,1.62,11.08,5.37
		c2.51,4.34,1.3,10.05-1.61,14.12c-2.92,4.07-7.25,6.85-11.47,9.54c-6.43,4.08-12.86,8.17-19.29,12.26
		c0.12,0.33,0.24,0.65,0.36,0.98c3.82,10.75,6.76,21.81,8.8,33.04c1.01-7.53,4.78-14.55,9.26-20.75c2.54-3.51,5.37-6.88,8.92-9.34
		c3.56-2.46,7.93-3.97,12.22-3.42c4.29,0.55,8.4,3.39,9.77,7.51c1.58,4.76-0.76,10.11-4.44,13.5c-3.68,3.39-8.48,5.24-13.16,7.01
		c-7.35,2.78-14.71,5.57-22.06,8.35c0.03,0.16,0.05,0.31,0.08,0.47l0.2,0.09c-0.06,0.01-0.12,0.03-0.18,0.04
		c1.81,10.95,2.75,22.04,2.79,33.15c3.49-5.86,8.75-10.68,14.34-14.7c3.58-2.57,7.4-4.92,11.63-6.16c4.23-1.24,8.94-1.29,12.92,0.61
		c3.98,1.9,7.04,5.97,7.03,10.38c0,5.1-3.98,9.52-8.63,11.62c-4.65,2.1-9.89,2.34-14.99,2.55c-7.24,0.3-14.48,0.6-21.71,0.9
		c-0.21,0.05-0.43,0.1-0.64,0.14c-0.28,12.23-1.67,24.42-4.19,36.39c-0.27,1.26-2.29,1.09-2.02-0.19
		c2.48-11.77,3.85-23.74,4.16-35.75c-6.95,1.55-13.89,3.1-20.84,4.65c-4.88,1.09-9.91,2.19-14.85,1.37
		C516.76,345.09,511.87,341.9,510.57,337.06z"/><path fill="#4c4ca8" d="M615.8,187.97l-0.51,1.97c4.29,3.92,9.59,8.23,15.96,12.41c5.77,3.79,11.26,6.73,16.15,9.01
				c0.54-0.41,1.08-0.82,1.62-1.23c-5.03-2.25-10.77-5.23-16.82-9.21C625.53,196.56,620.1,192.03,615.8,187.97z"/><path fill="#4c4ca8" d="M613.07,198.44c-0.19,0.64-0.39,1.28-0.58,1.92c3.19,3.3,7.44,7.1,12.89,10.66
				c4.88,3.18,9.53,5.39,13.48,6.94c0.52-0.42,1.04-0.85,1.56-1.27c-4.07-1.51-8.96-3.75-14.09-7.09
				C620.61,205.87,616.25,201.86,613.07,198.44z"/><path fill="#fff" d="M658.48,204.59c2.12-3.77,12.36-21.29,23.57-29.04c11.67-8.07,19.5-4.12,20.59-3.5
					c0.27,1.22,1.72,9.87-9.44,18.63C682.48,199.09,662.71,203.68,658.48,204.59z"/><path fill="#ddddeb" d="M693.21,190.67c-10.72,8.41-30.5,13-34.72,13.91c34.72-11.32,44.16-32.54,44.16-32.54
					C702.92,173.27,704.37,181.92,693.21,190.67z"/><path fill="#4c4ca8" d="M694.88,178.06c-21.53,15.06-43.07,30.12-64.6,45.18c-0.82,0.5-0.97,1.45-0.6,1.88
				c0.34,0.39,1.19,0.41,1.83-0.14C652.63,209.34,673.76,193.7,694.88,178.06z"/><path fill="#fff" d="M653.6,197.34c1.65-3.99,9.7-22.63,19.89-31.68c10.61-9.42,18.86-6.45,20.02-5.96
					c0.42,1.18,2.9,9.59-7.12,19.63C676.76,188.98,657.68,195.93,653.6,197.34z"/><path fill="#ddddeb" d="M686.38,179.34c-9.63,9.65-28.7,16.59-32.79,18c33.1-15.43,39.91-37.64,39.91-37.64
					C693.92,160.88,696.41,169.29,686.38,179.34z"/><path fill="#4c4ca8" d="M685.74,166.87c-19.34,17.79-38.68,35.58-58.02,53.37c-0.74,0.61-0.77,1.57-0.34,1.94
				c0.39,0.34,1.24,0.25,1.8-0.39C648.03,203.48,666.89,185.17,685.74,166.87z"/><path fill="#fff" d="M649.8,189.15c1.08-4.18,6.49-23.75,15.34-34.12c9.22-10.79,17.79-8.98,19.01-8.66
					c0.58,1.11,4.2,9.1-4.35,20.43C671.59,177.69,653.65,187.19,649.8,189.15z"/><path fill="#ddddeb" d="M679.8,166.81c-8.21,10.88-26.14,20.39-30,22.35c30.66-19.84,34.34-42.78,34.34-42.78
					C684.72,147.49,688.34,155.48,679.8,166.81z"/><path fill="#4c4ca8" d="M675.37,158.01c-16.96,20.07-33.92,40.15-50.88,60.22c-0.66,0.69-0.57,1.65-0.1,1.97
				c0.43,0.29,1.26,0.1,1.73-0.61C642.54,199.06,658.96,178.53,675.37,158.01z"/><path fill="#fff" d="M642.53,184.43c0.71-4.26,4.37-24.23,12.28-35.33c8.23-11.56,16.93-10.51,18.17-10.3
					c0.67,1.06,4.98,8.69-2.54,20.73C663.23,171.09,646.2,182.14,642.53,184.43z"/><path fill="#ddddeb" d="M670.45,159.53c-7.22,11.56-24.25,22.61-27.91,24.9c28.79-22.46,30.45-45.63,30.45-45.63
					C673.65,139.86,677.96,147.5,670.45,159.53z"/><path fill="#4c4ca8" d="M665.88,150.8c-15.21,21.43-30.41,42.86-45.62,64.29c-0.6,0.75-0.43,1.7,0.07,1.97
				c0.45,0.25,1.26-0.01,1.68-0.75C636.63,194.47,651.25,172.64,665.88,150.8z"/><path fill="#fff" d="M635.36,179.08c0.08-4.32,0.81-24.61,7.02-36.74c6.47-12.63,15.23-12.86,16.48-12.83
					c0.82,0.95,6.19,7.88,0.5,20.88C653.9,162.87,638.65,176.27,635.36,179.08z"/><path fill="#ddddeb" d="M659.36,150.39c-5.46,12.49-20.71,25.89-24.01,28.69c25.23-26.4,23.51-49.57,23.51-49.57
					C659.68,130.46,665.05,137.39,659.36,150.39z"/><g><path fill="#fff" d="M625.82,179.6c-0.19-4.32-0.74-24.61,4.7-37.11c5.66-13.01,14.39-13.79,15.64-13.84
					c0.88,0.9,6.67,7.47,1.81,20.81C643.31,162.26,628.93,176.6,625.82,179.6z"/><path fill="#ddddeb" d="M647.98,149.46c-4.67,12.8-19.05,27.14-22.15,30.14c23.52-27.93,20.34-50.95,20.34-50.95
					C647.05,129.55,652.84,136.13,647.98,149.46z"/></g><g><path fill="#fff" d="M617.23,178.81c-0.54-4.29-2.74-24.47,1.66-37.37c4.58-13.43,13.22-14.92,14.47-15.06
					c0.95,0.82,7.26,6.91,3.5,20.59C633.24,160.11,620.08,175.57,617.23,178.81z"/><path fill="#ddddeb" d="M636.85,146.97c-3.61,13.14-16.77,28.6-19.63,31.84c21.17-29.76,16.13-52.43,16.13-52.43
					C634.3,127.2,640.61,133.29,636.85,146.97z"/></g><path fill="#4c4ca8" d="M653.48,143.66c-12.56,23.08-25.13,46.16-37.69,69.24c-0.51,0.81-0.22,1.73,0.3,1.95
				c0.48,0.19,1.25-0.16,1.58-0.95C629.61,190.49,641.55,167.08,653.48,143.66z"/><path fill="#4c4ca8" d="M642.49,137.78c-9.95,24.32-19.9,48.64-29.86,72.96c-0.41,0.86-0.03,1.75,0.51,1.9
				c0.5,0.14,1.23-0.3,1.46-1.11C623.91,186.94,633.2,162.36,642.49,137.78z"/><path fill="#4c4ca8" d="M628.76,133.31c-6.63,25.43-13.26,50.85-19.9,76.28c-0.3,0.91,0.2,1.74,0.76,1.82
				c0.51,0.07,1.18-0.46,1.3-1.3C616.87,184.51,622.81,158.91,628.76,133.31z"/><path fill="#fff" d="M609.34,233.64L609.34,233.64c-6.38-4.26-8.38-12.73-4.57-19.39l4.04-7.27l25.34,16.91l-5.16,6.52
			C624.3,236.49,615.72,237.9,609.34,233.64z"/><path fill="#ddddeb" d="M605.72,230.21c0.97,1.31,2.18,2.48,3.62,3.44v0c6.38,4.26,14.97,2.85,19.65-3.22l5.16-6.52l-6.82-4.55
			l-2.44,0.11C624.89,219.46,621.12,236.99,605.72,230.21z"/><g><path fill="#e64835" d="M634.4,222.95l-24.84-16.58c-0.55-0.36-1.28-0.22-1.65,0.33s-0.22,1.28,0.33,1.65l24.84,16.58
				c0.55,0.36,1.28,0.22,1.65-0.33S634.95,223.31,634.4,222.95z"/></g><g><path fill="#ffc83f" d="M1144.93,234.56l-104.56,392.82l-1.42,5.31l-7.6,28.52l-3.3,12.41l-2.53,9.55l-3.3,12.41l-2.87,10.76
			l-3.32,12.43l-4.93,18.54l-22.57-4.86l3.87-19.32l2.52-12.62l2.19-10.93l2.51-12.6l1.94-9.69l2.53-12.6l5.26-26.36l1.47-7.32
			l79.95-399.81c3.24-16.15,17.26-26.93,30.84-23.69l5.97,1.43C1141.38,202.23,1149.25,218.37,1144.93,234.56z"/><path fill="#e6d2c3" d="M1127.57,198.94l-5.97-1.43c-2.79-0.67-5.6-0.71-8.34-0.26c9.07,6.15,13.69,18.95,10.51,31.97l-91.53,395.95
			l-6.13,4.3l-7,28.67l-3.04,12.48l-2.33,9.6l-3.04,12.48l-2.64,10.82l-3.06,12.49l-4.54,18.64l-11.92-2.31l-0.02,0.11l22.57,4.86
			l4.93-18.54l3.32-12.43l2.87-10.76l3.3-12.41l2.53-9.55l3.3-12.41l7.6-28.52l1.42-5.31l104.56-392.82
			C1149.25,218.37,1141.38,202.23,1127.57,198.94z"/><polygon fill="#8a5451" points="1040.37 627.38 1038.95 632.69 1031.35 661.21 1028.05 673.62 1025.52 683.17 1022.22 695.58 1019.35 706.34 1016.03 718.77 1011.1 737.31 988.52 732.44 992.39 713.12 994.91 700.51 997.1 689.58 999.61 676.98 1001.56 667.29 1004.09 654.69 1009.35 628.33 1010.81 621.01"/><ellipse cx="999.38" cy="737.12" fill="#ffc83f" rx="6.91" ry="16.92" transform="rotate(-76.567 999.413 737.152)"/><path fill="#939598" d="M1059.9,464.81l-10.88-2.35c-0.75-0.16-1.23-0.9-1.07-1.66l49.5-229.71c0.16-0.75,0.9-1.23,1.66-1.07
			l10.88,2.34c0.75,0.16,1.23,0.9,1.07,1.66l-49.5,229.71C1061.4,464.49,1060.65,464.97,1059.9,464.81z"/></g><g><path fill="#fff" d="M607.99,457.98c-0.41,0.31-0.86,0.57-1.31,0.86c3.85,10.78,6.02,21.94,6.95,32.3
			c0.51,5.46,0.73,10.87,0.76,16.33l-83.14-3.92c-7.87-36.46-10.29-73.5,2.86-108.55c2.91-7.79,5.46-14.55,10.3-22.97
			c1.48-2.58,1.57-8.69,2.99-11.36c4.84-9.21,14.22-7.08,14.96-10.31c5.44-23.37,14.84-28.12,19.94-38.72
			c0.76-1.63,1.42-3.15,1.9-4.53c16.76-50.41,49.28-66.61,82.53-70.41c11.71-1.35,23.53-1.19,34.77-0.42
			C690.55,310.68,676.79,413.92,607.99,457.98z"/><path fill="#302d70" d="M606.69,458.83c0.34,0.98,0.67,1.95,1,2.92c3.29,10.19,3.57,8.43,4.44,17.97
				c-12.73-5.04-71.5-22.62-88.52-32.66c-0.02,0,1.2,0.7,1.19,0.68c-5.63-14.06,0.96-17.07,2.09-27.77
				c0.95-9.02,5.54-16.84,7.22-24.99c1.7-8.23,3.76-15.86,10.31-22.96c31.55,20.15,60.03,44.08,94.99,57.72
				c-5.15,7.46-5.67,7.38-11.62,13.27C621.25,449.53,614.21,454.92,606.69,458.83z"/><path fill="#ffb24d" d="M606.69,458.83c0.34,0.98,0.67,1.95,1,2.92c-1.19-0.5-2.36-1-3.54-1.52
				c-13.86-6.03-27.47-12.54-40.83-19.57c-12.37-6.47-24.52-13.38-36.43-20.69c1.84-8.89,4.31-17.2,7.22-24.99
				c29.72,18.74,61.06,34.8,93.68,48.02C621.25,449.53,614.21,454.92,606.69,458.83z"/><path fill="#cddbe8" d="M614.39,507.47l-10.2-0.48c-0.17-5.22-0.69-10.43-1.96-15.53c-4.81-19.28-19.4-34.36-33.41-48.44
			c12.15,7.03,25.42,12.15,39.17,14.97c-0.41,0.31-0.86,0.57-1.31,0.86c3.85,10.78,6.02,21.94,6.95,32.3
			C614.14,496.59,614.36,502.01,614.39,507.47z"/><path fill="#fff" d="M1041.92,453.89c-2.22,8.9-10.31,17.62-12.14,29.32c-1.63,10.46-8.42,13.79-10.99,19.91
			c-3.13,7.47-18.02,33.82-22.19,41.44l-65.97-22.19c2.76-6.88,5.86-14.26,9.29-21.88c3.96-8.77,8.35-17.85,13.16-26.86
			c2.47-4.66,5.08-9.31,7.77-13.87c-4.97-3.21-9.91-6.69-14.75-10.44c-8.49-6.55-16.69-13.93-24.27-22.1
			c-5.77-6.21-11.2-12.86-16.14-19.97c-3.53-5.09-6.82-10.42-9.8-15.97c-6.73-12.43-11.94-25.92-15.1-40.53l-20.67-104.89
			c16.55,2.9,33.86,5.1,50.46,8.84c36.9,8.29,70.28,24.05,83.95,71.69c0.47,1.6,0.92,3.26,1.32,4.95c1.4,5.67,4.5,12.78,8.48,20.74
			c2.46,4.91,6.72,8.33,9.67,13.75c2.4,4.43-1.04,15.54,6.81,19.48c7.7,3.87,10.08,7.2,11.17,19.4c0.78,9.02,7.13,16.08,9.11,23.2
			c0.75,2.62,1.29,5.12,1.66,7.5l0.11,0.05C1044.09,440.72,1043.64,446.97,1041.92,453.89z"/><path fill="#fff" d="M871.33,523.09c1.27,9.67,6.64,23.67,2.09,38.64c-18.83,7.69-23.1-18.06-69.42-15.68
				c-6.41,0.32-13.6,1.19-21.74,2.76c-21.97,4.19-48.56,6.8-73.17,7.16c0,0-0.02-0.01-0.05,0.01c-0.5,0.02-1.05,0.01-1.57,0.03
				c0,0,0,0-0.02-0.01c-44.86,0.53-82.66-6.4-73.16-24.35c4.65-8.76,9.64-17.41,14.32-26.03c14.45-26.69,25.6-53.14,12.54-82.48
				c-2.16-4.86-4.25-9.96-6.23-15.24c-20.7-54.75-32.29-129.47-19.67-149.18c11.97-17.21,67.72-21.7,104.44-28.85
				c0,0,0.03-0.02,0.05-0.03c3.39-0.65,6.61-1.33,9.61-2.06c0.09,0,0.15,0.02,0.24,0.02c-12.91,58.53,90.03,63.54,96.73,12.11
				c0.19,0.05,0.37,0.08,0.53,0.12c3.27,1.56,6.84,3.13,10.6,4.73c0.87,0.37,1.77,0.75,2.67,1.12
				c35.11,14.65,85.46,31.03,91.4,50.39c2.36,9.51-16.61,50.89-35.47,89.84c-3.5,7.21-7,14.33-10.34,21.16
				c-9.88,20.04-18.52,37.51-22.54,46.81C863.7,489.21,868.39,500.92,871.33,523.09z"/><path fill="#fff" d="M873.41,561.74c-21.43,8.75-24.01-25.83-91.17-12.94c-62.6,12-162.77,10.84-147.97-17.14
			c4.64-8.78,9.65-17.42,14.32-26.03c12.98,9.27,32.27,17.62,59.83,17.91c51.93,0.58,117.08-20.75,162.9-0.44
			C872.6,532.78,877.96,546.76,873.41,561.74z"/><path fill="#302d70" d="M787.93,287.27c-61.35-6.79-48.26-57.4-48.26-57.4s5.31-2.63,9.91-2.07
			c-12.91,58.53,90.03,63.54,96.73,12.11c6.21,1.33,10.25,2.67,10.87,3.99C860.7,251.35,839.18,292.95,787.93,287.27z"/><path fill="#302d70" d="M1041.91,453.89c-2.54,9.5-4.44,24.16-12.14,29.33c-29.51,7.88-51.72-2.82-82.05,0.8
				c0.33-5.74,1.16-8.82,2.81-11.44c2.81-4.48,7.62-8.23,10.32-12.8c-4.98-3.22-14.76-10.43-14.76-10.43
				c-2.24-1.76-5.09-4.07-5.09-4.07s64.91-31.79,90.95-40.54c3.89,8.18,7.13,16.08,9.13,23.22c0.73,2.61,1.29,5.11,1.65,7.49
				l0.12,0.05C1044.09,440.72,1041.55,446.76,1041.91,453.89z"/><path fill="#ffb24d" d="M1041.91,453.89c-0.16,0.05-0.3,0.1-0.46,0.13c-21.19,6.35-85.58,12.03-85.58,12.03s2.28-1.72,4.98-6.29
				c-4.98-3.22-4.12-2.35-8.96-6.1c7.95-1.12,58.89-16.72,78.96-22.61c3.43-0.99,6.83-2.02,10.23-3.1c0.73,2.61,1.29,5.11,1.65,7.49
				l0.12,0.05C1044.09,440.72,1043.65,446.96,1041.91,453.89z"/><path fill="#302d70" d="M994.52,326.41c-15.17,6.13-36.83,2.99-56-9.66c-25.12-16.56-36.96-43.53-27.95-62.03
			C947.46,263.01,980.85,278.77,994.52,326.41z"/><path fill="#302d70" d="M645.14,285.38c-19.4,21.93-45.16,32.09-62.85,26.26c0.77-1.63,1.43-3.15,1.92-4.52
			c16.77-50.43,49.28-66.62,82.53-70.43C666.39,251.85,658.91,269.83,645.14,285.38z"/><path fill="#302d70" d="M786.54,430.19c-8.37-1.93-36.13,1.48-37.65-8.2c0.39-5.91-2.93-23.67,4.76-19.37
				c18.42,8.15,38.91,10.36,33.82-6.86c0,0-49.1-0.49-41.64-24.72c3-23.93,12.87-38.12,39.75-33.96
				c18.51,1.28,44.53,9.81,37.54,29.73C810.02,404.17,823.69,438.77,786.54,430.19z M792.93,373.22c0.28-3.42,2.78-7.68,0.33-10.69
				c-2.91-2.27-15.89-4.33-16.27,1.71c-0.11,3.41-2.91,7.42-0.67,10.47C778.98,376.91,792.28,379.04,792.93,373.22z"/><path fill="#cddbe8" d="M960.86,459.77c5.4,2.45-9.92-6.68-14.76-10.43c-8.5-6.57-16.68-13.94-24.27-22.11
			c-5.78-6.21-11.2-12.87-16.13-19.97c-9.87,20.06-18.52,37.52-22.53,46.82c-19.47,35.13-14.79,46.84-11.85,69
			c1.28,9.69,6.64,23.67,2.09,38.65c-18.82,7.68-23.09-18.08-69.42-15.69c35.48-6.97,59.02-50.99,38.05-47.85
			c-13,1.95-45.09,5.97-68.06-2.36c29.45,1.62,54.03-4.02,69.32-14.83c14.91-10.55,44.81-50.74,52.59-89.72
			c2.37-11.87,2.95-22.23,0.95-29.03c7.82,6.28,12.92,13.15,17.48,25.1C924.34,413.63,929.15,431.17,960.86,459.77z"/><path fill="#cddbe8" d="M707.44,555.99c-44.86,0.53-82.65-6.38-73.17-24.33c4.64-8.78,9.65-17.42,14.32-26.03
			c14.45-26.7,25.59-53.15,12.53-82.48c-2.15-4.85-4.24-9.95-6.22-15.23c9.48-11.72,17.74-30.61,25.84-50.4
			c1.61,11.95-10.69,45.68-3.39,66.15c10.21,28.59,16.23,48.51,16.07,63.34c-0.15,14.84-21.58,17.74-26.61,24.07
			C653.37,528,698.16,553.5,707.44,555.99z"/><path fill="#cddbe8" d="M709.08,555.97c-0.05,0.17-0.28,0.24-0.68,0.22c0.34-0.11,0.56-0.18,0.65-0.21
			C709.06,555.97,709.08,555.97,709.08,555.97z"/><path fill="#cddbe8" d="M870.42,259.62c0,0-12.5,37.38-58.98,47.86C830.24,310.37,873.87,301.01,870.42,259.62z"/><path fill="#cddbe8" d="M703.04,372.92c0,0-15.93,53.65,13.79,70.28s34.59,33.29,34.59,33.29s2.73-19.96-25.75-38.94
			C706.81,424.97,704.15,413.16,703.04,372.92z"/><path fill="#cddbe8" d="M943.34,332.31l9.25,24.69c0,0,42.03,17.73,52.72,36.38C1005.31,393.39,990.78,353.71,943.34,332.31z"/><path fill="#cddbe8" d="M683.71,314.02c7.01-10.21,14.13-20.62,17.76-32.46c1.75-5.71,2.58-11.74,2.18-17.71
			c-0.08-1.24,0.15-5.35-1.5-5.75c-1.33-0.32-2.76,1.82-3.33,2.71c-1.24,1.94-1.6,3.84-1.7,6.1c-0.14,3.15-0.43,6.3-0.85,9.43
			c-0.85,6.26-2.25,12.44-4.18,18.45C690.03,301.19,687.55,308.44,683.71,314.02z"/></g><g><path fill="#ffb24d" d="M936.31,491.81c0,0,0,0-0.04,0.05c-41.71,5.63-74.03,37.15-95.59,71.54l0,0.05
					c-16.74,26.71-28.6,56.33-36.85,86.64l-0.05,0c-0.71,2.79-1.4,5.56-2.06,8.29c-33.72-1.56-72.23-11.49-94.8-35.33
					c3.51-108.34,132.18-183.42,229.25-131.23L936.31,491.81z"/><path fill="#302d70" d="M937.15,491.7c-0.28,0.02-0.51,0.09-0.79,0.15c-0.05-0.04-0.05-0.04-0.05-0.04
					C936.59,491.79,936.87,491.72,937.15,491.7z"/><path fill="#302d70" d="M936.17,491.82c0.03,0.02,0.23-0.07,0.1,0.04c-41.71,5.63-74.03,37.15-95.59,71.54l0,0.05
					c-16.7,26.71-28.64,56.32-36.85,86.64l-0.05,0c-0.73,2.8-1.42,5.55-2.06,8.29c-17.93-0.76-35.81-3.94-51.79-9.43
					C773.11,526.4,837.39,438.32,936.17,491.82z"/><path fill="#ffb24d" d="M938.04,491.59c-0.56,0.04-1.12,0.13-1.68,0.27c-0.05-0.04-0.05-0.04-0.05-0.04
					C936.89,491.74,937.47,491.65,938.04,491.59z"/><path fill="#fff" d="M936.36,491.86c-0.05-0.04-0.05-0.04-0.05-0.04c0.57-0.07,1.16-0.16,1.73-0.23
					C937.48,491.63,936.92,491.72,936.36,491.86z"/><path fill="#fff" d="M983.61,527.97c-67.83-3.25-109.41,53.22-114.12,119.43c-23.87,9.08-43.45,12.05-67.72,10.98
					c0.61-2.7,1.41-5.6,2.06-8.29l0.05,0c8.16-30.32,20.1-59.92,36.8-86.64l0-0.05c21.4-34.4,54.15-65.99,95.59-71.54
					C954.18,500.84,970.22,513.15,983.61,527.97z"/><path fill="#302d70" d="M707.63,652.27c-0.15-0.13-0.31-0.31-0.42-0.49c0.15,0.13,0.26,0.31,0.41,0.44
				C707.63,652.27,707.63,652.27,707.63,652.27z"/><path fill="#ffb24d" d="M920.02,782.43c-92.35,38.56-203.6-31.29-212.38-130.11c46.98,56.89,132.35,51.37,197.26,34.66
				C919.43,715.69,929.51,752.67,920.02,782.43z"/><path fill="#ffb24d" d="M707.63,652.27c-0.15-0.13-0.31-0.31-0.42-0.49c0.15,0.13,0.26,0.31,0.41,0.44
				C707.63,652.27,707.63,652.27,707.63,652.27z"/><path fill="#302d70" d="M921.4,734.09c-99.95,34.03-206.06,28.74-213.76-81.78c46.98,56.89,132.35,51.37,197.26,34.66
				C912.62,702.14,918.4,718.39,921.4,734.09z"/><path fill="#ddddeb" d="M900,685.98c-3.3,0.72-6.7,1.41-10.1,2.09c-1.67,0.36-3.36,0.63-5.08,0.96c-5.32,0.97-10.64,1.8-16.13,2.46
				c-1.22,0.14-2.39,0.28-3.56,0.46c-4.64,0.54-9.43,0.96-14.23,1.32c-7.1,0.49-14.31,0.81-21.56,0.7
				c-2.98,0.04-5.92-0.07-8.85-0.13c-2.99-0.15-5.98-0.3-8.88-0.55c-0.28,0.02-0.52,0.04-0.76,0.01c-2.19-0.16-4.42-0.32-6.57-0.54
				c-6.53-0.64-12.94-1.61-19.33-2.97c-2.06-0.36-4.18-0.86-6.29-1.32c-4.19-0.96-8.34-2.06-12.36-3.31
				c-2.04-0.65-4.03-1.35-6.02-2.05c-1.12-0.39-2.23-0.78-3.31-1.26c-2.05-0.84-4.1-1.63-6.2-2.51c-2.06-0.93-4.16-1.9-6.18-2.93
				c-1.03-0.54-1.97-1.03-3-1.57c-0.69-0.37-1.33-0.7-1.97-1.08c-0.99-0.54-1.98-1.12-2.97-1.71c-1.98-1.22-3.87-2.45-5.76-3.67
				c-1.89-1.27-3.75-2.65-5.51-4.02c-1.25-0.94-2.42-1.94-3.63-2.94c-0.76-0.6-1.47-1.26-2.13-1.87c-0.51-0.43-1.01-0.82-1.47-1.31
				c-0.81-0.74-1.68-1.53-2.5-2.36c-0.52-0.58-1.13-1.14-1.64-1.67l-0.05-0.04c-0.67-0.75-1.34-1.41-2.01-2.16
				c-0.62-0.71-1.29-1.41-1.92-2.22c-0.62-0.76-1.3-1.51-1.92-2.26c-0.36-0.45-0.73-0.89-1.09-1.34c0-0.05,0-0.05-0.01-0.09
				c-0.59-7.76-0.61-15.46-0.1-23.02l0-0.05c0.75-10.7,1.7-20.67,4.48-30.72c0.49-1.69,1.08-4,1.57-5.64
				c5.26,10.76,14.58,24.67,27.88,36.05c2.84,2.48,5.8,4.71,8.83,6.7c1.24,0.8,2.49,1.61,3.72,2.32
				c14.12,8.48,30.13,12.55,47.19,13.05l0.09-0.01c1.56,0.02,3.08,0.05,4.63-0.02c17.62-0.16,36.2-4.04,55.14-11.06
				c0.09-0.05,0.27-0.12,0.46-0.18c0.27-0.12,0.6-0.23,0.92-0.35c1.53,1.44,3.01,2.84,4.44,4.3c0.36,0.35,0.77,0.75,1.13,1.14
				l0,0.05c0.97,0.92,1.89,1.84,2.81,2.76c0.61,0.62,1.19,1.28,1.8,1.94c4.94,5.25,9.22,10.5,12.97,15.66
				C890.64,667.41,895.68,676.48,900,685.98z"/><path fill="#fff" d="M904.89,686.93c-64.9,16.8-150.24,22.31-197.26-34.61l0-0.05c-2.4-20.18-1.36-41.49,4-60.86
				c27.9,59.85,93.61,71.88,152.82,44.42c1.93,1.72,3.94,3.4,5.79,5.19l0,0.05C885.23,654.22,895.97,669.33,904.89,686.93z"/><path fill="#ddddeb" d="M894.87,689.49c-1.48,0.4-3.07,0.71-4.64,1.11c-6.56-40.83-29.59-53.21-29.59-53.21
				c0.83-0.3,1.61-0.64,2.43-0.99c0.09-0.05,0.27-0.12,0.46-0.18c0.27-0.12,0.59-0.28,0.92-0.4c0.61,0.52,1.22,1.09,1.82,1.61
				c1.37,1.17,2.68,2.35,3.96,3.58l0,0.05c1.77,1.52,3.3,2.96,4.83,4.5c5.16,5.04,9.66,10.09,13.63,15.09
				c6.01,8.15,11.46,17,16.19,26.28C901.6,687.8,898.26,688.67,894.87,689.49z"/><path fill="#ddddeb" d="M920.02,782.43c-0.58,0.47-1.11,0.89-1.74,1.32c-12.89,4.58-26.57,7.51-40.86,8.6
				c-4.51,0.34-8.99,0.5-13.44,0.46c-1.8-0.01-3.55-0.06-5.35-0.11c16.67-18.29,25.38-34.23,29.7-48.89
				c4.51-15.29,4.21-29.12,3.17-42.75c-0.28-3.67-0.73-7.13-1.27-10.45c1.58-0.31,3.11-0.71,4.65-1.06
				c3.44-0.78,6.78-1.65,10.02-2.56c7.73,15.16,13.51,31.41,16.5,47.11C924.71,751.53,924.67,768.36,920.02,782.43z"/><g><path fill="#ffb24d" d="M1023.73,621.94c5.4,71.78-37.6,136.53-102.97,160.9c34.82-46.02,25.61-108.81,5.87-159.32
					c-1.72-4.55-14.74-22.8-16.73-27.14c-4.87-11.04-10.35-21.46-16.22-31.63c23.63-21.95,52.92-39.57,84.47-42.52
					c1.91,1.9,3.65,3.74,5.45,5.73l0,0.05C1006.19,553.16,1020.96,585.65,1023.73,621.94z"/><path fill="#302d70" d="M980.14,743.71c-16.33,17.1-36.65,30.79-59.38,39.14c34.82-46.02,25.61-108.81,5.87-159.32
					c-1.72-4.55-14.74-22.8-16.73-27.14c-4.87-11.04-10.35-21.46-16.22-31.63c12.9-11.95,27.33-22.37,41.98-29.87
					C988.47,611.54,1004.7,696.21,980.14,743.71z"/><path fill="#fff" d="M947.14,684.8c1.64,54.96-13.16,83.56-23.95,97.15c-18.46,7.18-38.96,11.07-59.22,10.85
					c42.05-36.81,43.56-103.09,11.1-147.24c-69.73-61.41,18.08-80.8,18.57-80.76C918.07,583.43,943.78,636.99,947.14,684.8z"/></g><path fill="#ddddeb" d="M982.42,526.69c-10.29,0.88-26.38,3.81-43.65,12.93c-6.32,3.27-12.77,7.36-19.19,12.53
				c-6.99,5.64-13.44,11.66-19.25,17.87c-0.79,0.82-1.58,1.63-2.32,2.45c-21.9,24.08-34.36,49.85-34.94,62.71
				c-8.93-29.01,30.57-70.37,30.57-70.37c0.05,0,0.05,0.04,0.1,0.04c0-0.05-0.05-0.04-0.05-0.09c12.9-11.95,27.33-22.37,41.98-29.87
				c13.1-6.77,28.97-11.33,42.49-12.65C979.65,523.74,981.03,525.14,982.42,526.69z"/><ellipse cx="813.51" cy="548.64" fill="#a7a9ac" rx="85.2" ry="48.61" transform="rotate(-29.316 813.585 548.675)"/><path fill="#ddddeb" d="M1022.64,613.01l0.02-0.04c-0.37-2.66-0.77-5.18-1.28-7.8c-3.14-17.04-9.07-33.5-17.51-48.69
			c-0.04-0.02-0.06-0.09-0.06-0.09c35.88,147.21-182.75,251.81-293.65,111.67c8.37,38.05,30.56,72.9,64.5,96.4
			c3.65,2.54,7.44,4.93,11.36,7.19c12.42,7.15,25.38,12.43,38.61,15.9c0.83,0.26,1.68,0.48,2.56,0.66c0.85,0.22,1.67,0.41,2.52,0.63
			c22.82,5.24,46.26,5.24,68.59,0.47c42.52-9.04,81.19-35.42,104.58-76.08C1021.05,681.67,1027.14,646.5,1022.64,613.01z"/></g><g><path fill="#302d70" d="M314.12,158.62c-72.18,11.65-118.45,96.92-103.35,190.47s85.84,159.94,158.02,148.29
			c72.18-11.65,118.45-96.92,103.35-190.47C457.04,213.36,386.29,146.97,314.12,158.62z M367.1,486.95
			c-66.31,10.7-131.76-51.9-145.91-139.55s28.3-167.66,94.61-178.36c66.31-10.7,131.76,51.9,145.91,139.55
			C475.85,396.24,433.41,476.25,367.1,486.95z"/><path fill="#ffb24d" d="M221.19,347.41c-2.16-13.38-2.99-26.59-2.63-39.4l-10.61,1.71c-0.24,12.83,0.66,26.01,2.81,39.37
				c5.75,35.64,19.59,67.33,38.49,92.27l11.89-1.92C241.5,415.23,227.01,383.44,221.19,347.41z"/><path fill="#ffb24d" d="M461.71,308.59c5.81,36.03,2.06,70.77-8.98,99.93l11.89-1.92c10.1-29.62,13.27-64.06,7.52-99.7
				c-2.16-13.36-5.45-26.16-9.72-38.26l-10.61,1.71C456.18,282.41,459.55,295.21,461.71,308.59z"/><path fill="#302d70" d="M261.99,456.34c0,0,103.61,109.56,114.05,169.02l13.06-2.11l13.06-2.11
			c-8.8-59.72,55.09-196.31,55.09-196.31C397.55,501.06,332.65,514.41,261.99,456.34z M385.25,571.28
			c-0.87,4.35-6.67,5.29-8.86,1.43c-9.15-16.11-21.13-34-35.9-53.58c-2.44-3.23-0.03-7.84,4.01-7.67
			c17.82,0.75,35.07-2.04,51.75-8.35c3.78-1.43,7.52,2.19,6.22,6.02C394.62,532.35,388.87,553.1,385.25,571.28z"/><path fill="#302d70" d="M399.57,609.76l-24.67,3.98c0.37,57.85,9.12,113.62,26.97,167.14l24.67-3.98
			C426.65,720.49,417.42,664.8,399.57,609.76z"/><path fill="#ffb24d" d="M430.09,766.41l-34.89,5.63c-1.64,0.26-2.75,1.81-2.49,3.44l1.11,6.88c0.26,1.64,1.81,2.75,3.44,2.49
			l34.89-5.63c1.64-0.26,2.75-1.81,2.49-3.44l-1.11-6.88C433.27,767.26,431.73,766.14,430.09,766.41z"/><path fill="#b6b5eb" d="M464.16,352.5c0.03-0.54,0.05-1.08,0.07-1.62l-9.29,1.5l-3.17-19.63l12.33-1.99
				c-0.03-0.53-0.05-1.06-0.09-1.59l-12.49,2.02l-3.17-19.63l13.47-2.17c-0.04-0.26-0.08-0.52-0.12-0.78s-0.09-0.52-0.13-0.78
				l-13.47,2.17l-3.17-19.63l12.49-2.02c-0.14-0.52-0.28-1.02-0.42-1.54l-12.33,1.99l-3.17-19.63l9.29-1.5
				c-0.19-0.5-0.38-1.01-0.57-1.51l-8.97,1.45l-3.17-19.63l3.69-0.59c-0.26-0.5-0.51-0.99-0.77-1.48l-3.17,0.51l-1.4-8.69
				c-0.72-1.21-1.45-2.41-2.18-3.59l2.02,12.53l-19.63,3.17l-3.17-19.63l16.47-2.66c-0.33-0.48-0.66-0.97-0.99-1.45l-15.73,2.54
				l-3.17-19.63l4.48-0.72c-0.43-0.47-0.86-0.94-1.3-1.4l-3.43,0.55l-0.77-4.78c-0.63-0.61-1.26-1.21-1.9-1.8l1.1,6.84l-19.63,3.17
				l-3.17-19.63l8.44-1.36c-0.61-0.44-1.22-0.88-1.83-1.31l-6.86,1.11l-1-6.23c-0.59-0.35-1.18-0.7-1.77-1.04l1.21,7.52l-19.63,3.17
				l-3.17-19.63l1.43-0.23c-1.1-0.37-2.21-0.73-3.32-1.07l-19.56,3.16l-1.15-7.11c-0.54-0.04-1.08-0.08-1.62-0.12l1.21,7.48
				l-19.63,3.17l-1.58-9.77c-0.26,0.04-0.52,0.07-0.78,0.11c-0.26,0.04-0.52,0.1-0.78,0.14l1.58,9.77l-19.63,3.17l-1.21-7.48
				c-0.5,0.2-1.01,0.41-1.51,0.62l1.15,7.11l-19.56,3.16c-0.95,0.67-1.88,1.36-2.81,2.06l1.43-0.23l3.17,19.63l-19.63,3.17
				l-1.21-7.52c-0.46,0.51-0.91,1.02-1.36,1.54l1,6.23l-6.86,1.11c-0.45,0.6-0.89,1.21-1.32,1.82l8.44-1.36l3.17,19.63l-19.63,3.17
				l-1.1-6.84c-0.42,0.76-0.83,1.53-1.23,2.31l0.77,4.78l-3.43,0.55c-0.27,0.57-0.53,1.16-0.8,1.73l4.48-0.72l3.17,19.63
				l-15.73,2.54c-0.17,0.56-0.32,1.12-0.49,1.68l16.47-2.66l3.17,19.63l-19.63,3.17l-2.02-12.53c-0.33,1.36-0.64,2.72-0.94,4.09
				l1.4,8.69l-3.17,0.51c-0.09,0.55-0.18,1.1-0.27,1.65l3.69-0.59l3.17,19.63l-8.97,1.45c-0.03,0.54-0.05,1.08-0.07,1.62l9.29-1.5
				l3.17,19.63l-12.33,1.99c0.03,0.53,0.05,1.06,0.09,1.59l12.49-2.02l3.17,19.63l-13.47,2.17c0.04,0.26,0.08,0.52,0.12,0.78
				c0.04,0.26,0.09,0.52,0.13,0.78l13.47-2.17l3.17,19.63l-12.49,2.02c0.14,0.52,0.28,1.02,0.42,1.54l12.33-1.99l3.17,19.63
				l-9.29,1.5c0.19,0.5,0.38,1.01,0.57,1.51l8.97-1.45l3.17,19.63l-3.68,0.59c0.26,0.5,0.51,0.99,0.77,1.48l3.17-0.51l1.4,8.69
				c0.72,1.21,1.45,2.41,2.18,3.59l-2.02-12.53l19.63-3.17l3.17,19.63l-16.47,2.66c0.33,0.48,0.66,0.97,0.99,1.45l15.73-2.54
				l3.17,19.63l-4.48,0.72c0.43,0.47,0.86,0.94,1.3,1.4l3.43-0.55l0.77,4.78c0.63,0.61,1.26,1.21,1.9,1.8l-1.1-6.84l19.63-3.17
				l3.17,19.63l-8.44,1.36c0.61,0.44,1.22,0.88,1.83,1.31l6.86-1.11l1,6.23c0.59,0.35,1.18,0.7,1.77,1.04l-1.21-7.52l19.63-3.17
				l3.17,19.63l-1.43,0.23c1.1,0.37,2.21,0.73,3.32,1.07l19.56-3.16l1.15,7.11c0.54,0.04,1.08,0.08,1.62,0.12l-1.21-7.48l19.63-3.17
				l1.58,9.77c0.26-0.04,0.52-0.07,0.78-0.11c0.26-0.04,0.52-0.1,0.78-0.14l-1.58-9.77l19.63-3.17l1.21,7.48
				c0.5-0.2,1.01-0.41,1.51-0.62l-1.15-7.11l19.56-3.16c0.95-0.67,1.88-1.36,2.81-2.06l-1.43,0.23l-3.17-19.63l19.63-3.17l1.21,7.52
				c0.46-0.51,0.91-1.02,1.36-1.54l-1-6.23l6.86-1.11c0.45-0.6,0.89-1.21,1.32-1.82l-8.44,1.36l-3.17-19.63l19.63-3.17l1.1,6.84
				c0.42-0.76,0.83-1.53,1.23-2.31l-0.77-4.78l3.43-0.55c0.27-0.57,0.53-1.16,0.8-1.73L444,419.4l-3.17-19.63l15.73-2.54
				c0.17-0.56,0.32-1.12,0.49-1.68l-16.46,2.66l-3.17-19.63l19.63-3.17l2.02,12.53c0.33-1.36,0.64-2.72,0.94-4.09l-1.4-8.69
				l3.17-0.51c0.09-0.55,0.18-1.1,0.27-1.65l-3.68,0.59l-3.17-19.63L464.16,352.5z M266.01,404.62l-19.63,3.17l-3.17-19.63
				l19.63-3.17L266.01,404.62z M262.59,383.42l-19.63,3.17l-3.17-19.63l19.63-3.17L262.59,383.42z M259.17,362.23l-19.63,3.17
				l-3.17-19.63l19.63-3.17L259.17,362.23z M255.75,341.03l-19.63,3.17l-3.17-19.63l19.63-3.17L255.75,341.03z M252.33,319.83
				L232.69,323l-3.17-19.63l19.63-3.17L252.33,319.83z M248.91,298.63l-19.63,3.17l-3.17-19.63l19.63-3.17L248.91,298.63z
				 M294.05,443.6l-19.63,3.17l-3.17-19.63l19.63-3.17L294.05,443.6z M290.63,422.4L271,425.57l-3.17-19.63l19.63-3.17L290.63,422.4
				z M287.21,401.2l-19.63,3.17l-3.17-19.63l19.63-3.17L287.21,401.2z M283.79,380l-19.63,3.17l-3.17-19.63l19.63-3.17L283.79,380z
				 M280.37,358.81l-19.63,3.17l-3.17-19.63l19.63-3.17L280.37,358.81z M276.95,337.61l-19.63,3.17l-3.17-19.63l19.63-3.17
				L276.95,337.61z M273.52,316.41l-19.63,3.17l-3.17-19.63l19.63-3.17L273.52,316.41z M270.1,295.21l-19.63,3.17l-3.17-19.63
				l19.63-3.17L270.1,295.21z M266.68,274.01l-19.63,3.17l-3.17-19.63l19.63-3.17L266.68,274.01z M263.26,252.81l-19.63,3.17
				l-3.17-19.63l19.63-3.17L263.26,252.81z M318.67,461.38l-19.63,3.17l-3.17-19.63l19.63-3.17L318.67,461.38z M315.25,440.18
				l-19.63,3.17l-3.17-19.63l19.63-3.17L315.25,440.18z M311.83,418.98l-19.63,3.17l-3.17-19.63l19.63-3.17L311.83,418.98z
				 M308.41,397.78l-19.63,3.17l-3.17-19.63l19.63-3.17L308.41,397.78z M304.99,376.58l-19.63,3.17l-3.17-19.63l19.63-3.17
				L304.99,376.58z M301.56,355.38l-19.63,3.17l-3.17-19.63l19.63-3.17L301.56,355.38z M298.14,334.19l-19.63,3.17l-3.17-19.63
				l19.63-3.17L298.14,334.19z M294.72,312.99l-19.63,3.17l-3.17-19.63l19.63-3.17L294.72,312.99z M291.3,291.79l-19.63,3.17
				l-3.17-19.63l19.63-3.17L291.3,291.79z M287.88,270.59l-19.63,3.17l-3.17-19.63l19.63-3.17L287.88,270.59z M284.46,249.39
				l-19.63,3.17l-3.17-19.63l19.63-3.17L284.46,249.39z M281.04,228.19l-19.63,3.17l-3.17-19.63l19.63-3.17L281.04,228.19z
				 M343.29,479.15l-19.63,3.17l-3.17-19.63l19.63-3.17L343.29,479.15z M339.87,457.96l-19.63,3.17l-3.17-19.63l19.63-3.17
				L339.87,457.96z M336.45,436.76l-19.63,3.17l-3.17-19.63l19.63-3.17L336.45,436.76z M333.03,415.56l-19.63,3.17l-3.17-19.63
				l19.63-3.17L333.03,415.56z M329.61,394.36l-19.63,3.17l-3.17-19.63l19.63-3.17L329.61,394.36z M326.18,373.16l-19.63,3.17
				l-3.17-19.63l19.63-3.17L326.18,373.16z M322.76,351.96l-19.63,3.17l-3.17-19.63l19.63-3.17L322.76,351.96z M319.34,330.76
				l-19.63,3.17l-3.17-19.63l19.63-3.17L319.34,330.76z M315.92,309.57l-19.63,3.17l-3.17-19.63l19.63-3.17L315.92,309.57z
				 M312.5,288.37l-19.63,3.17l-3.17-19.63l19.63-3.17L312.5,288.37z M309.08,267.17l-19.63,3.17l-3.17-19.63l19.63-3.17
				L309.08,267.17z M305.66,245.97l-19.63,3.17l-3.17-19.63l19.63-3.17L305.66,245.97z M302.24,224.77l-19.63,3.17l-3.17-19.63
				l19.63-3.17L302.24,224.77z M298.82,203.57l-19.63,3.17l-3.17-19.63l19.63-3.17L298.82,203.57z M364.49,475.73l-19.63,3.17
				l-3.17-19.63l19.63-3.17L364.49,475.73z M361.07,454.54l-19.63,3.17l-3.17-19.63l19.63-3.17L361.07,454.54z M357.65,433.34
				l-19.63,3.17l-3.17-19.63l19.63-3.17L357.65,433.34z M354.22,412.14l-19.63,3.17l-3.17-19.63l19.63-3.17L354.22,412.14z
				 M350.8,390.94l-19.63,3.17L328,374.47l19.63-3.17L350.8,390.94z M347.38,369.74l-19.63,3.17l-3.17-19.63l19.63-3.17
				L347.38,369.74z M343.96,348.54l-19.63,3.17l-3.17-19.63l19.63-3.17L343.96,348.54z M340.54,327.34l-19.63,3.17l-3.17-19.63
				l19.63-3.17L340.54,327.34z M337.12,306.15l-19.63,3.17l-3.17-19.63l19.63-3.17L337.12,306.15z M333.7,284.95l-19.63,3.17
				l-3.17-19.63l19.63-3.17L333.7,284.95z M330.28,263.75l-19.63,3.17l-3.17-19.63l19.63-3.17L330.28,263.75z M326.86,242.55
				l-19.63,3.17l-3.17-19.63l19.63-3.17L326.86,242.55z M323.44,221.35l-19.63,3.17l-3.17-19.63l19.63-3.17L323.44,221.35z
				 M320.02,200.15l-19.63,3.17l-3.17-19.63l19.63-3.17L320.02,200.15z M385.68,472.31l-19.63,3.17l-3.17-19.63l19.63-3.17
				L385.68,472.31z M382.26,451.11l-19.63,3.17l-3.17-19.63l19.63-3.17L382.26,451.11z M378.84,429.92l-19.63,3.17l-3.17-19.63
				l19.63-3.17L378.84,429.92z M375.42,408.72l-19.63,3.17l-3.17-19.63l19.63-3.17L375.42,408.72z M372,387.52l-19.63,3.17
				l-3.17-19.63l19.63-3.17L372,387.52z M368.58,366.32l-19.63,3.17l-3.17-19.63l19.63-3.17L368.58,366.32z M365.16,345.12
				l-19.63,3.17l-3.17-19.63l19.63-3.17L365.16,345.12z M361.74,323.92l-19.63,3.17l-3.17-19.63l19.63-3.17L361.74,323.92z
				 M358.32,302.73l-19.63,3.17l-3.17-19.63l19.63-3.17L358.32,302.73z M354.9,281.53l-19.63,3.17l-3.17-19.63l19.63-3.17
				L354.9,281.53z M351.48,260.33l-19.63,3.17l-3.17-19.63l19.63-3.17L351.48,260.33z M348.06,239.13l-19.63,3.17l-3.17-19.63
				l19.63-3.17L348.06,239.13z M344.64,217.93L325,221.1l-3.17-19.63l19.63-3.17L344.64,217.93z M341.21,196.73l-19.63,3.17
				l-3.17-19.63l19.63-3.17L341.21,196.73z M406.88,468.89l-19.63,3.17l-3.17-19.63l19.63-3.17L406.88,468.89z M403.46,447.69
				l-19.63,3.17l-3.17-19.63l19.63-3.17L403.46,447.69z M400.04,426.5l-19.63,3.17l-3.17-19.63l19.63-3.17L400.04,426.5z
				 M396.62,405.3l-19.63,3.17l-3.17-19.63l19.63-3.17L396.62,405.3z M393.2,384.1l-19.63,3.17l-3.17-19.63l19.63-3.17L393.2,384.1z
				 M389.78,362.9l-19.63,3.17l-3.17-19.63l19.63-3.17L389.78,362.9z M386.36,341.7l-19.63,3.17l-3.17-19.63l19.63-3.17
				L386.36,341.7z M382.94,320.5l-19.63,3.17l-3.17-19.63l19.63-3.17L382.94,320.5z M379.52,299.3l-19.63,3.17l-3.17-19.63
				l19.63-3.17L379.52,299.3z M376.1,278.11l-19.63,3.17l-3.17-19.63l19.63-3.17L376.1,278.11z M372.68,256.91l-19.63,3.17
				l-3.17-19.63l19.63-3.17L372.68,256.91z M369.25,235.71l-19.63,3.17l-3.17-19.63l19.63-3.17L369.25,235.71z M365.83,214.51
				l-19.63,3.17l-3.17-19.63l19.63-3.17L365.83,214.51z M362.41,193.31l-19.63,3.17l-3.17-19.63l19.63-3.17L362.41,193.31z
				 M424.66,444.27l-19.63,3.17l-3.17-19.63l19.63-3.17L424.66,444.27z M421.24,423.07l-19.63,3.17l-3.17-19.63l19.63-3.17
				L421.24,423.07z M417.82,401.88l-19.63,3.17l-3.17-19.63l19.63-3.17L417.82,401.88z M414.4,380.68l-19.63,3.17l-3.17-19.63
				l19.63-3.17L414.4,380.68z M410.98,359.48l-19.63,3.17l-3.17-19.63l19.63-3.17L410.98,359.48z M407.56,338.28l-19.63,3.17
				l-3.17-19.63l19.63-3.17L407.56,338.28z M404.14,317.08l-19.63,3.17l-3.17-19.63l19.63-3.17L404.14,317.08z M400.72,295.88
				l-19.63,3.17l-3.17-19.63l19.63-3.17L400.72,295.88z M397.3,274.68l-19.63,3.17l-3.17-19.63l19.63-3.17L397.3,274.68z
				 M393.87,253.49l-19.63,3.17l-3.17-19.63l19.63-3.17L393.87,253.49z M390.45,232.29l-19.63,3.17l-3.17-19.63l19.63-3.17
				L390.45,232.29z M387.03,211.09l-19.63,3.17l-3.17-19.63l19.63-3.17L387.03,211.09z M442.44,419.65l-19.63,3.17l-3.17-19.63
				l19.63-3.17L442.44,419.65z M439.02,398.46l-19.63,3.17l-3.17-19.63l19.63-3.17L439.02,398.46z M435.6,377.26l-19.63,3.17
				l-3.17-19.63l19.63-3.17L435.6,377.26z M432.18,356.06l-19.63,3.17l-3.17-19.63l19.63-3.17L432.18,356.06z M428.76,334.86
				l-19.63,3.17l-3.17-19.63l19.63-3.17L428.76,334.86z M425.33,313.66l-19.63,3.17l-3.17-19.63l19.63-3.17L425.33,313.66z
				 M421.91,292.46l-19.63,3.17L399.11,276l19.63-3.17L421.91,292.46z M418.49,271.26l-19.63,3.17l-3.17-19.63l19.63-3.17
				L418.49,271.26z M415.07,250.07l-19.63,3.17l-3.17-19.63l19.63-3.17L415.07,250.07z M411.65,228.87l-19.63,3.17l-3.17-19.63
				l19.63-3.17L411.65,228.87z M456.8,373.84L437.16,377l-3.17-19.63l19.63-3.17L456.8,373.84z M453.37,352.64l-19.63,3.17
				l-3.17-19.63l19.63-3.17L453.37,352.64z M449.95,331.44l-19.63,3.17l-3.17-19.63l19.63-3.17L449.95,331.44z M446.53,310.24
				l-19.63,3.17l-3.17-19.63l19.63-3.17L446.53,310.24z M443.11,289.04l-19.63,3.17l-3.17-19.63l19.63-3.17L443.11,289.04z
				 M439.69,267.84l-19.63,3.17l-3.17-19.63l19.63-3.17L439.69,267.84z"/><path fill="#ffb24d" d="M403.39,612.01l-31.41,5.07c-3.36,0.54-5.65,3.71-5.11,7.07l1.78,11.02c0.54,3.36,3.71,5.65,7.07,5.11
			l31.41-5.07c3.36-0.54,5.65-3.71,5.11-7.07l-1.78-11.02C409.92,613.75,406.76,611.47,403.39,612.01z"/></g><g><path fill="#fff" d="M815.82,794.4c-6.88,6.35-16.27,9.22-25.52,7.85l-23.67-3.5c-4.67-0.69-9.08-2.44-12.9-5.03
			c-3.73-2.53-6.92-5.89-9.26-9.87c-42.78-72.71-2.86-146.73,45.96-200.92c1.27-1.4,4.47-3.93,6.57-7.58
			c1.89-3.26,2.89-7.44,0.86-12.5c-0.45-1.17-1.08-2.39-1.89-3.65c-1.84-2.86-3.27-6.09-4.3-9.53c-1.22-4.07-1.92-8.45-2.1-12.94
			c-1.04-24.61,12.82-52.49,34.78-49.25l0.76,0.11c2,0.3,3.87,0.82,5.59,1.56c17.21,7.23,20.84,34.51,13.45,55.64
			c-1.47,4.25-3.4,8.24-5.75,11.77c-1.99,3-4.29,5.67-6.88,7.88c-1.14,0.97-2.1,1.97-2.87,2.95c-3.41,4.27-3.65,8.54-2.8,12.21
			c0.95,4.1,3.28,7.45,4.11,9.16C859.19,649.33,877.81,737.17,815.82,794.4z"/><path fill="#e64835" d="M825.85,579.62L797,575.35c1.89-3.26,2.89-7.44,0.86-12.5l30.79,4.55C825.24,571.68,825,575.95,825.85,579.62
			z"/><path fill="#e64835" d="M844.15,544.81c-1.47,4.25-3.4,8.24-5.75,11.77l-46.73-6.91c-1.22-4.07-1.92-8.45-2.1-12.94L844.15,544.81z"/><path fill="#ddddeb" d="M815.82,794.4c-6.88,6.35-16.27,9.22-25.52,7.85l-23.67-3.5c-4.67-0.69-9.08-2.44-12.9-5.03
			c103.33-36.22,92.1-153.42,68.64-198.98c-7.43-14.43-18.66-18.4-18.66-18.4c43.32-16.96,39.61-76.47,26.98-87.18
			c17.21,7.23,20.84,34.51,13.45,55.64c-1.47,4.25-3.4,8.24-5.75,11.77c-1.99,3-4.29,5.67-6.88,7.88c-1.14,0.97-2.1,1.97-2.87,2.95
			c-3.41,4.27-3.65,8.54-2.8,12.21c0.95,4.1,3.28,7.45,4.11,9.16C859.19,649.33,877.81,737.17,815.82,794.4z"/><ellipse cx="769.84" cy="684.76" fill="#bcbec0" rx="59.2" ry="24.64" transform="rotate(-76.385 769.815 684.757)"/><ellipse cx="811.05" cy="526.06" fill="#bcbec0" rx="31.15" ry="12.96" transform="rotate(-78.843 811.06 526.06)"/></g><g><path fill="#7a2323" d="M730.91,614.42c-18.8-59.88-104.71-92.42-175.29-73.6c-0.39,0.1-0.77,0.23-1.16,0.34
			c-0.39,0.1-0.78,0.18-1.17,0.28c-70.58,18.83-128.86,89.83-115.35,151.12c7.18,32.57,35.48,66.21,74.82,74.23
			c22.05,4.5,41.97-0.19,61.8-8.66c22.5-9.62,46.23-15.95,70.53-18.81c21.42-2.53,41.02-8.38,57.9-23.26
			C733.12,689.5,740.91,646.24,730.91,614.42z"/><path fill="#dbddde" d="M730.91,614.42c-18.81-59.88-104.71-92.42-175.29-73.6c-0.39,0.1-0.77,0.23-1.16,0.34
			c-0.39,0.1-0.78,0.18-1.17,0.28c-70.58,18.83-128.86,89.83-115.35,151.12c6.4,29.05,29.63,58.89,62.48,70.71
			c4.04-14.44,4.85-32.36-3.66-52c-4.62-10.67-22.43-46.64-22.43-46.64c-12.6-28.26,3.07-61.09,32.97-69.06l57.58-15.36l57.58-15.36
			c29.9-7.97,59.84,12.69,62.99,43.47c0,0,2.47,40.06,3.78,51.61c2.41,21.27,12.03,36.4,22.73,46.91
			C734.54,680.24,739.83,642.8,730.91,614.42z"/><path fill="#e64835" d="M705.88,516.43c-22.95-25.62-57.35-49.06-107.89-54.14c-21.33-2.14-42.78-0.58-63.4,4.36
			c-20.34,5.99-39.72,15.31-57.15,27.8c-41.29,29.57-59.45,67.04-66.59,100.68c-7.96,37.52-2.81,76.64,12.61,111.75l41.68,81.43
			c4.12,9.38,17.37,10.07,22.16,1.01c8.94-16.93,16.92-43.63,3.65-74.27c-4.93-11.38-23.91-49.72-23.91-49.72
			c-13.43-30.13,3.28-65.13,35.15-73.63l61.38-16.37l61.38-16.37c31.87-8.5,63.79,13.52,67.15,46.34c0,0,2.63,42.71,4.03,55.03
			c3.76,33.17,23.97,52.35,40.16,62.58c8.66,5.47,19.81-1.73,18.71-11.92l-4.41-91.37C746.49,581.48,731.47,545,705.88,516.43z"/><path fill="#fc6a6a" d="M516.59,556.46l78.36-20.9l5.16-73.02c-0.71-0.08-1.39-0.19-2.11-0.26c-21.33-2.14-42.78-0.58-63.4,4.36
			c-20.34,5.99-39.72,15.31-57.15,27.8c-0.59,0.42-1.12,0.86-1.7,1.28L516.59,556.46z"/><path fill="#7a2323" d="M610.14,463.9l-5.17,73.23l-10.08-0.71l5.24-73.92C603.54,462.89,606.9,463.35,610.14,463.9z"/><path fill="#7a2323" d="M517.07,557.17l-8.39,5.64l-40.95-60.92c2.53-2.09,5.22-4.17,7.97-6.21L517.07,557.17z"/><path fill="#dbddde" d="M413.43,604.9c7.14-33.64,25.3-71.11,66.59-100.68c17.43-12.48,36.81-21.81,57.15-27.8
			c20.62-4.94,42.07-6.5,63.4-4.36c50.53,5.08,84.94,28.52,107.89,54.14c17.59,19.64,30.19,43.02,37.68,68.11
			c-6.97-28.77-20.43-55.71-40.28-77.88c-22.95-25.62-57.35-49.06-107.89-54.14c-21.33-2.14-42.78-0.58-63.4,4.36
			c-20.34,5.99-39.72,15.31-57.15,27.8c-41.29,29.57-59.45,67.04-66.59,100.68c-6.18,29.11-4.43,59.18,3.85,87.6
			C408.68,657.24,407.96,630.69,413.43,604.9z"/><path fill="#1f2e33" d="M738.1,562.03c-4.56-16.54-14.64-28.77-29.98-36.37C662.4,503,441.87,561.82,413.51,604.25
			c-9.51,14.23-12.16,29.86-7.88,46.47c19.07,73.91,60.31,149.46,115.69,180.06c21.12,11.67,46.04,14.41,69.38,8.25l14.7-3.88
			l0.03,0.13l25.63-6.91l25.67-6.78l-0.03-0.13L674,816.8c19.5-5.26,36.77-16.93,48.47-33.4C760.38,730,759.35,639.17,738.1,562.03z
			 M445.79,718.65c20.61,7.13,44.43,8.2,67.77,6.15c1.23-0.11,2.41,0.54,2.96,1.65l14.87,29.92c0.95,1.92-0.34,4.19-2.47,4.35
			c-25.43,1.98-51.35-0.29-72.11-11.42c-0.49-0.26-0.9-0.66-1.19-1.14c-4.82-8.14-9.34-16.63-13.55-25.37
			C440.89,720.37,443.25,717.77,445.79,718.65z M522.24,820.34c-19.15-11.38-36.49-28.61-51.66-49.4c-1.68-2.3,0.48-5.43,3.22-4.68
			c19.64,5.36,41.27,5.77,62.13,3.65c1.25-0.13,2.45,0.53,3,1.65l28.12,56.57c1,2.02-0.49,4.42-2.74,4.35
			C549.61,832.06,535.11,827.99,522.24,820.34z M605.75,712.17c-0.97-3.65,1.2-7.4,4.85-8.38l14.79-3.94
			c11.32-3.02,23.66-6.81,36.11-11.5c4.31-1.62,8.95,1.4,9.23,6l1.52,25.23c0.19,3.1-1.73,5.94-4.69,6.91
			c-9.36,3.06-27.55,8.24-47.25,13.59c-3.66,0.99-7.43-1.18-8.4-4.84L605.75,712.17z M596.45,746.44
			c-19.75,5.17-38.1,9.74-47.74,11.75c-3.04,0.63-6.12-0.88-7.51-3.66l-11.25-22.63c-2.05-4.12,0.47-9.06,5.02-9.8
			c13.13-2.13,25.72-4.99,37.04-8.01l14.79-3.94c3.65-0.97,7.4,1.2,8.38,4.85l6.15,23.07C602.3,741.72,600.11,745.48,596.45,746.44z
			 M589.67,829.53c-1.64,0.44-3.3,0.82-4.96,1.16c-3.03,0.61-6.1-0.9-7.48-3.67l-25.02-50.34c-2.03-4.08,0.42-8.97,4.91-9.78
			c9.94-1.78,19.45-3.99,28.2-6.33l13.94-3.72c3.65-0.97,7.4,1.2,8.38,4.85l13.93,52.23c0.97,3.65-1.2,7.4-4.85,8.38l-13.75,3.67
			L589.67,829.53z M667.56,808.76l-13.29,3.55l-13.75,3.67c-3.65,0.97-7.4-1.2-8.38-4.85l-13.93-52.23c-0.97-3.65,1.2-7.4,4.85-8.38
			L637,746.8c8.75-2.33,18.09-5.15,27.6-8.56c4.29-1.54,8.85,1.48,9.13,6.03l3.37,56.11c0.19,3.09-1.72,5.93-4.66,6.91
			C670.83,807.83,669.21,808.32,667.56,808.76z M721.46,767.2c-7.34,13.02-17.86,23.76-30.37,31.44c-1.95,1.2-4.48-0.08-4.62-2.37
			l-3.79-63.05c-0.08-1.25,0.64-2.41,1.78-2.93c19.15-8.55,37.7-19.68,52.06-34.11c2.01-2.02,5.44-0.37,5.13,2.46
			C738.86,724.21,732.4,747.79,721.46,767.2z M742.83,673.02c-12.46,19.99-33.81,34.86-56.85,45.81c-1.93,0.92-4.18-0.41-4.31-2.54
			l-2-33.35c-0.07-1.24,0.62-2.39,1.74-2.91c21.26-9.85,41.38-22.64,55.7-39.08c1.77-2.03,5.1-0.94,5.3,1.74
			c0.7,9.68,1.01,19.29,0.88,28.75C743.28,671.99,743.12,672.54,742.83,673.02z M740.1,620.11c-22.33,37.91-79.56,59.56-120.92,70.7
			l-46.3,12.35c-41.42,10.94-101.83,20.66-140.07-1.09c-6.02-14.64-11.19-29.71-15.45-44.81c29.63-39.22,118.26-67,147.96-75.4
			c29.94-7.51,120.63-27.56,165.86-8.3C735.01,588.77,738.03,604.41,740.1,620.11z M562.8,572.39
			c-29.85,7.86-115.95,33.48-148.09,74.93c-3.26-13.64-1.05-25.99,6.79-37.72c23.61-35.34,244.29-94.2,282.37-75.32
			c12.64,6.27,20.71,15.88,24.67,29.33C680.01,543.67,592.59,564.34,562.8,572.39z"/><g><path fill="#fff" d="M588.26,520.34c-1.3-4.88-6.86-7.63-12.42-6.15c-5.56,1.48-9.01,6.64-7.71,11.52
					c0.03,0.09,0.06,0.19,0.08,0.28l-0.01,0l7.02,26.32l20.13-5.37l-7.02-26.32l0,0C588.3,520.53,588.28,520.43,588.26,520.34z"/><path fill="#7a2323" d="M594.45,546.82l-0.01-0.03l-18.09,4.82c-1.92,0.51-2.94,2.97-2.27,5.49c0.67,2.52,2.78,4.15,4.7,3.63
					l0.02,0.07l18.09-4.82l-0.01-0.03c1.92-0.51,2.94-2.97,2.27-5.49C598.47,547.93,596.37,546.3,594.45,546.82z"/><circle cx="578.22" cy="523.12" r="4.61" fill="#1f2e33"/><path fill="#7a2323" d="M575.33,524.45l4.47-4.06c0.05-0.05,0.14-0.04,0.18,0.01l0.71,0.78c0.05,0.05,0.04,0.14-0.01,0.18
					l-4.47,4.06c-0.05,0.05-0.14,0.04-0.18-0.01l-0.71-0.78C575.27,524.58,575.28,524.5,575.33,524.45z"/><path fill="#7a2323" d="M581.1,522.91l-5.9-1.29c-0.07-0.02-0.14,0.03-0.15,0.1l-0.23,1.03c-0.02,0.07,0.03,0.14,0.1,0.15l5.9,1.29
					c0.07,0.02,0.14-0.03,0.15-0.1l0.23-1.03C581.21,523,581.17,522.93,581.1,522.91z"/><g><path fill="#fff" d="M534.52,534.67c-1.3-4.88-6.86-7.63-12.42-6.15c-5.56,1.48-9.01,6.64-7.71,11.52
					c0.03,0.09,0.06,0.19,0.08,0.28l-0.01,0l7.02,26.32l20.13-5.37l-7.02-26.32l0,0C534.57,534.86,534.55,534.76,534.52,534.67z"/><path fill="#7a2323" d="M540.71,561.15l-0.01-0.03l-18.09,4.82c-1.92,0.51-2.94,2.97-2.27,5.49s2.78,4.15,4.7,3.63l0.02,0.07
					l18.09-4.82l-0.01-0.03c1.92-0.51,2.94-2.97,2.27-5.49C544.74,562.26,542.63,560.64,540.71,561.15z"/><circle cx="524.48" cy="537.45" r="4.61" fill="#1f2e33"/><path fill="#7a2323" d="M521.59,538.78l4.47-4.06c0.05-0.05,0.14-0.04,0.18,0.01l0.71,0.78c0.05,0.05,0.04,0.14-0.01,0.18
					l-4.47,4.06c-0.05,0.05-0.14,0.04-0.18-0.01l-0.71-0.78C521.54,538.91,521.54,538.83,521.59,538.78z"/><path fill="#7a2323" d="M527.36,537.25l-5.9-1.29c-0.07-0.02-0.14,0.03-0.15,0.1l-0.23,1.03c-0.02,0.07,0.03,0.14,0.1,0.15
					l5.9,1.29c0.07,0.02,0.14-0.03,0.15-0.1l0.23-1.03C527.48,537.33,527.43,537.26,527.36,537.25z"/></g></g></g><g><circle cx="743.31" cy="728.82" r="62.06" fill="#97b023"/><ellipse cx="707.69" cy="705.6" fill="#a7a9ac" rx="26.46" ry="13.27" transform="rotate(-56.282 707.723 705.594)"/><path fill="#e8edab" d="M787.33,706.84c-9.62-16.06-29.18-25.77-44.27-29.5c-4.33-1.07-7.16-2.73-8.41-4.95
			c-0.68-1.2-0.93-2.68-0.75-4.4l0.06-0.53c-3.09,0.47-6.11,1.18-9.06,2.1c0.07,2.65,0.72,5.09,1.95,7.25
			c2.52,4.45,7.25,7.56,14.07,9.25c13.34,3.29,30.52,11.7,38.73,25.4c4.75,7.93,5.9,16.89,3.42,26.62l-0.04,0.17
			c-2.11,9.82-7.13,17.32-14.93,22.31c-13.45,8.61-32.58,8.47-45.99,5.47c-6.85-1.53-12.48-0.86-16.71,2.01
			c-2.06,1.39-3.73,3.29-4.98,5.63c2.23,2.14,4.63,4.12,7.18,5.92l0.19-0.5c0.61-1.62,1.49-2.84,2.63-3.61
			c2.11-1.43,5.39-1.66,9.73-0.68c15.17,3.39,37.01,3.42,52.78-6.67c9.85-6.3,16.18-15.69,18.84-27.89
			C794.82,728.1,793.33,716.87,787.33,706.84z"/><path fill="#fff" d="M726.8,668.99c-0.01,2.51,0.56,4.83,1.71,6.87c2.25,3.97,6.57,6.77,12.86,8.33
			c13.72,3.39,31.41,12.07,39.91,26.28c5.02,8.39,6.24,17.84,3.63,28.09l-0.01,0.05l-0.01,0.05c-2.22,10.32-7.53,18.25-15.77,23.52
			c-13.95,8.93-33.65,8.81-47.44,5.73c-6.32-1.41-11.44-0.83-15.22,1.72c-1.94,1.31-3.49,3.14-4.6,5.39
			c1.32,1.18,2.69,2.31,4.11,3.39c0.63-1.69,1.66-3.38,3.35-4.53c2.56-1.73,6.34-2.06,11.23-0.97c14.8,3.31,36.05,3.36,51.33-6.42
			c9.42-6.03,15.47-15.02,18.01-26.72c2.94-11.6,1.53-22.35-4.21-31.94c-9.32-15.56-28.36-24.99-43.09-28.62
			c-4.86-1.2-8.1-3.17-9.62-5.87c-1-1.78-1.17-3.75-0.98-5.55C730.24,668.12,728.5,668.52,726.8,668.99z"/><path fill="#e8edab" d="M803.72,743.02c5.16-21.93-2.01-43.88-17.01-58.57c3.36,29.91,2.83,103.25-86.3,89.21
			c7.74,7.42,17.5,12.93,28.7,15.57C762.47,797.07,795.88,776.39,803.72,743.02z"/></g><g><path fill="#bd2714" d="M1016.65,611.68c35.55-35.63,65.6-78.31,87.96-128.07c10.37,24.02,18.85,49.38,25.2,75.76
				c28.58-7.94,57.51-18.89,86.33-33.2c-28.21,62.75-66.11,116.59-110.94,161.52C1075.68,662.36,1046.16,637.02,1016.65,611.68z"/><path fill="#bc9593" d="M1057.64,592.78c-13.6,7.18-27.29,13.46-40.99,18.9c4.45,3.82,8.91,7.65,13.36,11.47
				C1039.62,613.53,1048.84,603.4,1057.64,592.78z"/><path fill="#bd2714" d="M338.76,611.68c-35.55-35.63-65.6-78.31-87.96-128.07c-10.37,24.02-18.85,49.38-25.2,75.76
				c-28.58-7.94-57.51-18.89-86.33-33.2c28.21,62.75,66.11,116.59,110.94,161.52C279.73,662.36,309.25,637.02,338.76,611.68z"/><path fill="#bc9593" d="M297.77,592.78c13.6,7.18,27.29,13.46,40.99,18.9c-4.45,3.82-8.91,7.65-13.36,11.47
				C315.79,613.53,306.57,603.4,297.77,592.78z"/><path fill="#e64835" d="M1159.89,662.83c-33.65-23.88-67.3-47.75-100.95-71.63c-188.96,235.06-571.82,236.37-759.25,3.88
			c-33.37,24.22-66.73,48.44-100.1,72.66C437.32,973.08,921.48,972.23,1159.89,662.83z"/></g><g><path fill="#e64835" d="M902.32,169.38c0,0,8.37,11.2-5.06,18.91l-0.57,0.29c-117.65,71.6-187.34-50.1-187.34-50.1l-0.36-0.49
			c0,0-8.37-11.2,5.06-18.91l0.57-0.31c0,0,121.14-70.67,187.34,50.1L902.32,169.38z"/><path fill="#7a2323" d="M904.7,179.23c-0.15,0.77-0.39,1.56-0.75,2.35L706.5,128.78l0.59-2.39l0,0L904.7,179.23z"/><path fill="#f8caaa" d="M850.36,161.86l-82.19-21.98c-1.55-0.41-3.14,0.51-3.56,2.06l-0.55,2.06c-0.41,1.55,0.51,3.14,2.06,3.56
			l82.19,21.98c1.55,0.41,3.14-0.51,3.56-2.06l0.55-2.06C852.83,163.87,851.91,162.28,850.36,161.86z"/><path fill="#7a2323" d="M860.21,152.07c-1.33-2.64-5.22-7.79-15.4-8.17c-2.69-0.1-5.82,0.13-9.46,0.84c-1-0.99-7.28-6.87-15.6-7.18
			c-2.31-0.09-4.77,0.26-7.32,1.25c-4.68-5.84-11.5-7.36-16.66-7.55c-3.58-0.13-6.35,0.37-7.06,0.52
			c-6.25-5.18-11.26-7.04-15.54-7.2c-3.24-0.12-6.07,0.73-8.7,1.85c-1.11,0.47-3.83,1.93-5.12,5.27c-1.09,2.84-0.8,6.15,0.86,9.85
			c-2.82,1.66-4.67,3.93-5.37,6.59c-0.73,2.78-0.2,5.84,1.49,8.64c2.9,4.79,7.73,7.29,14.68,7.55c2.31,0.09,4.86-0.08,7.64-0.48
			c0.43-0.06,0.86-0.13,1.3-0.21c1.05,0.98,8.14,7.27,16.9,7.6c1.09,0.04,2.2-0.01,3.33-0.18c1.29-0.19,2.59-0.53,3.91-1.04
			c4.35,5.42,10.3,6.92,15.06,7.09c3.84,0.14,6.91-0.57,7.73-0.79c5.06,5.54,10.73,7.74,15.9,7.93c1.27,0.05,2.51-0.03,3.71-0.2
			c2.01-0.29,3.9-0.88,5.57-1.66c1.82-0.85,4.14-2.87,5.2-6c0.96-2.85,0.63-6.01-0.95-9.16
			C864.49,161.19,860.67,152.99,860.21,152.07z M854.43,168.19c1.33,2.63,1.62,5.23,0.84,7.52c-0.85,2.51-2.74,4.13-4.09,4.76
			c-1.56,0.73-3.24,1.23-4.98,1.48c-1.1,0.16-2.21,0.22-3.32,0.18c-5.29-0.2-10.27-2.7-14.42-7.25c-0.39-0.42-0.92-0.67-1.48-0.69
			c-0.2-0.01-0.41,0.01-0.61,0.07c-0.78,0.2-3.59,0.85-7.12,0.72c-5.77-0.22-10.31-2.34-13.49-6.31c-0.39-0.49-0.97-0.77-1.57-0.79
			c-0.28-0.01-0.57,0.04-0.84,0.14c-1.12,0.44-2.28,0.74-3.45,0.92c-0.96,0.14-1.95,0.19-2.95,0.16c-8.07-0.3-14.8-6.35-15.54-7.03
			c-0.37-0.35-0.86-0.54-1.36-0.56c-0.14-0.01-0.29,0-0.43,0.03c-0.42,0.07-0.85,0.14-1.25,0.2c-2.65,0.39-5.09,0.54-7.25,0.46
			c-6.2-0.23-10.43-2.37-12.95-6.53c-1.39-2.29-1.84-4.78-1.25-7.01c0.55-2.1,2.07-3.94,4.4-5.31c0.93-0.55,1.3-1.7,0.86-2.69
			c-1.42-3.17-1.7-5.94-0.82-8.23c1-2.59,3.11-3.72,3.98-4.09c2.95-1.26,5.35-1.78,7.79-1.69c4.35,0.16,9.02,2.36,14.27,6.72
			c0.36,0.3,0.81,0.47,1.27,0.49c0.17,0.01,0.33-0.01,0.5-0.04c0.5-0.1,3.15-0.6,6.56-0.47c4.55,0.17,10.86,1.48,15.09,6.76
			c0.39,0.49,0.97,0.77,1.57,0.79c0.28,0.01,0.57-0.04,0.85-0.14c2.1-0.82,4.28-1.19,6.48-1.11c7.61,0.28,13.54,5.93,14.19,6.58
			c0.38,0.38,0.88,0.59,1.41,0.61c0.16,0.01,0.32-0.01,0.48-0.04c3.27-0.63,6.29-0.9,8.98-0.8c8.92,0.33,12.34,4.53,13.59,7.01
			c0.62,1.23,3.36,7.62-3.27,12.53C854.23,166.16,853.96,167.27,854.43,168.19z"/><path fill="#f1b68e" d="M888.09,147.25c0,0-8.26-10.64-13.58-15.61c-8.49,25.43-15.29,50.61-20.4,75.53c0,0,0.8,0.29,8.5-2.5
			c5.05-1.56,10.61-3.44,11.28-4.36C876.81,182.12,881.61,164.45,888.09,147.25z"/><path fill="#f1b68e" d="M743.26,106.53c-7.19,18.52-12.25,37.47-15.2,56.84c5.59,6.49,14.18,14.1,14.18,14.1
			c4.03-25.62,10.73-50.96,20.08-76.03C762.32,101.44,752.02,103.55,743.26,106.53z"/><path fill="#dbddde" d="M897.26,188.29l-0.57,0.29c-117.65,71.6-187.34-50.1-187.34-50.1l-0.36-0.49c0,0-5.93-7.93,0.2-15.04
			c0,0,94.21,100.59,171.93,15.8c0.01-0.01,0.02-0.02,0.03-0.03c7.35,8.39,14.35,18.36,20.81,30.16l0.36,0.52
			C902.32,169.38,910.68,180.58,897.26,188.29z"/><rect width="2.04" height="22.36" x="840.13" y="152.33" fill="#f1b68e" transform="rotate(14.976 841.075 163.481)"/><rect width="2.04" height="22.36" x="826.67" y="148.73" fill="#f1b68e" transform="rotate(14.976 827.614 159.88)"/><rect width="2.04" height="22.36" x="813.21" y="145.13" fill="#f1b68e" transform="rotate(14.976 814.153 156.281)"/><rect width="2.04" height="22.36" x="799.75" y="141.53" fill="#f1b68e" transform="rotate(14.976 800.691 152.681)"/><rect width="2.04" height="22.36" x="786.28" y="137.93" fill="#f1b68e" transform="rotate(14.976 787.23 149.08)"/><rect width="2.04" height="22.36" x="772.82" y="134.33" fill="#f1b68e" transform="rotate(14.976 773.769 145.48)"/><ellipse cx="770.87" cy="156.29" fill="#7a2323" rx="1.39" ry="1.63" transform="rotate(-75.024 770.916 156.284)"/><ellipse cx="776.65" cy="134.68" fill="#7a2323" rx="1.39" ry="1.63" transform="rotate(-75.024 776.694 134.679)"/><ellipse cx="784.35" cy="159.89" fill="#7a2323" rx="1.39" ry="1.63" transform="rotate(-75.024 784.396 159.889)"/><ellipse cx="790.13" cy="138.29" fill="#7a2323" rx="1.39" ry="1.63" transform="rotate(-75.024 790.174 138.284)"/><ellipse cx="797.83" cy="163.5" fill="#7a2323" rx="1.39" ry="1.63" transform="rotate(-75.024 797.876 163.494)"/><ellipse cx="803.6" cy="141.89" fill="#7a2323" rx="1.39" ry="1.63" transform="rotate(-75.024 803.654 141.889)"/><ellipse cx="817.08" cy="145.5" fill="#7a2323" rx="1.39" ry="1.63" transform="rotate(-75.024 817.133 145.494)"/><ellipse cx="824.78" cy="170.71" fill="#7a2323" rx="1.39" ry="1.63" transform="rotate(-75.024 824.835 170.704)"/><ellipse cx="830.56" cy="149.1" fill="#7a2323" rx="1.39" ry="1.63" transform="rotate(-75.024 830.613 149.099)"/><ellipse cx="838.26" cy="174.31" fill="#7a2323" rx="1.39" ry="1.63" transform="rotate(-75.024 838.315 174.309)"/><ellipse cx="844.04" cy="152.71" fill="#7a2323" rx="1.39" ry="1.63" transform="rotate(-75.024 844.093 152.704)"/><ellipse cx="811.3" cy="167.1" fill="#7a2323" rx="1.39" ry="1.63" transform="rotate(-75.024 811.355 167.099)"/><path fill="#e6e7e8" d="M897.26,188.29l-0.57,0.29c-117.65,71.6-187.34-50.1-187.34-50.1l-0.36-0.49c0,0-3.13-4.19-2.49-9.2
			c0,0,50.03,68.74,124.39,65.46c53.64-2.37,66-34.09,66-34.09s0,0,0,0c1.72,2.79,3.42,5.69,5.07,8.71l0.36,0.52
			C902.32,169.38,910.68,180.58,897.26,188.29z"/><path fill="#a7a8ab" d="M751.9,108.63c12.8-6.39,56.84-7.8,76.52,4.22c21.92,13.39-21.51,1.07-44.89-1.22
			C764.99,109.8,740.39,114.38,751.9,108.63z"/></g></svg>