<svg xmlns="http://www.w3.org/2000/svg" viewBox="0 0 1364 960"><polygon fill="#fb0" points="1202.88 372.44 1198.96 384.51 1186.27 384.51 1196.54 391.97 1192.62 404.04 1202.88 396.58 1213.15 404.04 1209.23 391.97 1219.49 384.51 1206.81 384.51 1202.88 372.44"/><polygon fill="#049c9a" points="354.36 113.48 350.44 125.55 337.75 125.55 348.01 133 344.09 145.07 354.36 137.61 364.62 145.07 360.7 133 370.97 125.55 358.28 125.55 354.36 113.48"/><polygon fill="#049c9a" points="1130.3 672.7 1128.23 679.07 1121.53 679.07 1126.95 683.01 1124.88 689.38 1130.3 685.44 1135.72 689.38 1133.65 683.01 1139.07 679.07 1132.37 679.07 1130.3 672.7"/><polygon fill="#013857" points="245.93 731.21 243.86 737.58 237.16 737.58 242.58 741.51 240.51 747.88 245.93 743.95 251.35 747.88 249.28 741.51 254.7 737.58 248 737.58 245.93 731.21"/><polygon fill="#fb0" points="674.49 70.31 672.42 76.68 665.72 76.68 671.14 80.62 669.07 86.99 674.49 83.05 679.9 86.99 677.84 80.62 683.25 76.68 676.56 76.68 674.49 70.31"/><polygon fill="#013857" points="927.05 102.51 924.98 108.88 918.28 108.88 923.7 112.82 921.63 119.19 927.05 115.25 932.47 119.19 930.4 112.82 935.82 108.88 929.12 108.88 927.05 102.51"/><polygon fill="#ff4f66" points="1045.9 223.31 1041.97 235.37 1029.29 235.37 1039.55 242.83 1035.63 254.9 1045.9 247.44 1056.16 254.9 1052.24 242.83 1062.51 235.37 1049.82 235.37 1045.9 223.31"/><polygon fill="#ff4f66" points="194.03 338.06 190.11 350.13 177.42 350.13 187.69 357.59 183.77 369.66 194.03 362.2 204.3 369.66 200.38 357.59 210.64 350.13 197.95 350.13 194.03 338.06"/><path fill="#049c9a" d="M1045.73,506.49a384.15,384.15,0,0,1-2.49,43.82A378.77,378.77,0,0,1,369,740.43h0a376.92,376.92,0,0,1-80.64-223.49c-.08-3.38-.13-6.78-.13-10.19q0-2.16,0-4.32A378.62,378.62,0,0,1,292.45,450c.24-1.57.48-3.14.74-4.71a375.9,375.9,0,0,1,35.2-108.52,380.22,380.22,0,0,1,44.86-69.22v0A377.72,377.72,0,0,1,666.86,127.9c.93,0,1.85,0,2.78,0a377.94,377.94,0,0,1,105.22,15.57,373.28,373.28,0,0,1,69.21,28.28A380.21,380.21,0,0,1,985.66,301.88q8.51,13.2,15.9,27.12a375.22,375.22,0,0,1,32.84,85.37c.93,3.71,1.81,7.46,2.63,11.22a378.53,378.53,0,0,1,8.67,76.93C1045.72,503.85,1045.73,505.17,1045.73,506.49Z"/><path fill="#008982" d="M1045.7,502.52a376.92,376.92,0,0,0-72.41-218.63,360.5,360.5,0,0,1,31.34,143.75c0,1.28,0,2.54,0,3.81a361.28,361.28,0,0,1-37.93,161.8C907.3,712.45,784.21,794.33,642,794.38c-133.16,0-249.59-71.66-312.72-178.59a360.75,360.75,0,0,1-40.88-102.4,376.73,376.73,0,0,0,52.28,185.54C406.56,810.56,528.1,885.41,667.11,885.37c148.49,0,277-85.54,339-210a377.14,377.14,0,0,0,39.6-168.9C1045.73,505.17,1045.72,503.85,1045.7,502.52Z"/><path fill="#a6c738" d="M595.2,633.06c0,30-7.48,24.55-29.15,33.62-8.21,17.18-10,38.8-33.12,44.07,17.84,19.52-36,23.35-15.38,50.89,12.22,17.57-4.77,35.1-20.65,18.41C481.17,744.6,474,702.41,473.12,663.59c5.83-35.43-28.68-27.66-43.88-62.54-9.43-16.1-10.41-38.83,4.32-51.37a12.65,12.65,0,0,0,4.11-6.26c2.24-8.32-5.67-11.4-12-11.18-35.26,6.14-15.86-31.68-51.75-32.78-12.57-21.78-17-8.42-33.11-17.48-5-5.16-2-13.89-4.13-20.79-3.4-10-23.11-21.79-10.9-32.24-9.62-5.9-11.22,9.81-12.48,16.11-9.38,9-16.27,9.82-20.82,4.95a377,377,0,0,1,80.79-182.45v0a50.08,50.08,0,0,1,11.92,1.33l21.75,1.46c34.48,25.36,78.1-23.84,110.35,1.5-.44,3.09-5.54,1.79-7.93,3.76-2.8,2.29-.25,6.68-.14,10.27-4.12,18.4-37.66,3.18-46.29,32.9,5.2-1.33,8.6,5.31,9.67,10.59,14.2,43.85,33.71-57.69,63.92-14.74C562,303.48,555.1,337.25,572.55,345c-11.81,19.87-44.92.91-58.55,18l.3.05c9.19,1.93,8.5,15.23-.85,16.26l-.26,0c-32.33,6.9-56.64,40.73-71.75,68.83-1.17,4.08-4.64,10.19-9.59,7.69-6.3-31.16-34.12-18.58-53.47-6-11.87,7.78-9,31,7.29,27.44,14.43-11.76,23.5,2.37,17.17,16.59,21.93-6.05-.28,34.37,33,28.66,15.92,3.21,17.78-19.91,31.72-11.19,12.73,17.76,39,1.67,57.46,11.9,25.27,4.14,12.44,19.23,19.44,44.25,18.86,11.48,38.94,4.94,48,9.38C621.24,590.89,601.42,594.24,595.2,633.06Z"/><path fill="#a6c738" d="M420.9,466.86c28.13.29,6,18.93,45,11.69C469.49,462.56,421.81,455,420.9,466.86Z"/><path fill="#a6c738" d="M471.92,484.62a9.07,9.07,0,0,0,11.74-3.83l-1,.33C479.18,478.32,473.07,480.31,471.92,484.62Z"/><path fill="#a6c738" d="M442.74,255.92l7.37,1.48C448.85,256.53,446.12,256.05,442.74,255.92Z"/><path fill="#a6c738" d="M442.74,255.92,433.31,254a28.11,28.11,0,0,0,6.62,1.86C440.9,255.88,441.84,255.89,442.74,255.92Z"/><path fill="#a6c738" d="M417.5,267.66c12-1.73,8.69-2.3,16.66,5.81,13-4.21,10.21-6.91,26.56-5.12,11.23-7.21-9.19-10.07-20.79-12.46C427,256.08,408.34,260.5,417.5,267.66Z"/><path fill="#a6c738" d="M520.89,203c10.85-17.33,33-9.51,47.05-20.46,9.19-9.48-18.87-5-36.4-4.25a13.78,13.78,0,0,0-9.91-.83l6.39.91a28.29,28.29,0,0,1-7.09-.61c-3.83,1.65-6.29,5.61-5.64,11.62C510.08,197,507.93,208.1,520.89,203Z"/><path fill="#a6c738" d="M600.85,183.48c.51.16,1,.28,1.52.41s1,0,1.49.08Z"/><path fill="#a6c738" d="M669.18,222.14a11.26,11.26,0,0,0-10.37-10.58c1.66-3.92,7.34-3.27,11.26-4.92,7.21-3,8.37-14.14,15.74-16.72,2.86-.55,8.74-2,6.43-5.93-35.73-13.67-61.84,7.41-89.87-.1-13.92-.3-39.46,9.79-44.77,19.7,12.27-4.64,26.17,4.13,17.46,17.28-15.22,25.12,9.11,54.38,27.79,22.57,7.8-10.55,21.24-9.26,32.27-12.51C644.44,221.52,655.89,218.24,669.18,222.14Z"/><path fill="#a6c738" d="M603.86,184l2.91.47A17.19,17.19,0,0,0,603.86,184Z"/><path fill="#a6c738" d="M515.05,225c13,11.68-16.07,6.17-18.26,14.88-.2,1.88,2,3.1,3.9,3.19,10.63-2.87,6.69,10.9,14,12.44,1.82-8.48,10.72-6.31,15.71-9.32-2.1-13.25,5.32-4.37,11.05-9.37,2-5.13-6.63-6-7.88-9.85,1-11.6-11.42-11.9-19.85-13.18C506.63,215.34,509.19,223.56,515.05,225Z"/><path fill="#a6c738" d="M486.75,205.41c18.63,15.61,16.08-9.81,3.31-4.08C488.71,201.84,484,203.78,486.75,205.41Z"/><path fill="#a6c738" d="M675.32,312.52c-9.65-.66-18.66,5.25-28.55,4.46-2,16.88,19.62,1.9,28,3.7C679.89,320.12,680.38,313.56,675.32,312.52Z"/><path fill="#a6c738" d="M1037,425.6c-16.35,26.42-50.62,37.09-103.59,9.25a4.06,4.06,0,0,0-5.66,5c10.22,27.3,35.94.77,39.71,25a4.44,4.44,0,0,1-.07,1.58c-3.89,16.77-19.47,29.91-36.13,33.12C915.44,503.32,900,477.47,886.7,458a4,4,0,0,0-7.13,3.73c10.52,28,31.06,58.47,60.36,49.25a4,4,0,0,1,5.15,4.6c-6.13,36.28-51.35,43.54-51.62,74.87a4,4,0,0,0,.3,1.54c9.62,24.86,12.49,25.19-8.93,42.29a4.22,4.22,0,0,0-1,1.06c-2.63,4.34-2.76,9.77-3.39,14.87-3.32,27-29.68,57.72-58.47,54.07a4,4,0,0,1-2.5-1.37c-17.85-20.55-24.49-58.16-24.37-85.07a4.42,4.42,0,0,1,.31-1.56c10-23.75-10.37-30.22-15.4-48.85a4,4,0,0,1,0-2.07c6.08-23.72-7.66-14.63-18.25-28.52a3.91,3.91,0,0,0-1.95-1.45c-19.89-6.51-45.82,11-64-3.47a3.67,3.67,0,0,1-.92-1c-3.31-5.44-.36-13.87-4.56-18.43a3.61,3.61,0,0,0-1.4-.89c-8.39-3.22-12.31-9-8.79-18.59,4.21-15.76,1.73-35.25,13.08-48a3.94,3.94,0,0,1,.72-.64c7.7-5.37,10.2-13,12-21.76a3.5,3.5,0,0,1,.32-1c2-4,9.06-9.19,12.53-7.41a4.08,4.08,0,0,0,2.39.55c15.12-2.15,61.33-21.6,61-.69a4.14,4.14,0,0,0,4.18,4.18c9.42.19,17.76,18.3,27.36,11a4.26,4.26,0,0,0,1.36-1.78c2.2-5.49,5.33-10.94,12.24-10a4.06,4.06,0,0,1,1.27.43c41.87,21.92,59.62-11.18,34.93-21.12a3.92,3.92,0,0,0-4.14.71c-4.45,4.09-13,6.2-14.81-.09a3.87,3.87,0,0,1,.32-2.83c7.26-13.26,25.53-10.83,38.27-8.32a4.13,4.13,0,0,0,2.31-.21c7.3-2.91,2.78-8.68-3.4-10.48a3.24,3.24,0,0,1-1.2-.57,7.13,7.13,0,0,1-2.61-5.63,4,4,0,0,0-6.83-2.65c-1.33,1.33-2.69,2.32-4.06,2.39-5,.41-8.06-6.78-13.1-6.74-10.59,1.15-3.68,18.11-10.28,23.18a3.89,3.89,0,0,1-2.47.73c-25.1-.58-11.5,7.53-8.37,14.36a4,4,0,0,1-3,5.62c-3.38.35-5.77-4.13-5.86-8.34a4,4,0,0,0-2.54-3.53c-4.44-1.94-1.83-17.51-20.37-23.66a4.06,4.06,0,0,0-4.55,6.25c3.53,4.81,10.91,8.21,12.81,13.65a7.64,7.64,0,0,1-2,7.68,4,4,0,0,1-5.77-.4c-4.8-5.84-6.2-15.65-15.84-13.83a4,4,0,0,1-4.53-2.24,21.35,21.35,0,0,0-7.74-9.16A4.13,4.13,0,0,0,769,373c-16.48,14-33.17,44.78-56.44,27.2-7.12-3.2-3.17-7.67,0-11.95a4.12,4.12,0,0,0,.79-2.62c-.35-6.59-.87-13.43,8.55-12.28a4.89,4.89,0,0,1,.64.14c5.77,1.61,16.68,5.19,18-3.07a3.23,3.23,0,0,0,0-1.16c-.79-3.86-6.15-5.92-8.45-8.89a3.92,3.92,0,0,1,.3-5c24.12-25.93,74.1-18.6,99-42.92a4,4,0,0,0-2.23-6.91c-5.85-.67-11.18-4.65-11.34-9.78a4,4,0,0,0-7.42-2,10.28,10.28,0,0,0-.22,10.85,4,4,0,0,1-1.08,5.28c-10.7,7.71-10.9,22.78-25.54,4.35a4,4,0,0,0-3.1-1.54c-38.85-.34,1.18-33.1,17.65-39.34,7.88-2.81,68.65-5.06,66.24,5.83-.79,2-3.15,2.53-5.34,3.19-3.58,1-4,6.14-.6,7.54,6,2.42,16.09-3.55,20.09-9.87a4.09,4.09,0,0,1,4.94-1.65,12.16,12.16,0,0,0,13.12-3.14,4.13,4.13,0,0,1,2.11-1.27c33-.26,43.2-5.86,46-13.19a4.44,4.44,0,0,1,1.66-.13c3.49.44,6.88,1,10.19,1.73A377.34,377.34,0,0,1,1037,425.6Z"/><path fill="#a6c738" d="M931.42,645.77a10.42,10.42,0,0,0-.07,4.34c1.06,3.8,6.37,4.9,9.85,3s5.51-5.54,7.35-9c3.19-6.07,6.26-13.93,2-19.26-1.25-1.55-3-2.66-4-4.44-1.13-2.09-.78-4.48-1.18-6.74-.59-3.37-3-6.36-6.68-5.62-9.27,1.86-6.47,13-6.23,19.39A98.5,98.5,0,0,1,931.42,645.77Z"/><path fill="#a6c738" d="M737.77,341.34a5.4,5.4,0,0,1-3.86-.29,2.79,2.79,0,0,1-1.38-3.35,14.24,14.24,0,0,0-5.43,1.92c-1.44.87-3.13,2-4.63,1.29s-1.58-2.71-.86-4.07a11.19,11.19,0,0,1,3.27-3.23,6.26,6.26,0,0,0,2.67-3.65c.21-1.31-.31-2.8.44-3.89.89-1.32,2.86-1.08,4.4-.7l9,2.23c2.11.52,6.46,2.08,4.88,5-1.28,2.39-2.26,4.87-4.42,6.63A10.35,10.35,0,0,1,737.77,341.34Z"/><path fill="#9ab52a" d="M1037,425.6c-7.32,11.82-18.23,20.5-32.81,24q.45-9,.44-18.12,0-1.89,0-3.81a361,361,0,0,0-31.34-143.75A377.91,377.91,0,0,1,1025,382.68l.27.78c.44,1.29.88,2.59,1.3,3.89s.87,2.61,1.28,3.93c.19.56.36,1.12.54,1.69.4,1.26.79,2.52,1.16,3.79q1.34,4.32,2.53,8.7l.06.23c.16.55.31,1.11.46,1.66.33,1.23.66,2.47,1,3.72q.64,2.43,1.24,4.89c.3,1.23.6,2.48.89,3.73,0,.06,0,.12,0,.17.14.62.29,1.23.42,1.84Q1036.61,423.65,1037,425.6Z"/><path fill="#9ab52a" d="M948.55,644.11c-1.84,3.49-3.87,7.19-7.35,9s-8.67.78-9.81-2.93q9.65-12.76,18.18-26.38a12.77,12.77,0,0,1,.93,1C954.81,630.19,951.75,638.05,948.55,644.11Z"/><path fill="#fff" d="M1259.13,543.43c-6-32.1-21.35-61.93-43.2-84-8.9-9-18.85-16.91-28.48-24.58-17.81-14.21-34.63-27.62-43.78-46.21-13.23-26.89-7.57-59.94-2.1-91.89,6.09-35.52,12.39-72.24-4.4-105.29-20.14-39.6-64.52-53.71-99.33-53.71a133.89,133.89,0,0,0-27.47,2.8c-44,9.27-80.86,36.09-114.74,63.56q8.52,6.39,16.64,13.24c30.91-24.81,64.28-48.45,102.38-56.48a114.11,114.11,0,0,1,23.33-2.37c28.58,0,64.78,11.13,80.67,42.37,13.67,26.91,8.23,58.71,2.45,92.38-6,35.21-12.27,71.63,3.94,104.56,11.19,22.76,30.66,38.28,49.48,53.28,9.15,7.3,18.62,14.85,26.65,22.95h0c39.49,39.82,51.4,103.54,29,154.93-21.63,49.58-74.67,84.21-129,84.21-1.44,0-2.88,0-4.31-.08-32.6-1.08-64-14.45-88.22-35.85A145.45,145.45,0,0,1,991,658.69a16.3,16.3,0,0,0,1.09-13.51l-28.8-80.82a16.44,16.44,0,0,0-21.42-9.81l-10.59,4.1a16.48,16.48,0,0,0-10.52,15.28,16,16,0,0,0,.31,3.23,18,18,0,0,0,1,3.16l33.09,79.16s0,.08,0,.11a16.42,16.42,0,0,0,15.13,10,16.76,16.76,0,0,0,2.84-.26A167.92,167.92,0,0,0,998.77,696c2.71,2.26,5.51,4.43,8.37,6.52,26.4,19.23,58,30.4,89.05,31.43,1.6.05,3.22.08,4.81.08,29.47,0,60-9.07,86.12-25.52,27.62-17.44,49.66-42.7,62.08-71.15S1265.14,575.54,1259.13,543.43Z"/><path fill="#fff" d="M436.15,538.26l-10.61-4.11a16.46,16.46,0,0,0-5.93-1.11,16.66,16.66,0,0,0-3.8.45A16.49,16.49,0,0,0,404.14,544l-28.81,80.82a16.31,16.31,0,0,0,3.59,16.88C369,659.77,351.64,674.6,331.19,682a84.34,84.34,0,0,1-15,3.9,94.31,94.31,0,0,1-15.37,1.25c-30.44,0-61.92-14.49-84.21-38.77-14.6-15.89-25.78-36.08-32.72-58.88a84.53,84.53,0,0,0,9.9.58,79.1,79.1,0,0,0,22.5-3.19c35.43-10.5,60.69-47.9,56.33-83.39-2.78-22.64-19.43-47.89-45.83-52.37a46.82,46.82,0,0,0-7.88-.65c-20.15,0-40.42,12.52-51.66,31.9-9.44,16.28-13.34,36.88-11.94,62.95q.35,6.56,1.09,13.06a68.2,68.2,0,0,1-18.75-17.15c-16.23-21.82-19.56-53.2-8.48-80,13.38-32.32,49.22-55.77,85.22-55.77a81.65,81.65,0,0,1,13.68,1.14c15.73,2.69,31.3,9.72,46.36,16.52,6.29,2.85,12.8,5.8,19.39,8.46a6.8,6.8,0,0,0,1.73.45q2-10.25,4.65-20.29c-5.74-2.36-11.57-5-17.22-7.54-16.25-7.34-33-14.94-51.42-18.07a101.68,101.68,0,0,0-17.06-1.43c-44.82,0-87.8,28.2-104.52,68.58-13.83,33.37-9.5,72.74,11,100.3a91.46,91.46,0,0,0,39.81,30.07c7.3,30.62,21.26,57.77,40.5,78.72,26.54,28.9,62.82,45.49,99.53,45.49a115.05,115.05,0,0,0,18.72-1.52,105.46,105.46,0,0,0,21.83-6.09,112.35,112.35,0,0,0,36.94-24,104.88,104.88,0,0,0,20.12-27.13,16.39,16.39,0,0,0,13.81-10l33.09-79.17a16.44,16.44,0,0,0-9.24-21.66Zm-260.06,5.9c-1.19-21.91,1.82-38.72,9.17-51.41,7.6-13.1,20.79-21.56,33.62-21.56a26.44,26.44,0,0,1,4.47.37c16.4,2.77,26.85,19.42,28.7,34.44,3.17,25.85-15.49,53.18-41.62,60.92a58.56,58.56,0,0,1-16.7,2.36,67.52,67.52,0,0,1-15-1.73A197.79,197.79,0,0,1,176.09,544.16Z"/><path fill="#013857" d="M1210.77,464.59l-4.42,4.38c-8.35-8.41-18-16.09-27.31-23.53-18.19-14.51-37-29.5-47.48-50.8-15.17-30.82-9.13-66.05-3.29-100.13,6-34.88,11.63-67.84-3.14-96.89-20.31-40-71.71-52.29-112-43.82s-75,33.35-107,59.19q-2.46-2-5-4c32.92-26.62,68.64-52.43,110.68-61.29,42.59-9,97.07,4.33,118.82,47.09,15.69,30.9,9.6,66.42,3.73,100.77-5.68,33.1-11.54,67.33,2.73,96.32,9.86,20.05,27.31,34,45.78,48.69C1192.39,448.12,1202.17,455.92,1210.77,464.59Z"/><path fill="#fff" d="M236.28,322a110.64,110.64,0,0,0,10,25.34c.33.61.67,1.21,1,1.82l.75,1.29c.63,1.08,1.28,2.15,1.94,3.19a16,16,0,0,0,13.6,7.47h0c.41,0,.83,0,1.24-.06a15.47,15.47,0,0,0,2.79-.46L284,356.4l8.43-2.18a16.8,16.8,0,0,0,2.14-.72,16.06,16.06,0,0,0,9.5-11.16,16.57,16.57,0,0,0,.41-2.75A110.3,110.3,0,0,0,304,321a706.56,706.56,0,0,1,114.18-33.62,109.42,109.42,0,0,0,8.3,14.42,16.12,16.12,0,0,0,17.85,6.39L468.81,301a16.08,16.08,0,0,0,11.58-15c0-1.23,0-2.47,0-3.71,0-.51,0-1,0-1.54l-.06-2A110.17,110.17,0,0,0,476,251.75l-5.14-17.54A110.7,110.7,0,0,0,456.09,203a16.13,16.13,0,0,0-17.86-6.39l-24.49,7.18h0a16.08,16.08,0,0,0-11.58,15,111.22,111.22,0,0,0,.79,16.63l-1.87.71L397,237.71,393.61,239h0A705.75,705.75,0,0,1,289.7,268.56a110.6,110.6,0,0,0-6.9-12.64,16.13,16.13,0,0,0-6.73-5.95l-.1,0a16.2,16.2,0,0,0-6.77-1.48h0a16.19,16.19,0,0,0-4,.51l-24.72,6.39A16.1,16.1,0,0,0,228.38,270a110.34,110.34,0,0,0,3.32,34.33Z"/><path fill="#fff" d="M416.89,778.32c-.22,0-.45,0-.68,0L401.9,756.18c-16.69-26.17-48-75-60.21-93-11.37-16.68-19.94-38.3-24-49.7A96.15,96.15,0,0,0,308,593.89L234.73,480.45a15.54,15.54,0,0,0-12.07-7c-.5,0-1-.05-1.51-.05-8.3,0-16.08,5-17.74,6.09a40.06,40.06,0,0,0-5.9,4.5l-.41.39c-.29.27-.58.55-.86.84a30.3,30.3,0,0,0-2.65,3l-.06.07c-.33.43-.65.87-.95,1.3l-.05.08q-.47.68-.87,1.38l0,.06c-.28.48-.54,1-.78,1.46l-.09.2c-.22.46-.43.92-.61,1.38s-.41,1.11-.58,1.69a15.38,15.38,0,0,0,1,11.14c.25.49.52,1,.82,1.43l73.27,113.48a96,96,0,0,0,13.85,16.87c1.09,1.06,2.3,2.24,3.59,3.53l.12.13c1.92,1.91,4,4.07,6.24,6.43,1,1.06,2,2.17,3.06,3.3,1.38,1.51,2.78,3.07,4.2,4.7s2.8,3.26,4.2,4.95l.47.57a170,170,0,0,1,13.53,18.75l.94,1.53.34.54.69,1.12.44.7.77,1.25,1,1.58c.1.15.19.3.28.45,5.9,9.4,14.75,23.21,26.43,41.25l0,0c10.54,16.28,21.34,32.85,29.09,44.7l14.3,22.15c-2.6,5.34-2.74,10.86.11,15.27,2.66,4.13,7.35,6.4,13.18,6.4,5.43,0,11.45-2,17-5.52,11.9-7.68,16.89-19.65,11.61-27.84C427.41,780.6,422.73,778.32,416.89,778.32Z"/><path fill="#fff" d="M1174.2,552.23c0-.08,0-.16,0-.25,0-.63,0-1.25-.1-1.89,0,0,0-.07,0-.1-.14-2.48-.35-4.93-.66-7.36-.16-1.43-.38-2.8-.53-3.72,0-.24-.1-.47-.16-.71-.53-3-1.18-5.89-2-8.71,0,0,0-.11,0-.16-.25-.91-.48-1.7-.72-2.45a74.41,74.41,0,0,0-23.61-35.74c-.67-.56-1.34-1.1-2-1.64l-.1-.07a76.46,76.46,0,0,0-15.54-9.26s-.1-.06-.16-.08l-.37-.16-1.2-.5-.63-.26a72.13,72.13,0,0,0-10.78-3.41l-.15,0-.31-.07-.41-.08a73.12,73.12,0,0,0-9-1.39l-.13,0-.7-.05c-1.61-.13-3.22-.2-4.85-.23h-1.16l-2,0c-.11,0-.21,0-.32,0-.55,0-1.1,0-1.66.05h0l-1.89.12-.34.05q-4,.33-8.15,1.08c-.13,0-.27,0-.41,0-.93.17-1.92.37-3,.63-.12,0-.22.09-.34.12-2.87.66-5.74,1.46-8.59,2.42-.18.05-.35.07-.52.13-1,.35-2.31.81-3.65,1.35l-.31.15c-2,.78-4,1.65-5.94,2.57l-.5.19c-.58.26-1.14.54-1.7.81-.23.12-.45.26-.67.4-.91.46-1.83.93-2.74,1.42l-.25.11c-.88.48-1.75,1-2.63,1.48-.09,0-.18.12-.27.18l-.73.45-.37.19c-.52.3-1,.62-1.54,1a1.77,1.77,0,0,0-.17.12q-3.27,2.06-6.45,4.36l-.12.07c-.32.22-.63.46-1,.7-1.41,1.05-2.81,2.12-4.19,3.24l-.17.14h0c-.91.73-1.84,1.52-2.8,2.36l-.71.62,0,0h0q-2.81,2.48-5.49,5.13l-.22.19-1.06,1.08-.11.12q-2.41,2.47-4.73,5.09l-.28.26c-.2.22-.39.44-.58.67l-.33.38a7.12,7.12,0,0,0-.54.69q-2.1,2.46-4.08,5l-.13.14c-.36.44-.7.9-1,1.36-.08.11-.15.23-.22.34-1.26,1.69-2.49,3.41-3.67,5.16a6.65,6.65,0,0,0-.46.59c-.32.48-.64,1-.93,1.46l-.09.17q-1.71,2.64-3.32,5.36c-.11.16-.22.3-.32.47s-.29.49-.43.75-.17.3-.26.44-.24.46-.35.7q-1.56,2.78-3,5.62a2.07,2.07,0,0,0-.15.25c-.26.48-.5,1-.76,1.54l-.06.16c-1,2.07-2,4.16-2.85,6.27a.41.41,0,0,1,0,.09c-.06.13-.1.27-.16.4-.71,1.69-1.4,3.39-2,5.1-.25.68-.48,1.36-.72,2,0,.09-.09.19-.12.28-.13.38-.25.76-.38,1.13l-.54,1.59q-.43,1.35-.84,2.7c-.14.46-.29.92-.42,1.37,0,.15-.09.29-.13.43s0,.12,0,.18c-.24.84-.47,1.69-.69,2.54-.07.23-.14.46-.2.7a1.46,1.46,0,0,1,0,.2l-.09.35,0,.18c-.25,1-.49,2-.71,3l0,.1,0,.15c-.37,1.66-.7,3.32-1,5-.05.28-.1.58-.14.88-.46,2.67-.83,5.32-1.1,8a.19.19,0,0,1,0,.07c0,.39-.07.79-.1,1.18,0,.15-.06.29-.07.45-.06.72-.1,1.45-.15,2.17a1.21,1.21,0,0,1,0,.19c-.08,1.3-.15,2.6-.19,3.89h0c0,.16,0,.32,0,.48,0,.39,0,.77,0,1.15s0,.5,0,.74,0,.19,0,.28c0,.48,0,1,0,1.44,0,0,0,.08,0,.12a106.31,106.31,0,0,0,1.21,15.39c.67,6.11,5.34,53.92-8.15,93.14a9.59,9.59,0,0,0-8.52,13.46l-37.82,63.49a9.76,9.76,0,0,0-7.46,4.64c-2.91,4.89-.93,11.26,4.52,14.51l21.86,13a12.33,12.33,0,0,0,6.29,1.78,9.86,9.86,0,0,0,8.62-4.71,9.69,9.69,0,0,0,.54-8.79l37.83-63.5a9.75,9.75,0,0,0,7.46-4.64,10,10,0,0,0-.81-11.14c27.13-28.49,69.14-46.59,78.62-50.44a111,111,0,0,0,33.31-19.5l.49-.42c1.41-1.19,2.8-2.43,4.17-3.7l.55-.49.23-.23,0,0c.61-.57,1.21-1.16,1.8-1.74l0,0,0,0c.79-.78,1.58-1.57,2.35-2.37l.31-.32.78-.82c.08-.09.17-.16.24-.24l.24-.26.42-.47.69-.76.18-.19.07-.08c.53-.59,1-1.17,1.57-1.77q1.62-1.86,3.16-3.77c.21-.26.44-.52.64-.78l.05-.08c1.42-1.78,2.8-3.61,4.13-5.46l.13-.15c.35-.47.68-.93,1-1.41a1,1,0,0,0,.1-.17q1.93-2.79,3.74-5.65c.09-.13.18-.25.27-.39l.27-.44c.15-.24.31-.49.45-.73s.14-.27.21-.4c1.12-1.86,2.2-3.75,3.23-5.65,0,0,0-.06.07-.1.28-.48.54-1,.83-1.5.09-.18.16-.36.24-.53,1-2,2-4,2.93-6l.12-.21c.24-.52.48-1,.7-1.57,0,0,0-.09.05-.14.89-2,1.72-4,2.51-6.08a6.73,6.73,0,0,0,.32-.73l.18-.48c.1-.27.21-.55.3-.82s.08-.27.12-.41c.78-2.15,1.5-4.3,2.17-6.47a2.18,2.18,0,0,0,.09-.23c.16-.5.3-1,.44-1.44,0-.11,0-.21.07-.31q1-3.54,1.84-7.08a1.21,1.21,0,0,0,0-.18c.38-1.61.69-3.09,1-4.53,0-.07,0-.14,0-.22.32-1.69.61-3.39.85-5.09.07-.43.14-.86.19-1.3v-.14c.35-2.64.62-5.29.79-7.92v0a.61.61,0,0,0,0-.14v-.19c0-.49.07-1,.09-1.49v-.3c0-.38,0-.77,0-1.16,0-.09,0-.18,0-.27l0-.74c0-.75,0-1.48,0-2.23v0C1174.26,554.74,1174.24,553.48,1174.2,552.23Zm-164,143.66a187.33,187.33,0,0,0,3.8-29.7,69.13,69.13,0,0,0,20.51,12.22A184.78,184.78,0,0,0,1010.17,695.89Z"/><path fill="#fff" d="M819.34,506.3l-4.65-13.51a7.15,7.15,0,0,0-8.84-4.61l-13.27-38.52a7.29,7.29,0,0,0-6.87-4.91,7.15,7.15,0,0,0-2.37.4l-7.41,2.55-10.8-20.37a7.27,7.27,0,0,0-6.07-3.85c-15.4-.76-24.56-6.13-29.39-10.26.4-.37.79-.76,1.18-1.17a20.56,20.56,0,0,0,1.62-2,13.54,13.54,0,0,0,2.85-8.8,1.28,1.28,0,0,1,0-.19V401a11.54,11.54,0,0,0-.16-1.18c0-.13,0-.26-.08-.39-.07-.32-.15-.64-.25-.95,0-.12-.06-.23-.1-.35a11.2,11.2,0,0,0-.43-1.09l-.21-.45c-.17-.33-.34-.66-.53-1l-.27-.4c-.18-.28-.37-.54-.57-.81l-.23-.3v0c.12-.23.24-.46.37-.69.68-1.24,1.35-2.5,2-3.76.45-.87.89-1.75,1.33-2.63.26-.52.51-1,.76-1.57Q738,383.27,739,381a18.47,18.47,0,0,0,18.78-29.35,207.94,207.94,0,0,0,25.27-59.39,6,6,0,0,0,.17-1,215.27,215.27,0,0,0,6.08-57.61c-1.14-38.94-11.94-65.64-12.4-66.76a7.25,7.25,0,0,0-9.09-4.11l-46.56,16c-2-3.79-3.37-6.31-4-7.35-3.18-7.25-12.78-7.25-16-7.25-19.76,0-59.89,11.87-88.24,22-18.94,6.79-64,24.05-73.67,37.56-2.78,3.9-2.85,7.3-2.26,9.69.17,1.17.6,4,1.41,8.26l-46.56,16a7.26,7.26,0,0,0-4.63,8.83c.32,1.17,8.26,28.85,31.33,60.24a211,211,0,0,0,97.52,73.57,18.46,18.46,0,0,0,24.48,17.46A18.3,18.3,0,0,0,649,412q6.47,3.44,13.19,6.28h0c0,.26,0,.52,0,.78l0,.48c0,.37.07.74.13,1.11,0,.2.07.39.11.59s.13.61.21.9.15.47.23.7.15.42.24.63.25.57.4.86c.06.13.13.25.2.38l.06.12c.07.12.15.21.22.33.18.29.37.58.58.86s.41.51.62.75.2.24.31.35c.31.32.64.63,1,.92l.06.05,0,0a16.88,16.88,0,0,0,9.55,3.49c-1.26,6.25-5.17,16.12-16.84,26.2a7.29,7.29,0,0,0-2.41,6.77l4,22.71-7.4,2.54a7.28,7.28,0,0,0-4.51,9.25l13.26,38.5a7.27,7.27,0,0,0-4.12,9.09l4.66,13.52a7.26,7.26,0,0,0,6.87,4.9,7.54,7.54,0,0,0,2.37-.39l142.74-49.17A7.26,7.26,0,0,0,819.34,506.3ZM537.92,299.39c-.44-.7-.88-1.41-1.31-2.12l-.24-.39c-.39-.65-.78-1.3-1.16-1.95l-.36-.61-1.05-1.83-.43-.78-1-1.74-.49-.93c-.3-.55-.59-1.11-.88-1.66l-.54-1.07c-.27-.52-.54-1.05-.8-1.59s-.39-.8-.59-1.21-.49-1-.72-1.5l-.72-1.55-.54-1.18,19-6.56a319.93,319.93,0,0,0,14.16,38,264.37,264.37,0,0,0,18.16,33.83A187.16,187.16,0,0,1,538,299.49Zm215.74-96.48.33,1.38c.14.62.27,1.24.4,1.86.08.36.16.72.23,1.07.14.67.27,1.33.4,2,.05.3.12.61.17.91.14.7.26,1.41.38,2.11,0,.25.09.5.13.75.13.74.25,1.49.37,2.24l.09.56c.12.81.24,1.61.34,2.41,0,.11,0,.22,0,.33.12.88.23,1.75.33,2.62v0a186.38,186.38,0,0,1-3.81,63.17,275.86,275.86,0,0,0-11.42-55.15c-.3-1-.61-2-.92-2.94-.13-.39-.25-.78-.38-1.17-2-6.14-4.06-11.87-6.11-17.15l19-6.55Z"/><path fill="#fff" d="M541.75,192a56.66,56.66,0,1,1,52.13-34.42A56.42,56.42,0,0,1,541.75,192Z"/><path fill="#fff" d="M561.43,456.57A164.89,164.89,0,0,0,542,450.43c1.92-9,2.68-17.51,1.87-24.75-2.74-24.54-13.29-41.95-32.24-53.21a49.42,49.42,0,0,0-25.12-7.2,43.4,43.4,0,0,0-5.11.3,36.09,36.09,0,0,0-11.26,3.1c-7.34-9.61-23.77-26.5-48.6-26.5-12.93,0-26.28,4.67-39.69,13.89-26,17.87-40.79,41.52-41.62,66.61a72,72,0,0,0,9,36.73l0,.07c.34.61.68,1.23,1,1.84.06.09.11.19.16.28.32.54.64,1.08,1,1.61.09.16.19.32.29.48.29.47.59.94.89,1.41l.43.65c.26.41.54.81.82,1.21l.56.82c.24.35.5.69.75,1s.45.64.69.95l.69.91c.27.35.53.7.81,1.05l.64.79c.31.38.61.76.92,1.13l.6.71,1,1.19.58.63,1.1,1.23.57.59,1.18,1.23.58.58c.4.41.8.81,1.21,1.21l.66.62,1.2,1.14.79.71,1.13,1,1.09.93.89.76q1,.84,2,1.65c17.06,13.48,37.44,23.65,57,30.37,18.62,6.39,36.55,9.66,50.26,9.66h0c2.23,0,4.31-.09,6.26-.27,1.58,2.23,3.32,4.51,5.16,6.76,3.18,3.9,6.62,7.73,10,11.1,9.75,9.89,24,21.86,36.35,22.77.4,0,.8,0,1.2,0h0c.39,0,.77,0,1.15,0l.41,0,.73-.08.52-.08.56-.11c12.53-2.49,24-18.28,31.64-31.71a169.75,169.75,0,0,0,10.12-21c.62-1.52,1.16-2.92,1.62-4.17,0-.12.08-.25.12-.37,3.1-8.57,5-16.51,5.39-22.5C592.69,475.43,582.41,464.81,561.43,456.57Z"/><path fill="#fff" d="M806.81,232.28c.16.24.33.48.49.73.43.66.87,1.32,1.31,2h0l.55.77c.44.63.88,1.26,1.33,1.88s.82,1.09,1.23,1.63c.24.32.47.64.72,1a121.75,121.75,0,0,0,33.27,29.47c1.55,1.26,4.12,2.71,8.77,5,7.12,3.88,10.29,5.2,12.25,5.64a184.85,184.85,0,0,0,24.32,8.06l.08,0,.24.08.39.13a26.87,26.87,0,0,0,7.3,1.09h0c.39,0,.77,0,1.14,0h0c12-.62,16.83-10.76,17.77-16.33l0-.13c.09-.28.16-.56.25-.84.34-1.14.68-2.29,1-3.42l.15-.55c.11-.39.21-.78.32-1.18.25-.92.49-1.85.73-2.76.07-.29.15-.57.22-.85,0,0,0-.09,0-.14a.13.13,0,0,1,0-.06l.09-.37c.29-1.18.57-2.36.83-3.53.06-.24.12-.48.17-.72.67-3,1.24-5.93,1.74-8.85l.12-.73q.31-1.87.57-3.75c0-.22.07-.44.1-.66.4-2.95.73-5.88,1-8.78h0c.1-1.35.19-2.68.26-4,.14-2.13.21-4.2.19-6,.22-21.61-4.63-41.56-14.55-59.67C882.54,114,822.09,96.15,818.17,95l-.69-.21a26.49,26.49,0,0,0-7.3-1.09c-.44,0-.86,0-1.28,0h-.06c-12,.72-16.76,11-17.62,16.39l0,.22h0c-1.63,5.94-16.87,65.46,12.23,116.31Q805,229.54,806.81,232.28Z"/><path fill="#fff" d="M935.45,544.33a7.27,7.27,0,0,0,6.4-10.72c-12.36-22.91-19-42.57-22.53-57.13,2.8-2.44,3.63-5.72,4.17-7.89l.17-.68.65-.27c2.08-.85,5.21-2.13,7.23-5.26s1.88-6.51,1.8-8.74c0-.21,0-.47,0-.72l.54-.43c.55-.44,1.2-1,1.85-1.57-2.5,13.62-2.51,29,1.32,46.22,0,.1.05.21.07.31l.24,1,0,.23c.24,1,.49,2,.75,3,.08.34.17.67.25,1,0,.17.09.35.14.52.37,1.39.77,2.78,1.19,4.19,0,0,0,.06,0,.09a17.06,17.06,0,0,0,6.13,8.75,17.31,17.31,0,0,0,3.14,1.86l20.51,9.32a17,17,0,0,0,14.09,0,143.53,143.53,0,0,0,13.52-7c2.1-1.23,4.12-2.5,6.07-3.79,1-.65,1.93-1.3,2.87-2,39.36-27.77,46.78-67.91,46.61-94.86a138.3,138.3,0,0,0-2-22.65,61,61,0,0,1-.92-9.38,51.18,51.18,0,0,1,7.15-27.17l.69-1.15c.1-.15.19-.31.28-.46l.71-1.12c.34-.51.67-1,1-1.51.87-1.27,1.77-2.49,2.66-3.64,1.24-1.6,2.48-3.09,3.68-4.49l1.77-2,.85-1c.72-.82,1.41-1.6,2.05-2.35.48-.55.93-1.11,1.37-1.65.29-.36.55-.7.81-1.05l.44-.58c.36-.48.7-1,1-1.45l.09-.13c9.16-13.4,6.74-24.18,3-30.9l-.17-.31c0-.1-.11-.19-.17-.29s-.19-.34-.29-.5l-.12-.19-.34-.54-.11-.17-.21-.31-.06-.09-.59-.84-.27-.35-.42-.55-.55-.66c-.09-.12-.18-.24-.28-.35l-.34-.39-.33-.35a31.29,31.29,0,0,0-2.4-2.35l-.18-.15c-.52-.45-1-.87-1.6-1.28l-.11-.09a30.77,30.77,0,0,0-18.35-6.07c-.86,0-1.73,0-2.59.11-8.35.72-22.86,5.46-26.29,29.21-.14,1-.28,2-.42,3.08a119.49,119.49,0,0,1-2.46,13.86c-.17.7-.37,1.42-.57,2.13-.09.29-.18.58-.26.87l-.33,1c-3.3,10.28-9.74,21.21-23.78,29.7C981.36,378.94,951,400.57,939,437.85c-.15-.48-.3-.94-.43-1.34-.07-.21-.16-.46-.23-.69l.37-.55c1.3-1.85,3.25-4.64,3.25-8.39s-2-6.55-3.25-8.39l-.37-.55c.07-.24.16-.49.23-.69.71-2.12,1.79-5.31.75-8.87s-3.71-5.71-5.47-7.12l-.54-.43c0-.24,0-.5,0-.71.08-2.24.21-5.62-1.8-8.74s-5.15-4.42-7.23-5.27l-.64-.26c-.07-.24-.13-.48-.18-.68-.54-2.18-1.37-5.46-4.18-7.9s-6.18-2.79-8.4-3l-.71-.08c-.12-.2-.25-.41-.35-.59-1.14-1.94-2.85-4.87-6.25-6.42a11.49,11.49,0,0,0-4.8-1,22.17,22.17,0,0,0-4.1.47l-.71.13-.5-.46c-1.64-1.55-4.12-3.88-7.84-4.4a10.56,10.56,0,0,0-1.49-.11A15.55,15.55,0,0,0,877,363.9l-.69.34-.69-.34a15.55,15.55,0,0,0-7.15-2.11,10.81,10.81,0,0,0-1.5.11c-3.71.52-6.19,2.85-7.84,4.4l-.49.46-.71-.13a22.17,22.17,0,0,0-4.1-.47,11.49,11.49,0,0,0-4.8,1c-3.4,1.55-5.11,4.48-6.25,6.42l-.35.59-.71.08c-2.23.23-5.59.58-8.4,3s-3.64,5.72-4.18,7.9c0,.2-.11.44-.18.68l-.64.26c-2.08.85-5.22,2.13-7.24,5.27s-1.88,6.5-1.79,8.74c0,.21,0,.47,0,.71l-.53.43c-1.76,1.41-4.42,3.53-5.47,7.12s0,6.75.75,8.87c.07.2.16.45.23.69-.13.19-.26.39-.38.55-1.29,1.84-3.24,4.63-3.24,8.39s2,6.54,3.24,8.39c.12.16.25.36.38.55-.07.23-.16.48-.23.69-.71,2.11-1.79,5.31-.75,8.86s3.71,5.72,5.47,7.12l.53.43c0,.25,0,.5,0,.72-.09,2.23-.22,5.61,1.79,8.74s5.16,4.41,7.24,5.26l.64.27c.06.23.13.48.18.68.54,2.17,1.37,5.46,4.18,7.89a10.36,10.36,0,0,0,2.38,1.56c-2.56,14.77-9,38.95-24.92,68.53a7.28,7.28,0,0,0,9.44,10.06l22.95-10.56,4.46,27.32a7.29,7.29,0,0,0,5.56,5.92,7.45,7.45,0,0,0,1.62.18,7.29,7.29,0,0,0,6-3.11c.69-1,9.7-14.08,18.3-36.15a162.91,162.91,0,0,0,12.78,23.19,7.28,7.28,0,0,0,6,3.1,7.45,7.45,0,0,0,1.62-.18,7.25,7.25,0,0,0,5.55-5.91l4.47-27.32,22.95,10.56A7.37,7.37,0,0,0,935.45,544.33Z"/><path fill="#fff" d="M956.87,340.23l.15.08c.49.27,1,.54,1.5.79l.41.2,1.3.61.81.34,1,.4c.62.24,1.24.46,1.86.67a41.15,41.15,0,0,0,6.5,1.61l.81.12c.28,0,.56.09.85.12a41.08,41.08,0,0,0,4.71.3H977a41.68,41.68,0,0,0,8.69-.93h0a41.34,41.34,0,0,0,30.51-27.31c.21-.6.39-1.21.56-1.82.06-.21.12-.42.17-.63.11-.4.21-.8.3-1.19s.13-.52.18-.77.14-.7.21-1.05c.12-.62.22-1.25.31-1.87,0-.18.06-.36.08-.55,0-.4.09-.8.13-1.21,0-.18,0-.35,0-.53,0-.42.07-.85.09-1.27,0-.13,0-.26,0-.4a41.14,41.14,0,0,0-.16-5.88c0-.12,0-.24,0-.36,0-.44-.1-.87-.16-1.29,0-.14,0-.28-.06-.42-.12-.83-.27-1.65-.44-2.46,0-.11,0-.22-.07-.33-.06-.28-.13-.56-.2-.83s-.16-.66-.25-1-.13-.46-.19-.69c-.12-.41-.25-.82-.38-1.23,0-.15-.09-.3-.14-.45a41.43,41.43,0,0,0-10.37-16.57l-.11-.1c-.39-.39-.8-.76-1.22-1.13-.12-.12-.25-.23-.38-.34l-.72-.62a7.61,7.61,0,0,0-2.11-1.65,41.39,41.39,0,1,0-44.49,69.63Z"/><path fill="#012847" d="M284.1,277.08l11.52,39.34a711.88,711.88,0,0,1,129-37.79l-11.53-39.34A711.22,711.22,0,0,1,284.1,277.08Z"/><ellipse cx="339.92" cy="272.75" fill="#013857" rx="41.61" ry="4.48" transform="rotate(-16.33 339.924 272.765)"/><path fill="#011f33" d="M424.62,278.63l-11.53-39.34q-8.47,3.36-17,6.49c5.45,6.32,11.32,14.91,11.1,22.5-.32,10.89-79.05,30.65-114.29,39l2.69,9.19A711.88,711.88,0,0,1,424.62,278.63Z"/><path fill="#fb0" d="M409.42,219h0a8.85,8.85,0,0,1,6.36-8.24l24.5-7.18a8.85,8.85,0,0,1,9.8,3.51h0a103,103,0,0,1,13.77,29.13L469,253.79a103.13,103.13,0,0,1,4.13,32h0a8.84,8.84,0,0,1-6.36,8.24l-24.5,7.18a8.84,8.84,0,0,1-9.8-3.5h0a103.45,103.45,0,0,1-13.78-29.14L413.54,251A103.12,103.12,0,0,1,409.42,219Z"/><path fill="#f4a623" d="M472.79,274.27c-12.45,6.79-27.64,11.93-36,3.08-15.69-16.68-21.06-66.56-21.06-66.56a8.85,8.85,0,0,0-6.35,8.24,103.12,103.12,0,0,0,4.12,32l5.14,17.54a103.45,103.45,0,0,0,13.78,29.14,8.84,8.84,0,0,0,9.8,3.5l24.5-7.18a8.84,8.84,0,0,0,6.36-8.24A102.3,102.3,0,0,0,472.79,274.27Z"/><ellipse cx="445.88" cy="237.22" fill="#ffdb63" rx="8.69" ry="23.17" transform="rotate(-16.33 445.889 237.216)"/><path fill="#fb0" d="M276.66,259.82h0A8.85,8.85,0,0,0,267,256l-24.72,6.39a8.84,8.84,0,0,0-6.62,8h0a103.19,103.19,0,0,0,3.1,32.08l4.58,17.7a103.12,103.12,0,0,0,12.83,29.56h0a8.86,8.86,0,0,0,9.68,3.82l24.73-6.4a8.84,8.84,0,0,0,6.61-8h0a102.92,102.92,0,0,0-3.1-32.08l-4.57-17.69A103.31,103.31,0,0,0,276.66,259.82Z"/><path fill="#f4a623" d="M250.55,339.73c14.16-.55,29.85-3.92,32.46-15.78,4.92-22.37-16-67.95-16-67.95a8.85,8.85,0,0,1,9.68,3.82,103.31,103.31,0,0,1,12.84,29.56l4.57,17.69a102.92,102.92,0,0,1,3.1,32.08,8.84,8.84,0,0,1-6.61,8l-24.73,6.4a8.86,8.86,0,0,1-9.68-3.82A102.55,102.55,0,0,1,250.55,339.73Z"/><ellipse cx="254.68" cy="294.12" fill="#ffdb63" rx="8.69" ry="23.17" transform="rotate(-14 257.325 292.959)"/><path fill="#013857" d="M1101,726.72c-1.52,0-3,0-4.56-.07-29.58-1-59.77-11.65-85-30s-44.65-43.85-54.66-71.7l5.87-2.11c19.94,55.51,75,95.65,134,97.61,1.51.05,3,.08,4.54.08,57.36,0,112.66-35.9,135.64-88.57,23.59-54.06,11.06-121.07-30.48-163l4.43-4.38c20.84,21,35.47,49.49,41.21,80.17s2.39,62.54-9.45,89.66-32.89,51.24-59.29,67.91C1158.19,718.14,1129.16,726.72,1101,726.72Z"/><path fill="#013857" d="M300.88,700.6c-34.11,0-68.95-15.67-94.18-43.13-19.32-21.05-32.93-48.47-39.64-79.27a84.37,84.37,0,0,1-40.2-29c-19-25.55-23-62.12-10.13-93.18,17.82-43,67.74-70.59,113.64-62.77,17.46,3,33.83,10.38,49.66,17.53,6.18,2.8,12.57,5.68,18.89,8.24l-2.34,5.78c-6.43-2.61-12.88-5.52-19.12-8.34-15.47-7-31.47-14.22-48.13-17.06-43.16-7.37-90.09,18.56-106.84,59-12,29.07-8.36,63.25,9.37,87.07a77.78,77.78,0,0,0,33.78,25.55,213,213,0,0,1-3-26.19c-1.32-24.62,2.27-43.89,11-58.91,11.36-19.6,32.77-31,52-27.73,22.9,3.88,37.38,26.13,39.84,46.1,3.95,32.11-19,66-51.18,75.51a76.62,76.62,0,0,1-40.36.38c6.71,28.35,19.51,53.55,37.38,73,28.17,30.67,68.84,45.91,106.12,39.78,39.82-6.56,73.09-39.66,77.38-77l6.19.71c-2.28,19.83-12.11,39.12-27.68,54.33a103.58,103.58,0,0,1-54.88,28.12A108.27,108.27,0,0,1,300.88,700.6ZM172.43,573.42c13.2,3.88,27.22,4.27,40.07.47,29.38-8.7,50.36-39.56,46.76-68.78-2.18-17.68-14.79-37.35-34.69-40.72-16.77-2.84-35.51,7.32-45.6,24.72-8.08,13.94-11.4,32.07-10.14,55.44A203.9,203.9,0,0,0,172.43,573.42Z"/><path fill="#fb0" d="M196.55,497.83c2-7.07,10.81-12.25,10.81-12.25s7.69-5.41,14.77-4.9a8.33,8.33,0,0,1,6.5,3.71l73.24,113.45a88.31,88.31,0,0,1,8.95,18.09c4.33,12.07,13.11,34.08,24.86,51.33,17.09,25.09,70.95,109.89,70.95,109.89L391.08,787.2s-55.13-84-71-109.89c-10.88-17.81-27.33-34.87-36.55-43.79a88.44,88.44,0,0,1-12.81-15.6L197.49,504.44A8,8,0,0,1,196.55,497.83Z"/><path fill="#f4a623" d="M320.12,677.31c-10.88-17.81-27.33-34.87-36.55-43.79a88.44,88.44,0,0,1-12.81-15.6L197.49,504.44a8,8,0,0,1-.94-6.61c1.17-4,4.52-7.45,7.19-9.64,20.49,57.87,91.05,146.46,102.32,158.37s45.19,70,45.19,70l-.35,9C338.4,706.27,326.29,687.39,320.12,677.31Z"/><ellipse cx="409.2" cy="798.2" fill="#011f33" rx="17.58" ry="9.82" transform="rotate(-32.85 409.182 798.17)"/><ellipse cx="407.78" cy="796" fill="#013857" rx="12.89" ry="7.2" transform="rotate(-32.85 407.746 795.977)"/><rect width="18.77" height="126.75" x="361.94" y="676.17" fill="#013857" transform="rotate(147.15 371.322 739.55)"/><ellipse cx="254.61" cy="545.08" fill="#ffdb63" rx="4.32" ry="57.99" transform="rotate(-32.85 254.593 545.056)"/><path fill="#fb0" d="M411,546.41l-28.81,80.82a9.17,9.17,0,0,0,5.33,11.62l6.33,2.45a9.16,9.16,0,0,0,11.76-5l33.09-79.17A9.16,9.16,0,0,0,433.53,545l-10.6-4.1A9.17,9.17,0,0,0,411,546.41Z"/><path fill="#f4a623" d="M438.68,557.12A9.16,9.16,0,0,0,433.53,545l-10.6-4.1A9.17,9.17,0,0,0,411,546.41L409,552c6.67.41,13.52,2.78,13.26,10.83-.36,11.72-19.83,56.59-29.44,78.08l1,.39a9.09,9.09,0,0,0,7.88-.65l2.39-2a9.09,9.09,0,0,0,1.49-2.36Z"/><ellipse cx="402.14" cy="594.46" fill="#ffdb63" rx="32.58" ry="1.79" transform="rotate(-68.85 402.139 594.456)"/><path fill="#fb0" d="M956.4,566.8l28.81,80.82a9.17,9.17,0,0,1-5.33,11.63l-6.33,2.45a9.16,9.16,0,0,1-11.76-5l-33.08-79.16a9.16,9.16,0,0,1,5.15-12.09l10.6-4.1A9.16,9.16,0,0,1,956.4,566.8Z"/><path fill="#f4a623" d="M928.71,577.52a9.16,9.16,0,0,1,5.15-12.09l10.6-4.1a9.16,9.16,0,0,1,11.94,5.47l2,5.6c-6.67.41-13.51,2.77-13.26,10.83C945.5,595,965,639.82,974.57,661.3l-1,.4a9.12,9.12,0,0,1-7.88-.65l-2.39-2a9,9,0,0,1-1.49-2.37Z"/><ellipse cx="965.25" cy="614.85" fill="#ffdb63" rx="1.79" ry="32.58" transform="rotate(-21.15 965.227 614.834)"/><path fill="#e4e6ee" d="M1017.93,542.19l-3.62,6.08-5-3c-.21.4-.41.81-.6,1.22l4.89,2.91-3.63,6.1-4.21-2.51c-.19.42-.37.84-.52,1.28l4,2.4-3.63,6.09-2.94-1.75c-.15.44-.31.87-.44,1.32L1005,564l-3.62,6.08-1.14-.69c-.15.47-.27.93-.38,1.39l.82.49-1.55,2.59q-.45,2-.81,4l3.53-5.92,6.07,3.62-3.62,6.08-6-3.59a14.36,14.36,0,0,0-.25,1.46l5.56,3.31-3.61,6.08-3-1.79c-.06.5-.1,1-.14,1.51l2.44,1.45-2.82,4.73c0,1.15,0,2.28,0,3.41l5.79,3.45-3.63,6.09-1.74-1c0,.55.1,1.12.18,1.69l.86.51-.67,1.13c.08.71.18,1.43.29,2.16L999,609.6l6.09,3.63-3.62,6.08-3.07-1.84c.12.63.26,1.24.42,1.86l1.95,1.16-1.18,2c.16.62.33,1.22.51,1.81l1.83-3.08,6.1,3.63-3.62,6.08-2.65-1.58c.26.71.52,1.39.81,2.06l1.14.68-.53.9c.23.51.45,1,.68,1.51l1-1.71,6.08,3.62-3.28,5.51c.77,1.31,1.57,2.58,2.42,3.82l3.8,2.26-1,1.62c.3.38.61.75.92,1.15l1.23-2.06,6.08,3.62-2.29,3.83c.33.33.67.66,1,1l2.45-4.11,6.09,3.63-3,5c.38.25.75.52,1.12.77l3-5.08,6.1,3.63-3,5.08c.4.22.81.41,1.21.62l3-5,6.08,3.62-2.45,4.11c.44.15.91.3,1.35.43l2.29-3.84,6.07,3.62-1.23,2.07c.49.07,1,.17,1.44.25l1-1.62,3.8,2.26c1.49.15,3,.25,4.51.31l3.28-5.51,6.1,3.63-1,1.7,1.65-.12.53-.88,1.15.68c.7-.08,1.44-.16,2.17-.28l-2.63-1.57,3.62-6.07,6.08,3.61-1.85,3.1c.63-.13,1.24-.26,1.86-.42l1.18-2,1.94,1.16c.62-.16,1.23-.32,1.84-.51l-3.08-1.84,3.62-6.07,6.08,3.62-1.57,2.63,2.06-.76.7-1.16.87.52,1.57-.65-1.75-1,3.63-6.1,5.79,3.45c1-.52,2-1.07,3-1.65l2.83-4.75,2.46,1.46c.44-.26.85-.54,1.26-.83l-3-1.8,3.62-6.07,5.61,3.34c.38-.3.77-.59,1.15-.92l-6.05-3.61,3.62-6.07,6.09,3.63-3.55,6c1.06-.85,2.14-1.74,3.18-2.68l1.54-2.59.82.49c.37-.31.69-.64,1.06-1l-1.17-.7,3.62-6.07,2.7,1.61c.31-.34.64-.67.93-1l-2.94-1.75,3.63-6.09,4,2.4c.31-.35.6-.7.88-1.07l-4.21-2.5,3.63-6.1,4.89,2.91c.27-.36.54-.73.79-1.11l-5-3,3.61-6.07,5.28,3.14c.23-.39.5-.79.73-1.18l-5.3-3.15,3.62-6.08,5.18,3.09c.23-.39.45-.79.66-1.19l-5.14-3.06,3.63-6.1,4.63,2.76c.2-.41.39-.82.56-1.25l-4.5-2.68,3.64-6.09,3.62,2.15c.15-.43.33-.86.48-1.29l-3.41-2,3.62-6.08,2.08,1.24c.15-.46.29-.91.42-1.36l-1.79-1.07,3.62-6.07h0c.32-1.39.62-2.77.87-4.17l-1.35,2.27-6.1-3.63,3.62-6.07,4.62,2.75c.07-.48.15-1,.21-1.46l-4.13-2.46,3.63-6.1,1.26.76c0-.51.08-1,.1-1.53l-.67-.39.73-1.23c0-.91.06-1.82,0-2.72l-1.93,3.25-6.08-3.62,3.63-6.09,4.34,2.58c0-.54,0-1.08-.08-1.63l-3.56-2.12,2.93-4.93c-.13-1.16-.31-2.32-.5-3.46l-5.37-3.2,3.38-5.67c-.24-.88-.5-1.74-.78-2.6l-5.55-3.3L1160,521c-.23-.5-.45-1-.69-1.49l-3.09,5.18-6.09-3.63,3.63-6.1,4.67,2.79c-.38-.78-.79-1.55-1.23-2.32l-2.75-1.63.9-1.5-.82-1.28-1.24,2.08-6.1-3.63,2.74-4.6c-.31-.37-.63-.71-1-1.06l-3,5L1140,505.1l3.63-6.09,2.06,1.23a65.75,65.75,0,0,0-5.73-5l-14.25-8.49a67.22,67.22,0,0,0-7.11-2.65l2.07,1.23-3.63,6.1-6.08-3.62,3-5c-.49-.11-1-.22-1.43-.3l-2.73,4.58-6.07-3.62,1.24-2.08c-.53,0-1-.09-1.55-.11l-.88,1.48-2.75-1.63c-.86,0-1.73,0-2.62,0l4.67,2.78-3.63,6.1-6.07-3.62,3.08-5.18c-.54,0-1.09.06-1.64.1l-2.61,4.38-5.55-3.3c-.89.15-1.76.34-2.65.55l-3.38,5.67-5.37-3.2c-1.1.37-2.21.77-3.28,1.21l-2.94,4.93-3.56-2.13c-.51.23-1,.47-1.48.71l4.34,2.58-3.63,6.1-6.07-3.62,1.93-3.25c-.81.44-1.61.89-2.41,1.35l-.71,1.19-.64-.38c-.45.26-.88.53-1.3.81l1.24.74-3.63,6.1-4.11-2.45c-.4.28-.79.58-1.18.88l4.6,2.73-3.62,6.08-6.08-3.62,1.36-2.28c-1.11.9-2.19,1.81-3.25,2.76h0l-3.62,6.08-1.79-1.07-1,1,2.08,1.25-3.62,6.07-3.41-2c-.31.34-.6.7-.91,1l3.62,2.16-3.63,6.1-4.5-2.68c-.29.35-.56.72-.83,1.08l4.64,2.76-3.63,6.1-5.14-3.06c-.26.37-.51.75-.74,1.14l5.18,3.09-3.62,6.07-5.3-3.15c-.23.39-.45.81-.68,1.2Zm-.91,37.19,3.62-6.08,6.1,3.63-3.62,6.08Zm5.39,4.82-3.62,6.07-6.1-3.63,3.62-6.08Zm-1.07-12.07L1025,566l6.09,3.63-3.63,6.09Zm4.32-7.26,3.63-6.1,6.1,3.63-3.63,6.1Zm4.33-7.26,3.62-6.08,6.09,3.63-3.61,6.08Zm4.33-7.27,3.62-6.07,6.09,3.63-3.62,6.07Zm4.31-7.24,3.63-6.1,6.1,3.63-3.63,6.1Zm4.33-7.27,3.63-6.09,6.1,3.63-3.64,6.09Zm4.33-7.26,3.62-6.08,6.09,3.64-3.62,6.07Zm4.32-7.26,3.62-6.08,6.1,3.63-3.62,6.08Zm4.33-7.27,3.62-6.07,6.09,3.63-3.62,6.07Zm4.31-7.24,3.64-6.1,6.09,3.63-3.63,6.1Zm-45.79,90.73-6.09-3.63,3.62-6.07,6.09,3.63Zm53.75-104.09,6.1,3.63-3.63,6.1-6.1-3.64Zm-49.79,67.11,3.63-6.09,6.08,3.62-3.64,6.09Zm5.38,4.79-3.63,6.1-6.08-3.62,3.63-6.1Zm-1-12.05,3.62-6.08,6.07,3.62-3.62,6.08Zm4.32-7.26,3.62-6.08,6.08,3.62-3.62,6.08Zm4.32-7.25,3.63-6.09,6.07,3.62-3.63,6.09Zm4.32-7.26,3.64-6.1,6.07,3.62-3.63,6.1Zm4.33-7.27,3.62-6.07,6.08,3.62-3.62,6.07Zm-24.19,54.43-6.07-3.62,3.62-6.07,6.07,3.61ZM1048,510.92l6.07,3.61-3.62,6.08-6.07-3.62Zm.71-1.19,3.61-6.08,6.08,3.62-3.62,6.08Zm10.39-3.63-6.08-3.62,3.63-6.09,6.08,3.62ZM1075,495.9l-6.09-3.63,3.62-6.07,6.09,3.63Zm4.79-5.38,6.1,3.63-3.62,6.08-6.1-3.63Zm-64.16,107.71,3.62-6.08,6.1,3.64-3.62,6.07Zm5.4,4.8-3.63,6.09-6.1-3.63,3.63-6.09ZM1020,591l3.62-6.08,6.09,3.63-3.62,6.08Zm4.32-7.27,3.62-6.07,6.1,3.63-3.62,6.07Zm4.32-7.24,3.63-6.1,6.1,3.63-3.64,6.1Zm4.33-7.26,3.63-6.1,6.09,3.63-3.63,6.1Zm4.32-7.27,3.62-6.07,6.1,3.63-3.62,6.07Zm4.33-7.26,3.62-6.08,6.09,3.63-3.61,6.08Zm4.32-7.25,3.63-6.09,6.09,3.63-3.63,6.09Zm4.32-7.26,3.63-6.09,6.1,3.63-3.63,6.09Zm4.33-7.26,3.62-6.08,6.09,3.63-3.62,6.08Zm4.33-7.27,3.62-6.07,6.09,3.63-3.62,6.07Zm4.32-7.26,3.62-6.08,6.1,3.63L1069.3,522Zm4.32-7.24,3.63-6.1,6.09,3.63-3.63,6.1Zm4.33-7.27,3.63-6.09,6.09,3.63-3.63,6.09Zm-58.78,112.53-6.09-3.63,3.63-6.1,6.09,3.63ZM1086.59,493l-6.09-3.64,3.62-6.07,6.09,3.63Zm10.87-1.77-3.62,6.08-6.08-3.62,3.62-6.07Zm-78.89,118.62,3.63-6.09,6.07,3.62-3.63,6.09Zm5.38,4.79-3.63,6.09-6.08-3.62,3.63-6.09Zm-1.06-12.05,3.62-6.08,6.08,3.62-3.62,6.08Zm4.33-7.27,3.62-6.07,6.08,3.62-3.62,6.07Zm4.33-7.26,3.62-6.08,6.07,3.62-3.62,6.08Zm4.31-7.24,3.63-6.1,6.08,3.62-3.63,6.1Zm4.33-7.27,3.63-6.09,6.08,3.62-3.63,6.09Zm4.33-7.26,3.62-6.08,6.07,3.62-3.62,6.08Zm4.32-7.26,3.62-6.08,6.08,3.62-3.62,6.07Zm4.32-7.25,3.63-6.09,6.08,3.62-3.63,6.09Zm4.33-7.26,3.63-6.1,6.07,3.62-3.63,6.1Zm4.32-7.27,3.62-6.07,6.08,3.62-3.62,6.07Zm4.33-7.26,3.62-6.08,6.07,3.62-3.61,6.08Zm4.33-7.26,3.62-6.08,6.07,3.62-3.62,6.08Zm4.31-7.25,3.63-6.09,6.08,3.62-3.63,6.09Zm4.33-7.26,3.63-6.1,6.08,3.62-3.64,6.1Zm4.33-7.26,3.61-6.08,6.08,3.62-3.62,6.07ZM1016,628l-6.07-3.62,3.61-6.08,6.08,3.62Zm89.42-133.59-6.08-3.62,3.63-6.09,6.08,3.62Zm-79.59,119.79,3.63-6.1,6.08,3.62-3.63,6.1Zm5.38,4.79-3.63,6.09-6.08-3.62,3.64-6.09Zm-1-12.06,3.62-6.07,6.07,3.62-3.62,6.07Zm4.32-7.26,3.62-6.08,6.08,3.62-3.62,6.08Zm4.33-7.26,3.62-6.08,6.08,3.62-3.62,6.08Zm4.32-7.25,3.63-6.09,6.07,3.62-3.63,6.09Zm4.32-7.26,3.63-6.1,6.08,3.62-3.63,6.1Zm4.33-7.26,3.62-6.08,6.08,3.62-3.62,6.07Zm4.33-7.27,3.62-6.07,6.07,3.62-3.62,6.07Zm4.31-7.24,3.63-6.1,6.08,3.62-3.63,6.1Zm4.33-7.27,3.63-6.09,6.08,3.62-3.63,6.09Zm4.33-7.26,3.62-6.08,6.07,3.62-3.62,6.08Zm4.32-7.26,3.62-6.08,6.08,3.62-3.62,6.08Zm4.33-7.27,3.62-6.07,6.08,3.62-3.62,6.07Zm4.32-7.24,3.63-6.1,6.07,3.62-3.63,6.1Zm4.32-7.26,3.63-6.1,6.08,3.62-3.63,6.09Zm4.33-7.27,3.62-6.07,6.07,3.62-3.61,6.07ZM1095,498l3.62-6.08,6.07,3.62-3.62,6.08Zm-71.77,134.28-6.07-3.61,3.62-6.08,6.07,3.62Zm89.42-133.58-6.08-3.62,3.64-6.09,6.07,3.61Zm2.24,12.76-3.62,6.07-6.09-3.63,3.62-6.07Zm-5.39-4.82,3.62-6.08,6.1,3.64-3.62,6.07Zm1.08,12.06-3.63,6.1-6.1-3.63,3.63-6.1Zm-4.33,7.27-3.63,6.09-6.1-3.63,3.63-6.09Zm-4.33,7.26-3.62,6.08-6.09-3.63,3.62-6.08Zm-4.32,7.26-3.62,6.08-6.1-3.63,3.62-6.08Zm-4.33,7.27-3.62,6.07-6.1-3.63,3.62-6.07ZM1089,555l-3.63,6.1-6.09-3.63,3.63-6.1Zm-4.32,7.27-3.63,6.09-6.1-3.63,3.63-6.1Zm-4.33,7.26-3.62,6.08-6.09-3.64,3.61-6.07Zm-4.33,7.26-3.62,6.08-6.09-3.63,3.62-6.08Zm-4.31,7.25-3.63,6.09-6.1-3.63,3.63-6.09Zm-4.33,7.26-3.63,6.1-6.1-3.64,3.64-6.09Zm-4.33,7.26-3.62,6.08-6.09-3.63,3.62-6.08Zm-4.32,7.27-3.62,6.07-6.1-3.63,3.62-6.07Zm-4.33,7.26-3.62,6.08-6.09-3.63,3.62-6.08Zm-4.31,7.25-3.64,6.09-6.09-3.63,3.63-6.1Zm-4.33,7.26-3.63,6.09-6.1-3.63,3.63-6.09Zm-4.33,7.26-3.62,6.08-6.09-3.63,3.62-6.08Zm-4.33,7.27-3.61,6.07-6.1-3.63,3.62-6.07Zm80.4-148.83,6.1,3.63-3.64,6.1-6.09-3.63Zm-74.2,141.09,3.63-6.09,6.09,3.63-3.63,6.09Zm5.39,4.8-3.61,6.08-6.1-3.64,3.62-6.07Zm-1.07-12.06,3.63-6.1,6.1,3.63-3.63,6.1Zm4.33-7.27,3.62-6.07,6.09,3.63-3.62,6.07Zm4.33-7.26,3.62-6.08,6.09,3.63-3.62,6.08Zm4.32-7.26,3.62-6.08,6.1,3.63-3.62,6.08Zm4.32-7.25,3.63-6.09,6.09,3.63-3.63,6.09Zm4.33-7.26,3.63-6.1,6.09,3.63-3.63,6.1Zm4.32-7.27,3.62-6.07,6.1,3.63-3.62,6.08Zm4.33-7.26,3.62-6.07,6.09,3.63-3.62,6.07Zm4.31-7.24,3.64-6.1,6.09,3.63-3.63,6.1Zm4.33-7.27,3.63-6.09,6.1,3.63-3.63,6.09Zm4.33-7.26,3.62-6.08,6.09,3.63-3.62,6.08Zm4.32-7.26,3.62-6.08,6.1,3.63-3.62,6.08Zm4.33-7.27,3.62-6.07,6.1,3.63-3.62,6.07Zm4.32-7.24,3.63-6.1,6.09,3.63-3.63,6.1Zm4.32-7.27,3.63-6.09,6.1,3.63-3.63,6.1Zm4.33-7.26,3.62-6.07,6.1,3.63-3.62,6.07Zm4.33-7.26,3.62-6.08,6.09,3.63-3.62,6.08Zm-76.07,141.56-6.1-3.63,3.62-6.08,6.1,3.63Zm84-154.9,6.1,3.63-3.63,6.09-6.1-3.63Zm-96,128.12,3.63-6.1,6.07,3.62-3.63,6.1Zm5.38,4.79-3.62,6.07-6.08-3.62,3.62-6.07Zm-1.06-12.06,3.64-6.09,6.07,3.62-3.63,6.09Zm4.33-7.26,3.62-6.07,6.08,3.61-3.62,6.08Zm4.33-7.26,3.62-6.08,6.07,3.62-3.62,6.08Zm4.33-7.27,3.61-6.07,6.08,3.62-3.62,6.07Zm4.31-7.24,3.63-6.1,6.08,3.62-3.63,6.1Zm4.33-7.26,3.63-6.1,6.07,3.62-3.63,6.1Zm4.32-7.27,3.62-6.07,6.08,3.62-3.62,6.07Zm4.33-7.26,3.62-6.08,6.08,3.62-3.62,6.08Zm4.32-7.25,3.63-6.09,6.07,3.62-3.63,6.09Zm4.32-7.26,3.63-6.09,6.08,3.62-3.63,6.09Zm4.33-7.26,3.62-6.08,6.08,3.62-3.62,6.08Zm4.33-7.27,3.62-6.07,6.07,3.62-3.62,6.07Zm4.32-7.26,3.62-6.08,6.08,3.62-3.62,6.08Zm4.32-7.24,3.63-6.1,6.08,3.62-3.63,6.1Zm4.33-7.27,3.63-6.09,6.07,3.62-3.63,6.09Zm4.32-7.26,3.62-6.08,6.08,3.62L1104,513.2Zm4.33-7.26,3.62-6.08,6.08,3.62-3.62,6.07ZM1026.2,643.87l-6.07-3.62,3.61-6.08,6.08,3.62Zm98.07-148.12-6.09-3.63,3.63-6.09,6.09,3.63Zm7.26,4.33-6.09-3.63,3.63-6.1,6.1,3.64Zm7.25,4.32-6.08-3.62,3.63-6.1,6.08,3.62Zm-.7,1.16-3.63,6.1-6.07-3.62,3.63-6.1,6,3.6Zm-87.54,133.15,3.63-6.1,6.08,3.62-3.63,6.1Zm5.38,4.78-3.62,6.08-6.08-3.62,3.62-6.07Zm-1.05-12,3.63-6.09,6.07,3.62-3.63,6.09Zm4.32-7.26,3.62-6.08,6.08,3.62-3.62,6.08Zm4.33-7.26,3.62-6.08,6.07,3.62-3.61,6.08Zm4.33-7.27,3.62-6.07,6.07,3.62-3.62,6.07Zm4.31-7.24,3.63-6.1,6.08,3.62-3.63,6.1Zm4.33-7.26,3.63-6.1,6.08,3.62-3.64,6.09Zm4.33-7.27,3.62-6.07,6.07,3.61-3.62,6.08Zm4.32-7.26,3.62-6.08,6.08,3.62-3.62,6.08Zm4.32-7.25,3.63-6.09,6.07,3.62-3.63,6.09Zm4.32-7.26,3.64-6.1,6.07,3.62-3.63,6.1Zm4.33-7.26,3.62-6.08,6.08,3.62-3.62,6.08Zm4.33-7.27,3.62-6.07,6.07,3.62-3.62,6.07Zm4.33-7.26,3.61-6.08,6.08,3.62-3.62,6.08Zm4.31-7.25,3.63-6.09,6.08,3.62-3.63,6.09Zm4.33-7.26,3.63-6.09,6.07,3.62-3.63,6.09Zm4.32-7.26,3.62-6.08,6.08,3.62-3.62,6.08Zm4.33-7.27,3.62-6.07,6.08,3.62-3.62,6.07ZM1048,656.83l-6.07-3.62,3.62-6.07,6.07,3.62ZM1141.72,516l-6.08-3.62,3.63-6.1,6.08,3.62ZM1057.8,643l3.63-6.09,6.08,3.62-3.63,6.09Zm5.38,4.79-3.62,6.08-6.07-3.62,3.62-6.08Zm-1-12.05,3.63-6.09,6.08,3.61-3.63,6.1Zm4.33-7.26,3.62-6.08,6.07,3.62-3.62,6.08Zm4.32-7.27,3.62-6.07,6.08,3.62-3.62,6.07Zm4.33-7.26,3.62-6.08,6.08,3.62-3.62,6.08Zm4.32-7.24,3.63-6.1,6.07,3.62-3.63,6.09Zm4.32-7.27,3.63-6.09,6.08,3.62-3.63,6.09Zm4.33-7.26,3.62-6.08,6.07,3.62-3.62,6.08Zm4.33-7.27,3.62-6.07,6.07,3.62-3.62,6.07Zm4.31-7.24,3.63-6.09,6.08,3.61-3.63,6.1Zm4.33-7.26,3.63-6.1,6.07,3.62-3.63,6.1Zm4.33-7.27,3.61-6.07,6.08,3.62-3.62,6.07Zm4.32-7.26,3.62-6.08,6.08,3.62-3.62,6.08Zm4.33-7.26,3.62-6.08,6.07,3.62-3.62,6.08Zm4.31-7.25,3.64-6.09,6.07,3.62-3.63,6.09Zm4.33-7.26,3.63-6.1,6.08,3.62-3.63,6.1Zm4.33-7.27,3.62-6.07,6.07,3.62-3.62,6.07Zm4.32-7.26,3.62-6.07,6.08,3.61-3.62,6.08Zm-76.08,141.55-6.08-3.62,3.62-6.07,6.08,3.62ZM1149,520.31l-6.1-3.63,3.64-6.09,6.09,3.63Zm-33.26,108.05,3.64-6.1,6.07,3.62-3.63,6.1Zm5.38,4.79-3.62,6.07-6.07-3.62,3.62-6.07Zm-1-12.06,3.63-6.09,6.08,3.62-3.63,6.09Zm4.33-7.26,3.62-6.07,6.07,3.61-3.62,6.08Zm4.32-7.26,3.62-6.08,6.08,3.62-3.62,6.08Zm4.32-7.25,3.63-6.09,6.08,3.62-3.63,6.09Zm4.33-7.26L1141,586l6.07,3.62-3.63,6.1Zm4.32-7.26,3.62-6.08,6.08,3.62-3.62,6.08Zm4.33-7.27,3.62-6.07,6.08,3.62-3.62,6.07Zm-32.84,69-6.08-3.62,3.62-6.08,6.08,3.62Zm-4.33,7.26-6.07-3.62,3.61-6.08,6.08,3.62Zm-11.59,2.94-6.08-3.62,3.64-6.1,6.07,3.62Zm2.58-18.15,3.62-6.08,6.07,3.62-3.62,6.08Zm5.37,4.81-3.62,6.07-6.08-3.62,3.62-6.07Zm-1-12.07,3.61-6.08,6.08,3.62-3.62,6.07Zm4.31-7.25,3.63-6.09,6.08,3.62-3.63,6.09Zm4.33-7.26,3.63-6.1,6.07,3.62-3.63,6.1Zm4.32-7.27,3.62-6.07,6.08,3.62-3.62,6.07Zm4.33-7.26,3.62-6.08,6.08,3.62-3.62,6.08Zm4.32-7.24,3.63-6.1,6.07,3.62-3.63,6.1Zm4.32-7.27,3.63-6.09,6.08,3.62-3.63,6.09Zm4.33-7.26,3.62-6.08,6.08,3.62-3.62,6.08Zm4.33-7.26,3.62-6.08,6.07,3.62-3.62,6.07Zm4.32-7.27,3.62-6.07,6.08,3.62-3.62,6.07Zm4.32-7.24,3.63-6.1,6.08,3.62-3.64,6.1Zm-59.15,82.78,3.62-6.08,6.07,3.62-3.62,6.08Zm5.38,4.78-3.63,6.1-6.08-3.62,3.63-6.1Zm-1.06-12,3.62-6.07,6.08,3.62-3.62,6.07Zm4.33-7.26,3.62-6.08,6.08,3.62-3.62,6.08Zm4.32-7.25,3.63-6.09,6.07,3.62-3.63,6.09Zm4.32-7.26,3.63-6.09,6.08,3.61-3.63,6.1Zm4.33-7.26,3.62-6.08,6.08,3.62-3.62,6.08Zm4.33-7.27,3.62-6.07,6.07,3.62-3.62,6.07Zm4.31-7.24,3.63-6.1,6.08,3.62-3.63,6.1Zm4.33-7.26,3.63-6.1,6.08,3.62-3.63,6.1Zm4.33-7.27,3.62-6.07,6.07,3.62-3.62,6.07Zm4.32-7.26,3.62-6.08,6.08,3.62-3.62,6.08Zm4.33-7.27,3.62-6.07,6.08,3.62-3.62,6.07Zm4.32-7.24,3.63-6.09,6.07,3.61-3.63,6.1Zm4.32-7.26,3.63-6.1,6.08,3.62-3.63,6.1Zm-58.79,112.51-6.08-3.62,3.64-6.09,6.07,3.62Zm-9-15.21,3.63-6.09,6.09,3.63-3.63,6.09Zm5.4,4.8-3.63,6.1-6.1-3.63,3.63-6.1ZM1081,637.15l3.62-6.08,6.1,3.63-3.62,6.08Zm4.33-7.26,3.62-6.08,6.1,3.63-3.62,6.08Zm4.33-7.27,3.62-6.07,6.09,3.63-3.62,6.07Zm4.31-7.24,3.63-6.1,6.1,3.63L1100,619Zm4.33-7.27,3.63-6.09,6.1,3.63-3.63,6.09Zm4.33-7.26,3.62-6.08,6.09,3.64-3.62,6.07Zm4.32-7.26,3.62-6.08,6.1,3.63-3.62,6.08Zm4.32-7.25,3.63-6.09,6.1,3.63-3.64,6.09Zm4.33-7.26,3.63-6.1,6.09,3.63-3.63,6.1Zm4.32-7.26,3.62-6.08,6.1,3.63-3.62,6.08Zm4.33-7.27,3.62-6.07,6.09,3.63-3.61,6.07Zm4.33-7.26,3.62-6.08,6.09,3.63-3.62,6.08Zm4.31-7.25,3.63-6.09,6.1,3.63-3.63,6.09Zm4.33-7.26,3.63-6.09,6.09,3.63-3.63,6.09Zm4.33-7.26,3.62-6.08,6.09,3.63-3.62,6.08Zm-67.42,127-6.09-3.63,3.61-6.08,6.1,3.64Zm-11.59,2.94-6.09-3.63,3.61-6.08,6.1,3.63Zm2.55-18.14,3.63-6.1,6.09,3.63-3.63,6.1Zm5.4,4.8-3.62,6.07-6.1-3.63,3.62-6.07Zm-1.08-12.06L1073,634l6.1,3.63-3.63,6.1Zm4.33-7.27,3.62-6.07,6.1,3.63-3.62,6.07Zm4.33-7.26,3.62-6.08,6.09,3.63-3.62,6.08Zm4.32-7.27,3.62-6.07,6.1,3.63-3.62,6.08Zm4.32-7.24,3.63-6.09,6.1,3.63-3.64,6.09Zm4.33-7.26,3.63-6.1,6.09,3.63-3.63,6.1Zm4.32-7.27,3.62-6.07,6.1,3.63-3.62,6.07Zm4.33-7.26,3.62-6.08,6.09,3.63-3.61,6.08ZM1104,582l3.63-6.1,6.09,3.63-3.63,6.1Zm4.32-7.27,3.63-6.09,6.1,3.63-3.63,6.09Zm4.33-7.26,3.62-6.08,6.09,3.63-3.62,6.08Zm4.33-7.27,3.62-6.07,6.09,3.63-3.62,6.08Zm4.32-7.26,3.62-6.07,6.1,3.63-3.62,6.07Zm4.32-7.24,3.63-6.1,6.09,3.63-3.63,6.1Zm4.33-7.27,3.63-6.09,6.09,3.63-3.63,6.09Zm4.32-7.26,3.62-6.08,6.1,3.63-3.62,6.08Zm4.33-7.26,3.62-6.08,6.09,3.63-3.62,6.08Zm13.36,8-6.1-3.63,3.62-6.07,6.1,3.63Zm7.24,4.32-6.07-3.62,3.62-6.08,6.07,3.62Zm-4.32,7.26-6.08-3.62,3.62-6.07,6.07,3.62Zm7.26,4.33-6.08-3.62,3.62-6.08,6.08,3.62Zm-4.33,7.26-6.07-3.62,3.63-6.09,6.07,3.62Zm2.94,11.59-6.08-3.62,3.63-6.09,6.08,3.62Zm-4.32,7.25-6.07-3.62,3.62-6.08,6.07,3.62Zm2.94,11.59-6.1-3.63,3.62-6.08,6.1,3.63Zm-4.33,7.26-6.09-3.63,3.62-6.07,6.09,3.63Zm-4.32,7.27-6.1-3.64,3.63-6.09,6.1,3.63Zm-4.33,7.26-6.1-3.63,3.64-6.1,6.09,3.63Zm-4.32,7.24-6.09-3.63,3.62-6.07,6.09,3.63Zm-4.32,7.27-6.1-3.63,3.62-6.08,6.1,3.63Zm-4.33,7.26-6.09-3.63,3.63-6.1L1137,623Zm-4.33,7.26-6.09-3.63,3.63-6.09,6.09,3.63Zm-10.41,3.62,3.62-6.08,6.1,3.63-3.62,6.08Zm-16.59,11.38,6.08,3.62L1104.5,661l-6.07-3.62Zm-11.59,2.93,6.07,3.62-3.63,6.1-6.07-3.62Zm-11.59,2.94,6.07,3.62-3.62,6.08-6.07-3.62Zm-11.59,2.94,6.09,3.63-3.62,6.07-6.09-3.63ZM1055.71,663l6.09,3.63-3.63,6.09-6.09-3.63Zm-7.24-4.32,6.07,3.62-3.63,6.09-6.08-3.61Zm-7.27-4.33,6.08,3.62-3.63,6.1-6.08-3.62Zm-7.26-4.32,6.09,3.63-3.63,6.09-6.09-3.63Zm-7.27-4.33,6.1,3.63-3.63,6.1-6.1-3.64Zm-7.24-4.32,6.08,3.62-3.64,6.1-6.07-3.62Zm-7.26-4.32,6.07,3.62-3.63,6.09-6.07-3.62Zm4.31-7.25,6.08,3.62-3.62,6.08-6.08-3.62Zm-7.26-4.32,6.07,3.62-3.62,6.07-6.07-3.62Zm-2.94-11.59,6.1,3.63-3.62,6.07-6.1-3.63Zm-2.94-11.59,6.1,3.63-3.63,6.09-6.1-3.63Zm4.33-7.27,6.1,3.63-3.63,6.1-6.1-3.63Zm-7.24-4.31,6.07,3.62-3.63,6.09-6.07-3.62Zm4.31-7.25,6.08,3.62-3.62,6.08-6.08-3.62Zm4.33-7.26,6.08,3.62-3.62,6.07-6.08-3.62Zm-2.94-11.59,6.08,3.62-3.62,6.07-6.08-3.62Zm4.33-7.27,6.07,3.62-3.63,6.1-6.07-3.62Zm4.33-7.26,6.07,3.62-3.63,6.1-6.07-3.62Zm4.31-7.24,6.08,3.62-3.62,6.07-6.08-3.62Zm4.33-7.27,6.07,3.62-3.62,6.08-6.07-3.62Zm4.33-7.26,6.07,3.62-3.63,6.09-6.08-3.61Zm4.32-7.26,6.08,3.62-3.63,6.09-6.08-3.62Zm4.32-7.25,6.07,3.62-3.62,6.08-6.07-3.62Zm4.32-7.26,6.08,3.62-3.62,6.07-6.07-3.62Z"/><path fill="#013857" d="M977,734.29l15.27,9.09C1017.66,695.2,1092.71,667,1092.71,667l-40.19.9a88.9,88.9,0,0,1-37.9-22.58l-17.15-33.12S1007.21,689,977,734.29Zm23.78-19.06a1.82,1.82,0,0,1-3.07-1.83c6.53-18.14,8.8-36.66,9.22-52.1a4.93,4.93,0,0,1,8.08-3.68,73.6,73.6,0,0,0,26.57,15.83,4.93,4.93,0,0,1,.62,8.86C1028.78,690,1013.57,700.84,1000.73,715.23Z"/><rect width="25.45" height="89" x="959.36" y="717.59" fill="#fb0" transform="rotate(-149.22 972.068 762.1)"/><path fill="#f4a623" d="M983.93,717.34l7.25,4.33c-5.37,6.56-51.6,58.92-26.9,78.39l-4,6.77-21.87-13Z"/><path fill="#ff4f66" d="M939.58,791.79l21.86,13c1.92,1.14,2.81,3.17,2,4.54s-3,1.55-5,.41l-21.86-13c-1.92-1.14-2.81-3.17-2-4.54S937.66,790.65,939.58,791.79Z"/><path fill="#ff4f66" d="M985.4,714.87l21.87,13c1.91,1.14,2.8,3.18,2,4.54s-3,1.56-4.94.42l-21.87-13c-1.91-1.14-2.81-3.17-2-4.54S983.49,713.73,985.4,714.87Z"/><ellipse cx="987.64" cy="749.57" fill="#ffdb63" rx="18.74" ry="3.57" transform="rotate(-59.22 987.608 749.56)"/><path fill="#ff4f66" d="M1003.8,558c-16.75,44.8-3.83,88.69,25.77,106.32s74.35,8.1,105.76-28c40.43-46.41,44.73-117.78-2.27-145.78S1025.36,500.35,1003.8,558Zm72.5-63.76c13-4.56,32.53-7.54,52.12,4.13s26.29,30.3,28.46,43.87c4.63,29-6.25,62.74-28.38,88.16-13.7,15.72-31.07,26.83-48.92,31.28-16.7,4.16-32.81,2.33-45.37-5.15s-21.83-20.78-26.13-37.44c-4.59-17.82-3.09-38.38,4.21-57.91C1024.1,529.6,1048.63,504,1076.3,494.23Z"/><path fill="#fb0" d="M1094.47,656.37c3.46,1.67,6.94,3.28,10.44,4.87q3.51-1.93,6.92-4.2-5-2.22-9.91-4.54Q1098.24,654.63,1094.47,656.37Z"/><path fill="#fb0" d="M996.78,588.51q-.35,4.08-.39,8.09,4.59,3.48,9.26,6.86c-.17-2.77-.22-5.58-.13-8.4Q1001.11,591.84,996.78,588.51Z"/><path fill="#fb0" d="M1119.85,639.27c2.36,1.07,4.74,2.13,7.12,3.16.62.28,1.24.55,1.87.81,1.68-1.64,3.32-3.35,4.94-5.14-3-1.26-5.89-2.54-8.8-3.87-1.43,1.51-2.92,3-4.42,4.38Z"/><path fill="#fb0" d="M1003,560.2c-.8,2.27-1.53,4.53-2.17,6.79.53.43,1.07.85,1.61,1.26,2,1.6,4.1,3.19,6.17,4.76.07-.32.16-.63.23-1,.53-2,1.11-4,1.75-6Q1006.76,563.19,1003,560.2Z"/><path fill="#fb0" d="M494.31,264.68l57.75-19.89L558,261l-40.55,14c28.36,72.36,98,101.56,98,101.56l19.34-2.79,9.49,27.56C524.85,373.54,494.31,264.68,494.31,264.68Z"/><path fill="#e58613" d="M615.47,376.5v0h0Z"/><path fill="#e58613" d="M615.1,376.37c-4.68-2-70.34-31.67-97.68-101.44L558,261l-.2-.54L510.8,274S543.13,351.91,615.1,376.37Z"/><path fill="#fb0" d="M770.17,169.67l-57.75,19.89,5.3,16.39,40.55-14c22.21,74.48-14.65,140.35-14.65,140.35l-17,9.71,9.49,27.56C813.14,274.25,770.17,169.67,770.17,169.67Z"/><path fill="#e58613" d="M743.56,332.38h0Z"/><path fill="#e58613" d="M743.77,332.06c2.43-4.49,35.92-68.27,14.5-140.08l-40.55,14-.18-.55,45.38-18.23S785.41,268.47,743.77,332.06Z"/><path fill="#f9af14" d="M757.35,327.38c-7,7-11.05,5-12.83,3.25-.58,1.12-.9,1.7-.9,1.7l-17,9.71,9.49,27.56C757.51,343.15,769.63,316,776,290.54,775.39,292.36,766.78,318,757.35,327.38Z"/><rect width="137.26" height="58.05" x="661.64" y="472.79" fill="#012847" transform="rotate(-19 730.407 501.872)"/><polygon fill="#013857" points="781.82 495.51 768.78 478.93 677.59 504.84 773.64 471.76 781.82 495.51"/><rect width="137.26" height="14.3" x="668.76" y="515.35" fill="#011f33" transform="rotate(-19 737.54 522.57)"/><rect width="150.97" height="14.3" x="663.28" y="519.34" fill="#012847" transform="rotate(-19 738.897 526.575)"/><path fill="#fb0" d="M718.94,412.05c17.83-10.6,4-16.17,4-16.17,60.27-98.41-12.26-221.2-12.26-221.2-5.92-17.2-172.43,40.14-166.5,57.34,0,0,18.46,141.41,126.54,181.85,0,0-7.42,12.86,13.15,10.25,0,0,2.69,19.77-19.83,39.2l5.12,28.82L772.43,456.6l-13.72-25.86C729,429.29,718.94,412.05,718.94,412.05Z"/><path fill="#f4a623" d="M758.71,430.74c-29.71-1.45-39.77-18.69-39.77-18.69,17.83-10.6,4-16.17,4-16.17,39.83-65,21.66-140.7,4.76-184.55C710.42,231,676.07,233,676.07,233s82.61,59.6,31.23,176.5c0,0,9.12,28.47,50.06,29l12.47,18.92,2.6-.89Z"/><rect width="81.55" height="8.12" x="689.79" y="498.62" fill="#013857" transform="rotate(-19 730.72 502.754)"/><polygon fill="#ffdb63" points="674.49 465.07 746.75 440.18 758.58 458.79 742.61 447.11 674.49 465.07"/><path fill="#e58613" d="M728,402.84a5.16,5.16,0,0,0-1.67-4.73,224.39,224.39,0,0,1-56.8,19.68,5.1,5.1,0,0,0,1.73,4.72A224.85,224.85,0,0,0,728,402.84Z"/><ellipse cx="627.86" cy="204.45" fill="#e58613" rx="78.94" ry="10.32" transform="rotate(-19 627.978 204.483)"/><circle cx="634.62" cy="400.44" r="11.21" fill="#fb0"/><circle cx="635.33" cy="398.99" r="7.03" fill="#e58613"/><path fill="#f7c84c" d="M636.86,403.45a7,7,0,0,1-8.45-3.3,7.43,7.43,0,0,0,.27,1.13A7,7,0,1,0,642,396.71a6.36,6.36,0,0,0-.48-1.06A7,7,0,0,1,636.86,403.45Z"/><circle cx="743.21" cy="363.04" r="11.21" fill="#f9af14"/><circle cx="741.76" cy="362.34" r="7.03" fill="#e58613"/><path fill="#f7c84c" d="M743.3,366.8a7,7,0,0,0,4.62-7.81,7.85,7.85,0,0,1,.49,1.06,7,7,0,1,1-13.3,4.58,8,8,0,0,1-.26-1.13A7,7,0,0,0,743.3,366.8Z"/><path fill="#cc6a00" d="M626.21,194.11c3-.9,49-14.66,44.91-3.78-4.19,11.19-102.75,43.13-118,39.18a1.55,1.55,0,0,0,.06.65c1.85,5.39,36.77-1.76,78-15.95s73.13-30.08,71.28-35.46S666.68,180.31,626.21,194.11Z"/><polygon fill="#ffdb63" points="645.96 257 667.24 278.09 696.68 272.51 683.21 299.27 697.61 325.55 668 321 647.46 342.82 642.63 313.25 615.53 300.46 642.17 286.73 645.96 257"/><path fill="#f4a623" d="M661.41,213.1c-76.45,29.7-116.5,23-116.54,23,.46,2.71,1.2,6.67,2.29,11.64C596.35,241.13,661.41,213.1,661.41,213.1Z"/><path fill="#ff4f66" d="M531.9,455.63s54.06,9.86,52.82,32.1-27.9,74.55-45.66,73.24-49.39-37.38-52.27-48.91S531.9,455.63,531.9,455.63Z"/><path fill="#f42753" d="M555.92,462.26a166.82,166.82,0,0,0-24-6.63s-48,44.9-45.11,56.43,34.5,47.6,52.27,48.91c13.37,1,31.76-28.38,40.58-52.46-5.75,11.76-20.42,32.19-39.59,23.92s-22.16-20.92-9.13-46.8C543.26,461.12,554.74,462.09,555.92,462.26Z"/><path fill="#dd1247" d="M523.48,525.35a2.43,2.43,0,0,1-1-3.94c12.31-13.65,8.12-27.2,7.94-27.77a2.44,2.44,0,0,1,4.64-1.53c.23.68,5.33,16.74-8.95,32.57A2.44,2.44,0,0,1,523.48,525.35Z"/><path fill="#dd1247" d="M513.39,515.72a2.43,2.43,0,0,1,2.09-3.49c18.36-.83,25.06-13.33,25.34-13.86a2.44,2.44,0,0,1,4.35,2.22c-.33.64-8.17,15.56-29.47,16.52A2.43,2.43,0,0,1,513.39,515.72Z"/><path fill="#dd1247" d="M543,540.23a2.44,2.44,0,0,1-1-3.94c12.31-13.65,8.12-27.2,7.94-27.77a2.44,2.44,0,0,1,4.64-1.53c.22.67,5.33,16.74-9,32.57A2.46,2.46,0,0,1,543,540.23Z"/><path fill="#dd1247" d="M532.92,530.6a2.45,2.45,0,0,1,2.1-3.49c18.36-.83,25.06-13.33,25.34-13.86a2.44,2.44,0,0,1,4.35,2.22c-.33.64-8.17,15.56-29.47,16.52A2.44,2.44,0,0,1,532.92,530.6Z"/><path fill="#ff4f66" d="M482.21,372.79c-4.92.58-10.18,2.19-14.07,5.92,0,0-29.76-52.72-82.22-16.66S338.37,450.83,378,482.13s96.34,42.88,115.12,37,46.92-61.9,43.48-92.62c-2.76-24.72-13.52-38.74-28.72-47.77A40.92,40.92,0,0,0,482.21,372.79Z"/><path fill="#f42753" d="M347.51,422.08c-1,22.23,10.12,44,30.48,60.05,39.62,31.3,96.34,42.88,115.12,37,8.86-2.78,19.79-16.7,28.51-33.85-15.85,25.49-60.24,10.15-70.28.19s22-48.33,22-48.33c-20,12.69-25.91-26.92-25.91-26.92s-3.88,55-47.72,51.39C357.26,458.1,348.05,424.23,347.51,422.08Z"/><path fill="#f42753" d="M453.17,406.59s-.4,21.85,14.46,20.26,17.79-36.48,17.79-36.48a41.11,41.11,0,0,1,4.45,24.53s10.31,2,17.49-6.45c0,0-.12,9.67-12,14.06,0,0-.47,8.35,11.71,6.5,0,0-10.91,11.6-22,.27,0,0-7.27,15.7-20.62,9.25S448.93,415.39,453.17,406.59Z"/><path fill="#dd1247" d="M448.42,424.23c-6.38-28.84,14.83-42.52,21.73-47.18-2.37,2.16-10.95,10.34-14.68,20.47-8,21.75,2.24,44.32,17.85,39.6,15.13-4.56,18.23-29.88,18.4-31.39C494.7,446,455,454,448.42,424.23Z"/><path fill="#dd1247" d="M451.22,423.18s-1.59,31.24-21.76,43.67-44.9.22-62.77-11.86c0,0,31.76,33.9,63.69,15.42C457.93,454.46,451.22,423.18,451.22,423.18Z"/><ellipse cx="401.98" cy="385.96" fill="#f9627b" rx="35" ry="15.88" transform="rotate(-38.5 402.018 385.976)"/><ellipse cx="567.95" cy="481.79" fill="#f9627b" rx="7.59" ry="16.73" transform="rotate(-44.17 567.915 481.786)"/><path fill="#ebedf4" d="M1043.53,398.51c-5.59-32,12.63-49.85,21.59-60.27,11.18-13,9.21-22.86,4.88-29.26a23.55,23.55,0,0,0-21.43-10.23c-7.86.67-17.17,5.38-19.72,23-2,13.6-3.45,39.06-31.25,55.87-29.78,18-71.23,60.25-50.91,127.84a9.84,9.84,0,0,0,5.32,6.09l20.51,9.33a9.82,9.82,0,0,0,8.08,0C1044.91,491.79,1049.51,432.8,1043.53,398.51Z"/><path fill="#e4e6ee" d="M1065.12,338.24c11.6-13.49,9-23.6,4.38-30a23.54,23.54,0,0,0-15.52-9.34c5,4.83,14,17.5,1.65,39.23-11.29,19.88-28.05,25.55-28.07,63.31,0,35.41-55,89.73-78.79,31.09-8.16,19.72-10.77,44-2.07,72.9a9.81,9.81,0,0,0,5.31,6.08l20.51,9.33a9.82,9.82,0,0,0,8.08,0c64.31-29.09,68.91-88.08,62.93-122.37C1037.94,366.5,1056.16,348.66,1065.12,338.24Z"/><path fill="#dddfe8" d="M1065.12,338.24c11.6-13.49,9-23.6,4.38-30a23.5,23.5,0,0,0-11.09-8.23c4.08,5.24,11.35,18.11,1.2,34.49-13.37,21.58-27.68,34.24-29.29,75.49-1.51,38.52-43.55,106.18-89,62.21a121.55,121.55,0,0,0,5.39,33.23,9.81,9.81,0,0,0,5.31,6.08l20.51,9.33a9.82,9.82,0,0,0,8.08,0c64.31-29.09,68.91-88.08,62.93-122.37C1037.94,366.5,1056.16,348.66,1065.12,338.24Z"/><ellipse cx="990.49" cy="413.16" fill="#f3f5f8" rx="29.99" ry="14.86" transform="rotate(-54.58 990.409 413.169)"/><ellipse cx="1042.8" cy="318.59" fill="#f3f5f8" rx="12.88" ry="6.38" transform="rotate(-72 1041.458 319.732)"/><path fill="#ff4f66" d="M1053.81,352.08c-1.07,1.53-2.12,3.16-3.12,4.86-.41.69-.81,1.4-1.18,2.13l-26.1-11.88c.3-.75.57-1.53.82-2.28.63-1.88,1.17-3.74,1.62-5.55Z"/><path fill="#ff4f66" d="M1042.87,380,1012,366c.58-.63,1.14-1.26,1.67-1.9a56.66,56.66,0,0,0,3.52-4.68l27.26,12.4a53.06,53.06,0,0,0-1.22,5.72C1043.08,378.32,1043,379.15,1042.87,380Z"/><path fill="#f93858" d="M1042.87,380,1012,366c.58-.63,1.14-1.26,1.67-1.9l29.56,13.44C1043.08,378.32,1043,379.15,1042.87,380Z"/><path fill="#f93858" d="M1050.69,356.94c-.41.69-.81,1.4-1.18,2.13l-26.1-11.88c.3-.75.57-1.53.82-2.28Z"/><path fill="#ff4f66" d="M910.85,272s-2.19,13.82-17.09,9.57l-.61-.21C759.62,247,798.28,112,798.28,112l.11-.6s2.19-13.82,17.09-9.57l.63.19S951.4,139.58,911,271.41Z"/><path fill="#f93858" d="M893.76,281.6l-.61-.21C759.62,247,798.28,112,798.28,112l.11-.6s1.55-9.79,10.93-10.36c0,0-6.39,137.83,108.72,134.39,0,0,0,0,0,0a167.86,167.86,0,0,1-7.11,36l-.12.62S908.66,285.85,893.76,281.6Z"/><path fill="#f42753" d="M893.76,281.6l-.61-.21C759.62,247,798.28,112,798.28,112l.11-.6a14.11,14.11,0,0,1,4.86-8.21s-14.39,83.9,39.89,135c39.15,36.83,70.54,23.55,70.54,23.55h0q-1.18,4.77-2.71,9.72l-.12.62S908.66,285.85,893.76,281.6Z"/><path fill="#dd1247" d="M905.45,280.62a10.38,10.38,0,0,1-2.21,1.11l-100-178.55,2.13-1.24h0Z"/><rect width="7.95" height="91" x="851.71" y="148.78" fill="#fb0" rx="2.91" transform="rotate(-29.25 855.65 194.279)"/><path fill="#dd1247" d="M893.87,229.73c1-2.79,2-9.19-4.89-16.75a41.78,41.78,0,0,0-7.2-6.21c0-1.41-.16-10-5.74-16.2a18.05,18.05,0,0,0-6-4.38c.92-7.44-2.75-13.39-6.22-17.23a31.47,31.47,0,0,0-5.3-4.71c-.64-8.1-2.81-13-5.69-16.18a19.78,19.78,0,0,0-7.4-4.94,9.54,9.54,0,0,0-7.35,0c-2.8,1.2-5,3.72-6.47,7.5a11,11,0,0,0-8.48.76,11.19,11.19,0,0,0-5.16,7.1c-1.41,5.42.17,10.64,4.84,15.8a42.26,42.26,0,0,0,5.68,5.15l1,.78c0,1.44.47,10.92,6.35,17.43a18.44,18.44,0,0,0,2.46,2.27,18.23,18.23,0,0,0,3.47,2.08c-.85,6.9,2.23,12.22,5.43,15.76a27.74,27.74,0,0,0,6,5c-.44,7.5,1.94,13.1,5.41,17a21.53,21.53,0,0,0,2.74,2.52,20.26,20.26,0,0,0,5.08,2.84,10.46,10.46,0,0,0,7.93-.46,11.75,11.75,0,0,0,5.9-7.08A11.85,11.85,0,0,0,893.87,229.73Zm-15.61,7.11a9.68,9.68,0,0,1-4.81,5.86,8.37,8.37,0,0,1-6.27.39,18.23,18.23,0,0,1-4.55-2.54,19.42,19.42,0,0,1-2.45-2.26c-3.55-3.93-5.23-9.26-4.87-15.41a2.06,2.06,0,0,0-.54-1.54,2.22,2.22,0,0,0-.47-.39,25.88,25.88,0,0,1-5.49-4.61c-3.88-4.29-5.52-9-4.9-14.08a2.13,2.13,0,0,0-.53-1.68,2.21,2.21,0,0,0-.69-.51,15.77,15.77,0,0,1-3.07-1.83,16.42,16.42,0,0,1-2.17-2c-5.42-6-5.78-15-5.8-16.06a2.11,2.11,0,0,0-.55-1.37,1.74,1.74,0,0,0-.32-.28l-1-.76a39.37,39.37,0,0,1-5.4-4.89c-4.16-4.6-5.59-9.14-4.36-13.85a9.11,9.11,0,0,1,4.15-5.79,8.94,8.94,0,0,1,6.88-.56,2.11,2.11,0,0,0,2.53-1.26c1.28-3.23,3.07-5.36,5.33-6.33a7.38,7.38,0,0,1,5.71,0,17.47,17.47,0,0,1,6.64,4.41c2.93,3.24,4.61,8.12,5.15,14.93a2.12,2.12,0,0,0,.54,1.25,1.7,1.7,0,0,0,.38.33,30.13,30.13,0,0,1,4.92,4.38c3,3.38,6.52,8.82,5.69,15.55a2.13,2.13,0,0,0,.53,1.68,2,2,0,0,0,.69.5,16.2,16.2,0,0,1,5.32,3.88c5.11,5.65,5.2,13.85,5.19,14.77a2.15,2.15,0,0,0,.55,1.43,1.59,1.59,0,0,0,.36.32,39.75,39.75,0,0,1,6.84,5.89c6,6.63,5.37,12,4.46,14.64-.45,1.3-3.11,7.73-11.27,6.4A2.13,2.13,0,0,0,878.26,236.84Z"/><path fill="#013857" d="M916.79,246.37s1.87-13.35,1.72-20.64a652.43,652.43,0,0,0-68.43,38.11s.35.78,7.73,4.35c4.65,2.54,9.88,5.21,11,5.05A273.1,273.1,0,0,1,916.79,246.37Z"/><path fill="#013857" d="M844.89,114a268.9,268.9,0,0,0-51.4,28.79,180,180,0,0,0-.22,20,391.21,391.21,0,0,1,68.57-38.68A185.5,185.5,0,0,0,844.89,114Z"/><rect width="2.04" height="22.39" x="871.33" y="212.85" fill="#013857" transform="rotate(60.75 872.369 224.057)"/><rect width="2.04" height="22.39" x="864.52" y="200.68" fill="#013857" transform="rotate(60.75 865.544 211.885)"/><rect width="2.04" height="22.39" x="857.7" y="188.5" fill="#013857" transform="rotate(60.75 858.733 199.717)"/><rect width="2.04" height="22.39" x="850.88" y="176.33" fill="#013857" transform="rotate(60.75 851.917 187.54)"/><rect width="2.04" height="22.39" x="844.06" y="164.16" fill="#013857" transform="rotate(60.75 845.1 175.363)"/><rect width="2.04" height="22.39" x="837.25" y="151.98" fill="#013857" transform="rotate(60.75 838.276 163.191)"/><ellipse cx="828.46" cy="168.57" fill="#dd1247" rx="1.39" ry="1.63" transform="rotate(-29.25 828.426 168.571)"/><ellipse cx="847.99" cy="157.64" fill="#dd1247" rx="1.39" ry="1.63" transform="rotate(-29.25 847.957 157.643)"/><ellipse cx="835.28" cy="180.76" fill="#dd1247" rx="1.39" ry="1.63" transform="rotate(-29.25 835.25 180.77)"/><ellipse cx="854.82" cy="169.82" fill="#dd1247" rx="1.39" ry="1.63" transform="rotate(-29.25 854.787 169.822)"/><ellipse cx="842.11" cy="192.95" fill="#dd1247" rx="1.39" ry="1.63" transform="rotate(-29.25 842.061 192.943)"/><ellipse cx="861.64" cy="182.01" fill="#dd1247" rx="1.39" ry="1.63" transform="rotate(-29.25 861.592 182.015)"/><ellipse cx="868.47" cy="194.2" fill="#dd1247" rx="1.39" ry="1.63" transform="rotate(-29.25 868.422 194.194)"/><ellipse cx="855.76" cy="217.33" fill="#dd1247" rx="1.39" ry="1.63" transform="rotate(-29.25 855.716 217.32)"/><ellipse cx="875.29" cy="206.39" fill="#dd1247" rx="1.39" ry="1.63" transform="rotate(-29.25 875.247 206.392)"/><ellipse cx="862.58" cy="229.52" fill="#dd1247" rx="1.39" ry="1.63" transform="rotate(-29.25 862.54 229.518)"/><ellipse cx="882.12" cy="218.58" fill="#dd1247" rx="1.39" ry="1.63" transform="rotate(-29.25 882.077 218.57)"/><ellipse cx="848.93" cy="205.14" fill="#dd1247" rx="1.39" ry="1.63" transform="rotate(-29.25 848.886 205.141)"/><path fill="#f9627b" d="M859.08,133.73c13.52,4.72,45.29,35.34,50.4,57.85,5.7,25.08-15.78-14.68-30.47-33.06C867.38,144,846.91,129.49,859.08,133.73Z"/><path fill="#013857" d="M907.94,449.16s-.63,35.73,27.51,87.9l-31.62-14.54-6,36.73s-31-44.32-32.88-110.09Z"/><path fill="#012847" d="M879.42,522.11c4.47-26.32,21.9-41.38,31.85-48-1-4.6-1.73-8.64-2.22-12.05l-43.48-1.5A227.41,227.41,0,0,0,879.42,522.11Z"/><path fill="#ef2954" d="M903.83,522.52l-3.59,21.93c-13.32-17.38-23.75-56.15-26-86.4h25.3c1.16,11.13,6.49,44.72,21.71,72.5Z"/><path fill="#dd1247" d="M900,461.76l-25.51-.88a243.61,243.61,0,0,0,9,46.68,72.37,72.37,0,0,1,19.77-27.37C901.68,472.75,900.64,466.34,900,461.76Z"/><path fill="#012847" d="M844.7,462.12s.63,35.73-27.51,87.9l31.62-14.54,6,36.74s31-44.33,32.88-110.1Z"/><path fill="#dd1247" d="M848.81,535.48l3.59,21.94c13.31-17.38,23.74-56.16,26-86.41h-25.3c-1.17,11.14-6.5,44.72-21.71,72.51Z"/><path fill="#fb0" d="M934.69,426.88c0,2.74-3.41,5.21-3.78,7.85s2.18,6,1.43,8.6-4.73,4-5.85,6.46.4,6.39-1.06,8.65S919.76,461,918,463s-1.4,6.23-3.44,8-6.14.82-8.42,2.28-3.09,5.59-5.56,6.72-6.1-1-8.71-.19-4.53,4.48-7.23,4.86-5.57-2.64-8.31-2.64-5.67,3-8.31,2.64-4.66-4.11-7.23-4.86-6.28,1.31-8.72.19-3.29-5.26-5.55-6.72-6.38-.51-8.42-2.28-1.67-6-3.45-8-6-2.27-7.43-4.55.07-6.18-1.06-8.65-5.09-3.85-5.85-6.46,1.82-5.9,1.43-8.6-3.78-5.11-3.78-7.85,3.41-5.21,3.78-7.85-2.19-6-1.43-8.6,4.73-4,5.85-6.46-.4-6.39,1.06-8.66,5.67-2.5,7.44-4.54,1.4-6.24,3.44-8,6.14-.81,8.42-2.28,3.09-5.58,5.55-6.71,6.11,1,8.72.19,4.53-4.48,7.23-4.87,5.57,2.65,8.31,2.65,5.67-3,8.31-2.65,4.66,4.11,7.23,4.87,6.27-1.31,8.71-.19,3.3,5.26,5.56,6.71,6.38.52,8.42,2.28,1.67,6,3.44,8,6,2.27,7.44,4.55-.07,6.18,1.06,8.65,5.09,3.85,5.85,6.46-1.82,5.89-1.43,8.6S934.69,424.14,934.69,426.88Z"/><path fill="#fff" d="M865.9,441.06a19.82,19.82,0,0,1,1.53-8.17,28,28,0,0,1,5.46-7.52,33.71,33.71,0,0,0,5.37-7.06,13.26,13.26,0,0,0,1.49-6.09c0-1.91-.31-3.23-.92-4a3.3,3.3,0,0,0-2.7-1.12c-2.42,0-3.62,1.46-3.62,4.39v4.76H865.9V412q0-5.4,2.67-8.29t7.75-2.89q5.08,0,7.75,2.89t2.67,8.29a17.58,17.58,0,0,1-1.94,7.94,39.25,39.25,0,0,1-6.7,8.9,27,27,0,0,0-4.2,5.36,9.4,9.4,0,0,0-1.07,4.42v.95H886.1v6.35H865.9Z"/><path fill="#f4a623" d="M876.32,377.7a49.18,49.18,0,1,0,49.18,49.18A49.18,49.18,0,0,0,876.32,377.7Zm0,96a46.85,46.85,0,1,1,46.84-46.84A46.85,46.85,0,0,1,876.32,473.72Z"/><polygon fill="#ffdb63" points="876.32 381.49 875.22 383.71 872.77 384.07 874.55 385.8 874.13 388.24 876.32 387.09 878.51 388.24 878.09 385.8 879.87 384.07 877.41 383.71 876.32 381.49"/><polygon fill="#ffdb63" points="864.02 385.49 862.29 383.71 861.94 386.17 859.72 387.26 861.94 388.36 862.29 390.81 864.02 389.03 866.46 389.45 865.31 387.26 866.46 385.07 864.02 385.49"/><polygon fill="#ffdb63" points="854.03 390.16 851.83 391.31 849.64 390.16 850.06 392.6 848.29 394.33 850.74 394.69 851.83 396.91 852.93 394.69 855.38 394.33 853.61 392.6 854.03 390.16"/><polygon fill="#ffdb63" points="843.77 398.85 842.04 400.62 839.6 400.2 840.75 402.39 839.6 404.58 842.04 404.17 843.77 405.94 844.13 403.49 846.35 402.39 844.13 401.3 843.77 398.85"/><polygon fill="#ffdb63" points="834.51 417.02 836.7 415.87 838.89 417.02 838.47 414.58 840.25 412.85 837.8 412.5 836.7 410.28 835.61 412.5 833.15 412.85 834.93 414.58 834.51 417.02"/><polygon fill="#ffdb63" points="835.24 428.65 837.68 429.07 836.53 426.88 837.68 424.69 835.24 425.11 833.51 423.33 833.15 425.78 830.93 426.88 833.15 427.97 833.51 430.43 835.24 428.65"/><polygon fill="#ffdb63" points="838.47 439.18 838.89 436.73 836.7 437.89 834.51 436.73 834.93 439.18 833.15 440.9 835.61 441.26 836.7 443.48 837.8 441.26 840.25 440.9 838.47 439.18"/><polygon fill="#ffdb63" points="843.77 447.82 842.04 449.59 839.6 449.17 840.75 451.36 839.6 453.56 842.04 453.14 843.77 454.91 844.13 452.46 846.35 451.36 844.13 450.27 843.77 447.82"/><polygon fill="#ffdb63" points="852.93 459.07 851.83 456.85 850.74 459.07 848.29 459.43 850.06 461.15 849.64 463.6 851.83 462.44 854.02 463.6 853.61 461.15 855.38 459.43 852.93 459.07"/><polygon fill="#ffdb63" points="864.02 464.72 862.29 462.95 861.94 465.4 859.72 466.5 861.94 467.59 862.29 470.04 864.02 468.27 866.46 468.69 865.31 466.5 866.46 464.3 864.02 464.72"/><polygon fill="#ffdb63" points="878.51 465.52 876.32 466.67 874.13 465.52 874.55 467.96 872.77 469.69 875.22 470.04 876.32 472.26 877.41 470.04 879.87 469.69 878.09 467.96 878.51 465.52"/><polygon fill="#ffdb63" points="890.34 462.95 888.62 464.72 886.17 464.3 887.33 466.5 886.17 468.69 888.62 468.27 890.34 470.04 890.7 467.59 892.92 466.5 890.7 465.4 890.34 462.95"/><polygon fill="#ffdb63" points="901.9 459.07 900.8 456.85 899.71 459.07 897.26 459.43 899.03 461.15 898.61 463.6 900.8 462.44 903 463.6 902.58 461.15 904.35 459.43 901.9 459.07"/><polygon fill="#ffdb63" points="910.6 449.59 908.87 447.82 908.51 450.27 906.29 451.36 908.51 452.46 908.87 454.91 910.6 453.14 913.04 453.56 911.88 451.36 913.04 449.17 910.6 449.59"/><polygon fill="#ffdb63" points="918.13 436.73 915.94 437.89 913.75 436.73 914.16 439.18 912.39 440.9 914.84 441.26 915.94 443.48 917.03 441.26 919.48 440.9 917.71 439.18 918.13 436.73"/><polygon fill="#ffdb63" points="919.48 425.78 919.13 423.33 917.4 425.11 914.96 424.69 916.11 426.88 914.96 429.07 917.4 428.65 919.13 430.43 919.48 427.97 921.7 426.88 919.48 425.78"/><polygon fill="#ffdb63" points="914.16 414.58 913.75 417.02 915.94 415.87 918.13 417.02 917.71 414.58 919.48 412.85 917.03 412.5 915.94 410.28 914.84 412.5 912.39 412.85 914.16 414.58"/><polygon fill="#ffdb63" points="908.87 405.94 910.6 404.17 913.04 404.58 911.88 402.39 913.04 400.2 910.6 400.62 908.87 398.85 908.51 401.3 906.29 402.39 908.51 403.49 908.87 405.94"/><polygon fill="#ffdb63" points="903 390.16 900.8 391.31 898.61 390.16 899.03 392.6 897.26 394.33 899.71 394.69 900.8 396.91 901.9 394.69 904.35 394.33 902.58 392.6 903 390.16"/><polygon fill="#ffdb63" points="890.34 383.71 888.62 385.49 886.17 385.07 887.33 387.26 886.17 389.45 888.62 389.03 890.34 390.81 890.7 388.36 892.92 387.26 890.7 386.17 890.34 383.71"/><circle cx="977.02" cy="304.08" r="34.12" fill="#e4e6ee"/><path fill="#dddfe8" d="M998,277.2a34.11,34.11,0,0,1-50.71,43.66A34.11,34.11,0,1,0,998,277.2Z"/><ellipse cx="966.51" cy="285.66" fill="#f3f5f8" rx="15.93" ry="7.89" transform="matrix(.81 -.58 .58 .81 13.38 613.2)"/><path fill="#d63147" d="M984,337.48l.14-.17c-7.77-7.92,4.69-26,11.38-35.64.66-1,1.29-1.86,1.83-2.66,3.16-4.68,2.3-10.92,1-15.34a42,42,0,0,0-3.54-8.51l-.18.13c.08.14,8.48,14.78,2.53,23.59-.54.8-1.16,1.7-1.82,2.66-3.48,5-8.24,11.91-11.21,18.64C980.66,328.16,980.61,334,984,337.48Z"/><path fill="#ff4f66" d="M985.85,313v.05a.31.31,0,0,0,.37.26l1.54-.35a.3.3,0,0,1,.37.29l.05,2a.32.32,0,0,0,.34.3h0a.32.32,0,0,0,.28-.32l-.07-2.75a.31.31,0,0,0-.38-.29l-2.28.52A.3.3,0,0,0,985.85,313Z"/><path fill="#ff4f66" d="M982.47,319.71l0,.05a.31.31,0,0,0,.4.21l1.48-.54a.31.31,0,0,1,.41.24l.29,1.92a.31.31,0,0,0,.37.26h0a.32.32,0,0,0,.24-.35l-.41-2.72a.31.31,0,0,0-.42-.24l-2.2.8A.31.31,0,0,0,982.47,319.71Z"/><path fill="#ff4f66" d="M980.28,327.66h0a.31.31,0,0,0,.46,0l1.23-1.17a.31.31,0,0,1,.47.07l.94,1.54a.3.3,0,0,0,.44.09l0,0a.3.3,0,0,0,.07-.4l-1.34-2.22a.3.3,0,0,0-.47-.06l-1.82,1.72A.32.32,0,0,0,980.28,327.66Z"/><path fill="#ff4f66" d="M979.83,334.06h0a.3.3,0,0,0,.45,0l1.23-1.16a.31.31,0,0,1,.48.06l.93,1.54a.31.31,0,0,0,.45.09l0,0a.3.3,0,0,0,.08-.4L982.15,332a.32.32,0,0,0-.48-.07l-1.81,1.73A.3.3,0,0,0,979.83,334.06Z"/><path fill="#ff4f66" d="M989.05,307.84v.05a.31.31,0,0,0,.38.25l1.53-.35a.32.32,0,0,1,.38.3l0,1.94a.3.3,0,0,0,.33.3h0A.31.31,0,0,0,992,310l-.07-2.75a.3.3,0,0,0-.37-.3l-2.29.52A.31.31,0,0,0,989.05,307.84Z"/><path fill="#ff4f66" d="M992.16,303.22v0a.31.31,0,0,0,.37.26l1.54-.35a.29.29,0,0,1,.37.29l0,1.94a.31.31,0,0,0,.34.3h0a.29.29,0,0,0,.27-.31l-.06-2.75a.31.31,0,0,0-.38-.29l-2.28.52A.3.3,0,0,0,992.16,303.22Z"/><path fill="#ff4f66" d="M995.6,299.21v0a.32.32,0,0,0,.45.11l1.37-.91a.31.31,0,0,1,.46.15l.65,1.72a.31.31,0,0,0,.43.17h0a.31.31,0,0,0,.15-.39l-.94-2.47a.3.3,0,0,0-.45-.15l-2,1.35A.31.31,0,0,0,995.6,299.21Z"/><path fill="#ff4f66" d="M997.4,294.93h0a.32.32,0,0,0,.45,0l1.2-1.29a.31.31,0,0,1,.47,0l1.06,1.41a.31.31,0,0,0,.45.05l0,0a.32.32,0,0,0,0-.42l-1.51-2a.3.3,0,0,0-.47,0l-1.74,1.88A.32.32,0,0,0,997.4,294.93Z"/><path fill="#ff4f66" d="M994.88,279.34h0a.3.3,0,0,0,.36-.24l.39-1.78a.31.31,0,0,1,.4-.23l1.68.57a.31.31,0,0,0,.39-.2l0-.06a.3.3,0,0,0-.19-.39l-2.34-.78a.31.31,0,0,0-.4.22l-.55,2.52A.3.3,0,0,0,994.88,279.34Z"/><path fill="#ff4f66" d="M996.15,282.33h0a.32.32,0,0,0,.36-.24l.39-1.78a.31.31,0,0,1,.4-.23l1.68.56a.3.3,0,0,0,.39-.19l0-.06a.31.31,0,0,0-.19-.39l-2.34-.79a.31.31,0,0,0-.4.23l-.55,2.52A.3.3,0,0,0,996.15,282.33Z"/><path fill="#ff4f66" d="M997.35,285.65h0a.31.31,0,0,0,.36-.24l.38-1.78a.32.32,0,0,1,.4-.23l1.68.57a.31.31,0,0,0,.39-.2l0-.06a.31.31,0,0,0-.2-.39l-2.34-.78a.31.31,0,0,0-.4.22l-.55,2.52A.32.32,0,0,0,997.35,285.65Z"/><path fill="#ff4f66" d="M997.6,289.6h0a.3.3,0,0,0,.44-.08l1-1.48a.31.31,0,0,1,.47-.06l1.29,1.21a.3.3,0,0,0,.45,0l0,0a.31.31,0,0,0,0-.42L999.38,287a.3.3,0,0,0-.47,0l-1.39,2.15A.31.31,0,0,0,997.6,289.6Z"/><path fill="#d63147" d="M952.91,327.15v-.22c11-1.65,11.9-23.54,12.4-35.31.05-1.16.09-2.26.14-3.22.3-5.64,4.75-10.1,8.42-12.85a41.72,41.72,0,0,1,8-4.66l.06.21c-.15.06-15.68,6.68-16.24,17.3,0,1-.1,2.06-.14,3.22-.26,6.11-.62,14.47-2.3,21.62C961.22,321.75,957.75,326.43,952.91,327.15Z"/><path fill="#ff4f66" d="M966.2,306.54l0,0a.31.31,0,0,1-.46,0l-1-1.2a.31.31,0,0,0-.48,0L963,306.88a.31.31,0,0,1-.45,0h0a.31.31,0,0,1,0-.42l1.71-2.16a.31.31,0,0,1,.48,0l1.51,1.79A.31.31,0,0,1,966.2,306.54Z"/><path fill="#ff4f66" d="M964.87,313.91l0,0a.31.31,0,0,1-.45-.08l-.85-1.32a.31.31,0,0,0-.48-.05l-1.39,1.36a.31.31,0,0,1-.45,0h0a.32.32,0,0,1,0-.42l2-1.92a.31.31,0,0,1,.48,0l1.27,2A.32.32,0,0,1,964.87,313.91Z"/><path fill="#ff4f66" d="M961.83,321.58h0a.3.3,0,0,1-.38-.25l-.28-1.67a.3.3,0,0,0-.42-.23l-1.67.66a.3.3,0,0,1-.41-.2v0a.3.3,0,0,1,.18-.37l2.4-1a.31.31,0,0,1,.42.24l.41,2.47A.31.31,0,0,1,961.83,321.58Z"/><path fill="#ff4f66" d="M958.33,327h0a.32.32,0,0,1-.39-.25l-.27-1.67a.32.32,0,0,0-.42-.24l-1.67.67a.31.31,0,0,1-.41-.2l0,0a.31.31,0,0,1,.19-.37l2.4-1a.31.31,0,0,1,.42.24l.41,2.47A.33.33,0,0,1,958.33,327Z"/><path fill="#ff4f66" d="M966.78,300.47l0,0a.3.3,0,0,1-.45,0l-1-1.2a.3.3,0,0,0-.47,0l-1.21,1.53a.31.31,0,0,1-.45,0h0a.31.31,0,0,1,0-.42l1.71-2.16a.31.31,0,0,1,.48,0l1.51,1.79A.31.31,0,0,1,966.78,300.47Z"/><path fill="#ff4f66" d="M967.08,294.91l0,0a.31.31,0,0,1-.45,0l-1-1.21a.31.31,0,0,0-.48,0l-1.21,1.52a.31.31,0,0,1-.45,0h0a.3.3,0,0,1,0-.41l1.71-2.16a.3.3,0,0,1,.47,0l1.51,1.79A.31.31,0,0,1,967.08,294.91Z"/><path fill="#ff4f66" d="M966.74,289.64h0a.3.3,0,0,1-.42-.17l-.55-1.56a.3.3,0,0,0-.45-.15l-1.57,1a.3.3,0,0,1-.44-.13v0a.32.32,0,0,1,.11-.4l2.24-1.41a.32.32,0,0,1,.46.16l.81,2.31A.29.29,0,0,1,966.74,289.64Z"/><path fill="#ff4f66" d="M967.89,285.14h0a.32.32,0,0,1-.36-.28l-.17-1.76a.31.31,0,0,0-.4-.26l-1.69.49a.3.3,0,0,1-.38-.24l0,0a.31.31,0,0,1,.22-.36l2.41-.7a.31.31,0,0,1,.39.27l.26,2.55A.32.32,0,0,1,967.89,285.14Z"/><path fill="#ff4f66" d="M979.29,274.22h0a.31.31,0,0,1-.14-.41l.76-1.66a.31.31,0,0,0-.18-.42l-1.68-.56a.3.3,0,0,1-.19-.39l0-.07a.3.3,0,0,1,.39-.19l2.34.78a.32.32,0,0,1,.18.42l-1.08,2.35A.33.33,0,0,1,979.29,274.22Z"/><path fill="#ff4f66" d="M976.48,275.84h0a.31.31,0,0,1-.14-.41l.76-1.66a.31.31,0,0,0-.18-.42l-1.68-.56a.3.3,0,0,1-.19-.39l0-.07a.31.31,0,0,1,.39-.19l2.34.78a.32.32,0,0,1,.18.43l-1.08,2.34A.32.32,0,0,1,976.48,275.84Z"/><path fill="#ff4f66" d="M973.52,277.77h0a.31.31,0,0,1-.14-.41l.77-1.66a.31.31,0,0,0-.19-.42l-1.68-.56a.3.3,0,0,1-.19-.39l0-.06a.31.31,0,0,1,.39-.2l2.34.78a.32.32,0,0,1,.18.43l-1.08,2.34A.31.31,0,0,1,973.52,277.77Z"/><path fill="#ff4f66" d="M970.94,280.77h0a.31.31,0,0,1-.3-.33l.13-1.76a.31.31,0,0,0-.34-.33l-1.75.19a.3.3,0,0,1-.34-.29v-.06a.31.31,0,0,1,.28-.31l2.5-.28a.31.31,0,0,1,.34.33l-.19,2.55A.32.32,0,0,1,970.94,280.77Z"/><path fill="#d63147" d="M393.47,856a1071.41,1071.41,0,0,0-105.38,33.72q7.65-33.88,17.43-67.8-28.86-22.6-59.59-43.78A1189.56,1189.56,0,0,1,363,740.64Q378.26,798.3,393.47,856Z"/><path fill="#9e081c" d="M360.77,846.39q16.53,4.53,32.7,9.58l-4.59-17.41Q374.78,842.28,360.77,846.39Z"/><path fill="#d63147" d="M940.52,856a1072.26,1072.26,0,0,1,105.38,33.72q-7.67-33.88-17.43-67.8,28.86-22.6,59.59-43.78A1188.89,1188.89,0,0,0,971,740.64Z"/><path fill="#9e081c" d="M973.22,846.39q-16.54,4.53-32.7,9.58l4.59-17.41Q959.21,842.28,973.22,846.39Z"/><path fill="#ff4f66" d="M1003.6,724.35a1215.66,1215.66,0,0,0-678.14,1.43A9.27,9.27,0,0,0,319,737.22l31,102.88a8.92,8.92,0,0,0,10.83,6.29,1089.92,1089.92,0,0,1,608-1.29,8.9,8.9,0,0,0,10.79-6.33l30.56-103A9.26,9.26,0,0,0,1003.6,724.35Z"/><circle cx="541.78" cy="135.32" r="49.66" fill="#ff4f66"/><path fill="#f93858" d="M589.66,137.08a49.65,49.65,0,0,1-95.24-16.67,49.65,49.65,0,1,0,96.93,12.09A46.8,46.8,0,0,1,589.66,137.08Z"/><path fill="#f9627b" d="M520.1,109.91c-3.91,5.32-9.43,7.9-12.33,5.77s-2.07-8.17,1.84-13.49,9.43-7.9,12.33-5.77S524,104.59,520.1,109.91Z"/><path fill="#f9627b" d="M507.75,124.54c-1,1.83-2.8,2.77-4,2.11s-1.36-2.69-.35-4.52,2.8-2.77,4-2.11S508.76,122.71,507.75,124.54Z"/><circle cx="542.69" cy="128.75" r="23.52" fill="#fff8ee"/><path fill="#012847" d="M539.22,128.92a4.44,4.44,0,0,1-4.15-3.09,5,5,0,0,1,.29-4.14,7.7,7.7,0,0,1,8.66-3,5,5,0,0,1,2.78,3.09,4.5,4.5,0,0,1,.12,2.66,4.73,4.73,0,0,1-1.44,2.3,5.51,5.51,0,0,1,3.13,1.06,5.29,5.29,0,0,1,1.83,2.6,6.23,6.23,0,0,1-.22,5,6.62,6.62,0,0,1-4,3.26,7.32,7.32,0,0,1-4.92.12,5.79,5.79,0,0,1-3.64-3.82,5.86,5.86,0,0,1-.2-3.18A5.29,5.29,0,0,1,539.22,128.92Zm2,4.45a3.63,3.63,0,0,0,1.62,2.14,2.72,2.72,0,0,0,2.28.19,2.63,2.63,0,0,0,1.63-1.48,3.63,3.63,0,0,0-.06-2.67,3.25,3.25,0,0,0-1.53-1.94,2.69,2.69,0,0,0-2.24-.17,2.47,2.47,0,0,0-1.72,1.65A3.63,3.63,0,0,0,541.21,133.37Zm-2.51-8.49a2.49,2.49,0,0,0,1.23,1.53,2.4,2.4,0,0,0,1.9,0,2.31,2.31,0,0,0,1.53-3.18,2.4,2.4,0,0,0-1.21-1.48,2.43,2.43,0,0,0-1.88-.06,2.52,2.52,0,0,0-1.51,1.23A2.42,2.42,0,0,0,538.7,124.88Z"/></svg>