<svg xmlns="http://www.w3.org/2000/svg" viewBox="0 0 1364 960"><ellipse cx="1081.09" cy="317.23" fill="#fff2c9" rx="78.37" ry="129.78" transform="rotate(-45 1081.09 317.228)"/><path fill="#fff2c9" d="M1110,483.24c-29.42-25.41-67.13-40.08-95.35-66.82-69.51-65.85-84-208.35-226.93-284.42C730.93,101.76,635,84.54,571.24,93.13c-133.42,18-252.66,108.41-299.41,234.66s-18.27,277.26,71.27,377.8l709.84,62.79c55.88-18.33,100.17-68.25,111.71-125.92S1154.54,521.67,1110,483.24Z"/><path fill="#e4e6ee" d="M900.65,275l-4,6.72-5.52-3.28c-.24.44-.45.9-.67,1.35l5.42,3.23-4,6.75L887.2,287a14.4,14.4,0,0,0-.58,1.41l4.46,2.66-4,6.75-3.25-1.94c-.17.48-.34,1-.49,1.46l3,1.77-4,6.73L881,305c-.16.52-.28,1-.41,1.53l.9.54L879.8,310c-.34,1.5-.64,3-.91,4.46l3.91-6.56,6.72,4-4,6.73-6.67-4c-.11.54-.22,1.06-.28,1.61l6.16,3.67-4,6.73-3.32-2c-.07.55-.11,1.11-.15,1.67L880,328l-3.13,5.23c0,1.27,0,2.52,0,3.78l6.41,3.82-4,6.75-1.92-1.15c0,.62.11,1.24.2,1.88l.95.56-.75,1.25c.09.78.2,1.58.33,2.39l1.71-2.87,6.75,4-4,6.73-3.41-2c.14.7.3,1.37.47,2.06l2.16,1.28-1.3,2.18c.18.69.36,1.36.56,2l2-3.4,6.75,4-4,6.72-2.93-1.74c.29.78.57,1.53.89,2.28l1.27.76-.59,1c.25.56.5,1.12.76,1.67l1.13-1.89,6.72,4-3.63,6.11q1.29,2.16,2.68,4.22l4.21,2.51-1.07,1.79c.33.43.67.83,1,1.28l1.36-2.29,6.73,4-2.53,4.25c.36.36.73.73,1.11,1.07l2.71-4.55,6.75,4L909,407.2c.42.28.82.58,1.24.86l3.35-5.63,6.75,4L917,412.08l1.35.68,3.3-5.54,6.72,4-2.71,4.55c.49.17,1,.33,1.5.48l2.53-4.25,6.73,4L935,418.3l1.59.28,1.07-1.79,4.2,2.5c1.66.17,3.31.28,5,.35l3.63-6.1,6.75,4-1.12,1.87,1.84-.13.58-1,1.27.76c.78-.09,1.6-.19,2.41-.32L959.34,417l4-6.72,6.73,4-2,3.43c.7-.14,1.37-.29,2.06-.46l1.3-2.18,2.15,1.28c.69-.17,1.36-.36,2-.57l-3.41-2,4-6.72,6.72,4L981.17,414c.77-.27,1.53-.55,2.28-.83l.77-1.29,1,.57,1.74-.71L985,410.55l4-6.75,6.4,3.82c1.1-.57,2.19-1.18,3.28-1.82l3.13-5.26,2.72,1.62c.49-.29.94-.61,1.39-.92l-3.34-2,4-6.73,6.21,3.7c.43-.33.86-.66,1.28-1l-6.71-4,4-6.72,6.75,4-3.93,6.59c1.17-.93,2.37-1.91,3.51-3l1.71-2.86.91.54c.41-.34.77-.71,1.17-1.09l-1.29-.77,4-6.73,3,1.79c.34-.38.71-.75,1-1.14l-3.26-1.94,4-6.75,4.47,2.66c.34-.38.66-.77,1-1.18l-4.66-2.77,4-6.75,5.41,3.22c.3-.4.6-.81.88-1.23l-5.52-3.28,4-6.73,5.85,3.48c.25-.43.54-.87.8-1.3l-5.86-3.5,4-6.72,5.74,3.41c.26-.43.49-.87.73-1.32l-5.7-3.39,4-6.75,5.14,3.06c.21-.46.42-.91.62-1.38l-5-3,4-6.75,4,2.39c.17-.48.36-.95.53-1.43l-3.77-2.25,4-6.73,2.31,1.38.46-1.51-2-1.18,4-6.73h0c.36-1.54.68-3.07,1-4.62l-1.51,2.52-6.74-4,4-6.72,5.11,3c.09-.53.17-1.07.23-1.62L1060,302.8l4-6.75,1.41.84c0-.56.08-1.12.1-1.69l-.74-.44.81-1.36c0-1,.06-2,0-3l-2.15,3.6-6.73-4,4-6.75,4.81,2.87c0-.6-.05-1.2-.09-1.81l-4-2.35,3.25-5.46c-.14-1.28-.34-2.57-.55-3.83l-6-3.54,3.74-6.28c-.27-1-.54-1.93-.86-2.88l-6.14-3.66,2.89-4.85c-.25-.56-.51-1.12-.77-1.65l-3.42,5.73-6.74-4,4-6.75,5.17,3.09c-.42-.87-.87-1.72-1.36-2.57l-3-1.81,1-1.66c-.31-.47-.61-1-.91-1.42l-1.38,2.31-6.75-4,3-5.09c-.35-.41-.7-.79-1-1.18l-3.28,5.5-6.73-4,4-6.75,2.29,1.36a77.17,77.17,0,0,0-6.35-5.53l-15.78-9.4a71.86,71.86,0,0,0-7.86-2.93l2.28,1.36-4,6.75-6.73-4,3.29-5.52c-.54-.12-1-.25-1.58-.33l-3,5.07-6.73-4,1.38-2.31c-.58,0-1.14-.09-1.72-.11l-1,1.64-3-1.81c-1,0-1.93,0-2.91,0l5.18,3.08-4,6.75-6.73-4,3.42-5.73c-.6,0-1.21.06-1.83.11l-2.88,4.85-6.15-3.66c-1,.18-1.95.39-2.94.62l-3.74,6.27-6-3.54c-1.21.41-2.43.85-3.63,1.34l-3.25,5.45-3.94-2.35c-.56.25-1.1.52-1.64.78l4.81,2.87L951,227l-6.73-4,2.15-3.6c-.9.48-1.78,1-2.68,1.5l-.78,1.31-.71-.42c-.5.29-1,.59-1.44.9l1.38.82-4,6.75-4.55-2.71c-.45.31-.88.64-1.31,1l5.09,3-4,6.73-6.73-4,1.51-2.52c-1.24,1-2.43,2-3.61,3.05l0,0-4,6.72-2-1.18c-.36.37-.73.73-1.1,1.12l2.3,1.38-4,6.72L912,247.29c-.34.38-.66.77-1,1.15l4,2.39-4,6.75-5-3c-.33.39-.63.8-.93,1.2l5.14,3.06-4,6.75-5.7-3.39c-.28.42-.55.84-.81,1.27l5.73,3.41-4,6.73-5.87-3.49c-.25.43-.5.89-.76,1.33Zm-1,41.17,4-6.73,6.75,4-4,6.73Zm6,5.33-4,6.73-6.75-4,4-6.73Zm-1.19-13.35,4-6.75,6.75,4-4,6.75Zm4.79-8,4-6.75,6.75,4-4,6.75ZM914,292l4-6.72,6.75,4-4,6.72Zm4.79-8,4-6.73,6.75,4-4,6.73Zm4.78-8,4-6.75,6.75,4-4,6.75Zm4.79-8,4-6.75,6.75,4-4,6.75Zm4.79-8.05,4-6.72,6.75,4-4,6.72Zm4.79-8,4-6.73,6.75,4-4,6.73Zm4.8-8,4-6.73,6.75,4-4,6.73Zm4.77-8,4-6.75,6.75,4-4,6.75Zm-50.7,100.46-6.75-4,4-6.72,6.75,4ZM956.32,221l6.75,4-4,6.75-6.75-4Zm-55.13,74.31,4-6.75,6.73,4-4,6.74Zm6,5.3-4,6.75-6.73-4,4-6.75ZM906,287.24l4-6.72,6.73,4-4,6.73Zm4.79-8,4-6.73,6.73,4-4,6.73Zm4.78-8,4-6.75,6.73,4-4,6.75Zm4.79-8,4-6.75,6.73,4-4,6.75Zm4.79-8,4-6.73,6.73,4-4,6.72Zm-26.78,60.26-6.73-4,4-6.73,6.73,4Zm35.58-75,6.73,4-4,6.73-6.73-4Zm.78-1.32,4-6.73,6.73,4-4,6.73Zm11.51-4-6.73-4,4-6.75,6.73,4Zm17.62-11.3-6.74-4,4-6.72,6.75,4Zm5.3-5.95,6.75,4-4,6.72-6.75-4ZM898.1,337l4-6.72,6.75,4-4,6.72Zm6,5.32-4,6.75-6.75-4,4-6.75ZM902.9,329l4-6.73,6.75,4-4,6.73Zm4.79-8,4-6.73,6.75,4-4,6.73Zm4.77-8,4-6.75,6.75,4-4,6.75Zm4.8-8,4-6.75,6.74,4-4,6.75Zm4.79-8.05,4-6.72,6.75,4-4,6.72Zm4.79-8,4-6.73,6.75,4-4,6.73Zm4.77-8,4-6.75,6.75,4-4,6.75Zm4.8-8,4-6.75,6.74,4-4,6.75Zm4.79-8,4-6.72,6.75,4-4,6.73Zm4.79-8,4-6.72,6.75,4-4,6.72Zm4.79-8,4-6.73,6.74,4-4,6.73Zm4.78-8,4-6.75,6.74,4-4,6.75Zm4.79-8,4-6.75,6.75,4-4,6.75ZM895.27,357.11l-6.75-4,4-6.75,6.75,4Zm81.41-136.66-6.75-4,4-6.73,6.74,4Zm12-1.95-4,6.73-6.73-4,4-6.72ZM901.36,349.84l4-6.75,6.72,4-4,6.74Zm5.95,5.3-4,6.75-6.72-4,4-6.75Zm-1.16-13.35,4-6.72,6.73,4-4,6.72Zm4.79-8,4-6.72,6.72,4-4,6.73Zm4.79-8,4-6.73,6.72,4-4,6.73Zm4.78-8,4-6.75,6.72,4-4,6.75Zm4.79-8,4-6.75,6.73,4-4,6.74Zm4.79-8,4-6.72,6.72,4-4,6.73Zm4.79-8,4-6.73,6.72,4-4,6.73Zm4.78-8,4-6.75,6.72,4-4,6.75Zm4.79-8,4-6.75,6.73,4-4,6.75Zm4.79-8,4-6.73,6.72,4-4,6.72Zm4.79-8,4-6.72,6.72,4-4,6.73Zm4.79-8,4-6.73,6.73,4-4,6.73Zm4.78-8,4-6.75,6.73,4-4,6.75Zm4.79-8,4-6.75,6.73,4-4,6.75Zm4.79-8,4-6.73,6.72,4-4,6.72ZM898.52,369.91l-6.73-4,4-6.73,6.73,4Zm99-147.91-6.73-4,4-6.75,6.73,4ZM909.4,354.63l4-6.75,6.73,4-4,6.75Zm6,5.3-4,6.75-6.73-4,4-6.75Zm-1.17-13.34,4-6.73,6.72,4-4,6.72Zm4.79-8,4-6.72,6.73,4-4,6.73Zm4.79-8,4-6.73,6.73,4-4,6.73Zm4.78-8,4-6.75,6.73,4-4,6.75Zm4.79-8,4-6.75,6.73,4-4,6.74Zm4.79-8,4-6.73,6.73,4-4,6.72Zm4.79-8,4-6.72,6.73,4-4,6.73Zm4.78-8,4-6.75,6.73,4-4,6.75Zm4.79-8,4-6.75,6.73,4-4,6.75Zm4.79-8,4-6.73,6.73,4-4,6.72Zm4.79-8.05,4-6.72,6.73,4-4,6.73Zm4.79-8,4-6.73,6.73,4-4,6.73Zm4.78-8,4-6.75,6.73,4-4,6.75Zm4.79-8,4-6.75,6.73,4-4,6.75Zm4.79-8,4-6.73,6.73,4-4,6.72ZM986,226l4-6.72,6.73,4-4,6.73ZM906.56,374.7l-6.73-4,4-6.73,6.72,4Zm99-147.91-6.73-4,4-6.75,6.73,4Zm2.48,14.13-4,6.73-6.74-4,4-6.72Zm-6-5.34,4-6.73,6.75,4-4,6.72Zm1.18,13.36-4,6.75-6.74-4,4-6.75Zm-4.79,8-4,6.75-6.75-4,4-6.75Zm-4.79,8-4,6.73-6.75-4,4-6.73Zm-4.79,8.05-4,6.72-6.74-4,4-6.72Zm-4.79,8-4,6.73-6.75-4,4-6.73Zm-4.78,8-4,6.75-6.75-4,4-6.75Zm-4.79,8-4,6.75-6.75-4,4-6.75Zm-4.79,8-4,6.73-6.74-4,4-6.73ZM965,313.26l-4,6.72-6.75-4,4-6.72Zm-4.78,8-4,6.75-6.75-4,4-6.75Zm-4.79,8-4,6.75-6.75-4,4-6.75Zm-4.79,8-4,6.73-6.75-4,4-6.73Zm-4.79,8-4,6.73-6.75-4,4-6.73ZM941,353.45l-4,6.72-6.75-4,4-6.72Zm-4.78,8-4,6.75-6.75-4,4-6.75Zm-4.79,8-4,6.75-6.75-4,4-6.75Zm-4.79,8-4,6.73-6.75-4,4-6.73Zm-4.79,8.05-4,6.72-6.75-4,4-6.72Zm89-164.79,6.75,4-4,6.75-6.75-4ZM928.71,377l4-6.75,6.75,4-4,6.75Zm6,5.31-4,6.73-6.74-4,4-6.73ZM933.5,369l4-6.75,6.75,4-4,6.75Zm4.8-8,4-6.73,6.75,4L945,365Zm4.79-8.05,4-6.72,6.75,4-4,6.72Zm4.79-8,4-6.73,6.75,4-4,6.73Zm4.78-8,4-6.75,6.74,4-4,6.75Zm4.79-8,4-6.75,6.74,4-4,6.75Zm4.79-8.05,4-6.72,6.75,4-4,6.72Zm4.79-8,4-6.73,6.75,4-4,6.72Zm4.78-8,4-6.75,6.74,4-4,6.75Zm4.79-8,4-6.75,6.75,4-4,6.75Zm4.79-8,4-6.73,6.75,4-4,6.73Zm4.79-8.05,4-6.72,6.74,4-4,6.72Zm4.79-8,4-6.73,6.74,4-4,6.73Zm4.78-8,4-6.75,6.75,4-4,6.75Zm4.79-8,4-6.75,6.75,4-4,6.75Zm4.79-8,4-6.73,6.74,4-4,6.73Zm4.79-8,4-6.72,6.75,4-4,6.72ZM925.89,397.11l-6.74-4,4-6.72,6.75,4Zm93-171.51,6.75,4-4,6.75-6.75-4ZM912.65,367.46l4-6.75,6.73,4-4,6.75Zm6,5.3-4,6.73-6.73-4,4-6.72Zm-1.17-13.34,4-6.75,6.73,4-4,6.75Zm4.79-8,4-6.73,6.73,4-4,6.72Zm4.79-8.05,4-6.72,6.73,4-4,6.73Zm4.79-8,4-6.73,6.73,4-4,6.73Zm4.78-8,4-6.75,6.73,4-4,6.75Zm4.79-8,4-6.75,6.73,4-4,6.75Zm4.79-8,4-6.73,6.73,4-4,6.72Zm4.79-8.05,4-6.72,6.73,4-4,6.73Zm4.78-8,4-6.75,6.73,4-4,6.75Zm4.79-8,4-6.75,6.73,4-4,6.75Zm4.79-8,4-6.73,6.73,4-4,6.72Zm4.79-8.05,4-6.72,6.73,4-4,6.72Zm4.8-8,4-6.72,6.73,4-4,6.73Zm4.77-8,4-6.75,6.73,4-4,6.75Zm4.79-8,4-6.75,6.73,4-4,6.75Zm4.79-8,4-6.73,6.73,4-4,6.72Zm4.8-8,4-6.72,6.73,4-4,6.73ZM909.81,387.53l-6.73-4,4-6.72,6.73,4Zm108.58-164-6.74-4,4-6.75,6.74,4Zm8.05,4.79-6.75-4,4-6.75,6.75,4Zm8,4.78-6.73-4,4-6.75,6.73,4Zm-.77,1.29-4,6.75-6.73-4,4-6.75,6.68,4ZM936.76,381.82l4-6.75,6.72,4-4,6.75Zm6,5.3-4,6.73-6.73-4,4-6.73Zm-1.16-13.34,4-6.75,6.72,4-4,6.75Zm4.79-8,4-6.73,6.72,4-4,6.72Zm4.79-8.05,4-6.72,6.72,4-4,6.73Zm4.79-8,4-6.73,6.72,4-4,6.73Zm4.78-8,4-6.75,6.72,4-4,6.75Zm4.79-8,4-6.75,6.73,4-4,6.75Zm4.79-8,4-6.73,6.72,4-4,6.72Zm4.79-8.05,4-6.72,6.72,4-4,6.73Zm4.78-8,4-6.75,6.73,4-4,6.75Zm4.79-8,4-6.75,6.73,4-4,6.75Zm4.79-8,4-6.73,6.72,4-4,6.72Zm4.79-8,4-6.72,6.72,4-4,6.73Zm4.79-8,4-6.72,6.73,4-4,6.73Zm4.78-8,4-6.75,6.73,4-4,6.75Zm4.79-8,4-6.75,6.73,4-4,6.75Zm4.79-8,4-6.73,6.73,4-4,6.72Zm4.79-8.05,4-6.72,6.73,4-4,6.73ZM933.91,401.89l-6.72-4,4-6.72,6.73,4Zm103.8-155.95-6.73-4,4-6.74,6.73,4ZM944.8,386.61l4-6.75,6.73,4-4,6.75Zm6,5.3-4,6.73-6.73-4,4-6.72Zm-1.17-13.34,4-6.75,6.73,4-4,6.75Zm4.79-8,4-6.73,6.72,4-4,6.72Zm4.79-8,4-6.72,6.73,4-4,6.73Zm4.79-8,4-6.73,6.73,4-4,6.73Zm4.78-8,4-6.75,6.73,4-4,6.75Zm4.79-8,4-6.75,6.73,4-4,6.75Zm4.79-8,4-6.73,6.73,4-4,6.72Zm4.79-8,4-6.72,6.73,4-4,6.73Zm4.78-8,4-6.75,6.73,4-4,6.75Zm4.79-8,4-6.75,6.73,4-4,6.75Zm4.79-8,4-6.73,6.73,4-4,6.73Zm4.79-8,4-6.73,6.73,4-4,6.72Zm4.79-8,4-6.72,6.73,4-4,6.73Zm4.78-8,4-6.75,6.73,4-4,6.75Zm4.79-8,4-6.75,6.73,4-4,6.75Zm4.79-8,4-6.73,6.73,4-4,6.72Zm4.79-8.05,4-6.72,6.73,4-4,6.73ZM942,406.68l-6.73-4,4-6.73,6.72,4Zm103.79-156-6.75-4,4-6.75,6.75,4Zm-36.82,119.63,4-6.75,6.73,4-4,6.75Zm6,5.3-4,6.73-6.73-4,4-6.72Zm-1.17-13.34,4-6.75,6.73,4-4,6.75Zm4.79-8,4-6.73,6.73,4-4,6.73Zm4.79-8,4-6.73,6.73,4-4,6.72Zm4.78-8,4-6.74,6.73,4-4,6.75Zm4.79-8,4-6.75,6.73,4-4,6.75Zm4.79-8,4-6.73,6.73,4-4,6.73Zm4.79-8,4-6.73,6.73,4-4,6.72Zm-36.36,76.34-6.73-4,4-6.73,6.73,4Zm-4.79,8.05-6.73-4,4-6.73,6.73,4Zm-12.83,3.25-6.73-4,4-6.75,6.73,4Zm2.85-20.1,4-6.72,6.72,4-4,6.73Zm5.94,5.33-4,6.72-6.73-4,4-6.73Zm-1.15-13.37,4-6.72,6.72,4-4,6.73Zm4.78-8,4-6.75,6.73,4-4,6.75Zm4.79-8,4-6.75,6.73,4-4,6.75Zm4.79-8,4-6.73,6.72,4-4,6.72Zm4.79-8.05,4-6.72,6.73,4-4,6.73Zm4.78-8,4-6.75,6.73,4-4,6.75Zm4.79-8,4-6.75,6.73,4-4,6.75Zm4.79-8,4-6.73,6.72,4-4,6.73Zm4.79-8,4-6.73,6.73,4-4,6.72Zm4.79-8.05,4-6.72,6.73,4-4,6.73Zm4.78-8,4-6.75,6.73,4-4,6.75Zm-65.49,91.66,4-6.73,6.73,4-4,6.72Zm6,5.3-4,6.75-6.72-4,4-6.75Zm-1.16-13.35,4-6.72,6.73,4-4,6.73Zm4.79-8,4-6.73,6.72,4-4,6.73Zm4.78-8,4-6.75,6.72,4-4,6.75Zm4.79-8,4-6.75,6.72,4-4,6.75Zm4.79-8,4-6.73,6.73,4-4,6.72Zm4.79-8.05,4-6.72,6.72,4-4,6.73Zm4.78-8,4-6.75,6.72,4-4,6.75Zm4.79-8,4-6.75,6.72,4-4,6.75Zm4.79-8,4-6.73,6.72,4-4,6.72Zm4.79-8.05,4-6.72,6.72,4-4,6.72Zm4.79-8,4-6.72,6.72,4-4,6.73Zm4.78-8,4-6.75,6.72,4-4,6.75Zm4.79-8,4-6.75,6.73,4-4,6.75ZM975.63,405l-6.73-4,4-6.75,6.73,4Zm-10-16.84,4-6.75,6.75,4-4,6.75Zm6,5.31-4,6.75-6.75-4,4-6.75Zm-1.19-13.35,4-6.73,6.75,4-4,6.73Zm4.79-8.05,4-6.72,6.75,4-4,6.72Zm4.8-8,4-6.73,6.75,4-4,6.73Zm4.77-8,4-6.75,6.75,4-4,6.75Zm4.79-8,4-6.75,6.75,4-4,6.75Zm4.79-8,4-6.73,6.75,4-4,6.73Zm4.8-8.05,4-6.72,6.75,4-4,6.72Zm4.77-8,4-6.75,6.75,4-4,6.75Zm4.79-8,4-6.75,6.75,4-4,6.75Zm4.8-8,4-6.73,6.75,4-4,6.73Zm4.79-8.05,4-6.72,6.75,4-4,6.72Zm4.79-8,4-6.73,6.75,4-4,6.73Zm4.78-8,4-6.75,6.74,4-4,6.75Zm4.79-8,4-6.75,6.74,4-4,6.75Zm4.79-8,4-6.73,6.75,4-4,6.73ZM962.83,408.22l-6.75-4,4-6.73,6.75,4ZM950,411.47l-6.75-4,4-6.72,6.75,4Zm2.82-20.08,4-6.75,6.75,4-4,6.75Zm6,5.31-4,6.73-6.75-4,4-6.73Zm-1.19-13.35,4-6.75,6.75,4-4,6.75Zm4.79-8.05,4-6.72,6.75,4-4,6.72Zm4.79-8,4-6.72,6.75,4-4,6.72Zm4.79-8,4-6.73,6.75,4-4,6.73Zm4.78-8,4-6.75,6.75,4-4,6.75Zm4.79-8,4-6.75,6.75,4-4,6.75Zm4.79-8.05,4-6.72,6.75,4-4,6.72Zm4.79-8,4-6.73,6.75,4-4,6.73Zm4.78-8,4-6.75,6.75,4-4,6.75Zm4.79-8,4-6.75,6.75,4-4,6.75Zm4.79-8,4-6.73,6.75,4-4,6.73Zm4.79-8.05,4-6.72,6.75,4-4,6.72Zm4.79-8,4-6.73,6.75,4-4,6.73Zm4.78-8,4-6.75,6.75,4-4,6.75Zm4.79-8,4-6.75,6.75,4-4,6.75Zm4.79-8,4-6.73,6.75,4-4,6.73Zm4.8-8,4-6.72,6.75,4-4,6.72Zm14.79,8.81-6.75-4,4-6.72,6.75,4Zm8,4.78-6.73-4,4-6.72,6.72,4Zm-4.79,8-6.73-4,4-6.73,6.72,4Zm8,4.79-6.73-4,4-6.73,6.73,4Zm-4.79,8.05-6.73-4,4-6.75,6.73,4Zm3.25,12.83-6.73-4,4-6.75,6.73,4Zm-4.78,8-6.73-4,4-6.72,6.73,4Zm3.25,12.83-6.75-4,4-6.72,6.75,4Zm-4.79,8.05-6.75-4,4-6.73,6.75,4Zm-4.79,8-6.75-4,4-6.75,6.75,4Zm-4.79,8-6.75-4,4-6.75,6.75,4Zm-4.78,8-6.75-4,4-6.72,6.75,4Zm-4.79,8.05-6.75-4,4-6.73,6.75,4Zm-4.79,8-6.75-4,4-6.75,6.75,4Zm-4.79,8-6.75-4,4-6.75,6.75,4Zm-11.53,4,4-6.73,6.75,4-4,6.73Zm-18.37,12.6,6.73,4-4,6.75-6.73-4ZM981,399l6.72,4-4,6.75-6.72-4Zm-12.84,3.26,6.73,4-4,6.73-6.72-4Zm-12.83,3.25,6.75,4-4,6.72-6.75-4Zm-12.82,3.23,6.75,4-4,6.75-6.75-4Zm-8-4.78,6.73,4-4,6.74-6.73-4Zm-8-4.79,6.72,4-4,6.74-6.72-4Zm-8-4.79,6.75,4-4,6.75-6.75-4Zm-8-4.79,6.75,4-4,6.75-6.75-4Zm-8-4.78,6.73,4-4,6.74-6.73-4Zm-8-4.79,6.73,4-4,6.74-6.73-4Zm4.78-8,6.72,4-4,6.73-6.73-4Zm-8-4.79,6.73,4-4,6.73-6.72-4Zm-3.25-12.84,6.75,4-4,6.73-6.74-4Zm-3.25-12.83,6.75,4-4,6.75-6.75-4Zm4.79-8,6.75,4-4,6.75-6.75-4Zm-8-4.78,6.73,4-4,6.74-6.73-4Zm4.78-8,6.73,4-4,6.72-6.73-4Zm4.79-8,6.73,4-4,6.73-6.73-4Zm-3.25-12.84,6.72,4-4,6.73-6.73-4Zm4.79-8,6.73,4-4,6.75-6.73-4Zm4.79-8,6.73,4-4,6.75-6.73-4Zm4.78-8,6.72,4-4,6.73-6.73-4Zm4.79-8.05,6.73,4-4,6.73-6.73-4Zm4.79-8,6.73,4-4,6.75-6.73-4Zm4.79-8,6.73,4-4,6.75-6.73-4Zm4.78-8,6.72,4-4,6.72-6.73-4Zm4.79-8,6.73,4-4,6.73-6.73-4Z"/><path fill="#013857" d="M855.28,487.65l16.9,10.07c28.17-53.35,111.27-84.58,111.27-84.58l-44.5,1a99,99,0,0,1-42-25l-19-36.68S888.78,437.48,855.28,487.65Zm26.32-21.1a2,2,0,0,1-3.39-2c7.23-20.09,9.74-40.59,10.2-57.68a5.46,5.46,0,0,1,9-4.07,130.68,130.68,0,0,0,13.78,10.32,129.3,129.3,0,0,0,15.65,7.2,5.46,5.46,0,0,1,.67,9.81C912.66,438.65,895.82,450.62,881.6,466.55Z"/><rect width="28.18" height="98.54" x="835.8" y="469.16" fill="#fb0" transform="rotate(-149.22 849.876 518.44)"/><path fill="#f4a623" d="M863,468.89l8,4.79c-5.95,7.27-57.14,65.24-29.8,86.8L836.78,568l-24.21-14.42Z"/><path fill="#ff4f66" d="M813.9,551.32l24.21,14.42c2.12,1.26,3.11,3.51,2.2,5s-3.35,1.72-5.47.45L810.63,556.8c-2.12-1.26-3.11-3.51-2.2-5S811.78,550.05,813.9,551.32Z"/><path fill="#ff4f66" d="M864.63,466.15l24.21,14.42c2.12,1.26,3.11,3.51,2.21,5s-3.35,1.72-5.47.45l-24.21-14.42c-2.12-1.26-3.11-3.51-2.21-5S862.51,464.88,864.63,466.15Z"/><ellipse cx="867.12" cy="504.57" fill="#ffdb63" rx="20.75" ry="3.95" transform="rotate(-59.3 865.111 504.703)"/><path fill="#ff4f66" d="M885,292.45c-18.56,49.6-4.24,98.2,28.53,117.72s82.32,9,117.1-31c44.76-51.39,49.52-130.41-2.51-161.41S908.88,228.63,885,292.45Zm80.27-70.6c14.36-5,36-8.34,57.71,4.58S1052.1,260,1054.5,275c5.13,32.07-6.92,69.47-31.43,97.61-15.16,17.41-34.4,29.71-54.16,34.63-18.49,4.61-36.33,2.59-50.23-5.69s-24.18-23-28.93-41.46c-5.08-19.73-3.43-42.5,4.66-64.12C907.48,261,934.64,232.61,965.28,221.85Z"/><path fill="#fb0" d="M985.4,401.38q5.75,2.76,11.56,5.39,3.88-2.14,7.66-4.65-5.52-2.46-11-5C990.94,398.66,988.19,400.1,985.4,401.38Z"/><path fill="#fb0" d="M877.24,326.24q-.39,4.51-.44,9,5.09,3.85,10.25,7.6-.28-4.62-.14-9.31Q882,329.94,877.24,326.24Z"/><path fill="#fb0" d="M1013.49,382.45c2.62,1.18,5.26,2.35,7.9,3.49.68.31,1.36.61,2.06.9q2.79-2.71,5.47-5.69-4.9-2.1-9.74-4.28c-1.59,1.67-3.23,3.29-4.89,4.84Z"/><path fill="#fb0" d="M884.12,294.89q-1.33,3.78-2.4,7.52c.59.48,1.18.94,1.78,1.4q3.39,2.65,6.83,5.27c.08-.36.18-.7.26-1.05.58-2.2,1.22-4.42,1.93-6.61Q888.29,298.21,884.12,294.89Z"/><path fill="#007c8a" d="M360.07,518.14a9.37,9.37,0,0,1-6.83-7,14.19,14.19,0,0,1,1.55-9.94,30.54,30.54,0,0,1,6.52-7.91c4.17-3.85,9-7.27,14.36-8.93a162.73,162.73,0,0,0-23.11-9.52l-2.17-.68q-2.16,8.65-4.3,17.32c-1,3.85-2,7.8-4.29,11s-6.32,5.56-10.21,4.77a9.4,9.4,0,0,1-6.83-7,14.24,14.24,0,0,1,1.55-9.94,30.74,30.74,0,0,1,6.52-7.91c4.31-4,9.29-7.49,14.88-9.08a166.12,166.12,0,0,0-27.21-5.51q-2.5,8.7-5,17.38c-1.1,3.81-2.26,7.73-4.71,10.85s-6.52,5.31-10.38,4.37a9.38,9.38,0,0,1-6.56-7.23,14.25,14.25,0,0,1,1.93-9.88,30.63,30.63,0,0,1,6.82-7.64c4.18-3.57,8.93-6.73,14.17-8.24a164.12,164.12,0,0,0-20.08-.64c-2,.06-4,.18-6,.31L285,484.85c-1.23,3.77-2.51,7.65-5.06,10.69s-6.7,5.1-10.53,4a9.37,9.37,0,0,1-6.31-7.45,14.2,14.2,0,0,1,2.26-9.8,30.52,30.52,0,0,1,7.06-7.42,41.28,41.28,0,0,1,12.74-7.27A156.18,156.18,0,0,0,265.22,471l-13.16,12.5c-2.87,2.73-5.85,5.53-9.54,7s-8.32,1.29-11.18-1.46a9.35,9.35,0,0,1-2-9.55A14.23,14.23,0,0,1,236,472a30.49,30.49,0,0,1,9.75-3.17c6.23-1.12,12.84-1.39,18.76.75l.06,0A158.17,158.17,0,0,1,285.74,466,40.29,40.29,0,0,1,272,459a30.55,30.55,0,0,1-7.35-7.13,14.22,14.22,0,0,1-2.64-9.71,9.36,9.36,0,0,1,6-7.69c3.78-1.22,8,.67,10.68,3.61s4.1,6.76,5.48,10.49q3.15,8.49,6.29,17a162.28,162.28,0,0,1,26.27.31c-4.8-2.42-8.85-6.32-12.28-10.51a30.64,30.64,0,0,1-5.35-8.74,14.18,14.18,0,0,1-.14-10.06,9.37,9.37,0,0,1,7.73-6c4-.24,7.59,2.64,9.45,6.15s2.29,7.57,2.7,11.51l1.86,18,.83.1a167,167,0,0,1,26.55,5.45c-5-3.38-8.63-8.54-11.44-13.92a30.49,30.49,0,0,1-3.47-9.63,14.23,14.23,0,0,1,1.9-9.88,9.39,9.39,0,0,1,8.78-4.27c3.94.56,6.91,4.11,8,7.92s.71,7.88.31,11.83l-1.89,18.6.36.11.14-.11a.83.83,0,0,1,0,.15,165.25,165.25,0,0,1,24.51,9.75c-2.93-4.55-4.49-10-5.36-15.37a31.3,31.3,0,0,1-.25-10.44,14.46,14.46,0,0,1,5-8.94,9.54,9.54,0,0,1,9.85-1.32c3.62,1.81,5.35,6.2,5.19,10.24s-1.84,7.84-3.5,11.53l-7.05,15.72c0,.17-.08.34-.13.51a157.35,157.35,0,0,1,24.34,15.86c.8.63,0,2-.85,1.36a157.42,157.42,0,0,0-23.89-15.61l-4.08,16.43c-.95,3.85-2,7.81-4.28,11S364,518.93,360.07,518.14Z"/><path fill="#007c8a" d="M1054.15,677.81a9.37,9.37,0,0,0,5.17-8.28,14.21,14.21,0,0,0-3.65-9.38,30.5,30.5,0,0,0-8.07-6.31c-4.9-2.87-10.33-5.18-15.95-5.64a162.38,162.38,0,0,1,20.53-14.26c.65-.39,1.31-.76,2-1.14q4,8,7.93,16c1.76,3.55,3.59,7.2,6.55,9.84s7.37,4.07,11,2.46a9.37,9.37,0,0,0,5.17-8.28,14.26,14.26,0,0,0-3.65-9.38,30.82,30.82,0,0,0-8.07-6.31c-5.06-3-10.68-5.33-16.48-5.68A166,166,0,0,1,1082,620.22q4.33,7.93,8.65,15.88c1.9,3.49,3.87,7.06,6.93,9.59s7.52,3.78,11.09,2a9.35,9.35,0,0,0,4.84-8.47,14.19,14.19,0,0,0-4-9.23,30.32,30.32,0,0,0-8.3-6c-4.85-2.59-10.17-4.64-15.61-5a161.56,161.56,0,0,1,19.48-4.95c2-.36,3.91-.68,5.87-1l9.44,16c2,3.42,4.09,6.93,7.24,9.35s7.63,3.54,11.14,1.67a9.36,9.36,0,0,0,4.56-8.63,14.17,14.17,0,0,0-4.3-9.09,30.54,30.54,0,0,0-8.5-5.72,41.17,41.17,0,0,0-14-4.36,156,156,0,0,1,20.16-1l15.53,9.38c3.4,2.05,6.91,4.14,10.83,4.78s8.41-.52,10.6-3.83a9.32,9.32,0,0,0-.1-9.75,14.17,14.17,0,0,0-8.12-6,30.68,30.68,0,0,0-10.2-1c-6.33.25-12.84,1.41-18.16,4.77H1137a158.4,158.4,0,0,0-21.45,1.08,40.51,40.51,0,0,0,11.9-9.74,30.7,30.7,0,0,0,5.65-8.55,14.3,14.3,0,0,0,.49-10.05,9.38,9.38,0,0,0-7.53-6.22c-4-.37-7.68,2.38-9.65,5.83s-2.55,7.48-3.1,11.41q-1.23,9-2.48,18a163.81,163.81,0,0,0-25.59,6c4.16-3.39,7.28-8.07,9.73-12.9a30.75,30.75,0,0,0,3.35-9.69,14.19,14.19,0,0,0-2-9.85,9.37,9.37,0,0,0-8.83-4.16c-3.93.62-6.85,4.21-7.9,8s-.62,7.88-.17,11.82q1,9,2.06,18l-.79.27a168,168,0,0,0-24.75,11c4.14-4.37,6.59-10.19,8.17-16a30.46,30.46,0,0,0,1.32-10.15,14.26,14.26,0,0,0-4-9.24,9.37,9.37,0,0,0-9.5-2.28c-3.72,1.39-5.85,5.5-6.11,9.46s1,7.84,2.24,11.61q2.93,8.88,5.84,17.77l-.33.18-.15-.08.06.14a166.06,166.06,0,0,0-21.83,14.79c1.88-5.07,2.23-10.71,1.92-16.16a31.06,31.06,0,0,0-2-10.25,14.55,14.55,0,0,0-6.82-7.66,9.55,9.55,0,0,0-9.91.84c-3.14,2.54-3.88,7.2-2.86,11.11s3.49,7.26,5.9,10.51l10.26,13.84.24.47A156.87,156.87,0,0,0,1008,669.57c-.65.8.47,2,1.13,1.16a157.63,157.63,0,0,1,20-20.39l7.52,15.17c1.76,3.55,3.59,7.2,6.56,9.84S1050.52,679.42,1054.15,677.81Z"/><path fill="#ffb121" d="M337.8,437.23A254.62,254.62,0,0,1,382.22,423c.72,3.63,4-.37,2.74-2.32,0,0,3.61-11.33,6-23.16,2.58-11.75,3.92-24,3.92-24,1.18-5.35-2.48-12.33-8.73-17-11.24-8.48-24.18-5.24-23.59,4.14-.06.59-1.17.31-1.32-.34-1.86-10.65-5.74-25.48-24.36-26.78-13-.71-10.65,10.46-13.3,7.91-4.63-5.94-13.07-22.07-24-24.26-11.9-3.86-23.47,2.55-20.69,10.17.25.93-1.32,1.34-2.4.66q-7.18-4.56-14.88-8.64c-20.11-10-38.47,9.07-19.37,17.33,1.11.58,6.9,2.84,2.93,3.28,0-.31-22.32-1.64-22.36-1.32-22.2.55-19.78,22.26-.4,22.13.05-.29,20.22,1.09,20.17,1.38,6,2.26-17.54,2.25-10.05,17.2,7.16,11.64,19.86,5.77,30.65,3.72,1-.2,1.89.82,1.34,1.55-6.84,9.19,5.75,22.46,16.62,17.95.37-.05,19-7.3,17.28-4.34-7.83,9.13,4.22,24.25,15.67,19.51-.06-.08,10.29-3.6,10.35-3.52.56-.18,1,.59.53.9C311.51,423.42,323.54,444.13,337.8,437.23Z"/><path fill="#d66f02" d="M396.72,434.6a223.08,223.08,0,0,0-15.07-17.32q-5.7-5.92-11.8-11.38h0a70.69,70.69,0,0,0,6.71-18.41A73.21,73.21,0,0,0,377,360a68.74,68.74,0,0,1-1.47,26.62,67.55,67.55,0,0,1-7.47,17.7,222.78,222.78,0,0,0-24.24-18.51h0a69.64,69.64,0,0,0,1.29-20,77,77,0,0,0-7.58-27.26A72.17,72.17,0,0,1,344,365.21a66,66,0,0,1-2.13,19.3,225.61,225.61,0,0,0-30.43-16.46h0a70.09,70.09,0,0,0-4.63-20.24,81.14,81.14,0,0,0-15.51-24.72,75.91,75.91,0,0,1,14.25,24.43,65.91,65.91,0,0,1,3.62,19.54,224.69,224.69,0,0,0-29.92-10.49h0a74.38,74.38,0,0,0-11.54-15.11,90.14,90.14,0,0,0-24.13-17.29,84.92,84.92,0,0,1,23,17.41,69.47,69.47,0,0,1,10.25,14.34,223.37,223.37,0,0,0-43.63-6.85,109.34,109.34,0,0,0-15.77.08c-6.74.88-1.35,1.1,15.63,2a220.73,220.73,0,0,1,43.09,7.26c-4.24,2.63-9.23,5.49-14.92,8.42-8.85,4.53-16.77,7.92-23.06,10.46,6.57-2.45,14.74-5.68,23.94-9.92,6.24-2.89,11.74-5.7,16.44-8.29h0A220.23,220.23,0,0,1,307.9,369.8a151.07,151.07,0,0,1-15.72,11.58,217.69,217.69,0,0,1-21.87,12.31c6.26-2.87,14.09-6.68,22.81-11.75a182.87,182.87,0,0,0,17-11.13h0a221.69,221.69,0,0,1,29.79,16.58,130.4,130.4,0,0,1-16.07,10.55,193.88,193.88,0,0,1-22.5,10.69,237.2,237.2,0,0,0,23.38-10,158.27,158.27,0,0,0,17.15-9.89h0a220.9,220.9,0,0,1,23.62,18.49,113.8,113.8,0,0,1-16.21,10.14A171.85,171.85,0,0,1,326.43,427a204.42,204.42,0,0,0,23.7-9,134.46,134.46,0,0,0,17.09-9.3h0q5.92,5.43,11.46,11.32a218.82,218.82,0,0,1,14.57,17.19c7.22,9.39,13.08,18,13.67,17.65l1.77-1.1C409.28,453.47,404.21,444.11,396.72,434.6Z"/><path fill="#d63147" d="M426.55,818.8c-66.6,8-226.06-59.46-226.06-59.46s55.34-21.43,69.92-46q-21.87-52.53-43.69-112c66.6,44.12,133.23,60,199.83,62.09,6.66,26.06,10.87,51.91,11.4,77.44C438.53,767.2,435.18,793.21,426.55,818.8Z"/><path fill="#9e081c" d="M438,740.86c-43-8.49-99.31-25-128.33-36.18,59-3.73,81.35-4.43,116.93-41.26C433.21,689.48,437.42,715.33,438,740.86Z"/><path fill="#049c9a" d="M916.38,514.8c-9.06,83.55-54.46,162.42-122.75,211.31h0A286.35,286.35,0,0,1,762,746.27,303.22,303.22,0,0,1,567.4,779.5C356.58,746.11,255.94,508.11,352.8,335.44a295.56,295.56,0,0,1,50.49-65.93,304,304,0,0,1,74.29-55.22C665.8,115.36,916.72,246.6,918,480.17A285.6,285.6,0,0,1,916.38,514.8Z"/><path fill="#0f74b2" d="M542.12,779.32c.82,0,1.2.13.93.33S542.53,779.68,542.12,779.32Z"/><path fill="#a6c738" d="M576.47,298.3c-3.49.88-7.18-.05-10.68-1-2.32-.64-5.07-1.72-5.43-4.07-.47-3.27,3.69-4.85,6.38-6.75a10.21,10.21,0,0,0-7.59-18.43c-2.66.45-5.1,2-7.77,2.23-3.49.37-6.83-1.38-9.92-3s-6.5-3.29-10-2.73-6.55,4.4-5,7.53c4.39-.37,9-.72,13,.93s7.42,6,6.43,10.27c-.36,1.47-1.16,3.05-.5,4.43.53,1.09,1.79,1.56,2.81,2.21,5.27,3.42,2.9,12.74-3,14.94s-12.62-1.22-16.49-6.16c-3.08-3.91-5.69-9.3-11.09-9.06a8.14,8.14,0,0,0-6.76,4.93,14,14,0,0,0-.8,2.21c-1.7,6.78-8.88,10.62-15.66,8.94a1.19,1.19,0,0,0-.27-.07,6,6,0,0,0-7.45,5.43,16.12,16.12,0,0,1-6.4,12.34c-7.07,5.11-17.92,4.17-23.43,10.95-3.33,4.13-3.56,9.89-3.42,15.19s.48,10.94-2.1,15.59l-.06.13c-3.3,5.7-12.18,2.11-10.95-4.35a28,28,0,0,0-.39-13.58c-1.71-5.6-6.4-10.54-11.93-11.89a2.9,2.9,0,0,0-3.45,3.57c.4,1.43.77,2.85,1.17,4.26l-13.24-10.57A16,16,0,0,0,400,329.11c-11.62,2-11.68,15.7-10,25.92.73,4.43,2.49,9.91,6.94,10.43,5.23.6,10.8-6.32,14.7-2.8,4.73,4.24-5.47,11.51-3.25,17.44s12.76,2,17.24,6.63c5.53,5.7-4.44,15.28-1.53,22.69,1.91,4.89,8.14,6,13.22,7.4s10.64,6.25,8.31,10.94a3.19,3.19,0,0,1-1.13,1.23c-10.78,7.13-15.43-9.16-25.08-9.12-1.73,0-3.49.55-5.13,0-3.21-1-4-5-4.64-8.3a34.7,34.7,0,0,0-24.58-25.76c-4.89-1.29-10.44-1.67-14.07-5.18-5.4-5.21-3.68-14-5.09-21.38-1.72-8.92-8.35-16-13.13-23.84a295.56,295.56,0,0,1,50.49-65.93,304,304,0,0,1,74.29-55.22,41.73,41.73,0,0,0,3.2,4.55,59,59,0,0,0,19.62,15.77c1.79.89,3.78,1.72,5.77,1.45,7.44-.93,6.76-13.78,13.68-16.68,3.28-1.37,7.33,0,10.42-1.68,3.74-2.07,4-7.39,2.93-11.52s-3.12-8.26-2.26-12.45c7.76-.79,10.18,11.7,8.92,18.09a11.78,11.78,0,0,0,3.56,10.92c9.24,8.27,17.48-8.72,25.19-4,3,2.3,3,6.91,1.78,10.48s-3.46,6.88-4,10.62c-1.72,12.65,15.88,23.2,11.46,35.15-.6,1.63-1.61,3.19-1.65,4.92,0,4.12,5.27,6.45,6.13,10.51C583.14,294,580,297.4,576.47,298.3Z"/><path fill="#a6c738" d="M645,552.56c-14.88-15-35.78-24.83-56.53-30.85-7.65-2.08-16.35-4.13-20.3-10.62-2.87-4.73-2.39-10.64-4.44-15.73-2.87-7.54-12.76-2.7-22.17-14.73-7.28-10.25-26.62-21.12-32.54-4.12-2.85,7.33-6,16.84-14.24,17.48-13.39,2.76-52.12,7-46.14,26.94,4.57,8,21.18,5.37,23.38,14.26-2.39,27.34,28.63,19.34,29.38,35.55.33,26.93-29.34,53-9.39,79-12,14-8.13,33.35-7.8,50.58-1,17.72,29.1,29.94,44.06,23,5.19-20.22-35.83-7.6-34.92-35.78-1.25-7.15,2.19-12.58,8.95-15.38,6.7-4.79,6-15,12-20.53s16.61-4.11,23.58-8.75c15.1-15.07,36.05-22.94,55.92-31,32.72-10.56,5.25-33.94,45-51C642.33,559.13,646.51,556,645,552.56Z"/><path fill="#a6c738" d="M765.14,221.38c-1.24,1.53-3.39,1.94-5.28,2.26a47.73,47.73,0,0,1-9.78.52l-2.45-.12c-7.59-.36-15.77-.8-22.17,3.28-5,3.19-8.34,8.87-13.91,10.86-2.74,1-5.85,1-8.36,2.53s-4,4.56-5.2,7.39a168.73,168.73,0,0,0-6.77,19.32c-.43,1.46-.92,3-2.16,3.87s-3.22.64-4.9.69c-5,.2-9.17,3.86-12.51,7.6s-6.51,7.95-11.12,9.95a3.64,3.64,0,0,1-2.11.38,3.48,3.48,0,0,1-2.08-1.94c-2.46-4.43-2.16-9.91-.87-14.82s3.41-9.58,4.44-14.56c.64-3.07.85-6.21,1.21-9.32,2.31-18.72,10.89-36.31,12.54-55.08a22,22,0,0,1,1.23-6.77h0a292.53,292.53,0,0,1,30.32,7.72A297.07,297.07,0,0,1,750,213.26h0Q757.72,217.1,765.14,221.38Z"/><path fill="#a6c738" d="M870.12,319.1a9.15,9.15,0,0,1-2.15,3.32c-2.89,2.82-7.43,3.25-11.39,2.4s-7.6-2.75-11.42-4A38.36,38.36,0,0,0,828.25,319c-2,.24-4,.64-5.88.17a11.18,11.18,0,0,1-4.3-2.31A33.22,33.22,0,0,1,806,296.79c-.7-3.9-.53-8.33,2.13-11.26,2-2.17,5.09-3.21,6.66-5.67,2.05-3.17.84-7.34,1.34-11.07a12.13,12.13,0,0,1,4.94-8q9.95,9.13,19,19.18,6.93,7.65,13.36,15.8c.12.14.26.32.39.5,1.38,1.74,2.75,3.53,4.08,5.29l1.44,2c1.38,1.86,2.73,3.69,4,5.56s2.56,3.71,3.78,5.56c.46.7.92,1.36,1.35,2.06Z"/><path fill="#a6c738" d="M918,476.68c-9-.28-17.67-3.7-26.07-7-9.67-3.84-19.78-7.95-26.49-15.92-4.87-5.76-8.17-13.62-15.25-16.21-3.21-1.16-6.71-1-10.09-1.38a34,34,0,0,1-18.77-8.3c-2.58-2.3-4.89-5.06-8-6.54-4.08-1.94-8.84-1.39-13.33-.82l-38.71,5c-4.92.64-9.91,1.27-14.82.48s-9.79-3.2-12.38-7.45-2.23-10.41,1.64-13.55c2.73-2.24,6.59-2.58,10.11-2.22,4.72.49,9.28,2.05,14,2.93s9.75.93,13.93-1.32,7-7.49,5.3-11.93c-.9-2.36-2.86-4.12-4.12-6.29a12,12,0,0,1-1.4-8.41,3.88,3.88,0,0,1,1-2.17c1.06-1,2.74-.9,4.17-.52,4.35,1.13,8.27,3.89,12.77,4.27,6.09.53,11.53-3.37,16.64-6.69A117.17,117.17,0,0,1,823.65,364c2-.92,4.25-1.78,6.3-1,1.66.64,2.74,2.27,4.11,3.4,2.67,2.21,6.47,2.59,9.84,1.91s6.51-2.25,9.68-3.63a68.26,68.26,0,0,1,12-4c6.42-1.45,14.09-2.07,20.42.19,2.54.91,4.45,3.76,6.43,5.52,1.26,1.1,2.54,2.14,3.86,3.13l.19.45c.71,1.79,1.43,3.62,2.12,5.46s1.27,3.4,1.87,5.09c1.25,3.43,2.41,6.85,3.5,10.34.56,1.76,1.12,3.55,1.65,5.34,1.53,5.19,2.95,10.47,4.21,15.78.87,3.58,1.64,7.19,2.37,10.82s1.36,7.23,2,10.9a296.76,296.76,0,0,1,3.77,40.89C917.93,475.32,917.93,476,918,476.68Z"/><path fill="#a6c738" d="M916.38,514.8c-9.06,83.55-54.46,162.42-122.75,211.31h0A286.35,286.35,0,0,1,762,746.27c-5.71-9.21,3.28-24.26,0-36.16-3.42-6.88-8.48-13-7.31-21.27q0-24.47.09-48.93c-1.81-12.6,11-13.84,18.61-20.34,9.53-12,1.17-24.9,14.11-38.53,1.55-4.92-3.82-9.15-8.58-11.17-27.69-13.55-50.55,2.83-59.43-13.25-10.21-15.08-11.22-34.3-11.9-52.48-1-5.56,2.35-9.37,6.59-12.38,5.14-5.14,5.08-14.09,10.63-18.78,6.85-5.79,18.2-1.93,25.51-7.14,3.72-2.66,5.81-7.32,9.86-9.48,9.89-3.2,21-1.3,31.32-2.32,37-1.26,34.27,12.7,38.39,42.3,2.49,12.14,20.9,17.82,23.16,3.3,17.32-4.7,28.12,7,42.43,13.07C901.71,514.36,909.78,513.21,916.38,514.8Z"/><path fill="#a6c738" d="M503.79,339.87c2.71-11.68,11.4-3.23,9.8-21.46,1.51-11,16.25-9.94,7,12.6-1.5,3.39.45,6.2,3.27,8.14,4.87,1.69,13.43,25.55,2.89,17.52-5-4.29-16.29-13.41-20.82-4.79-3,.95-3-3.15-1.93-4.9C504.16,344.63,503.34,342.24,503.79,339.87Z"/><path fill="#fff" d="M863.27,526.41l-.12-.22c-.06-.12-.13-.24-.2-.36s-.15-.27-.23-.41l-.14-.25-.28-.46-.15-.23-.16-.26,0-.07-.56-.84-.31-.41-.27-.37-.59-.75-.37-.45-.09-.12c-.28-.33-.57-.65-.87-1s-.53-.55-.8-.82-.45-.45-.69-.67-.54-.5-.82-.74l-.42-.35c-.56-.47-1.15-.93-1.75-1.36l-.34-.24-1-.69-.43-.26c-.55-.33-1.1-.65-1.66-.94l-.81-.41c-.27-.14-.54-.27-.82-.39-.51-.23-1-.45-1.55-.65l-.15-.07-.26-.08c-.9-.33-1.81-.62-2.73-.86l-.47-.12-1.1-.25-.73-.14-.26-.05h-.12a29.4,29.4,0,0,0-4.79-.41q-1,0-1.92.06c-8.05.53-22.12,4.83-25.86,27.62-.16.93-.31,1.92-.47,3a115.84,115.84,0,0,1-2.63,13.33c-.18.67-.38,1.34-.59,2-.08.27-.17.55-.26.83s-.23.68-.34,1c-3.38,9.83-9.79,20.21-23.45,28.12a130.41,130.41,0,0,0-13.3,8.87c-3.14-3.79-6-6.82-8.19-9-11.31-11.25-14.82-23.06-15.52-33.51l0-.49c0-.42-.05-.85-.06-1.27,0-.6,0-1.19,0-1.78s0-.92,0-1.37c0-4.52.48-8.7.86-12.35.12-1,.22-2,.31-3,.07-.7.12-1.39.16-2.06,0-.45,0-.87.05-1.31,0-.22,0-.44,0-.66,0-.6,0-1.19,0-1.76v-.11a40.14,40.14,0,0,0-.71-7.1c-2-10-7.6-15.36-12.81-18.24l-.33-.18-.49-.26-.5-.24-.23-.12-.36-.16-.44-.2-.26-.11-.5-.21L729,500l-.28-.11-.11,0-.93-.33-.08,0c-.66-.22-1.32-.41-2-.59l-.2-.05-.16,0c-.66-.16-1.33-.29-2-.41l-.36-.06c-.69-.1-1.38-.19-2.07-.25h-.27c-.74-.06-1.48-.09-2.23-.09-.54,0-1.09,0-1.63,0h-.44l-1.35.13h0a29.65,29.65,0,0,0-15.64,6.75c-6.17,5.2-15,17-4.44,37.58.43.84.89,1.73,1.38,2.66a114.9,114.9,0,0,1,5.79,12.31c.25.64.48,1.29.71,1.95.1.27.19.54.28.82s.22.68.33,1c3.12,9.92,4.12,22.08-2.19,36.56-8.12,18.61-29.22,81.07,25.24,130.46l.18.16.81.73.13.11c.76.68,1.54,1.35,2.33,2l.73.62.37.32c1.1.9,2.21,1.81,3.35,2.7a17,17,0,0,0,10.11,3.48h0a16.71,16.71,0,0,0,3.07-.29l8.11-1.55.3.13a16.51,16.51,0,0,0,6.57,1.39h0a16.29,16.29,0,0,0,4.91-.75,15.47,15.47,0,0,0,1.56-.58c75-32.19,70.28-103.15,67-124.13a58.59,58.59,0,0,1-.67-6.87,54.86,54.86,0,0,1,.13-6.33l.06-.57c0-.48.09-1,.15-1.43h0c.16-1.31.37-2.58.62-3.82a50.26,50.26,0,0,1,7.11-17.18l.24-.38c.23-.36.47-.72.71-1.08s.66-1,1-1.43A114.66,114.66,0,0,1,854.06,563l2-2.22c.47-.53.92-1,1.36-1.57.27-.33.52-.66.78-1l.45-.55c.35-.46.69-.92,1-1.37l.1-.13a37.8,37.8,0,0,0,4.83-9,26.63,26.63,0,0,0,1.63-9.11A25,25,0,0,0,863.27,526.41Z"/><path fill="#fff" d="M585.16,229.47a55,55,0,1,1,52.18-37.56A55,55,0,0,1,585.16,229.47Z"/><circle cx="585.15" cy="174.42" r="48.04" fill="#e4e6ee"/><path fill="#dddfe8" d="M614.74,136.57a48,48,0,0,1-71.4,61.48,48,48,0,1,0,71.4-61.48Z"/><ellipse cx="570.35" cy="148.48" fill="#f3f5f8" rx="22.42" ry="11.11" transform="rotate(-35.43 570.364 148.484)"/><path fill="#d63147" d="M595,221.45l.2-.24c-10.94-11.16,6.6-36.55,16-50.19.94-1.35,1.81-2.62,2.57-3.75,4.45-6.59,3.25-15.37,1.45-21.59a59.7,59.7,0,0,0-5-12l-.25.18c.12.21,11.94,20.81,3.56,33.23-.76,1.12-1.63,2.39-2.57,3.74-4.89,7.08-11.59,16.78-15.77,26.24C590.28,208.33,590.2,216.53,595,221.45Z"/><path fill="#ff4f66" d="M597.58,187v.06a.44.44,0,0,0,.53.37l2.16-.49a.42.42,0,0,1,.53.41l.07,2.74a.43.43,0,0,0,.47.42h0a.44.44,0,0,0,.39-.44l-.1-3.88a.43.43,0,0,0-.53-.41l-3.21.73A.44.44,0,0,0,597.58,187Z"/><path fill="#ff4f66" d="M592.83,196.43l0,.06a.43.43,0,0,0,.56.3l2.09-.77a.45.45,0,0,1,.58.35l.41,2.71a.42.42,0,0,0,.52.35h0a.44.44,0,0,0,.34-.49l-.59-3.83a.43.43,0,0,0-.57-.34l-3.1,1.14A.43.43,0,0,0,592.83,196.43Z"/><path fill="#ff4f66" d="M589.73,207.62h0a.43.43,0,0,0,.63.05l1.73-1.65a.44.44,0,0,1,.67.09l1.32,2.17a.44.44,0,0,0,.63.13l0,0a.42.42,0,0,0,.11-.57L593,204.7a.43.43,0,0,0-.67-.09L589.77,207A.44.44,0,0,0,589.73,207.62Z"/><path fill="#ff4f66" d="M589.11,216.63v0a.43.43,0,0,0,.64,0l1.73-1.64a.43.43,0,0,1,.67.09l1.31,2.17a.43.43,0,0,0,.63.12l0,0a.44.44,0,0,0,.11-.57l-1.89-3.12a.43.43,0,0,0-.67-.09l-2.55,2.43A.42.42,0,0,0,589.11,216.63Z"/><path fill="#ff4f66" d="M602.08,179.71v.07a.44.44,0,0,0,.53.36l2.16-.49a.44.44,0,0,1,.53.41l.07,2.74a.42.42,0,0,0,.47.42h0a.42.42,0,0,0,.39-.44l-.09-3.87a.43.43,0,0,0-.53-.42l-3.21.74A.43.43,0,0,0,602.08,179.71Z"/><path fill="#ff4f66" d="M606.47,173.2v.07a.44.44,0,0,0,.52.37l2.17-.5a.44.44,0,0,1,.53.42l.06,2.74a.44.44,0,0,0,.48.42h0a.43.43,0,0,0,.39-.45l-.09-3.87A.44.44,0,0,0,610,172l-3.22.73A.43.43,0,0,0,606.47,173.2Z"/><path fill="#ff4f66" d="M611.31,167.56l0,0a.44.44,0,0,0,.62.16l1.94-1.28a.42.42,0,0,1,.64.2l.92,2.43a.43.43,0,0,0,.6.24l0,0a.43.43,0,0,0,.21-.54L615,165.31a.44.44,0,0,0-.65-.21l-2.87,1.9A.43.43,0,0,0,611.31,167.56Z"/><path fill="#ff4f66" d="M613.85,161.53h0a.43.43,0,0,0,.63,0l1.69-1.82a.44.44,0,0,1,.67,0l1.48,2a.43.43,0,0,0,.63.06l.07-.05a.43.43,0,0,0,.06-.59L617,158.32a.44.44,0,0,0-.67,0l-2.45,2.65A.44.44,0,0,0,613.85,161.53Z"/><path fill="#ff4f66" d="M610.3,139.58h0a.43.43,0,0,0,.51-.33l.55-2.51a.43.43,0,0,1,.56-.32l2.37.79a.43.43,0,0,0,.55-.27l0-.09a.43.43,0,0,0-.27-.55l-3.29-1.1a.42.42,0,0,0-.56.31l-.78,3.55A.43.43,0,0,0,610.3,139.58Z"/><path fill="#ff4f66" d="M612.09,143.79h0a.43.43,0,0,0,.5-.33l.55-2.52a.44.44,0,0,1,.56-.32l2.37.8a.45.45,0,0,0,.55-.28l0-.08a.44.44,0,0,0-.28-.55l-3.29-1.11a.43.43,0,0,0-.56.32l-.78,3.55A.44.44,0,0,0,612.09,143.79Z"/><path fill="#ff4f66" d="M613.77,148.47h0a.45.45,0,0,0,.51-.34l.54-2.51a.45.45,0,0,1,.57-.32l2.36.8a.44.44,0,0,0,.55-.28l0-.09a.44.44,0,0,0-.27-.55l-3.3-1.1a.44.44,0,0,0-.56.32l-.77,3.55A.44.44,0,0,0,613.77,148.47Z"/><path fill="#ff4f66" d="M614.12,154h0a.44.44,0,0,0,.62-.11l1.34-2.09a.43.43,0,0,1,.66-.08l1.81,1.7a.42.42,0,0,0,.63,0l0-.06a.43.43,0,0,0,0-.59l-2.57-2.43a.44.44,0,0,0-.67.08l-2,3A.45.45,0,0,0,614.12,154Z"/><path fill="#d63147" d="M551.2,206.9l0-.32c15.46-2.31,16.76-33.14,17.46-49.7.07-1.64.14-3.18.21-4.54.42-7.94,6.68-14.23,11.86-18.1a59,59,0,0,1,11.21-6.56l.09.29c-.22.1-22.08,9.41-22.87,24.37-.07,1.35-.13,2.9-.2,4.53-.37,8.6-.86,20.38-3.23,30.45C562.9,199.29,558,205.88,551.2,206.9Z"/><path fill="#ff4f66" d="M569.92,177.87l0,0a.44.44,0,0,1-.64,0l-1.43-1.7a.43.43,0,0,0-.67,0l-1.7,2.15a.45.45,0,0,1-.64,0h0a.43.43,0,0,1,0-.59l2.41-3a.43.43,0,0,1,.67,0l2.12,2.52A.42.42,0,0,1,569.92,177.87Z"/><path fill="#ff4f66" d="M568,188.26l-.06,0a.43.43,0,0,1-.63-.11l-1.2-1.86a.44.44,0,0,0-.67-.08l-2,1.92a.44.44,0,0,1-.63,0h0a.42.42,0,0,1,0-.59l2.77-2.71a.44.44,0,0,1,.67.08l1.79,2.77A.44.44,0,0,1,568,188.26Z"/><path fill="#ff4f66" d="M563.76,199.05h0a.43.43,0,0,1-.53-.35l-.39-2.35a.44.44,0,0,0-.59-.34l-2.36.94a.43.43,0,0,1-.58-.28v-.05a.44.44,0,0,1,.26-.53l3.38-1.34a.43.43,0,0,1,.59.33l.57,3.47A.43.43,0,0,1,563.76,199.05Z"/><path fill="#ff4f66" d="M558.83,206.63h0a.44.44,0,0,1-.54-.35l-.38-2.35a.44.44,0,0,0-.59-.33l-2.36.94a.44.44,0,0,1-.58-.29v-.05a.43.43,0,0,1,.25-.52l3.39-1.35a.44.44,0,0,1,.59.33l.57,3.48A.43.43,0,0,1,558.83,206.63Z"/><path fill="#ff4f66" d="M570.73,169.34l-.05,0a.43.43,0,0,1-.64,0l-1.43-1.69a.43.43,0,0,0-.67,0l-1.7,2.14a.44.44,0,0,1-.64.05h0a.44.44,0,0,1,0-.59l2.41-3a.44.44,0,0,1,.67,0l2.12,2.52A.43.43,0,0,1,570.73,169.34Z"/><path fill="#ff4f66" d="M571.15,161.51l0,.05a.44.44,0,0,1-.64,0l-1.43-1.7a.44.44,0,0,0-.67,0L566.65,162a.43.43,0,0,1-.63,0h0a.44.44,0,0,1,0-.59l2.4-3a.44.44,0,0,1,.68,0l2.12,2.52A.43.43,0,0,1,571.15,161.51Z"/><path fill="#ff4f66" d="M570.68,154.09h0a.43.43,0,0,1-.6-.25l-.77-2.18a.43.43,0,0,0-.64-.22l-2.2,1.38a.43.43,0,0,1-.62-.18v0a.43.43,0,0,1,.15-.56l3.16-2a.43.43,0,0,1,.64.22l1.14,3.25A.43.43,0,0,1,570.68,154.09Z"/><path fill="#ff4f66" d="M572.29,147.74h0a.44.44,0,0,1-.5-.38l-.25-2.48a.42.42,0,0,0-.55-.37l-2.38.69a.46.46,0,0,1-.55-.33v-.08a.44.44,0,0,1,.3-.51l3.4-1a.44.44,0,0,1,.55.38l.36,3.59A.43.43,0,0,1,572.29,147.74Z"/><path fill="#ff4f66" d="M588.35,132.37h0a.44.44,0,0,1-.2-.58l1.07-2.33a.43.43,0,0,0-.25-.59l-2.37-.8a.42.42,0,0,1-.27-.55l0-.09a.43.43,0,0,1,.54-.27l3.3,1.11a.43.43,0,0,1,.25.59l-1.52,3.3A.44.44,0,0,1,588.35,132.37Z"/><path fill="#ff4f66" d="M584.39,134.65h0a.43.43,0,0,1-.2-.57l1.08-2.34a.44.44,0,0,0-.26-.59l-2.37-.79a.44.44,0,0,1-.27-.55l0-.09a.44.44,0,0,1,.55-.28l3.29,1.11a.43.43,0,0,1,.26.59l-1.52,3.3A.44.44,0,0,1,584.39,134.65Z"/><path fill="#ff4f66" d="M580.23,137.37h0a.45.45,0,0,1-.21-.57l1.08-2.34a.43.43,0,0,0-.25-.59l-2.37-.8a.42.42,0,0,1-.27-.54l0-.09a.45.45,0,0,1,.55-.28l3.3,1.11a.43.43,0,0,1,.25.59l-1.52,3.3A.44.44,0,0,1,580.23,137.37Z"/><path fill="#ff4f66" d="M576.59,141.59h0a.44.44,0,0,1-.43-.47l.19-2.47a.43.43,0,0,0-.48-.46l-2.47.27a.43.43,0,0,1-.48-.41V138a.44.44,0,0,1,.38-.45l3.52-.39a.44.44,0,0,1,.48.47l-.26,3.59A.44.44,0,0,1,576.59,141.59Z"/><path fill="#ebedf4" d="M829,613.72C824.17,582.8,842,566,850.86,556.11c11-12.31,9.3-21.84,5.25-28.08a22.69,22.69,0,0,0-20.43-10.26c-7.59.5-16.64,4.87-19.42,21.77-2.14,13.06-4,37.54-31.13,53.2-29,16.79-69.71,56.66-51.41,122.12a9.44,9.44,0,0,0,5,6l19.57,9.37a9.43,9.43,0,0,0,7.78.16C828.53,703.55,834.07,646.85,829,613.72Z"/><path fill="#e4e6ee" d="M850.86,556.11c11.43-12.77,9.15-22.56,4.79-28.78a22.72,22.72,0,0,0-14.77-9.28c4.73,4.74,13.13,17.12.85,37.8-11.24,18.93-27.48,24.08-28.21,60.42-.69,34.09-54.68,85.36-76.43,28.46-8.23,18.83-11.2,42.14-3.37,70.13a9.42,9.42,0,0,0,5,6l19.57,9.37a9.43,9.43,0,0,0,7.78.16c62.46-26.8,68-83.5,62.88-116.63C824.17,582.8,842,566,850.86,556.11Z"/><path fill="#dddfe8" d="M850.86,556.11c11.43-12.77,9.15-22.56,4.79-28.78a22.72,22.72,0,0,0-10.52-8.13c3.83,5.13,10.58,17.66.5,33.24C832.36,573,818.35,584.87,816,624.56c-2.17,37.05-43.91,101.4-86.85,58.22a117.1,117.1,0,0,0,4.56,32.08,9.42,9.42,0,0,0,5,6l19.57,9.37a9.43,9.43,0,0,0,7.78.16c62.46-26.8,68-83.5,62.88-116.63C824.17,582.8,842,566,850.86,556.11Z"/><ellipse cx="777.62" cy="626.83" fill="#f3f5f8" rx="28.87" ry="14.31" transform="rotate(-53.46 777.59 626.823)"/><ellipse cx="829.75" cy="536.77" fill="#f3f5f8" rx="12.4" ry="6.15" transform="rotate(-70.71 829.736 536.768)"/><path fill="#fb0" d="M839.72,569.22c-1.06,1.45-2.1,3-3.1,4.62-.4.66-.8,1.34-1.18,2l-24.9-11.93c.3-.72.58-1.46.84-2.18q1-2.7,1.66-5.31Z"/><path fill="#fb0" d="M828.66,595.9l-29.47-14.11c.57-.6,1.12-1.2,1.64-1.81a50,50,0,0,0,3.47-4.44l26,12.46a53.09,53.09,0,0,0-1.28,5.49C828.9,594.28,828.77,595.08,828.66,595.9Z"/><path fill="#f4a623" d="M828.66,595.9l-29.47-14.11c.57-.6,1.12-1.2,1.64-1.81L829,593.49C828.9,594.28,828.77,595.08,828.66,595.9Z"/><path fill="#f4a623" d="M836.62,573.84c-.4.66-.8,1.34-1.18,2l-24.9-11.93c.3-.72.58-1.46.84-2.18Z"/><path fill="#ebedf4" d="M755.19,591.52c-22.18-22.06-17.78-46.21-16.53-59.38,1.57-16.44-5.46-23.1-12.43-25.72a22.69,22.69,0,0,0-22.53,3.86c-5.81,4.9-10.51,13.78-2.72,29.05,6,11.78,19,32.62,6.49,61.29-13.4,30.73-22.52,87,31,128.82a9.43,9.43,0,0,0,7.57,1.82l21.31-4.06a9.45,9.45,0,0,0,6.36-4.48C808.13,664.1,779,615.16,755.19,591.52Z"/><path fill="#e4e6ee" d="M738.66,532.14c1.63-17.06-6-23.59-13.21-26a22.7,22.7,0,0,0-17.4,1.28c6.62,1,20.73,6,23.11,29.93,2.18,21.91-7.85,35.68,13.12,65.38,19.66,27.85,6.6,101.15-44.66,68.24,4.55,20,16,40.57,38.89,58.47a9.4,9.4,0,0,0,7.56,1.82l21.31-4.06a9.45,9.45,0,0,0,6.36-4.48c34.39-58.62,5.22-107.56-18.55-131.2C733,569.46,737.41,545.31,738.66,532.14Z"/><path fill="#dddfe8" d="M738.66,532.14c1.63-17.06-6-23.59-13.21-26a22.61,22.61,0,0,0-13.3-.31c6.13,1.86,19,7.94,20.12,26.46,1.48,24.39-2.73,42.29,18.93,75.63C771.42,639,776,715.61,715.81,706.3a117.21,117.21,0,0,0,22.7,23.14,9.4,9.4,0,0,0,7.56,1.82l21.31-4.06a9.45,9.45,0,0,0,6.36-4.48c34.39-58.62,5.22-107.56-18.55-131.2C733,569.46,737.41,545.31,738.66,532.14Z"/><ellipse cx="721.64" cy="632.53" fill="#f3f5f8" rx="28.87" ry="14.31" transform="rotate(-89.84 721.6 632.528)"/><ellipse cx="710.19" cy="529.09" fill="#f3f5f8" rx="6.15" ry="12.4" transform="rotate(-17.09 710.07 529.016)"/><path fill="#ff4f66" d="M737.46,549.31c0,1.8.09,3.65.25,5.55.07.77.15,1.55.26,2.33l-27.13,5.18c-.18-.77-.4-1.53-.62-2.26-.55-1.83-1.16-3.59-1.81-5.26Z"/><path fill="#ff4f66" d="M744.39,577.34l-32.1,6.12c.1-.82.19-1.62.25-2.42a51.34,51.34,0,0,0,.16-5.64L741,570a52,52,0,0,0,2.22,5.18C743.62,575.9,744,576.62,744.39,577.34Z"/><path fill="#f42753" d="M744.39,577.34l-32.1,6.12c.1-.82.19-1.62.25-2.42l30.72-5.86C743.62,575.9,744,576.62,744.39,577.34Z"/><path fill="#f42753" d="M737.71,554.86c.07.77.15,1.55.26,2.33l-27.13,5.18c-.18-.77-.4-1.53-.62-2.26Z"/><path fill="#fff" d="M502.78,671.26a175.37,175.37,0,0,0-17.27-14.85c31.69-38,17.24-109.3-35.77-111.06C426.08,444.15,264,504.86,295.65,599.3c12.44,45.19,67.44,97,104.32,109.24,4.84,19.81,10.7,38,24.74,55.26h0a32,32,0,0,0,8.6,7h0c28.49,9.69,70.54-30.82,86.09-56.16C525.36,702.7,519.76,688.11,502.78,671.26Z"/><path fill="#fb0" d="M474.5,657.1s49.38,32.88,38.64,54.4-59.53,62-76.59,53.09-33-58.18-30.9-70.85S474.5,657.1,474.5,657.1Z"/><path fill="#f4a623" d="M495.48,673.94a179.36,179.36,0,0,0-21-16.84s-66.78,24-68.85,36.64,13.84,62,30.9,70.85c12.84,6.69,43.63-14.56,62.67-34.66-10.73,9.21-34,23.18-49.48,6.79s-13-30.22,11-50.3C483.41,667.39,494.38,673.27,495.48,673.94Z"/><path fill="#e58613" d="M436.34,722.61a2.48,2.48,0,0,1-.62-.84,2.63,2.63,0,0,1,1.3-3.5c18-8.27,19.68-23.49,19.74-24.14a2.64,2.64,0,0,1,5.26.47c-.07.77-1.87,18.88-22.8,28.47A2.63,2.63,0,0,1,436.34,722.61Z"/><path fill="#e58613" d="M430.45,708.75a2.64,2.64,0,0,1,3.57-2.57c18.56,7,30.55-2.5,31.05-2.9a2.64,2.64,0,0,1,3.36,4.06c-.59.5-14.75,11.93-36.27,3.78A2.64,2.64,0,0,1,430.45,708.75Z"/><path fill="#e58613" d="M449.34,745.72a2.66,2.66,0,0,1,.69-4.35c18-8.26,19.68-23.49,19.74-24.13a2.64,2.64,0,0,1,5.25.47c-.06.76-1.87,18.87-22.79,28.46A2.65,2.65,0,0,1,449.34,745.72Z"/><path fill="#e58613" d="M443.46,731.85a2.64,2.64,0,0,1,3.57-2.56c18.55,7,30.54-2.5,31-2.91a2.64,2.64,0,0,1,3.36,4.07c-.59.49-14.74,11.93-36.27,3.77A2.63,2.63,0,0,1,443.46,731.85Z"/><path fill="#fb0" d="M460.67,553.72c-5.13-1.53-11-2.19-16.49-.15,0,0-7-65-74.39-51.68s-85.1,67.69-59.21,115.66,77.18,83.71,98.32,85.89,73-41.31,82.72-73.23c7.83-25.68,3.15-44.18-8.06-59.64C477.86,562.69,470,556.48,460.67,553.72Z"/><path fill="#f4a623" d="M306,545c-10.53,21.59-8.76,47.91,4.54,72.56,25.9,48,77.18,83.71,98.32,85.89,10,1,26.76-8.09,42.74-21.37-26.61,18.49-64.06-15.69-69.75-29.86s42.45-38.52,42.45-38.52c-25.25,4-14.18-37.76-14.18-37.76s-27.36,52.85-69.27,30.53C300.31,584.86,305.66,547.35,306,545Z"/><path fill="#f4a623" d="M417.42,574.81s-9.74,21.49,5.67,26.27,33.24-28.56,33.24-28.56a44.38,44.38,0,0,1-6.08,26.22s9.37,6.38,20.1,1.08c0,0-4.26,9.54-17.89,8.83,0,0-4,8.07,8.84,11.45,0,0-15.77,6.84-21.89-9.12,0,0-13.92,12.46-24.39.35S409.46,581.72,417.42,574.81Z"/><path fill="#e58613" d="M405.17,590.27c6-31.32,32.88-35.81,41.71-37.49-3.27,1.13-15.27,5.57-23.3,14-17.23,18.14-16.74,44.9.76,46.89,17,1.95,30.85-21.82,31.67-23.25C441.75,631.63,399,622.54,405.17,590.27Z"/><path fill="#e58613" d="M408.39,590.42s-14.93,30.29-40.25,34-44.59-19-57.15-38.6c0,0,17,47.2,56.54,42.52C401.66,624.3,408.39,590.42,408.39,590.42Z"/><ellipse cx="375.49" cy="532.47" fill="#ffdb63" rx="37.79" ry="17.14" transform="rotate(-15.17 375.509 532.494)"/><ellipse cx="499.05" cy="698.44" fill="#ffdb63" rx="8.19" ry="18.06" transform="rotate(-20.84 498.94 698.342)"/><path fill="#fff" d="M1012.81,706.06l.35-.14A113.51,113.51,0,0,0,1081.33,629l.19-.73c.19-.75.38-1.5.55-2.25s.33-1.45.49-2.18.31-1.52.46-2.29.3-1.63.44-2.45c.07-.45.15-.9.22-1.35.19-1.2.36-2.4.51-3.61l.12-1c.12-1.11.24-2.23.33-3.36,0-.23,0-.45.06-.68.11-1.31.18-2.63.24-4l0-.93c0-1.36.09-2.72.09-4.09,0-1.17,0-2.33-.06-3.49l0-.74c0-1-.09-2-.15-3l0-.35a113.34,113.34,0,0,0-29.72-69.27l-.67-.71c-.44-.48-.89-1-1.34-1.41s-.87-.91-1.31-1.35l-.24-.23A113,113,0,0,0,1029,502.05l-3.84-2.27a6.93,6.93,0,0,0-1.46-.63,113.62,113.62,0,0,0-100.22-2.3h0l-.06,0q-3.67,1.71-7.22,3.68l-.15.09a113.92,113.92,0,0,0-58.47,94.91l0,.78c0,1.25-.06,2.51-.06,3.77A113.92,113.92,0,0,0,971.26,713.91q1.8,0,3.6-.06l.92,0c1,0,2-.1,3-.16l.64,0c2.54-.18,5.06-.45,7.55-.79l.18,0a112.36,112.36,0,0,0,19.38-4.48l.23-.05.24-.09.65-.22c.94-.32,1.86-.65,2.78-1S1012,706.37,1012.81,706.06Z"/><circle cx="971.26" cy="600.12" r="106.8" fill="#fff" transform="rotate(-45 971.267 600.118)"/><path fill="#dddfe8" d="M971.26,706.91a106.15,106.15,0,0,0,56.17-16c-116.34-9.23-138.92-115.27-101-187.7a106.79,106.79,0,0,0,44.85,203.7Z"/><path fill="#013857" d="M971.26,706.91a106.8,106.8,0,1,1,106.8-106.79A106.92,106.92,0,0,1,971.26,706.91Zm0-212a105.21,105.21,0,1,0,105.21,105.21A105.32,105.32,0,0,0,971.26,494.91Z"/><path fill="#013857" d="M966.65,597.51l-55.56-51.65,2.34-15.23L936.78,522c.25-.1,27.51-10.92,55.24-9.54,28.23,1.39,31.36,30.23,31.38,30.52l0,.17-14.54,42.51Zm-53.87-52.24,54.3,50.47,40.57-11.36L1021.81,543c-.29-2.53-3.82-27.64-29.87-28.93-27.38-1.35-54.32,9.34-54.59,9.44l-22.49,8.29Z"/><path fill="#013857" d="M1004.53,701.62l-.24-.08-9.36-3-.56-.18V659.08l.09-.17c.81-1.55,19.89-37.77,34-34.63,12.22,2.71,35.56.47,39.65.05l3.74-29c-1.32-16.78-11.09-42.92-19.39-51.86l-30.82-37.67,3.84,2.27a106.82,106.82,0,0,1-20.66,193.46ZM996,697.23l8.56,2.72a105.22,105.22,0,0,0,24.16-188l24.94,30.48c8.46,9.12,18.46,35.81,19.78,52.86v.17l-3.92,30.3-.62.07c-1.1.12-27.16,3-40.78,0-12.45-2.76-30.67,30.94-32.12,33.65Z"/><path fill="#013857" d="M914.25,654.56h-.69c-12.42-.57-30.51-29.51-31.28-30.74l-.12-.19v-.23c0-1.62.07-39.79,6.17-51.42,6.18-11.8,32.82-16.77,33.95-17l.39-.07,40.26,36.71-7.77,48-.35.19C953.65,640.44,926.8,654.56,914.25,654.56Zm-30.5-31.39c1.61,2.54,18.78,29.29,29.88,29.79s36.79-12.64,40.09-14.35l7.51-46.38-39.05-35.6c-3.31.65-27,5.69-32.45,16.07C884.05,583.54,883.76,619.93,883.75,623.17Z"/><path fill="#013857" d="M1045.68,524.64A106,106,0,0,0,1006.07,500L992,513.27l30.63,29.81,32.54,2.48Z"/><path fill="#013857" d="M1077.16,595.52l-5.07-6.49-11.8,35.19,1.74,30.67a105.49,105.49,0,0,0,15.23-54.77C1077.26,598.58,1077.22,597.05,1077.16,595.52Z"/><path fill="#013857" d="M962.08,705.72c3,.26,6.09.4,9.18.4a105.54,105.54,0,0,0,57-16.61H995.84Z"/><path fill="#013857" d="M883,623.39l-10.53,15.09A106.2,106.2,0,0,0,907,684.39h9.93l-3.31-30.64Z"/><path fill="#013857" d="M877.68,550.31l11.35,22,33.39-16.56,14.63-33-29.58-7.31A106.46,106.46,0,0,0,877.68,550.31Z"/><polygon fill="#013857" points="1008.26 585.03 962.08 591.93 954.44 639.13 995.17 659.27 1028.25 625.05 1008.26 585.03"/><path fill="#012847" d="M1015,689.51H996v-4c-.54-.14-1.06-.28-1.59-.44v5.11l-32.3,15.51c3,.25,6.09.4,9.18.4a106,106,0,0,0,32-4.92l1.08.34.21.07a106.56,106.56,0,0,0,22.93-10.69Q1021,690.41,1015,689.51Zm-79-40.93c-.37-.42-.72-.85-1.06-1.29-7.79,3.17-16.16,5.91-21.33,5.67-.32,0-.63-.06-1-.11l-27-26.8c-1-1.44-1.63-2.48-1.89-2.88,0-3.24.3-39.63,6-50.47a11.65,11.65,0,0,1,.6-1L909.84,562a149.38,149.38,0,0,1,9.68-43.58l-12-3a106.26,106.26,0,0,0-29.79,34.85L888.6,571.5l-.28.46c-6.09,11.64-6.15,49.81-6.15,51.43v.23l.11.2a2.88,2.88,0,0,1,.18.28l-10,14.38A106.25,106.25,0,0,0,907,684.39h9.92l-3.23-29.84h.59C919.85,654.56,928.28,651.75,936,648.58Z"/><path fill="#fff" d="M841,339.71a21.6,21.6,0,0,0-16.82-19.13l-41.28-9.27a20.74,20.74,0,0,0-2.36-.39,21.11,21.11,0,0,0-2.38-.14h0a21.77,21.77,0,0,0-18.65,10.64,177.53,177.53,0,0,0-11.31,22.68l-7.73-1.33-1.07-.18a53.77,53.77,0,0,0-.27-5.54V337l0-.17c0-.22,0-.43-.08-.63s0-.36-.07-.54l-.09-.54-.09-.52c0-.18-.07-.36-.11-.53s-.06-.31-.1-.46-.1-.4-.15-.6,0-.22-.08-.32c-.08-.26-.15-.51-.23-.75l0-.12a14.21,14.21,0,0,0-1-2.39c-.09-.17-.2-.34-.3-.51-.24-.41-.48-.82-.74-1.24s-.58-.94-.89-1.41l-.36-.56c-.48-.72-1-1.41-1.44-2.1h0c-.56-.78-1.12-1.54-1.68-2.27l-.11-.14q-.42-.56-.84-1.08c-.38-.49-.78-1-1.17-1.46l-.18-.21A95.67,95.67,0,0,0,717,306l-.09-.07-.75-.61a33.29,33.29,0,0,0-6.66-4.35c-.24-.12-.48-.22-.71-.31l-.19-.08a10.32,10.32,0,0,0-1-.35A105.09,105.09,0,0,0,694.23,298a36,36,0,0,0-9.86-11.13c-6-4.5-14.78-8.39-27.59-9.13a62.2,62.2,0,0,0-9.46-14.93l0-.05-.61-.67-.26-.28-.45-.47-.45-.47-.31-.3c-.2-.2-.41-.41-.63-.61l-.13-.12a28.76,28.76,0,0,0-15.1-7.84,41.16,41.16,0,0,0-6.5-.52,38.47,38.47,0,0,0-5.29.36,34.11,34.11,0,0,0-11.87,3.92,42.54,42.54,0,0,0-8.41-6.67,37.37,37.37,0,0,0-18.92-5.48h-.56c-.74,0-1.47,0-2.19.08h-.23c-.64.05-1.27.11-1.89.19l-.37.05-1.83.3-.25.05c-13.37,2.72-23.95,13.51-28.91,29.25a31,31,0,0,0-10.27-2.1c-7.18,0-11.63,3.65-17.77,8.69l-.89.73c-2.25,1.84-4.64,5.27-7.16,10.19q-15.09-4.05-30.1-8.27.82-7.62,1-15.31c0-1.33,0-2.67,0-4,0-1.16,0-2.32,0-3.49q-.07-3.48-.29-7a21.59,21.59,0,0,0-16.2-19.66h0l-41-10.58a21.66,21.66,0,0,0-23.7,9.35,177.9,177.9,0,0,0-22.12,51l-7.57,29.32a177.66,177.66,0,0,0-5.57,50.07c0,.23,0,.45,0,.68q.08,2.28.21,4.56c0,.37.07.72.11,1.08A21.57,21.57,0,0,0,375.61,387c.44.15.88.29,1.33.4l41,10.58a21.49,21.49,0,0,0,5.28.69h.14a21.55,21.55,0,0,0,18.28-10,177.88,177.88,0,0,0,14.95-29.16q13.9,2.34,27.81,4.85a33.82,33.82,0,0,0-.14,3.46v0a1.34,1.34,0,0,0,0,.2c.65,18,26.53,54,44.48,76.91,4,9.32,6.59,17.54,6.56,23.36-1.33,12.79-54.49,201.42-96.86,291.73a7,7,0,0,0,6.34,10l51.94-1.18h0l139.07-3.16a7,7,0,0,0,6.79-6.08c18.9-143.87,35.72-240.2,46.14-264.29l.23-.56c0-.09.08-.21.13-.33l.78-1.9c.53-1.3,1.23-3,2-4.93,5.14-12.35,16.38-38.45,31.61-68.86l5.91,1.64a177.84,177.84,0,0,0-.62,36.55c0,.4.06.81.1,1.21,0,.22.06.43.09.65a21.58,21.58,0,0,0,7.6,14c.2.17.42.32.63.48s.46.37.7.54l.66.43c.25.17.5.34.76.49s.63.35.94.52l.55.3.59.26a21.57,21.57,0,0,0,4.3,1.46L787,486.48l1,.21.12,0h.06a21.78,21.78,0,0,0,3.51.29h0a21.76,21.76,0,0,0,18.64-10.64c.78-1.32,1.53-2.65,2.27-4l.31-.56a178.07,178.07,0,0,0,17.9-47.12l6.63-29.54A177.93,177.93,0,0,0,841,339.71Z"/><path fill="#ffab70" d="M491.22,367.74s52.87,74.21,51,102.1a266.33,266.33,0,0,1-9.62,53.28l43.28-64.71,1.5-67.33Z"/><path fill="#ffab70" d="M723.51,403.17c-23.7,45.76-39.56,85.13-41.11,89l-.06.14s0,0,0,.06l-.05.11c-14.58,33.72-35.46,181-46.65,266.16L444.91,763c43.4-90.74,105.33-291.71,105.47-302.56.14-12.23-59.15-92.66-59.15-92.66s52.89-60.67,55.25-81.12,14.46-36.27,31.76-36,26.23,14.64,26.23,14.64,8.22-8.81,23.77-6.33,23.81,25.69,23.81,25.69c31.64-.09,37.49,19.95,37.49,19.95s11.49,1.06,16.19,2.36c2.66.73,8.33,5.25,13.91,11.11,0,0,0,0,0,0a79,79,0,0,1,11.29,14.76c1.42,2.55,1.73,8.15,1.3,15.44C735.05,362.92,734.48,382,723.51,403.17Z"/><path fill="#f08648" d="M700.66,379.17c-11.08,16.34-38.34,3.67-38.34,3.67-13,1.11-27.27-4-27.27-4,3.42,2.95,14.16,22.06,5.15,39.11S633,450.8,650,462.66s39.74,11.89,39.74,11.89c-3.21,7.3-7,16.85-7.5,17.93-21.85-.79-30.18,43-39.26,43.7-9.9.74,5.53-49.24,7.07-56.1s-9.17-15.48-20.29-13.83-14.82,15.8-30.57,15.68-26.48,102.52-68.36,188.44c-15.16,31.11-26.29,63.17-34.32,91.42L444.75,763c42-89.48,97.41-283.83,97.54-294.67,0-.54,34.71-15.08,34.49-15.87L534,358.25l29.58-60.51,145.39,39.64S711.75,362.83,700.66,379.17Z"/><path fill="#ea6c2c" d="M612,421.6s19.06-26.44,9.91-46.54c0,0,29.34,11.68,40.2-2.65,0,0,36.84,22.58,45.86-16s-87-50.28-87-50.28l-88.86-20.33-5.61,84.87Z"/><path fill="#012847" d="M449.45,282.5l-14.88,66.27a2663.85,2663.85,0,0,1,326.79,73.35l14.87-66.26A2664.47,2664.47,0,0,1,449.45,282.5Z"/><ellipse cx="578.47" cy="331.06" fill="#013857" rx="7.42" ry="103.67" transform="rotate(-77.35 578.458 331.065)"/><path fill="#011f33" d="M761.36,422.12l14.87-66.26q-22.38-3.58-44.55-7.52c5.63,14.16,9.87,31.91,1.54,42.3-12,14.91-208-34.48-295.18-57.35l-3.47,15.48A2663.85,2663.85,0,0,1,761.36,422.12Z"/><path fill="#ff4f66" d="M765.56,325h0a14.67,14.67,0,0,1,15.83-6.84l41.27,9.27a14.65,14.65,0,0,1,11.39,12.95h0a171.21,171.21,0,0,1-3.42,53.27L824,423.18a171.21,171.21,0,0,1-19.68,49.63h0a14.67,14.67,0,0,1-15.83,6.84l-41.27-9.27a14.65,14.65,0,0,1-11.39-12.95h0a171.21,171.21,0,0,1,3.42-53.27l6.63-29.55A171.21,171.21,0,0,1,765.56,325Z"/><path fill="#f42753" d="M813.06,455.91c-23.48-.16-49.63-4.9-54.59-24.4-9.34-36.77,22.92-113.37,22.92-113.37A14.67,14.67,0,0,0,765.56,325a171.21,171.21,0,0,0-19.68,49.63l-6.63,29.54a171.31,171.31,0,0,0-3.42,53.28,14.65,14.65,0,0,0,11.39,12.95l41.27,9.27a14.67,14.67,0,0,0,15.83-6.84A172,172,0,0,0,813.06,455.91Z"/><ellipse cx="803.79" cy="380.61" fill="#f9627b" rx="38.38" ry="14.39" transform="rotate(-77.35 803.774 380.62)"/><path fill="#ff4f66" d="M469.65,253.43h0a14.68,14.68,0,0,0-11-13.31l-41-10.58a14.67,14.67,0,0,0-16,6.33h0a171.32,171.32,0,0,0-21.25,49l-7.58,29.32a171.42,171.42,0,0,0-5.12,53.14h0a14.66,14.66,0,0,0,11,13.31l40.95,10.58a14.66,14.66,0,0,0,16-6.33h0a171.06,171.06,0,0,0,21.26-49l7.57-29.32A171.12,171.12,0,0,0,469.65,253.43Z"/><path fill="#f42753" d="M367.65,348.29c21,10.56,46.41,18.27,59.72,3.18,25.08-28.47,31.31-111.35,31.31-111.35a14.68,14.68,0,0,1,11,13.31,171.09,171.09,0,0,1-5.13,53.14L457,335.89a171.06,171.06,0,0,1-21.26,49,14.66,14.66,0,0,1-16,6.33l-41-10.58a14.66,14.66,0,0,1-11-13.31A170,170,0,0,1,367.65,348.29Z"/><ellipse cx="410.25" cy="285.5" fill="#f9627b" rx="38.38" ry="14.39" transform="rotate(-75.52 410.215 285.503)"/><path fill="#ffab70" d="M685.54,374.18c-16.67-1.81-19.09-14.61-19.09-14.61s-5,17.23-21.14,14.88-16.74-21-16.74-21S617.73,363.5,604,358.64s-12.89-19.42-12.89-19.42-7.32,5.46-18.34,2.63-22.05-18.1-21.87-20.72-1.24-48.58,2.35-55.28l.24-.38.24-.39c5.65-9,14.16-14.61,24.56-14.44,17.3.27,26.23,14.63,26.23,14.63s8.22-8.8,23.77-6.34,23.81,25.71,23.81,25.71c31.64-.1,37.5,19.94,37.5,19.94s11.47,1.05,16.18,2.35,18.73,14.35,25.21,25.91a13.44,13.44,0,0,1,1.25,4.88h0s-6.6,8-16.49,3.1C715.7,340.82,702.21,376,685.54,374.18Z"/><path fill="#f08648" d="M629,350.71s-10.85,10.05-24.63,5.19-12.88-19.42-12.88-19.42-7.32,5.47-18.34,2.64-22-18.1-21.88-20.73c0-.33,0-1.4,0-3,2,.05,3.9,1.3,5.42,4.31,8.24,16.3,33.7,6.74,33.7,6.74l4.46,1.47c6,16.69,38.37,11.29,38.37,11.29,14.49,28.73,40.1-3.55,40.1-3.55s-1.73,6.27,7.68,16.62c8.17,9,23.94-1.74,28-4.73a21.87,21.87,0,0,1-.55,6.1c-5.52,9.16-13.53,18.79-22.45,17.82-16.67-1.82-19.09-14.62-19.09-14.62s-5,17.24-21.14,14.88S629,350.71,629,350.71Z"/><path fill="#ea6c2c" d="M685.54,374.18c-16.67-1.81-19.09-14.61-19.09-14.61s-5,17.23-21.14,14.88-16.74-21-16.74-21S617.73,363.5,604,358.64s-12.89-19.42-12.89-19.42-7.32,5.46-18.34,2.63-22.05-18.1-21.87-20.72c0-.46,0-2.27,0-5h0c8,19,27.21,22.2,33.31,18.08,6.33-4.28,16.16-55.7,16.16-55.7s-5.79,52.42-6.55,57.61,11.44,17.21,23.66,15.48c11.54-1.63,22.58-47.21,27-56.94-2.48,14.1-6.71,30.38-11.61,48.09a19.61,19.61,0,0,0,6,20.28A14.72,14.72,0,0,0,652,366.24c15.59-3.49,24.11-45.07,30.67-55.12,0,0-15,45.93-8.83,50.14,18.75,12.77,25.27,4.62,45.76-26.81-5.12,10.21-10.09,19.85-14.09,25.77C700.21,368,693.21,375,685.54,374.18Z"/><path fill="#ea6c2c" d="M517.34,296c8.88-8.91,10.88-11.52,25-7.4,0,0,18.6,6.21,34.06,3.92s30.84-2.95,31.42,8.39-13.39,38.26-43.76,38c0,0,2.85,13.17-7,22.58l-57.8,18.21C499.4,367.19,508.47,304.93,517.34,296Z"/><path fill="#ffab70" d="M543.22,281.45s17.87,8,33.48,7.32,31,.16,30.43,11.5S590,337,559.77,333.67c0,0,1.52,13.39-9.22,21.76,0,0,44,4.34,61.58,31.13,25.06,38.17-45,76.69-61.75,73.85,0,0-58.28-68.26-59.16-92.67-.45-12.51,16.67-73.47,26.4-81.44S529.6,275.94,543.22,281.45Z"/><path fill="#f08648" d="M516,347.68c18.88,7,31.3,1.29,31.3,1.29-13.46-7.46-16.76-18.49-16.76-18.49s12.93,14.94,17.78,14.28,6-6.61,6-6.61c-13.84-7.72-20.63-25.23-20.63-25.23s7,8,27.11,14.34,40.61-12.66,40.61-12.66h0c-7.3,10.67-21.41,21.29-41.61,19.07,0,0,1.52,13.39-9.22,21.76,0,0,3.16.18,8.25.76C538.92,365.16,516,347.68,516,347.68Z"/><path fill="#ffceab" d="M607.13,300.27a16.57,16.57,0,0,1-.35,2.54c-8.71,5.16-19.43,4.46-27.56,1.43-7.37-2.75-4.34-11.07-2.09-15.49C592.6,288.07,607.69,289,607.13,300.27Z"/><path fill="#ff4f66" d="M308.79,886c43.92-68.51,21.28-126.77,0-182.24,240.13,105.38,579.46-173.73,868.8,4.33-32.54-4.34-65.09-2.15-97.63,5.66,32.54,19.85,45.24,61.21,77.78,84.84C868.14,692.85,598.39,917.88,308.79,886Z"/><path fill="#012847" d="M244.39,567c8.69-2.6,15.47-11.81,17.38-23.59l1-6.44,1.05,6.44c1.91,11.78,8.69,21,17.38,23.59l4.73,1.41-4.73,1.42c-8.69,2.6-15.47,11.81-17.38,23.59l-1.05,6.43-1-6.43c-1.91-11.78-8.69-21-17.38-23.59l-4.74-1.42Z"/><path fill="#fb0" d="M1126.63,356.72c8.69-2.59,15.47-11.8,17.38-23.59l1-6.43,1,6.43c1.91,11.79,8.69,21,17.38,23.59l4.74,1.42-4.74,1.42c-8.69,2.6-15.47,11.8-17.38,23.59l-1,6.43-1-6.43c-1.91-11.79-8.69-21-17.38-23.59l-4.73-1.42Z"/><path fill="#ff4f66" d="M198,398.14c-4.64-1.4-8.27-6.32-9.3-12.63l-.56-3.45-.56,3.45c-1,6.31-4.65,11.23-9.3,12.63l-2.54.75,2.54.76c4.65,1.39,8.28,6.32,9.3,12.63l.56,3.45.56-3.45c1-6.31,4.66-11.24,9.3-12.63l2.54-.76Z"/><path fill="#049c9a" d="M1056.7,462.35c-4.65-1.39-8.28-6.32-9.3-12.63l-.56-3.44-.56,3.44c-1,6.31-4.65,11.24-9.3,12.63l-2.54.76,2.54.76c4.65,1.39,8.28,6.32,9.3,12.63l.56,3.44.56-3.44c1-6.31,4.65-11.24,9.3-12.63l2.54-.76Z"/><path fill="#049c9a" d="M420.11,176c-4.65-1.39-8.28-6.32-9.3-12.63l-.56-3.44-.56,3.44c-1,6.31-4.66,11.24-9.31,12.63l-2.53.76,2.53.76c4.65,1.39,8.28,6.32,9.31,12.63l.56,3.44.56-3.44c1-6.31,4.65-11.24,9.3-12.63l2.54-.76Z"/><path fill="#ff4f66" d="M1174.31,555.69c-4.65-1.39-8.28-6.32-9.3-12.63l-.56-3.44-.56,3.44c-1,6.31-4.66,11.24-9.31,12.63l-2.53.76,2.53.76c4.65,1.39,8.28,6.32,9.31,12.63l.56,3.44.56-3.44c1-6.31,4.65-11.24,9.3-12.63l2.54-.76Z"/><ellipse cx="943.23" cy="177.28" fill="#fff2c9" rx="30.65" ry="38.76" transform="rotate(-53.95 943.19 177.292)"/><path fill="#fb0" d="M866.69,82.31a106.37,106.37,0,0,0-139,149.91l-9.11,33.28,35.33-3.91A106.37,106.37,0,1,0,866.69,82.31Z"/></svg>