<svg xmlns="http://www.w3.org/2000/svg" viewBox="0 0 1364 960"><path fill="#007371" d="M1133.52,500.07c-7.71-2.31-13.74-10.49-15.44-21l-.92-5.71-.93,5.71c-1.7,10.47-7.73,18.65-15.44,21l-4.21,1.26,4.21,1.26c7.71,2.31,13.74,10.48,15.44,21l.93,5.71.92-5.71c1.7-10.48,7.73-18.65,15.44-21l4.21-1.26Z"/><path fill="#e58613" d="M1089.38,698.15c3.39-1,6-4.61,6.79-9.21l.41-2.52.41,2.52c.75,4.6,3.39,8.2,6.79,9.21l1.85.56-1.85.55c-3.4,1-6,4.61-6.79,9.22l-.41,2.51-.41-2.51c-.75-4.61-3.4-8.2-6.79-9.22l-1.85-.55Z"/><path fill="#fff4cf" d="M1145.35,543.09a436,436,0,0,1-93.7,270.73H363.29a436,436,0,0,1-93.7-270.73c0-241.82,196-437.87,437.88-437.87S1145.35,301.27,1145.35,543.09Z"/><path fill="#007c8a" d="M406.26,574.13c-20.11-17.29,14.51-36.77,31-36.41a206.74,206.74,0,0,0-27.79-21.39c-6.8,10.59-11.19,23.42-20.44,32.13-25.77,15.89-33.38-29.55,17.4-34.05a214.24,214.24,0,0,0-31.79-16.23c-7.27,10.41-12.18,23.16-21.83,31.6-26.14,14.63-32.14-29.73,17.3-33.39A205.2,205.2,0,0,0,338,487c-7.75,10.34-13.17,23.14-23.23,31.42-26.1,13.44-31.17-29.07,16.13-32.77a201.26,201.26,0,0,0-25.81-2.69c-11.56,5.32-22.26,13.87-34.87,16.3-19.42,1.68-18.76-22-1.66-25.25,12.07-2.18,25.93.08,36.15,6.87a200.32,200.32,0,0,1,27.54,2.91c-40.77-26.11-15.43-61.54.95-37,4.76,11.92,3.33,25.53,5.07,38.12a210.17,210.17,0,0,1,32.43,9.47c-34.3-35.46-.52-64.44,9.34-36.27,1.65,12.72-3.12,25.54-4.56,38.16a213.61,213.61,0,0,1,32,16.34c-29.56-42.51,11.14-65.77,15-35.57-1,13-8.44,24.83-12.48,37.14l.41.27.2-.1-.09.17a211.9,211.9,0,0,1,27,20.56c-11.88-48.49,32.48-56.87,26.83-27-4.8,11.87-15.56,20.34-22.83,30.69,2.2,1.92,30.9,31.06,23.13,29.46a202.15,202.15,0,0,0-24.18-27.6C431.67,552.55,425.56,580.14,406.26,574.13Z"/><path fill="#007c8a" d="M975.08,754.33c20.12-17.28-14.51-36.77-31-36.41a207.94,207.94,0,0,1,27.79-21.38c6.81,10.59,11.19,23.42,20.44,32.13,25.77,15.89,33.39-29.55-17.4-34a213.39,213.39,0,0,1,31.8-16.23c7.27,10.4,12.18,23.16,21.82,31.59,26.15,14.64,32.14-29.73-17.3-33.38a205,205,0,0,1,32.13-9.41c7.74,10.33,13.16,23.14,23.22,31.42,26.1,13.44,31.17-29.08-16.12-32.77a201.11,201.11,0,0,1,25.8-2.69c11.56,5.32,22.26,13.87,34.87,16.29,19.43,1.69,18.76-22,1.66-25.24-12.07-2.19-25.93.08-36.14,6.87a198.92,198.92,0,0,0-27.55,2.91c40.78-26.11,15.44-61.54-.95-37-4.75,11.92-3.32,25.53-5.07,38.12a209.39,209.39,0,0,0-32.43,9.47c34.31-35.46.52-64.44-9.34-36.28-1.65,12.72,3.12,25.54,4.56,38.17a214.52,214.52,0,0,0-32,16.33c29.56-42.51-11.14-65.76-15-35.57,1,13,8.43,24.84,12.48,37.15l-.41.26-.21-.09.09.17a212.39,212.39,0,0,0-27,20.56c11.89-48.49-32.48-56.87-26.83-27,4.8,11.87,15.57,20.35,22.83,30.7-2.2,1.91-30.9,31-23.13,29.46a202.32,202.32,0,0,1,24.18-27.6C949.67,732.76,955.79,760.35,975.08,754.33Z"/><path fill="#ffb203" d="M492.76,686.51l.43.36a5.43,5.43,0,0,1-.41.38c-4.57,4.26-48.16,43.56-106.33,55.6l-.73.15a163.34,163.34,0,0,1-25.87,3.22l-1,0a14.09,14.09,0,0,1-1.44.09,176.15,176.15,0,0,1-48.35-5.79c4.3-2.3,5.92-6.19,6.3-10.89A17.43,17.43,0,0,1,297.07,737a236.62,236.62,0,0,1-25.91-10.21c-.24-.08-.47-.22-.7-.29a253.34,253.34,0,0,1-51.38-31.8,4.59,4.59,0,0,1-.43-.36s.14-.14.41-.38a231.8,231.8,0,0,1,25.55-20,4.72,4.72,0,0,0,.68-.48A264.34,264.34,0,0,1,275,656.19a3,3,0,0,1,1.25-.31c10-.13,17.05,4,21,12.75.68-7.26-1.13-13.85-7.13-19.3,4.65-1.94,9.47-3.74,14.44-5.36.28-.1.51-.15.78-.25a175.13,175.13,0,0,1,49.11-8.82,166,166,0,0,1,25.2,1.31l12.08,10.63s.13-3.9.13-8.64a208,208,0,0,1,36.33,10.85c.42.17.85.34,1.26.52a236.38,236.38,0,0,1,23.18,10.74c.24.13.43.22.66.36A243.67,243.67,0,0,1,492.76,686.51Z"/><path fill="#ffe570" d="M326,665.62l3.25-17.17.7.16-3.33,17.69,22.81,24.12,38.78-1.06-25.5-27.57.5-.48,26,28,67.22-1.84-28.25-38.45,1.26.52L447.34,674l5.24-13.65.66.35-5.37,14,9.4,12.79,35.91-1,0,.74L441,688.67l-14.9,17.07-.57-.5L440,688.69l-36.09,1L385.73,713c.14,6.92.49,21.35.72,29.84l-.74.15c-.24-9-.62-24.4-.7-29l-25.16,32.26-1,0L403,689.7l-72,2-10.65,19.55-.62-.35,10.44-19.18-30.53.83-28.45,34.3c-.23-.09-.47-.22-.7-.31l14.16-17c-8.29.83-20.1,2-20.79,2.24l-.1-.32h-.05l-.32.1,0-.33c.13-.19.27-.38,21.89-2.5l13.35-16.1-79.56,2.17a4.59,4.59,0,0,1-.43-.36s.14-.14.41-.38l62.44-1.71L244.61,674a6.58,6.58,0,0,0,.68-.48l37.79,18.7,65.36-1.78L304.51,644c.27-.1.51-.15.78-.26Z"/><path fill="#007371" d="M843.64,339.39c0,.32,0,.48,0,.48a4.26,4.26,0,0,0,.49,0c5.41-.55,56.17-6.5,97.47-37.66l.52-.39a142.6,142.6,0,0,0,17-15.08l.58-.62a12.46,12.46,0,0,0,.88-.9,153.19,153.19,0,0,0,24-35c-4,1.49-7.45.31-10.75-2.14a15.17,15.17,0,0,0,15.35-7.76,205.72,205.72,0,0,0,8.2-22.82c.09-.2.13-.43.21-.63a220.08,220.08,0,0,0,8.7-51.89c0-.32,0-.49,0-.49l-.49,0A201.38,201.38,0,0,0,978,169.79a4.92,4.92,0,0,1-.71.17,230.24,230.24,0,0,0-28.41,9.48,2.47,2.47,0,0,0-.92.64c-5.82,6.45-7.18,13.45-3.7,21-5.14-3.72-8.41-8.69-8.54-15.75-3.93,1.93-7.88,4-11.8,6.37-.22.12-.39.24-.61.37a152.3,152.3,0,0,0-34,27.07,143.92,143.92,0,0,0-13.62,17.25l0,14s-2.63-2.16-5.74-4.87a180.7,180.7,0,0,0-13.76,30c-.13.38-.27.76-.39,1.13A211.32,211.32,0,0,0,849.57,298c-.05.23-.1.41-.14.64A213,213,0,0,0,843.64,339.39Z"/><path fill="#06a19e" d="M925.77,218.24l-13.1-7.74-.3.55,13.49,8,2.69,28.78-23,24.78-3.4-32.53-.6.05,3.42,33.1-39.81,42.94-8.94-40.58-.39,1.13,5.66,25.75L849.57,298c0,.23-.09.41-.14.64l12.26,4.54,3,13.5L843.4,339.66l.47.44,30.91-33.34,19.74.05v-.66l-19.16,0,21.38-23.05,25.73,1.48c4.45,4.07,13.69,12.58,19.12,17.61l.52-.39c-5.75-5.33-15.61-14.42-18.6-17.14l35.56,2.06.58-.62-62.34-3.63,42.65-46,18.92,4.26.12-.6-18.55-4.19,18.08-19.5,38.79,1.07c.08-.2.13-.43.21-.63l-19.3-.53c5.31-5,12.88-12,13.41-12.32l-.15-.25,0,0,.26-.15-.24-.16c-.2,0-.4-.05-14.21,12.89l-18.21-.52L1006.23,165a4.52,4.52,0,0,0,0-.49l-.48,0-37,39.89L978,169.79a4.92,4.92,0,0,1-.71.17l-9.47,35.47-38.71,41.76-5.19-55.45-.61.36Z"/><path fill="#fb0" d="M812.37,408.65l-.32.55s.21.11.59.26c6.61,2.79,69.11,28.05,136.6,18.14l.86-.12a188.28,188.28,0,0,0,29.17-6.71l1.07-.36c.52-.12,1.08-.3,1.58-.47a201.83,201.83,0,0,0,49.88-25.27c-5.54-.79-8.81-4.35-11.07-9.28,4.74,3.43,13.2,6.38,22.67.75a273.1,273.1,0,0,0,23.93-21.21c.23-.18.42-.42.64-.6a290.07,290.07,0,0,0,42.92-54.53,4.49,4.49,0,0,0,.32-.55s-.2-.1-.59-.25a264.16,264.16,0,0,0-35.42-11.49,7,7,0,0,1-.92-.25,301.71,301.71,0,0,0-38.88-7,3.29,3.29,0,0,0-1.46.15c-10.81,3.78-16.83,11-17.6,22-3.59-7.57-4.24-15.38.09-23.63-5.77-.26-11.68-.31-17.68-.1-.34,0-.61,0-1,0a200.83,200.83,0,0,0-56.45,9.82,190,190,0,0,0-26.68,11.32l-8.85,16.23s-1.67-4.16-3.54-9.27a238.67,238.67,0,0,0-34.92,26c-.39.35-.79.7-1.16,1.05a274.88,274.88,0,0,0-20.79,20.72c-.21.24-.37.41-.57.65A280.92,280.92,0,0,0,812.37,408.65Z"/><path fill="#ffe570" d="M984.09,320.48l-10.26-17.25-.69.45,10.55,17.78-15.11,35-42.26,14.12L943,330.79l-.72-.32-17,40.46L852,395.41l15.35-52.61-1.17,1.06-9.75,33.38-11-12.67c-.2.24-.37.4-.57.64l11.32,13L851,395.73,811.92,408.8l.27.81,56.87-19,22.79,12.56.43-.76-22.16-12.16,39.33-13.14,28.83,18c2.57,7.51,7.87,23.22,11,32.47l.86-.12c-3.27-9.81-8.93-26.57-10.67-31.61l39.84,24.9,1.07-.36-69.83-43.65L989,350.54l19.19,16.91.52-.62-18.8-16.59,33.26-11.11,44.19,25.8c.22-.18.42-.42.64-.61l-22-12.82c9.27-2.37,22.48-5.72,23.31-5.77l0-.38,0,0,.39,0-.17-.33c-.22-.16-.44-.31-24.6,5.91l-20.74-12.12,86.69-29c.22-.35.32-.55.32-.55s-.2-.1-.59-.26l-68,22.74,32.62-34.22a9.08,9.08,0,0,1-.92-.25l-33.42,35-71.22,23.8,29.11-67.43c-.34,0-.61,0-1,0Z"/><path fill="#049c9a" d="M1012.79,544.4c-1.29,76.74-24,138.9-60.06,186.49a277.09,277.09,0,0,1-40.29,42.83c-34.52,29.69-75.54,50.41-119.13,62.17h0a338.93,338.93,0,0,1-104,11.18h0c-76.8-3.59-152.25-33-207.14-88.35a278.1,278.1,0,0,1-58.44-87.06h0C408,635,398.76,592.55,398,544.39c0-3.22.05-6.44.15-9.64a307.71,307.71,0,0,1,223.46-286.2c91.6-26.78,193.85-6.06,268.31,49.68A280.41,280.41,0,0,1,923.71,328a296.34,296.34,0,0,1,32.12,38h0a305,305,0,0,1,17.81,28.17,308.42,308.42,0,0,1,16.48,34.28,304,304,0,0,1,22.66,110.94C1012.79,541.12,1012.8,542.76,1012.79,544.4Z"/><path fill="#a6c738" d="M781.44,481.32c-2.18,7.58,6.45,3.41,10.54,6.05-1.85,10.18-18.34,7.52-19.33,7.4s-1.65-2.79.81-3.27,4.78-4.66,4.9-7C778.4,483.66,779.75,482.47,781.44,481.32Z"/><path fill="#a6c738" d="M862.76,560c-18.91,16.81-16.15,31.55-17.74,43.18-1.65,11.9-14.49,36.65-33.4,34.78S783.84,654.79,782,665.31s-13.08,23.33-17.05,25.44,2.34-11.45-1.17-7-13.43,9.94-12.84,13.53c1.17,7-1.15,19.63-27.3,6.79s4.3,5.16,6.31,11c3.37,9.83,2.87,13.6-20.07,14.47-19.28.71,5.64,12-13,11.53-15.62-.42,1.21,10-7,15.22-16.45,10.34-3.19,8.27-1.74,14.7,1.23,5.44-7.31,3.65-7.54,9.63-.16,4.74-3.85,15.24,17.86,14.18,0,0-32.9,21.71-54.28-20,0,0-1.4-5.59,3.85-8s1.41-7-1.05-14.35S648,737.32,644,727.52s11.56-24.37,3.13-46.06c-6.13-15.76,21.89-67.53-23.87-89-35.34-16.59-15.88-37.34-48.08-67-10.88-10,10.56-8.43,2.44-24.53-5-9.88,4.78-20.18,15.64-29.64s8.91-39.87-7.94-33.38c-14.63,5.64-16.09-2.8-22.4-6.31s-14.19,2.62-14.53-11.55c-.42-16.29-24.35,0-31.87-20.83,0,0-21.11,19.33-37.3-3.85-2.5-3.59-5.18-7.13-.52-14,5.56-8.2-6.37-21.07.18-31.93,0,0-4.39-.75-6.13,16.17s-6.37,14.89-5.56,6.23,3.51-11.54,3.24-17.1a29.28,29.28,0,0,1,1.43-10.24,307.49,307.49,0,0,1,149.71-95.94h0c5.82-.18,11.65-.52,14-1.13,5.24-1.41-1.41,7.62,3.32,6.56,3.71-.81,13.93-7.69,19-13.33q10-1.57,20.36-2.48h0a10,10,0,0,1,1.63,1.37c4.21,4.36,12.8-3.47,20.32.34,6.53,3.33,28.54,3.91,23.1,10.22s8.75-2,14.37,9.22-8.06-4.72-25.74-1.41,14-6.76-1.67-7.18c-13.19-.34-5.08,5.44-13.31,4.13s-10.06-4.41-19.87-.32c0,0,15.52,0,12.49,2.68s9.46.93,12.14,4.09-2.48.79-5.6,3.37c-3.39,2.82-11.64,5.06-12.58,2.36s3.48-3.29,2.42-4.68-8.29,3.49-11.9,4.3-10,.12-12.38,6c-1.73,4.32-7.7,3.85-10.74,4.32s-8.33,3.85-12.36,12.27-3.16-3.52-5.26-3.1c-4.15.79,1.05,11.25-7.52,14.35-10.7,3.85-27.84,10.08-26.09,22.94s4,20-7.55,19.26c-7.69-.53-2.14-14.36-4.84-17-3.25-3.26-8.39,0-13.53-1.87s-10.62,1.87-15.64,5.36-18,.8-22.64,6.79c-4.9,6.29-14.09,8.31-15.42,18.91-1.62,13.06-15.81,15.52-6.52,30.1,4.48,7.08,23.63-4.27,27.66-16.33,1.78-5.36,15.06-6.67,19.25-2.34,3.21,3.29-8.28,5.36-7.94,12.6.41,8.81-11,17.64-2.74,16,8.47-1.68,28.65-7.12,21.89,12.72-5.28,15.5-1.17,25.58,12.6,19.51s17.76,6.65,20.08,5.71,1.74-4.78,8.17-11c9.63-9.29,16.12-6.77,21.26-12.6s9.8-4,8.15-1.87-6.15,5.94-4.28,8-3.87,11.81.09,12.26,3.16-10.87,4.91-13.53c2.44-3.73,13.77-8.87,18,3.49s11.91,1.17,26.85,0,14.73,1.87,21.25,5.84,23.58,21.71,38.28,21,27.78,6.07,28.95,20.54c1,12.24,7,7.8,6.69,12.06a11.87,11.87,0,0,0-7.5,5.34c-4.66,7.12-14.47,11.21-19.15,13.2s-11,0-12.24-1.75-9.71-5.38-5.5-1.53-2.92,6-4.09,7,1.87,3.85,3.16,2.46a12.47,12.47,0,0,1,6.43-3.63c3-.7,2.06,10.37,2.91,10.28,1.87-.24-.45-6,2.68-6.65s8.52-3.51,12.6-4.9,5.14,4.66,6.31,4.18-.23-2.68,1.87-3.73,15.3,4.57,16,2.58,4.9-4.2,7.58-8.17a5,5,0,0,0,.74-2c4.86,3.16,18.37-.08,24.94,10.94,7.24,12.14,24.13.12,28,5.61,6.31,8.87,16,12.21,20.08,15.4C874.17,527.1,881.67,543.21,862.76,560Z"/><path fill="#a6c738" d="M923.72,328c-24.73.93-32.37-23.42-33.92-29.59A304.25,304.25,0,0,1,923.72,328Z"/><path fill="#a6c738" d="M1009.93,502.24h0c-7.47-.69-8.14-24.62-14.45-17.5-3.08,3.45-6.31,2.56-8.41-4.45s-3,4.09-4.91,5.6c-5.43,4.44-18-8.59-19.12-26.13-2-32-16.12-19.61-21.95-36.44s-4.21-26.37-9.35-31-11.67-24.53-7.24-35-2.56-13.78-2.08-17.74c.43-3.77,9.1-.36,10.14-2.21A306.29,306.29,0,0,1,1009.93,502.24Z"/><path fill="#fff" d="M666.17,454.05l1.35-1.95c.65-1,1.32-1.9,2-2.84C690.4,420,720,392.57,736.16,378.61a165.52,165.52,0,0,0,22.44-23.69c1.06-1.37,2.11-2.75,3.13-4.15l142.5-196a21.15,21.15,0,0,0,3.51-17.42c-.13-.54-.27-1.07-.42-1.6l-.1-.31c-.13-.44-.28-.89-.43-1.32,0-.08-.06-.16-.08-.23-4.66-12.84-17.41-22-19.82-23.66-2.36-1.83-16-11.83-30.21-11.57a21,21,0,0,0-2.1.13,21.57,21.57,0,0,0-15.45,8.74l-142.46,196a166,166,0,0,0-18.6,32.9c-8.58,20.28-26.31,58.68-48.74,88-7.44,9.72-18.56,24.74-31.32,42.15-.79-.49-1.59-1-2.39-1.39l-.16-.1-.28-.15-.39-.2-.22-.11-.22-.11c-.27-.14-.54-.25-.81-.38-.45-.21-.9-.42-1.35-.61l-.78-.31c-.52-.21-1-.41-1.57-.6l-.43-.13c-.65-.22-1.29-.42-1.94-.59h0a31.29,31.29,0,0,0-11.46-1,28.87,28.87,0,0,0-12.47,4.36,32.54,32.54,0,0,0-11,11.56,37.55,37.55,0,0,0-3.6,9l-.93.08a30.42,30.42,0,0,0-9.16,2.48,34.68,34.68,0,0,0-8.38,5.31c-7.65,6.52-9.26,17-9.2,25a57.72,57.72,0,0,0,.33,5.87c-8.57,6.07-13.15,12.63-15.54,18.46a31.76,31.76,0,0,0-2.41,12.49,85.94,85.94,0,0,0-8.34,7.19c-.2.21-.4.46-.6.71a1.71,1.71,0,0,1-.11.14c-.13.18-.26.36-.39.56l-.27.4-.07.11c-2.69,4.27-4.51,11.28-5.41,15.46,0,0,0,.14,0,.21a76,76,0,0,0-1.77,15.55c0,.36,0,.71,0,1,0,.17,0,.34,0,.51a11.14,11.14,0,0,0,.16,1.48c0,.24.1.49.15.73s.11.51.18.79.22.72.35,1.1c.06.18.11.36.18.55.14.36.3.73.46,1.1s.19.48.31.73.07.19.12.29l.19.35a57.36,57.36,0,0,0,4.2,7.1L482.41,626a33.06,33.06,0,0,0-9.18-.41c-6.15.64-11.06,3.26-14.19,7.57-4.26,5.86-4.46,14.08-.55,22.56,3.35,7.26,9.48,14.37,17.24,20,10.25,7.46,22,11.31,31.45,10.32,6.15-.65,11.06-3.27,14.19-7.57,4.82-6.62,4.37-15.61-.35-24.51l3.5-4.81,1.67,1.06c28.67,17.37,52.26,34,62.59,41.56l3.67,2.69,1.44,1.06.21.16.43.32c18,12.67,72.16,74.38,148.72,169.31a7,7,0,0,0,9,1.66l101.24-58.68h0l37.69-21.85a7,7,0,0,0,.35-11.89C822.71,729.11,701,616.37,694.38,607.83c-2.38-3.93-4.07-10.72-5.24-19.08,2.94-24.76,5.65-61.59-2-75.15l-.1-.17,0,0c-3.6-6.12-21.07-24-36.93-36.67q9.68-13.51,15.74-22.26Z"/><path fill="#ffab70" d="M681.07,517s-5.44,76.44,8.11,95.66a223.81,223.81,0,0,0,30.25,34L660,619.24l-30.58-47.69Z"/><path fill="#ffab70" d="M529.82,644.25c37.07,22.47,65.71,43.79,68.52,45.88l.11.08,0,0,.09.07C623.82,708.12,703.33,804.69,748.7,861l138.81-80.46c-70.92-46.13-203.45-163.28-208.31-171-5.46-8.72,1.87-92.45,1.87-92.45s-64.56-20.38-75.22-34-26.27-19.71-38.57-11.93-12.42,22-12.42,22S545.1,490.36,535,499s-5.84,28.89-5.84,28.89C506.43,541.63,511,558.58,511,558.58s-7.79,5.8-10.59,8.79c-1.59,1.69-3.68,7.42-5.12,14.07v0A66.75,66.75,0,0,0,493.66,597c.1,2.45,2.33,6.61,5.84,11.65C503.9,620.41,512.65,633.83,529.82,644.25Z"/><path fill="#f08648" d="M535.71,617c15.12,6.88,29.14-14.17,29.14-14.17,9.78-4.88,17.84-14.8,17.84-14.8-1.17,3.61-.5,22,13.43,30.34s19.57,20.4,12.54,36.38-23.32,26-23.32,26c5.5,3.84,12.42,9,13.23,9.59,15.34-10.14,40.53,17.67,47.34,14.17,7.43-3.81-25.55-32.93-29.66-37.18s-.2-15.13,8.51-18.83,17.56,4.86,28.82-2.13,63.94,62,131.65,105.34c24.52,15.69,46.56,33.83,64.71,50.6l37.69-21.85c-69.34-45.85-194.31-161.1-199.15-168.82-.25-.39-31.54,4.38-31.72,3.72l-10.53-86.39-47.75-30.48-87,92.17S520.59,610.14,535.71,617Z"/><path fill="#ea6c2c" d="M617.94,608.63s-25.27-10.63-27.5-29.07c0,0-16,21.24-30,15.71,0,0-16.55,32.35-39.95,8.58s40.44-74.22,40.44-74.22l54.88-53.54L657,534.56Z"/><path fill="#fb0" d="M900.91,138.9c-2.95-12.87-18.14-23-18.14-23s-13.25-10.46-26-10.23a14.89,14.89,0,0,0-12,6L702.33,307.58a158.29,158.29,0,0,0-17.81,31.52c-9,21.19-26.87,59.76-49.63,89.49-33.1,43.24-138,189.8-138,189.8l26.87,19.53s107.06-145,138-189.8c21.26-30.82,52.42-59.74,69.82-74.8a159,159,0,0,0,24.49-26.67l142.5-196A14.28,14.28,0,0,0,900.91,138.9Z"/><path fill="#f4a623" d="M661.76,448.12c21.26-30.82,52.42-59.74,69.82-74.8a159,159,0,0,0,24.49-26.67l142.5-196a14.28,14.28,0,0,0,2.34-11.75c-1.68-7.35-7.35-13.8-11.91-18C846.55,222.54,711.36,374.22,690,394.44s-87.9,120.91-87.9,120.91l-.27,16.18C626.15,498.19,649.72,465.57,661.76,448.12Z"/><ellipse cx="490.21" cy="655.84" fill="#011f33" rx="17.62" ry="31.53" transform="rotate(-53.98 490.23 655.853)"/><ellipse cx="492.97" cy="652.03" fill="#013857" rx="12.92" ry="23.12" transform="rotate(-53.98 492.997 652.045)"/><rect width="33.67" height="227.38" x="547.03" y="440.84" fill="#013857" transform="rotate(36.02 563.85 554.491)"/><ellipse cx="792.23" cy="217.78" fill="#ffdb63" rx="104.03" ry="7.74" transform="rotate(-53.98 792.253 217.77)"/><path fill="#ffab70" d="M544.38,606.8c11.17-8.6,7.3-18.85,7.3-18.85s11.11,10.2,21.7,1.41S576.19,567,576.19,567s12.2,2.47,20-7.06.74-19.59.74-19.59,7.65.71,14.32-6.15,7.9-22.66,6.62-24.47S597.44,474.27,591.92,471l-.33-.17-.35-.17c-8-4-16.57-4.28-24,.39-12.3,7.78-12.42,22-12.42,22S545.1,490.36,535,499s-5.83,28.89-5.83,28.89C506.43,541.63,511,558.58,511,558.58s-7.77,5.79-10.59,8.79-7.15,18.51-6.74,29.64a11.4,11.4,0,0,0,1.24,4.06h0a11.42,11.42,0,0,0,13.2-5S533.2,615.41,544.38,606.8Z"/><path fill="#f08648" d="M574.71,565.16s12.19,2.47,20-7.06.74-19.59.74-19.59,7.65.71,14.32-6.15,7.9-22.66,6.62-24.46c-.16-.23-.63-1-1.32-2.17-1.44.93-2.23,2.65-2,5.47,1.22,15.32-21.25,19.61-21.25,19.61l-2.56,3c3,14.63-22.6,24.92-22.6,24.92,2.19,27-30.34,15-30.34,15s4,3.75,1.77,15.3c-1.93,10-17.95,9.24-22.15,8.86a18.12,18.12,0,0,0,3.07,4.14c8,4.16,17.94,7.56,23.92,3,11.18-8.6,7.31-18.85,7.31-18.85s11.11,10.2,21.7,1.42S574.71,565.16,574.71,565.16Z"/><path fill="#ea6c2c" d="M544.38,606.8c11.17-8.6,7.3-18.85,7.3-18.85s11.11,10.2,21.7,1.41S576.19,567,576.19,567s12.2,2.47,20-7.06.74-19.59.74-19.59,7.65.71,14.32-6.15,7.9-22.66,6.62-24.47c-.22-.31-1-1.62-2.16-3.58h0c2.59,17.12-9.81,27.87-16,27.58-6.43-.3-36-32.9-36-32.9s27.12,35.09,29.94,38.49-.67,17.36-10.2,21.48c-9,3.88-36.9-24-44.31-29.07,8,9,18.13,18.87,29.41,29.44a16.49,16.49,0,0,1,4.56,17.2,12.34,12.34,0,0,1-8.1,8.09c-12.72,4.32-37.05-21.8-46.17-26.14,0,0,30.9,26.4,28.31,32.13-7.86,17.39-16.12,14.39-44.6.81,8.15,5.09,15.94,9.83,21.4,12.32C531.15,608.8,539.24,610.76,544.38,606.8Z"/><path fill="#ea6c2c" d="M630.89,477c-10.28-2.5-12.86-3.5-21.18,5.64,0,0-10.62,12.61-22.72,17.74s-23.45,11.39-18.89,19.79,26.38,21.6,48.06,8.09c0,0,3.73,10.71,14.91,13.15l49.48-12.25C675,520.21,641.17,479.49,630.89,477Z"/><path fill="#ffab70" d="M605.93,477.86s-9.31,13.61-20.84,19.93-22.18,13.69-16.8,21.59,28.41,18.84,48.63,3.22c0,0,4.78,10.28,16.16,11.58,0,0-29.68,22.39-30.57,49.34-1.27,38.38,65.94,35.33,76.7,26,0,0,11.92-74.54,1.86-92.45-5.16-9.19-44.17-45.45-54.64-46.91S613.28,467.93,605.93,477.86Z"/><path fill="#f08648" d="M654.51,513.47C644,526.78,632.6,528.11,632.6,528.11c6.4-11.25,3.93-20.62,3.93-20.62s-2.73,16.39-6.5,18-7.2-2.12-7.2-2.12c6.55-11.61,3.75-27.15,3.75-27.15s-1.48,8.79-13.18,22.17-34.71,8.7-34.71,8.7h0a36.71,36.71,0,0,0,38.23-4.54s4.78,10.28,16.16,11.58c0,0-2.19,1.52-5.59,4.16C645.7,536.08,654.51,513.47,654.51,513.47Z"/><path fill="#ffceab" d="M568.29,519.38a13.82,13.82,0,0,0,1.36,1.66c8.52-.11,15.9-5.31,20.42-11,4.08-5.19-1.75-9.84-5.29-12C573.37,504.25,563,511.55,568.29,519.38Z"/><path fill="#d63147" d="M394.14,847.76A880.35,880.35,0,0,1,285.2,801.05q29.66-14.7,57.5-31.32-6.74-34-11-67.7a779.27,779.27,0,0,0,96.17,41.24Q411,795.52,394.14,847.76Z"/><path fill="#9e081c" d="M371,821.52q11.25,13.28,23.13,26.24l5.1-15.77Q385.07,827,371,821.52Z"/><path fill="#d63147" d="M969.86,847.76a880.35,880.35,0,0,0,108.94-46.71q-29.65-14.7-57.5-31.32,6.73-34,11-67.7a779.27,779.27,0,0,1-96.17,41.24Q953,795.52,969.86,847.76Z"/><path fill="#9e081c" d="M993,821.52q-11.25,13.28-23.13,26.24L964.76,832Q978.94,827,993,821.52Z"/><path fill="#ff4f66" d="M950,714.24a745.18,745.18,0,0,1-539.87-1.5c-4-1.55-8.48.68-10.09,5q-17.18,46.34-34.33,92.65a8.83,8.83,0,0,0,5.3,11.12,852.47,852.47,0,0,0,617.56,1.72,8.83,8.83,0,0,0,5.35-11.09l-33.86-92.84C958.47,715,954,712.72,950,714.24Z"/><path fill="#fff" d="M542,367.86c-.16-.79-.33-1.57-.51-2.35,0-.18-.09-.35-.13-.52-.16-.63-.32-1.26-.49-1.89,0-.13-.07-.26-.11-.4-.2-.71-.41-1.43-.63-2.14v-.05a75.67,75.67,0,0,0-22.59-34.63c-.45-.39-.9-.78-1.36-1.16l-.12-.1c-1.59-1.33-3.24-2.6-4.93-3.8,2.71-10.29,4.15-22.39.72-32.9l-.12-.37a.14.14,0,0,0,0-.07l-.24-.67c-.21-.58-.44-1.15-.68-1.71l-.12-.31a30.49,30.49,0,0,0-15.47-15.72,47.48,47.48,0,0,0-5.12-2,76.61,76.61,0,0,0-18-3.48A107.32,107.32,0,0,0,420.52,272c-8.48,3.68-15.27,7.93-20.17,12.65a30.52,30.52,0,0,0-9.26,17l-.12.65c0,.17-.05.35-.07.52-1.93,13.65,5.1,27.73,12.45,38.26a75.57,75.57,0,0,0-11.64,54.45,76.39,76.39,0,0,0,14.89,34.28c.13.17.27.34.4.52.68.87,1.38,1.73,2.1,2.57a24.43,24.43,0,0,0,2.26,2.29,24,24,0,0,0,8.28,4.81h0c.48.16.95.3,1.43.43a24.55,24.55,0,0,0,10.34.53l88-14.46A24.3,24.3,0,0,0,538,411.78,76.11,76.11,0,0,0,542,367.86ZM421.32,306.44c1.28-1.24,4.45-3.75,11.23-6.69a77.17,77.17,0,0,1,36.95-6.07,46.58,46.58,0,0,1,10.91,2,16.92,16.92,0,0,1,1.89.75,6.31,6.31,0,0,1,.57.3h0a3.44,3.44,0,0,1,.19.45,10.44,10.44,0,0,1,.43,2v.1a31.86,31.86,0,0,1-.63,9.12,74.51,74.51,0,0,0-23.8-1.26,76.41,76.41,0,0,0-33.78,12l-.06-.1a42.32,42.32,0,0,1-3.45-7.13c0-.15-.09-.29-.14-.43s-.18-.53-.25-.78-.15-.56-.21-.83a10.8,10.8,0,0,1-.34-2.49c0-.28,0-.42,0-.44A2.89,2.89,0,0,1,421.32,306.44Z"/><path fill="#013857" d="M492.2,275.41c-5.78-2.72-12.94-4.23-20.75-4.89a100.35,100.35,0,0,0-48.14,7.9c-7.2,3.12-13.5,6.84-18.11,11.27C381,313,422.26,352.61,422.26,352.61l38.89,5.79,35-17.92S522.59,289.75,492.2,275.41Zm-8.39,53.14-25.42,13-28.26-4.21c-6.8-7.59-16.31-20.75-16.3-30a7.53,7.53,0,0,1,2.63-6c2-1.9,5.91-4.86,13.31-8.06a84,84,0,0,1,40.32-6.62c8,.67,12.7,2.22,15.2,3.4a7.53,7.53,0,0,1,4.4,4.83C492.64,303.67,487.85,319.16,483.81,328.55Z"/><path fill="#012847" d="M501.23,282.51c-.37,4.64-2.61,11-10.78,16,1,8.94-3.11,21.82-6.64,30l-22.07,11.3h0l-3.36,1.72-3.73-.56h0l-24.52-3.65c-6-6.66-14-17.55-15.89-26.34-9.34-2.12-13.5-7.44-15.33-11.72-8.05,23.17,23.34,53.31,23.34,53.31l31.15,4.64c2-3.92,3.93-7.76,5.67-11.5,2.85,3,5.88,6,9.05,9.08l28-14.35S516.26,301.88,501.23,282.51Z"/><path fill="#ff4f66" d="M531.5,409.15a69.2,69.2,0,0,0,3.65-39.9c-7.07-34.73-40.1-58.93-75.34-55.14a69.44,69.44,0,0,0-45.4,114.23,17.24,17.24,0,0,0,15.87,5.71l88-14.45A17.18,17.18,0,0,0,531.5,409.15Z"/><circle cx="465.47" cy="373.04" r="28.38" fill="#012847"/><path fill="#f93858" d="M518.32,419.6a17.18,17.18,0,0,0,13.18-10.45,69.15,69.15,0,0,0-33.18-87.84c.59.94,35.72,57.42,5.84,78.56-23.92,16.93-76.63,17.94-97.36,17.64a69.49,69.49,0,0,0,7.61,10.83,17.24,17.24,0,0,0,15.87,5.71Z"/><ellipse cx="427.26" cy="349.82" fill="#f9627b" rx="23.03" ry="10.39" transform="rotate(-54.32 427.29 349.827)"/><path fill="#fff" d="M461.56,390.38c-1.78-1.28-2.9-3.36-3.38-6.25l-.52-3.19a10.53,10.53,0,0,1,.13-4.66,6.46,6.46,0,0,1,2.37-3.33l0-.1a6.17,6.17,0,0,1-3.1-2.27,10.15,10.15,0,0,1-1.57-4.27l-.25-1.49c-.47-2.89-.09-5.22,1.16-7a10.25,10.25,0,0,1,12.83-2.11c1.75,1.28,2.86,3.37,3.33,6.25l.25,1.5c.56,3.44-.21,6-2.34,7.69l0,.1a6.32,6.32,0,0,1,3.3,2.4,10.4,10.4,0,0,1,1.62,4.37l.53,3.19q.7,4.33-1.21,7a9,9,0,0,1-6.2,3.38C465.66,392.06,463.34,391.66,461.56,390.38Zm8.63-8.54-.56-3.45q-.67-4.08-3.87-3.55t-2.53,4.6l.57,3.45c.45,2.72,1.73,3.9,3.87,3.55S470.64,384.56,470.19,381.84Zm-2.88-16.25-.46-2.84q-.6-3.6-3.58-3.12t-2.4,4.1l.46,2.84c.4,2.4,1.59,3.44,3.59,3.12S467.71,368,467.31,365.59Z"/><path fill="#fff" d="M940.91,643.85a6,6,0,0,0-4.78-4,6.34,6.34,0,0,0-1.63,0l-8.94-26a6,6,0,0,0-4.78-4,6,6,0,0,0-2.87.26l-4.36,1.5-7.12-13.42a6,6,0,0,0-2.43-2.46,6.13,6.13,0,0,0-2-.67c-.21,0-.41-.05-.62-.06-1,0-1.89-.13-2.81-.23-.61-.07-1.23-.14-1.82-.23a34,34,0,0,1-10.42-3.26,25.75,25.75,0,0,1-4-2.51,11.15,11.15,0,0,0,3.42-8.19,1,1,0,0,0,0-.17v-.12c0-.21-.06-.41-.09-.61s0-.33-.08-.5-.12-.52-.19-.77-.08-.27-.13-.4-.18-.48-.28-.72a4.54,4.54,0,0,0-.21-.45l-.11-.24,0-.07c-.05-.09-.12-.17-.17-.27s-.22-.36-.34-.54-.1-.17-.16-.25c.14-.23.25-.48.38-.71.42-.78.84-1.55,1.24-2.33s.66-1.32,1-2c.15-.3.29-.6.43-.9.32-.65.64-1.3.94-2l.26.05a13.89,13.89,0,0,0,6.58-.6,13.82,13.82,0,0,0,8.56-17.55,14,14,0,0,0-1.76-3.44,145.27,145.27,0,0,0,17.32-41,5.44,5.44,0,0,0,.14-.77,150.49,150.49,0,0,0,4.23-40.23c-.8-27.23-8.36-45.93-8.69-46.72a6,6,0,0,0-7.52-3.4l-31.56,10.87c-1.14-2.2-2-3.7-2.37-4.37-1-2.13-3.15-4.54-8.07-5.29-11.29-1.73-39,5.86-61.14,13.54-10.81,3.75-46.73,16.78-55.36,27.12-2.85,3.41-2.85,6.46-2.42,8.33.11.75.37,2.46.83,4.93L715.47,480a6,6,0,0,0-3.83,7.32c.23.81,5.78,20.21,21.92,42.16a147.57,147.57,0,0,0,67.56,51.22,14,14,0,0,0,.74,3.8,13.76,13.76,0,0,0,11,9.15h0a13.78,13.78,0,0,0,12.32-4.38q3.9,2,8,3.77a9.59,9.59,0,0,0,.66,3.11.3.3,0,0,0,0,.1,4.74,4.74,0,0,0,.24.58c1,2.15,3.33,4.87,8.46,5.66h.1c-1.06,4.19-3.86,10.34-11.15,16.63a6,6,0,0,0-2,5.61l2.65,15-4.36,1.5a6,6,0,0,0-3.73,7.65L833,674.81a6,6,0,0,0-2.31,2.51,6,6,0,0,0-.28,4.6l3.23,9.39a6,6,0,0,0,4.79,4,5.86,5.86,0,0,0,2.86-.26l99.17-34.15a6,6,0,0,0,3.73-7.65ZM745,503.32c-.6-1.09-1.18-2.19-1.75-3.31l-.06-.14c-.57-1.13-1.13-2.29-1.67-3.46l11.27-3.88a222.8,222.8,0,0,0,9.59,25.58,190,190,0,0,0,9.5,18.45,124.83,124.83,0,0,1-26.81-33.11S745.06,503.37,745,503.32ZM897.51,446.9c.24,1.23.47,2.45.67,3.67a1,1,0,0,0,0,.17,124.53,124.53,0,0,1-.73,42.53,197.13,197.13,0,0,0-7.31-32.62c-.17-.53-.33-1.06-.5-1.59s-.26-.82-.4-1.23c-1.26-3.89-2.57-7.55-3.87-10.95L896.66,443c.3,1.25.57,2.49.82,3.73Z"/><path fill="#fb0" d="M717.43,485.7l40.13-13.82,4.1,11.24-28.17,9.7c19.7,50.27,68.06,70.56,68.06,70.56L815,561.44l6.59,19.14C738.65,561.33,717.43,485.7,717.43,485.7Z"/><path fill="#e58613" d="M801.6,563.38h0Z"/><path fill="#e58613" d="M801.35,563.29c-3.25-1.41-48.86-22-67.86-70.47l28.17-9.7-.13-.38-32.64,9.44S751.35,546.3,801.35,563.29Z"/><path fill="#fb0" d="M909.08,419.7,869,433.52l3.68,11.38,28.17-9.7c15.43,51.74-10.18,97.5-10.18,97.5l-11.78,6.75,6.59,19.14C938.93,492.35,909.08,419.7,909.08,419.7Z"/><path fill="#e58613" d="M890.59,532.74h0Z"/><path fill="#e58613" d="M890.73,532.51c1.69-3.12,25-47.43,10.08-97.31l-28.17,9.7-.13-.38L904,431.86S919.66,488.33,890.73,532.51Z"/><path fill="#f9af14" d="M900.17,529.26c-4.83,4.83-7.67,3.46-8.92,2.26-.39.77-.62,1.18-.62,1.18l-11.78,6.75,6.59,19.14a141.42,141.42,0,0,0,27.68-54.92C912.7,504.93,906.72,522.71,900.17,529.26Z"/><rect width="95.35" height="40.33" x="833.68" y="630.27" fill="#012847" transform="rotate(-19 881.533 650.516)"/><polygon fill="#013857" points="917.17 646.06 908.11 634.54 844.76 652.54 911.48 629.56 917.17 646.06"/><rect width="95.35" height="9.93" x="838.63" y="659.84" fill="#011f33" transform="rotate(-19 886.469 664.887)"/><rect width="104.88" height="9.93" x="834.82" y="662.62" fill="#012847" transform="rotate(-19 887.448 667.662)"/><path fill="#fb0" d="M873.49,588.08c12.38-7.37,2.81-11.23,2.81-11.23,41.87-68.37-8.52-153.67-8.52-153.67C863.67,411.23,748,451.06,752.11,463c0,0,12.83,98.23,87.91,126.32,0,0-5.16,8.94,9.14,7.12,0,0,1.86,13.73-13.78,27.24l3.56,20L910.64,619l-9.53-18C880.47,600.05,873.49,588.08,873.49,588.08Z"/><path fill="#f4a623" d="M901.11,601.06c-20.64-1-27.62-13-27.62-13,12.38-7.37,2.81-11.23,2.81-11.23,27.67-45.18,15.05-97.75,3.31-128.21-12,13.68-35.91,15.08-35.91,15.08s57.39,41.41,21.7,122.61c0,0,6.33,19.78,34.78,20.17l8.66,13.15,1.8-.62Z"/><rect width="56.65" height="5.64" x="853.24" y="648.22" fill="#013857" transform="matrix(.95 -.33 .33 .95 -163.95 322.54)"/><polygon fill="#ffdb63" points="842.6 624.91 892.81 607.62 901.02 620.55 889.93 612.43 842.6 624.91"/><path fill="#e58613" d="M879.76,581.68a3.61,3.61,0,0,0-1.15-3.29,155.18,155.18,0,0,1-39.46,13.67,3.56,3.56,0,0,0,1.2,3.29,156,156,0,0,0,39.41-13.67Z"/><ellipse cx="810.21" cy="443.86" fill="#e58613" rx="54.84" ry="7.17" transform="rotate(-19 810.35 443.929)"/><circle cx="814.91" cy="580.01" r="7.79" fill="#fb0"/><circle cx="815.4" cy="579.01" r="4.88" fill="#e58613"/><path fill="#f7c84c" d="M816.47,582.11a4.88,4.88,0,0,1-5.87-2.3,4.3,4.3,0,0,0,.18.79,4.89,4.89,0,0,0,9.24-3.18,4.43,4.43,0,0,0-.34-.73A4.87,4.87,0,0,1,816.47,582.11Z"/><circle cx="890.34" cy="554.04" r="7.79" fill="#f9af14"/><circle cx="889.34" cy="553.55" r="4.88" fill="#e58613"/><path fill="#f7c84c" d="M890.41,556.64a4.87,4.87,0,0,0,3.21-5.42,5,5,0,0,1,.34.74,4.89,4.89,0,0,1-9.24,3.18,4.5,4.5,0,0,1-.18-.79A4.87,4.87,0,0,0,890.41,556.64Z"/><path fill="#cc6a00" d="M809.07,436.68c2.07-.63,34-10.19,31.19-2.63-2.91,7.78-71.37,30-81.94,27.22a1,1,0,0,0,0,.45c1.29,3.74,25.55-1.22,54.18-11.08s50.81-20.89,49.52-24.64S837.18,427.09,809.07,436.68Z"/><polygon fill="#ffdb63" points="822.78 480.37 837.57 495.02 858.02 491.14 848.66 509.73 858.67 527.99 838.1 524.83 823.83 539.99 820.47 519.44 801.65 510.56 820.15 501.02 822.78 480.37"/><path fill="#f4a623" d="M833.52,449.87c-53.11,20.63-80.93,16-81,16,.32,1.88.83,4.63,1.59,8.08C788.33,469.34,833.52,449.87,833.52,449.87Z"/><path fill="#fff" d="M1103.61,408.7a25.75,25.75,0,0,0-5-14.57v0c-.31-.43-.63-.84-1-1.25-.08-.11-.17-.21-.25-.31l-.34-.39c-.14-.16-.27-.32-.42-.48l-.58-.63-.52-.53-.71-.69-.14-.12-.13-.12-.47-.43a30.6,30.6,0,0,0-3.24-2.45l-.26-.16q-.79-.51-1.62-1l-.17-.09a29.3,29.3,0,0,0-14-3.58c-.74,0-1.49,0-2.22.08-8,.62-21.87,5-25.33,27.64-.14.92-.29,1.9-.43,2.93a114.49,114.49,0,0,1-2.46,13.18c-.17.66-.36,1.33-.56,2-.07.27-.16.53-.24.8s-.22.7-.34,1.05c-3.23,9.73-9.44,20-22.82,28-11.35,6.73-32.38,21.76-45.76,46.75C963.05,526,959.82,549.82,965,575.39l0,.1q.49,2.44,1.09,4.9c0,.16.08.32.12.49.38,1.58.8,3.16,1.25,4.75l.12.43.15.51c.43,1.49.88,3,1.37,4.48a7,7,0,0,0,3.7,4.19l26.94,12.53a6.94,6.94,0,0,0,5.59.14c30.71-12.47,51.84-32.69,62.77-60.08,10.52-26.33,8.47-52.1,6.31-65.12a56.81,56.81,0,0,1-.79-8.91,48.69,48.69,0,0,1,1.21-11.4c0-.09,0-.18,0-.27a47.61,47.61,0,0,1,2.56-7.78c.51-1.2,1.06-2.37,1.64-3.5,0-.07.07-.13.1-.2.68-1.3,1.4-2.54,2.14-3.74l.24-.37.69-1.07c.32-.49.64-1,1-1.43a112.12,112.12,0,0,1,8.62-10.52l2-2.21c7.53-8.61,9.91-16.28,9.82-22.61Z"/><path fill="#ebedf4" d="M1067.49,483.85c-5.06-30.49,12.42-47.32,21-57.16,11.15-12.73,8.8-22.38,4.42-28.48A22.45,22.45,0,0,0,1073.1,389c-7.48.58-16.38,5-18.94,21.72-2,12.92-3.61,37.13-30.2,52.9C994.88,480.85,954,522,975.74,588.89l26.93,12.54C1067.83,575,1073,517.22,1067.49,483.85Z"/><path fill="#e4e6ee" d="M1088.52,426.69c11.15-12.73,8.8-22.38,4.42-28.48a22.43,22.43,0,0,0-14.69-9c4.72,4.63,13.15,16.77,1.24,37.34-10.9,18.82-26.89,24.08-27.22,60-.32,33.69-53.11,84.92-75.22,28.93-8.31,19.61-10.85,44-1.31,73.42l26.93,12.54c65.16-26.46,70.34-84.21,64.82-117.58C1062.44,453.36,1079.91,436.53,1088.52,426.69Z"/><path fill="#dddfe8" d="M1088.52,426.69c11.15-12.73,8.8-22.38,4.42-28.48a22.36,22.36,0,0,0-10.49-7.92c3.85,5,10.65,17.33.86,32.83-12.89,20.41-26.61,32.34-28.49,71.58-1.75,36.63-42.3,100.66-85.19,58.45a118.09,118.09,0,0,0,6.11,35.74l26.93,12.54c65.16-26.46,70.34-84.21,64.82-117.58C1062.44,453.36,1079.91,436.53,1088.52,426.69Z"/><ellipse cx="1016.91" cy="497.36" fill="#f3f5f8" rx="28.53" ry="14.14" transform="rotate(-54.08 1016.93 497.363)"/><ellipse cx="1067.45" cy="407.81" fill="#f3f5f8" rx="12.26" ry="6.07" transform="rotate(-71.33 1067.472 407.806)"/><path fill="#ff4f66" d="M1077.65,439.77c-1,1.45-2,3-3,4.6-.39.65-.78,1.32-1.14,2l-24.74-11.51c.29-.72.56-1.45.81-2.17.61-1.78,1.14-3.54,1.58-5.26Z"/><path fill="#ff4f66" d="M1067,466.24l-29.27-13.62c.56-.6,1.09-1.19,1.6-1.8a53.66,53.66,0,0,0,3.39-4.42l25.83,12a55.51,55.51,0,0,0-1.21,5.44C1067.23,464.64,1067.11,465.43,1067,466.24Z"/><path fill="#d63147" d="M1067,466.24l-29.27-13.62c.56-.6,1.09-1.19,1.6-1.8l28,13C1067.23,464.64,1067.11,465.43,1067,466.24Z"/><path fill="#d63147" d="M1074.64,444.37c-.39.65-.78,1.32-1.14,2l-24.74-11.51c.29-.72.56-1.45.81-2.17Z"/><path fill="#fff" d="M456.54,568.5c0-.26,0-.51-.05-.77-.05-.84-.11-1.67-.19-2.5l-.06-.62c-.11-1-.23-2-.38-3v0a65.15,65.15,0,0,0-13.05-30.34,8.14,8.14,0,0,0-.54-.63,65.92,65.92,0,0,0-114.37,61.17c0,.13.07.27.11.4a65.8,65.8,0,0,0,52.52,44.61l.5.07c.83.12,1.66.23,2.5.32l.92.09c.74.07,1.48.12,2.23.17l.91,0c1,.05,2.06.08,3.09.08a66,66,0,0,0,65.95-66C456.62,570.6,456.59,569.54,456.54,568.5Z"/><circle cx="390.67" cy="571.65" r="58.95" fill="#013857"/><path fill="#012847" d="M437.27,535.56A59,59,0,0,1,334.65,590a59,59,0,1,0,102.62-54.47Z"/><path fill="#011f33" d="M433.33,540.51c3.7,3,5.33,7.07,3.65,9.17a3.63,3.63,0,0,1-2.91,1.2,11.32,11.32,0,0,1-6.83-2.78A11.45,11.45,0,0,1,423,542a3.62,3.62,0,0,1,.55-3.1C425.27,536.83,429.63,537.54,433.33,540.51Z"/><path fill="#012847" d="M432.08,542.07c3.08,2.48,4.21,6.18,2.53,8.28a3,3,0,0,1-.54.53,11.32,11.32,0,0,1-6.83-2.78A11.45,11.45,0,0,1,423,542a3.31,3.31,0,0,1,.41-.64C425.13,539.29,429,539.6,432.08,542.07Z"/><path fill="#011f33" d="M403.35,524.25c5.16,1.38,8.72,4.88,7.93,7.8a4.1,4.1,0,0,1-2.45,2.57,14.6,14.6,0,0,1-15.41-4.12,4.1,4.1,0,0,1-.84-3.45C393.36,524.12,398.18,522.87,403.35,524.25Z"/><path fill="#012847" d="M402.76,526.43c4.31,1.16,7.16,4.46,6.38,7.39a4.28,4.28,0,0,1-.31.8,14.6,14.6,0,0,1-15.41-4.12,4.06,4.06,0,0,1,.13-.85C394.33,526.72,398.46,525.28,402.76,526.43Z"/><path fill="#011f33" d="M411.72,549.14c4.85,2.49,6.93,8.11,4.64,12.55a8.4,8.4,0,0,1-3.89,3.75A10.42,10.42,0,0,1,398,558a8.48,8.48,0,0,1,.79-5.35C401.09,548.21,406.87,546.64,411.72,549.14Z"/><path fill="#012847" d="M410,552.44c4,2.08,5.46,7.37,3.18,11.8a10.94,10.94,0,0,1-.73,1.2A10.42,10.42,0,0,1,398,558a11.89,11.89,0,0,1,.55-1.29C400.85,552.27,406,550.36,410,552.44Z"/><ellipse cx="361.93" cy="546.64" fill="#034360" rx="23.03" ry="14.88" transform="rotate(-54.08 361.933 546.645)"/><circle cx="704.49" cy="155.25" r="47.95" fill="#049c9a"/><path fill="#008982" d="M715.47,108.58a48.06,48.06,0,0,0-11.53-1.27,47.95,47.95,0,0,1-15.49,93.13,49.24,49.24,0,0,0,5.06,1.49,47.95,47.95,0,1,0,22-93.35Z"/><ellipse cx="680.39" cy="149.57" fill="#10afa7" rx="26.87" ry="14.61" transform="rotate(-71.38 680.386 149.575)"/><path fill="#00776e" d="M752.19,160c-.06.7-.15,1.41-.25,2.12-.2,1.35-.45,2.71-.78,4.08l-.24,1c-.17.65-.35,1.31-.55,1.95a94.75,94.75,0,0,1-30.8-21.3,99.8,99.8,0,0,1-23-39.94c.67-.11,1.35-.21,2-.29a44.5,44.5,0,0,1,5.3-.35c.72,0,1.44,0,2.16,0a89.65,89.65,0,0,0,20.12,34.31A85.62,85.62,0,0,0,752.19,160Z"/><path fill="#fff" d="M751.94,162.16c-.2,1.35-.45,2.71-.78,4.08l-.24,1A93,93,0,0,1,721,146.5a97.77,97.77,0,0,1-22.44-38.84,44.5,44.5,0,0,1,5.3-.35A91.91,91.91,0,0,0,724.72,143,87.73,87.73,0,0,0,751.94,162.16Z"/><path fill="#00776e" d="M715.52,201.92c-.67.16-1.34.31-2,.44a45.36,45.36,0,0,1-5.34.71c-.73.06-1.47.1-2.2.11a86.07,86.07,0,0,0-16.83-23.75,87.22,87.22,0,0,0-32.41-20c-.07-.74-.11-1.47-.14-2.21a42.52,42.52,0,0,1,.09-5.29c0-.69.1-1.39.18-2.08a94.7,94.7,0,0,1,58.67,52.1Z"/><path fill="#fff" d="M713.5,202.36a45.36,45.36,0,0,1-5.34.71,86.75,86.75,0,0,0-51.58-45.88,42.52,42.52,0,0,1,.09-5.29,92.58,92.58,0,0,1,56.83,50.46Z"/><path fill="#fff" d="M901.67,279.52A57.57,57.57,0,1,0,938,352.39,57.43,57.43,0,0,0,901.67,279.52Z"/><circle cx="883.38" cy="334.1" r="50.57" fill="#e4e6ee"/><path fill="#dddfe8" d="M914.52,294.25A50.57,50.57,0,0,1,839.36,359a50.57,50.57,0,1,0,75.16-64.72Z"/><ellipse cx="867.79" cy="306.79" fill="#f3f5f8" rx="23.61" ry="11.7" transform="rotate(-35.43 867.816 306.79)"/><path fill="#d63147" d="M893.77,383.6l.22-.25c-11.52-11.75,6.94-38.47,16.86-52.83,1-1.42,1.91-2.76,2.71-3.94,4.68-6.94,3.41-16.19,1.52-22.73a61.9,61.9,0,0,0-5.26-12.62l-.26.19c.13.21,12.58,21.9,3.75,35-.8,1.18-1.72,2.52-2.7,3.94C905.46,337.78,898.41,348,894,358,888.77,369.79,888.69,378.42,893.77,383.6Z"/><path fill="#ff4f66" d="M896.46,347.35v.07a.47.47,0,0,0,.56.38l2.27-.52a.46.46,0,0,1,.56.44l.07,2.88a.47.47,0,0,0,.5.45h0a.48.48,0,0,0,.42-.47l-.1-4.08a.45.45,0,0,0-.56-.43l-3.39.77A.46.46,0,0,0,896.46,347.35Z"/><path fill="#ff4f66" d="M891.46,357.26v.07a.45.45,0,0,0,.6.31l2.2-.8a.45.45,0,0,1,.6.36l.44,2.85a.45.45,0,0,0,.55.38h0a.46.46,0,0,0,.35-.52l-.61-4a.46.46,0,0,0-.61-.36l-3.26,1.2A.44.44,0,0,0,891.46,357.26Z"/><path fill="#ff4f66" d="M888.2,369v0a.46.46,0,0,0,.67.05l1.82-1.73a.46.46,0,0,1,.71.09l1.38,2.29a.46.46,0,0,0,.67.12l0,0a.45.45,0,0,0,.12-.6l-2-3.28a.45.45,0,0,0-.7-.1l-2.69,2.56A.45.45,0,0,0,888.2,369Z"/><path fill="#ff4f66" d="M887.54,378.53v0a.46.46,0,0,0,.67.05l1.82-1.73a.46.46,0,0,1,.71.09l1.38,2.29a.46.46,0,0,0,.67.12l0,0a.45.45,0,0,0,.12-.6l-2-3.28a.45.45,0,0,0-.7-.1l-2.69,2.56A.45.45,0,0,0,887.54,378.53Z"/><path fill="#ff4f66" d="M901.2,339.66v.08a.45.45,0,0,0,.55.38l2.28-.52a.47.47,0,0,1,.56.44l.07,2.88a.44.44,0,0,0,.5.44h0a.45.45,0,0,0,.41-.46l-.1-4.08a.45.45,0,0,0-.56-.43l-3.38.77A.44.44,0,0,0,901.2,339.66Z"/><path fill="#ff4f66" d="M905.81,332.82v.07a.46.46,0,0,0,.56.38l2.28-.51a.44.44,0,0,1,.55.43l.07,2.88a.47.47,0,0,0,.5.45h0a.48.48,0,0,0,.42-.47l-.1-4.07a.47.47,0,0,0-.56-.44l-3.38.77A.46.46,0,0,0,905.81,332.82Z"/><path fill="#ff4f66" d="M910.91,326.88l0,0a.46.46,0,0,0,.66.16l2-1.34a.45.45,0,0,1,.68.22l1,2.55a.45.45,0,0,0,.63.25l0,0a.46.46,0,0,0,.22-.57l-1.39-3.67a.45.45,0,0,0-.68-.21l-3,2A.46.46,0,0,0,910.91,326.88Z"/><path fill="#ff4f66" d="M913.58,320.53h0a.45.45,0,0,0,.66,0L916,318.6a.45.45,0,0,1,.7,0l1.56,2.09a.47.47,0,0,0,.67.07l.06-.06a.46.46,0,0,0,.07-.62l-2.23-3a.45.45,0,0,0-.7,0l-2.58,2.79A.45.45,0,0,0,913.58,320.53Z"/><path fill="#ff4f66" d="M909.85,297.43h0a.46.46,0,0,0,.53-.35l.58-2.65a.45.45,0,0,1,.59-.33l2.49.83a.46.46,0,0,0,.58-.29l0-.09a.46.46,0,0,0-.28-.58l-3.47-1.16a.45.45,0,0,0-.59.34l-.82,3.73A.47.47,0,0,0,909.85,297.43Z"/><path fill="#ff4f66" d="M911.73,301.86h0a.46.46,0,0,0,.53-.36l.58-2.64a.46.46,0,0,1,.59-.34l2.49.84a.46.46,0,0,0,.58-.29l0-.09a.46.46,0,0,0-.29-.58l-3.47-1.16a.46.46,0,0,0-.59.33l-.81,3.74A.45.45,0,0,0,911.73,301.86Z"/><path fill="#ff4f66" d="M913.5,306.78h0a.45.45,0,0,0,.53-.35l.58-2.65a.45.45,0,0,1,.59-.33l2.49.83a.45.45,0,0,0,.58-.28l0-.1a.46.46,0,0,0-.29-.58l-3.46-1.16a.46.46,0,0,0-.59.34l-.82,3.74A.46.46,0,0,0,913.5,306.78Z"/><path fill="#ff4f66" d="M913.87,312.63h0a.46.46,0,0,0,.65-.13l1.41-2.19a.46.46,0,0,1,.7-.08l1.9,1.79a.47.47,0,0,0,.67,0l0-.07a.46.46,0,0,0,0-.62l-2.71-2.56a.46.46,0,0,0-.7.09l-2,3.19A.45.45,0,0,0,913.87,312.63Z"/><path fill="#d63147" d="M847.64,368.29l0-.33c16.27-2.44,17.64-34.89,18.38-52.33.07-1.72.14-3.35.22-4.77.44-8.36,7-15,12.47-19.06a62.68,62.68,0,0,1,11.81-6.9l.09.31c-.23.1-23.23,9.9-24.07,25.64-.07,1.43-.14,3.06-.21,4.78-.39,9.05-.91,21.44-3.4,32.05C860,360.28,854.81,367.22,847.64,368.29Z"/><path fill="#ff4f66" d="M867.34,337.73l-.05.06a.46.46,0,0,1-.67,0L865.11,336a.46.46,0,0,0-.71,0l-1.79,2.26a.47.47,0,0,1-.67.06h0a.45.45,0,0,1-.05-.62l2.53-3.2a.46.46,0,0,1,.71,0l2.24,2.66A.45.45,0,0,1,867.34,337.73Z"/><path fill="#ff4f66" d="M865.36,348.67l-.06,0a.46.46,0,0,1-.66-.11l-1.27-2a.44.44,0,0,0-.7-.08l-2.06,2a.46.46,0,0,1-.67,0h0a.46.46,0,0,1,0-.62l2.92-2.85a.46.46,0,0,1,.7.08l1.88,2.92A.45.45,0,0,1,865.36,348.67Z"/><path fill="#ff4f66" d="M860.86,360h0a.46.46,0,0,1-.56-.37l-.41-2.48a.46.46,0,0,0-.62-.35l-2.48,1a.45.45,0,0,1-.61-.3l0-.06a.46.46,0,0,1,.27-.55l3.56-1.41a.45.45,0,0,1,.62.35l.61,3.65A.46.46,0,0,1,860.86,360Z"/><path fill="#ff4f66" d="M855.67,368h0a.47.47,0,0,1-.57-.37l-.41-2.48a.45.45,0,0,0-.62-.35l-2.48,1a.46.46,0,0,1-.61-.3v-.05a.44.44,0,0,1,.27-.55l3.56-1.42a.46.46,0,0,1,.62.35l.61,3.65A.47.47,0,0,1,855.67,368Z"/><path fill="#ff4f66" d="M868.19,328.75l-.05.05a.46.46,0,0,1-.67,0L866,327a.45.45,0,0,0-.7,0l-1.8,2.26a.45.45,0,0,1-.66.05h0a.45.45,0,0,1,0-.62l2.53-3.19a.46.46,0,0,1,.71,0l2.24,2.65A.46.46,0,0,1,868.19,328.75Z"/><path fill="#ff4f66" d="M868.63,320.51l0,.05a.46.46,0,0,1-.67,0l-1.51-1.79a.45.45,0,0,0-.7,0L863.9,321a.46.46,0,0,1-.66.06h0a.45.45,0,0,1-.05-.62l2.53-3.2a.46.46,0,0,1,.71,0l2.24,2.66A.46.46,0,0,1,868.63,320.51Z"/><path fill="#ff4f66" d="M868.14,312.69l0,0a.46.46,0,0,1-.63-.26l-.81-2.3a.46.46,0,0,0-.67-.24l-2.32,1.46a.45.45,0,0,1-.65-.18l0,0a.46.46,0,0,1,.17-.59l3.32-2.09a.46.46,0,0,1,.67.24l1.21,3.42A.46.46,0,0,1,868.14,312.69Z"/><path fill="#ff4f66" d="M869.84,306h0a.47.47,0,0,1-.53-.41l-.26-2.6a.46.46,0,0,0-.58-.4l-2.51.73a.46.46,0,0,1-.57-.35l0-.08a.45.45,0,0,1,.32-.53l3.57-1a.44.44,0,0,1,.58.39l.39,3.78A.47.47,0,0,1,869.84,306Z"/><path fill="#ff4f66" d="M886.74,289.83h0a.45.45,0,0,1-.21-.6l1.13-2.46a.45.45,0,0,0-.27-.62l-2.49-.84a.46.46,0,0,1-.29-.58l0-.09a.46.46,0,0,1,.58-.29l3.47,1.16a.46.46,0,0,1,.27.63l-1.6,3.47A.47.47,0,0,1,886.74,289.83Z"/><path fill="#ff4f66" d="M882.57,292.23h0a.46.46,0,0,1-.21-.6l1.13-2.46a.45.45,0,0,0-.27-.62l-2.49-.84a.44.44,0,0,1-.28-.57l0-.1a.46.46,0,0,1,.58-.29l3.46,1.17a.44.44,0,0,1,.27.62l-1.6,3.47A.45.45,0,0,1,882.57,292.23Z"/><path fill="#ff4f66" d="M878.19,295.1h0a.46.46,0,0,1-.21-.61l1.13-2.45a.46.46,0,0,0-.27-.63l-2.49-.83a.46.46,0,0,1-.29-.58l0-.1a.46.46,0,0,1,.58-.28l3.47,1.16a.46.46,0,0,1,.27.62l-1.6,3.48A.47.47,0,0,1,878.19,295.1Z"/><path fill="#ff4f66" d="M874.37,299.54h0a.46.46,0,0,1-.45-.49l.2-2.6a.46.46,0,0,0-.51-.49l-2.59.29a.46.46,0,0,1-.51-.44v-.08a.45.45,0,0,1,.4-.47l3.71-.41a.45.45,0,0,1,.5.49l-.28,3.78A.45.45,0,0,1,874.37,299.54Z"/><path fill="#fff" d="M765.38,602.05c-7.72-2.31-13.74-10.48-15.44-21l-.93-5.71-.93,5.71c-1.7,10.48-7.72,18.65-15.43,21l-4.21,1.26,4.21,1.26c7.71,2.31,13.73,10.49,15.43,21l.93,5.71.93-5.71c1.7-10.47,7.72-18.65,15.44-21l4.21-1.26Z"/><path fill="#fff" d="M618.21,293c-7.71-2.31-13.74-10.48-15.44-21l-.93-5.71-.92,5.71c-1.7,10.48-7.73,18.65-15.44,21l-4.21,1.26,4.21,1.26c7.71,2.31,13.74,10.49,15.44,21l.92,5.71.93-5.71c1.7-10.47,7.73-18.65,15.44-21l4.21-1.26Z"/><path fill="#fb0" d="M263,315.71c-7.71-2.31-13.74-10.49-15.44-21l-.92-5.72-.93,5.72c-1.7,10.47-7.73,18.65-15.44,21L226.07,317l4.21,1.26c7.71,2.3,13.74,10.48,15.44,20.95l.93,5.72.92-5.72c1.7-10.47,7.73-18.65,15.44-20.95l4.21-1.26Z"/><path fill="#fff" d="M937.79,697.91c3.39-1,6-4.61,6.79-9.22l.41-2.51.41,2.51c.74,4.61,3.39,8.2,6.79,9.22l1.85.55-1.85.55c-3.4,1-6.05,4.62-6.79,9.22l-.41,2.51-.41-2.51c-.75-4.6-3.4-8.2-6.79-9.22l-1.85-.55Z"/><path fill="#007371" d="M389.28,192.57c3.39-1,6-4.61,6.79-9.21l.41-2.52.41,2.52c.74,4.6,3.39,8.2,6.79,9.21l1.85.56-1.85.55c-3.4,1-6.05,4.61-6.79,9.22l-.41,2.51-.41-2.51c-.75-4.61-3.4-8.21-6.79-9.22l-1.85-.55Z"/><path fill="#d63147" d="M1045.35,236.38c3.39-1,6-4.62,6.79-9.22l.41-2.51.4,2.51c.75,4.6,3.4,8.2,6.79,9.22l1.85.55-1.85.55c-3.39,1-6,4.62-6.79,9.22l-.4,2.51-.41-2.51c-.75-4.6-3.4-8.2-6.79-9.22l-1.85-.55Z"/><path fill="#d63147" d="M248.5,629c3.39-1,6-4.61,6.79-9.21l.4-2.52.41,2.52c.75,4.6,3.4,8.2,6.79,9.21l1.85.56-1.85.55c-3.39,1-6,4.61-6.79,9.22l-.41,2.51-.4-2.51c-.75-4.61-3.4-8.2-6.79-9.22l-1.85-.55Z"/><path fill="#fff" d="M572,720c3.39-1,6-4.62,6.79-9.22l.41-2.51.41,2.51c.74,4.6,3.39,8.2,6.79,9.22l1.85.55-1.85.55c-3.4,1-6.05,4.62-6.79,9.22l-.41,2.51-.41-2.51c-.75-4.6-3.4-8.2-6.79-9.22l-1.85-.55Z"/><path fill="#fff" d="M483.29,472.29c3.4-1,6-4.61,6.79-9.21l.41-2.52.41,2.52c.75,4.6,3.4,8.2,6.79,9.21l1.85.56-1.85.55c-3.39,1-6,4.61-6.79,9.22l-.41,2.51-.41-2.51c-.74-4.61-3.39-8.2-6.79-9.22l-1.85-.55Z"/><path fill="#fff" d="M784.78,383.05c3.39-1,6-4.61,6.79-9.22l.41-2.51.4,2.51c.75,4.61,3.4,8.2,6.79,9.22l1.85.55-1.85.56c-3.39,1-6,4.61-6.79,9.21l-.4,2.51-.41-2.51c-.75-4.6-3.4-8.2-6.79-9.21l-1.85-.56Z"/><path fill="#fb0" d="M513.07,83.3a84.28,84.28,0,0,1,87.64,136.2l2.5,27.23-27-7.95A84.28,84.28,0,1,1,513.07,83.3Z"/></svg>