<svg xmlns="http://www.w3.org/2000/svg" viewBox="0 0 1080 1080"><defs><style>.cls-1{fill:#aee1ed;}.cls-2{fill:#cff;}.cls-3{fill:#fec2a0;}.cls-4{fill:#fb9a77;}.cls-5{fill:#07659a;}.cls-6{fill:#035073;}.cls-7{fill:#07333f;}.cls-8{fill:#feca63;}.cls-9{fill:#d27563;}.cls-10{fill:#392524;}.cls-11{fill:#1e1e1e;}.cls-12{fill:#e56655;}.cls-13{fill:#eab557;}.cls-14{fill:#fff;}.cls-15,.cls-16,.cls-45{fill:none;}.cls-15{stroke:#feca63;stroke-width:1.16px;}.cls-15,.cls-16{stroke-miterlimit:10;}.cls-16{stroke:#fff;stroke-width:1.739px;}.cls-17{fill:#a55b28;}.cls-18{fill:#d8843f;}.cls-19{fill:#ef9748;}.cls-20{fill:#97a3bf;}.cls-21{fill:#825041;}.cls-22{fill:#eaf2f4;}.cls-23{fill:#02465e;}.cls-24{fill:#5e312a;}.cls-25{fill:#d7dfff;}.cls-26{fill:#b6bfe0;}.cls-27{fill:#b27824;}.cls-28{fill:#e5a93e;}.cls-29{fill:#ffca76;}.cls-30{fill:#3bb7e2;}.cls-31{fill:#5cd3f2;}.cls-32{fill:#24a4c6;}.cls-33{fill:#0b80c7;}.cls-34{fill:#0070c1;}.cls-35{fill:#f9ba64;}.cls-36{fill:#46a966;}.cls-37{fill:#ed415c;}.cls-38{fill:#02275b;}.cls-39{fill:#47b3a8;}.cls-40{fill:#379b8f;}.cls-41{fill:#234270;}.cls-42{fill:#f58f2b;}.cls-43{fill:#2a8275;}.cls-44{fill:#c86114;}.cls-46{fill:#898989;}.cls-47{fill:#bababa;}.cls-48{fill:#ddd;}.cls-49{fill:#39978d;}</style></defs><title>Leaderboard Champion</title><g id="Leaderboard_Champion" data-name="Leaderboard Champion"><g id="Leaderboard_Champion-2" data-name="Leaderboard Champion"><g id="Background"><path class="cls-1" d="M1024.956,778.412a86.936,86.936,0,0,1-7.98,30.11c-.05.12-.11.24-.17.36a72.782,72.782,0,0,1-7.56,12.26c-7.87,10.28-17.86,17.45-28.83,22.63q-2.535,1.2-5.13,2.25c-.22.09-.45.18-.67.27-10.92,4.38-22.57,7.09-33.91,9.16-10.74,1.97-21.55,3.57-32.4,4.62q-4.92.5-9.84.82c-2.18.14-4.37.27-6.55.36q-7.59.33-15.17.25a224.992,224.992,0,0,1-27.07-1.94c-.83-.1-1.66-.22-2.49-.34-2.75-.39-5.49-.85-8.23-1.36-6.82-1.28-13.58-2.92-20.29-4.81-1.6-.44-3.21-.9-4.81-1.37-1.53-.46-3.05-.92-4.57-1.39-.36-.12-.73-.23-1.09-.34-1.3-.41-2.59-.82-3.89-1.24-9.7-3.14-19.35-6.58-29.01-9.93-1.48-.51-2.95-1.02-4.43-1.53-5.29-1.82-10.6-3.6-15.92-5.27-2.76-.87-5.52-1.71-8.29-2.5q-3.18-.93-6.39-1.78l-2.77-.72q-2.085-.525-4.17-1.02c-.99-.23-1.98-.46-2.97-.68l-.3-.06a212.5,212.5,0,0,0-45.87-4.94c-1.29,0-2.6.02-3.89.04a1.927,1.927,0,0,0-.24.01.565.565,0,0,0-.13,0,221.025,221.025,0,0,0-30.79,2.78q-9.525,1.53-18.93,3.87c-3.09.76-6.17,1.6-9.24,2.5-2.68.78-5.35,1.62-8.01,2.5q-5.625,1.86-11.17,4.03-3.525,1.365-7,2.86-7.26,3.09-14.34,6.66a242.322,242.322,0,0,0-23.65,13.68c-1.93,1.25-3.85,2.55-5.75,3.87-.27.18-.53.37-.79.55q-1.755,1.23-3.5,2.5c-1.14.82-2.26,1.66-3.39,2.5-1,.75-1.99,1.52-2.98,2.29a250.911,250.911,0,0,0-22,19.27c-1.63,1.6-3.25,3.23-4.84,4.89-7.27,7.55-14.26,15.68-21.87,22.74-.91.85-1.84,1.69-2.77,2.5-.98.86-1.97,1.69-2.98,2.5-.08.07-.17.13-.25.2a74.137,74.137,0,0,1-9.8,6.74c-8.59,4.88-17.95,7.51-27.36,9.7-2.02.47-4.04.92-6.05,1.37-3.18.71-6.36,1.41-9.54,2.12-1.85.41-3.69.81-5.54,1.22-11.99,2.64-24.02,5.22-36.08,7.61q-2.85.57-5.7,1.12h-.02c-16.7,3.22-33.44,6.05-50.2,8.11-37.17,4.59-74.4,5.46-111.3-1.25a240.158,240.158,0,0,1-90.88-36.94c-1.22-.82-2.42-1.65-3.62-2.5-1.17-.82-2.33-1.65-3.48-2.5-1.02-.74-2.03-1.49-3.03-2.26q-2-1.5-3.96-3.08a213.608,213.608,0,0,1-28.21-26.87,200.075,200.075,0,0,1-18.19-24.26q-1.365-2.115-2.67-4.27a197.181,197.181,0,0,1-17.68-37.92q-1.755-5.1-3.21-10.28c-.03-.12-.07-.24-.1-.36-.15-.52-.29-1.03-.43-1.55-12.55-46.16-8.21-95.93,7.78-141.33,14.9-42.33,39.94-80.86,70.86-109.11a284.551,284.551,0,0,1,40.09-30.55c39.83-25.16,84.46-40.01,130.14-48.25a567.958,567.958,0,0,1,70.38-7.94c31.33-1.68,64.36-1.91,92.03-18.18q3.24-1.89,6.37-4.1c18.67-13.14,31.55-32.28,41.98-54.12,21.32-44.64,32.42-100.53,61.9-139.39a135.762,135.762,0,0,1,25.43-25.68c18.07-13.91,38.92-22.62,60.95-27.09,36.06-7.31,75.29-3.24,110.65,8.08,24.84,7.96,49.46,19.14,69.29,38.2,12.51,12.02,22.71,26.77,31.96,42.33,3.67,6.17,7.19,12.46,10.64,18.75.02.03.04.07.06.1,2.41,4.4,4.81,8.86,7.09,13.41,7.53,15,13.73,30.89,14.48,48.03.74,16.8-3.85,33.22-8.51,49.17-.12.42-.25.84-.37,1.26-1.34,4.58-2.87,9.3-4.51,14.11-.24.72-.49,1.44-.74,2.17-.35,1.02-.71,2.05-1.07,3.08-1.2,3.46-2.45,6.95-3.71,10.49-.17.5-.35,1-.53,1.51-14.92,41.98-30.74,88.38-.01,121.27q1.86,2,3.76,3.9c26.84,27.21,57.81,43.21,84.68,68.86a180.944,180.944,0,0,1,23.17,26.71c1.52,2.15,3.02,4.38,4.48,6.67a189.576,189.576,0,0,1,17.81,36.01,163.774,163.774,0,0,1,9.73,41.91A118.757,118.757,0,0,1,1024.956,778.412Z"/><path class="cls-2" d="M595.586,228.322l-55.2,642.6a250.911,250.911,0,0,0-22,19.27l-10.13-496.8c21.32-44.64,32.42-100.53,61.9-139.39A135.762,135.762,0,0,1,595.586,228.322Z"/><path class="cls-2" d="M485.676,923.022a74.137,74.137,0,0,1-9.8,6.74c-8.59,4.88-17.95,7.51-27.36,9.7-38.21-116.75-95.28-291.15-151.02-461.73a567.958,567.958,0,0,1,70.38-7.94c31.33-1.68,64.36-1.91,92.03-18.18Z"/><path class="cls-2" d="M391.306,951.782q-2.85.57-5.7,1.12h-.02c-16.7,3.22-33.44,6.05-50.2,8.11-76-80.45-175.85-186.14-278.98-295.37,14.9-42.33,39.94-80.86,70.86-109.11a284.551,284.551,0,0,1,40.09-30.55Z"/><path class="cls-2" d="M1024.956,778.412l-116.65,81.66q-4.92.5-9.84.82c-2.18.14-4.37.27-6.55.36q-7.59.33-15.17.25a224.992,224.992,0,0,1-27.07-1.94l165.48-144.22a163.774,163.774,0,0,1,9.73,41.91A118.757,118.757,0,0,1,1024.956,778.412Z"/><path class="cls-2" d="M868.436,289.842l-219.3,533.27q-9.525,1.53-18.93,3.87c-3.09.76-6.17,1.6-9.24,2.5-2.68.78-5.35,1.62-8.01,2.5q-5.625,1.86-11.17,4.03-3.525,1.365-7,2.86-7.26,3.09-14.34,6.66c20.06-170.26,49.61-420.88,76.09-644.3,36.06-7.31,75.29-3.24,110.65,8.08,24.84,7.96,49.46,19.14,69.29,38.2C848.986,259.532,859.186,274.282,868.436,289.842Z"/><path class="cls-2" d="M992.866,672.662l-188.56,176.05c-9.7-3.14-19.35-6.58-29.01-9.93-1.48-.51-2.95-1.02-4.43-1.53-5.29-1.82-10.6-3.6-15.92-5.27-2.76-.87-5.52-1.71-8.29-2.5q-3.18-.93-6.39-1.78l-2.77-.72q-2.085-.525-4.17-1.02c-.99-.23-1.98-.46-2.97-.68l-.3-.06c46.31-74.19,100.15-160.41,154.96-248.13,26.84,27.21,57.81,43.21,84.68,68.86A180.944,180.944,0,0,1,992.866,672.662Z"/></g><g id="Human_2" data-name="Human 2"><path class="cls-3" d="M315.639,739.563,309.4,595.546H263.579l14.292,144.017c1.408,1.112,12.15,4.74,19.432,4.707C304.464,744.238,314.217,740.687,315.639,739.563Z"/><polygon class="cls-4" points="263.579 595.546 263.869 597.882 309.602 600.899 309.395 595.546 263.579 595.546"/><polygon class="cls-3" points="207.61 739.563 247.364 595.546 198.776 595.546 172.333 739.563 207.61 739.563"/><polygon class="cls-4" points="197.293 604.601 246.604 598.222 247.364 595.546 198.776 595.546 197.293 604.601"/><polygon class="cls-5" points="306.389 509.236 312.767 595.546 260.385 595.546 257.495 568.585 249.427 595.546 195.862 595.546 211.899 509.236 306.389 509.236"/><polygon class="cls-6" points="256.584 540.201 240.096 595.546 249.427 595.546 257.495 567.873 256.584 540.201"/><rect class="cls-7" x="256.584" y="533.835" width="1.822" height="34.751"/><path class="cls-6" d="M309.7,510.158s-10.7,17.824-99.953,10.685l2.032-14.639Z"/><path class="cls-3" d="M439.026,344.793l-32.7,80.964a23.463,23.463,0,0,1-26.358,14.223L312.046,426.4l-.555,12.528-.393,8.9-.118,2.7L308.714,497.9s-20.309,14.757-38.4,9.041-30.779,9.521-43.152,5.079-14.919-7.93-14.919-7.93l-2.169-56.923-.1-2.709-.193-5.346-.392-10.973-79.261,15.452a23.482,23.482,0,0,1-26.692-15.422L75.486,346.593l29.338-10.5L135.14,402.76l57.441-17.111a130.251,130.251,0,0,1,22.975-4.642c.925-.1,1.858-.193,2.784-.274q5.686-.5,11.41-.5h69.309q4.688,0,9.359.341,1.577.111,3.154.266a130.212,130.212,0,0,1,25.914,5.191l39.768,12.29,30.252-60.907Z"/><path class="cls-4" d="M310.25,386.222l.677,17.678a20.058,20.058,0,0,0,13.778,18.286l52.331,17.207L312.046,426.4l-.555,12.528S280.372,429.34,310.25,386.222Z"/><path class="cls-4" d="M216.607,386.222l-2.524,16.951a27.372,27.372,0,0,1-18.335,21.908l-40.32,13.581L209.4,428.141l.392,10.973S236.831,424.1,216.607,386.222Z"/><path class="cls-5" d="M307.885,417.109a110.652,110.652,0,0,0,3.606,21.82l-.393,8.9-.118,2.7-100.9-3.354-.1-2.709-.193-5.346a90.409,90.409,0,0,0,5.768-58.107c.925-.1,1.858-.193,2.784-.274q5.686-.5,11.41-.5h69.309q4.688,0,9.359.341,1.577.111,3.154.266A111.19,111.19,0,0,0,307.885,417.109Z"/><path class="cls-8" d="M311.5,504.773a8.712,8.712,0,0,1-7.234,8.67,269.727,269.727,0,0,1-88.612.408A8.694,8.694,0,0,1,208.344,505c.008-.192.015-.392.015-.585q.867-28.62,1.718-57.241l-.1-2.709a83.342,83.342,0,0,0,8.359-63.727q5.686-.5,11.41-.5h69.309q4.688,0,9.359.341a102.213,102.213,0,0,0,2.68,67.258l-.118,2.7Z"/><path class="cls-5" d="M292.412,380.229c-.533,4.049-1.386,14.753-3.387,24.008-2.781,12.861-15.034,21.85-28.6,20.732-.2-.017-.4-.035-.6-.054a26.583,26.583,0,0,1-23.643-20.941,171.189,171.189,0,0,1-2.782-23.745Z"/><path class="cls-3" d="M289.36,380.229c-.478,3.768-1.244,13.732-3.041,22.346a24.247,24.247,0,0,1-25.682,19.3c-.182-.016-.363-.032-.543-.05a24.189,24.189,0,0,1-21.228-19.492,165.12,165.12,0,0,1-2.5-22.1Z"/><path class="cls-3" d="M272.485,331.563,250.133,335.3c-13.13,34.211,2.309,35.921,2.309,35.921l-1.2,5.409a11.616,11.616,0,0,0,10.412,14.086h0a11.612,11.612,0,0,0,12.5-10.649l1.9-23.815,4.156.333h0a6.324,6.324,0,0,0,6.807-5.8h0q.027-.344.024-.688a7.553,7.553,0,0,0-7.637-7.467l-2.2.024Z"/><path class="cls-4" d="M283.439,351.177c.009-.02.868-2.057-.031-3.425-.6-.909-1.867-1.371-3.777-1.375l0-1.177c2.333.007,3.935.649,4.761,1.912,1.243,1.9.169,4.427.122,4.533Z"/><polygon class="cls-9" points="249.531 354.339 254.289 346.727 255.286 347.35 251.128 354.003 255.246 356.801 254.585 357.773 249.531 354.339"/><path class="cls-10" d="M266.58,343.754a.331.331,0,0,0-.21-.419l-6.243-2.128a1.473,1.473,0,0,0-1.743.643l-.169.286a.942.942,0,0,0,.756,1.422l7.273.423A.331.331,0,0,0,266.58,343.754Z"/><path class="cls-10" d="M245.482,342.083a.289.289,0,0,1,.228-.341l5.664-1.141a1.291,1.291,0,0,1,1.441.755l.115.268a.825.825,0,0,1-.818,1.149l-6.365-.457A.289.289,0,0,1,245.482,342.083Z"/><path class="cls-4" d="M251.228,376.7a19.811,19.811,0,0,0,12.583-4.57c-3.634.9-11.369-.91-11.369-.91Z"/><path class="cls-10" d="M258.282,309.949s-3.085-10.4,8.083-7.548c6.143,1.57,11.272,8.283,14.645,14.007a83.342,83.342,0,0,0,8.964,12.544,14.377,14.377,0,0,1,2.6,4.218c3.674,9.334-2.846,23.021-17.261,32.455l.75-9.376,4.161.333h.007A6.254,6.254,0,0,0,286.827,352a7.458,7.458,0,0,0,.222-1.9,7.551,7.551,0,0,0-7.637-7.465,2.734,2.734,0,0,0-2.648,2.179l-.736,3.555a.706.706,0,0,1-.691.562.731.731,0,0,1-.683-.536l-2.74-9c-.014-.048-.03-.1-.048-.142a2.049,2.049,0,0,0-2.646-1.181c-3.805,1.481-12.313,3.807-19.687-1.187a20.756,20.756,0,0,1-5.753-6.007C233.631,315.273,251.66,305.856,258.282,309.949Z"/><ellipse class="cls-11" cx="261.242" cy="347.214" rx="1.524" ry="1.028" transform="translate(-104.456 581.883) rotate(-85.731)"/><ellipse class="cls-11" cx="249.495" cy="346.337" rx="1.524" ry="1.028" transform="translate(-114.455 569.357) rotate(-85.731)"/><path class="cls-12" d="M251.785,360.724l8.423-.428a.459.459,0,0,1,.383.745c-1.545,1.9-5.779,6.113-9.177.384A.464.464,0,0,1,251.785,360.724Z"/><path class="cls-4" d="M255.147,396.686l-.769-4.037a4.913,4.913,0,0,0-4.821-3.99H236.835v-1.481h12.722a6.4,6.4,0,0,1,6.276,5.194l.769,4.037Z"/><path class="cls-4" d="M270.259,396.686l-1.455-.277.77-4.037a6.4,6.4,0,0,1,6.276-5.194h12.722v1.481H275.85a4.912,4.912,0,0,0-4.821,3.99Z"/><path class="cls-13" d="M309.4,510.534a8.667,8.667,0,0,1-5.131,2.909,269.727,269.727,0,0,1-88.612.408A8.694,8.694,0,0,1,208.344,505c.008-.192.015-.392.015-.585C219,507.809,256.4,517.819,309.4,510.534Z"/><rect class="cls-5" x="308.242" y="439.388" width="1.111" height="71.151" transform="translate(-7.942 5.259) rotate(-0.963)"/><rect class="cls-5" x="175.816" y="474.408" width="71.187" height="1.111" transform="translate(-270.82 669.23) rotate(-87.948)"/><path class="cls-3" d="M107.99,343.192l-2.506-4.688a5.649,5.649,0,0,1-.614-3.442c.809-5.867,2.827-24.289-3.262-27.343l-8.18-35.126a4.067,4.067,0,0,0-7.985,1.516l4.605,31.2s-7.616-2.319-9.742,1.658c0,0-6.4-2.949-9.141,2.367-.894-.358-3.847-1.416-6.5-.015a6.919,6.919,0,0,0-2.1,1.821c-.66.9-2.5,4.092,4.63,21.837a72.973,72.973,0,0,0,4.3,9.528c1.866,3.293,2.859,4.257,4.238,7.433.608,1.4,4.355,7.9,4.355,7.9l3.73,9.188"/><path class="cls-4" d="M82.9,331.4a4.063,4.063,0,0,1-.565.25c-1.678.591-3.658.06-5.9-1.579a5.345,5.345,0,0,1-2.507,3.131c-1.576.779-3.556.507-5.885-.807l.717-1.27c1.88,1.061,3.4,1.321,4.517.773,1.653-.812,2.006-3.167,2.01-3.191l.188-1.291,1,.835c2.187,1.828,3.994,2.509,5.372,2.023,1.675-.588,2.367-2.842,2.521-3.437l-1.794-7.286,1.416-.349,1.875,7.615-.031.16C85.806,327.117,85.169,330.186,82.9,331.4Z"/><rect class="cls-4" x="80.208" y="306.945" width="1.458" height="5.769" transform="translate(-71.804 28.377) rotate(-13.848)"/><path class="cls-4" d="M91.934,329.446a4.846,4.846,0,0,1-1.812.561c-1.811.181-3.672-.717-5.531-2.67l1.055-1.006c1.534,1.61,2.991,2.359,4.331,2.225,1.739-.174,3.021-1.825,3.632-2.795l1.233.777A8.212,8.212,0,0,1,91.934,329.446Z"/><rect class="cls-4" x="89.88" y="305.114" width="1.458" height="5.228" transform="translate(-71.02 30.631) rotate(-13.848)"/><path class="cls-4" d="M95.667,331.159c-1.149-.9-1.877-2.559-2.165-4.921a23.333,23.333,0,0,1-.089-4.2c.066-1.192.189-2.245.29-2.979l-5.059,1.084a8.907,8.907,0,0,1-5.614-.08c-4.159-1.551-5.66-6.126-5.722-6.32L77.07,313l24.367-5.983.348,1.416-22.792,5.6a8.8,8.8,0,0,0,4.544,4.666,7.553,7.553,0,0,0,4.755.033l7.213-1.55-.2,1.077a34.081,34.081,0,0,0-.436,3.866,21.917,21.917,0,0,0,.08,3.941c.24,1.967.784,3.3,1.619,3.953Z"/><path class="cls-3" d="M404.559,343.192l2.506-4.688a5.656,5.656,0,0,0,.614-3.442c-.81-5.867-2.827-24.289,3.262-27.343l8.18-35.126a4.067,4.067,0,0,1,7.985,1.516l-4.605,31.2s7.616-2.319,9.742,1.658c0,0,6.4-2.949,9.141,2.367.894-.358,3.847-1.416,6.5-.015a6.919,6.919,0,0,1,2.1,1.821c.66.9,2.5,4.092-4.63,21.837a72.973,72.973,0,0,1-4.295,9.528c-1.866,3.293-2.859,4.257-4.238,7.433-.608,1.4-4.355,7.9-4.355,7.9l-3.731,9.188"/><rect class="cls-4" x="428.671" y="318.62" width="20.393" height="1.458" transform="translate(23.925 669.223) rotate(-76.179)"/><path class="cls-4" d="M429.652,331.4a4.063,4.063,0,0,0,.565.25c1.678.591,3.658.06,5.9-1.579a5.345,5.345,0,0,0,2.507,3.131c1.576.779,3.556.507,5.885-.807l-.717-1.27c-1.88,1.061-3.4,1.321-4.517.773-1.653-.812-2.006-3.167-2.01-3.191l-.188-1.291-1,.835c-2.187,1.828-3.994,2.509-5.372,2.023-1.675-.588-2.367-2.842-2.521-3.437l1.794-7.286-1.416-.349-1.875,7.615.031.16C426.743,327.117,427.38,330.186,429.652,331.4Z"/><rect class="cls-4" x="428.727" y="309.101" width="5.769" height="1.458" transform="translate(27.483 654.741) rotate(-76.152)"/><path class="cls-4" d="M420.614,329.446a4.857,4.857,0,0,0,1.813.561c1.811.181,3.672-.717,5.531-2.67l-1.056-1.006c-1.533,1.61-2.99,2.359-4.33,2.225-1.739-.174-3.021-1.825-3.632-2.795l-1.233.777A8.217,8.217,0,0,0,420.614,329.446Z"/><rect class="cls-4" x="419.326" y="306.999" width="5.228" height="1.458" transform="translate(22.167 643.751) rotate(-76.152)"/><path class="cls-4" d="M416.882,331.159c1.149-.9,1.877-2.559,2.165-4.921a23.426,23.426,0,0,0,.089-4.2c-.067-1.192-.189-2.245-.29-2.979l5.058,1.084a8.91,8.91,0,0,0,5.615-.08c4.159-1.551,5.66-6.126,5.722-6.32l.237-.744-24.366-5.983-.348,1.416,22.792,5.6a8.8,8.8,0,0,1-4.544,4.666,7.553,7.553,0,0,1-4.755.033l-7.213-1.55.2,1.077a34.081,34.081,0,0,1,.436,3.866,21.917,21.917,0,0,1-.08,3.941c-.24,1.967-.785,3.3-1.619,3.953Z"/><path class="cls-5" d="M76.98,352.943c6.023-2.234,24.9-9.7,30.728-12.01a1.921,1.921,0,0,1,2.472,1.026l5.113,11.81a1.925,1.925,0,0,1-1.1,2.571L82.527,367.983a1.925,1.925,0,0,1-2.471-1.141l-4.211-11.43A1.923,1.923,0,0,1,76.98,352.943Z"/><path class="cls-14" d="M76.141,356.214c1.487-.317,34.5-13.19,34.5-13.19l4.029,9.306L79.8,366.155Z"/><rect class="cls-5" x="76.702" y="353.695" width="37.22" height="1.481" transform="translate(-124.071 60.191) rotate(-21.656)"/><rect class="cls-14" x="227.297" y="435.522" width="65.245" height="30.002" rx="3.525"/><path class="cls-13" d="M287.771,465.525l-.4.8a2.959,2.959,0,0,1-2.781,1.634l-53.768-2.435Z"/><path class="cls-5" d="M173.2,737.714h34.308l-2.222,32.326H130.765v-1.912a12.134,12.134,0,0,1,10.025-12.173C152.7,754.1,169.968,754.473,173.2,737.714Z"/><path class="cls-14" d="M130.765,770.04v2.233a2.258,2.258,0,0,0,2.2,2.313h70.13a2.257,2.257,0,0,0,2.2-2.313V770.04Z"/><path class="cls-5" d="M319.083,770.116H273.975l4.084-31.786a32.905,32.905,0,0,0,36.939,0Q317.04,754.222,319.083,770.116Z"/><path class="cls-14" d="M273.975,770.116v2.2c0,1.256.595,2.274,1.329,2.274h42.449c.734,0,1.329-1.018,1.329-2.274v-2.2a124.959,124.959,0,0,0-45.107,0Z"/><rect class="cls-14" x="166.636" y="750.093" width="1.445" height="8.705" transform="translate(-457.075 299.166) rotate(-41.397)"/><rect class="cls-14" x="162.567" y="752.244" width="1.446" height="8.099" transform="translate(-436.671 267.734) rotate(-38.66)"/><path class="cls-14" d="M308.885,750.559l.68-1.3c-.5-.185-12.32-4.433-23.318.01l.735,1.281C297.265,746.394,308.769,750.517,308.885,750.559Z"/><path class="cls-14" d="M308.884,755.169l.681-1.3c-.5-.184-12.32-4.432-23.318.01l.735,1.282C297.265,751,308.769,755.128,308.884,755.169Z"/><line class="cls-15" x1="301.723" y1="513.984" x2="307.644" y2="595.546"/><line class="cls-15" x1="215.652" y1="513.851" x2="200.957" y2="595.74"/><path class="cls-5" d="M266.41,429.666l1.426,1.091,6.678,5.114,1.673,1.283,0,0c.263-.111,17.1-7.609,24.434-57.135H289.5S286.511,414.312,266.41,429.666Z"/><path class="cls-6" d="M266.41,429.666l1.426,1.091,6.678,5.114,1.673,1.283,0,0c14.344-21.169,14.891-57.135,14.891-57.135H289.5S286.511,414.312,266.41,429.666Z"/><path class="cls-14" d="M274.514,435.871l1.673,1.283s17.041-7.221,24.438-57.138H298.43S293.293,423.913,274.514,435.871Z"/><path class="cls-14" d="M266.41,429.666l1.426,1.091c19.5-14,23.246-50.741,23.246-50.741H289.5S286.511,414.312,266.41,429.666Z"/><path class="cls-5" d="M257.363,429.666l-1.426,1.091-6.677,5.114-1.674,1.283,0,0c-.263-.111-17.1-7.609-24.434-57.135h11.125S237.263,414.312,257.363,429.666Z"/><path class="cls-6" d="M257.363,429.666l-1.426,1.091-6.677,5.114-1.674,1.283,0,0c-14.344-21.169-14.892-57.135-14.892-57.135h1.583S237.263,414.312,257.363,429.666Z"/><path class="cls-14" d="M249.26,435.871l-1.674,1.283s-17.04-7.221-24.437-57.138h2.194S230.481,423.913,249.26,435.871Z"/><path class="cls-14" d="M257.363,429.666l-1.426,1.091c-19.5-14-23.246-50.741-23.246-50.741h1.583S237.263,414.312,257.363,429.666Z"/><path class="cls-8" d="M311.819,651.466,269.35,653.7l8.677,84.415s16.937,12.476,37.773,0Z"/><polygon class="cls-8" points="229.808 659.148 188.059 653.915 172.128 739.563 207.211 739.563 229.808 659.148"/><line class="cls-16" x1="312.011" y1="655.634" x2="269.863" y2="658.691"/><line class="cls-16" x1="312.213" y1="660.039" x2="270.31" y2="663.037"/><line class="cls-16" x1="228.935" y1="662.254" x2="187.455" y2="657.163"/><line class="cls-16" x1="227.721" y1="666.575" x2="186.659" y2="661.538"/><path class="cls-17" d="M279.225,445.72a17.088,17.088,0,0,1-22.654,16.146,16.871,16.871,0,0,1-4.308-2.219A17.08,17.08,0,0,1,271.14,431.2a.066.066,0,0,1,.02.014A17.062,17.062,0,0,1,279.225,445.72Z"/><path class="cls-18" d="M278.331,445.124a17.081,17.081,0,0,1-22.752,16.11,16.529,16.529,0,0,1-3.316-1.587A17.08,17.08,0,1,1,271.14,431.2a.066.066,0,0,1,.02.014A17.051,17.051,0,0,1,278.331,445.124Z"/><path class="cls-17" d="M275.042,445.125a13.785,13.785,0,1,1-3.731-9.436A13.787,13.787,0,0,1,275.042,445.125Z"/><path class="cls-19" d="M275.042,445.125a12.805,12.805,0,1,1-3.731-9.436A13.787,13.787,0,0,1,275.042,445.125Z"/><path class="cls-17" d="M266.956,447.122a3.9,3.9,0,0,0-.736-.784,4.461,4.461,0,0,0-1.873-.871,4.833,4.833,0,0,0,.521-.208,4.545,4.545,0,0,0,1.843-1.463,4.447,4.447,0,0,0,.834-2.687v-.34a5.218,5.218,0,0,0-1.456-3.948c-.081-.078-.165-.152-.253-.222l0,0a6.72,6.72,0,0,0-6.622-.551,5.162,5.162,0,0,0-1.988,1.826,7.038,7.038,0,0,0-.948,2.29c-.047.192-.088.39-.121.6h2.929a3.831,3.831,0,0,1,.589-1.437,2.519,2.519,0,0,1,.982-.85,3.05,3.05,0,0,1,1.315-.276,2.991,2.991,0,0,1,1.7.437l0,0a1.861,1.861,0,0,1,.285.226,2.468,2.468,0,0,1,.7,1.883v.636a2.9,2.9,0,0,1-.666,2.038,2.412,2.412,0,0,1-1.866.72h-1.46v2.747h1.46a2.953,2.953,0,0,1,1.695.461l0,.007a2.2,2.2,0,0,1,.424.373,3.476,3.476,0,0,1,.75,2.385v.622a2.854,2.854,0,0,1-.794,2.152,3.071,3.071,0,0,1-2.219.764,4.214,4.214,0,0,1-1.581-.276,2.574,2.574,0,0,1-1.1-.844c-.01-.017-.023-.031-.033-.047a3.2,3.2,0,0,1-.518-1.4h-2.943a6.56,6.56,0,0,0,1.012,2.879,4.911,4.911,0,0,0,.37.487,5.183,5.183,0,0,0,1.746,1.339c.01,0,.017.01.027.013a6.3,6.3,0,0,0,2.721.616h.3a7.019,7.019,0,0,0,3.188-.663,4.578,4.578,0,0,0,2.018-1.94,6.343,6.343,0,0,0,.693-3.071v-.339A5.476,5.476,0,0,0,266.956,447.122Z"/><path class="cls-18" d="M266.361,446.527c-.047-.064-.094-.128-.141-.189a4.021,4.021,0,0,0-1.352-1.079,4.934,4.934,0,0,0-1.117-.387,4.716,4.716,0,0,0,2.361-1.671,4.433,4.433,0,0,0,.838-2.688v-.339a5.448,5.448,0,0,0-1.114-3.575l0,0a4.622,4.622,0,0,0-.343-.37,5.7,5.7,0,0,0-4.117-1.4,5.911,5.911,0,0,0-2.757.622,5.247,5.247,0,0,0-1.991,1.826,7.541,7.541,0,0,0-1.067,2.889h2.93a3.846,3.846,0,0,1,.585-1.439,2.553,2.553,0,0,1,.985-.848,3.007,3.007,0,0,1,1.315-.276,2.773,2.773,0,0,1,1.988.666,1.95,1.95,0,0,1,.306.367l0,0a2.741,2.741,0,0,1,.39,1.51v.639a2.912,2.912,0,0,1-.663,2.038,2.415,2.415,0,0,1-1.87.72h-1.456v2.745h1.456a2.688,2.688,0,0,1,2.122.844,2.159,2.159,0,0,1,.172.215l0,.007a3.661,3.661,0,0,1,.575,2.162v.622a2.843,2.843,0,0,1-.79,2.15,3.066,3.066,0,0,1-2.223.763,4.115,4.115,0,0,1-1.577-.276,2.418,2.418,0,0,1-.535-.292,2.5,2.5,0,0,1-.562-.549,2.74,2.74,0,0,1-.42-.847l-.01-.034c0-.017-.01-.04-.017-.067-.02-.067-.037-.135-.051-.2a.7.7,0,0,1-.016-.074c-.014-.071-.027-.141-.037-.215h-2.943a6.544,6.544,0,0,0,1.012,2.878,5.035,5.035,0,0,0,.965,1.083,5.223,5.223,0,0,0,1.151.744.078.078,0,0,1,.023.013,6.346,6.346,0,0,0,2.724.616h.293a7.039,7.039,0,0,0,3.192-.666,4.6,4.6,0,0,0,2.018-1.938,6.367,6.367,0,0,0,.692-3.07v-.34A5.465,5.465,0,0,0,266.361,446.527Z"/><polygon class="cls-17" points="255.558 440.159 256.154 440.755 256.349 440.159 255.558 440.159"/><polygon class="cls-17" points="260.072 446.286 260.668 446.882 260.668 446.286 260.072 446.286"/><path class="cls-20" d="M258.161,450.488l.6.6h-.465A4.95,4.95,0,0,1,258.161,450.488Z"/></g><g id="Human_1" data-name="Human 1"><path class="cls-21" d="M501.727,389.908l-44.349,72.979L453.83,592.616h34.054l17.74-104.151,39.312-59.8,67.97,163.955a59.672,59.672,0,0,0,32.983,0L595.494,389.908Z"/><path class="cls-22" d="M645.889,592.616l8.083,32.138H613.693q-.486-9.842-.681-20.164-.11-6.069-.106-11.974a59.6,59.6,0,0,0,32.983,0Z"/><path class="cls-6" d="M653.972,624.754v2.5a2.022,2.022,0,0,1-2.022,2.022H615.715a2.022,2.022,0,0,1-2.022-2.022v-2.5a92.4,92.4,0,0,1,40.279,0Z"/><path class="cls-5" d="M621.193,605.332l-.633-1.338c.428-.205,10.617-4.93,20.352-.59l-.6,1.353C631.208,600.7,621.293,605.285,621.193,605.332Z"/><path class="cls-5" d="M621.335,610.129l-.634-1.337c.429-.2,10.617-4.93,20.353-.59l-.6,1.353C631.349,605.5,621.434,610.084,621.335,610.129Z"/><polygon class="cls-5" points="501.727 389.908 463.687 452.506 513.131 484.969 544.936 428.661 563.376 486.869 617.051 470.892 595.494 389.908 501.727 389.908"/><polygon class="cls-6" points="544.936 419.844 503.989 478.966 513.131 484.969 545.318 427.985 544.936 419.844"/><rect class="cls-14" x="490.367" y="434.031" width="2.218" height="58.895" transform="translate(-161.211 637.723) rotate(-58.268)"/><rect class="cls-14" x="560.557" y="472.557" width="56.257" height="2.217" transform="translate(-106.606 177.896) rotate(-15.776)"/><polygon class="cls-6" points="501.727 389.908 595.16 389.909 495.476 400.195 501.727 389.908"/><rect class="cls-23" x="544.271" y="417.706" width="1.33" height="10.955"/><path class="cls-14" d="M604.315,424.291c-5.129-.235-9.508-6.161-13.017-17.612a122.681,122.681,0,0,1-3.707-16.618l2.2-.306c1.234,8.86,6.268,31.938,14.629,32.321Z"/><path class="cls-14" d="M606.576,433.654c-10.043-2.588-17.492-11.014-21.541-24.368a75.494,75.494,0,0,1-3.107-19.37l2.217-.014c0,.358.493,35.809,22.985,41.6Z"/><path class="cls-14" d="M488.67,412.716l-.269-2.2c2.326-.284,9.393-11.185,14.606-21.122l1.964,1.03C502.3,395.512,493.235,412.159,488.67,412.716Z"/><path class="cls-14" d="M480.417,426.518l-.573-2.143c18.211-4.869,27.432-34.491,27.523-34.79l2.121.646C509.1,391.5,499.819,421.33,480.417,426.518Z"/><polygon class="cls-24" points="463.687 452.506 505.624 488.465 509.492 482.58 463.687 452.506"/><polygon class="cls-24" points="617.051 470.892 570.409 490.733 568.231 485.424 617.051 470.892"/><path class="cls-21" d="M536.067,224.216l25.982,3.678c16.181,39.225-1.642,41.648-1.642,41.648l1.542,6.227A13.444,13.444,0,0,1,550.3,292.374h0a13.446,13.446,0,0,1-14.778-11.968l-2.889-27.513-4.8.5h0a7.32,7.32,0,0,1-8.045-6.516h0c-.028-.264-.044-.53-.047-.795a8.745,8.745,0,0,1,8.625-8.864l2.552-.035Z"/><path class="cls-24" d="M523.95,247.236c-.011-.023-1.064-2.357-.063-3.967.666-1.068,2.122-1.64,4.334-1.7l-.038-1.362c-2.7.075-4.537.865-5.456,2.35-1.385,2.24-.069,5.129-.012,5.252Z"/><polygon class="cls-24" points="564.146 249.837 558.419 241.162 557.283 241.911 562.287 249.493 557.6 252.851 558.393 253.957 564.146 249.837"/><path class="cls-11" d="M544.144,239.127a.385.385,0,0,1,.124-.529l6.451-4.088a1.705,1.705,0,0,1,2.135.25l.269.276a1.105,1.105,0,0,1,.263.446,1.091,1.091,0,0,1-.728,1.36l-8.073,2.449A.386.386,0,0,1,544.144,239.127Z"/><path class="cls-11" d="M568.328,236a.336.336,0,0,0-.217-.423l-6.366-2.06a1.5,1.5,0,0,0-1.757.678l-.167.293a.952.952,0,0,0,.789,1.43l7.382.315A.336.336,0,0,0,568.328,236Z"/><path class="cls-24" d="M561.97,275.85a22.936,22.936,0,0,1-14.7-4.928c4.232.933,13.134-1.38,13.134-1.38Z"/><ellipse class="cls-11" cx="551.906" cy="241.774" rx="1.19" ry="1.764" transform="translate(-21.254 55.917) rotate(-5.691)"/><ellipse class="cls-11" cx="563.773" cy="240.591" rx="1.19" ry="1.764" transform="translate(-21.078 57.088) rotate(-5.691)"/><path class="cls-14" d="M561.817,257.633l-9.765-.217a.531.531,0,0,0-.417.875c1.85,2.144,6.891,6.884,10.634.14A.537.537,0,0,0,561.817,257.633Z"/><path class="cls-11" d="M533.551,261.618l.147,1.39c-2.012-1.514-3.77-5.406-5.178-9.677l4.093-.434Z"/><path class="cls-11" d="M563.119,230.558c-1.93-.678-12.29,1.468-16.707,2.433a5.1,5.1,0,0,0-3.133,2.126l-8.938,13.214a.605.605,0,0,1-1.167-.085l-1.761-9.3a2.376,2.376,0,0,0-2.323-1.732l-.727.011a8.714,8.714,0,0,0-3.572.813,14.715,14.715,0,0,1,.063-7.66c1.364-4.658,4.879-7.134,9.154-10.052,3.749-2.56,9.738-6.649,17.968-6.53,3.421.049,7.276.1,9.937,2.9C564.89,219.829,565.265,225.224,563.119,230.558Z"/><path class="cls-8" d="M683.812,238.013l-2.629-6.319v0l-31.338-75.367a10.3,10.3,0,0,0-13.18-5.663l-14.086,5.379a10.3,10.3,0,0,0-5.818,13.6l29.244,69.739L595.2,281.852A4.911,4.911,0,0,1,592.049,283H507.4a29.776,29.776,0,0,0-23.434,11.4l-28.921,36.872-51.329-46.721a7.491,7.491,0,0,0-10.418.323l-12.906,13.3a7.491,7.491,0,0,0,.138,10.572l60.142,58.816,6.32,6.183a12.99,12.99,0,0,0,19.19-1.127l4.514-5.6,31.085-38.53v61.423H595.54V332.065l76.5-66.2,6.541-5.659A19.456,19.456,0,0,0,683.812,238.013Zm-105.9,148.86-.147-.006.147.006Z"/><path class="cls-8" d="M678.579,260.2l-6.541,5.659-76.5,66.2v55.56l-17.775-.758-58.59-2.492-17.4-.741V328.486l-31.085,38.53-4.514,5.6a12.99,12.99,0,0,1-19.19,1.127l-6.32-6.183-60.142-58.816a7.491,7.491,0,0,1-.138-10.572l12.906-13.3a7.491,7.491,0,0,1,10.418-.323l51.329,46.721,28.921-36.872A29.776,29.776,0,0,1,507.4,283h84.653a4.911,4.911,0,0,0,3.149-1.145l50.807-42.477-29.244-69.739a10.3,10.3,0,0,1,5.818-13.6l14.086-5.379a10.3,10.3,0,0,1,13.18,5.663l31.338,75.367v0l2.629,6.319A19.456,19.456,0,0,1,678.579,260.2Z"/><path class="cls-6" d="M519.636,389.909H501.777v-6.275l17.4.741Q519.434,387.095,519.636,389.909Z"/><path class="cls-13" d="M579.042,358.453c-.084,1-.164,2.018-.24,3.042H520.913q-.206-2.814-.461-5.535Z"/><path class="cls-21" d="M616.1,155.648l-.585-3.993a4.289,4.289,0,0,0-1.177-2.379c-3.14-3.216-12.686-13.558-10.345-18.171l-.462-2.89c-.7-1.629.571-3.978,2.263-4.585,1.461-.524,3.619-.528,4.349.842l-.176-.053s3.605-4.853,6.7-3.383c0,0,2.58-4.69,6.651-2.679a6.1,6.1,0,0,1,3.965-2.944,5.271,5.271,0,0,1,2.1.167c.811.255,3.374,1.371,7.025,15.425a55.356,55.356,0,0,1,1.676,7.757c.346,2.853.175,3.89.765,6.451.261,1.13.9,6.791.9,6.791l1.868,7.294Z"/><path class="cls-24" d="M638.089,142.042l-23.756,7.234a7.178,7.178,0,0,1,.929,1.442Z"/><path class="cls-24" d="M619.7,140.009a3.676,3.676,0,0,0,1.361-.475c1.187-.706,1.918-2.094,2.173-4.126l-1.1-.138c-.21,1.675-.762,2.79-1.641,3.313a4.2,4.2,0,0,1-3.478-.069l-.4,1.031A6.231,6.231,0,0,0,619.7,140.009Z"/><path class="cls-24" d="M618.192,142.74a5.423,5.423,0,0,0-.9-3.983,17.728,17.728,0,0,0-1.842-2.606c-.579-.7-1.128-1.287-1.521-1.689l3.578-1.62a6.771,6.771,0,0,0,3.393-2.582c1.84-2.824.693-6.295.643-6.442l-.191-.561-17.58,7.34.426,1.021,16.445-6.864a6.681,6.681,0,0,1-.669,4.9,5.74,5.74,0,0,1-2.889,2.165l-5.105,2.308.608.567a25.86,25.86,0,0,1,2.01,2.165,16.6,16.6,0,0,1,1.73,2.443,4.438,4.438,0,0,1,.795,3.144Z"/><path class="cls-24" d="M625.692,136.867a3.1,3.1,0,0,0,.443-.1c1.249-.383,2.187-1.561,2.795-3.506a3.926,3.926,0,0,0,2.848.755c1.271-.228,2.322-1.252,3.124-3.045l-.978-.437c-.647,1.447-1.431,2.264-2.331,2.428a3.4,3.4,0,0,1-2.58-1.008l-.674-.681-.227.931c-.494,2.034-1.265,3.225-2.291,3.539-1.246.383-2.638-.646-2.99-.93l-2.119-5.088-.989.412,2.216,5.318.088.08A5.131,5.131,0,0,0,625.692,136.867Z"/><rect class="cls-24" x="625.548" y="118.124" width="1.109" height="14.617" transform="translate(-3.458 232.161) rotate(-20.95)"/><rect class="cls-24" x="610.27" y="124.328" width="1.071" height="3.84" transform="translate(-1.597 244.508) rotate(-22.608)"/><path class="cls-21" d="M394,281.109l-3.3-2.329a4.288,4.288,0,0,1-1.588-2.125c-1.448-4.256-6.351-17.448-11.524-17.448l-2.368-1.72c-1.134-1.364-3.806-1.291-5.112-.057-1.129,1.066-2.109,2.989-1.218,4.259l.033-.181s-5.959,1.019-6.048,4.442c0,0-5.349.178-5.4,4.719a6.092,6.092,0,0,0-4.419,2.2,5.243,5.243,0,0,0-.8,1.949c-.14.838-.3,3.629,10.576,13.244A55.539,55.539,0,0,0,369,293.071c2.388,1.6,3.39,1.915,5.407,3.6.889.744,5.646,3.88,5.646,3.88l5.66,4.966Z"/><polygon class="cls-24" points="389.034 276.821 370.58 294.081 371.94 295.024 389.034 276.821"/><path class="cls-24" d="M378.425,277.246a3.685,3.685,0,0,1-1.039,1c-1.167.739-2.736.763-4.663.071l.374-1.042c1.589.57,2.833.582,3.7.035a4.2,4.2,0,0,0,1.513-3.133l1.1.107A6.261,6.261,0,0,1,378.425,277.246Z"/><path class="cls-24" d="M381.541,277.138a5.42,5.42,0,0,1-3.144-2.6,17.766,17.766,0,0,1-1.491-2.822c-.361-.832-.637-1.588-.818-2.121l-3.064,2.458a6.763,6.763,0,0,1-3.838,1.857c-3.35.364-5.927-2.23-6.035-2.341l-.414-.424,14.5-12.357.718.843-13.563,11.559a6.686,6.686,0,0,0,4.673,1.62,5.736,5.736,0,0,0,3.238-1.6l4.368-3.508.231.8a25.888,25.888,0,0,0,1.02,2.772,16.733,16.733,0,0,0,1.4,2.648,4.436,4.436,0,0,0,2.445,2.131Z"/><path class="cls-24" d="M372.91,281.169a2.93,2.93,0,0,1-.289.35c-.907.94-2.382,1.244-4.391.906a3.931,3.931,0,0,1-.615,2.881c-.779,1.03-2.168,1.5-4.13,1.408l.053-1.07c1.583.078,2.666-.252,3.22-.98a3.4,3.4,0,0,0,.269-2.757l-.3-.909.932.218c2.038.48,3.448.332,4.193-.44.906-.938.618-2.646.523-3.088L368.8,273.5l.814-.7,3.739,4.383.032.115A5.125,5.125,0,0,1,372.91,281.169Z"/><rect class="cls-24" x="361.974" y="269.052" width="1.109" height="14.617" transform="translate(-91.708 314.716) rotate(-42.145)"/><rect class="cls-24" x="369.642" y="261.168" width="1.071" height="3.84" transform="matrix(0.761, -0.649, 0.649, 0.761, -82.178, 303.349)"/><path class="cls-22" d="M678.579,260.2l-6.541,5.659-76.5,66.2v55.56l-17.775-.758-58.59-2.492-17.4-.741V328.486l-31.085,38.53-4.514,5.6a12.99,12.99,0,0,1-19.19,1.127l-6.32-6.183-60.142-58.816a7.491,7.491,0,0,1-.138-10.572l12.906-13.3a7.491,7.491,0,0,1,10.418-.323l51.329,46.721,28.921-36.872A29.776,29.776,0,0,1,507.4,283h84.653a4.911,4.911,0,0,0,3.149-1.145l50.807-42.477-29.244-69.739a10.3,10.3,0,0,1,5.818-13.6l14.086-5.379a10.3,10.3,0,0,1,13.18,5.663l31.338,75.367v0l2.629,6.319A19.456,19.456,0,0,1,678.579,260.2Z"/><polygon class="cls-25" points="501.777 318.918 477.379 358.728 501.777 328.486 501.777 318.918"/><path class="cls-5" d="M519.175,384.375l-17.4-.741v-48.62C509.715,335.076,516.492,355.548,519.175,384.375Z"/><path class="cls-5" d="M589.069,339.577l-4.861,47.565-6.443-.275C579.6,364.914,583.778,347.458,589.069,339.577Z"/><path class="cls-5" d="M482.163,319.193l-10.41-9.548,7.532-9.6,10.834,10.312Z"/><path class="cls-5" d="M611.547,285.271l-7.681-10.919,8.3-6.938,8.244,10.767Z"/><path class="cls-5" d="M534.506,269.944h28.146a3.461,3.461,0,0,1,3.461,3.461V283a0,0,0,0,1,0,0H531.045a0,0,0,0,1,0,0V273.4A3.461,3.461,0,0,1,534.506,269.944Z"/><path class="cls-5" d="M470.692,367.016l-4.514,5.6a12.99,12.99,0,0,1-19.19,1.127l-6.32-6.183a18.025,18.025,0,0,1,30.024-.541Z"/><path class="cls-5" d="M678.579,260.2l-6.541,5.659a18.022,18.022,0,0,1,7.92-34.211q.62,0,1.225.04v0l2.629,6.319A19.456,19.456,0,0,1,678.579,260.2Z"/><path class="cls-25" d="M577.765,386.867c-.085,1-.165,2.018-.24,3.042H519.636q-.205-2.814-.461-5.534Z"/><rect class="cls-5" x="547.47" y="282.997" width="2.217" height="106.911"/><rect class="cls-26" x="501.111" y="314.831" width="1.33" height="13.654"/><rect class="cls-26" x="450.02" y="333.194" width="6.361" height="1.331" transform="translate(-81.412 510.049) rotate(-54.618)"/><rect class="cls-26" x="646.662" y="239.069" width="1.33" height="6.028" transform="translate(-40.576 308.611) rotate(-26.028)"/><rect class="cls-6" x="533.619" y="269.944" width="1.774" height="13.053"/><rect class="cls-6" x="538.404" y="269.944" width="1.774" height="13.053"/><rect class="cls-6" x="543.188" y="269.944" width="1.774" height="13.053"/><rect class="cls-6" x="547.973" y="269.944" width="1.774" height="13.053"/><rect class="cls-6" x="552.758" y="269.944" width="1.774" height="13.053"/><rect class="cls-6" x="557.543" y="269.944" width="1.774" height="13.053"/><rect class="cls-6" x="562.327" y="269.944" width="1.774" height="13.053"/><path class="cls-5" d="M617.7,145.575h22.832a2.807,2.807,0,0,1,2.807,2.807v7.781a0,0,0,0,1,0,0H614.9a0,0,0,0,1,0,0v-7.781A2.807,2.807,0,0,1,617.7,145.575Z" transform="translate(-14.08 220.489) rotate(-19.663)"/><rect class="cls-6" x="617.65" y="149.416" width="1.439" height="10.588" transform="translate(-16 217.096) rotate(-19.663)"/><rect class="cls-6" x="621.305" y="148.11" width="1.439" height="10.588" transform="translate(-15.347 218.25) rotate(-19.663)"/><rect class="cls-6" x="624.96" y="146.804" width="1.439" height="10.588" transform="translate(-14.694 219.403) rotate(-19.663)"/><rect class="cls-6" x="628.615" y="145.498" width="1.439" height="10.588" transform="translate(-14.042 220.557) rotate(-19.663)"/><rect class="cls-6" x="632.27" y="144.192" width="1.439" height="10.588" transform="translate(-13.389 221.711) rotate(-19.663)"/><rect class="cls-6" x="635.925" y="142.886" width="1.439" height="10.588" transform="translate(-12.737 222.865) rotate(-19.663)"/><rect class="cls-6" x="639.58" y="141.58" width="1.439" height="10.588" transform="translate(-12.084 224.018) rotate(-19.663)"/><path class="cls-5" d="M372.739,284.285h22.832a2.807,2.807,0,0,1,2.807,2.807v7.781a0,0,0,0,1,0,0H369.932a0,0,0,0,1,0,0v-7.781A2.807,2.807,0,0,1,372.739,284.285Z" transform="translate(-90.654 366.961) rotate(-46.266)"/><rect class="cls-6" x="375.543" y="292.534" width="1.439" height="10.588" transform="translate(-99.05 363.805) rotate(-46.266)"/><rect class="cls-6" x="378.227" y="289.729" width="1.439" height="10.588" transform="translate(-96.195 364.878) rotate(-46.266)"/><rect class="cls-6" x="380.91" y="286.925" width="1.439" height="10.588" transform="translate(-93.341 365.951) rotate(-46.266)"/><rect class="cls-6" x="383.593" y="284.121" width="1.439" height="10.588" transform="translate(-90.486 367.024) rotate(-46.266)"/><rect class="cls-6" x="386.276" y="281.316" width="1.439" height="10.588" transform="translate(-87.631 368.097) rotate(-46.266)"/><rect class="cls-6" x="388.96" y="278.512" width="1.439" height="10.588" transform="translate(-84.777 369.17) rotate(-46.266)"/><rect class="cls-6" x="391.643" y="275.707" width="1.439" height="10.588" transform="translate(-81.922 370.243) rotate(-46.266)"/><path class="cls-6" d="M595.537,335.016c-2.275-.06-4.454,1.554-6.468,4.561l-4.22,41.3a6.687,6.687,0,0,1-6.937,6l-.147-.006c-.085,1-.165,2.018-.24,3.042H595.54V335.018Z"/><path class="cls-25" d="M672.038,265.86l-76.5,66.2v2.953c-.04,0-.085,0-.124,0-2.231,0-4.369,1.61-6.347,4.563l.405-3.953a16.607,16.607,0,0,1,6.429-11.5Z"/><path class="cls-5" d="M544.389,322.334l-1.13.864-5.29,4.053-1.326,1.016,0,0c-.209-.087-13.545-6.028-19.359-45.267H526.1S528.463,310.169,544.389,322.334Z"/><path class="cls-6" d="M544.389,322.334l-1.13.864-5.29,4.053-1.326,1.016,0,0c-11.365-16.772-11.8-45.267-11.8-45.267H526.1S528.463,310.169,544.389,322.334Z"/><path class="cls-8" d="M537.969,327.251l-1.326,1.016s-13.5-5.721-19.362-45.27h1.739S523.09,317.776,537.969,327.251Z"/><path class="cls-8" d="M544.389,322.334l-1.13.864C527.811,312.1,524.842,283,524.842,283H526.1S528.463,310.169,544.389,322.334Z"/><path class="cls-5" d="M551.557,322.334l1.13.864,5.29,4.053,1.326,1.016,0,0c.209-.087,13.545-6.028,19.359-45.267h-8.814S567.483,310.169,551.557,322.334Z"/><path class="cls-6" d="M551.557,322.334l1.13.864,5.29,4.053,1.326,1.016,0,0C570.671,311.492,571.1,283,571.1,283h-1.253S567.483,310.169,551.557,322.334Z"/><path class="cls-8" d="M557.977,327.251l1.326,1.016s13.5-5.721,19.362-45.27h-1.739S572.856,317.776,557.977,327.251Z"/><path class="cls-8" d="M551.557,322.334l1.13.864C568.135,312.1,571.1,283,571.1,283h-1.253S567.483,310.169,551.557,322.334Z"/><circle class="cls-27" cx="547.905" cy="334.955" r="13.099"/><circle class="cls-28" cx="547.219" cy="334.497" r="13.099"/><path class="cls-27" d="M557.794,334.5a10.574,10.574,0,1,1-2.862-7.237A10.575,10.575,0,0,1,557.794,334.5Z"/><path class="cls-29" d="M557.794,334.5a9.821,9.821,0,1,1-2.862-7.237A10.575,10.575,0,0,1,557.794,334.5Z"/><path class="cls-27" d="M547.041,327.252l-2.2,1.463v2.236l1.739-1.067.456-.28v13.055H549.2V327.252Z"/><path class="cls-28" d="M546.585,326.8l-2.2,1.463v2.233l.457-.28,1.739-1.063V342.2h2.161V326.8Z"/><polygon class="cls-27" points="548.745 326.793 549.203 327.25 548.745 327.25 548.745 326.793"/><polygon class="cls-27" points="544.847 330.211 544.39 330.492 544.847 330.949 544.847 330.211"/><polygon class="cls-27" points="546.584 342.202 547.041 342.659 547.041 342.202 546.584 342.202"/><path class="cls-22" d="M454.02,592.616h33.805l-2.189,32.04H412.205v-1.895a12.009,12.009,0,0,1,9.878-12.066C433.821,608.855,450.834,609.227,454.02,592.616Z"/><path class="cls-6" d="M412.205,624.656v2.213a2.232,2.232,0,0,0,2.164,2.293h69.1a2.232,2.232,0,0,0,2.164-2.293v-2.213Z"/><polygon class="cls-6" points="451.675 611.627 452.72 610.652 447.174 603.986 446.129 604.961 451.675 611.627"/><polygon class="cls-6" points="447.399 613.379 448.488 612.456 443.608 606.005 442.52 606.927 447.399 613.379"/><path class="cls-6" d="M455.924,516.066c0-.035,44.122,5.145,44.122,5.145l-12.221,71.4H454.02Z"/><path class="cls-6" d="M586.533,529l40.758-11.193,18.6,74.81a62.186,62.186,0,0,1-32.983,0Z"/><rect class="cls-14" x="476.693" y="500.861" width="1.774" height="43.821" transform="translate(-97.681 935.624) rotate(-83.253)"/><rect class="cls-14" x="587.176" y="525.938" width="41.728" height="1.774" transform="translate(-117.661 179.528) rotate(-15.332)"/></g><g id="Leaderboard"><rect class="cls-30" x="667.723" y="711.25" width="319.105" height="18.888"/><rect class="cls-30" x="78.685" y="774.731" width="319.105" height="18.888"/><path class="cls-30" d="M680.3,648.162v172.16c-.12,0-.25,0-.37.01a224.683,224.683,0,0,0-49.72,6.65c-3.09.76-6.17,1.6-9.24,2.5-2.68.78-5.35,1.62-8.01,2.5a242.148,242.148,0,0,0-62.7,31.65q-1.755,1.23-3.5,2.5c-1.14.82-2.26,1.66-3.39,2.5a252.415,252.415,0,0,0-29.82,26.45c-7.27,7.55-14.26,15.68-21.87,22.74-.91.85-1.84,1.69-2.77,2.5-.98.86-1.97,1.69-2.98,2.5a74.633,74.633,0,0,1-10.05,6.94c-10.43,5.93-22,8.53-33.41,11.07-18.85,4.19-37.82,8.39-56.86,12.07V648.162Z"/><path class="cls-30" d="M385.586,792.742V952.9c-27.4,5.29-54.93,9.5-82.43,11.06-1.79.1-3.59.19-5.38.27-24.63,1.09-49.24-.03-73.69-4.47a240.158,240.158,0,0,1-90.88-36.94c-1.22-.82-2.42-1.65-3.62-2.5-1.17-.82-2.33-1.65-3.48-2.5-1.02-.74-2.03-1.49-3.03-2.26q-2-1.5-3.96-3.08a213.608,213.608,0,0,1-28.21-26.87v-92.87Z"/><path class="cls-30" d="M974.616,729.652v116.64c-10.92,4.38-22.57,7.09-33.91,9.16a371.873,371.873,0,0,1-42.24,5.44c-2.18.14-4.37.27-6.55.36a231.055,231.055,0,0,1-52.96-3.39c-28.62-5.38-56.02-17.1-84.01-25.88-2.76-.87-5.52-1.71-8.29-2.5-3.04-.89-6.1-1.72-9.16-2.5q-3.555-.9-7.14-1.7a213.364,213.364,0,0,0-50.06-4.96c-.12,0-.25,0-.37.01v-90.68Z"/><path class="cls-31" d="M876.746,861.5a225.1,225.1,0,0,1-29.56-2.28c.57-.08,1.15-.17,1.74-.26a75.349,75.349,0,0,1,7.71-.88C863.816,857.792,870.566,859.522,876.746,861.5Z"/><rect class="cls-30" x="373.398" y="629.273" width="319.105" height="18.888"/><polygon class="cls-32" points="680.285 648.161 385.615 659.216 385.615 648.161 680.285 648.161"/><polygon class="cls-32" points="974.61 730.134 974.61 747.318 679.94 730.134 974.61 730.134"/><polygon class="cls-32" points="90.902 793.615 90.902 807.071 385.572 793.615 90.902 793.615"/><path class="cls-32" d="M680.3,820.322a1.927,1.927,0,0,0-.24.01l-.12-77.93.36,6.48,3.89,71.4C682.9,820.282,681.586,820.3,680.3,820.322Z"/><path class="cls-32" d="M385.569,815.377l-.676,91.5-.024,2.316-.012.863-.012,1.453-.3,41.489c-3.765-.681-7.519-1.39-11.236-2.126l3.561-39.363L377,910.06l.085-.863.205-2.316Z"/><g id="Logo_Olympic" data-name="Logo Olympic"><path class="cls-33" d="M475.326,737.3a22.984,22.984,0,0,1-3.79,1.01c-.06.73-.09,1.48-.09,2.22,0,.5.02,1,.04,1.5a27.3,27.3,0,0,0,3.63-.82c-.01-.22-.01-.45-.01-.68A23.06,23.06,0,0,1,475.326,737.3Z"/><path class="cls-34" d="M494.933,714.638c0,.746-.029,1.488-.088,2.218a27.786,27.786,0,0,1-19.731,24.358c-.008-.226-.011-.453-.011-.68a23.649,23.649,0,0,1,.219-3.233,24.124,24.124,0,0,0,15.738-19.429,23.653,23.653,0,0,0,.219-3.234c0-.226,0-.449-.011-.676a24.062,24.062,0,1,0-19.732,24.354c-.058.731-.087,1.473-.087,2.218,0,.5.014,1,.04,1.5a27.723,27.723,0,1,1,23.4-28.885C494.918,713.637,494.933,714.138,494.933,714.638Z"/><path d="M559.256,713.132a27.724,27.724,0,0,0-55.37.08c-.03.48-.04.95-.04,1.43,0,.77.04,1.54.1,2.3a23.334,23.334,0,0,1,3.8,1.1,23.872,23.872,0,0,1-.24-3.4v-.55a24.068,24.068,0,0,1,48.12-.16c.01.23.01.47.01.71a24.02,24.02,0,0,1-16.05,22.69,23.875,23.875,0,0,1-3.78,1c-.06.73-.09,1.46-.09,2.2,0,.51.02,1.01.04,1.51a28.923,28.923,0,0,0,3.63-.8,27.812,27.812,0,0,0,19.82-24.4c.06-.73.09-1.46.09-2.2C559.3,714.132,559.276,713.632,559.256,713.132Z"/><path d="M535.719,740.534c0,.5.015,1.009.04,1.51a27.862,27.862,0,0,1-8.9-.084,27.183,27.183,0,0,1-3.625-.881,27.78,27.78,0,0,1-19.289-24.139,23.838,23.838,0,0,1,3.8,1.1A24.136,24.136,0,0,0,523,737.129a23.427,23.427,0,0,0,3.8,1.1,24.248,24.248,0,0,0,9.007.1C535.748,739.062,535.719,739.793,535.719,740.534Z"/><path class="cls-35" d="M523.236,741.082a24.068,24.068,0,0,1-48.12.13c-.01-.22-.01-.45-.01-.68a23.06,23.06,0,0,1,.22-3.23,24.129,24.129,0,0,1,15.73-19.43,23.06,23.06,0,0,0,.22-3.23c0-.23,0-.45-.01-.68a27.78,27.78,0,0,0-19.73,24.35c-.06.73-.09,1.48-.09,2.22,0,.5.02,1,.04,1.5a27.723,27.723,0,0,0,55.37-.07A26.927,26.927,0,0,1,523.236,741.082Zm-15.73-26.99a26.927,26.927,0,0,0-3.62-.88,28.155,28.155,0,0,0-4.71-.4,27.372,27.372,0,0,0-4.28.33c.02.49.04,1,.04,1.5,0,.74-.03,1.48-.09,2.21a24.64,24.64,0,0,1,4.33-.39,24.191,24.191,0,0,1,4.77.48,23.334,23.334,0,0,1,3.8,1.1A24.129,24.129,0,0,1,523,737.132a23.627,23.627,0,0,0,3.8,1.1A27.785,27.785,0,0,0,507.506,714.092Z"/><path class="cls-36" d="M591.066,738.212a24.554,24.554,0,0,1-3.81-1.12,23.026,23.026,0,0,1,.25,3.44c0,.17,0,.35-.01.52a24.063,24.063,0,0,1-48.11.19c-.01-.24-.01-.47-.01-.71a24.02,24.02,0,0,1,16.05-22.69,23.875,23.875,0,0,1,3.78-1c.06-.73.09-1.46.09-2.2,0-.51-.02-1.01-.04-1.51a25.773,25.773,0,0,0-3.63.8,27.773,27.773,0,0,0-19.82,24.4c-.06.73-.09,1.46-.09,2.2,0,.51.02,1.01.04,1.51a27.723,27.723,0,0,0,55.37-.1c.02-.47.04-.94.04-1.41C591.166,739.752,591.126,738.982,591.066,738.212Z"/><path class="cls-36" d="M591.063,738.214a23.831,23.831,0,0,1-3.8-1.122,24.129,24.129,0,0,0-15.153-19.011,23.728,23.728,0,0,0-3.8-1.122,24.2,24.2,0,0,0-9.1-.121c.058-.727.087-1.458.087-2.2,0-.508-.014-1.008-.04-1.509a27.318,27.318,0,0,1,4.188-.318,27.734,27.734,0,0,1,4.8.417,26.728,26.728,0,0,1,3.625.9A27.78,27.78,0,0,1,591.063,738.214Z"/><path class="cls-37" d="M595.926,686.912a27.767,27.767,0,0,0-27.69,26.32,25.989,25.989,0,0,1,3.63.89,24.088,24.088,0,1,1,19.2,24.09,24.554,24.554,0,0,1-3.81-1.12,24.132,24.132,0,0,1-15.15-19.01,23.391,23.391,0,0,0-3.8-1.12,27.775,27.775,0,0,0,19.19,24.09,25.989,25.989,0,0,0,3.63.89,27.119,27.119,0,0,0,4.8.42,27.725,27.725,0,0,0,0-55.45Z"/></g><g id="Logo_Olympic-2" data-name="Logo Olympic"><path class="cls-33" d="M773.59,826.129a23.559,23.559,0,0,1-3.786,1.015c-.058.731-.087,1.473-.087,2.218,0,.5.014,1,.04,1.5a27.131,27.131,0,0,0,3.625-.815c-.008-.227-.011-.453-.011-.68A23.649,23.649,0,0,1,773.59,826.129Z"/><path class="cls-34" d="M793.2,803.466c0,.746-.029,1.487-.088,2.218a27.787,27.787,0,0,1-19.731,24.358c-.008-.227-.011-.453-.011-.68a23.649,23.649,0,0,1,.219-3.233A24.124,24.124,0,0,0,789.328,806.7a23.675,23.675,0,0,0,.219-3.234c0-.226,0-.449-.011-.676A24.062,24.062,0,1,0,769.8,827.144c-.058.731-.087,1.473-.087,2.218,0,.5.014,1,.04,1.5a27.723,27.723,0,1,1,23.4-28.885C793.186,802.465,793.2,802.966,793.2,803.466Z"/><path d="M857.519,801.957a27.722,27.722,0,0,0-55.366.084v0c-.025.471-.036.946-.036,1.421,0,.775.033,1.542.1,2.3a23.734,23.734,0,0,1,3.8,1.1,23.811,23.811,0,0,1-.241-3.406c0-.182,0-.361.007-.544a24.066,24.066,0,0,1,48.116-.161c.008.234.011.468.011.705a24.049,24.049,0,0,1-16.052,22.695,23.957,23.957,0,0,1-3.778,1c-.059.727-.088,1.458-.088,2.2,0,.5.015,1.009.04,1.509a26.782,26.782,0,0,0,3.625-.8,27.782,27.782,0,0,0,19.82-24.4c.058-.727.087-1.458.087-2.2C857.559,802.958,857.545,802.458,857.519,801.957Z"/><path d="M833.987,829.362c0,.5.015,1.009.04,1.509a27.785,27.785,0,0,1-8.9-.084,27.3,27.3,0,0,1-3.625-.88,27.78,27.78,0,0,1-19.289-24.139,23.734,23.734,0,0,1,3.8,1.1,24.137,24.137,0,0,0,15.256,19.085,23.427,23.427,0,0,0,3.8,1.1,24.248,24.248,0,0,0,9.007.1C834.016,827.89,833.987,828.621,833.987,829.362Z"/><path class="cls-35" d="M797.44,805.293a24.2,24.2,0,0,1,4.772.475,23.734,23.734,0,0,1,3.8,1.1,24.136,24.136,0,0,1,15.256,19.085,23.427,23.427,0,0,0,3.8,1.1,27.787,27.787,0,0,0-19.29-24.138,26.5,26.5,0,0,0-3.625-.877v0a27.747,27.747,0,0,0-8.992-.069c.025.493.04.994.04,1.494,0,.746-.029,1.487-.088,2.218A24.1,24.1,0,0,1,797.44,805.293ZM821.506,829.9a24.033,24.033,0,0,1-9.04,18.25,22.679,22.679,0,0,1-3.18,2.14,3.567,3.567,0,0,1-.46.26c.42.4.84.79,1.28,1.17.54.47,1.08.93,1.64,1.37.73-.44,1.43-.91,2.11-1.41.48-.35.94-.71,1.39-1.1a27.674,27.674,0,0,0,9.88-19.8A25.491,25.491,0,0,1,821.506,829.9Zm-51.7-2.76q-.09,1.095-.09,2.22c0,.5.02,1,.04,1.49a27.571,27.571,0,0,0,1.11,6.4c1.48.51,2.95,1.02,4.43,1.53a23.646,23.646,0,0,1-1.91-8.74c-.01-.23-.02-.45-.02-.68a24.561,24.561,0,0,1,.22-3.23,24.126,24.126,0,0,1,15.74-19.43,23.1,23.1,0,0,0,.22-3.24c0-.22,0-.45-.01-.67A27.78,27.78,0,0,0,769.806,827.142Z"/><path class="cls-36" d="M889.331,827.042a23.831,23.831,0,0,1-3.8-1.122,23.706,23.706,0,0,1,.249,3.442c0,.172,0,.344-.008.515a24.066,24.066,0,0,1-48.116.19c-.007-.233-.011-.467-.011-.705a24.089,24.089,0,0,1,19.831-23.7c.058-.727.087-1.458.087-2.2,0-.508-.014-1.008-.04-1.509a27.106,27.106,0,0,0-3.625.8,27.785,27.785,0,0,0-19.819,24.4c-.059.727-.088,1.458-.088,2.2,0,.5.015,1.009.04,1.509a27.721,27.721,0,0,0,55.366-.1v0c.026-.468.037-.935.037-1.407Q889.43,828.189,889.331,827.042Z"/><path class="cls-36" d="M889.331,827.042a23.831,23.831,0,0,1-3.8-1.122,24.132,24.132,0,0,0-15.153-19.012,23.828,23.828,0,0,0-3.8-1.121,24.2,24.2,0,0,0-9.1-.121c.058-.727.087-1.458.087-2.2,0-.508-.014-1.008-.04-1.509a27.318,27.318,0,0,1,4.188-.318,27.734,27.734,0,0,1,4.8.417,26.58,26.58,0,0,1,3.625.895A27.78,27.78,0,0,1,889.331,827.042Z"/><path class="cls-37" d="M894.2,775.743a27.757,27.757,0,0,0-27.687,26.313,26.58,26.58,0,0,1,3.625.895,24.048,24.048,0,1,1,19.2,24.091,23.831,23.831,0,0,1-3.8-1.122,24.131,24.131,0,0,1-15.153-19.012,23.828,23.828,0,0,0-3.8-1.121,27.769,27.769,0,0,0,19.2,24.09,26,26,0,0,0,3.625.892v0a27.724,27.724,0,1,0,4.8-55.03Z"/></g><g id="Logo_Olympic-3" data-name="Logo Olympic"><path class="cls-33" d="M180.393,882.52a23.458,23.458,0,0,1-3.786,1.016c-.058.731-.088,1.473-.088,2.218,0,.5.015,1,.041,1.5a27.082,27.082,0,0,0,3.624-.815c-.007-.227-.011-.453-.011-.68A23.675,23.675,0,0,1,180.393,882.52Z"/><path class="cls-34" d="M200,859.858c0,.745-.029,1.487-.088,2.218a27.787,27.787,0,0,1-19.732,24.358c-.007-.227-.011-.453-.011-.68a23.675,23.675,0,0,1,.22-3.234,24.122,24.122,0,0,0,15.738-19.428,23.675,23.675,0,0,0,.219-3.234c0-.227,0-.449-.011-.676a24.062,24.062,0,1,0-19.732,24.354c-.058.731-.088,1.473-.088,2.218,0,.5.015,1,.041,1.5a27.723,27.723,0,1,1,23.4-28.885C199.989,858.857,200,859.357,200,859.858Z"/><path d="M264.322,858.349a27.722,27.722,0,0,0-55.366.084v0c-.025.471-.036.946-.036,1.421,0,.775.033,1.542.095,2.3a23.734,23.734,0,0,1,3.8,1.1,23.811,23.811,0,0,1-.241-3.406c0-.183,0-.362.007-.544a24.066,24.066,0,0,1,48.116-.161c.007.234.011.467.011.7a24.049,24.049,0,0,1-16.052,22.7,23.954,23.954,0,0,1-3.778,1c-.059.727-.088,1.458-.088,2.2,0,.5.015,1.009.04,1.509a26.969,26.969,0,0,0,3.625-.8,27.78,27.78,0,0,0,19.819-24.4c.059-.727.088-1.458.088-2.2C264.362,859.35,264.348,858.85,264.322,858.349Z"/><path d="M240.79,885.754c0,.5.015,1.009.04,1.509a27.785,27.785,0,0,1-8.9-.084,27.3,27.3,0,0,1-3.625-.88,27.781,27.781,0,0,1-19.289-24.139,23.734,23.734,0,0,1,3.8,1.1,24.137,24.137,0,0,0,15.255,19.084,23.341,23.341,0,0,0,3.8,1.1,24.218,24.218,0,0,0,9.007.1C240.819,884.281,240.79,885.012,240.79,885.754Z"/><path class="cls-35" d="M228.3,886.3a24.068,24.068,0,0,1-48.12.135c-.007-.227-.011-.453-.011-.68a23.675,23.675,0,0,1,.22-3.234,24.124,24.124,0,0,1,15.738-19.428,23.675,23.675,0,0,0,.219-3.234c0-.227,0-.449-.011-.676a27.787,27.787,0,0,0-19.732,24.354c-.058.731-.088,1.473-.088,2.218,0,.5.015,1,.041,1.5a27.723,27.723,0,0,0,55.369-.07A27.3,27.3,0,0,1,228.3,886.3Zm-24.061-24.614a24.127,24.127,0,0,1,4.772.475,23.734,23.734,0,0,1,3.8,1.1,24.137,24.137,0,0,1,15.255,19.084,23.341,23.341,0,0,0,3.8,1.1,27.788,27.788,0,0,0-19.29-24.138,26.534,26.534,0,0,0-3.625-.877v0a27.824,27.824,0,0,0-4.713-.4,27.453,27.453,0,0,0-4.279.333c.025.493.04.993.04,1.494,0,.745-.029,1.487-.088,2.218A24.1,24.1,0,0,1,204.243,861.685Z"/><path class="cls-36" d="M296.134,883.434a23.935,23.935,0,0,1-3.8-1.122,23.837,23.837,0,0,1,.249,3.442c0,.172,0,.344-.008.515a24.066,24.066,0,0,1-48.116.19c-.007-.234-.011-.467-.011-.7a24.091,24.091,0,0,1,19.83-23.7c.059-.727.088-1.458.088-2.2,0-.508-.014-1.008-.04-1.509a27.106,27.106,0,0,0-3.625.8,27.784,27.784,0,0,0-19.819,24.4c-.059.727-.088,1.458-.088,2.2,0,.5.015,1.009.04,1.509a27.721,27.721,0,0,0,55.366-.1v0c.026-.468.037-.936.037-1.407C296.233,884.972,296.2,884.2,296.134,883.434Z"/><path class="cls-36" d="M296.134,883.434a23.935,23.935,0,0,1-3.8-1.122,24.083,24.083,0,0,0-28.056-20.254c.059-.727.088-1.458.088-2.2,0-.508-.014-1.008-.04-1.509a27.315,27.315,0,0,1,4.187-.318,27.745,27.745,0,0,1,4.8.417,26.58,26.58,0,0,1,3.625.895A27.779,27.779,0,0,1,296.134,883.434Z"/><path class="cls-37" d="M301,832.135a27.757,27.757,0,0,0-27.686,26.313,26.58,26.58,0,0,1,3.625.895,24.061,24.061,0,1,1,.241,3.957,23.935,23.935,0,0,0-3.8-1.122,27.77,27.77,0,0,0,19.2,24.091,26.138,26.138,0,0,0,3.625.892v0a27.724,27.724,0,1,0,4.8-55.03Z"/></g></g><g id="Human_2-2" data-name="Human 2"><path class="cls-3" d="M804.586,474.341l22.634,5.538c10.844,36.084-5.118,36.656-5.118,36.656l.814,5.639a11.936,11.936,0,0,1-11.754,13.646h0a11.939,11.939,0,0,1-12-11.876l-.131-24.566-4.287.023h0a6.5,6.5,0,0,1-6.535-6.466h0c0-.236.008-.472.028-.707a7.766,7.766,0,0,1,8.4-7.072l2.258.194Z"/><path class="cls-4" d="M791.852,493.615c-.008-.021-.733-2.176.294-3.51.682-.886,2.019-1.263,3.979-1.121l.087-1.206c-2.393-.172-4.086.364-5.029,1.595-1.42,1.858-.512,4.526-.472,4.64Z"/><polygon class="cls-9" points="827.949 500.041 823.653 491.872 822.583 492.434 826.337 499.574 821.9 502.128 822.503 503.176 827.949 500.041"/><path class="cls-4" d="M822.927,522.247a20.364,20.364,0,0,1-12.552-5.649c3.657,1.2,11.727-.063,11.727-.063Z"/><ellipse class="cls-11" cx="817.453" cy="491.25" rx="1.057" ry="1.567"/><ellipse class="cls-11" cx="827.625" cy="491.25" rx="1.057" ry="1.567"/><path class="cls-11" d="M799.024,499.38l-4.282.024a54.086,54.086,0,0,0,4.33,9.279Z"/><path class="cls-11" d="M796.212,465.484s-13.244-18.936-24.232-3.762,10.988,36.913,4.448,45.272-14.613,9.541-14.613,9.541a18.716,18.716,0,0,0,19.584-4.582,7.738,7.738,0,0,1-3.925,5.494,12.593,12.593,0,0,0,4.84-.785,14.13,14.13,0,0,0,4.055-2.486c2.771-2.546,2.008-12.3-3.354-23.822a18.873,18.873,0,0,1-1.413-3.99c-1.051-4.916.16-9.227,2.936-11.038a6.721,6.721,0,0,1,4.11-.985Z"/><path class="cls-14" d="M798.65,465.074c-2.244-.884-5.5,2.941-6.688,4.33-.929,1.09-4.89,5.736-3.443,7.956.577.883,1.837,1.255,2.1,1.07,2.7-1.874,7.508-5.871,9.475-11.618C800.189,466.541,799.611,465.453,798.65,465.074Z"/><path class="cls-11" d="M791.544,486.511a7.716,7.716,0,0,1,5.1-1.359,2.468,2.468,0,0,1,2.254,2.459v4.2a1.478,1.478,0,0,0,2.045,1.366c5.146-2.144,18.473-7.926,21.991-11.7,0,0,3.784,4.5,6.055,4.925,2.329.434,2.044-10.349-2.918-16.344-5.16-6.235-13.959-7.14-19.839-5.937a22.345,22.345,0,0,0-10.962,5.911,15.085,15.085,0,0,0-4.465,6.583A14.431,14.431,0,0,0,791.544,486.511Z"/><path class="cls-11" d="M812,487.294a.34.34,0,0,1,.248-.413l6.564-1.7a1.515,1.515,0,0,1,1.738.791l.151.307a.956.956,0,0,1,.1.448.968.968,0,0,1-.985.952l-7.49-.123A.34.34,0,0,1,812,487.294Z"/><path class="cls-11" d="M832.828,487.3a.3.3,0,0,0-.207-.368l-5.721-1.6a1.328,1.328,0,0,0-1.535.664l-.139.266a.847.847,0,0,0,.751,1.241l6.562.019A.3.3,0,0,0,832.828,487.3Z"/><path class="cls-9" d="M824.874,508.637l.1-1.217c-.06,0-6.068-.538-8.084-3.325l-.99.715C818.247,508.053,824.605,508.614,824.874,508.637Z"/><path class="cls-5" d="M793.6,517.481h32.932a3.571,3.571,0,0,1,3.571,3.571v8.59a0,0,0,0,1,0,0H790.034a0,0,0,0,1,0,0v-8.59A3.571,3.571,0,0,1,793.6,517.481Z"/><rect class="cls-6" x="792.975" y="517.481" width="2.027" height="12.161"/><rect class="cls-6" x="798.443" y="517.481" width="2.027" height="12.161"/><rect class="cls-6" x="803.91" y="517.481" width="2.027" height="12.161"/><rect class="cls-6" x="809.378" y="517.481" width="2.027" height="12.161"/><rect class="cls-6" x="814.846" y="517.481" width="2.027" height="12.161"/><rect class="cls-6" x="820.314" y="517.481" width="2.027" height="12.161"/><rect class="cls-6" x="825.781" y="517.481" width="2.027" height="12.161"/><path class="cls-22" d="M971.613,813.763l-29.328,22.5L965.51,862.6l63.7-48.874-1.262-1.645a13.131,13.131,0,0,0-16.6-3.893C999.945,814.407,985.433,826.054,971.613,813.763Z"/><path class="cls-6" d="M1029.215,813.729l1.473,1.92a2.44,2.44,0,0,1-.352,3.429l-59.95,45.993a2.439,2.439,0,0,1-3.4-.548l-1.473-1.92Z"/><polygon class="cls-6" points="986.301 828.696 984.745 828.545 985.12 819.07 986.676 819.221 986.301 828.696"/><polygon class="cls-6" points="991.176 827.369 989.618 827.294 989.557 818.449 991.115 818.525 991.176 827.369"/><path class="cls-22" d="M871.3,850.274l-36.247-7.246-4.52,34.825,78.735,15.739.406-2.032a13.13,13.13,0,0,0-8-15.055C889.473,872.016,871.151,868.768,871.3,850.274Z"/><path class="cls-6" d="M909.263,893.592l-.474,2.373a2.44,2.44,0,0,1-2.812,1.994l-74.094-14.811a2.439,2.439,0,0,1-1.829-2.922l.474-2.373Z"/><polygon class="cls-6" points="869.735 871.161 868.824 869.892 876.199 863.933 877.11 865.203 869.735 871.161"/><polygon class="cls-6" points="873.944 873.956 872.975 872.734 879.59 866.862 880.559 868.085 873.944 873.956"/><path class="cls-38" d="M967.909,812.763l-18.92,12.8,15.125-15.936a25.689,25.689,0,0,0,3.187,1.7c.554.256,1.121.486,1.688.7Z"/><path class="cls-3" d="M967.3,811.332c.554.256,1.121.486,1.688.7l-1.08.729Z"/><path class="cls-39" d="M897.854,710.642l75.182,96.815a4.454,4.454,0,0,1-.768,6.237L941.71,837.67a4.456,4.456,0,0,1-6.309-.826l-94.993-126.2Z"/><polygon class="cls-40" points="906.176 727.105 901.028 791.135 894.622 782.677 906.176 727.105"/><path class="cls-40" d="M855.955,719.378l-2.053,9.075-12.033-15.881h8.63A5.584,5.584,0,0,1,855.955,719.378Z"/><polygon class="cls-41" points="865.692 839.557 842.693 845.661 844.503 839.557 865.692 839.557"/><path class="cls-42" d="M759.673,635.45a27.737,27.737,0,0,1-7.3,2.462l.362-2.9Z"/><path class="cls-39" d="M759.215,677.358A35.06,35.06,0,0,0,786.953,711.8l-11.795-26.919a16.811,16.811,0,0,1-4.529-10.322l-9.58-21.861-1.73.479Z"/><path class="cls-39" d="M914.2,689.035l-.9,4.231-4.09,19.376-2.088,9.929-7.578,35.865-.011.055v.011l-2.952,13.963-2.111,10-.033.164v.011l-14.28,67.586a3.542,3.542,0,0,1-4.155,2.756c-1.006-.2-2.2-.438-3.532-.722l-40.02-8.933a3.558,3.558,0,0,1-2.7-4.232l.251-1.181.165-.711.032-.164,14.139-64.579,9.589-43.858,2.023-9.218a5.424,5.424,0,0,0,.142-1.247c0-.142-.011-.284-.022-.426a1.787,1.787,0,0,0-.021-.23c0-.076-.022-.153-.022-.229-.022-.055-.022-.11-.044-.175a1.686,1.686,0,0,0-.066-.306c-.01-.044-.022-.088-.033-.143-.011-.011-.011-.032-.021-.043-.033-.11-.066-.219-.11-.328a2.2,2.2,0,0,0-.153-.383.347.347,0,0,0-.054-.109,1.887,1.887,0,0,0-.186-.361,2.614,2.614,0,0,0-.175-.285c0-.021-.022-.043-.033-.054a1.081,1.081,0,0,0-.121-.186c-.065-.088-.131-.175-.2-.252-.108-.142-.229-.273-.349-.4a6.244,6.244,0,0,0-.82-.689h-.012a1.485,1.485,0,0,0-.218-.142c-.076-.044-.153-.1-.241-.142s-.152-.077-.24-.121a1.937,1.937,0,0,0-.251-.12,5.859,5.859,0,0,0-.777-.262,2.148,2.148,0,0,0-.284-.066,1.694,1.694,0,0,0-.23-.044,2.132,2.132,0,0,0-.262-.033.3.3,0,0,0-.1-.01,1.926,1.926,0,0,0-.262-.022.627.627,0,0,0-.143-.011H794.27a35.025,35.025,0,0,1-7.315-.766l-11.8-26.92-4.527-10.323L761.051,652.7l-1.705-3.914.054-13.209v-.569h37.746c0-.054,1.52-.087,4.155-.12.514,0,1.083-.011,1.695-.011.525,0,1.083,0,1.673-.011h.634c1.334-.011,2.624-.011,3.9-.022,1.487,0,2.93,0,4.33-.011h2.711c15.6,0,25.216.175,25.216.175.065,0,1.771,2.132,4.177,5.194.174.219.35.448.535.689,1.619,2.067,3.5,4.472,5.391,6.911.328.4.645.82.962,1.224,4,5.15,7.884,10.158,9.251,11.93l.525.678h.033c.765.109,14.74.1,28.757.076h1.028A22.549,22.549,0,0,1,914.2,689.035Z"/><rect class="cls-43" x="820.089" y="660.959" width="42.251" height="1.35"/><path class="cls-43" d="M770.629,674.559a16.811,16.811,0,0,0,4.529,10.322Z"/><path class="cls-5" d="M770.58,635.011v38.3c0,.424.014.841.049,1.251l4.529,10.322a16.907,16.907,0,0,0,12.4,5.4h78.074a13.9,13.9,0,0,1,10.975,5.328,13.537,13.537,0,0,1,2.605,11.594l-.819,3.432-.48,2-8.676,36.3-5.627,23.528-16.04,67.092-.229.972-.16.653,1.32.313.16-.66v-.007l.306-1.271L865,772.465l5.294-22.125,9.01-37.7.479-2,.743-3.119a14.894,14.894,0,0,0-2.862-12.747,15.245,15.245,0,0,0-12.031-5.843H787.558a15.643,15.643,0,0,1-15.63-15.623v-38.3Z"/><rect class="cls-5" x="923.99" y="749.958" width="1.351" height="82.82" transform="translate(-289.307 704.53) rotate(-36.467)"/><rect class="cls-43" x="870.175" y="751.949" width="61.39" height="1.351" transform="translate(-19.003 1481.901) rotate(-78.284)"/><rect class="cls-5" x="854.513" y="817.338" width="1.351" height="51.381" transform="translate(-158.284 1487.169) rotate(-77.029)"/><rect class="cls-5" x="929.807" y="820.76" width="47.742" height="1.351" transform="translate(-301.293 724.972) rotate(-36.344)"/><path class="cls-42" d="M760.641,634.834c-.2.09-.479.365-.682.469-.1.049-.188.1-.286.147l-6.94-.44Z"/><path class="cls-44" d="M846.176,640.89l-86.5-5.44c.1-.049.189-.1.286-.147q.3-.156.607-.293h80.895Z"/><path class="cls-3" d="M989.1,601.957s18.9-13.581,25.639-12.82-5.44,6.759-5.411,10.3c.025,2.983,16.52-2.109,22.224-6.483a2.565,2.565,0,0,1,3.741.766h0a2.585,2.585,0,0,1-.525,3.283c-2.918,2.531-11.55,7.635-13.665,8.6-2.061.935,8.789-2.833,13.444-4.962a2.91,2.91,0,0,1,3.989,1.793h0a2.92,2.92,0,0,1-1.483,3.479l-16.3,7.114,13.549-2.193a2.854,2.854,0,0,1,3.257,3.113h0a2.853,2.853,0,0,1-2.4,2.529l-16.894,2.457,11.821-.129a3.1,3.1,0,0,1,2.778,3.221h0a3.1,3.1,0,0,1-2.984,2.961l-18.229.663-17.259,2.225"/><path class="cls-4" d="M1003.975,617.426l-1.047-1.129c2.712-2.516,2.17-9.633,1.733-12.162l1.517-.263C1006.248,604.277,1007.849,613.832,1003.975,617.426Z"/><path class="cls-4" d="M1011.44,615.869c2.109-4.8-4.435-10.161-4.5-10.215l.967-1.2c.309.248,7.521,6.168,4.944,12.032Z"/><polygon class="cls-4" points="989.095 601.957 1001.597 626.942 994.357 628.1 989.095 601.957"/><path class="cls-5" d="M994.5,630.535c-4.046,2.843-10.531,3.729-10.531,3.729l-60.227,13.394c-.383.088-.765.186-1.148.263a60.164,60.164,0,0,1-33.46-2.143,32.339,32.339,0,0,1-8.124-4.308c-.438-.318-.864-.646-1.28-.974a32.878,32.878,0,0,1-5.336-5.412l-19.55-25.062-.449-.58-2.712-3.466s.657-22.634,3.948-40.173c1.891-10.082,4.658-18.48,8.66-19.934v.011L877.581,565.8l27.926,41.879,77.2-8.726a7.02,7.02,0,0,1,7.14,3.926c2.788,5.839,5.741,15.822,7.064,20.567A6.505,6.505,0,0,1,994.5,630.535Z"/><path class="cls-6" d="M902.248,648.905c-30.642-23.98-45.592-45.209-45.592-45.209l-1.806,6.328L874.4,635.088a32.833,32.833,0,0,0,14.741,10.691Z"/><path class="cls-5" d="M759.346,648.785l-.022,4.395-.591.154a26.953,26.953,0,0,1-6.725.415,29.005,29.005,0,0,1-23.465-14.794,100.413,100.413,0,0,0,16.019-6.67q1.313.689,2.559,1.476a31.165,31.165,0,0,1,7.271,6.5,30.022,30.022,0,0,1,4.254,6.954Z"/><path class="cls-5" d="M743,631.53a99.742,99.742,0,0,1-15.1,6.167,27.432,27.432,0,0,1-2.635-8.649,33.3,33.3,0,0,1,4.614-.328A31.966,31.966,0,0,1,743,631.53Z"/><polygon class="cls-5" points="759.319 653.177 761.049 652.698 759.34 648.787 759.319 653.177"/><path class="cls-5" d="M865.531,563.506c-.044.471-.1.974-.175,1.466.011.022,0,.032,0,.054-.033.252-.066.514-.1.777-.415,3.313-1.071,7.118-2.045,11.393-.459,2.078-1.016,4.287-1.65,6.605-.11.394-.219.787-.339,1.192-.373,1.345-.777,2.722-1.214,4.144-.121.394-.252.8-.383,1.2-.263.842-.536,1.695-.831,2.569a.7.7,0,0,0-.022.077c-.186.536-.361,1.082-.536,1.618-.131.427-.262.842-.382,1.258-.263.853-.515,1.7-.755,2.536-.077.252-.142.493-.219.744-.054.2-.109.394-.152.59-.93,3.325-1.7,6.572-2.33,9.71-.109.481-.2.952-.284,1.422s-.186.918-.263,1.367c-.4,2.187-.743,4.319-1.038,6.364-.219,1.552-.4,3.083-.569,4.548-.055.47-.109.93-.153,1.389a142.93,142.93,0,0,0-.754,16.9v.022c.065,4.034.306,6.342.306,6.342h-.077l-20.917.2-13.286.121-19.584.175-2.132.022-20.48.185a17.914,17.914,0,0,0-2.176.154h-.011c-.35.043-.711.1-1.05.164-.371.065-.743.153-1.1.24-.077.022-.164.044-.252.066a18.69,18.69,0,0,0-2.854,1,3.121,3.121,0,0,0-.339.164l-.612.24-1.6.634-1.334.525v.011l-1.531.591a7.339,7.339,0,0,1-1.072.361l-.186.054-1.705-3.914-.7-1.575a30.022,30.022,0,0,0-4.254-6.954,31.165,31.165,0,0,0-7.271-6.5q-1.247-.787-2.559-1.476c-.514-.263-1.039-.514-1.564-.755a31.966,31.966,0,0,0-13.121-2.81,33.3,33.3,0,0,0-4.614.328,28.824,28.824,0,0,1,.24-9.109l.022-.142,2.121-11.47.252-1.432,2.373-12.87.306-1.706,4.877-26.516.426-2.351a42.066,42.066,0,0,1,1.345-5.325v-.011c.2-.591.4-1.159.612-1.739a41.7,41.7,0,0,1,3.073-6.418,40.5,40.5,0,0,1,5.784-7.6c.328-.339.667-.689,1.006-1.017a41.17,41.17,0,0,1,13.668-8.824c.285-.12.58-.23.875-.339s.591-.219.886-.317c1.3-.437,2.613-.82,3.969-1.137a40.659,40.659,0,0,1,9.36-1.072h62.655a27.646,27.646,0,0,1,23.115,12.509l.011-.011c.263.405.514.842.766,1.258a25.088,25.088,0,0,1,1.29,2.46v.011a18.8,18.8,0,0,1,1.673,7.184A72.325,72.325,0,0,1,865.531,563.506Z"/><path class="cls-39" d="M877.581,565.8H735.454l.426-2.351a42.066,42.066,0,0,1,1.345-5.325v-.011c.2-.591.4-1.159.612-1.739a41.7,41.7,0,0,1,3.073-6.418,40.5,40.5,0,0,1,5.784-7.6c.328-.339.667-.689,1.006-1.017a41.17,41.17,0,0,1,13.668-8.824c.285-.12.58-.23.875-.339s.591-.219.886-.317c1.3-.437,2.613-.82,3.969-1.137a40.659,40.659,0,0,1,9.36-1.072h62.655a27.646,27.646,0,0,1,23.115,12.509l.011-.011c.263.405.514.842.766,1.258a25.088,25.088,0,0,1,1.29,2.46v.011Z"/><path class="cls-7" d="M816.194,578.323a10.55,10.55,0,0,0-2.187.131l-.022-1.345-.634-47.445,2.187-.022.634,47.347Z"/><polygon class="cls-7" points="817.025 640.879 814.838 640.901 814.696 630.502 814.685 629.059 816.85 628.119 816.872 629.562 817.025 640.879"/><path class="cls-39" d="M727.893,637.7c.208.416.416.84.646,1.25a99.587,99.587,0,0,0,16.019-6.662c-.514-.271-1.035-.521-1.563-.757A99.636,99.636,0,0,1,727.893,637.7Z"/><rect class="cls-7" x="756.587" y="588.873" width="25.732" height="1.766" transform="translate(92.168 1283.409) rotate(-83.153)"/><polygon class="cls-6" points="821.877 626.658 788.399 648.291 771.86 648.421 821.877 626.658"/><polygon class="cls-7" points="852.724 650.278 765.935 650.278 789.086 640.204 851.142 640.204 852.724 650.278"/><path class="cls-7" d="M830.846,623.482l-13.974,6.08-2.176.94-22.3,9.7-23.149,10.082-3.75,1.629-.536-1.214.973-.415L789.087,640.2l25.6-11.142,2.165-.94,13.471-5.861a11.436,11.436,0,0,0,6.277-14.215,116.778,116.778,0,0,0-11.383-24.483,11.1,11.1,0,0,0-9.021-5.237,10.55,10.55,0,0,0-2.187.131,10.681,10.681,0,0,0-3.586,1.192L751.451,611.4l-.634-1.159,58.98-31.765a12.394,12.394,0,0,1,4.188-1.367,12.2,12.2,0,0,1,2.187-.12,12.47,12.47,0,0,1,10.18,5.872,119.446,119.446,0,0,1,11.5,24.766A12.75,12.75,0,0,1,830.846,623.482Z"/><path class="cls-7" d="M853.923,618.679l-1.322-.094c.185-2.613,3.4-18.312,3.538-18.979l1.3.266C857.4,600.035,854.1,616.152,853.923,618.679Z"/><line class="cls-45" x1="845.713" y1="597.447" x2="843.422" y2="598.59"/><path class="cls-22" d="M774.374,529.642a53.312,53.312,0,0,0,16.343,19.7c18.627,13.6,39.944,9.807,44.139,8.975l9.712-9.2c-43.214,6.979-56.363-19.469-56.363-19.469Z"/><path class="cls-22" d="M830.107,529.642s-2.692,9.337,13.315,18.91l10.447-.358s-16.758-13.8-12.892-18.541Z"/><path class="cls-39" d="M831.2,555.993c-41.485,0-50.937-24.676-51.342-25.792l3.082-1.123c.4,1.091,10.392,26.673,56.3,23.334l.237,3.272Q835.146,556,831.2,555.993Z"/><path class="cls-39" d="M847.684,549.51c-13.189-8-15-19.154-15.068-19.625l3.243-.491c.016.1,1.717,10.153,13.525,17.311Z"/><circle class="cls-46" cx="851.796" cy="566.109" r="17.557"/><circle class="cls-47" cx="850.876" cy="565.496" r="17.557"/><path class="cls-46" d="M865.051,565.5a14.172,14.172,0,1,1-3.836-9.7A14.175,14.175,0,0,1,865.051,565.5Z"/><path class="cls-48" d="M865.051,565.5a13.164,13.164,0,1,1-3.836-9.7A14.175,14.175,0,0,1,865.051,565.5Z"/><path class="cls-46" d="M846.17,574.025l7.112-9.483a7.042,7.042,0,0,0,.961-1.691,4.5,4.5,0,0,0,.344-1.634v-.028a2.474,2.474,0,0,0-.715-1.894,2.857,2.857,0,0,0-2.035-.673,2.805,2.805,0,0,0-2.02.736,3.355,3.355,0,0,0-.94,2.083v.015h-2.96v-.015a7.638,7.638,0,0,1,1.031-3,5.248,5.248,0,0,1,2.014-1.893,6,6,0,0,1,2.847-.653,7.106,7.106,0,0,1,3.115.624,4.391,4.391,0,0,1,1.964,1.817,5.763,5.763,0,0,1,.673,2.876v.014a6.349,6.349,0,0,1-.449,2.259,9.692,9.692,0,0,1-1.248,2.272l-5.906,8.025h7.715v2.721h-11.5Z"/><path class="cls-47" d="M845.557,573.412l7.112-9.483a7.042,7.042,0,0,0,.961-1.691,4.5,4.5,0,0,0,.344-1.634v-.028a2.475,2.475,0,0,0-.716-1.894,2.854,2.854,0,0,0-2.034-.673,2.8,2.8,0,0,0-2.02.736,3.347,3.347,0,0,0-.94,2.083v.014H845.3v-.014a7.616,7.616,0,0,1,1.031-3,5.249,5.249,0,0,1,2.013-1.894,6.018,6.018,0,0,1,2.848-.652,7.106,7.106,0,0,1,3.115.624,4.384,4.384,0,0,1,1.963,1.817,5.763,5.763,0,0,1,.674,2.876v.014a6.339,6.339,0,0,1-.449,2.258,9.719,9.719,0,0,1-1.249,2.273l-5.906,8.024h7.716V575.9h-11.5Z"/><polygon class="cls-46" points="845.304 560.842 845.917 561.441 846.17 560.842 845.304 560.842"/><polygon class="cls-46" points="845.557 575.895 846.17 576.508 846.17 575.895 845.557 575.895"/><polygon class="cls-46" points="857.06 573.173 857.673 573.787 857.06 573.787 857.06 573.173"/><path class="cls-3" d="M824.775,581a39.994,39.994,0,0,1,10.621-7.217l3.655,4.687a5.508,5.508,0,0,0,3.324,1.3l21.25-2.63a8.01,8.01,0,0,1,0,6.979s1.291,1.66-.369,5.164c0,0,1.476,4.276-.369,4.9a2.962,2.962,0,0,1-1.291,3.21l-24.19,8.916Z"/><polygon class="cls-4" points="824.775 580.824 841.862 604.68 837.406 606.322 824.775 580.824"/><rect class="cls-4" x="850.575" y="584.337" width="13.097" height="1.147" transform="translate(-63.927 106.95) rotate(-6.884)"/><rect class="cls-4" x="853.904" y="589.317" width="9.391" height="1.148" transform="translate(-68.338 114.548) rotate(-7.341)"/><rect class="cls-4" x="855.146" y="594.443" width="7.828" height="1.148" transform="translate(-105.747 193.548) rotate(-12.115)"/><path class="cls-39" d="M754.556,643.044a23.616,23.616,0,0,1-2.548,10.705,29.005,29.005,0,0,1-23.465-14.794,100.413,100.413,0,0,0,16.019-6.67c-.514-.263-1.039-.514-1.564-.755a99.742,99.742,0,0,1-15.1,6.167,27.432,27.432,0,0,1-2.635-8.649,28.824,28.824,0,0,1,.24-9.109l.022-.142a23.338,23.338,0,0,1,5.205-.579,23.821,23.821,0,0,1,23.662,21.038A23.422,23.422,0,0,1,754.556,643.044Z"/><path class="cls-39" d="M922.6,647.921a60.164,60.164,0,0,1-33.46-2.143,32.339,32.339,0,0,1-8.124-4.308c-.438-.318-.864-.646-1.28-.974a23.835,23.835,0,0,1,42.864,7.425Z"/><path class="cls-49" d="M914.2,689.035l-.9,4.231a18.322,18.322,0,0,1-2.067.11A22.236,22.236,0,0,1,891.1,661.709h1.028A22.549,22.549,0,0,1,914.2,689.035Z"/></g><g id="Pattern"><rect class="cls-35" x="94.464" y="237.647" width="13.153" height="42.278" transform="translate(-166.613 184.347) rotate(-53.13)"/><rect class="cls-34" x="675.34" y="133.479" width="58.686" height="13.153" transform="translate(53.373 443.352) rotate(-36.211)"/><rect class="cls-37" x="125.008" y="308.992" width="45.229" height="13.153" transform="translate(-45.551 25.638) rotate(-8.604)"/><rect x="308.716" y="244.735" width="13.154" height="36.545" transform="translate(-76.128 139.022) rotate(-22.258)"/><rect class="cls-34" x="132.598" y="520.248" width="45.66" height="13.153"/><polygon class="cls-35" points="179.644 394.913 133 365.093 144.968 355.256 190.23 383.855 179.644 394.913"/><polygon class="cls-34" points="379.745 547.747 367.624 535.342 412.199 501.91 423.444 512.315 379.745 547.747"/><polygon class="cls-37" points="252.965 518.917 247.14 497.554 308.737 483.948 316.102 503.151 252.965 518.917"/><polygon class="cls-14" points="198.922 464.181 122.8 466.06 124.819 446.075 198.122 445.515 198.922 464.181"/><rect class="cls-34" x="415.281" y="233.979" width="58.686" height="13.153" transform="translate(-56.23 309.132) rotate(-36.211)"/><rect class="cls-37" x="391.806" y="308.992" width="45.229" height="13.153" transform="translate(-42.548 65.554) rotate(-8.604)"/><rect x="564.528" y="131.706" width="13.154" height="36.545" transform="translate(-14.254 227.496) rotate(-22.258)"/><rect class="cls-14" x="729.903" y="225.073" width="45.66" height="13.153"/><polygon class="cls-35" points="446.442 394.913 399.798 365.093 411.767 355.256 457.028 383.855 446.442 394.913"/><polygon class="cls-34" points="548.826 428.82 536.706 416.415 581.281 382.983 592.526 393.388 548.826 428.82"/><polygon points="502.223 356.886 483.184 327.198 495.946 324.717 515.25 353.578 502.223 356.886"/><polygon class="cls-37" points="465.721 464.181 389.598 466.06 391.617 446.075 464.92 445.515 465.721 464.181"/><rect class="cls-35" x="603.757" y="306.919" width="10.482" height="33.691" transform="translate(-15.411 616.707) rotate(-53.13)"/><rect class="cls-34" x="671.414" y="336.566" width="46.767" height="10.482" transform="translate(-67.723 476.482) rotate(-36.211)"/><rect class="cls-37" x="652.707" y="396.344" width="36.044" height="10.482" transform="matrix(0.989, -0.15, 0.15, 0.989, -52.532, 104.868)"/><rect x="650.436" y="275.147" width="10.482" height="29.123" transform="translate(-60.879 269.942) rotate(-22.258)"/><rect class="cls-14" x="592.377" y="370.33" width="36.387" height="10.482"/><polygon class="cls-35" points="696.246 464.815 659.075 441.051 668.613 433.212 704.683 456.003 696.246 464.815"/><polygon class="cls-34" points="881.309 596.718 871.65 586.832 907.172 560.19 916.133 568.482 881.309 596.718"/><polygon class="cls-37" points="754.677 563.634 750.034 546.61 799.122 535.767 804.991 551.071 754.677 563.634"/><polygon class="cls-14" points="711.609 520.015 650.947 521.512 652.556 505.586 710.972 505.14 711.609 520.015"/><rect class="cls-34" x="884.027" y="336.566" width="46.767" height="10.482" transform="translate(-26.656 602.086) rotate(-36.211)"/><rect class="cls-37" x="865.32" y="396.344" width="36.044" height="10.482" transform="matrix(0.989, -0.15, 0.15, 0.989, -50.139, 136.677)"/><rect x="863.05" y="275.147" width="10.482" height="29.123" transform="translate(-45.037 350.474) rotate(-22.258)"/><rect class="cls-14" x="804.991" y="370.33" width="36.387" height="10.482"/><polygon class="cls-35" points="908.86 464.815 871.689 441.051 881.227 433.212 917.296 456.003 908.86 464.815"/><polygon class="cls-34" points="990.45 491.836 980.791 481.95 1016.313 455.308 1025.274 463.6 990.45 491.836"/><polygon points="953.312 434.511 938.14 410.852 948.309 408.875 963.693 431.875 953.312 434.511"/><polygon class="cls-14" points="924.223 520.015 863.561 521.512 865.169 505.586 923.585 505.14 924.223 520.015"/></g></g></g></svg>