<svg xmlns="http://www.w3.org/2000/svg" viewBox="0 0 1080 1080"><defs><style>.cls-1{fill:#aee1ed;}.cls-2{fill:#cff;}.cls-10,.cls-3{fill:#fff;}.cls-4{fill:#ffca76;}.cls-5{fill:#feca63;}.cls-6{fill:#e5a93e;}.cls-7{fill:#c98d2d;}.cls-8{fill:#ffd18f;}.cls-9{fill:#b27824;}.cls-10{opacity:0.1;}.cls-11{fill:#ddd;}.cls-12{fill:#bababa;}.cls-13{fill:#9e9e9e;}.cls-14{fill:#f2f2f2;}.cls-15{fill:#898989;}.cls-16{fill:#ef9748;}.cls-17{fill:#d8843f;}.cls-18{fill:#bc6e33;}.cls-19{fill:#fca55e;}.cls-20{fill:#a55b28;}.cls-21{fill:#229dd3;}.cls-22{fill:#198ab2;}.cls-23{fill:#0070c1;}.cls-24{fill:#ed415c;}.cls-25{fill:#46a966;}.cls-26{fill:#f9ba64;}.cls-27{fill:#d7dfff;}.cls-28{fill:#2185b1;}.cls-29{fill:#137e9b;}.cls-30{fill:#97a3bf;}</style></defs><title>Trophy</title><g id="Trophy"><g id="Trophy-2" data-name="Trophy"><g id="Background"><path class="cls-1" d="M940.99,672.572c0,27.93-6.76,54.8-19.25,79.92-36.96,74.38-124.11,133.45-234.63,159.28-3.06.72-6.14,1.42-9.24,2.08h-.02l-.28.06a561.485,561.485,0,0,1-243.88-2.84c-.01.01-.02,0-.03,0-.29-.07-.57-.14-.85-.21-3.12-.75-6.23-1.53-9.31-2.34a477.006,477.006,0,0,1-56.44-18.56c-9.29-3.73-18.68-7.23-28.12-10.59a238.706,238.706,0,0,1-46.33-22.51c-.99-.62-1.97-1.24-2.95-1.88q-10.245-6.6-19.99-14.24-1.725-1.365-3.42-2.74c-30.07-24.39-56.16-56.08-76.76-93.12-31.79-57.17-50.48-127.11-50.48-202.63a441.381,441.381,0,0,1,11.4-100.31q1.8-7.725,3.88-15.31c.5-1.81,1-3.62,1.52-5.41.7-2.43,1.42-4.84,2.15-7.25.01-.01.01-.01.01-.02q2.595-8.4,5.52-16.6,3.375-9.5,7.17-18.66,6.5-15.675,14.17-30.38,5.895-11.34,12.46-22.04c50.06-81.54,127.81-133.92,215.12-133.92,61.16,0,117.62,25.7,163.16,69.11.18.16.35.33.52.5a.176.176,0,0,1,.05.04q2.46,2.355,4.87,4.78c.41.41.82.83,1.23,1.24.16.17.33.33.49.5.83.85,1.66,1.7,2.48,2.56l.06.06c.05.05.1.1.15.16.07.07.15.15.22.23.34.36.69.72,1.03,1.09.08.08.16.16.23.24,1.18,1.25,2.34,2.51,3.5,3.78q1.53,1.68,3.05,3.4c.48.54.95,1.08,1.42,1.62.1.12.21.24.3.35q3.135,3.6,6.16,7.32,4.725,5.76,9.21,11.8,2.145,2.88,4.23,5.82c49.69,69.96,113.57,128.82,188.66,170.35C887.46,523.772,940.99,593.992,940.99,672.572Z"/><path class="cls-2" d="M561.014,248.519c-23.059-19.146-48.511-33.968-75.663-43.564l14.633,717.6c1.032.114,2.061.233,3.1.341Z"/><path class="cls-2" d="M441.14,194.266a216.711,216.711,0,0,0-28.73-1.914c-58.342,0-112.413,23.393-156.808,63.242,42.209,130.581,177.953,545.312,216.549,663.2q4.315.7,8.674,1.33Z"/><path class="cls-2" d="M165.538,391.811c-.686,1.844-1.386,3.678-2.048,5.541q-2.925,8.19-5.52,16.6c0,.01,0,.01-.01.02-.73,2.41-1.45,4.82-2.15,7.25-.52,1.79-1.02,3.6-1.52,5.41q-2.07,7.575-3.88,15.31a447.512,447.512,0,0,0-3.184,185.724c98.2,104.038,199.4,211.158,261.316,276.679q7.4,2.19,14.958,4.177c3.08.81,6.19,1.59,9.31,2.34.28.07.56.14.85.21.01,0,.02.01.03,0,1.869.449,3.751.878,5.633,1.308Z"/><path class="cls-2" d="M940.952,675.092c.012-.84.038-1.678.038-2.52a174.318,174.318,0,0,0-9.174-55.621L577.542,925.716q2.848-.078,5.684-.186Z"/><path class="cls-2" d="M729.319,427.97A586.705,586.705,0,0,1,614.77,306.952q-2.085-2.94-4.23-5.82-4.485-6.045-9.21-11.8-1.255-1.55-2.539-3.072c-28.425,239.035-69.634,589.261-75.411,638.367l1.66.109Z"/><path class="cls-2" d="M916.666,583.105c-20.645-36.542-53.568-69.055-95.411-95.3C710.875,664.318,568.925,891.8,547.744,925.746q.942.022,1.887.041Z"/></g><g id="Trophy_First" data-name="Trophy First"><path class="cls-3" d="M555.561,532.455c-.02-1.444-.02-2.936,0-4.434l.5,0v4.427Z"/><path class="cls-4" d="M596.148,332.721s-.065.2-.19.6c-.015.05-.03.105-.045.16,0,.015-.01.03-.015.05-.015.04-.025.08-.04.12-.324,1.058-.918,2.989-1.722,5.679-.109.365-.224.744-.339,1.138s-.24.794-.364,1.213c-.04.14-.085.285-.125.424-.384,1.283-.8,2.686-1.243,4.2-.075.264-.155.534-.235.8-.049.175-.1.355-.154.529s-.1.35-.155.525c-.21.723-.424,1.467-.649,2.23-.13.445-.259.9-.389,1.358-.1.329-.195.659-.29.993l-.224.789c-1.218,4.227-2.565,8.989-4,14.184-.14.5-.279,1.008-.419,1.522-.7,2.551-1.428,5.206-2.166,7.941-.15.549-.3,1.1-.444,1.657q-1.206,4.5-2.461,9.278-.6,2.3-1.208,4.662c-.055.22-.11.439-.17.659q-.6,2.336-1.207,4.726c-.165.659-.335,1.323-.5,1.992-.145.579-.29,1.158-.44,1.742-.06.239-.119.479-.179.723q-.638,2.538-1.273,5.141c-.2.809-.4,1.622-.6,2.446-.269,1.123-.544,2.251-.818,3.384q-.7,2.934-1.408,5.924-.232.988-.464,1.991-.936,3.99-1.847,8.046-.426,1.893-.848,3.8c-1.672,7.561-3.279,15.232-4.772,22.874q-.4,2.036-.778,4.067-.442,2.336-.869,4.662c-.209,1.148-.419,2.3-.619,3.444-1.212,6.842-2.3,13.615-3.244,20.218q-.253,1.8-.489,3.569-.128.966-.254,1.926c-.579,4.482-1.078,8.874-1.483,13.147-.05.489-.1.978-.134,1.462-.12,1.333-.235,2.655-.335,3.963-.04.5-.08,1.008-.115,1.507-.149,2.076-.274,4.123-.369,6.124-.03.509-.05,1.013-.07,1.517-.02.42-.035.839-.05,1.253-.02.559-.04,1.113-.055,1.667-.01.359-.02.714-.03,1.068-.01.4-.02.8-.025,1.2,0,.339-.01.669-.015,1V329.941c1.044-.314,3.923-.3,7.467-.124,3.349.174,7.287.494,10.815.813,1.737.155,3.374.315,4.792.459,2.925.29,4.911.509,4.911.509a7.357,7.357,0,0,0,3.923.355Z"/><path class="cls-5" d="M587.718,331.953a7.357,7.357,0,0,1-3.923-.355Z"/><path class="cls-6" d="M598.678,481.733c0,.035-.01.065-.015.1-4.582,29.278-8.774,50.619-8.774,50.619H555.81q-.028-2.17,0-4.427c.005-.334.01-.664.015-1,0-.4.015-.8.025-1.2.01-.354.02-.709.03-1.068.015-.554.035-1.108.055-1.667.015-.414.03-.833.05-1.253.02-.5.04-1.008.07-1.517.1-2,.22-4.048.369-6.124.035-.5.075-1,.115-1.507.1-1.308.215-2.63.335-3.963.039-.484.084-.973.134-1.462.4-4.273.9-8.665,1.483-13.147q.128-.959.254-1.926c.16-1.183.325-2.376.489-3.569.939-6.6,2.032-13.376,3.244-20.218q.308-1.722.619-3.444.428-2.328.869-4.662.381-2.035.778-4.067c1.493-7.642,3.1-15.313,4.772-22.874q.418-1.9.848-3.8.913-4.05,1.847-8.046.232-1,.464-1.991.7-2.988,1.408-5.924c.274-1.133.549-2.261.818-3.384.2-.824.4-1.637.6-2.446q.636-2.6,1.273-5.141c.06-.244.119-.484.179-.723.15-.584.295-1.163.44-1.742.164-.669.334-1.333.5-1.992q.606-2.388,1.207-4.726c.06-.22.115-.439.17-.659q.606-2.358,1.208-4.662,1.25-4.776,2.461-9.278c.149-.554.294-1.108.444-1.657.738-2.735,1.462-5.39,2.166-7.941.14-.514.279-1.018.419-1.522,1.438-5.195,2.785-9.957,4-14.184l.224-.789c.1-.334.19-.664.29-.993.135-.459.264-.913.389-1.358.225-.763.439-1.507.649-2.23.055-.175.105-.35.155-.525s.1-.354.154-.529c.08-.269.16-.539.235-.8.444-1.512.859-2.915,1.243-4.2.04-.139.085-.284.125-.424.124-.419.244-.823.364-1.213s.23-.773.339-1.138c.8-2.69,1.4-4.621,1.722-5.679.015-.04.025-.08.04-.12,0-.02.01-.035.015-.05.015-.055.03-.11.045-.16.125-.4.19-.6.19-.6l-8.43-.768-3.923-.355a28.894,28.894,0,0,1,6.693-4.876.079.079,0,0,0,.02,0c.624-.354,1.243-.689,1.832-.993a24.182,24.182,0,0,1,6.323-2.241l.454-.09a22.965,22.965,0,0,1,4.682-.379c.379.01.729.025,1.053.055,7.147.559,1.4,4.841,1.4,4.841C615.707,356.568,606.609,431.019,598.678,481.733Z"/><path class="cls-6" d="M598.663,487.372v-5.54c7.936-50.713,17.049-125.244,7.591-153.922,0,0,5.745-4.282-1.4-4.841-.324-.03-.674-.045-1.053-.055a22.7,22.7,0,0,0-5.136.469v0a92.6,92.6,0,0,0,24.207-12.467v-.005c1.452-1.029,2.924-2.132,4.4-3.31C627.267,307.7,630.7,387.268,598.663,487.372Z"/><path class="cls-7" d="M622.87,305.77v5.241a92.6,92.6,0,0,1-24.207,12.467v0a24.182,24.182,0,0,0-6.323,2.241c-.589.3-1.208.639-1.832.993a.079.079,0,0,1-.02,0c-4.587-2.146-9.743-13.466-9.743-13.466C599.547,296.751,622.87,305.77,622.87,305.77Z"/><path class="cls-5" d="M583.795,331.6l3.923.355A7.357,7.357,0,0,1,583.795,331.6Z"/><path class="cls-6" d="M590.488,326.722a28.894,28.894,0,0,0-6.693,4.876s-1.986-.219-4.911-.509c-1.418-.144-3.055-.3-4.792-.459a59.127,59.127,0,0,1,6.653-17.374S585.9,324.576,590.488,326.722Z"/><path class="cls-7" d="M580.745,313.256a59.127,59.127,0,0,0-6.653,17.374c-3.528-.319-7.466-.639-10.815-.813l-.07-.125V294.86C589.085,294.435,580.745,313.256,580.745,313.256Z"/><path class="cls-8" d="M559.9,329.7,555.81,532.451V329.941S559.5,329.694,559.9,329.7Z"/><polygon class="cls-6" points="563.207 294.86 568.617 330.169 563.207 329.692 563.207 294.86"/><path class="cls-9" d="M580.745,313.256l21.063,9.171-2.688.906s-6.269,1.561-8.632,3.389C590.488,326.722,586.467,325.609,580.745,313.256Z"/><path class="cls-9" d="M598.663,487.372l.015-5.639c7.931-50.714,17.029-125.165,7.576-153.823,0,0,5.745-4.282-1.4-4.841-.324-.03-.674-.045-1.053-.055a22.965,22.965,0,0,0-4.682.379v-.06s9.244-3.374,14.579-6.553C613.7,316.78,620.913,414.379,598.663,487.372Z"/><polygon class="cls-7" points="596.148 332.721 582.027 331.409 579.874 390.432 596.148 332.721"/><path class="cls-9" d="M590.488,326.722v5.483l-6.693-.607A61.074,61.074,0,0,1,590.488,326.722Z"/><path class="cls-3" d="M556.03,532.455l-.5,0v-4.427l.5,0C556.05,529.519,556.05,531.011,556.03,532.455Z"/><path class="cls-4" d="M515.443,332.721s.065.2.19.6c.015.05.03.105.045.16,0,.015.01.03.015.05.015.04.025.08.04.12.324,1.058.918,2.989,1.722,5.679.109.365.224.744.339,1.138s.24.794.364,1.213c.04.14.085.285.125.424.384,1.283.8,2.686,1.243,4.2.075.264.155.534.235.8.049.175.1.355.154.529s.1.35.155.525c.21.723.424,1.467.649,2.23.13.445.259.9.389,1.358.1.329.2.659.29.993l.224.789c1.218,4.227,2.565,8.989,4,14.184.14.5.279,1.008.419,1.522.7,2.551,1.428,5.206,2.166,7.941.15.549.3,1.1.444,1.657q1.206,4.5,2.461,9.278.6,2.3,1.208,4.662c.055.22.11.439.17.659q.6,2.336,1.207,4.726c.165.659.335,1.323.5,1.992.145.579.29,1.158.44,1.742.06.239.119.479.179.723q.638,2.538,1.273,5.141c.2.809.4,1.622.6,2.446.269,1.123.544,2.251.818,3.384q.7,2.934,1.408,5.924.232.988.464,1.991.936,3.99,1.847,8.046.426,1.893.848,3.8c1.672,7.561,3.279,15.232,4.772,22.874q.4,2.036.778,4.067.442,2.336.869,4.662c.209,1.148.419,2.3.619,3.444,1.212,6.842,2.3,13.615,3.244,20.218q.254,1.8.489,3.569.128.966.254,1.926c.579,4.482,1.078,8.874,1.483,13.147.05.489.1.978.134,1.462.12,1.333.235,2.655.335,3.963.04.5.08,1.008.115,1.507.149,2.076.274,4.123.369,6.124.03.509.05,1.013.07,1.517.02.42.035.839.05,1.253.02.559.04,1.113.055,1.667.01.359.02.714.03,1.068.01.4.02.8.025,1.2,0,.339.01.669.015,1V329.941c-1.044-.314-3.923-.3-7.467-.124-3.349.174-7.287.494-10.815.813-1.737.155-3.374.315-4.792.459-2.925.29-4.911.509-4.911.509a7.357,7.357,0,0,1-3.923.355Z"/><path class="cls-5" d="M523.873,331.953a7.357,7.357,0,0,0,3.923-.355Z"/><path class="cls-6" d="M512.913,481.733c0,.035.01.065.015.1,4.582,29.278,8.774,50.619,8.774,50.619h34.079q.029-2.17,0-4.427c0-.334-.01-.664-.015-1,0-.4-.015-.8-.025-1.2-.01-.354-.02-.709-.03-1.068-.015-.554-.035-1.108-.055-1.667-.015-.414-.03-.833-.05-1.253-.02-.5-.04-1.008-.07-1.517-.095-2-.22-4.048-.369-6.124-.035-.5-.075-1-.115-1.507-.1-1.308-.215-2.63-.335-3.963-.039-.484-.084-.973-.134-1.462-.4-4.273-.9-8.665-1.483-13.147q-.128-.959-.254-1.926c-.16-1.183-.325-2.376-.489-3.569-.939-6.6-2.032-13.376-3.244-20.218q-.308-1.722-.619-3.444-.428-2.328-.869-4.662-.381-2.035-.778-4.067c-1.493-7.642-3.1-15.313-4.772-22.874q-.418-1.9-.848-3.8-.913-4.05-1.847-8.046-.232-1-.464-1.991-.7-2.988-1.408-5.924c-.274-1.133-.549-2.261-.818-3.384-.2-.824-.4-1.637-.6-2.446q-.636-2.6-1.273-5.141c-.06-.244-.119-.484-.179-.723-.15-.584-.295-1.163-.44-1.742-.164-.669-.334-1.333-.5-1.992q-.606-2.388-1.207-4.726c-.06-.22-.115-.439-.17-.659q-.606-2.358-1.208-4.662-1.249-4.776-2.461-9.278c-.149-.554-.294-1.108-.444-1.657-.738-2.735-1.462-5.39-2.166-7.941-.14-.514-.279-1.018-.419-1.522-1.438-5.195-2.785-9.957-4-14.184l-.224-.789c-.1-.334-.19-.664-.29-.993-.135-.459-.264-.913-.389-1.358-.225-.763-.439-1.507-.649-2.23-.055-.175-.105-.35-.155-.525s-.105-.354-.154-.529c-.08-.269-.16-.539-.235-.8-.444-1.512-.859-2.915-1.243-4.2-.04-.139-.085-.284-.125-.424-.124-.419-.244-.823-.364-1.213s-.23-.773-.339-1.138c-.8-2.69-1.4-4.621-1.722-5.679-.015-.04-.025-.08-.04-.12,0-.02-.01-.035-.015-.05-.015-.055-.03-.11-.045-.16-.125-.4-.19-.6-.19-.6l8.43-.768,3.923-.355a28.894,28.894,0,0,0-6.693-4.876.079.079,0,0,1-.02,0c-.624-.354-1.243-.689-1.832-.993a24.182,24.182,0,0,0-6.323-2.241l-.454-.09a22.965,22.965,0,0,0-4.682-.379c-.379.01-.729.025-1.053.055-7.147.559-1.4,4.841-1.4,4.841C495.884,356.568,504.982,431.019,512.913,481.733Z"/><path class="cls-6" d="M512.928,487.372v-5.54c-7.936-50.713-17.049-125.244-7.591-153.922,0,0-5.745-4.282,1.4-4.841.324-.03.674-.045,1.053-.055a22.7,22.7,0,0,1,5.136.469v0a92.6,92.6,0,0,1-24.207-12.467v-.005c-1.452-1.029-2.924-2.132-4.4-3.31C484.324,307.7,480.891,387.268,512.928,487.372Z"/><path class="cls-7" d="M488.721,305.77v5.241a92.6,92.6,0,0,0,24.207,12.467v0a24.182,24.182,0,0,1,6.323,2.241c.589.3,1.208.639,1.832.993a.079.079,0,0,0,.02,0c4.587-2.146,9.743-13.466,9.743-13.466C512.044,296.751,488.721,305.77,488.721,305.77Z"/><path class="cls-5" d="M527.8,331.6l-3.923.355A7.357,7.357,0,0,0,527.8,331.6Z"/><path class="cls-6" d="M521.1,326.722A28.894,28.894,0,0,1,527.8,331.6s1.986-.219,4.911-.509c1.418-.144,3.055-.3,4.792-.459a59.127,59.127,0,0,0-6.653-17.374S525.69,324.576,521.1,326.722Z"/><path class="cls-7" d="M530.846,313.256A59.127,59.127,0,0,1,537.5,330.63c3.528-.319,7.466-.639,10.815-.813l.07-.125V294.86C522.506,294.435,530.846,313.256,530.846,313.256Z"/><path class="cls-8" d="M551.694,329.7l4.087,202.751V329.941S552.088,329.694,551.694,329.7Z"/><polygon class="cls-6" points="548.384 294.86 542.974 330.169 548.384 329.692 548.384 294.86"/><path class="cls-9" d="M530.846,313.256l-21.063,9.171,2.688.906s6.269,1.561,8.632,3.389C521.1,326.722,525.124,325.609,530.846,313.256Z"/><path class="cls-9" d="M512.928,487.372l-.015-5.639c-7.931-50.714-17.029-125.165-7.576-153.823,0,0-5.745-4.282,1.4-4.841.324-.03.674-.045,1.053-.055a22.965,22.965,0,0,1,4.682.379v-.06s-9.244-3.374-14.579-6.553C497.9,316.78,490.678,414.379,512.928,487.372Z"/><polygon class="cls-7" points="515.443 332.721 529.564 331.409 531.717 390.432 515.443 332.721"/><path class="cls-9" d="M521.1,326.722v5.483l6.693-.607A61.074,61.074,0,0,0,521.1,326.722Z"/><rect class="cls-9" x="555.032" y="329.941" width="1.497" height="202.51"/><path class="cls-10" d="M622.87,305.77v4.287L539.245,532.451H521.7s-3.074-15.647-6.838-38.53l68.816-183C601.882,297.655,622.87,305.77,622.87,305.77Z"/><path class="cls-10" d="M548.384,294.86v21.666L500.66,443.437A617.914,617.914,0,0,1,488.088,373.5L514.036,304.5a39.2,39.2,0,0,1,16.81,8.759S522.506,294.435,548.384,294.86Z"/><path class="cls-10" d="M622.79,379.208a620.116,620.116,0,0,1-22.041,101.516l-2.086,5.545-1.218,3.245L581.3,532.451H565.164Z"/><path class="cls-10" d="M578.26,298.523,510.347,479.117q-3.81-12.525-6.907-24.54l46.945-124.845,12.822-34.1.29-.773C570.953,294.775,575.525,296.312,578.26,298.523Z"/><path class="cls-10" d="M627.092,328.923c-.16,4.382-.409,9.378-.784,14.933L555.4,532.451H550.56Z"/><path class="cls-10" d="M500.954,303.4l-15.6,41.49c-.28-3.992-.49-7.706-.654-11.12l11.21-29.8A48.867,48.867,0,0,1,500.954,303.4Z"/><path class="cls-7" d="M627.97,549.346v5.08H483.591v-5.08a16.892,16.892,0,0,1,16.889-16.89h110.6a16.892,16.892,0,0,1,16.889,16.89Z"/><path class="cls-9" d="M621.607,536.139H489.954a16.812,16.812,0,0,1,10.526-3.683h110.6A16.812,16.812,0,0,1,621.607,536.139Z"/></g><g id="Trophy_Second" data-name="Trophy Second"><path class="cls-3" d="M806.052,622.713c-.02-1.444-.02-2.936,0-4.434l.5,0v4.427Z"/><path class="cls-11" d="M846.639,422.979s-.065.205-.19.6c-.015.05-.03.1-.045.16,0,.015-.01.03-.015.05-.015.04-.024.08-.039.12-.325,1.058-.919,2.989-1.722,5.68-.11.364-.225.743-.34,1.137s-.239.794-.364,1.213c-.04.14-.085.285-.125.425-.384,1.282-.8,2.685-1.243,4.2-.075.264-.154.534-.234.8-.05.175-.105.355-.155.53s-.1.349-.155.524q-.313,1.084-.648,2.231c-.13.444-.26.9-.39,1.357-.1.33-.194.659-.289.993-.075.26-.15.524-.225.789-1.218,4.227-2.565,8.989-4,14.184-.139.5-.279,1.009-.419,1.523-.7,2.55-1.427,5.2-2.166,7.94-.15.549-.3,1.1-.444,1.657q-1.206,4.5-2.461,9.279c-.4,1.532-.8,3.089-1.208,4.661-.055.22-.109.439-.169.659q-.6,2.336-1.208,4.726c-.165.659-.334,1.323-.5,1.992-.145.579-.29,1.158-.439,1.742-.06.239-.12.479-.18.723q-.636,2.538-1.273,5.141c-.2.809-.4,1.622-.6,2.446-.269,1.123-.544,2.251-.818,3.384q-.7,2.934-1.408,5.924-.231.988-.464,1.991-.936,3.991-1.847,8.046-.426,1.895-.848,3.8c-1.672,7.561-3.279,15.232-4.771,22.874q-.4,2.036-.779,4.067-.441,2.337-.868,4.662c-.21,1.148-.42,2.3-.619,3.444-1.213,6.842-2.306,13.615-3.244,20.218q-.255,1.8-.49,3.569-.126.966-.254,1.926c-.579,4.482-1.078,8.874-1.482,13.147-.05.489-.1.978-.135,1.462-.12,1.333-.235,2.655-.335,3.963-.04.5-.079,1.008-.114,1.507-.15,2.076-.275,4.123-.37,6.124-.03.509-.05,1.013-.07,1.517-.02.42-.034.839-.049,1.253-.02.559-.04,1.113-.055,1.667-.01.359-.02.714-.03,1.068-.01.4-.02.8-.025,1.2,0,.339-.01.669-.015,1V420.2c1.043-.314,3.923-.3,7.466-.124,3.349.174,7.287.494,10.816.813,1.737.155,3.374.315,4.791.459,2.925.29,4.911.509,4.911.509a7.359,7.359,0,0,0,3.923.355Z"/><path class="cls-5" d="M838.209,422.211a7.359,7.359,0,0,1-3.923-.355Z"/><path class="cls-12" d="M849.169,571.991c0,.035-.01.065-.015.1-4.581,29.277-8.774,50.618-8.774,50.618H806.3q-.03-2.171,0-4.427c0-.334.01-.664.015-1,0-.4.015-.8.025-1.2.01-.354.02-.709.03-1.068.015-.554.035-1.108.055-1.667.015-.414.029-.833.049-1.253.02-.5.04-1.008.07-1.517.095-2,.22-4.048.37-6.124.035-.5.074-1,.114-1.507.1-1.308.215-2.63.335-3.963.04-.484.085-.973.135-1.462.4-4.273.9-8.665,1.482-13.147q.128-.959.254-1.926c.16-1.183.325-2.376.49-3.569.938-6.6,2.031-13.376,3.244-20.218q.306-1.722.619-3.444.426-2.328.868-4.662.383-2.035.779-4.067c1.492-7.642,3.1-15.313,4.771-22.874q.42-1.9.848-3.8.914-4.05,1.847-8.046.232-1,.464-1.991.7-2.988,1.408-5.924c.274-1.133.549-2.261.818-3.384.2-.824.4-1.637.6-2.446q.636-2.6,1.273-5.141c.06-.244.12-.484.18-.723.149-.584.294-1.163.439-1.742.165-.669.334-1.333.5-1.992q.606-2.388,1.208-4.726c.06-.22.114-.439.169-.659.4-1.572.809-3.129,1.208-4.661q1.251-4.778,2.461-9.279c.15-.554.294-1.108.444-1.657.739-2.735,1.462-5.39,2.166-7.94.14-.514.28-1.019.419-1.523,1.438-5.195,2.785-9.957,4-14.184.075-.265.15-.529.225-.789.1-.334.189-.663.289-.993.135-.459.265-.913.39-1.357q.336-1.146.648-2.231c.055-.175.105-.35.155-.524s.105-.355.155-.53c.08-.269.159-.539.234-.8.445-1.512.859-2.915,1.243-4.2.04-.14.085-.285.125-.425.125-.419.244-.823.364-1.213s.23-.773.34-1.137c.8-2.691,1.4-4.622,1.722-5.68.015-.04.024-.08.039-.12,0-.02.01-.035.015-.05.015-.055.03-.11.045-.16.125-.4.19-.6.19-.6l-8.43-.768-3.923-.355a28.916,28.916,0,0,1,6.693-4.876.079.079,0,0,0,.02,0c.624-.354,1.243-.688,1.832-.993a24.182,24.182,0,0,1,6.323-2.241l.455-.09a22.95,22.95,0,0,1,4.681-.379c.379.01.729.025,1.053.055,7.147.559,1.4,4.841,1.4,4.841C866.2,446.826,857.1,521.277,849.169,571.991Z"/><path class="cls-12" d="M849.154,577.631v-5.54c7.936-50.714,17.05-125.245,7.592-153.923,0,0,5.744-4.282-1.4-4.841-.324-.03-.674-.045-1.053-.055a22.7,22.7,0,0,0-5.136.469v0a92.6,92.6,0,0,0,24.207-12.467v0c1.452-1.029,2.925-2.132,4.4-3.309C877.758,397.955,881.192,477.526,849.154,577.631Z"/><path class="cls-13" d="M873.361,396.028v5.241a92.6,92.6,0,0,1-24.207,12.467v0a24.182,24.182,0,0,0-6.323,2.241c-.589.3-1.208.639-1.832.993a.079.079,0,0,1-.02,0c-4.587-2.146-9.742-13.465-9.742-13.465C850.038,387.009,873.361,396.028,873.361,396.028Z"/><path class="cls-5" d="M834.286,421.856l3.923.355A7.359,7.359,0,0,1,834.286,421.856Z"/><path class="cls-12" d="M840.979,416.98a28.916,28.916,0,0,0-6.693,4.876s-1.986-.219-4.911-.509c-1.417-.144-3.054-.3-4.791-.459a59.114,59.114,0,0,1,6.653-17.373S836.392,414.834,840.979,416.98Z"/><path class="cls-13" d="M831.237,403.515a59.114,59.114,0,0,0-6.653,17.373c-3.529-.319-7.467-.639-10.816-.813l-.07-.125V385.118C839.577,384.693,831.237,403.515,831.237,403.515Z"/><path class="cls-14" d="M810.388,419.959,806.3,622.709V420.2S809.994,419.952,810.388,419.959Z"/><polygon class="cls-12" points="813.698 385.118 819.109 420.427 813.698 419.95 813.698 385.118"/><path class="cls-15" d="M831.237,403.515l21.062,9.171-2.688.905s-6.269,1.561-8.632,3.389C840.979,416.98,836.959,415.867,831.237,403.515Z"/><path class="cls-15" d="M849.154,577.631l.015-5.64c7.931-50.714,17.03-125.165,7.577-153.823,0,0,5.744-4.282-1.4-4.841-.324-.03-.674-.045-1.053-.055a22.95,22.95,0,0,0-4.681.379v-.06s9.243-3.374,14.578-6.553C864.187,407.038,871.4,504.637,849.154,577.631Z"/><polygon class="cls-13" points="846.639 422.979 832.518 421.667 830.365 480.69 846.639 422.979"/><path class="cls-15" d="M840.979,416.98v5.483l-6.693-.607A61.213,61.213,0,0,1,840.979,416.98Z"/><path class="cls-3" d="M806.521,622.713l-.5,0v-4.427l.5,0C806.541,619.777,806.541,621.269,806.521,622.713Z"/><path class="cls-11" d="M765.935,422.979l.189.6c.015.05.03.1.045.16,0,.015.01.03.015.05.015.04.025.08.04.12.324,1.058.918,2.989,1.722,5.68.11.364.225.743.339,1.137s.24.794.365,1.213c.04.14.084.285.124.425.385,1.282.8,2.685,1.243,4.2.075.264.155.534.235.8.05.175.105.355.154.53s.1.349.155.524c.21.723.424,1.467.649,2.231.13.444.26.9.389,1.357.1.33.195.659.29.993.075.26.15.524.224.789,1.218,4.227,2.566,8.989,4,14.184.14.5.28,1.009.419,1.523.7,2.55,1.428,5.2,2.167,7.94.149.549.3,1.1.444,1.657q1.2,4.5,2.46,9.279c.4,1.532.8,3.089,1.208,4.661.055.22.11.439.17.659q.6,2.336,1.208,4.726c.164.659.334,1.323.5,1.992.144.579.289,1.158.439,1.742.06.239.12.479.18.723q.636,2.538,1.272,5.141c.2.809.4,1.622.6,2.446q.4,1.685.819,3.384.7,2.934,1.407,5.924.232.988.464,1.991.936,3.991,1.847,8.046.428,1.895.849,3.8c1.671,7.561,3.279,15.232,4.771,22.874q.4,2.036.778,4.067.442,2.337.869,4.662c.21,1.148.419,2.3.619,3.444,1.213,6.842,2.306,13.615,3.244,20.218q.255,1.8.489,3.569.128.966.255,1.926c.579,4.482,1.078,8.874,1.482,13.147.05.489.1.978.135,1.462.12,1.333.234,2.655.334,3.963.04.5.08,1.008.115,1.507.15,2.076.274,4.123.369,6.124.03.509.05,1.013.07,1.517.02.42.035.839.05,1.253.02.559.04,1.113.055,1.667.01.359.02.714.03,1.068.01.4.02.8.025,1.2,0,.339.01.669.015,1V420.2c-1.043-.314-3.923-.3-7.467-.124-3.349.174-7.287.494-10.815.813-1.737.155-3.374.315-4.792.459-2.924.29-4.911.509-4.911.509a7.357,7.357,0,0,1-3.923.355Z"/><path class="cls-5" d="M774.364,422.211a7.357,7.357,0,0,0,3.923-.355Z"/><path class="cls-12" d="M763.4,571.991c0,.035.01.065.015.1,4.582,29.277,8.774,50.618,8.774,50.618h34.079q.03-2.171,0-4.427c0-.334-.01-.664-.015-1,0-.4-.015-.8-.025-1.2-.01-.354-.02-.709-.03-1.068-.015-.554-.035-1.108-.055-1.667-.015-.414-.03-.833-.05-1.253-.02-.5-.04-1.008-.07-1.517-.1-2-.219-4.048-.369-6.124-.035-.5-.075-1-.115-1.507-.1-1.308-.214-2.63-.334-3.963-.04-.484-.085-.973-.135-1.462-.4-4.273-.9-8.665-1.482-13.147q-.128-.959-.255-1.926c-.16-1.183-.324-2.376-.489-3.569-.938-6.6-2.031-13.376-3.244-20.218-.205-1.148-.409-2.3-.619-3.444q-.427-2.328-.869-4.662-.381-2.035-.778-4.067c-1.492-7.642-3.1-15.313-4.771-22.874q-.42-1.9-.849-3.8-.913-4.05-1.847-8.046-.231-1-.464-1.991-.7-2.988-1.407-5.924-.412-1.7-.819-3.384c-.2-.824-.4-1.637-.6-2.446q-.636-2.6-1.272-5.141c-.06-.244-.12-.484-.18-.723-.15-.584-.295-1.163-.439-1.742-.165-.669-.335-1.333-.5-1.992q-.607-2.388-1.208-4.726c-.06-.22-.115-.439-.17-.659-.4-1.572-.808-3.129-1.208-4.661q-1.249-4.778-2.46-9.279c-.15-.554-.295-1.108-.444-1.657-.739-2.735-1.463-5.39-2.167-7.94-.139-.514-.279-1.019-.419-1.523-1.437-5.195-2.785-9.957-4-14.184-.074-.265-.149-.529-.224-.789-.1-.334-.19-.663-.29-.993-.134-.459-.264-.913-.389-1.357-.225-.764-.439-1.508-.649-2.231-.055-.175-.105-.35-.155-.524s-.1-.355-.154-.53c-.08-.269-.16-.539-.235-.8-.444-1.512-.858-2.915-1.243-4.2-.04-.14-.084-.285-.124-.425-.125-.419-.245-.823-.365-1.213s-.229-.773-.339-1.137c-.8-2.691-1.4-4.622-1.722-5.68-.015-.04-.025-.08-.04-.12,0-.02-.01-.035-.015-.05-.015-.055-.03-.11-.045-.16l-.189-.6,8.429-.768,3.923-.355a28.894,28.894,0,0,0-6.693-4.876.079.079,0,0,1-.02,0c-.624-.354-1.242-.688-1.831-.993a24.2,24.2,0,0,0-6.324-2.241l-.454-.09a22.959,22.959,0,0,0-4.682-.379c-.379.01-.728.025-1.053.055-7.147.559-1.4,4.841-1.4,4.841C746.375,446.826,755.473,521.277,763.4,571.991Z"/><path class="cls-12" d="M763.419,577.631v-5.54c-7.936-50.714-17.049-125.245-7.591-153.923,0,0-5.745-4.282,1.4-4.841.325-.03.674-.045,1.053-.055a22.7,22.7,0,0,1,5.136.469v0a92.6,92.6,0,0,1-24.206-12.467v0c-1.453-1.029-2.925-2.132-4.4-3.309C734.816,397.955,731.382,477.526,763.419,577.631Z"/><path class="cls-13" d="M739.213,396.028v5.241a92.6,92.6,0,0,0,24.206,12.467v0a24.2,24.2,0,0,1,6.324,2.241c.589.3,1.207.639,1.831.993a.079.079,0,0,0,.02,0c4.587-2.146,9.743-13.465,9.743-13.465C762.536,387.009,739.213,396.028,739.213,396.028Z"/><path class="cls-5" d="M778.287,421.856l-3.923.355A7.357,7.357,0,0,0,778.287,421.856Z"/><path class="cls-12" d="M771.594,416.98a28.894,28.894,0,0,1,6.693,4.876s1.987-.219,4.911-.509c1.418-.144,3.055-.3,4.792-.459a59.114,59.114,0,0,0-6.653-17.373S776.181,414.834,771.594,416.98Z"/><path class="cls-13" d="M781.337,403.515a59.114,59.114,0,0,1,6.653,17.373c3.528-.319,7.466-.639,10.815-.813l.07-.125V385.118C773,384.693,781.337,403.515,781.337,403.515Z"/><path class="cls-14" d="M802.185,419.959l4.087,202.75V420.2S802.579,419.952,802.185,419.959Z"/><polygon class="cls-12" points="798.875 385.118 793.465 420.427 798.875 419.95 798.875 385.118"/><path class="cls-15" d="M781.337,403.515l-21.062,9.171,2.688.905s6.268,1.561,8.631,3.389C771.594,416.98,775.615,415.867,781.337,403.515Z"/><path class="cls-15" d="M763.419,577.631l-.015-5.64c-7.931-50.714-17.029-125.165-7.576-153.823,0,0-5.745-4.282,1.4-4.841.325-.03.674-.045,1.053-.055a22.959,22.959,0,0,1,4.682.379v-.06s-9.243-3.374-14.579-6.553C748.386,407.038,741.169,504.637,763.419,577.631Z"/><polygon class="cls-13" points="765.935 422.979 780.056 421.667 782.208 480.69 765.935 422.979"/><path class="cls-15" d="M771.594,416.98v5.483l6.693-.607A61.213,61.213,0,0,0,771.594,416.98Z"/><rect class="cls-15" x="805.523" y="420.2" width="1.497" height="202.51"/><path class="cls-10" d="M873.361,396.028v4.287L789.737,622.709H772.193s-3.074-15.647-6.837-38.53l68.815-183C852.374,387.913,873.361,396.028,873.361,396.028Z"/><path class="cls-10" d="M798.875,385.118v21.666L751.151,533.7a617.914,617.914,0,0,1-12.572-69.934l25.948-69.006a39.19,39.19,0,0,1,16.81,8.76S773,384.693,798.875,385.118Z"/><path class="cls-10" d="M873.281,469.466a620.133,620.133,0,0,1-22.04,101.517l-2.087,5.544-1.217,3.245-16.146,42.937H815.655Z"/><path class="cls-10" d="M828.751,388.781,760.839,569.375q-3.812-12.525-6.908-24.54L800.876,419.99l12.822-34.1.29-.773C821.444,385.033,826.016,386.57,828.751,388.781Z"/><path class="cls-10" d="M877.583,419.181c-.16,4.382-.409,9.378-.783,14.933L805.887,622.709h-4.836Z"/><path class="cls-10" d="M751.446,393.657l-15.6,41.491c-.28-3.993-.489-7.707-.654-11.12l11.21-29.8A48.856,48.856,0,0,1,751.446,393.657Z"/><path class="cls-13" d="M878.462,639.6v5.081H734.082V639.6a16.9,16.9,0,0,1,16.889-16.89h110.6a16.9,16.9,0,0,1,16.89,16.89Z"/><path class="cls-15" d="M872.1,626.4H740.446a16.8,16.8,0,0,1,10.525-3.684h110.6A16.807,16.807,0,0,1,872.1,626.4Z"/></g><g id="Trophy_Third" data-name="Trophy Third"><path class="cls-3" d="M306.9,692.608c-.02-1.444-.02-2.935,0-4.434l.5,0v4.427Z"/><path class="cls-16" d="M347.482,492.875s-.065.2-.189.6c-.015.05-.03.105-.045.16,0,.015-.01.03-.015.05-.015.039-.025.079-.04.119-.325,1.058-.918,2.99-1.722,5.68-.11.364-.225.744-.339,1.138s-.24.794-.365,1.213c-.04.14-.085.284-.125.424q-.576,1.925-1.242,4.2c-.075.265-.155.535-.235.8-.05.175-.105.354-.155.529s-.1.349-.154.524q-.315,1.086-.649,2.231c-.13.444-.26.9-.389,1.358-.1.329-.195.658-.29.993-.075.259-.15.524-.224.788-1.218,4.228-2.566,8.989-4,14.185-.14.5-.28,1.008-.42,1.522-.7,2.551-1.427,5.206-2.166,7.941-.149.549-.3,1.1-.444,1.657q-1.2,4.5-2.46,9.278c-.4,1.532-.8,3.09-1.208,4.662-.055.219-.11.439-.17.658q-.6,2.337-1.208,4.727c-.164.659-.334,1.323-.5,1.991-.145.579-.289,1.158-.439,1.742-.06.24-.12.479-.18.724q-.636,2.538-1.272,5.141-.3,1.212-.6,2.445-.4,1.684-.819,3.384-.7,2.935-1.407,5.924-.232.989-.464,1.992-.936,3.99-1.847,8.045-.428,1.894-.849,3.8c-1.672,7.562-3.279,15.233-4.771,22.874-.265,1.358-.524,2.71-.779,4.068q-.441,2.335-.868,4.662c-.21,1.147-.419,2.3-.619,3.443-1.213,6.843-2.306,13.616-3.244,20.219q-.255,1.8-.489,3.568c-.085.644-.17,1.288-.255,1.927-.579,4.482-1.078,8.874-1.482,13.146-.05.489-.1.978-.135,1.463-.12,1.332-.234,2.655-.334,3.962-.04.5-.08,1.009-.115,1.508-.15,2.076-.274,4.122-.369,6.124-.03.509-.05,1.013-.07,1.517-.02.419-.035.838-.05,1.253-.02.559-.04,1.113-.055,1.667-.01.359-.02.713-.03,1.068-.01.4-.02.8-.025,1.2-.005.339-.01.668-.015,1V490.1c1.043-.314,3.923-.3,7.467-.125,3.349.175,7.287.494,10.815.814,1.737.154,3.374.314,4.792.459,2.924.289,4.911.509,4.911.509a7.351,7.351,0,0,0,3.923.354Z"/><path class="cls-5" d="M339.053,492.106a7.351,7.351,0,0,1-3.923-.354Z"/><path class="cls-17" d="M350.013,641.886c0,.035-.01.065-.015.1-4.582,29.277-8.774,50.619-8.774,50.619H307.145q-.03-2.172,0-4.427c0-.335.01-.664.015-1,0-.4.015-.8.025-1.2.01-.355.02-.709.03-1.068.015-.554.035-1.108.055-1.667.015-.415.03-.834.05-1.253.02-.5.04-1.008.07-1.517.1-2,.219-4.048.369-6.124.035-.5.075-1,.115-1.508.1-1.307.214-2.63.334-3.962.04-.485.085-.974.135-1.463.4-4.272.9-8.664,1.482-13.146.085-.639.17-1.283.255-1.927.16-1.182.324-2.375.489-3.568.938-6.6,2.031-13.376,3.244-20.219.2-1.148.409-2.3.619-3.443q.426-2.33.868-4.662c.255-1.358.514-2.71.779-4.068,1.492-7.641,3.1-15.312,4.771-22.874q.42-1.9.849-3.8.913-4.05,1.847-8.045.231-1,.464-1.992.7-2.986,1.407-5.924.413-1.7.819-3.384.3-1.234.6-2.445.636-2.6,1.272-5.141c.06-.245.12-.484.18-.724.15-.584.294-1.163.439-1.742.165-.668.335-1.332.5-1.991q.607-2.388,1.208-4.727c.06-.219.115-.439.17-.658.4-1.572.808-3.13,1.208-4.662q1.25-4.776,2.46-9.278c.15-.554.295-1.108.444-1.657.739-2.735,1.463-5.39,2.166-7.941.14-.514.28-1.018.42-1.522,1.437-5.2,2.785-9.957,4-14.185.074-.264.149-.529.224-.788.095-.335.19-.664.29-.993.134-.46.264-.914.389-1.358q.336-1.146.649-2.231c.055-.175.105-.349.154-.524s.105-.354.155-.529c.08-.269.16-.539.235-.8q.666-2.268,1.242-4.2c.04-.14.085-.284.125-.424.125-.419.245-.824.365-1.213s.229-.774.339-1.138c.8-2.69,1.4-4.622,1.722-5.68.015-.04.025-.08.04-.119,0-.02.01-.035.015-.05.015-.055.03-.11.045-.16.124-.4.189-.6.189-.6l-8.429-.769-3.923-.354a28.836,28.836,0,0,1,6.693-4.876.079.079,0,0,0,.02,0c.623-.355,1.242-.689,1.831-.993A24.165,24.165,0,0,1,350,483.637l.454-.09a22.954,22.954,0,0,1,4.682-.38c.379.01.728.025,1.053.055,7.147.559,1.4,4.842,1.4,4.842C367.042,516.722,357.944,591.173,350.013,641.886Z"/><path class="cls-17" d="M350,647.526v-5.54c7.936-50.713,17.049-125.244,7.591-153.922,0,0,5.745-4.283-1.4-4.842-.325-.03-.674-.045-1.053-.055a22.7,22.7,0,0,0-5.136.47v0A92.59,92.59,0,0,0,374.2,471.164v0c1.453-1.028,2.925-2.131,4.4-3.309C378.6,467.85,382.035,547.422,350,647.526Z"/><path class="cls-18" d="M374.2,465.924v5.24A92.59,92.59,0,0,1,350,483.632v0a24.165,24.165,0,0,0-6.324,2.241c-.589.3-1.208.638-1.831.993a.079.079,0,0,1-.02,0c-4.587-2.146-9.743-13.466-9.743-13.466C350.881,456.905,374.2,465.924,374.2,465.924Z"/><path class="cls-5" d="M335.13,491.752l3.923.354A7.351,7.351,0,0,1,335.13,491.752Z"/><path class="cls-17" d="M341.823,486.876a28.836,28.836,0,0,0-6.693,4.876s-1.987-.22-4.911-.509c-1.418-.145-3.055-.305-4.792-.459a59.112,59.112,0,0,1,6.653-17.374S337.236,484.73,341.823,486.876Z"/><path class="cls-18" d="M332.08,473.41a59.112,59.112,0,0,0-6.653,17.374c-3.528-.32-7.466-.639-10.815-.814l-.07-.125V455.013C340.42,454.589,332.08,473.41,332.08,473.41Z"/><path class="cls-19" d="M311.232,489.854l-4.087,202.751V490.1S310.838,489.847,311.232,489.854Z"/><polygon class="cls-17" points="314.542 455.013 319.952 490.323 314.542 489.845 314.542 455.013"/><path class="cls-20" d="M332.08,473.41l21.062,9.171-2.688.906s-6.269,1.561-8.631,3.389C341.823,486.876,337.8,485.763,332.08,473.41Z"/><path class="cls-20" d="M350,647.526l.015-5.64c7.931-50.713,17.029-125.164,7.576-153.822,0,0,5.745-4.283-1.4-4.842-.325-.03-.674-.045-1.053-.055a22.954,22.954,0,0,0-4.682.38v-.06s9.243-3.374,14.579-6.553C365.031,476.934,372.248,574.533,350,647.526Z"/><polygon class="cls-18" points="347.482 492.875 333.361 491.563 331.209 550.586 347.482 492.875"/><path class="cls-20" d="M341.823,486.876v5.483l-6.693-.607A61.074,61.074,0,0,1,341.823,486.876Z"/><path class="cls-3" d="M307.365,692.608l-.5,0v-4.427l.5,0C307.385,689.673,307.385,691.164,307.365,692.608Z"/><path class="cls-16" d="M266.778,492.875s.065.2.19.6c.015.05.03.105.045.16,0,.015.01.03.015.05.014.039.024.079.039.119.325,1.058.919,2.99,1.722,5.68.11.364.225.744.34,1.138s.239.794.364,1.213c.04.14.085.284.125.424q.576,1.925,1.243,4.2c.074.265.154.535.234.8.05.175.1.354.155.529s.1.349.155.524q.313,1.086.648,2.231c.13.444.26.9.39,1.358.1.329.194.658.289.993.075.259.15.524.225.788,1.218,4.228,2.565,8.989,4,14.185.139.5.279,1.008.419,1.522.7,2.551,1.427,5.206,2.166,7.941.15.549.3,1.1.444,1.657q1.206,4.5,2.461,9.278c.4,1.532.8,3.09,1.207,4.662.055.219.11.439.17.658q.6,2.337,1.208,4.727c.165.659.334,1.323.5,1.991.145.579.29,1.158.439,1.742.06.24.12.479.18.724q.636,2.538,1.273,5.141.3,1.212.6,2.445c.269,1.123.544,2.251.818,3.384q.7,2.935,1.408,5.924.231.989.464,1.992.936,3.99,1.846,8.045.428,1.894.849,3.8c1.672,7.562,3.279,15.233,4.771,22.874.265,1.358.524,2.71.779,4.068q.441,2.335.868,4.662c.21,1.147.42,2.3.619,3.443,1.213,6.843,2.306,13.616,3.244,20.219q.255,1.8.49,3.568c.084.644.169,1.288.254,1.927.579,4.482,1.078,8.874,1.482,13.146.05.489.1.978.135,1.463.12,1.332.235,2.655.335,3.962.039.5.079,1.009.114,1.508.15,2.076.275,4.122.37,6.124.03.509.05,1.013.07,1.517.019.419.034.838.049,1.253.02.559.04,1.113.055,1.667.01.359.02.713.03,1.068.01.4.02.8.025,1.2,0,.339.01.668.015,1V490.1c-1.043-.314-3.923-.3-7.466-.125-3.349.175-7.287.494-10.816.814-1.737.154-3.374.314-4.791.459-2.925.289-4.911.509-4.911.509a7.353,7.353,0,0,1-3.923.354Z"/><path class="cls-5" d="M275.208,492.106a7.353,7.353,0,0,0,3.923-.354Z"/><path class="cls-17" d="M264.248,641.886c0,.035.01.065.014.1,4.582,29.277,8.775,50.619,8.775,50.619h34.078q.03-2.172,0-4.427c0-.335-.01-.664-.015-1,0-.4-.015-.8-.025-1.2-.01-.355-.02-.709-.03-1.068-.015-.554-.035-1.108-.055-1.667-.015-.415-.03-.834-.049-1.253-.02-.5-.04-1.008-.07-1.517-.095-2-.22-4.048-.37-6.124-.035-.5-.075-1-.114-1.508-.1-1.307-.215-2.63-.335-3.962-.04-.485-.085-.974-.135-1.463-.4-4.272-.9-8.664-1.482-13.146-.085-.639-.17-1.283-.254-1.927-.16-1.182-.325-2.375-.49-3.568-.938-6.6-2.031-13.376-3.244-20.219q-.306-1.722-.619-3.443-.426-2.33-.868-4.662c-.255-1.358-.514-2.71-.779-4.068-1.492-7.641-3.1-15.312-4.771-22.874q-.42-1.9-.849-3.8-.912-4.05-1.846-8.045-.232-1-.464-1.992-.7-2.986-1.408-5.924c-.274-1.133-.549-2.261-.818-3.384q-.3-1.234-.6-2.445-.637-2.6-1.273-5.141c-.06-.245-.12-.484-.18-.724-.149-.584-.294-1.163-.439-1.742-.165-.668-.334-1.332-.5-1.991q-.606-2.388-1.208-4.727c-.06-.219-.115-.439-.17-.658-.4-1.572-.808-3.13-1.207-4.662q-1.251-4.776-2.461-9.278c-.15-.554-.294-1.108-.444-1.657-.739-2.735-1.462-5.39-2.166-7.941-.14-.514-.28-1.018-.419-1.522-1.438-5.2-2.785-9.957-4-14.185-.075-.264-.15-.529-.225-.788-.1-.335-.189-.664-.289-.993-.135-.46-.265-.914-.39-1.358q-.336-1.146-.648-2.231c-.055-.175-.1-.349-.155-.524s-.105-.354-.155-.529c-.08-.269-.16-.539-.234-.8q-.668-2.268-1.243-4.2c-.04-.14-.085-.284-.125-.424-.125-.419-.244-.824-.364-1.213s-.23-.774-.34-1.138c-.8-2.69-1.4-4.622-1.722-5.68-.015-.04-.025-.08-.039-.119,0-.02-.01-.035-.015-.05-.015-.055-.03-.11-.045-.16-.125-.4-.19-.6-.19-.6l8.43-.769,3.923-.354a28.858,28.858,0,0,0-6.693-4.876.079.079,0,0,1-.02,0c-.624-.355-1.243-.689-1.832-.993a24.139,24.139,0,0,0-6.324-2.241l-.454-.09a22.95,22.95,0,0,0-4.681-.38c-.38.01-.729.025-1.053.055-7.147.559-1.4,4.842-1.4,4.842C247.218,516.722,256.317,591.173,264.248,641.886Z"/><path class="cls-17" d="M264.262,647.526v-5.54c-7.935-50.713-17.049-125.244-7.591-153.922,0,0-5.744-4.283,1.4-4.842.324-.03.673-.045,1.053-.055a22.682,22.682,0,0,1,5.135.47v0a92.59,92.59,0,0,1-24.206-12.468v0c-1.452-1.028-2.925-2.131-4.4-3.309C235.659,467.85,232.225,547.422,264.262,647.526Z"/><path class="cls-18" d="M240.056,465.924v5.24a92.59,92.59,0,0,0,24.206,12.468v0a24.139,24.139,0,0,1,6.324,2.241c.589.3,1.208.638,1.832.993a.079.079,0,0,0,.02,0c4.586-2.146,9.742-13.466,9.742-13.466C263.379,456.905,240.056,465.924,240.056,465.924Z"/><path class="cls-5" d="M279.131,491.752l-3.923.354A7.353,7.353,0,0,0,279.131,491.752Z"/><path class="cls-17" d="M272.438,486.876a28.858,28.858,0,0,1,6.693,4.876s1.986-.22,4.911-.509c1.417-.145,3.054-.305,4.791-.459a59.112,59.112,0,0,0-6.653-17.374S277.024,484.73,272.438,486.876Z"/><path class="cls-18" d="M282.18,473.41a59.112,59.112,0,0,1,6.653,17.374c3.529-.32,7.467-.639,10.816-.814l.07-.125V455.013C273.84,454.589,282.18,473.41,282.18,473.41Z"/><path class="cls-19" d="M303.029,489.854l4.086,202.751V490.1S303.423,489.847,303.029,489.854Z"/><polygon class="cls-17" points="299.719 455.013 294.308 490.323 299.719 489.845 299.719 455.013"/><path class="cls-20" d="M282.18,473.41l-21.062,9.171,2.688.906s6.269,1.561,8.632,3.389C272.438,486.876,276.458,485.763,282.18,473.41Z"/><path class="cls-20" d="M264.262,647.526l-.014-5.64c-7.931-50.713-17.03-125.164-7.577-153.822,0,0-5.744-4.283,1.4-4.842.324-.03.673-.045,1.053-.055a22.95,22.95,0,0,1,4.681.38v-.06s-9.243-3.374-14.578-6.553C249.23,476.934,242.013,574.533,264.262,647.526Z"/><polygon class="cls-18" points="266.778 492.875 280.899 491.563 283.052 550.586 266.778 492.875"/><path class="cls-20" d="M272.438,486.876v5.483l6.693-.607A61.074,61.074,0,0,0,272.438,486.876Z"/><rect class="cls-20" x="306.367" y="490.095" width="1.497" height="202.51"/><path class="cls-10" d="M374.2,465.924v4.287L290.58,692.605H273.037s-3.075-15.647-6.838-38.531l68.816-183C353.217,457.808,374.2,465.924,374.2,465.924Z"/><path class="cls-10" d="M299.718,455.013v21.666L252,603.59a618.162,618.162,0,0,1-12.573-69.934l25.949-69a39.19,39.19,0,0,1,16.809,8.759S273.84,454.589,299.718,455.013Z"/><path class="cls-10" d="M374.124,539.361a619.984,619.984,0,0,1-22.04,101.517L350,646.423l-1.218,3.244-16.146,42.938H316.5Z"/><path class="cls-10" d="M329.6,458.677,261.682,639.271q-3.81-12.525-6.907-24.541L301.72,489.885l12.822-34.1.289-.774C322.288,454.928,326.86,456.466,329.6,458.677Z"/><path class="cls-10" d="M378.427,489.077c-.16,4.382-.41,9.378-.784,14.933l-70.912,188.6H301.9Z"/><path class="cls-10" d="M252.289,463.553l-15.6,41.49c-.279-3.993-.489-7.706-.654-11.12l11.21-29.8A48.582,48.582,0,0,1,252.289,463.553Z"/><path class="cls-18" d="M379.305,709.5v5.081H234.925V709.5a16.894,16.894,0,0,1,16.89-16.889h110.6a16.894,16.894,0,0,1,16.89,16.889Z"/><path class="cls-20" d="M372.941,696.293H241.289a16.807,16.807,0,0,1,10.526-3.683h110.6A16.8,16.8,0,0,1,372.941,696.293Z"/></g><g id="Leaderboard"><path class="cls-21" d="M921.74,662.672v89.82c-.44.88-.88,1.76-1.35,2.64-12.64,24.56-30.79,47.4-53.45,67.9h-.01c-1.03.93-2.07,1.86-3.12,2.78-24.6,21.62-54.28,40.51-87.85,55.88q-1.845.855-3.72,1.68a465.644,465.644,0,0,1-71.18,24.93q-2.82.75-5.67,1.46c-2.74.69-5.51,1.36-8.28,2.01-3.06.72-6.14,1.42-9.24,2.08h-.02l-.28.06V662.672Z"/><rect class="cls-21" x="667.453" y="644.685" width="264.411" height="20.796"/><path class="cls-21" d="M433.66,735.922v175.15c-.29-.07-.57-.14-.85-.21-3.12-.75-6.23-1.53-9.31-2.34q-5.19-1.365-10.3-2.82c-1.64-.47-3.28-.94-4.9-1.42q-16.77-4.98-32.65-10.98c-1.33-.5-2.65-1-3.96-1.52-1.55-.6-3.09-1.2-4.63-1.82-9.29-3.73-18.68-7.23-28.12-10.59a238.706,238.706,0,0,1-46.33-22.51,50.307,50.307,0,0,1-12.81-6.6A50.831,50.831,0,0,1,266.25,838a308.253,308.253,0,0,1-61.22-67.74c-.78-1.15-1.55-2.31-2.3-3.47q-6.96-10.605-13.24-21.91v-8.96Z"/><rect class="cls-21" x="179.375" y="714.579" width="264.411" height="20.796"/><path class="cls-21" d="M677.87,575.222v338.63h-.02l-.28.06q-12.2,2.61-24.74,4.68c-1.5.25-3.01.49-4.52.72a567.161,567.161,0,0,1-180.26-1.2l-3.95-.69q-15.465-2.76-30.41-6.35V575.222Z"/><path class="cls-22" d="M401.14,766.312c-1.29,12.12-17.81,14.47-23.25,15.24a279.486,279.486,0,0,0-51.08,12.27c-4.21,1.44-8.2,2.99-10.78,6.02a11.6,11.6,0,0,0-2.48,9.91c1.04,6.29,5.88,12.97,12.04,16.61a86.823,86.823,0,0,0,13.93,6.16c6.33,2.38,12.87,4.83,18.41,9.08,15.83,12.13,18.16,33.96,17.72,51.7-1.33-.5-2.65-1-3.96-1.52.26-16.54-2.16-36.25-16.19-47.01-5.07-3.89-11.05-6.13-17.38-8.5a90.222,90.222,0,0,1-14.57-6.46c-7.12-4.22-12.72-12.02-13.95-19.41a15.654,15.654,0,0,1,3.38-13.16c3.24-3.79,7.97-5.64,12.54-7.2a282.974,282.974,0,0,1,51.81-12.45c12.52-1.78,19.2-5.72,19.83-11.7.84-7.85-9.2-12.69-18.04-14.45-58.44-11.62-119.19,1.45-174.09,18.82-.78-1.15-1.55-2.31-2.3-3.47,55.66-17.7,117.46-31.15,177.17-19.28C390.4,749.6,402.26,755.782,401.14,766.312Z"/><path class="cls-22" d="M712.31,886.282a143.424,143.424,0,0,1-11.25,22.02q-2.82.75-5.67,1.46a143,143,0,0,0,13.21-24.97c10.42-25.94,10.02-53.62-1.08-74.06-5.9-10.88-17.08-21.33-29.65-22.56a1.526,1.526,0,0,0-.3-.03,24.687,24.687,0,0,0-7.67.52,50.5,50.5,0,0,0-10.28,3.99c-1.61.76-3.28,1.55-4.97,2.25a58.943,58.943,0,0,1-42.1,1.09,10.668,10.668,0,0,1-2.44-1.2c-6.23-4.21-2.76-10.89-1.45-13.41,3.19-6.14,6.54-12.32,9.79-18.3,9.37-17.28,19.07-35.15,25.76-53.86,7.19-20.09,13.64-49.88,3.54-77.75-.58-1.6-1.31-3.4-2.57-4.33-1.7-1.26-4.38-1.03-7.01-.59-48.23,8.03-90.74,44.68-105.78,91.2-.76,2.36-1.48,4.82-2.18,7.19-2.85,9.66-5.8,19.66-12.47,27.52-6.38,7.53-15.47,12.16-23.5,16.25l-46.99,23.93c-4.41,2.24-9.03,4.6-13.56,7.24a.037.037,0,0,0-.03.01c-8.05,4.67-15.81,10.21-21.55,17.55-20.51,26.19-8.48,64.56-2.36,79.84.61,1.53,1.25,3.07,1.88,4.61.52,1.26,1.05,2.53,1.57,3.81-1.64-.47-3.28-.94-4.9-1.42l-.36-.87c-.64-1.55-1.28-3.1-1.9-4.65-6.38-15.92-18.87-55.96,2.92-83.79,6.64-8.48,15.6-14.59,24.7-19.69a.037.037,0,0,1,.03-.01c3.95-2.22,7.92-4.24,11.74-6.19l47-23.94c7.69-3.91,16.4-8.35,22.26-15.26,6.12-7.22,8.95-16.81,11.68-26.07.71-2.4,1.44-4.88,2.22-7.29,15.48-47.9,59.26-85.65,108.92-93.92,3.51-.58,7.15-.83,10.05,1.33,2.16,1.59,3.17,4.02,3.95,6.18,10.5,28.98,3.88,59.75-3.53,80.45-6.8,19.01-16.57,37.01-26.02,54.43-3.23,5.96-6.58,12.13-9.75,18.23-2.34,4.52-2.31,6.6.14,8.26a6.787,6.787,0,0,0,1.55.75,54.941,54.941,0,0,0,39.21-1.02c1.6-.67,3.23-1.44,4.8-2.18a54.772,54.772,0,0,1,11.1-4.28,28.035,28.035,0,0,1,8.56-.61,1.012,1.012,0,0,1,.3.02c14.2,1.23,26.66,12.69,33.17,24.66C722.69,830.292,723.17,859.252,712.31,886.282Z"/><path class="cls-22" d="M652.83,918.592c-1.5.25-3.01.49-4.52.72,2.85-7.57,4.97-16.95,2.29-26.17a22.451,22.451,0,0,0-10.03-13.4c-7.55-4.37-15.49-2.27-23.9-.05-6.4,1.69-13.01,3.43-19.7,2.3-17.38-2.95-25.38-23.07-26.95-39.41a127.442,127.442,0,0,1,1.45-34.99c.25-1.37.52-2.74.79-4.12,1.65-8.34,3.21-16.23,0-23.96a13.959,13.959,0,0,0-7.94-7.97c-7.91-2.85-14.47,3.51-17.96,10.41-2.99,5.9-4.61,12.62-6.17,19.13-1.97,8.21-4.01,16.69-8.82,23.94-5.31,8.01-13.29,13.43-21.01,18.68-5.19,3.53-10.56,7.18-14.97,11.55-9.17,9.06-14.38,21.21-18.27,31.9a252.187,252.187,0,0,0-9.07,30.96l-3.95-.69a255.7,255.7,0,0,1,9.26-31.64c4.04-11.1,9.49-23.75,19.22-33.38,4.67-4.62,10.19-8.37,15.53-12.01,7.74-5.26,15.05-10.23,19.93-17.59,4.42-6.65,6.29-14.42,8.26-22.65,1.62-6.73,3.29-13.69,6.49-20.01,4.07-8.04,12.51-16.1,22.88-12.37a18.028,18.028,0,0,1,10.29,10.21c3.67,8.85,1.92,17.7.23,26.27-.27,1.35-.54,2.7-.78,4.05A123.47,123.47,0,0,0,574,842.2c1.44,14.93,8.49,33.28,23.64,35.85,5.83.98,11.75-.58,18.01-2.23,8.82-2.33,17.95-4.74,26.92.46a26.421,26.421,0,0,1,11.87,15.74C657.18,901.442,655.49,910.812,652.83,918.592Z"/><g id="Logo_tokyo_Olympic" data-name="Logo tokyo Olympic"><path class="cls-23" d="M494.853,782.281a24.972,24.972,0,0,1-15.846,6.131,38.53,38.53,0,0,0,.336,13.292,37.943,37.943,0,0,0,13.039-2.614,25.077,25.077,0,0,1,2.471-16.809Z"/><path class="cls-23" d="M516.818,763.331a38.351,38.351,0,0,1-24.436,35.759,25.077,25.077,0,0,1,2.471-16.809,25.208,25.208,0,0,0,5.7-7.125,25.086,25.086,0,1,0-22.119,13.262c.193,0,.386,0,.575-.006a38.53,38.53,0,0,0,.336,13.292c-.3.01-.608.013-.911.013a38.392,38.392,0,1,1,38.386-38.386Z"/><path d="M529.9,763.331a24.961,24.961,0,0,1,.539-5.17,38.094,38.094,0,0,0-13.079-2.434,37.231,37.231,0,0,0-.652,4.758c-.07.941-.106,1.888-.106,2.846s.036,1.918.106,2.862.176,1.895.316,2.826a24.945,24.945,0,0,1,15.453,5.383A24.945,24.945,0,0,1,529.9,763.331Z"/><path d="M567.685,794.107a24.863,24.863,0,0,0,.556,5.253,38.126,38.126,0,0,1-13.1,2.354c-.05,0-.1,0-.153,0-.13,0-.259,0-.389-.007a37.953,37.953,0,0,1-13.079-2.433,38.487,38.487,0,0,1-24.5-30.258,24.945,24.945,0,0,1,15.453,5.383,25.254,25.254,0,0,0,7,8.634,24.97,24.97,0,0,0,15.326,5.382h.183a24.948,24.948,0,0,0,15.13-5.09A24.928,24.928,0,0,0,567.685,794.107Z"/><path class="cls-24" d="M606.464,763.331a24.993,24.993,0,0,1,.482-4.9,38.058,38.058,0,0,0-13.026-2.693,37.38,37.38,0,0,0-.645,4.717q-.109,1.422-.11,2.873t.11,2.876v.01q.105,1.425.313,2.819a24.977,24.977,0,0,1,16.068,6.526A24.883,24.883,0,0,1,606.464,763.331Z"/><path class="cls-24" d="M669.941,763.331a38.429,38.429,0,0,1-38.386,38.386c-.382,0-.765-.007-1.147-.02A38.058,38.058,0,0,1,617.382,799a38.5,38.5,0,0,1-23.794-29.968,24.977,24.977,0,0,1,16.068,6.526,25.135,25.135,0,0,0,21.084,12.843c.273.01.542.013.815.013a25.088,25.088,0,1,0-24.609-29.984,38.058,38.058,0,0,0-13.026-2.693,38.39,38.39,0,0,1,76.021,7.59Z"/><path class="cls-25" d="M592.773,819.2a25.131,25.131,0,0,1-24.532-19.838,25.068,25.068,0,0,1,1.881-16.032,25.237,25.237,0,0,1,7.524-9.222,25.07,25.07,0,0,0,1.882-16.028,38.388,38.388,0,1,0,50.88,43.619A38.058,38.058,0,0,1,617.382,799,25.126,25.126,0,0,1,592.773,819.2Zm.608-55.867q0,1.451-.106,2.876v.01q-.1,1.416-.316,2.805c.21,0,.419.007.629.014a25.115,25.115,0,0,1,21.081,12.836,24.977,24.977,0,0,0,16.071,6.533,38.5,38.5,0,0,0-23.794-29.971,38.058,38.058,0,0,0-13.026-2.693c-.382-.014-.765-.02-1.147-.02-.05,0-.1,0-.15,0a38.214,38.214,0,0,1,.652,4.734Q593.38,761.88,593.381,763.331Z"/><path d="M593.381,763.331a38.364,38.364,0,0,1-25.14,36.029,25.068,25.068,0,0,1,1.881-16.032,25.219,25.219,0,0,0,7.524-9.222,25.087,25.087,0,1,0-47.2-15.945,38.094,38.094,0,0,0-13.079-2.434,38.387,38.387,0,0,1,76.017,7.6Z"/><path class="cls-26" d="M516.971,819.2a25.078,25.078,0,0,1-16.42-44.042,25.063,25.063,0,0,0,2.47-16.809A38.388,38.388,0,1,0,554.6,801.71a37.953,37.953,0,0,1-13.079-2.433A25.128,25.128,0,0,1,516.971,819.2Zm-.153-55.867q0,1.446-.106,2.862t-.316,2.833c.19,0,.383-.007.575-.007h.057a25.15,25.15,0,0,1,22.455,14.017,24.957,24.957,0,0,0,15.456,5.382,38.5,38.5,0,0,0-24.5-30.257,38.094,38.094,0,0,0-13.079-2.434c-.13-.006-.263-.006-.393-.006-.3,0-.608,0-.911.013a37.2,37.2,0,0,1,.652,4.751C516.782,761.426,516.818,762.373,516.818,763.331Z"/></g><path class="cls-22" d="M921.74,711.822v4c-4.24.24-8.53.53-12.84.82-20.71,1.39-42.14,2.82-62.64-.16-13.2-1.92-26.16-5.72-38.69-9.4-8.08-2.37-16.44-4.82-24.75-6.73-25.8-5.93-46.29-4.89-62.62,3.17a14.15,14.15,0,0,0-4.71,3.29c-1.87,2.24-2.3,5.57-2.49,8.83a98.156,98.156,0,0,0,11.51,51.96c4.22,7.87,9.61,15.29,14.82,22.45a227.867,227.867,0,0,1,13.57,20.14c11.64,20.22,16.82,43.48,21.83,65.98l1.23,5.52q-1.845.855-3.72,1.68-.72-3.18-1.42-6.33c-4.94-22.2-10.05-45.16-21.38-64.86a227.944,227.944,0,0,0-13.34-19.77c-5.29-7.28-10.76-14.81-15.11-22.92a101.991,101.991,0,0,1-11.98-54.08c.23-3.94.79-8.02,3.4-11.16a17.47,17.47,0,0,1,6.02-4.31c17.19-8.49,38.55-9.64,65.29-3.49,8.42,1.94,16.84,4.4,24.98,6.79,12.4,3.64,25.22,7.4,38.14,9.28,20.08,2.92,41.29,1.5,61.8.13C912.99,712.362,917.36,712.072,921.74,711.822Z"/><path class="cls-22" d="M921.74,751.332v1.16c-.44.88-.88,1.76-1.35,2.64a402.409,402.409,0,0,0-140.3-3.88,13.508,13.508,0,0,0-2.65.62,7.525,7.525,0,0,0-4.66,4.08c-1.52,3.46-.81,8.92,2.05,15.77,3.66,8.75,7.44,17.79,13.64,25.02,6.69,7.81,15.58,12.09,23.76,11.45a44.046,44.046,0,0,0,5.37-.87,46.8,46.8,0,0,1,6.39-.97c7.51-.4,14.46,2.73,20.6,5.51,7.6,3.44,15.23,7.05,22.34,11.17-1.03.93-2.07,1.86-3.12,2.78-6.55-3.7-13.62-7.03-20.87-10.31-5.72-2.58-12.22-5.51-18.73-5.15a41.1,41.1,0,0,0-5.82.89,47.285,47.285,0,0,1-5.85.93c-9.45.73-19.59-4.05-27.11-12.82-6.61-7.71-10.51-17.06-14.29-26.09-3.34-8-4.02-14.36-2.02-18.92a11.441,11.441,0,0,1,6.96-6.23,18.174,18.174,0,0,1,3.41-.82A406.3,406.3,0,0,1,921.74,751.332Z"/><path class="cls-22" d="M551.61,604.992c0,7.09-6.65,14.05-9.51,16.71l-64.05,59.64c-4.62,4.3-9.86,9.18-16.33,11.74s-13.63,2.58-19.94,2.61l-8.09.03v-4l8.07-.03c6.25-.03,12.71-.05,18.49-2.33s10.5-6.69,15.07-10.95l64.05-59.63c5.16-4.81,8.24-9.96,8.24-13.79a6.286,6.286,0,0,0-2.17-4.79,9.577,9.577,0,0,0-6.56-2.43l-3.09-.02c-22.99-.11-46.76-.22-67.79,8.58a170.978,170.978,0,0,0-19.56,10.28c-4.79,2.78-9.67,5.62-14.75,8.1v-4.47c4.35-2.21,8.58-4.67,12.74-7.09a175.28,175.28,0,0,1,20.02-10.51c21.79-9.12,45.97-9,69.36-8.89l3.08.02a13.6,13.6,0,0,1,9.28,3.5A10.243,10.243,0,0,1,551.61,604.992Z"/><rect class="cls-27" x="677.86" y="918.522" width="0.01" height="3.41"/><rect class="cls-21" x="423.575" y="554.425" width="264.411" height="20.796"/><polygon class="cls-28" points="677.863 575.222 433.698 587.393 433.698 575.222 677.863 575.222"/><polygon class="cls-28" points="921.741 665.477 921.741 684.396 677.577 665.477 921.741 665.477"/><polygon class="cls-29" points="189.498 735.372 189.498 750.187 433.663 735.372 189.498 735.372"/><path class="cls-28" d="M677.87,913.852h-.02l-.06-48.67v-5.1l-.22-181.1.3,7.14L685,860.082l.13,3.38.01.22.06,1.5,1.91,46.59C684.05,912.492,680.97,913.192,677.87,913.852Z"/><path class="cls-28" d="M433.66,759.332l-.56,100.75-.02,2.55-.01.95-.01,1.6-.25,45.68c-3.12-.75-6.23-1.53-9.31-2.34l2.95-43.34.11-1.6.07-.95.17-2.55Z"/><circle class="cls-9" cx="555.067" cy="662.673" r="50.78"/><circle class="cls-6" cx="552.407" cy="660.9" r="50.78"/><path class="cls-9" d="M593.405,660.9a40.988,40.988,0,1,1-11.094-28.057A41,41,0,0,1,593.405,660.9Z"/><path class="cls-4" d="M593.405,660.9a38.073,38.073,0,1,1-11.094-28.057A41,41,0,0,1,593.405,660.9Z"/><path class="cls-9" d="M560.1,692.541h-8.381V641.926l-8.5,5.217v-8.669l8.5-5.669H560.1Z"/><path class="cls-6" d="M558.326,690.768h-8.381V640.152l-8.5,5.218V636.7l8.5-5.67h8.381Z"/><polygon class="cls-9" points="558.326 631.031 560.1 632.805 558.326 632.805 558.326 631.031"/><polygon class="cls-9" points="543.214 644.282 541.441 645.37 543.214 647.143 543.214 644.282"/><polygon class="cls-9" points="549.945 690.768 551.719 692.541 551.719 690.768 549.945 690.768"/><path class="cls-20" d="M359.97,808.852a50.756,50.756,0,1,1-24.04-43.18.209.209,0,0,1,.06.04A50.733,50.733,0,0,1,359.97,808.852Z"/><path class="cls-17" d="M357.31,807.082a50.79,50.79,0,0,1-67.65,47.9,49.139,49.139,0,0,1-9.86-4.72,50.784,50.784,0,1,1,56.13-84.59.209.209,0,0,1,.06.04A50.7,50.7,0,0,1,357.31,807.082Z"/><path class="cls-20" d="M347.531,807.084a40.988,40.988,0,1,1-11.093-28.056A41,41,0,0,1,347.531,807.084Z"/><path class="cls-16" d="M347.531,807.084a38.072,38.072,0,1,1-11.093-28.056A41,41,0,0,1,347.531,807.084Z"/><path class="cls-20" d="M323.49,813.022a11.571,11.571,0,0,0-2.19-2.33,13.219,13.219,0,0,0-5.57-2.59,14.3,14.3,0,0,0,1.55-.62,13.492,13.492,0,0,0,5.48-4.35,13.222,13.222,0,0,0,2.48-7.99v-1.01q0-7.575-4.33-11.74-.36-.345-.75-.66l-.01-.01q-4.23-3.48-11.49-3.49a17.506,17.506,0,0,0-8.2,1.85,15.357,15.357,0,0,0-5.91,5.43,20.882,20.882,0,0,0-2.82,6.81q-.21.855-.36,1.77h8.71a11.4,11.4,0,0,1,1.75-4.27,7.493,7.493,0,0,1,2.92-2.53,9.084,9.084,0,0,1,3.91-.82,8.907,8.907,0,0,1,5.05,1.3l.01.01a5.445,5.445,0,0,1,.85.67,7.346,7.346,0,0,1,2.09,5.6v1.89a8.606,8.606,0,0,1-1.98,6.06,7.174,7.174,0,0,1-5.55,2.14h-4.34v8.17h4.34a8.775,8.775,0,0,1,5.04,1.37.035.035,0,0,1,.01.02,6.6,6.6,0,0,1,1.26,1.11c1.48,1.67,2.23,4.03,2.23,7.09v1.85a8.491,8.491,0,0,1-2.36,6.4,9.134,9.134,0,0,1-6.6,2.27,12.493,12.493,0,0,1-4.7-.82,7.64,7.64,0,0,1-3.26-2.51c-.03-.05-.07-.09-.1-.14a9.493,9.493,0,0,1-1.54-4.15h-8.75a19.484,19.484,0,0,0,3.01,8.56,14.167,14.167,0,0,0,1.1,1.45,15.392,15.392,0,0,0,5.19,3.98c.03.01.05.03.08.04a18.73,18.73,0,0,0,8.09,1.83h.88a20.875,20.875,0,0,0,9.48-1.97,13.611,13.611,0,0,0,6-5.77,18.862,18.862,0,0,0,2.06-9.13v-1.01A16.282,16.282,0,0,0,323.49,813.022Z"/><path class="cls-17" d="M321.72,811.252c-.14-.19-.28-.38-.42-.56a11.957,11.957,0,0,0-4.02-3.21,14.6,14.6,0,0,0-3.32-1.15,14.011,14.011,0,0,0,7.02-4.97,13.184,13.184,0,0,0,2.49-7.99v-1.01q0-6.615-3.31-10.63l-.01-.01a13.281,13.281,0,0,0-1.02-1.1q-4.335-4.17-12.24-4.17a17.6,17.6,0,0,0-8.2,1.85,15.611,15.611,0,0,0-5.92,5.43,22.412,22.412,0,0,0-3.17,8.59h8.71a11.443,11.443,0,0,1,1.74-4.28,7.575,7.575,0,0,1,2.93-2.52,8.941,8.941,0,0,1,3.91-.82,8.247,8.247,0,0,1,5.91,1.98,5.919,5.919,0,0,1,.91,1.09l.01.01a8.119,8.119,0,0,1,1.16,4.49v1.9a8.667,8.667,0,0,1-1.97,6.06,7.182,7.182,0,0,1-5.56,2.14h-4.33v8.16h4.33a8,8,0,0,1,6.31,2.51,6.507,6.507,0,0,1,.51.64.035.035,0,0,1,.01.02,10.905,10.905,0,0,1,1.71,6.43v1.85a8.448,8.448,0,0,1-2.35,6.39,9.117,9.117,0,0,1-6.61,2.27,12.246,12.246,0,0,1-4.69-.82,7.172,7.172,0,0,1-1.59-.87,7.374,7.374,0,0,1-1.67-1.63,8.142,8.142,0,0,1-1.25-2.52s-.01-.04-.03-.1-.03-.12-.05-.2a6.035,6.035,0,0,1-.15-.61,1.742,1.742,0,0,1-.05-.22c-.04-.21-.08-.42-.11-.64h-8.75a19.484,19.484,0,0,0,3.01,8.56,15.011,15.011,0,0,0,2.87,3.22,15.545,15.545,0,0,0,3.42,2.21.251.251,0,0,1,.07.04,18.886,18.886,0,0,0,8.1,1.83h.87a20.917,20.917,0,0,0,9.49-1.98,13.641,13.641,0,0,0,6-5.76,18.916,18.916,0,0,0,2.06-9.13v-1.01A16.261,16.261,0,0,0,321.72,811.252Z"/><polygon class="cls-20" points="289.598 792.317 291.371 794.091 291.951 792.317 289.598 792.317"/><polygon class="cls-20" points="303.019 810.535 304.793 812.308 304.793 810.535 303.019 810.535"/><path class="cls-30" d="M297.339,823.031l1.774,1.773h-1.382A14.471,14.471,0,0,1,297.339,823.031Z"/><circle class="cls-15" cx="804.672" cy="751.074" r="50.78"/><circle class="cls-12" cx="802.012" cy="749.3" r="50.78"/><path class="cls-15" d="M843.009,749.3a40.988,40.988,0,1,1-11.093-28.056A41,41,0,0,1,843.009,749.3Z"/><path class="cls-11" d="M843.009,749.3a38.072,38.072,0,1,1-11.093-28.056A41,41,0,0,1,843.009,749.3Z"/><path class="cls-15" d="M788.4,773.968l20.571-27.428a20.456,20.456,0,0,0,2.779-4.889,13.024,13.024,0,0,0,.994-4.727v-.081a7.16,7.16,0,0,0-2.069-5.478,8.263,8.263,0,0,0-5.884-1.947,8.109,8.109,0,0,0-5.842,2.13,9.684,9.684,0,0,0-2.719,6.025v.041H787.67v-.041a22.047,22.047,0,0,1,2.982-8.663,15.172,15.172,0,0,1,5.823-5.477,17.366,17.366,0,0,1,8.236-1.887,20.547,20.547,0,0,1,9.008,1.806,12.682,12.682,0,0,1,5.68,5.255,16.656,16.656,0,0,1,1.948,8.317v.041a18.32,18.32,0,0,1-1.3,6.532,28.078,28.078,0,0,1-3.611,6.573l-17.081,23.208h22.315v7.871H788.4Z"/><path class="cls-12" d="M786.627,772.2,807.2,744.767a20.428,20.428,0,0,0,2.779-4.89,13,13,0,0,0,.994-4.726v-.082a7.154,7.154,0,0,0-2.069-5.477,8.254,8.254,0,0,0-5.883-1.948,8.116,8.116,0,0,0-5.843,2.13,9.678,9.678,0,0,0-2.718,6.026v.04H785.9v-.04a22.031,22.031,0,0,1,2.982-8.663,15.162,15.162,0,0,1,5.822-5.477,17.367,17.367,0,0,1,8.237-1.887,20.543,20.543,0,0,1,9.007,1.8,12.691,12.691,0,0,1,5.681,5.255,16.67,16.67,0,0,1,1.947,8.318v.04a18.349,18.349,0,0,1-1.3,6.533,28.109,28.109,0,0,1-3.611,6.572l-17.082,23.209H819.9v7.871H786.627Z"/><polygon class="cls-15" points="785.897 735.84 787.67 737.573 788.401 735.84 785.897 735.84"/><polygon class="cls-15" points="786.627 779.376 788.401 781.149 788.401 779.376 786.627 779.376"/><polygon class="cls-15" points="819.898 771.505 821.671 773.278 819.898 773.278 819.898 771.505"/></g><g id="Blink"><path class="cls-3" d="M501.824,353.265c.112-.607-9.138-26.621-19.79-34.887-10.122-7.855-34.382-2.982-35.233-2.636,2.933-.894,25.2-4.5,33.016-15.39,5.97-8.325,7.157-28.179,7.463-31.6-.044,1.622-.172,25.624,9.81,33.241,9.248,7.058,31.8,4.693,33.552,4.282-2.288.486-24.99,3.076-33.09,13.822C490.553,329.386,501.837,350.548,501.824,353.265Z"/><path class="cls-3" d="M585.657,509.441c.276-.191,6.672-13.771,5.729-21.04-.9-6.908-12.123-14.321-12.584-14.514,1.475.779,11.449,7.919,18.634,6.709,5.492-.924,13.556-8.13,14.982-9.331-.638.609-9.881,9.82-8.948,16.583.864,6.265,10.471,13.992,11.3,14.5-1.068-.689-10.819-8.386-18.061-7.343C590.456,495.911,586.7,508.4,585.657,509.441Z"/><path class="cls-3" d="M841.661,569.674c.276-.191,6.672-13.771,5.729-21.041-.9-6.908-12.123-14.32-12.584-14.513,1.474.779,11.448,7.919,18.633,6.709,5.493-.925,13.556-8.13,14.983-9.331-.638.609-9.882,9.82-8.949,16.583.865,6.265,10.472,13.992,11.305,14.5-1.069-.689-10.82-8.386-18.061-7.343C846.46,556.144,842.707,568.631,841.661,569.674Z"/><path class="cls-3" d="M255.068,673.162c.276-.191,6.672-13.771,5.729-21.04-.9-6.908-12.123-14.321-12.584-14.514,1.474.779,11.448,7.919,18.633,6.709,5.493-.924,13.556-8.13,14.983-9.331-.638.609-9.882,9.82-8.949,16.583.865,6.265,10.472,13.992,11.305,14.5-1.069-.689-10.82-8.386-18.061-7.343C259.867,659.632,256.114,672.119,255.068,673.162Z"/><path class="cls-3" d="M268.754,412.657c.276-.191,6.672-13.771,5.728-21.041-.9-6.908-12.122-14.32-12.583-14.513,1.474.779,11.448,7.919,18.633,6.709,5.493-.925,13.556-8.13,14.983-9.331-.639.609-9.882,9.82-8.949,16.583.865,6.265,10.472,13.992,11.305,14.5-1.069-.689-10.82-8.386-18.061-7.343C273.553,399.127,269.8,411.614,268.754,412.657Z"/><path class="cls-1" d="M663.6,482.641c.276-.191,6.672-13.771,5.729-21.041-.9-6.908-12.123-14.321-12.584-14.513,1.475.779,11.449,7.919,18.634,6.709,5.492-.925,13.556-8.13,14.982-9.331-.638.609-9.881,9.82-8.948,16.583.864,6.265,10.471,13.992,11.3,14.5-1.068-.689-10.819-8.386-18.061-7.343C668.4,469.111,664.65,481.6,663.6,482.641Z"/><path class="cls-3" d="M215.615,525.512c.335.014,13.617-6.981,17.239-13.353,3.443-6.056-1.06-18.733-1.312-19.165.708,1.51,4.375,13.215,10.841,16.574,4.943,2.568,15.719,1.668,17.581,1.567-.876.1-13.8,1.894-17.128,7.856-3.081,5.524-.06,17.476.3,18.387-.439-1.193-3.592-13.209-10-16.735C227.591,517.6,217.078,525.309,215.615,525.512Z"/><path class="cls-1" d="M357.13,337.048c.336.014,13.617-6.981,17.24-13.353,3.443-6.056-1.06-18.733-1.312-19.165.708,1.51,4.375,13.215,10.841,16.574,4.942,2.568,15.718,1.668,17.581,1.567-.876.1-13.8,1.894-17.128,7.856-3.081,5.523-.06,17.476.3,18.387-.439-1.194-3.593-13.209-10-16.735C369.107,329.132,358.594,336.845,357.13,337.048Z"/><path class="cls-3" d="M599.432,363.591c.336.013,13.617-6.981,17.24-13.354,3.442-6.056-1.06-18.733-1.313-19.164.709,1.509,4.376,13.215,10.842,16.574,4.942,2.567,15.718,1.667,17.58,1.567-.876.1-13.8,1.893-17.127,7.856-3.081,5.523-.06,17.476.3,18.387-.438-1.194-3.592-13.21-10-16.735C611.409,355.675,600.9,363.388,599.432,363.591Z"/><path class="cls-3" d="M731.757,549.687c.335.013,13.617-6.981,17.239-13.353,3.443-6.056-1.06-18.733-1.312-19.165.708,1.51,4.375,13.215,10.841,16.574,4.943,2.568,15.719,1.668,17.581,1.567-.876.1-13.8,1.894-17.128,7.856-3.081,5.523-.06,17.476.3,18.387-.439-1.194-3.592-13.209-10-16.735C743.733,541.771,733.22,549.484,731.757,549.687Z"/><path class="cls-3" d="M381.315,517.424c.113-.607-9.137-26.62-19.789-34.886-10.122-7.856-34.382-2.982-35.233-2.637,2.933-.893,25.2-4.5,33.016-15.39,5.97-8.325,7.157-28.179,7.463-31.6-.044,1.621-.172,25.623,9.81,33.241,9.248,7.057,31.8,4.692,33.552,4.282-2.288.485-24.99,3.075-33.09,13.821C370.045,493.545,381.329,514.707,381.315,517.424Z"/><path class="cls-3" d="M290.271,337.114c.113-.607-9.138-26.621-19.789-34.887-10.122-7.855-34.382-2.982-35.233-2.636,2.933-.894,25.205-4.5,33.015-15.39,5.971-8.325,7.158-28.179,7.463-31.6-.044,1.622-.171,25.624,9.811,33.241,9.248,7.058,31.8,4.693,33.552,4.282-2.288.486-24.99,3.076-33.09,13.822C279,313.235,290.285,334.4,290.271,337.114Z"/><path class="cls-1" d="M208.971,629.648c.112-.607-9.138-26.621-19.79-34.887-10.122-7.855-34.382-2.982-35.233-2.636,2.934-.894,25.2-4.5,33.016-15.391,5.97-8.325,7.157-28.179,7.463-31.6-.044,1.622-.172,25.623,9.81,33.241,9.248,7.057,31.8,4.693,33.552,4.282-2.288.486-24.99,3.075-33.09,13.821C197.7,605.768,208.985,626.93,208.971,629.648Z"/><path class="cls-3" d="M776.521,461.976c.113-.607-9.138-26.62-19.789-34.887-10.122-7.855-34.382-2.982-35.234-2.636,2.934-.894,25.206-4.5,33.016-15.39,5.971-8.325,7.158-28.179,7.463-31.6-.044,1.622-.171,25.624,9.811,33.242,9.247,7.057,31.8,4.692,33.552,4.282-2.288.485-24.99,3.075-33.09,13.821C765.251,438.1,776.535,459.259,776.521,461.976Z"/></g></g></g></svg>