<svg xmlns="http://www.w3.org/2000/svg" xml:space="preserve" id="Layer_1" x="0" y="0" enable-background="new 0 0 2500 2500" version="1.1" viewBox="0 0 2500 2500">
  <g>
    <path fill="#FFD1CA" d="M2100.04,2432.11H408.16c0,0,112.66-623.5,183.12-693.96c45.88-45.88,296.59-87.67,376.47-167.14
		c0.82-0.82,1.64-2.05,2.87-3.69c29.08-40.56,81.11-353.13,81.11-353.13l202.37,78.65l202.37-78.65c0,0,52.03,312.57,81.12,353.13
		c1.23,1.64,2.05,2.87,2.87,3.69c79.88,79.47,330.6,121.26,376.48,167.14C1987.38,1808.61,2100.04,2432.11,2100.04,2432.11z"/>
    <path fill="#FFBDB6" d="M1509.84,1483.89c-99.48,40.29-256.08,112.14-539.38,83.6c29.18-40.57,81.42-353.42,81.42-353.42
		l202.02,78.64l201.74-78.64C1455.63,1214.07,1488.79,1397.39,1509.84,1483.89z"/>
    <path fill="#FFD1CA" d="M822.04,770.48c0,0-54.34-44.95-92.82-8.61c-87.39,82.53,42.01,392.67,117.63,319.53
		S822.04,770.48,822.04,770.48z"/>
    <path fill="#FFD1CA" d="M1677.69,563.25c0,0-11.88,498.15-51.62,612.44c-63.5,182.3-310.93,242.93-380.16,242.93
		s-316.67-60.63-380.16-242.93C826,1061.4,814.12,563.25,814.12,563.25s307.21-87.93,426.02-88.19
		C1361.79,474.79,1677.69,563.25,1677.69,563.25z"/>
    <path fill="#FFBDB6" d="M739.12,855.86c0,0-9.63-65.18,26.24-60.98c35.88,4.2,79.29,167.08,49.44,187.46
		c-15.86,10.83-23.5,2.35-29.42-6.58c-9.37-14.14-9.94-38.72,2.27-60.39c20.68-36.69-0.95-86.61-17.46-99.22
		C745.26,797.11,736.6,840.26,739.12,855.86z"/>
    <path fill="#FFD1CA" d="M1670.28,770.48c0,0,54.34-44.95,92.82-8.61c87.39,82.53-42.01,392.67-117.63,319.53
		S1670.28,770.48,1670.28,770.48z"/>
    <path fill="#FFBDB6" d="M1753.2,855.86c0,0,9.63-65.18-26.24-60.98c-35.88,4.2-79.29,167.08-49.44,187.46
		c15.86,10.83,23.5,2.35,29.42-6.58c9.37-14.14,9.94-38.72-2.27-60.39c-20.68-36.69,0.95-86.61,17.46-99.22
		C1747.06,797.11,1755.73,840.26,1753.2,855.86z"/>
    <path fill="#FFBDB6" d="M1177.37,1037.06h145.72C1323.09,1037.06,1256.37,913.05,1177.37,1037.06z"/>
    <path fill="#8E4635" d="M1362.92,898.84c0,0,61.24-78.72,131.47-78.72c70.23,0,84.27,78.72,84.27,78.72
		S1507.97,808.2,1362.92,898.84z"/>
    <path fill="#8E4635" d="M1142.79,898.84c0,0-61.24-78.72-131.47-78.72s-84.27,78.72-84.27,78.72S997.74,808.2,1142.79,898.84z"/>
    <path fill="#35356E" d="M2175.42,2432.11H324.58c0,0,157.72-600.15,193.36-659.14c35.64-59.4,422.77-199.09,422.77-199.09
		s82.75,144.61,286.35,144.61c6.14,0,12.7,0,18.84-0.41c1.64,0,2.87,0,4.1-0.41c1.23,0.41,2.46,0.41,4.1,0.41
		c6.15,0.41,12.7,0.41,18.84,0.41c203.6,0,286.35-144.61,286.35-144.61s387.13,139.69,422.77,199.09
		C2017.7,1831.96,2175.42,2432.11,2175.42,2432.11z"/>
    <path fill="#35356E" d="M1250,1717.67c-1.23,0.41-2.46,0.41-4.1,0.41v-0.41H1250z"/>
    <path fill="#35356E" d="M1254.1,1717.67v0.41c-1.64,0-2.87,0-4.1-0.41H1254.1z"/>
    <path fill="#8E4635" d="M1357.28,796.07c-5.55-8.64,55.85-90.74,131.44-81.22c61.48,7.74,102.28,72.31,95.11,82.29
		c-6.65,9.25-41.29-21.24-113.04-19.24C1407.95,779.65,1361.27,802.27,1357.28,796.07z"/>
    <path fill="#8E4635" d="M1142.45,796.07c5.55-8.64-55.85-90.74-131.44-81.22c-61.48,7.74-102.28,72.31-95.11,82.29
		c6.65,9.25,41.29-21.24,113.04-19.24C1091.77,779.65,1138.46,802.27,1142.45,796.07z"/>
    <path fill="#FFBDB6" d="M1126.86,1127.44c0,0,139.97,26.63,246.74-23.06C1373.6,1104.38,1289.48,1227.03,1126.86,1127.44z"/>
    <path fill="#8E4635" d="M1266.83,1094.89c-0.87,0-1.69-0.49-2.07-1.31l-10.42-22.44c-0.53-1.13-0.02-2.49,1.11-3.02
		c1.16-0.42,2.53-0.04,3.02,1.11l10.42,22.44c0.53,1.13,0.02,2.49-1.11,3.02C1267.47,1094.82,1267.14,1094.89,1266.83,1094.89z"/>
    <path fill="#8E4635" d="M1284.4,1094.89c-0.87,0-1.69-0.49-2.07-1.31l-8.37-18.04c-0.53-1.13-0.02-2.49,1.11-3.02
		c1.11-0.53,2.49,0,3.02,1.11l8.37,18.04c0.53,1.13,0.02,2.49-1.11,3.02C1285.04,1094.82,1284.73,1094.89,1284.4,1094.89z"/>
    <path fill="#8E4635" d="M1300.99,1091.64c-0.87,0-1.67-0.49-2.07-1.31l-7.42-15.95c-0.53-1.13-0.02-2.49,1.11-3.02
		c1.18-0.47,2.49-0.02,3.02,1.11l7.42,15.95c0.53,1.13,0.02,2.49-1.11,3.02C1301.64,1091.58,1301.33,1091.64,1300.99,1091.64z"/>
    <path fill="#8E4635" d="M1317.59,1089.29c-0.87,0-1.69-0.49-2.07-1.31l-5.2-11.22c-0.53-1.13-0.02-2.49,1.11-3.02
		c1.16-0.58,2.49-0.02,3.02,1.11l5.2,11.22c0.53,1.13,0.02,2.49-1.11,3.02C1318.23,1089.22,1317.9,1089.29,1317.59,1089.29z"/>
    <path fill="#8E4635" d="M1332.98,1087.58c-0.87,0-1.69-0.49-2.07-1.31l-3.62-7.82c-0.53-1.13-0.02-2.49,1.11-3.02
		c1.18-0.58,2.49-0.02,3.02,1.11l3.62,7.82c0.53,1.13,0.02,2.49-1.11,3.02C1333.63,1087.51,1333.29,1087.58,1332.98,1087.58z"/>
    <path fill="#8E4635" d="M1350.86,1089.78c-0.87,0-1.69-0.49-2.07-1.31l-3.62-7.82c-0.53-1.13-0.02-2.49,1.11-3.02
		c1.13-0.51,2.51-0.04,3.02,1.11l3.62,7.82c0.53,1.13,0.02,2.49-1.11,3.02C1351.51,1089.71,1351.17,1089.78,1350.86,1089.78z"/>
    <path fill="#8E4635" d="M1224.98,1094.89c-0.31,0-0.64-0.07-0.96-0.2c-1.13-0.53-1.64-1.89-1.11-3.02l10.42-22.44
		c0.53-1.16,1.91-1.53,3.02-1.11c1.13,0.53,1.64,1.89,1.11,3.02l-10.42,22.44C1226.67,1094.4,1225.84,1094.89,1224.98,1094.89z"/>
    <path fill="#8E4635" d="M1207.41,1094.89c-0.33,0-0.64-0.07-0.96-0.2c-1.13-0.53-1.64-1.89-1.11-3.02l8.37-18.04
		c0.53-1.11,1.87-1.6,3.02-1.11c1.13,0.53,1.64,1.89,1.11,3.02l-8.37,18.04C1209.09,1094.4,1208.27,1094.89,1207.41,1094.89z"/>
    <path fill="#8E4635" d="M1190.81,1091.64c-0.33,0-0.64-0.07-0.96-0.2c-1.13-0.53-1.64-1.89-1.11-3.02l7.42-15.95
		c0.56-1.13,1.98-1.58,3.02-1.11c1.13,0.53,1.64,1.89,1.11,3.02l-7.42,15.95C1192.48,1091.15,1191.68,1091.64,1190.81,1091.64z"/>
    <path fill="#8E4635" d="M1174.22,1089.29c-0.31,0-0.64-0.07-0.96-0.2c-1.13-0.53-1.64-1.89-1.11-3.02l5.2-11.22
		c0.49-1.11,1.82-1.64,3.02-1.11c1.13,0.53,1.64,1.89,1.11,3.02l-5.2,11.22C1175.91,1088.8,1175.09,1089.29,1174.22,1089.29z"/>
    <path fill="#8E4635" d="M1158.82,1087.58c-0.31,0-0.64-0.07-0.96-0.2c-1.13-0.53-1.64-1.89-1.11-3.02l3.62-7.82
		c0.49-1.09,1.82-1.64,3.02-1.11c1.13,0.53,1.64,1.89,1.11,3.02l-3.62,7.82C1160.51,1087.09,1159.69,1087.58,1158.82,1087.58z"/>
    <path fill="#8E4635" d="M1140.94,1089.78c-0.31,0-0.64-0.07-0.96-0.2c-1.13-0.53-1.64-1.89-1.11-3.02l3.62-7.82
		c0.51-1.13,1.87-1.58,3.02-1.11c1.13,0.53,1.64,1.89,1.11,3.02l-3.62,7.82C1142.63,1089.29,1141.81,1089.78,1140.94,1089.78z"/>
    <path fill="#8E4635" d="M1482.69,898.64c0,9.01-1.23,17.21-3.69,24.58c-14.34-3.69-33.18-4.92-53.67,2.05
		c-2.87-7.78-4.51-16.79-4.51-26.63c0-29.08,13.93-52.85,30.72-52.85C1468.76,845.8,1482.69,869.56,1482.69,898.64z"/>
    <path fill="#8E4635" d="M1028.93,898.64c0,9.01,1.23,17.21,3.69,24.58c14.34-3.69,33.18-4.92,53.67,2.05
		c2.87-7.78,4.51-16.79,4.51-26.63c0-29.08-13.93-52.85-30.72-52.85C1042.86,845.8,1028.93,869.56,1028.93,898.64z"/>
    <path fill="#8E4635" d="M1858.76,639.99c-8.19,89.31-36.46,158.95-36.46,158.95s24.58,130.27-70.05,210.56
		c0,0,75.38-146.66,24.58-229.82c-39.74-65.54-106.52-9.01-106.52-9.01l-25.39,164.27c0,0-5.33-182.71-7.38-243.74
		c0,0-78.25,7.78-127.81-57.76c0,0-69.64,51.21-137.24,37.69c-67.18-13.93-75.37-61.04-75.37-61.04s-58.58,26.63-85.62,1.23
		c0,0-49.16,22.94-102.82,2.05c0,0-60.63,84.8-161.81,62.68c0,0-1.64,131.09-94.22,183.53l-8.6,127.81
		c0,0-22.53-223.26-44.66-231.05c-22.53-7.37-115.93-31.95-96.26,134.78c0,0,13.92,77.02,34.81,114.29c0,0-72.92-54.08-92.99-140.92
		c-20.48-86.44-10.65-166.73,35.24-198.68c0,0-25.4-89.31-15.57-161.41c16.39-124.13,172.06-188.85,172.06-188.85
		s-100.78,6.56-98.73-46.7c1.64-40.97,95.45-30.32,139.7-22.94c-68.83-20.48-72.92-105.28-15.16-109.38
		c63.5-4.1,78.25,94.22,78.25,94.22s11.06-18.03,31.95-42.2c16.39-19.25,38.92-41.79,66.78-62.27
		c40.97-30.31,94.22-55.71,158.13-58.17c162.63-6.15,260.54,120.03,260.54,120.03c100.36-32.36,126.58,34,126.58,34
		s147.07-10.65,256.86,128.22C1951.75,489.24,1858.76,639.99,1858.76,639.99z"/>
    <path fill="#FFBDB6" d="M1217.93,1181h72.35C1290.27,1181,1256.87,1232.96,1217.93,1181z"/>
    <circle cx="1568.38" cy="943.53" r="5.1" fill="#8E4635"/>
    <path fill="#BC5946" d="M1436.4,284.41c0,0-273.65,24.58-463.74-95.86c16.39-19.25,38.92-41.79,66.78-62.27
		C1102.12,184.45,1238.94,284.41,1436.4,284.41z"/>
  </g>
</svg>
