<svg xmlns="http://www.w3.org/2000/svg" xml:space="preserve" id="Layer_1" x="0" y="0" enable-background="new 0 0 2500 2500" version="1.1" viewBox="0 0 2500 2500">
  <g>
    <path fill="#FFD1CA" d="M2100.25,2323.78H399.75c0,0,38.44-454.52,166.2-622.99c92.34-120.98,347.49-96.11,420.61-169.22
		c0.75-0.75,1.5-1.88,2.64-3.39c26.76-37.31,75-249.5,75-249.5l185.81,72.36l185.81-72.36c0,0,48.24,212.19,75,249.5
		c1.13,1.51,1.88,2.64,2.64,3.39c73.12,73.12,328.27,48.24,420.61,169.22C2061.81,1869.25,2100.25,2323.78,2100.25,2323.78z"/>
    <path fill="#FFBDB6" d="M1480.57,1451.37c-91.52,37.07-230.72,103.21-491.36,76.95c26.84-37.33,74.91-249.77,74.91-249.77
		l185.85,72.35l185.6-72.35C1435.57,1278.56,1457.82,1376.73,1480.57,1451.37z"/>
    <path fill="#FFD1CA" d="M1653.42,850.12c0,0,61.08-65.31,99.05-38.55c103.81,73.13-1.88,377.12-99.06,319.35
		C1556.22,1073.15,1653.42,850.12,1653.42,850.12z"/>
    <path fill="#FFD1CA" d="M832.06,850.12c0,0-61.08-65.31-99.05-38.55c-103.81,73.13,1.88,377.12,99.06,319.35
		C929.25,1073.15,832.06,850.12,832.06,850.12z"/>
    <path fill="#FFD1CA" d="M1611.48,1243.31c-91.47,200.66-307.28,223.35-369.01,223.35c-63.62,0-277.54-22.69-368.3-223.35
		c-91.46-200.66-41.52-660.83-41.52-660.83H1653C1653,582.48,1702.23,1042.65,1611.48,1243.31z"/>
    <path fill="#FFBDB6" d="M1750.44,931.33c0,0,6.73-60.25-30.15-55.77c-36.88,4.47-73.68,155.33-41.82,173.63
		c16.93,9.72,24.4,1.78,30.08-6.56c8.99-13.19,8.36-35.86-5.34-55.63c-23.19-33.48-3.31-79.85,13.13-91.75
		C1741.18,877.28,1752.28,916.91,1750.44,931.33z"/>
    <path fill="#FFBDB6" d="M723.67,931.33c0,0-6.73-60.25,30.15-55.77c36.88,4.47,73.68,155.33,41.82,173.63
		c-16.93,9.72-24.4,1.78-30.08-6.56c-8.99-13.19-8.36-35.86,5.34-55.63c23.19-33.48,3.31-79.85-13.13-91.75
		C732.94,877.28,721.84,916.91,723.67,931.33z"/>
    <path fill="#33366E" d="M1784.43,999.4c26-105.53-11.31-198.24-64.07-192.97c-52.39,5.27-78.39,109.3-78.39,109.3
		C1476.13,930.81,1400,647.39,1400,647.39s-127.39-138.32-238.57-3.02C1034.8,797.77,962.06,913.1,819.22,837.72
		c0,0-117.21-107.79-128.51,71.61c0,0-135.31-74.25-88.95-263.44c16.59-67.84,60.68-128.14,115.33-181.28
		c25.25-24.5,52.76-47.49,81.03-69.35c79.9-61.43,163.57-110.8,210.68-148.87c218.97-176.76,373.12,36.18,373.12,36.18
		c174.12-101.76,254.4,48.62,410.81,271.36C1997.74,845.26,1784.43,999.4,1784.43,999.4z"/>
    <path fill="#33366E" d="M1558.47,835.03c0,0,68.79,143.75,67.98,288.61c0,0,40.04-151.98,39.88-269.74
		C1666.2,757.04,1558.47,835.03,1558.47,835.03z"/>
    <path fill="#33366E" d="M909.27,861.62c0,0-38.74,136.32-42.38,276.55c0,0-61.89-161.41-53.51-305.12
		C819.27,732.13,909.27,861.62,909.27,861.62z"/>
    <path fill="#33366E" d="M1331.07,845.41c-3.37-10.29,37.21-40.22,83.18-48.46c77.4-13.87,153.73,36.67,150.22,49.26
		c-2.43,8.7-41.82-4.94-140.53-1.62C1362.37,846.68,1333.71,853.47,1331.07,845.41z"/>
    <path fill="#33366E" d="M1154.3,845.41c3.37-10.29-37.21-40.22-83.18-48.46c-77.4-13.87-153.73,36.67-150.22,49.26
		c2.43,8.7,41.82-4.94,140.53-1.62C1123.01,846.68,1151.66,853.47,1154.3,845.41z"/>
    <path fill="#33366E" d="M1330.88,984.44c0,0,55.93-83.3,132.23-83.3c81.78,0,81.78,83.3,81.78,83.3S1473.19,866.73,1330.88,984.44z
		"/>
    <path fill="#33366E" d="M1154.5,984.44c0,0-55.93-83.3-132.23-83.3c-81.78,0-81.78,83.3-81.78,83.3S1012.19,866.73,1154.5,984.44z"/>
    <path fill="#FFBDB6" d="M1168.7,1112.44h147.97C1316.68,1112.44,1253.68,982.4,1168.7,1112.44z"/>
    <path fill="#FFF" d="M1349.88,1257.99c-7.16,6.74-57.66,12.14-107.04,13.15c-17.34-0.34-34.67-1.35-50.12-2.36
		c-3.39-0.34-6.41-0.67-9.42-1.01c-24.5-2.36-43.34-5.73-47.49-9.78c-13.19-12.81-36.18-62.7-9.42-83.27
		c0.38-0.34,1.13-0.67,1.51-0.67c0-0.34,0-0.34,0-0.34c14.7-9.44,64.45-14.16,114.95-14.83c52.39,0.67,104.02,5.73,116.46,15.84
		C1386.06,1195.29,1363.07,1245.18,1349.88,1257.99z"/>
    <path fill="#EDEDED" d="M1132.03,1229.67c-2.26,7.42,0.75,30.34,51.26,38.09c-24.5-2.36-43.34-5.73-47.49-9.78
		c-13.19-12.81-36.18-62.7-9.42-83.27c0.38-0.34,1.13-0.67,1.51-0.67c-2.64,2.7-10.93,17.53-4.9,34.05
		c4.53,12.14,44.1,10.11,73.49,7.42C1170.48,1218.89,1133.54,1224.62,1132.03,1229.67z"/>
    <path fill="#EDEDED" d="M1353.64,1229.67c2.26,7.42-0.75,30.34-51.26,38.09c24.5-2.36,43.34-5.73,47.49-9.78
		c13.19-12.81,36.18-62.7,9.42-83.27c-0.38-0.34-1.13-0.67-1.51-0.67c2.64,2.7,10.93,17.53,4.9,34.05
		c-4.53,12.14-44.1,10.11-73.49,7.42C1315.2,1218.89,1352.13,1224.62,1353.64,1229.67z"/>
    <path fill="#FE9B42" d="M1809.3,2323.78H690.7c0,0,70.1-701.76,74.25-717.97c3.77-16.21,138.69-39.57,138.69-39.57
		s118.35,225.38,345.61,226.51h1.5c227.26-1.13,345.61-226.51,345.61-226.51s134.92,23.37,138.69,39.57
		C1739.2,1622.02,1809.3,2323.78,1809.3,2323.78z"/>
    <path fill="#FFAD69" d="M1589.95,2323.78H879.52c0-196.36,159.04-355.4,355.4-355.4
		C1430.9,1968.38,1589.95,2127.42,1589.95,2323.78z"/>
    <path fill="#4C55A8" d="M1076.26,458.57c0,0-200.51,58.79-359.17,6.03c25.25-24.5,52.76-47.49,81.03-69.35
		C858.04,423.52,957.54,459.7,1076.26,458.57z"/>
  </g>
</svg>
