<svg xmlns="http://www.w3.org/2000/svg" xml:space="preserve" id="Layer_1" x="0" y="0" enable-background="new 0 0 2500 2500" version="1.1" viewBox="0 0 2500 2500">
  <g>
    <path fill="#BB5C83" d="M1699.65,1356.43c0,0-68.68-18.49-176.99-33.59c-132.84-18.87-325.67-32.83-523.8-2.64
		c-55.1,8.3-110.95,20-165.67,36.23c0,0-62.64-152.84-62.64-541.16c0-148.31,53.96-354.36,152.84-509.84
		c15.09-23.77,31.32-46.42,48.3-67.55c110.57-135.86,263.42-206.05,449.08-106.42c0,0,158.88-8.3,295.87,225.67
		C1847.96,580.16,1869.47,1252.28,1699.65,1356.43z"/>
    <path fill="#AF4676" d="M1716.25,1037.92c0,0-25.29,193.6-193.6,284.92c-132.84-18.87-325.67-32.83-523.8-2.64
		c-130.2-127.18-121.52-400.4-121.52-400.4s271.72-58.12,281.53-58.12c9.43,0,363.79,0,363.79,0L1716.25,1037.92z"/>
    <path fill="#FFD1CA" d="M2010.99,2407.06H479.96c0,0,140.76-844.2,203.78-921.94c63.02-77.74,329.45-116.61,382.66-160.01
		c10.95-8.68,20.75-27.17,29.81-50.57c36.23-93.59,57.74-269.83,57.74-269.83h220.77c0,0,14.71,120.76,40.38,215.48
		c13.21,48.3,28.68,90.19,46.8,104.91c53.58,43.4,281.9,82.27,345.3,160.01C1870.22,1562.86,2010.99,2407.06,2010.99,2407.06z"/>
    <path fill="#FFBDB6" d="M1415.1,1220.2c-38.01,38.03-141.89,93.97-318.88,54.34c36.23-93.59,57.74-269.83,57.74-269.83h220.77
		C1374.72,1004.71,1389.44,1125.48,1415.1,1220.2z"/>
    <path fill="#FFD1CA" d="M1623.09,1002.61c-37.02,74.69-204.58,212.38-358.52,212.38c-154.57,0-321.49-137.69-359.17-212.38
		c-37.66-75.34-16.88-597.52-16.88-597.52l376.04-103.92l375.4,103.92C1639.98,405.09,1660.76,927.27,1623.09,1002.61z"/>
    <path fill="#BB5C83" d="M1119.94,218.69c168.19-66.35,327.51,26.69,327.51,26.69c334.79,14.56,361.48,395.44,322.66,640.47
		c-38.82,245.03-262.01,349.35-262.01,349.35c167.39-121.3,55.8-594.37,55.8-594.37c-109.17-14.56-220.77-169.82-220.77-169.82
		s-138.28,166.59-436.79,187.65c0,0-37.9,203.05,50.18,358.46c0,0-127.7-68.09-127.7-347.18
		C828.82,504.96,855.5,323.01,1119.94,218.69z"/>
    <path fill="#BB5C83" d="M1316.45,735.1c-2.15-6.16,51.69-59.57,114.01-62.49c64.42-3.02,115.72,47.67,114.04,54
		c-1.42,5.34-42.66-9.71-112.81-7.28C1359.89,721.81,1318.34,740.51,1316.45,735.1z"/>
    <path fill="#BB5C83" d="M1170.86,735.1c2.15-6.16-51.69-59.57-114.01-62.49c-64.42-3.02-115.72,47.67-114.04,54
		c1.42,5.34,42.66-9.71,112.81-7.28C1127.42,721.81,1168.97,740.51,1170.86,735.1z"/>
    <path fill="#FFBDB6" d="M1182.2,919.8h89.76C1271.97,919.8,1226.68,825.19,1182.2,919.8z"/>
    <path fill="#BB5C83" d="M1325.34,824.38c0,0,55.8-75.21,115.85-75.21c52.36,0,62.06,64.69,62.06,64.69l21.88-5.66l-29.15,21.83
		C1495.97,830.04,1442.6,715,1325.34,824.38z"/>
    <path fill="#BB5C83" d="M1150.3,824.38c0,0-60.91-54.48-112.25-50.62c-38.82,2.91-61.27,41.25-61.27,41.25l-26.27-6.8l29.15,21.83
		C979.67,830.04,1040.49,763.93,1150.3,824.38z"/>
    <ellipse cx="1393.67" cy="811.44" fill="#BB5C83" rx="25.47" ry="37.69"/>
    <path fill="#FFF" d="M1153.87,956.1c0-12.96,159.63-18.35,184.55-16.2c24.91,2.16,11.96,78.82-48.51,100.41
		C1244.88,1056.4,1153.87,1024.12,1153.87,956.1z"/>
    <ellipse cx="1486.48" cy="894.04" fill="#FFBDB6" rx="73.38" ry="20.33"/>
    <ellipse cx="985.1" cy="894.04" fill="#FFBDB6" rx="73.38" ry="20.33"/>
    <path fill="#6F9B31" d="M2049.1,2407.06H450.9c43.77-323.79,192.84-901.18,240.01-951c47.55-49.81,320.77-115.1,329.08-118.88
		c7.93-4.15,17.36-102.65,31.7-116.61c14.72-13.59,99.63,47.93,193.97,50.19c93.97-2.26,187.94-63.78,202.65-50.19
		c14.34,13.97,23.78,112.46,31.7,116.61c8.3,3.77,281.52,69.06,329.07,118.88C1856.26,1505.87,2005.32,2083.27,2049.1,2407.06z"/>
    <path fill="#557A1B" d="M1232.27,1416.13c-122.9,0-205.39-51.85-206.64-52.67c-3.89-2.5-5.01-7.69-2.5-11.58
		c2.52-3.89,7.65-4.99,11.58-2.5c1.84,1.23,188.04,117.79,416.76-9.13c4.01-2.29,9.13-0.86,11.4,3.27c2.25,4.05,0.8,9.13-3.25,11.38
		C1376.39,1401.07,1298.46,1416.13,1232.27,1416.13z"/>
    <path fill="#557A1B" d="M1646.32,2415.4c-2.37,0-4.73-1.02-6.38-2.99c-1.47-1.76-35.36-44.24,11.93-135.47
		c23-44.36,7.14-452.08-0.92-605.43c-0.25-4.62,3.32-8.59,7.94-8.84c4.6-0.2,8.57,3.36,8.8,7.94
		c2.99,56.93,28.36,557.59-0.92,614.03c-41.7,80.46-14.16,116.76-13.87,117.13c2.84,3.6,2.31,8.84-1.25,11.75
		C1650.07,2414.79,1648.19,2415.4,1646.32,2415.4z"/>
    <path fill="#557A1B" d="M763.81,2415.44c-0.04,0-0.06,0-0.1,0c-4.62-0.08-8.33-3.85-8.29-8.51l9.7-779.66
		c0.06-4.62,3.95-7.69,8.49-8.27c4.62,0.08,8.33,3.85,8.29,8.51l-9.7,779.66C772.14,2411.76,768.4,2415.44,763.81,2415.44z"/>
    <path fill="#D873A1" d="M1246.79,352.98c0,0-171.71,56.23-323.41-47.55c15.09-23.77,31.32-46.42,48.3-67.55
		C1021.49,291.09,1108.67,352.98,1246.79,352.98z"/>
  </g>
</svg>
