<svg xmlns="http://www.w3.org/2000/svg" xml:space="preserve" id="Layer_1" x="0" y="0" enable-background="new 0 0 2500 2500" version="1.1" viewBox="0 0 2500 2500">
  <g>
    <path fill="#FFD1CA" d="M2040.39,2301.55H461.35c0,0,85.73-449.25,173-568.14c39.63-54.49,368.09-168.04,385.23-197.38
		c3.81-6.48,7.62-20.58,11.81-39.25c16.39-81.92,31.63-251.87,31.63-251.87l187.85,73.16l187.86-73.16c0,0,8.01,91.83,19.05,172.61
		c7.24,54.87,16.01,104.79,24.39,118.5c17.15,29.34,345.61,142.89,385.23,197.38C1954.66,1852.3,2040.39,2301.55,2040.39,2301.55z"/>
    <path fill="#FFBDB6" d="M1457.78,1417.53c-80.4,51.82-238.15,127.65-426.39,79.26c16.39-81.92,31.63-251.87,31.63-251.87
		l187.85,73.16l187.86-73.16C1438.73,1244.91,1446.73,1336.75,1457.78,1417.53z"/>
    <path fill="#FFD1CA" d="M1680.58,631.37c0,0-11.05,463.35-48.01,569.66c-59.06,169.56-327.32,225.96-391.71,225.96
		s-332.65-56.39-391.71-225.96c-36.96-106.31-48.01-569.66-48.01-569.66s323.86-81.79,434.37-82.03
		C1348.65,549.09,1680.58,631.37,1680.58,631.37z"/>
    <path fill="#FFD1CA" d="M1668.33,879.77c0,0,50.17-66.03,81.36-38.98c85.27,73.94-1.54,381.28-81.37,322.88
		C1588.5,1105.26,1668.33,879.77,1668.33,879.77z"/>
    <path fill="#FFD1CA" d="M811.97,879.77c0,0-50.17-66.03-81.36-38.98c-85.27,73.94,1.54,381.28,81.37,322.88
		C891.8,1105.26,811.97,879.77,811.97,879.77z"/>
    <path fill="#8E4635" d="M1824.72,766.32c38.87,145.18-46.87,255.68-46.87,255.68c16.76-62.11,3.81-205.76-55.25-185.95
		c-51.44,17.91-84.97,128.41-92.6,155.09c12.19-51.06-0.38-96.79-0.38-96.79c-107.83-344.84-653.11-238.53-653.11-238.53
		c-31.25,55.63-113.17,60.2-113.17,60.2c2.67,117.36-28.96,315.51-28.96,315.51c-12.58-46.11-22.48-151.66-22.48-151.66
		c-25.53-39.25-67.44-70.49-104.02-4.95c-35.43,62.87,1.53,177.95,4.58,187.85C449.54,695.45,844.3,370.04,844.3,370.04
		c-24.77-14.48-83.45-12.96-83.45-12.96c67.06-62.11,142.13-32.77,142.13-32.77c29.34-83.07,132.22-105.93,132.22-105.93
		c-48.01,37.72-70.12,72.02-73.92,78.88c8-7.24,51.44-44.58,134.12-72.78c60.97-20.96,142.89-37.34,248.44-33.91
		c9.14,0.38,18.67,0.76,27.82,1.9C1687.17,217.24,1992,489.3,1824.72,766.32z"/>
    <path fill="#8E4635" d="M1536.55,894.66c4.92-7.09-20.44-59.51-74.33-77.9c-71.15-24.29-148.81,6.15-124.98,68
		c2.46,6.38,72.92-20.82,135.78-12.1C1527.94,880.28,1532.33,900.74,1536.55,894.66z"/>
    <path fill="#8E4635" d="M965.2,894.66c-4.92-7.09,20.44-59.51,74.33-77.9c71.15-24.29,148.81,6.15,124.98,68
		c-2.46,6.38-72.92-20.82-135.78-12.1C973.8,880.28,969.41,900.74,965.2,894.66z"/>
    <path fill="#8E4635" d="M1341.09,975.47c0,0,135.79-179.3,198.15,0C1539.24,975.47,1463.47,859.1,1341.09,975.47z"/>
    <path fill="#8E4635" d="M1452.03,970.94c0,12.19-2.67,23.62-7.62,32.39c-18.68-10.67-38.87-5.34-52.97,0.76
		c-5.33-8.76-8.38-20.58-8.38-33.15c0-28.2,15.62-51.44,34.68-51.44C1436.79,919.5,1452.03,942.75,1452.03,970.94z"/>
    <path fill="#8E4635" d="M1153.21,975.47c0,0-135.79-179.3-198.15,0C955.06,975.47,1030.83,859.1,1153.21,975.47z"/>
    <path fill="#8E4635" d="M1042.27,970.94c0,12.19,2.67,23.62,7.62,32.39c18.68-10.67,38.87-5.34,52.97,0.76
		c5.33-8.76,8.38-20.58,8.38-33.15c0-28.2-15.62-51.44-34.68-51.44S1042.27,942.75,1042.27,970.94z"/>
    <path fill="#FFBDB6" d="M1182.89,1118.08h115.95C1298.83,1118.08,1247.15,993.97,1182.89,1118.08z"/>
    <path fill="#8E4635" d="M1324.41,1230.05c-17.15,27.44-44.58,51.06-80.02,51.44c-38.49,0.38-71.26-27.44-89.55-58.3
		c-20.19-32.39-24-68.21-1.9-76.59c1.14-0.76,2.28-1.14,3.43-1.52c43.06-10.29,144.04-14.86,176.05,0c2.28,1.14,4.57,2.67,5.71,4.95
		C1348.8,1164.13,1343.08,1199.57,1324.41,1230.05z"/>
    <path fill="#FFF" d="M1338.13,1150.04c-2.67,8.76-6.47,17.15-10.29,19.43c-8.76,4.57-20.2,1.52-66.68,1.14
		c-46.49-0.76-79.26,11.05-94.5,4.19c-11.05-4.95-13.34-20.2-13.72-28.2c1.14-0.76,2.28-1.14,3.43-1.52
		c43.06-10.29,144.04-14.86,176.05,0C1334.7,1146.23,1336.98,1147.75,1338.13,1150.04z"/>
    <path fill="#FFBDB6" d="M1751.11,960.76c0,0,6.28-64.08-30.48-56.39c-54.56,11.41-74.49,157.05-42.28,175.54
		c17.11,9.83,24.67,1.8,30.42-6.63c9.09-13.34,8.45-36.26-5.4-56.25c-23.45-33.85-3.35-80.74,13.27-92.76
		C1741.74,906.11,1752.96,946.18,1751.11,960.76z"/>
    <path fill="#FFBDB6" d="M723.45,960.76c0,0-6.28-64.08,30.48-56.39c54.56,11.41,74.49,157.05,42.28,175.54
		c-17.11,9.83-24.67,1.8-30.42-6.63c-9.09-13.34-8.45-36.26,5.4-56.25c23.45-33.85,3.35-80.74-13.27-92.76
		C732.82,906.11,721.6,946.18,723.45,960.76z"/>
    <path fill="#FF9FCD" d="M1324.41,1230.05c-17.15,27.44-44.58,51.06-80.02,51.44c-38.49,0.38-71.26-27.44-89.55-58.3
		c34.3-16.77,83.83,7.62,83.83,7.62C1268.78,1215.57,1310.31,1225.86,1324.41,1230.05z"/>
    <path fill="#BC5946" d="M1649.06,425.67c-233.2-213-486.98-207.29-553.66-201.19c60.97-20.96,142.89-37.34,248.44-33.91
		c9.14,0.38,18.67,0.76,27.82,1.9C1533.23,277.83,1649.06,425.67,1649.06,425.67z"/>
    <path fill="#FFF" d="M983,1645.56c0,0,217.2,213.93,489.91,0l70.22,655.99H894.81L983,1645.56z"/>
    <path fill="#FE504B" d="M1031.39,1496.78l-11.81,39.25c0,0,35.27,99.72,71.2,129.12l-74.3,636.4H439.19
		c0,0,111.05-531.88,209.03-598.84c54.58-37.3,249.04-115.13,249.04-115.13l82.47-101.66L1031.39,1496.78z"/>
    <path fill="#FE504B" d="M1470.77,1495.42l9.66,40.61c0,0-35.27,99.72-71.2,129.12l74.3,636.4h577.28
		c0,0-111.05-531.88-209.03-598.84c-54.58-37.3-249.04-115.13-249.04-115.13l-75.94-101.66L1470.77,1495.42z"/>
    <path fill="#E22424" d="M1810.95,2309.89c-4.22,0-7.89-3.16-8.39-7.44l-48.97-402.27c-0.58-4.63,2.73-8.84,7.36-9.42
		c5.04-0.5,8.88,2.75,9.42,7.38l48.97,402.27c0.58,4.63-2.73,8.84-7.36,9.42C1811.61,2309.87,1811.28,2309.89,1810.95,2309.89z"/>
    <path fill="#E22424" d="M1516.18,1788.75c-2.31,0-4.59-0.97-6.2-2.71l-106.95-115.13c-3.18-3.43-2.98-8.78,0.45-11.96
		c3.35-3.2,8.8-3,11.94,0.43l98.27,105.79l81.33-181.06c1.9-4.28,6.98-6.14,11.2-4.26c4.26,1.92,6.16,6.94,4.26,11.2l-86.57,192.7
		c-1.16,2.58-3.55,4.42-6.36,4.88C1517.09,1788.71,1516.64,1788.75,1516.18,1788.75z"/>
    <path fill="#E22424" d="M689.07,2309.89c-0.35,0-0.7-0.02-1.05-0.06c-4.63-0.58-7.93-4.79-7.38-9.44l48.99-402.25
		c0.58-4.63,4.79-7.87,9.44-7.38c4.63,0.58,7.93,4.79,7.38,9.44l-48.99,402.25C696.93,2306.73,693.29,2309.89,689.07,2309.89z"/>
    <path fill="#E22424" d="M983.82,1788.75c-0.45,0-0.91-0.04-1.38-0.12c-2.79-0.45-5.17-2.29-6.34-4.88l-86.55-192.7
		c-1.9-4.28,0-9.28,4.26-11.2c4.28-1.92,9.26-0.02,11.2,4.26l81.31,181.04l98.27-105.77c3.16-3.43,8.53-3.64,11.96-0.43
		c3.43,3.18,3.62,8.53,0.43,11.96l-106.95,115.13C988.41,1787.78,986.16,1788.75,983.82,1788.75z"/>
    <polygon fill="#E22424" points="1480.42 1536.03 1526.8 1485.93 1470.77 1495.42"/>
    <polygon fill="#E22424" points="1019.58 1536.03 979.73 1485.93 1031.39 1496.78"/>
    <path fill="#FFBDB6" d="M1196.11,1297.31h95.53C1291.64,1297.31,1245.1,1356.1,1196.11,1297.31z"/>
  </g>
</svg>
