<svg xmlns="http://www.w3.org/2000/svg" xml:space="preserve" id="Layer_1" x="0" y="0" enable-background="new 0 0 2500 2500" version="1.1" viewBox="0 0 2500 2500">
  <g>
    <path fill="#FFD1CA" d="M2137.27,2430.76H365.61c0,0,111.24-630.79,185.02-704.57c48.04-48.05,360.2-113.91,443.85-197.13
		c0.86-0.86,1.72-2.14,3.01-3.86c30.46-42.47,42.04-369.78,42.04-369.78l211.91,82.36l211.91-82.36c0,0,11.58,327.31,42.04,369.78
		c1.28,1.72,2.14,3,3,3.86c83.65,83.22,389.08,126.97,437.13,175.02C2019.3,1777.86,2137.27,2430.76,2137.27,2430.76z"/>
    <path fill="#FFBDB6" d="M1484.17,1437.83c-70.75,65.11-190.19,117.43-486.85,87.54c30.55-42.48,42.36-370.09,42.36-370.09
		l211.54,82.35l211.25-82.35C1462.48,1155.28,1473.45,1330.85,1484.17,1437.83z"/>
    <path fill="#FFD1CA" d="M799.01,690.78c0,0-56.91-47.06-97.19-9.02c-91.51,86.43,43.99,411.19,123.18,334.6
		S799.01,690.78,799.01,690.78z"/>
    <path fill="#FFD1CA" d="M1695,473.78c0,0-12.44,521.64-54.05,641.32c-66.49,190.89-325.6,254.38-398.09,254.38
		c-72.49,0-331.6-63.49-398.09-254.38c-41.61-119.68-54.05-641.32-54.05-641.32s321.7-92.08,446.11-92.35
		C1364.21,381.15,1695,473.78,1695,473.78z"/>
    <path fill="#FFBDB6" d="M712.18,780.19c0,0-10.09-68.25,27.48-63.85c37.57,4.4,83.03,174.96,51.78,196.3
		c-16.6,11.34-24.6,2.46-30.81-6.89c-9.81-14.81-10.41-40.55,2.38-63.24c21.65-38.42-1-90.69-18.28-103.9
		C718.61,718.66,709.54,763.85,712.18,780.19z"/>
    <path fill="#FFD1CA" d="M1687.25,690.78c0,0,56.91-47.06,97.19-9.02c91.51,86.43-43.99,411.19-123.18,334.6
		S1687.25,690.78,1687.25,690.78z"/>
    <path fill="#FFBDB6" d="M1774.08,780.19c0,0,10.09-68.25-27.48-63.85c-37.57,4.4-83.03,174.96-51.78,196.3
		c16.6,11.34,24.6,2.46,30.81-6.89c9.81-14.81,10.41-40.55-2.38-63.24c-21.65-38.42,1-90.69,18.28-103.9
		C1767.64,718.66,1776.72,763.85,1774.08,780.19z"/>
    <path fill="#FFBDB6" d="M1171.09,969.93h152.59C1323.68,969.93,1253.82,840.08,1171.09,969.93z"/>
    <path fill="#33366E" d="M1365.4,825.19c0,0,64.13-82.43,137.67-82.43s88.25,82.43,88.25,82.43S1517.29,730.28,1365.4,825.19z"/>
    <path fill="#33366E" d="M1134.89,825.19c0,0-64.13-82.43-137.67-82.43s-88.25,82.43-88.25,82.43S983,730.28,1134.89,825.19z"/>
    <path fill="#33366E" d="M1490.81,824.98c0,9.44-1.28,18.02-3.86,25.74c-15.02-3.86-34.75-5.15-56.2,2.14
		c-3-8.15-4.72-17.59-4.72-27.88c0-30.46,14.58-55.34,32.17-55.34C1476.22,769.65,1490.81,794.53,1490.81,824.98z"/>
    <path fill="#33366E" d="M1015.66,824.98c0,9.44,1.28,18.02,3.86,25.74c15.02-3.86,34.75-5.15,56.2,2.14
		c3-8.15,4.72-17.59,4.72-27.88c0-30.46-14.58-55.34-32.17-55.34C1030.24,769.65,1015.66,794.53,1015.66,824.98z"/>
    <path fill="#33366E" d="M1345.68,705.4c-2.15-14.5,67.33-60.65,134.86-57.2c53.56,2.74,112.76,43.03,110.71,56.69
		c-2.1,13.99-59.79,4.79-123.76,4.03C1411.1,708.26,1347.51,717.68,1345.68,705.4z"/>
    <path fill="#33366E" d="M1154.6,705.4c2.15-14.5-67.33-60.65-134.86-57.2c-53.56,2.74-112.76,43.03-110.71,56.69
		c2.1,13.99,59.79,4.79,123.76,4.03C1089.18,708.26,1152.78,717.68,1154.6,705.4z"/>
    <path fill="#33366E" d="M1351.88,1115.23c-21.88,36.89-54.05,70.35-91.37,70.35c-27.88,0-54.05-20.59-74.64-46.76
		c-32.6-41.18-51.47-97.38-42.9-110.68c0.86-1.71,6.43-3,15.01-4.72c45.9-8.15,181.89-15.02,212.35-8.15c3,0.86,5.14,1.71,6,2.57
		C1385.77,1030.3,1375.04,1074.91,1351.88,1115.23z"/>
    <path fill="#FFF" d="M1370.33,1015.28c-3.01,6-6.44,12.44-11.58,19.3c-19.31,25.74-166.88,20.16-183.6,15.87
		c-8.58-2.57-14.16-15.45-17.16-27.03C1203.88,1015.28,1339.87,1008.42,1370.33,1015.28z"/>
    <path fill="#FF9FCD" d="M1351.88,1115.23c-21.88,36.89-54.05,70.35-91.37,70.35c-27.88,0-54.05-20.59-74.64-46.76
		C1185.87,1138.83,1278.52,1077.91,1351.88,1115.23z"/>
    <path fill="#33366E" d="M1806.59,846.27c3.44-13.3,26.6-112.39-22.31-164.3c-37.75-40.75-96.95,9.01-96.95,9.01
		s-28.74,207.62-51.47,210.63c-23.17,3.43,21.02-238.08,21.02-238.08c-60.49-39.89-112.39-161.72-112.39-161.72
		s-351.33,165.16-596.28,18.88c0,0-42.04,158.29-93.51,199.9c0,0,2.57,198.62-12.01,212.34c-14.59,13.3-43.76-241.94-43.76-241.94
		s-120.12-88.8-127.83,78.5c0,0-63.49-123.12-44.19-267.68C638.5,413,674.1,304.04,797.64,246.13c0,0-116.68,40.32-108.1-24.45
		c8.58-65.21,120.54-15.87,134.27,11.15c0,0-6.87-120.97,62.63-148c67.35-26.17-7.72,121.83-10.72,128.26
		c2.14-2.14,12.87-12.87,30.88-27.46c20.59-17.16,50.62-39.04,89.22-60.05c99.09-53.62,253.53-99.52,444.42-33.03
		c215.35,74.64,380.94,218.78,409.67,436.27C1862.36,622.77,1859.36,709.43,1806.59,846.27z"/>
    <path fill="#4C55A8" d="M1410.67,259c0,0-355.19,9.87-503.62-73.36c20.59-17.16,50.62-39.04,89.22-60.05
		C1068.78,167.63,1232.22,250.42,1410.67,259z"/>
    <path fill="#FE504B" d="M905.75,666.91L626.9,648.02c0,0-16.61-69.99,0-146.09c0,0,192.07,18.68,321.44,18.68
		c0,0,112.04,63.54,250.23,59.66c199.19-5.6,345.94-78.33,345.94-78.33s180.02,33.57,305.35,26.86c0,0,13.02,52.36,5.39,151.52
		C1855.25,680.31,1129.92,682.1,905.75,666.91z"/>
    <path fill="#8F3199" d="M2183.24,2430.9H316.76c0,0,87.94-585.98,202.9-688.93c78.51-70.35,262.96-141.13,372.78-179.31
		c51.48-18.02,86.22-28.74,86.22-28.74s69.5,149.29,268.54,149.29c206.34,0,265.11-165.16,265.11-165.16s32.6,7.72,81.08,21.45
		c127.4,36.04,366.35,114.96,426.4,213.63C2102.59,1889.54,2183.24,2430.9,2183.24,2430.9z"/>
    <path fill="#611A6B" d="M1815.04,2440.44c-4.7,0-8.79-3.47-9.44-8.23l-62.53-456.43c-0.7-5.23,2.93-10.03,8.14-10.75
		c5.63-0.77,10.05,2.95,10.75,8.14l62.53,456.43c0.7,5.23-2.93,10.03-8.14,10.75C1815.88,2440.4,1815.46,2440.44,1815.04,2440.44z"/>
    <path fill="#611A6B" d="M671.26,2440.44c-0.44,0-0.88-0.05-1.33-0.09c-5.21-0.72-8.86-5.51-8.14-10.75l62.5-456.43
		c0.7-5.19,5.37-8.89,10.75-8.14c5.21,0.72,8.86,5.51,8.14,10.75l-62.5,456.43C680.03,2436.98,675.94,2440.44,671.26,2440.44z"/>
    <path fill="#C14ED1" d="M1593.39,1539.49c-46.33,80.22-157.44,229.07-343.18,229.07c-217.06,0-329.03-158.29-357.77-205.91
		c51.48-18.02,86.22-28.74,86.22-28.74s69.5,149.29,268.54,149.29c206.34,0,265.11-165.16,265.11-165.16
		S1544.92,1525.76,1593.39,1539.49z"/>
    <path fill="#C14ED1" d="M1587.82,2430.9H895.45c-3.44-165.16-5.15-356.91,6.86-368.92c33.89-33.89,650.33-26.17,676.92,0
		C1594.25,2077,1592.54,2267.03,1587.82,2430.9z"/>
  </g>
</svg>
