<svg xmlns="http://www.w3.org/2000/svg" xml:space="preserve" id="Layer_1" x="0" y="0" enable-background="new 0 0 2500 2500" version="1.1" viewBox="0 0 2500 2500">
  <g>
    <path fill="#FFD1CA" d="M2017.2,2445.71H481.09c0,0,144.71-867.85,209.49-947.77c64.79-79.92,300.86-119.88,355.57-164.49
		c11.25-8.92,21.33-27.93,30.65-51.98c37.24-96.21,59.35-277.39,59.35-277.39h226.96c0,0,15.13,124.15,41.51,221.52
		c13.58,49.66,29.48,92.72,48.11,107.85c55.09,44.62,289.8,84.57,354.97,164.49C1872.49,1577.86,2017.2,2445.71,2017.2,2445.71z"/>
    <path fill="#FFBDB6" d="M1404.62,1225.6c-39.07,39.1-145.87,96.6-327.82,55.87c37.24-96.21,59.35-277.39,59.35-277.39h226.96
		C1363.11,1004.07,1378.24,1128.22,1404.62,1225.6z"/>
    <path fill="#FFD1CA" d="M1623.37,652.64c0,0,55.24-46.76,93.42-13.66c49.47,42.89-28.74,287.94-112.07,234.71L1623.37,652.64z"/>
    <path fill="#FFD1CA" d="M890.05,652.64c0,0-51.11-51.24-91.94-21.47c-52.91,38.58,8.68,289.41,96.2,243.38L890.05,652.64z"/>
    <path fill="#FFD1CA" d="M1579.64,1001.91c-38.05,76.78-171.52,218.33-329.77,218.33c-158.9,0-291.7-141.55-330.43-218.33
		c-38.71-77.45-56.15-614.26-56.15-614.26l386.58-106.83l385.92,106.83C1635.79,387.65,1618.37,924.46,1579.64,1001.91z"/>
    <path fill="#8E4635" d="M1342.88,661.45c-3.36-8.71,28.29-53.04,63.18-59.02c62.61-10.74,121.78,66.19,117.22,75.65
		c-3.35,6.94-40.04-28.52-110.57-29.1C1370.08,648.63,1345.67,668.66,1342.88,661.45z"/>
    <path fill="#8E4635" d="M1151.36,661.45c3.36-8.71-28.29-53.04-63.18-59.02c-62.61-10.74-121.78,66.19-117.22,75.65
		c3.35,6.94,40.04-28.52,110.57-29.1C1124.16,648.63,1148.57,668.66,1151.36,661.45z"/>
    <path fill="#8E4635" d="M1341.64,776.25c0,0,60.91-68.31,122.21-68.31c49.05,0,60.69,68.31,60.69,68.31
		S1453.87,700.6,1341.64,776.25z"/>
    <path fill="#8E4635" d="M1157.45,776.25c0,0-60.91-68.31-122.21-68.31c-49.05,0-60.69,68.31-60.69,68.31
		S1045.22,700.6,1157.45,776.25z"/>
    <path fill="#FFBDB6" d="M1195.51,906.27h108.07C1303.58,906.27,1252.04,784.89,1195.51,906.27z"/>
    <ellipse cx="1249.54" cy="1004.07" fill="#8E4635" rx="43.22" ry="65.28"/>
    <ellipse cx="1410.94" cy="783.95" fill="#8E4635" rx="22.77" ry="38.71"/>
    <ellipse cx="1084.55" cy="783.95" fill="#8E4635" rx="22.77" ry="38.71"/>
    <path fill="#8E4635" d="M1807.54,1497.94c-56.26-67.89-304.15-126.86-354.98-164.49c-27.54-20.56-58.6-151.02-58.6-151.02
		c115.88-71.58,150.67-122.99,176.93-165.16c23.97-38.49,33.83-143.57,33.83-143.57c31.08,21.84,76.66-10.32,97.73-62.76
		c17.4-43.31,47.32-141.31,10.46-171.96c-36.47-30.65-89.54,13.66-89.54,13.66l-16.62,167.37c-90.01,41.9-73.1-226.39-73.1-226.39
		c-79.92,38.41-118.33-40.35-118.33-40.35c-113.28,81.86-152.08-44.62-152.08-44.62c-57.03,117.94-165.65,51.6-165.65,51.6
		c-65.57,50.82-168.76,31.04-168.76,31.04s18.71,86.55,0.86,166.86c-18.23,80.31-37.19,56.93-37.19,56.93l-15.94-172.3
		c-30.33-18.31-48.77-21.97-70.88-16.15c-21.72,5.43-45.25,77.63-3.72,180.95c40.23,100.06,92.36,66.99,92.36,66.99
		s15.5,92.27,19.77,112.06c4.27,20.17,29.27,61.48,67.71,100.54c40.62,41.27,122.78,99.26,122.78,99.26
		c-20.56,92.33-43.06,128.02-58.58,147.03c-15.13,19.01-247.52,78.37-320.84,124.53c-35.69,22.11-75.65,152.85-75.65,152.85
		c-137.73-83.02-107.85-251.4-57.42-302.99c50.05-51.6,36.08-126.09,22.5-180.79c-13.58-54.7,34.92-100.09,34.92-100.09
		c-24.06-29.1-50.05-104.75,34.91-211.05c69.83-87.29,69.83-318.12,148.2-491.93c16.68-38.02,37.24-72.93,62.85-103.19
		c0.39-0.39,0.78-1.17,1.55-1.55c143.93-167.98,333.26-118.71,333.26-118.71c353.04-224.24,544.3,301.05,550.12,460.11
		c6.21,159.45,39.57,312.69,80.7,378.26c41.13,65.18,12.03,110.57,12.03,110.57c33.36,39.57,10.86,71.38-13.58,164.11
		c-24.44,92.72,21.34,133.46,41.13,207.94C1920.05,1496,1807.54,1497.94,1807.54,1497.94z"/>
    <path fill="#FFBDB6" d="M1625.97,766.14c1.77-30.37,21.31-87.4,46.8-102.39c25.48-14.98,37.33,19.69,37.33,19.69
		s-23.19-26.25-40.69-0.81c-7.41,10.77-21.31,38.91-18.3,52.4c4.09,18.38,22.02,17.32,21.81,35.51
		C1672.63,795.28,1622.12,832.12,1625.97,766.14z"/>
    <path fill="#FFBDB6" d="M874.83,765.52c0.79-30.41-13.89-88.89-38.02-105.96c-24.13-17.07-38.85,16.48-38.85,16.48
		s25.31-24.21,40.62,2.61c6.48,11.36,17.96,40.56,13.83,53.75c-5.62,17.97-23.4,15.4-24.72,33.55
		C825.89,790.64,873.12,831.59,874.83,765.52z"/>
    <path fill="#35356E" d="M2029.45,2445.71H470.55c0,0,176.13-926.82,226.18-969.5c50.05-42.67,330.93-142.77,330.93-142.77
		c80.31,98.15,145.98,131.11,222.35,131.11s142.04-32.96,222.35-131.11c0,0,280.88,100.09,330.93,142.77
		C1853.32,1518.89,2029.45,2445.71,2029.45,2445.71z"/>
    <path fill="#FFF" d="M1469.24,1337.19c0,0-33.27-44.68-44.66-81.87c0,0-171.82,178.37-171.82,198.62
		c0,15.63,13.27,134.6,85.54,134.6C1400.04,1588.54,1469.24,1337.19,1469.24,1337.19z"/>
    <path fill="#FFF" d="M1028.59,1337.19c0,0,33.27-44.68,44.66-81.87c0,0,171.82,178.37,171.82,198.62
		c0,15.63-13.27,134.6-85.54,134.6C1097.79,1588.54,1028.59,1337.19,1028.59,1337.19z"/>
    <path fill="#55A" d="M1684.37,2454.33c-4.33,0-8.04-3.24-8.54-7.62c-2.99-24.91-72.75-611.67-44.39-741.89
		c1.01-4.63,5.43-7.57,10.27-6.56c4.63,1.01,7.57,5.6,6.56,10.27c-27.73,127.36,43.93,730.07,44.64,736.17
		c0.59,4.71-2.78,9-7.53,9.55C1685.05,2454.29,1684.71,2454.33,1684.37,2454.33z"/>
    <path fill="#55A" d="M820.96,2454.33c-0.34,0-0.67-0.04-1.03-0.08c-4.71-0.55-8.1-4.84-7.53-9.55
		c0.74-6.1,72.43-608.81,44.68-736.17c-1.01-4.67,1.94-9.26,6.58-10.27c4.67-1.01,9.24,1.98,10.24,6.56
		c28.36,130.22-41.4,716.98-44.39,741.89C828.99,2451.09,825.27,2454.33,820.96,2454.33z"/>
    <path fill="#BC5946" d="M1303.59,383.35c0,0-263.81,46.17-470.98-59.36c16.68-38.02,37.24-72.93,62.85-103.19
		c0.39-0.39,0.78-1.17,1.55-1.55C976.54,288.69,1116.6,379.85,1303.59,383.35z"/>
    <ellipse cx="1484.04" cy="883.5" fill="#FFBDB6" rx="55.66" ry="22.77"/>
    <ellipse cx="1028.59" cy="883.5" fill="#FFBDB6" rx="55.66" ry="22.77"/>
  </g>
</svg>
