<svg xmlns="http://www.w3.org/2000/svg" xml:space="preserve" id="Layer_1" x="0" y="0" enable-background="new 0 0 2500 2500" version="1.1" viewBox="0 0 2500 2500">
  <g>
    <path fill="#8E4635" d="M1736.53,1269.98c-28.61,256.71-440.18,316.59-551.94-54.55C1112.87,977.42,856.55,626.5,856.55,626.5
		s-35.09-81.63-45.77-124.35c-7.25-28.99,3.43-132.36,46.92-230.01c12.21-27.85,27.46-55.69,45.77-81.25
		c58.74-80.1,148.38-136.17,281.12-106.04c0,0,168.21-48.44,350.54,37c195.68,91.54,487.48,678.58,47.68,909.35
		C1582.81,1031.2,1759.03,1070.87,1736.53,1269.98z"/>
    <path fill="#DD9090" d="M1996.41,2420.35H539.21c0,0,142.28-853.28,205.97-931.85c63.7-78.58,242.7-117.86,296.49-161.73
		c11.06-8.77,20.98-27.46,30.14-51.11c36.62-94.6,58.36-272.73,58.36-272.73h223.15c0,0,14.87,122.06,40.81,217.8
		c13.35,48.82,28.99,91.16,47.3,106.04c54.16,43.87,284.93,83.15,349.01,161.73C1854.13,1567.07,1996.41,2420.35,1996.41,2420.35z"/>
    <path fill="#B56161" d="M1394.12,1220.72c-38.42,38.44-143.42,94.98-322.31,54.93c36.62-94.6,58.36-272.73,58.36-272.73h223.15
		C1353.31,1002.92,1368.18,1124.98,1394.12,1220.72z"/>
    <path fill="#DD9090" d="M1593.61,993.93c-54.86,107.11-253.51,221.53-409.1,221.53c-156.23,0-267.49-139.17-305.57-214.67
		c-38.06-76.15-17.06-603.95-17.06-603.95l380.09-105.04l379.44,105.04C1621.41,396.85,1653.28,877.43,1593.61,993.93z"/>
    <path fill="#DD9090" d="M1623.84,632.33c0,0,64.23-85.88,119.36-30.34c63.66,64.13-38.36,369.18-123.1,279.97L1623.84,632.33z"/>
    <path fill="#B56161" d="M1184.51,877.43h-124.94C1059.57,877.43,1047.83,750.65,1184.51,877.43z"/>
    <path fill="#8E4635" d="M1212.83,664.46c-6.19-11.49,38.22-57.49,95.77-57.49c70.85,0,143.66,48.04,138.59,59.12
		c-3.65,7.99-66.96-10.38-146.32-4.9C1269.8,663.34,1218.71,675.37,1212.83,664.46z"/>
    <path fill="#8E4635" d="M1058.84,664.46c5.11-11.49-31.53-57.49-78.99-57.49c-58.44,0-118.49,48.04-114.31,59.12
		c3.01,7.99,52.51-10.37,120.68-4.9C1011.83,663.24,1053.99,675.37,1058.84,664.46z"/>
    <path fill="#8E4635" d="M1222.99,756.83c0,0,61.35-87.87,131.28-70.46c54.99,13.7,62.94,64.73,62.94,64.73l26.16-4.9l-31.88,18.8
		C1411.48,765,1377.15,655.72,1222.99,756.83z"/>
    <path fill="#8E4635" d="M1056.64,756.82c0,0-53.26-87.87-113.96-70.46c-47.74,13.7-54.64,64.73-54.64,64.73l-22.71-4.9l27.67,18.8
		C893.01,765,922.81,655.72,1056.64,756.82z"/>
    <path fill="#B56161" d="M1629.91,789.59c-1.09-42.23,19.28-123.42,52.79-147.13c33.51-23.7,53.95,22.89,53.95,22.89
		s-35.15-33.62-56.4,3.63c-9,15.77-24.94,56.32-19.21,74.64c7.8,24.95,32.49,21.39,34.33,46.59
		C1697.88,824.47,1632.29,881.33,1629.91,789.59z"/>
    <ellipse cx="1404.17" cy="845.86" fill="#B56161" rx="71" ry="24.78"/>
    <ellipse cx="911.63" cy="845.86" fill="#B56161" rx="64.67" ry="24.78"/>
    <path fill="#B56161" d="M1041.83,967.88c0,0,122.39,8.96,201.18-47.02C1243.01,920.87,1175.42,1049.23,1041.83,967.88z"/>
    <path fill="#8E4635" d="M1089.34,372.59c0,0,243.83,282.02,473.06,282.02c0,0,26.46,226.38-7.37,352.29
		c0,0,74.66-123.97,74.66-381.63c0,0,47.44-54.79,88.38-39.3s-67.94-362.67-484.66-339.77S740.93,408.73,856.44,626.36l0.91-64.5
		C857.35,561.86,1029.64,327.81,1089.34,372.59z"/>
    <path fill="#FFF" d="M1042.57,1316.4c0,0,234.49,123.71,397.85-3.57c0,0,14.33,29.08,89.73,47.85v1059.66H881.38l108.74-1070.34
		C990.12,1350.01,1030.63,1329.09,1042.57,1316.4z"/>
    <path fill="#6F9B31" d="M1457.51,1319.89l-14.15,1100.46h558.95c0,0-109.89-883.79-205.98-954.69
		C1722.83,1411.43,1457.51,1319.89,1457.51,1319.89z"/>
    <path fill="#6F9B31" d="M1028.4,1323.87l-66.07,1096.48H497.69c0,0,109.89-883.79,205.98-954.69
		C777.17,1411.43,1028.4,1323.87,1028.4,1323.87z"/>
    <path fill="#557A1B" d="M1669.46,2428.83c-4.59,0-8.36-3.68-8.48-8.27l-16.26-724.96c-0.12-4.67,3.6-8.56,8.27-8.69
		c4.59-0.87,8.52,3.6,8.67,8.27l16.26,724.96c0.12,4.67-3.6,8.56-8.27,8.69C1669.59,2428.83,1669.53,2428.83,1669.46,2428.83z"/>
    <path fill="#557A1B" d="M735.1,2428.83c-0.12,0-0.25,0-0.37,0c-4.67-0.21-8.29-4.18-8.09-8.85l27.94-630.81
		c0.23-4.67,4.28-7.82,8.83-8.11c4.67,0.21,8.29,4.18,8.09,8.85l-27.94,630.81C743.35,2425.27,739.61,2428.83,735.1,2428.83z"/>
    <path fill="#BC5946" d="M1234.55,239.33c0,0-167.83,70.19-376.86,32.81c12.21-27.85,27.46-55.69,45.77-81.25
		C956.87,214.54,1060.24,244.29,1234.55,239.33z"/>
  </g>
</svg>
