<svg xmlns="http://www.w3.org/2000/svg" xml:space="preserve" id="Layer_1" x="0" y="0" enable-background="new 0 0 2500 2500" version="1.1" viewBox="0 0 2500 2500">
  <g>
    <path fill="#FFD1CA" d="M1956.08,2396.05H541.42c0,0,138.12-828.37,199.96-904.65c61.84-76.28,235.62-114.42,287.83-157.01
		c10.74-8.52,20.36-26.66,29.26-49.62c35.55-91.84,56.65-264.77,56.65-264.77h216.63c0,0,14.44,118.5,39.62,211.44
		c12.96,47.4,28.14,88.5,45.92,102.94c52.58,42.59,276.61,80.73,338.82,157.01C1817.95,1567.68,1956.08,2396.05,1956.08,2396.05z"/>
    <path fill="#FFBDB6" d="M1371.37,1231.45c-37.29,37.32-139.23,92.2-312.9,53.32c35.55-91.84,56.65-264.77,56.65-264.77h216.63
		C1331.75,1020.01,1346.19,1138.5,1371.37,1231.45z"/>
    <path fill="#FFD1CA" d="M1528.01,1011.28c-53.26,103.98-209.08,215.06-360.13,215.06c-151.67,0-259.68-135.11-296.64-208.4
		c-36.95-73.93-16.56-586.31-16.56-586.31l368.99-101.97L1555,431.63C1555,431.63,1585.94,898.18,1528.01,1011.28z"/>
    <path fill="#FFD1CA" d="M1557.36,660.23c0,0,62.36-83.37,115.88-29.45c61.8,62.25-37.24,358.41-119.51,271.8L1557.36,660.23z"/>
    <path fill="#FFBDB6" d="M1167.88,898.18h-121.29C1046.59,898.18,1035.19,775.1,1167.88,898.18z"/>
    <path fill="#FFBDB6" d="M1563.25,812.9c-1.06-41,18.72-119.82,51.25-142.83c32.53-23.01,52.37,22.22,52.37,22.22
		s-34.12-32.64-54.75,3.52c-8.73,15.31-24.21,54.67-18.65,72.46c7.58,24.22,31.54,20.76,33.33,45.23
		C1629.23,846.76,1565.56,901.97,1563.25,812.9z"/>
    <ellipse cx="1381.13" cy="867.53" fill="#FFBDB6" rx="68.92" ry="24.05"/>
    <ellipse cx="902.97" cy="867.53" fill="#FFBDB6" rx="62.78" ry="24.05"/>
    <path fill="#33366E" d="M1188.76,657.52c-3.78-8.13,37.65-47.29,90.1-53.24c55.43-6.28,106.54,26.42,104.29,35.56
		c-1.88,7.64-40.28-4.33-111.35,4.16C1217.04,650.55,1191.51,663.43,1188.76,657.52z"/>
    <path fill="#33366E" d="M1206.12,744.6c0,0,56.99-71.46,102.4-65.66c45.4,5.8,57.1,66.14,57.1,66.14S1309.48,667.34,1206.12,744.6z
		"/>
    <ellipse cx="1285.87" cy="744.6" fill="#33366E" rx="25.12" ry="43.49"/>
    <path fill="#33366E" d="M1043.52,657.52c3.78-8.13-37.65-47.29-90.1-53.24c-55.43-6.28-106.54,26.42-104.29,35.56
		c1.88,7.64,40.28-4.33,111.35,4.16C1015.24,650.55,1040.77,663.43,1043.52,657.52z"/>
    <path fill="#33366E" d="M1016.69,744.6c0,0-50.23-71.46-90.24-65.66c-40.01,5.8-50.32,66.14-50.32,66.14
		S925.6,667.34,1016.69,744.6z"/>
    <ellipse cx="961.93" cy="744.6" fill="#33366E" rx="22.13" ry="43.49"/>
    <path fill="#FFBDB6" d="M1036.13,998.12c0,0,97.08-69.28,206.02-12.51C1242.15,985.61,1130.32,980.17,1036.13,998.12z"/>
    <path fill="#FFBDB6" d="M1107.11,1012.48c0,0,54.59-6.55,84.3-6.55c0,0-28.08,17.01-45.09,21.05
		C1129.31,1031.03,1107.11,1012.48,1107.11,1012.48z"/>
    <path fill="#33366E" d="M1895.41,1334.45c0,0,14.44,182.93-120.35,196.26c0,0-25.18-73.32-137.01-110.35
		c-57.76-18.89-182.19-58.14-220.7-85.91c-31.84-23.33-59.61-160.71-59.61-160.71c92.2-49.99,134.04-104.05,161.08-146.27
		c28.51-43.7,34.81-124.79,34.81-124.79c51.61,54.34,101.83-52.58,101.83-52.58c29.62-59.62,52.95-186.63,11.48-224.77
		c-41.84-38.51-104.05,28.14-104.05,28.14s3.33,122.57-41.11,158.86c-44.06,35.92-81.46-171.82-81.46-171.82
		c-82.58,17.41-133.31-77.02-133.31-77.02c-101.46,18.89-160.71-75.17-160.71-75.17s-21.85,72.58-63.7,88.5
		c-42.21,15.92-78.5-39.25-78.5-39.25c-51.1,57.77-154.04,36.29-154.04,36.29v231.81c-71.84-238.85-68.88-406.59-8.89-526.57
		c15.55-30.74,34.44-58.51,57.03-83.32c19.99-21.85,42.59-41.84,67.39-59.99c114.06-82.21,286.61-12.59,286.61-12.59
		c76.66-23.33,198.12-19.26,294.02,60.73c236.25,197,296.98,560.64,296.98,560.64c25.19,167.75,17.41,246.99,85.17,329.94
		C1995.76,1157.81,2015.02,1244.46,1895.41,1334.45z"/>
    <path fill="#FFF6F5" d="M1285.86,888.35c-79.25,0-143.71-64.5-143.71-143.77c0-79.23,64.46-143.73,143.71-143.73
		c79.27,0,143.77,64.5,143.77,143.73C1429.63,823.86,1365.13,888.35,1285.86,888.35z M1285.86,613.22
		c-72.45,0-131.38,58.91-131.38,131.36s58.93,131.4,131.38,131.4c72.45,0,131.4-58.95,131.4-131.4S1358.31,613.22,1285.86,613.22z"/>
    <path fill="#FFF6F5" d="M927.59,888.35c-79.23,0-143.71-64.5-143.71-143.77c0-79.23,64.48-143.73,143.71-143.73
		c79.25,0,143.73,64.5,143.73,143.73C1071.33,823.86,1006.85,888.35,927.59,888.35z M927.59,613.22
		c-72.45,0-131.38,58.91-131.38,131.36s58.93,131.4,131.38,131.4s131.4-58.95,131.4-131.4S1000.04,613.22,927.59,613.22z"/>
    <path fill="#FFF6F5" d="M1148.31,750.77h-83.15c-3.41,0-6.16-2.77-6.16-6.18c0-3.41,2.75-6.18,6.16-6.18h83.15
		c3.41,0,6.16,2.77,6.16,6.18C1154.48,748,1151.72,750.77,1148.31,750.77z"/>
    <path fill="#FFF6F5" d="M1423.24,744.54c-2.05,0-4.02-1-5.18-2.85c-1.85-2.89-1-6.71,1.85-8.51l155.74-99.35
		c2.97-1.93,6.71-1,8.51,1.85c1.85,2.89,1,6.71-1.85,8.51l-155.74,99.35C1425.53,744.22,1424.37,744.54,1423.24,744.54z"/>
    <path fill="#8F3199" d="M1982.06,2396.1H517.89c0,0,186.63-870.21,208.48-909.83c25.92-46.66,164.04-107.76,239.96-138.86
		c30-12.22,50.37-19.63,50.37-19.63s158.49,193.3,406.59,0c0,0,27.03,7.04,66.65,19.26c92.2,27.77,251.07,82.21,283.65,134.42
		C1819.87,1555.52,1982.06,2396.1,1982.06,2396.1z"/>
    <path fill="#C14ED1" d="M1489.93,1347.04c-54.43,44.07-176.26,148.76-298.46,148.76c-127.39,0-199.23-108.03-225.15-148.39
		c30-12.22,50.37-19.63,50.37-19.63s158.49,193.3,406.59,0C1423.28,1327.78,1450.31,1334.82,1489.93,1347.04z"/>
    <path fill="#611A6B" d="M1666.89,2404.33c-4.3,0-7.91-3.37-8.19-7.71l-43.73-688.09c-0.32-4.54,3.13-8.43,7.67-8.71
		c0.16-0.04,0.36-0.04,0.52-0.04c4.3,0,7.91,3.37,8.19,7.71l43.73,688.09c0.32,4.54-3.13,8.43-7.67,8.71
		C1667.25,2404.33,1667.05,2404.33,1666.89,2404.33z"/>
    <path fill="#611A6B" d="M818.32,2404.33c-4.54,0-8.23-3.69-8.23-8.23v-545.77c0-4.54,3.69-8.23,8.23-8.23s8.23,3.69,8.23,8.23
		v545.77C826.55,2400.64,822.86,2404.33,818.32,2404.33z"/>
    <path fill="#4C55A8" d="M1190.73,274.64c0,0-210.7,28.14-349.57,4.44c15.55-30.74,34.44-58.51,57.03-83.32
		C960.77,231.69,1059.27,271.68,1190.73,274.64z"/>
    <path fill="#FE9B42" d="M1635.83,883.05c-1.11,1.48-2.97,3.33-4.82,5.93c32.96,15.18,56.66,58.51,56.66,109.24
		c0,64.06-37.77,116.28-84.06,116.28c-47.03,0-84.8-52.21-84.8-116.28c0-62.95,36.29-114.05,82.21-115.53
		c0.32-1.28,0.23-4.91-4.44-7.4c-46.66,4.44-82.95,57.77-82.95,122.94c0,68.14,40,123.31,89.98,123.31
		c49.62,0,89.61-55.17,89.61-123.31C1693.23,945.63,1669.53,900.45,1635.83,883.05z"/>
  </g>
</svg>
