<svg xmlns="http://www.w3.org/2000/svg" xml:space="preserve" id="Layer_1" x="0" y="0" enable-background="new 0 0 2500 2500" version="1.1" viewBox="0 0 2500 2500">
  <g>
    <path fill="#FE9B42" d="M1492.26,1327.1c-487.5,86.63-836.69-41.04-836.69-41.04c45.59-68.02,105.25-497,123.11-718.9
		c8.36-104.11,44.08-188.85,90.05-255.34c26.98-39.9,57.38-73.33,87.39-99.93c27.36-24.7,54.34-44.08,77.89-58.13l440.39,116.65
		l273.57,213.54C1747.98,483.95,1863.11,1260.99,1492.26,1327.1z"/>
    <path fill="#FFD1CA" d="M2020.73,2412.67H479.21c0,0,141.73-849.99,205.18-928.26c63.46-78.27,331.71-117.41,385.29-161.11
		c11.02-8.74,20.9-27.36,30.02-50.91c36.48-94.23,58.13-271.68,58.13-271.68h222.28c0,0,14.81,121.59,40.65,216.96
		c13.3,48.63,28.88,90.81,47.12,105.63c53.95,43.7,283.83,82.83,347.67,161.11C1879,1562.68,2020.73,2412.67,2020.73,2412.67z"/>
    <path fill="#FFBDB6" d="M1420.76,1217.67c-38.27,38.29-142.86,94.61-321.07,54.72c36.48-94.23,58.13-271.68,58.13-271.68h222.28
		C1380.11,1000.71,1394.92,1122.3,1420.76,1217.67z"/>
    <path fill="#FFD1CA" d="M1636.8,621.63c0,0,63.15-35.75,83.96,9.97c16.53,36.31-31.5,266.48-101.24,215.94L1636.8,621.63z"/>
    <path fill="#FFD1CA" d="M1592.18,998.59c-37.27,75.2-167.99,213.84-322.98,213.84c-155.63,0-285.7-138.63-323.63-213.84
		c-37.92-75.85-54.99-601.62-54.99-601.62l378.62-28.64l377.98,28.64C1647.18,396.97,1630.11,922.73,1592.18,998.59z"/>
    <path fill="#FFBDB6" d="M1633.88,743.19c-3.62-29.58,5.2-87.96,27.13-106.86c21.93-18.91,39.42,12.43,39.42,12.43
		s-26.95-21.23-39.35,6.35c-5.25,11.68-13.71,41.23-8.45,53.7c7.16,16.99,24.26,12.82,27.25,30.39
		C1683.95,763.09,1641.74,807.45,1633.88,743.19z"/>
    <path fill="#FE9B42" d="M855.93,382.68c87.23-322.99,486.05-294.72,486.05-294.72s261.33,5.95,386.22,243.84
		s122.91,1023.27,122.91,1023.27c-163.55,41.63-353.1-14.47-353.1-14.47c-67.17-26.17-87.68-165.23-87.68-165.23
		c117.27-51.83,170.72-156.99,183.73-181.24c13.01-24.26,25.47-146.58,25.47-146.58c25.14,19.81,61.1-3.95,82.92-75.31
		c21.82-71.36,27.74-142.74,2.51-158.7c-25.23-15.96-68.15,8.1-68.15,8.1c0,270.54-90.95,390.06-90.95,390.06
		c94.13-259.31-8.21-443.71-8.21-443.71c3.96,46.53,11.99,68.45,11.99,68.45c-59.47,10.56-128.86,1.73-128.86,1.73
		c-63.44-84.85-78.78-192.05-78.78-192.05s-113.93,65.93-81.75,185.85c0,0-82.95,19.61-168.12-6.55c0,0-6.29-63.33,7.58-116.85
		c0,0-21.05,76.55-25.01,115.47c0,0-83.98,11.73-133.01-0.98c0,0-14.37,608.11,124.4,616.04c0,0-178.42-11.89-218.07-160.58
		S797.42,599.34,855.93,382.68z"/>
    <path fill="#D36D1A" d="M1332.28,660.22c-4.13-7.65,39.55-58.38,93.67-55.01c55.23,3.44,92.42,61.42,87.72,67.65
		c-3.56,4.72-29.49-9.98-77.32-16.36C1377.14,648.62,1336.01,667.13,1332.28,660.22z"/>
    <path fill="#D36D1A" d="M1188.18,660.22c4.13-7.65-39.55-58.38-93.67-55.01c-55.23,3.44-92.42,61.42-87.72,67.65
		c3.56,4.72,29.49-9.98,77.32-16.36C1143.32,648.62,1184.45,667.13,1188.18,660.22z"/>
    <path fill="#FFBDB6" d="M1216.73,868.88h101.1C1317.84,868.88,1264.31,776.69,1216.73,868.88z"/>
    <path fill="#D36D1A" d="M1333.47,749.88c0,0,55.48-62.23,111.33-62.23c44.68,0,55.28,62.23,55.28,62.23
		S1435.71,680.96,1333.47,749.88z"/>
    <path fill="#D36D1A" d="M1188.45,749.88c0,0-55.48-62.23-111.33-62.23c-44.68,0-55.28,62.23-55.28,62.23
		S1086.21,680.96,1188.45,749.88z"/>
    <path fill="#D36D1A" d="M1352.34,997.38c-17.1,27.36-44.46,50.92-79.79,51.3c-38.38,0.38-71.05-27.36-89.3-58.14
		c-20.13-32.3-23.93-68.01-1.9-76.37c1.14-0.76,2.28-1.14,3.42-1.52c42.94-10.26,143.63-14.82,175.55,0
		c2.28,1.14,4.55,2.66,5.7,4.94C1376.66,931.65,1370.96,966.99,1352.34,997.38z"/>
    <path fill="#FFF" d="M1366.02,917.59c-2.66,8.74-6.46,17.1-10.26,19.38c-8.74,4.56-20.14,1.52-66.49,1.14
		c-46.35-0.76-79.03,11.02-94.23,4.18c-11.02-4.94-13.3-20.14-13.68-28.12c1.14-0.76,2.28-1.14,3.42-1.52
		c42.94-10.26,143.63-14.82,175.55,0C1362.6,913.79,1364.88,915.31,1366.02,917.59z"/>
    <path fill="#FF9FCD" d="M1352.34,997.38c-17.1,27.36-44.46,50.92-79.79,51.3c-38.38,0.38-71.05-27.36-89.3-58.14
		c34.2-16.72,83.6,7.6,83.6,7.6C1296.87,982.95,1338.28,993.2,1352.34,997.38z"/>
    <path fill="#FE504B" d="M1671.6,2188.87l23.94,223.8H825.41l23.94-223.8c-184.29,20.52-349.19-101.45-349.19-101.45
		s152.74-597.69,179.72-630.36c26.6-32.68,332.85-127.29,332.85-127.29s40.27-46.74,50.53-55.47
		c10.26-8.36,183.91,102.59,196.83,110.95c0.38,0,0.38,0,0.38,0c10.64-6.84,186.95-119.31,197.21-110.95
		c10.26,8.74,50.53,55.47,50.53,55.47s306.26,94.61,332.85,127.29c26.98,32.68,179.72,630.36,179.72,630.36
		S1855.89,2209.39,1671.6,2188.87z"/>
    <path fill="#FF7878" d="M1508.22,1329.76c0,0-95.75,208.6-155.78,208.6c-60.42,0-92.33-117.03-92.33-117.03
		s-31.92,117.03-92.33,117.03c-60.03,0-155.79-208.6-155.79-208.6s40.27-46.74,50.53-55.47c10.26-8.36,186.57,104.11,197.21,110.95
		c0,0,0,0,0.38,0c0.38,0,0.38,0,0.38,0c10.64-6.84,186.95-119.31,197.21-110.95C1467.94,1283.02,1508.22,1329.76,1508.22,1329.76z"/>
    <path fill="#E22424" d="M1671.6,2197.31c-4.37,0-8.04-3.34-8.41-7.75c-1.4-16.94-34.04-415.79-24.35-484.07
		c9.89-69.68,75.95-149.3,78.75-152.63c2.97-3.63,8.32-4.08,11.87-1.07c3.59,2.97,4.08,8.32,1.07,11.87
		c-0.66,0.78-65.77,79.32-74.96,144.23c-9.44,66.39,24.11,476.16,24.44,480.28c0.37,4.66-3.05,8.74-7.71,9.11
		C1672.05,2197.31,1671.8,2197.31,1671.6,2197.31z"/>
    <path fill="#E22424" d="M849.63,2197.31c-0.21,0-0.45,0-0.7-0.04c-4.66-0.37-8.08-4.45-7.71-9.11
		c0.33-4.12,33.87-413.89,24.48-480.28c-9.23-64.9-74.34-143.44-75-144.23c-3.01-3.54-2.51-8.9,1.07-11.87s8.94-2.55,11.87,1.07
		c2.8,3.34,68.86,82.95,78.79,152.63c9.64,68.28-22.99,467.13-24.39,484.07C857.66,2193.97,853.99,2197.31,849.63,2197.31z"/>
    <path fill="#FFAF6E" d="M1299.99,300.43c0,0-214.68,54.34-431.26,11.4c26.98-39.9,57.38-73.33,87.39-99.93
		C1039.34,246.85,1160.55,287.13,1299.99,300.43z"/>
    <ellipse cx="1471.03" cy="832.37" fill="#FFBDB6" rx="66.35" ry="16.02"/>
    <ellipse cx="1059.69" cy="832.37" fill="#FFBDB6" rx="66.35" ry="16.02"/>
  </g>
</svg>
