<svg xmlns="http://www.w3.org/2000/svg" xml:space="preserve" id="Layer_1" x="0" y="0" enable-background="new 0 0 2500 2500" version="1.1" viewBox="0 0 2500 2500">
  <g>
    <path fill="#FFD1CA" d="M2182.5,2446H326.49c0,0,123.58-683.98,200.88-761.28c50.33-50.34,325.36-96.17,412.99-183.36
		c0.9-0.9,1.8-2.25,3.15-4.05c31.91-44.49,88.98-387.38,88.98-387.38l222,86.28l222-86.28c0,0,57.07,342.89,88.99,387.38
		c1.34,1.8,2.24,3.15,3.14,4.05c87.63,87.18,362.67,133.02,413,183.36C2058.92,1762.02,2182.5,2446,2182.5,2446z"/>
    <path fill="#FFBDB6" d="M1535.04,1405.8c-109.13,44.2-280.92,123.02-591.7,91.71c32.01-44.51,89.32-387.7,89.32-387.7l221.61,86.27
		l221.31-86.27C1475.58,1109.8,1511.96,1310.9,1535.04,1405.8z"/>
    <path fill="#FFD1CA" d="M780.52,623.18c0,0-59.62-49.31-101.82-9.45c-95.87,90.54,46.09,430.77,129.04,350.53
		S780.52,623.18,780.52,623.18z"/>
    <path fill="#FFD1CA" d="M1719.17,395.85c0,0-13.03,546.47-56.62,671.85c-69.66,199.98-341.1,266.49-417.04,266.49
		c-75.95,0-347.38-66.51-417.04-266.49c-43.59-125.38-56.62-671.85-56.62-671.85s337.02-96.46,467.35-96.75
		C1372.63,298.81,1719.17,395.85,1719.17,395.85z"/>
    <path fill="#FFF" d="M1170.32,970.48c29.81-11.55,179.87-15.98,195.81-5.86c39.59,25.13-40.37,121.92-97.91,127.79
		C1210.69,1098.27,1124.81,988.11,1170.32,970.48z"/>
    <path fill="#FFBDB6" d="M689.56,716.84c0,0-10.57-71.5,28.79-66.89c39.36,4.61,86.98,183.29,54.24,205.65
		c-17.39,11.88-25.77,2.58-32.27-7.22c-10.28-15.51-10.91-42.48,2.49-66.25c22.69-40.25-1.04-95.01-19.15-108.84
		C696.3,652.39,686.79,699.73,689.56,716.84z"/>
    <path fill="#FFD1CA" d="M1711.06,623.18c0,0,59.62-49.31,101.82-9.45c95.87,90.54-46.09,430.77-129.04,350.53
		C1600.88,884.03,1711.06,623.18,1711.06,623.18z"/>
    <path fill="#FFBDB6" d="M1802.02,716.84c0,0,10.57-71.5-28.79-66.89c-39.36,4.61-86.98,183.29-54.24,205.65
		c17.39,11.88,25.77,2.58,32.27-7.22c10.28-15.51,10.91-42.48-2.49-66.25c-22.69-40.25,1.04-95.01,19.15-108.84
		C1795.27,652.39,1804.78,699.73,1802.02,716.84z"/>
    <path fill="#FFBDB6" d="M1170.32,915.62h159.86C1330.18,915.62,1256.99,779.58,1170.32,915.62z"/>
    <path fill="#D36D1A" d="M1373.88,787.29c0,0,67.18-86.36,144.22-86.36s92.45,86.36,92.45,86.36S1533,687.86,1373.88,787.29z"/>
    <path fill="#D36D1A" d="M1132.39,787.29c0,0-67.18-86.36-144.22-86.36s-92.45,86.36-92.45,86.36S973.27,687.86,1132.39,787.29z"/>
    <path fill="#35356E" d="M2265.19,2446H234.81c0,0,173.02-658.37,212.11-723.08c39.1-65.16,463.78-218.41,463.78-218.41
		s90.78,158.64,314.13,158.64c6.74,0,13.93,0,20.67-0.45c1.8,0,3.15,0,4.49-0.45c1.35,0.45,2.69,0.45,4.49,0.45
		c6.74,0.45,13.93,0.45,20.67,0.45c223.35,0,314.13-158.64,314.13-158.64s424.68,153.24,463.78,218.41
		C2092.17,1787.63,2265.19,2446,2265.19,2446z"/>
    <path fill="#35356E" d="M1250,1662.25c-1.34,0.45-2.69,0.45-4.49,0.45v-0.45H1250z"/>
    <path fill="#35356E" d="M1254.49,1662.25v0.45c-1.8,0-3.14,0-4.49-0.45H1254.49z"/>
    <path fill="#D36D1A" d="M1367.69,651.25c-6.08-9.47,61.27-99.54,144.19-89.1c67.45,8.49,112.21,79.32,104.34,90.27
		c-7.29,10.14-45.3-23.3-124.01-21.1C1423.28,633.24,1372.06,658.06,1367.69,651.25z"/>
    <path fill="#D36D1A" d="M1132.01,651.25c6.08-9.47-61.27-99.54-144.19-89.1c-67.45,8.49-112.21,79.32-104.34,90.27
		c7.29,10.14,45.3-23.3,124.01-21.1C1076.42,633.24,1127.64,658.06,1132.01,651.25z"/>
    <path fill="#FE9B42" d="M1749.51,475.54c-3.14,79.09-22.02,136.62-22.02,136.62s-22.47,14.83-25.61,22.47
		c-12.13,28.76-26.06,169.87-26.06,169.87c-25.17,0-57.97-151.45-77.74-273.68c-5.4-34.15-9.89-66.06-12.58-91.68
		c0,0-186.5,21.12-340.2,21.12c-153.24,0-339.75-21.12-339.75-21.12c-13.03,117.74-58.42,365.36-90.32,365.36
		c0,0-5.39-132.12-26.06-169.87c-4.5-8.09-27.87-23.82-27.87-23.82s-63.81-198.18,30.56-364.91c22.92-40,53.48-71.9,88.98-97.52
		c31.91-22.47,67.41-40,104.71-53.48c92.58-33.7,192.79-40.9,259.75-40.9c123.13,0,359.07,24.72,453.9,191.89
		C1742.77,323.19,1752.21,407.23,1749.51,475.54z"/>
    <path fill="#FFAB66" d="M1749.38,475.54c-3.14,79.09-22.02,136.62-22.02,136.62s-22.47,14.83-25.61,22.47
		c-12.13,28.76-26.06,169.87-26.06,169.87c-25.17,0-57.97-151.45-77.74-273.68C1597.94,530.81,1687.37,517.78,1749.38,475.54z"/>
    <path fill="#FFAB66" d="M740.34,475.54c2.2,80.52,20.82,135.27,20.82,135.27s24.5,16.18,27.64,23.82
		c12.13,28.76,26.06,169.87,26.06,169.87c25.17,0,57.97-151.45,77.74-273.68C892.61,530.81,802.35,517.78,740.34,475.54z"/>
    <path fill="#FFAF6E" d="M1301.46,215.34c-255.7,35.95-378.84-34.15-420.64-66.96c31.91-22.47,67.41-40,104.71-53.48
		C1089.35,182.08,1301.46,215.34,1301.46,215.34z"/>
  </g>
</svg>
