<svg xmlns="http://www.w3.org/2000/svg" xml:space="preserve" id="Layer_1" x="0" y="0" enable-background="new 0 0 2500 2500" version="1.1" viewBox="0 0 2500 2500">
  <g>
    <path fill="#FE9B42" d="M1749.04,948.33H743.24c0,0-130.4-129.11-119.64-395.09c3.87-97.27,59.39-201.42,145.47-287.5
		c34-33.57,72.3-64.56,114.48-90.81c143.32-91.24,327.96-132.56,505.27-65.85c0,0,147.63-21.95,275.45,104.15
		C1792.51,339.77,1938.84,678.05,1749.04,948.33z"/>
    <path fill="#FFD1CA" d="M2143.04,2414.06H365.57c0,0,118.35-655.04,192.38-729.06c48.2-48.21,311.6-92.1,395.52-175.6
		c0.86-0.86,1.72-2.15,3.02-3.87c30.56-42.61,85.21-370.99,85.21-370.99l212.61,82.63l212.61-82.63c0,0,54.66,328.38,85.22,370.99
		c1.29,1.72,2.15,3.01,3.01,3.87c83.92,83.49,347.32,127.39,395.52,175.6C2024.68,1759.03,2143.04,2414.06,2143.04,2414.06z"/>
    <path fill="#FFBDB6" d="M1522.98,1417.88c-104.51,42.33-269.03,117.81-566.66,87.82c30.65-42.62,85.54-371.3,85.54-371.3
		l212.23,82.62l211.95-82.62C1466.04,1134.41,1500.87,1327,1522.98,1417.88z"/>
    <path fill="#FFD1CA" d="M813.3,668.38c0,0-57.09-47.22-97.51-9.05c-91.81,86.71,44.14,412.54,123.58,335.7
		S813.3,668.38,813.3,668.38z"/>
    <path fill="#FFD1CA" d="M1686.41,450.67c0,0-12.48,523.34-54.23,643.42c-66.71,191.52-250.81,255.22-386.48,255.22
		c-120.31,0-319.77-63.7-386.48-255.22c-41.75-120.08-54.23-643.42-54.23-643.42s309.84-92.38,434.66-92.65
		C1367.44,357.73,1686.41,450.67,1686.41,450.67z"/>
    <path fill="#FFBDB6" d="M726.19,758.08c0,0-10.12-68.48,27.57-64.06c37.69,4.42,83.3,175.53,51.95,196.95
		c-16.66,11.38-24.68,2.47-30.91-6.92c-9.85-14.85-10.45-40.68,2.38-63.44c21.73-38.54-1-90.99-18.34-104.24
		C732.64,696.36,723.54,741.69,726.19,758.08z"/>
    <path fill="#FFD1CA" d="M1678.63,668.38c0,0,57.09-47.22,97.51-9.05c91.81,86.71-44.14,412.54-123.58,335.7
		S1678.63,668.38,1678.63,668.38z"/>
    <path fill="#FFBDB6" d="M1765.75,758.08c0,0,10.12-68.48-27.57-64.06c-37.69,4.42-83.3,175.53-51.95,196.95
		c16.66,11.38,24.68,2.47,30.91-6.92c9.85-14.85,10.45-40.68-2.38-63.44c-21.73-38.54,1-90.99,18.34-104.24
		C1759.29,696.36,1768.4,741.69,1765.75,758.08z"/>
    <path fill="#FFBDB6" d="M1173.69,948.45h153.09C1326.78,948.45,1256.69,818.17,1173.69,948.45z"/>
    <path fill="#D36D1A" d="M1345.35,825.55c0,0,64.34-108.62,138.12-108.62S1572,825.55,1572,825.55S1491.68,659.54,1345.35,825.55z"/>
    <path fill="#D36D1A" d="M1162,825.55c0,0-64.34-108.62-138.12-108.62s-88.54,108.62-88.54,108.62S1015.67,659.54,1162,825.55z"/>
    <path fill="#FE504B" d="M1574.93,1512.42c0,0,406.71,146.76,444.16,209.16c37.44,61.97,203.14,692.48,203.14,692.48H277.77
		c0,0,165.7-630.51,203.14-692.48c37.44-62.41,444.16-209.16,444.16-209.16c49.87-160.02-13-204.39,79.06-163.12
		s193.06,50.25,246.98,50.25c163.94,0,289.07-62.48,307.65-50.25C1587.35,1368.12,1557.22,1459.94,1574.93,1512.42z"/>
    <path fill="#D36D1A" d="M1345.75,693.17c-5.19-9.55,40.3-61.18,101.04-68.49c76.96-9.26,144.85,56.66,140.34,66.24
		c-3.45,7.33-47.65-12.49-122.38-10.75C1392.59,681.86,1350.36,701.66,1345.75,693.17z"/>
    <path fill="#D36D1A" d="M1161.6,693.17c5.19-9.55-40.3-61.18-101.04-68.49c-76.96-9.26-144.85,56.66-140.34,66.24
		c3.45,7.33,47.65-12.49,122.38-10.75C1114.76,681.86,1156.99,701.66,1161.6,693.17z"/>
    <path fill="#D36D1A" d="M1466.24,795.11c0,7.75-0.86,15.06-3.02,21.52c-19.36-10.76-41.31-2.15-54.23,5.6
		c-3.01-7.75-4.73-17.22-4.73-27.11c0-28.41,14.2-51.65,30.99-51.65C1452.46,743.47,1466.24,766.71,1466.24,795.11z"/>
    <path fill="#D36D1A" d="M1041,794.27c0,7.75,0.86,15.06,3.02,21.52c19.36-10.76,41.31-2.15,54.23,5.6
		c3.01-7.75,4.73-17.22,4.73-27.11c0-28.41-14.2-51.65-30.99-51.65C1054.78,742.63,1041,765.87,1041,794.27z"/>
    <path fill="#D36D1A" d="M1327.27,1090.78c-18.5,27.97-45.19,52.07-77.04,52.07c-40.45,0-70.15-33.57-86.94-67.14
		c-15.06-30.56-19.8-61.54-12.05-68.86c2.15-2.15,6.03-4.31,10.76-6.03c39.17-14.63,151.49-12.05,183.34,2.15
		c3.01,1.29,5.16,2.58,6.46,3.87C1359.98,1015.04,1350.08,1055.92,1327.27,1090.78z"/>
    <path fill="#FFF" d="M1345.35,1002.99c-5.16,10.33-12.05,20.23-18.51,22.38c-12.91,4.3-41.75-2.77-70.58-2.77
		c-28.41,0-54.66,5.78-73.17,1.48c-12.91-2.58-18.94-15.49-21.09-23.24C1201.17,986.2,1313.49,988.78,1345.35,1002.99z"/>
    <path fill="#FF9FCD" d="M1327.27,1090.78c-18.5,27.97-45.19,52.07-77.04,52.07c-40.45,0-70.15-33.57-86.94-67.14
		c36.16-20.23,71.02,0.86,71.02,0.86C1265.73,1056,1301.45,1078.3,1327.27,1090.78z"/>
    <path fill="#FE9B42" d="M685.4,742.63c-6.99,67.41-34.72-33.36-18.37-141.89c14.66-97.27,73.26-200.41,73.26-200.41
		S960.9,327.91,1099,300.96c138.1-26.95,439.55,37.05,555.75,64s149.17,351.98,149.17,351.98
		c-27.66-119.57-125.29-48.55-125.29-48.55l-42.07,200.12V695.28c-167.06,21.66-318.63-244.43-318.63-244.43
		s-123.87,114.52-198.72,144.83c0,0,40.12-32,42.8-60.63c0,0-186.21,131.08-304.8,149.75c0,0-9.13,99.5,16.13,182.02
		c0,0-55.94-106.94-60.03-198.44C813.3,668.38,701.24,589.8,685.4,742.63z"/>
    <path fill="#FFAF6E" d="M1169.75,361.72c-155.37-1.29-309.45-56.38-400.69-95.98c34-33.57,72.3-64.56,114.48-90.81
		C995.45,275.64,1169.75,361.72,1169.75,361.72z"/>
    <path fill="#E22424" d="M1806.82,2423.78c-4.9,0-9.1-3.76-9.52-8.73l-39.86-457.93c-0.47-5.27,3.45-9.9,8.68-10.36
		c5.18-0.14,9.94,3.45,10.36,8.68l39.86,457.93c0.47,5.27-3.45,9.9-8.68,10.36C1807.38,2423.75,1807.1,2423.78,1806.82,2423.78z"/>
    <path fill="#E22424" d="M760.97,2423.78c-0.28,0-0.56-0.02-0.84-0.05c-5.23-0.47-9.15-5.09-8.68-10.36l39.86-457.93
		c0.47-5.25,5.51-8.87,10.36-8.68c5.23,0.47,9.15,5.09,8.68,10.36l-39.86,457.93C770.08,2420.02,765.88,2423.78,760.97,2423.78z"/>
    <path fill="#E22424" d="M1243.17,1631.82c-131.86,0-219.61-43.43-220.91-44.11c-4.71-2.38-6.58-8.14-4.2-12.84
		c2.47-4.71,8.12-6.58,12.88-4.2c1.91,0.96,191.55,94.42,431.79-0.37c4.76-1.89,10.46,0.47,12.42,5.39
		c1.91,4.9-0.51,10.46-5.41,12.39C1386.65,1620.87,1309.36,1631.82,1243.17,1631.82z"/>
  </g>
</svg>
