<svg xmlns="http://www.w3.org/2000/svg" xml:space="preserve" id="Layer_1" x="0" y="0" enable-background="new 0 0 2500 2500" version="1.1" viewBox="0 0 2500 2500">
  <g>
    <path fill="#BB5C83" d="M2050.21,910.95c0,247.68-186.41,481.91-390.84,389.12c-62.47-28.46-81.7-86.5-78-158.96
		c6.66-164.51,129.76-402.2,123.1-527.89c-2.59-49.91-9.98-94.64-19.96-132.71c-24.77-100.18-63.96-157.11-63.96-157.11
		s74.67-142.69,178.93-80.96C1904.09,304.18,2050.21,559.39,2050.21,910.95z"/>
    <path fill="#AF4676" d="M1723.69,855.73c-36.97,153.78-97.22,239.92-142.32,285.39c6.66-164.51,129.76-402.2,123.1-527.89
		c-2.59-49.91-9.98-94.64-19.96-132.71c25.88-17.74,43.99-28.83,43.99-28.83S1788.01,586.97,1723.69,855.73z"/>
    <path fill="#FE504B" d="M1609.56,307.02c0,0,30.85-32.84,39.56-27.29s41.19,44.36,68.92,130.71
		c27.73,86.35-9.41,146.86-9.41,146.86S1608.02,354.91,1609.56,307.02z"/>
    <path fill="#FFD1CA" d="M1881.06,2386.17H468.8c0,0,137.89-826.96,199.62-903.11c61.74-76.15,235.22-114.23,287.34-156.74
		c10.72-8.5,20.33-26.62,29.21-49.54c35.49-91.68,56.56-264.32,56.56-264.32h216.26c0,0,14.41,118.3,39.55,211.08
		c12.94,47.32,28.1,88.35,45.84,102.77c52.49,42.51,276.14,80.59,338.25,156.74C1743.17,1559.21,1881.06,2386.17,1881.06,2386.17z"/>
    <path fill="#FFBDB6" d="M1297.35,1223.55c-37.23,37.26-138.99,92.05-312.37,53.23c35.49-91.68,56.56-264.32,56.56-264.32h216.26
		C1257.79,1012.47,1272.21,1130.76,1297.35,1223.55z"/>
    <path fill="#FFD1CA" d="M1490.69,1003.76c-53.17,103.81-245.69,214.7-396.48,214.7c-151.41,0-259.24-134.88-296.14-208.04
		c-36.89-73.8-16.53-585.32-16.53-585.32l368.37-101.8l367.74,101.8C1517.63,425.09,1548.51,890.85,1490.69,1003.76z"/>
    <path fill="#FFD1CA" d="M1519.98,653.31c0,0,62.25-83.23,115.68-29.4c61.69,62.15-37.17,357.8-119.3,271.34L1519.98,653.31z"/>
    <path fill="#BB5C83" d="M1632.6,967.42c-128.28,202.21-347.49,205.91-347.49,205.91c146.02-63.95,195.56-148.61,205.54-169.68
		c9.98-20.7,28.1-106.1,28.1-106.1c54.71,43.62,107.57-70.61,107.57-70.61c38.08-118.29,28.47-205.91-26.99-204.06
		c-68.39,2.22-81.7,68.02-81.7,68.02c-151.57,0-220.32-258.4-220.32-258.4s-1.48,126.8,53.97,218.11c0,0-109.42-89.83-87.25-236.96
		c0,0-182.62,213.67-487.97,166.35v85.39c0,0-144.54-136.04,0.74-362.28c11.46-17.74,24.4-35.86,39.93-54.71
		c6.65-8.5,13.67-17.01,21.43-25.88c131.98-150.09,486.5-160.44,627.71-3.33c0,0,114.23-8.5,188.9,169.68
		C1733.53,577.78,1760.88,765.21,1632.6,967.42z"/>
    <path fill="#D873A1" d="M1129.11,314.95c0,0-209.61,42.88-352.3-11.83c11.46-17.74,24.4-35.86,39.93-54.71
		C875.51,286.48,976.8,327.89,1129.11,314.95z"/>
    <path fill="#BB5C83" d="M1378.77,605.78c0,0,68.62,372.99-29.74,616.79c0,0,194.56-146.1,168.49-531.55L1378.77,605.78z"/>
    <path fill="#FFBDB6" d="M1094.2,890.85H973.11C973.11,890.85,961.74,767.97,1094.2,890.85z"/>
    <path fill="#BB5C83" d="M1121.65,684.45c-6-11.14,37.05-55.72,92.82-55.72c68.67,0,139.23,46.56,134.32,57.3
		c-3.54,7.74-64.9-10.06-141.81-4.75C1176.86,683.36,1127.35,695.02,1121.65,684.45z"/>
    <path fill="#BB5C83" d="M972.41,684.45c4.95-11.14-30.55-55.72-76.55-55.72c-56.64,0-114.83,46.56-110.78,57.3
		c2.92,7.74,50.89-10.05,116.96-4.75C926.85,683.27,967.71,695.02,972.41,684.45z"/>
    <path fill="#BB5C83" d="M1131.5,773.96c0,0,59.46-85.16,127.23-68.28c53.3,13.27,61,62.74,61,62.74l25.35-4.75l-30.89,18.22
		C1314.17,781.88,1280.9,675.98,1131.5,773.96z"/>
    <path fill="#BB5C83" d="M1252.79,770.7c0,11.09-2.96,21.07-7.02,28.46c-15.53-4.07-28.84-1.85-38.45,1.11
		c-4.81-7.39-7.76-17.75-7.76-29.57c0-22.92,11.83-41.4,26.62-41.4C1240.58,729.3,1252.79,747.78,1252.79,770.7z"/>
    <path fill="#BB5C83" d="M970.28,773.96c0,0-51.62-85.16-110.45-68.28c-46.27,13.27-52.95,62.74-52.95,62.74l-22.01-4.75
		l26.82,18.22C811.69,781.88,840.58,675.97,970.28,773.96z"/>
    <path fill="#BB5C83" d="M879.66,770.7c0,11.09,2.57,21.07,6.1,28.46c13.48-4.07,25.03-1.85,33.38,1.11
		c4.17-7.39,6.74-17.75,6.74-29.57c0-22.92-10.27-41.4-23.11-41.4C890.25,729.3,879.66,747.78,879.66,770.7z"/>
    <path fill="#BB5C83" d="M1158.82,963.67c-3.69,18.11-14.04,41.03-29.57,59.15c-9.98,11.46-21.81,21.07-35.12,26.62
		c-28.1,11.09-65.8,1.85-93.89-21.44c-22.92-18.85-39.55-46.95-39.55-80.59c0-1.48,4.06-2.96,11.46-4.07v-0.37
		c40.29-7.76,173.01-14.05,182.25-8.13C1160.3,938.9,1161.78,949.62,1158.82,963.67z"/>
    <path fill="#FFF" d="M1158.82,963.67c-46.95,24.03-153.41,13.68-165.61,9.24c-9.24-3.33-17-19.59-21.07-29.57v-0.37
		c40.29-7.76,173.01-14.05,182.25-8.13C1160.3,938.9,1161.78,949.62,1158.82,963.67z"/>
    <path fill="#FF9FCD" d="M1129.25,1022.82c-9.98,11.46-21.81,21.07-35.12,26.62c-28.1,11.09-65.8,1.85-93.89-21.44
		c17.14-21.07,60.63-27.36,73.93-10.72C1074.17,1017.27,1105.59,996.2,1129.25,1022.82z"/>
    <path fill="#FFBDB6" d="M1525.87,805.72c-1.06-40.93,18.69-119.62,51.16-142.59s52.28,22.18,52.28,22.18s-34.06-32.58-54.66,3.51
		c-8.72,15.28-24.17,54.58-18.62,72.34c7.56,24.18,31.49,20.73,33.27,45.15C1591.73,839.52,1528.17,894.63,1525.87,805.72z"/>
    <path fill="#35356E" d="M1363.94,1322.2c-20.75,4.12-234.69,189.33-282.01,426.98c0,0-81.7-415.89-142.59-415.89
		c-30.11,0-258.24,89.52-291.51,152.89s-198.04,899.99-198.04,899.99h1450.84c0,0-122.39-898.41-188.93-955.45
		C1645.16,1373.69,1363.94,1322.2,1363.94,1322.2z"/>
    <path fill="#515196" d="M1569.11,2394.39c-4.33,0-7.96-3.37-8.2-7.74l-35.64-631.04c-0.26-4.53,3.21-8.42,7.74-8.66
		c4.93-1.12,8.4,3.17,8.66,7.7l35.64,631.04c0.26,4.53-3.21,8.42-7.74,8.66C1569.41,2394.39,1569.25,2394.39,1569.11,2394.39z"/>
    <path fill="#515196" d="M695.76,2394.39c-4.53,0-8.22-3.69-8.22-8.22v-559.75c0-4.53,3.69-8.22,8.22-8.22
		c4.53,0,8.22,3.69,8.22,8.22v559.75C703.98,2390.7,700.29,2394.39,695.76,2394.39z"/>
    <ellipse cx="1307.09" cy="860.25" fill="#FFBDB6" rx="68.81" ry="24.01"/>
    <ellipse cx="829.74" cy="860.25" fill="#FFBDB6" rx="62.67" ry="24.01"/>
  </g>
</svg>
