<svg xmlns="http://www.w3.org/2000/svg" xml:space="preserve" id="Layer_1" x="0" y="0" enable-background="new 0 0 2500 2500" version="1.1" viewBox="0 0 2500 2500">
  <g>
    <path fill="#DD9090" d="M2139.65,2419.97H393.24c0,0,22.02-463.27,191.31-628.56c169-165.58,305.41-175.58,387.49-257.66
		c0.86-0.86,1.71-2,2.86-3.43c30.02-41.75,83.79-279.39,83.79-279.39l207.9,80.93l207.61-80.93c0,0,24.88,109.81,50.33,193.31
		c13.16,43.18,26.31,79.5,36.32,89.51c82.36,82.07,218.48,92.08,387.77,257.66C2117.63,1956.7,2139.65,2419.97,2139.65,2419.97z"/>
    <path fill="#B56161" d="M1524.53,1444.25c-102.38,41.47-258.08,115.45-549.63,86.08c30.02-41.75,83.79-279.39,83.79-279.39
		l207.9,80.93l207.61-80.93C1474.2,1250.93,1499.08,1360.75,1524.53,1444.25z"/>
    <path fill="#DD9090" d="M1738.96,771.69c0,0,68.32-73.05,110.8-43.13c116.12,81.81-2.1,421.85-110.81,357.23
		C1630.23,1021.17,1738.96,771.69,1738.96,771.69z"/>
    <path fill="#DD9090" d="M778.03,771.69c0,0-68.32-73.05-110.8-43.13c-116.12,81.81,2.1,421.85,110.81,357.23
		C886.75,1021.17,778.03,771.69,778.03,771.69z"/>
    <path fill="#DD9090" d="M1692.05,1211.51c-102.32,224.46-364.8,249.84-433.85,249.84c-71.17,0-331.53-25.38-433.06-249.84
		c-102.31-224.45-25.37-739.2-25.37-739.2h917.64C1717.41,472.31,1793.56,987.05,1692.05,1211.51z"/>
    <path fill="#8E4635" d="M1896,820.84c-30.02-188.45-157-49.19-157-49.19s24.88,251.37-28.31,253.08
		c-53.48,1.72-79.21-271.96-79.21-271.96c-99.23-22.31-121.25-158.14-121.25-158.14s-215.66,179.26-267.13,43.43
		c0,0-313.75,180.16-329.68-1.23c0,0-55.48,402.48-103.52,402.48c-53.48,0-28.88-260.8-28.88-260.8s-49.19-71.78-101.52-55.48
		c-72.92,22.59-55.77,178.44-55.77,178.44c-44.61-76.64-75.5-180.16-16.01-345.45C646.89,447.08,744.7,310.1,871.67,216.88
		c47.18-34.6,98.08-63.2,151.85-82.07c21.45-8.01,43.47-14.01,65.77-18.3c399.78-76.93,554.2,82.07,561.64,90.08
		c-4.86-8.87-89.51-160.72-0.86-132.4c90.94,29.45,94.66,166.43,94.66,166.43c89.22-39.46,178.44-6,180.73,38.61
		c3.72,85.5-133.26,2.29-144.98-4.86C2091.89,491.41,1896,820.84,1896,820.84z"/>
    <path fill="#3887FE" d="M2197.69,2419.97H302.31c0-680.32,586.52-859.33,586.52-859.33c86.08,118.55,244.79,167.29,360.89,165.86
		c0.29,0,0.29,0,0.57,0c116.1,1.43,274.24-55.58,360.89-165.86C1611.18,1560.64,2197.69,1739.65,2197.69,2419.97z"/>
    <path fill="#BC5946" d="M1478.78,264.92c-311.13,82.07-523.04-2.57-607.11-48.04c47.18-34.6,98.08-63.2,151.85-82.07
		C1194.24,245.76,1478.78,264.92,1478.78,264.92z"/>
    <path fill="#8E4635" d="M1327.06,764.3c-4.54-9.03,41.86-56.9,102.95-64.96c81.04-10.68,153.51,53.23,149.52,62.5
		c-3.1,7.22-51.07-22.27-131.14-19.61C1374.72,744.69,1331.16,772.46,1327.06,764.3z"/>
    <path fill="#8E4635" d="M1189.93,764.3c4.54-9.03-41.86-56.9-102.95-64.96c-81.04-10.68-153.5,53.23-149.52,62.5
		c3.1,7.22,51.07-22.27,131.14-19.61C1142.27,744.69,1185.83,772.46,1189.93,764.3z"/>
    <path fill="#B56161" d="M1843.31,803.46c0,0-15.2-53.64-45.88-33.15c-30.68,20.49-57.66,181.17-22.72,202.59
		c34.93,21.42,66.05-79.87,11.05-75.94c0,0-3.47-94.39,17.85-107.34C1824.91,776.68,1843.31,803.46,1843.31,803.46z"/>
    <path fill="#B56161" d="M680.34,803.46c0,0,15.2-53.64,45.88-33.15c30.68,20.49,57.66,181.17,22.72,202.59
		s-66.05-79.87-11.05-75.94c0,0,3.47-94.39-17.85-107.34C698.74,776.68,680.34,803.46,680.34,803.46z"/>
    <path fill="#B56161" d="M1159.02,1075.6h181.39C1340.41,1075.6,1249.72,956.72,1159.02,1075.6z"/>
    <path fill="#B56161" d="M1091.13,1135.65c0,0,196.09,101.72,359.09-51.47C1450.22,1084.18,1288.44,1302.33,1091.13,1135.65z"/>
    <path fill="#B56161" d="M1417.13,1075.6c0,0,58.83-6.74,53.93,55.15C1471.05,1130.75,1459.41,1089.08,1417.13,1075.6z"/>
    <path fill="#B56161" d="M1192.24,1230.63c0,0,72.92,7.35,128.07-5.52c0,0-19,42.28-58.83,53.93S1192.24,1230.63,1192.24,1230.63z"/>
    <path fill="#8E4635" d="M1320.31,895.48c0,0,63.77-82.07,134.98-73.49c70.92,8.58,74.64,100.37,74.64,100.37
		S1462.43,802.25,1320.31,895.48z"/>
    <path fill="#8E4635" d="M968.52,922.36c0,0,3.72-91.8,74.64-100.37c71.21-8.58,134.98,73.49,134.98,73.49
		C1036.01,802.25,968.52,922.36,968.52,922.36z"/>
    <path fill="#1A498E" d="M1800.78,2429.33c-5.17,0-9.37-4.21-9.37-9.37v-393.31c0-5.17,4.21-9.37,9.37-9.37
		c5.17,0,9.37,4.21,9.37,9.37v393.31C1810.16,2425.13,1805.95,2429.33,1800.78,2429.33z"/>
    <path fill="#1A498E" d="M693.13,2429.33c-5.17,0-9.37-4.21-9.37-9.37v-393.31c0-5.17,4.21-9.37,9.37-9.37s9.37,4.21,9.37,9.37
		v393.31C702.5,2425.13,698.3,2429.33,693.13,2429.33z"/>
    <path fill="#FFF6F5" d="M1038.8,1047.35c-103.49,0-187.68-84.19-187.68-187.68s84.19-187.68,187.68-187.68
		c103.51,0,187.71,84.19,187.71,187.68S1142.31,1047.35,1038.8,1047.35z M1038.8,686.02c-95.74,0-173.65,77.91-173.65,173.65
		s77.91,173.65,173.65,173.65c95.76,0,173.67-77.91,173.67-173.65S1134.56,686.02,1038.8,686.02z"/>
    <path fill="#FFF6F5" d="M1293.51,866.69h-74.02c-3.89,0-7.02-3.13-7.02-7.02s3.13-7.02,7.02-7.02h74.02c3.89,0,7.02,3.13,7.02,7.02
		S1297.4,866.69,1293.51,866.69z"/>
    <path fill="#FFF6F5" d="M858.14,823.02c-1.28,0-2.58-0.34-3.75-1.07l-103.4-65.38c-3.29-2.08-4.25-6.42-2.19-9.69
		c2.1-3.31,6.4-4.23,9.69-2.19l103.4,65.38c3.29,2.08,4.25,6.42,2.19,9.69C862.73,821.88,860.47,823.02,858.14,823.02z"/>
    <path fill="#FFF6F5" d="M1474.2,1047.35c-103.51,0-187.71-84.19-187.71-187.68s84.19-187.68,187.71-187.68
		c103.49,0,187.68,84.19,187.68,187.68S1577.69,1047.35,1474.2,1047.35z M1474.2,686.02c-95.76,0-173.67,77.91-173.67,173.65
		s77.91,173.65,173.67,173.65c95.74,0,173.65-77.91,173.65-173.65S1569.94,686.02,1474.2,686.02z"/>
    <path fill="#FFF6F5" d="M1654.87,823.02c-2.33,0-4.59-1.14-5.94-3.27c-2.06-3.27-1.1-7.61,2.19-9.69l103.37-65.38
		c3.27-2.03,7.61-1.12,9.69,2.19c2.06,3.27,1.1,7.61-2.19,9.69l-103.37,65.38C1657.45,822.68,1656.15,823.02,1654.87,823.02z"/>
  </g>
</svg>
