<svg xmlns="http://www.w3.org/2000/svg" xml:space="preserve" id="Layer_1" x="0" y="0" enable-background="new 0 0 2500 2500" version="1.1" viewBox="0 0 2500 2500">
  <g>
    <path fill="#FFD1CA" d="M2003.05,2446H496.95c0,0,138.47-830.45,200.46-906.92c62-76.47,324.09-114.71,376.43-157.4
		c10.77-8.54,20.42-26.73,29.33-49.74c35.64-92.07,56.8-265.43,56.8-265.43h217.18c0,0,14.47,118.8,39.72,211.97
		c12.99,47.52,28.21,88.72,46.04,103.2c52.71,42.69,277.31,80.93,339.67,157.4C1864.57,1615.55,2003.05,2446,2003.05,2446z"/>
    <path fill="#FFBDB6" d="M1416.87,1278.47c-37.39,37.41-139.58,92.44-313.69,53.46c35.64-92.07,56.8-265.43,56.8-265.43h217.18
		C1377.15,1066.5,1391.62,1185.29,1416.87,1278.47z"/>
    <path fill="#FFD1CA" d="M1584.34,1064.43c-36.41,73.48-164.12,208.92-315.55,208.92c-152.05,0-279.13-135.45-316.19-208.92
		c-37.05-74.11-53.73-587.79-53.73-587.79l369.92-102.23l369.29,102.23C1638.08,476.64,1621.4,990.32,1584.34,1064.43z"/>
    <path fill="#FFD1CA" d="M1625.55,730.21c0,0,52.92-44.67,89.41-12.95c47.29,41.11-27.87,275.49-107.54,224.45L1625.55,730.21z"/>
    <path fill="#FFD1CA" d="M911.29,730.21c0,0-51.92-45.83-89.1-14.92c-48.18,40.06,25.86,275.85,106.64,226.58L911.29,730.21z"/>
    <path fill="#FFBDB6" d="M1627.9,838.82c1.74-29.06,20.51-83.61,44.91-97.91c24.41-14.3,35.69,18.89,35.69,18.89
		s-22.15-25.15-38.94-0.83c-7.11,10.3-20.44,37.2-17.58,50.12c3.89,17.59,21.05,16.6,20.83,34.01
		C1672.51,866.77,1624.13,901.95,1627.9,838.82z"/>
    <path fill="#FFBDB6" d="M903.61,838.93c-1.09-29.09-18.66-84.04-42.74-98.88c-24.08-14.84-36.1,18.1-36.1,18.1
		s22.7-24.66,38.95,0.03c6.88,10.45,19.61,37.64,16.47,50.49c-4.28,17.5-21.41,16.13-21.57,33.54
		C858.39,865.89,905.98,902.13,903.61,838.93z"/>
    <path fill="#8E4635" d="M1268.48,315.49c0,0-362.64,104.57-394.59,152.51c-135.47,203.21-134.7,798.96-134.7,798.96
		c158.16,78.33,358.43,78.33,358.43,78.33c15.56-27.74,32.86-108.22,32.86-108.22c-20.87-8.62-73.4-49.05-73.4-49.05
		c-62.34-52.28-93.36-98.58-104.47-123.6c-12.62-28.44-31.51-123.58-31.51-123.58c-33.59,22.71-96.33-33.41-112.4-149.81
		c-18.13-131.29,75.62-71.72,75.62-71.72c-3.05,277.46,113.75,382.66,113.75,382.66c-77.21-205.44-30.73-380.72-30.73-380.72
		s186.91-21.31,280.85-154.95c0,0-10.65,58.11-56.17,105.56c0,0,167.54-10.65,249.86-134.61c0,0,19.37,99.75,110.4,166.09
		c0,0-13.07-72.63,5.81-126.38c0,0,82.19,378.91-19.19,525.02c0,0,116.8-105.2,113.75-382.66c0,0,92.83-50.84,75.32,71.72
		c-18.92,132.47-83.45,170.87-115.41,154.17c0,0-16.21,102.24-31.36,125.04c-15.16,22.8-72.98,117.79-174.52,166.92
		c0,0,17.11,80.39,32.67,108.13c0,0,200.26,0,358.43-78.33c0,0,4.73-595.75-130.74-798.96
		C1635.07,420.07,1268.48,315.49,1268.48,315.49"/>
    <path fill="#FE9B42" d="M1724.78,533.13c0,0,57.3-81.39-14.17-158.71C1611.83,267.54,1550.82,54,1269.97,54
		c-308.2,0-539.24,377.18-461.43,481.03C808.54,535.03,1580.72,511.82,1724.78,533.13z"/>
    <path fill="#FF831D" d="M1749.82,700.77c0,0-164.83-145.55-481.49-145.52c-316.29,0.02-481.49,145.52-481.49,145.52
		c-34.53-74.99,15.59-162.6,15.59-162.6c195.64-101.35,346.33-133.59,465.9-133.6c119.65,0,270.63,32.25,466.27,133.6
		C1734.59,538.17,1784.34,625.78,1749.82,700.77z"/>
    <path fill="#FFBB83" d="M1404.1,538.46c-4.9,4.9-74.49-9.27-144.08-9.44c-69.95-0.17-139.89,13.63-144.08,9.44
		c-15.92-15.92-15.92-74.14,0-90.06c7.47-7.47,75.8-22.28,144.08-21.79c69.38,0.5,138.71,16.42,144.08,21.79
		C1420.02,464.32,1420.02,522.54,1404.1,538.46z"/>
    <path fill="#8E4635" d="M1334.18,736.59c-3.79-8.15,37.75-47.41,90.33-53.37c55.57-6.3,106.81,26.48,104.55,35.65
		c-1.89,7.66-40.39-4.34-111.63,4.17C1362.54,729.6,1336.94,742.51,1334.18,736.59z"/>
    <path fill="#8E4635" d="M1212.72,730.86c3.3-8.36-40.51-45.07-93.35-47.88c-55.85-2.97-105.04,32.82-102.23,41.83
		c2.34,7.53,40.05-6.75,111.68-2.5C1184,725.57,1210.32,736.93,1212.72,730.86z"/>
    <path fill="#8E4635" d="M1351.59,823.88c0,0,57.14-71.64,102.65-65.83c45.52,5.81,57.24,66.3,57.24,66.3
		S1455.21,746.43,1351.59,823.88z"/>
    <ellipse cx="1413.89" cy="823.88" fill="#8E4635" rx="25.18" ry="43.6"/>
    <path fill="#8E4635" d="M1194.91,823.88c0,0-57.14-71.64-102.65-65.83c-45.52,5.81-57.24,66.3-57.24,66.3
		S1091.28,746.43,1194.91,823.88z"/>
    <ellipse cx="1132.6" cy="823.88" fill="#8E4635" rx="25.18" ry="43.6"/>
    <path fill="#FFBDB6" d="M1219.39,948.12h107.72C1327.11,948.12,1279.17,836.98,1219.39,948.12z"/>
    <path fill="#FFBDB6" d="M1176.64,1018.07c0,0,113.32-7.99,193.22-13.07C1369.86,1005,1293.59,1063.83,1176.64,1018.07z"/>
    <path fill="#FFBDB6" d="M1240.32,1059.63c0,0,45.64-1.94,77.11-8.72C1317.43,1050.91,1292.49,1114.83,1240.32,1059.63z"/>
    <path fill="#35356E" d="M1762.07,2446H777.93l30.07-462.93c52.72-78.33,40.73-495.98,45.55-531.62
		c4.82-35.64,180.61-52.78,180.61-52.78c109.88,158.15,235.65,227.28,235.65,227.28s123.99-64.22,233.88-222.37
		c0,0,172.25,27.47,177.45,63.11c4.83,35.64-1.85,438.06,50.86,516.39L1762.07,2446z"/>
    <ellipse cx="1501.43" cy="899.93" fill="#FFBDB6" rx="54.72" ry="17.92"/>
    <ellipse cx="1035.01" cy="899.93" fill="#FFBDB6" rx="54.72" ry="17.92"/>
    <circle cx="1651.78" cy="917.84" r="14.48" fill="#FE9B42"/>
    <circle cx="882.35" cy="917.84" r="14.48" fill="#FE9B42"/>
    <g>
      <path fill="#FE9B42" d="M1738.35,768.75l-14.18-2.48c-2.01-0.35-3.92,0.99-4.27,3l-1.94,11.02c-0.35,2.01,0.99,3.92,3,4.28
			l14.18,2.48c2.01,0.35,3.92-0.99,4.27-3l1.93-11.02C1741.7,771.02,1740.35,769.1,1738.35,768.75z"/>
      <path fill="#FE9B42" d="M1734.09,793.07l-14.18-2.48c-2.01-0.35-3.92,0.99-4.28,3l-1.93,11.03c-0.35,2.01,0.99,3.92,3,4.27
			l14.18,2.48c2.01,0.35,3.92-0.99,4.27-3l1.93-11.03C1737.44,795.34,1736.09,793.42,1734.09,793.07z"/>
    </g>
  </g>
</svg>
