<svg xmlns="http://www.w3.org/2000/svg" xml:space="preserve" id="Layer_1" x="0" y="0" enable-background="new 0 0 2500 2500" version="1.1" viewBox="0 0 2500 2500">
  <g>
    <path fill="#8E4635" d="M1715.89,615.83c0,0,48.09,133.55-29.41,324.19c-70.58,173.68-213.12,180.6-213.12,180.6L869.28,682.26
		l-29.07-55.7c0,0-50.86-198.94,67.47-318.65c8.3-8.65,17.99-16.95,28.37-24.57c6.58-4.84,13.49-9.69,20.42-14.53
		c153.96-106.22,377.12-168.15,559.79-20.76c0,0,92.38-213.47,281.97-61.93C1897.88,265.7,2043.19,648.35,1715.89,615.83z"/>
    <path fill="#DD9090" d="M1903.73,2368.19H581.99c0,0,129.05-773.96,186.83-845.23c57.78-71.27,220.14-106.91,268.93-146.7
		c10.03-7.96,19.03-24.91,27.33-46.36c33.21-85.8,52.93-247.38,52.93-247.38h202.4c0,0,13.49,110.71,37.02,197.56
		c12.11,44.28,26.29,82.69,42.91,96.18c49.13,39.79,258.45,75.42,316.57,146.7C1774.68,1594.23,1903.73,2368.19,1903.73,2368.19z"/>
    <path fill="#B56161" d="M1357.43,1280.09c-34.84,34.87-130.08,86.15-292.35,49.82c33.21-85.8,52.93-247.38,52.93-247.38h202.4
		C1320.41,1082.53,1333.9,1193.24,1357.43,1280.09z"/>
    <path fill="#DD9090" d="M1503.78,1074.37c-49.76,97.15-195.35,200.94-336.47,200.94c-141.71,0-242.62-126.23-277.16-194.71
		c-34.53-69.07-15.47-547.8-15.47-547.8s-5.24-95.27,344.76-95.27c308.38,0,309.57,95.27,309.57,95.27S1557.9,968.7,1503.78,1074.37
		z"/>
    <path fill="#DD9090" d="M1531.2,746.39c0,0,58.26-77.89,108.26-27.52c57.74,58.16-34.79,334.87-111.66,253.95L1531.2,746.39z"/>
    <path fill="#B56161" d="M1167.3,968.7h-113.33C1053.98,968.7,1043.33,853.7,1167.3,968.7z"/>
    <path fill="#B56161" d="M1536.7,889.03c-0.99-38.3,17.49-111.95,47.89-133.45c30.4-21.5,48.93,20.76,48.93,20.76
		s-31.88-30.49-51.16,3.29c-8.16,14.3-22.62,51.08-17.42,67.7c7.08,22.63,29.47,19.4,31.14,42.26
		C1598.35,920.66,1538.86,972.24,1536.7,889.03z"/>
    <ellipse cx="1366.54" cy="940.07" fill="#B56161" rx="64.4" ry="22.47"/>
    <ellipse cx="919.79" cy="940.07" fill="#B56161" rx="58.65" ry="22.47"/>
    <path fill="#8E4635" d="M1192.22,743.85c-3.53-7.59,35.18-44.19,84.18-49.74c51.79-5.87,99.54,24.68,97.44,33.22
		c-1.76,7.14-37.64-4.05-104.04,3.89C1218.65,737.34,1194.79,749.37,1192.22,743.85z"/>
    <path fill="#8E4635" d="M1051.11,743.85c3.53-7.59-35.18-44.19-84.18-49.74c-51.79-5.87-99.54,24.68-97.44,33.22
		c1.76,7.14,37.64-4.05,104.04,3.89C1024.69,737.34,1048.54,749.37,1051.11,743.85z"/>
    <path fill="#FFF" d="M1226.04,1032.86c-3.45,16.95-13.14,38.4-27.68,55.36c-9.34,10.73-20.41,19.72-32.87,24.91
		c-26.29,10.38-61.58,1.73-87.88-20.07c-21.45-17.65-37.02-43.94-37.02-75.42c0-1.38,3.8-2.77,10.72-3.81v-0.35
		c37.71-7.27,161.92-13.15,170.57-7.61C1227.42,1009.68,1228.81,1019.71,1226.04,1032.86z"/>
    <path fill="#CFEEFF" d="M1868.81,2046.81c0,0-21.79,77.85-89.6,26.64c0,0-67.12,119.02-186.49,17.3v277.48H820.84v-321.41
		c0,0-43.25,30.45-75.77,0c0,0-89.26,15.57-121.79-46.71c-32.52-62.28,108.3-468.46,140.82-506.17
		c22.49-26.29,140.47-75.77,210.36-103.45c30.79-12.45,52.24-20.41,52.24-20.41s22.83,140.12,121.78,156.38
		c98.95,16.26,262.6-156.38,262.6-156.38s23.87,7.61,58.82,19.72c87.18,30.1,242.19,87.53,267.44,124.21
		C1772.63,1565.55,1868.81,2046.81,1868.81,2046.81z"/>
    <path fill="#E9F8FF" d="M1469.9,1389.79c-39.1,61.93-211.39,225.23-324.88,207.93c-103.79-15.57-158.12-168.15-170.57-207.24
		c30.79-12.45,52.24-20.41,52.24-20.41s22.83,140.12,121.78,156.38c98.95,16.26,262.6-156.38,262.6-156.38
		S1434.96,1377.68,1469.9,1389.79z"/>
    <path fill="#95C6DB" d="M1592.71,2098.44c-4.05,0-7.43-3.15-7.65-7.2c-0.23-3.56-21.84-357.36-19.17-451.39
		c0.11-4.24,3.49-7.24,7.92-7.47c4.24,0.15,7.58,3.68,7.47,7.92c-2.66,93.35,18.91,446.43,19.1,449.96
		c0.26,4.24-2.96,7.88-7.17,8.14C1593.01,2098.44,1592.86,2098.44,1592.71,2098.44z"/>
    <path fill="#95C6DB" d="M820.85,2054.5c-4.24,0-7.69-3.45-7.69-7.69v-406.74c0-4.24,3.45-7.69,7.69-7.69
		c4.24,0,7.69,3.45,7.69,7.69v406.74C828.54,2051.05,825.09,2054.5,820.85,2054.5z"/>
    <path fill="#8E4635" d="M946.76,347.16l132.68-16.25l247.75,41.07l217.97,44.23l128.61,124.55l41.97,196.98l-58.22,196.39
		L1585.09,976c39.94-23.7,103.57-211.87,54.37-257.14c-49.2-45.27-102.76,26.4-102.76,26.4c0,219.91-75.48,282.87-75.48,282.87
		c56.86-93.41,2.71-325.37,2.71-325.37h-51.45c-41.97-13.99-76.48-91.61-76.48-91.61c3.4,41.97,20.31,83.94,20.31,83.94
		c-57.53,4.06-148.81,5.93-148.81,5.93c-49.29-49.58-79.32-253.68-79.32-253.68s-13.54,135.38,5.42,212.55
		c0,0-75.81,25.72-144.86,16.25c0,0-18.79-51.45-28.35-138.09c0,0-11.87,73.18-0.9,124.25c0,0-73.64,32.12-108.84,15.87
		C850.64,678.17,782.95,457.72,946.76,347.16z"/>
    <path fill="#8E4635" d="M1185.54,831.79c0,0,55.65-79.7,119.07-63.91c49.88,12.42,57.09,58.72,57.09,58.72l23.72-4.45l-28.91,17.05
		C1356.51,839.2,1325.37,740.08,1185.54,831.79z"/>
    <path fill="#8E4635" d="M1299.06,828.74c0,10.38-2.77,19.72-6.57,26.64c-14.53-3.81-26.99-1.73-35.98,1.04
		c-4.5-6.92-7.26-16.61-7.26-27.68c0-21.45,11.07-38.75,24.91-38.75C1287.64,789.99,1299.06,807.29,1299.06,828.74z"/>
    <path fill="#8E4635" d="M1034.66,831.79c0,0-48.31-79.7-103.37-63.91c-43.3,12.42-49.56,58.72-49.56,58.72l-20.6-4.45l25.1,17.05
		C886.24,839.2,913.27,740.08,1034.66,831.79z"/>
    <path fill="#8E4635" d="M949.85,828.74c0,10.38,2.41,19.72,5.7,26.64c12.62-3.81,23.43-1.73,31.24,1.04
		c3.9-6.92,6.31-16.61,6.31-27.68c0-21.45-9.61-38.75-21.62-38.75C959.76,789.99,949.85,807.29,949.85,828.74z"/>
    <path fill="#BC5946" d="M1249.16,353.93c-118.67,1.73-253.95-24.91-341.48-46.02c8.3-8.65,17.99-16.95,28.37-24.57
		c6.58-4.84,13.49-9.69,20.42-14.53C1082.75,337.66,1249.16,353.93,1249.16,353.93z"/>
  </g>
</svg>
