<svg xmlns="http://www.w3.org/2000/svg" xml:space="preserve" id="Layer_1" x="0" y="0" enable-background="new 0 0 2500 2500" version="1.1" viewBox="0 0 2500 2500">
  <g>
    <path fill="#8E4635" d="M1762.81,1196.9c-140.74,227.87-319.33,118.27-319.33,118.27h-320.91
		c-385.56,76.09-496.74-434.06-359.54-867.32c15.77-50.46,34.29-93.04,54.01-129.7c17.74-32.72,36.67-60.32,56.77-83.58
		c148.23-173.86,337.46-102.11,337.46-102.11S1335.86,9.85,1549.93,136C1807.76,288.57,1903.17,968.63,1762.81,1196.9z"/>
    <path fill="#FFD1CA" d="M2049.71,2421H450.29c0,0,147.05-881.91,212.88-963.12c65.84-81.21,344.17-121.82,399.76-167.16
		c11.43-9.07,21.68-28.38,31.15-52.83c37.85-97.77,60.31-281.88,60.31-281.88h230.63c0,0,15.37,126.16,42.18,225.11
		c13.8,50.46,29.96,94.22,48.89,109.6c55.98,45.34,294.49,85.94,360.72,167.16C1902.65,1539.09,2049.71,2421,2049.71,2421z"/>
    <path fill="#35356E" d="M1062.93,1290.72c0,0,227.99,169.97,413.16,0c0,0,331.33,113.03,375.25,163.72
		c43.93,50.69,140.24,537.29,140.24,537.29s-187.54,103.06-329.47,126.72s-1057.68-45.62-1153.99-119.96
		c0,0,96.31-511.94,145.3-559.25C702.43,1391.93,1040.21,1323.83,1062.93,1290.72z"/>
    <path fill="#FFBDB6" d="M1427.21,1181.13c-39.7,39.73-148.23,98.16-333.13,56.77c37.85-97.77,60.31-281.88,60.31-281.88h230.63
		C1385.03,956.02,1400.4,1082.17,1427.21,1181.13z"/>
    <path fill="#FFD1CA" d="M1644.48,953.82c-38.67,78.03-213.72,221.87-374.53,221.87c-161.47,0-335.85-143.84-375.21-221.87
		c-39.34-78.7-17.63-624.21-17.63-624.21l392.84-108.56l392.17,108.56C1662.13,329.61,1683.84,875.12,1644.48,953.82z"/>
    <path fill="#8E4635" d="M1687.07,817.97c-104.41,30.38-195.61-191.42-259.87-346.02c-64.26-154.6-133.42-103.91-133.42-103.91
		c0,174.87-354.72,343.63-443.42,282.81c0,0-33.04-328.43,37.92-406.99s568.91-29.72,716.73,2.36
		C1760.71,280.01,1687.07,817.97,1687.07,817.97z"/>
    <path fill="#8E4635" d="M1352.67,662.87c-3.42-8.85,28.74-53.9,64.21-59.98c63.63-10.92,123.75,67.27,119.11,76.88
		c-3.4,7.05-40.69-17.15-112.36-17.74C1380.31,661.67,1355.5,670.2,1352.67,662.87z"/>
    <path fill="#8E4635" d="M1178.73,662.87c3.42-8.85-28.74-53.9-64.21-59.98c-63.63-10.92-123.75,67.27-119.11,76.88
		c3.4,7.05,40.69-17.15,112.36-17.74C1151.09,661.67,1175.9,670.2,1178.73,662.87z"/>
    <path fill="#8E4635" d="M1367.16,768.47c0,0,61.89-69.42,124.18-69.42c49.84,0,61.67,69.42,61.67,69.42
		S1481.21,691.6,1367.16,768.47z"/>
    <path fill="#8E4635" d="M1179.99,768.47c0,0-61.89-69.42-124.18-69.42c-49.84,0-61.67,69.42-61.67,69.42
		S1065.95,691.6,1179.99,768.47z"/>
    <path fill="#8E4635" d="M966.85,589.8c0,0-43.08,335.81,20.28,435.91c0,0-115.99-98.03-115.99-365.81S966.85,589.8,966.85,589.8z"/>
    <path fill="#FFBDB6" d="M1218.67,895.19h109.82C1328.49,895.19,1276.11,771.85,1218.67,895.19z"/>
    <path fill="#FFBDB6" d="M1160.31,940.81c0,0,113.27,41.39,231.47-13.52C1391.78,927.29,1292.94,1025.71,1160.31,940.81z"/>
    <path fill="#FFBDB6" d="M1243.1,994.88h64.2C1307.3,994.88,1278.58,1047.26,1243.1,994.88z"/>
    <ellipse cx="1536.24" cy="840.37" fill="#FFBDB6" rx="68.01" ry="30.02"/>
    <ellipse cx="1026.07" cy="840.37" fill="#FFBDB6" rx="68.01" ry="30.02"/>
    <path fill="#FE9B42" d="M1729.31,2421H822.57c0,0,22.46-1013.98,27.59-1054.58c5.12-40.21,174.64-55.59,174.64-55.59
		s68.6,329.58,248.77,329.58h4.73c180.16,0,248.76-329.58,248.76-329.58s170.39,28,175.51,68.21
		C1707.7,1419.64,1729.31,2421,1729.31,2421z"/>
    <path fill="#BC5946" d="M1226.66,411.58c0,0-200.67,34.69-409.62-93.43c17.74-32.72,36.67-60.32,56.77-83.58
		C932.55,292.52,1068.17,406.85,1226.66,411.58z"/>
  </g>
</svg>
