<svg xmlns="http://www.w3.org/2000/svg" xml:space="preserve" id="Layer_1" x="0" y="0" enable-background="new 0 0 2500 2500" version="1.1" viewBox="0 0 2500 2500">
  <g>
    <path fill="#FF7171" d="M1944.79,755.22c16.37,21.58,24.49,48.39,24.49,75.47l0,0l-62.59-47.41l-506.32-73.71l388.16-82.59
		C1788.54,626.98,1881.65,671.97,1944.79,755.22z"/>
    <path fill="#DD3636" d="M1788.38,665.18c0,0,121.43,58.43,180.96,165.33l-569.07-82.67L1788.38,665.18z"/>
    <path fill="#FFD1CA" d="M2017.08,2359.87H482.78c0,0,19.35-407,168.08-552.22c148.48-145.47,268.32-154.26,340.43-226.36
		c0.75-0.75,1.51-1.76,2.51-3.01c26.38-36.68,73.61-245.46,73.61-245.46l182.65,71.1l182.4-71.1c0,0,21.86,96.48,44.22,169.84
		c11.56,37.94,23.11,69.84,31.91,78.64c72.36,72.1,191.95,80.9,340.68,226.36C1997.74,1952.86,2017.08,2359.87,2017.08,2359.87z"/>
    <path fill="#FFBDB6" d="M1476.67,1502.65c-89.94,36.43-226.74,101.43-482.88,75.62c26.38-36.68,73.61-245.46,73.61-245.46
		l182.65,71.1l182.4-71.1C1432.45,1332.81,1454.31,1429.28,1476.67,1502.65z"/>
    <path fill="#FFD1CA" d="M1667.12,874.73c0,0,47.96-64.18,77.78-37.89c81.52,71.87-1.48,370.62-77.79,313.84
		C1590.79,1093.91,1667.12,874.73,1667.12,874.73z"/>
    <path fill="#FFD1CA" d="M832.74,874.73c0,0-47.96-64.18-77.78-37.89c-81.52,71.87,1.48,370.62,77.79,313.84
		S832.74,874.73,832.74,874.73z"/>
    <path fill="#FFD1CA" d="M1673.44,670.31c0,0-10.74,450.39-46.67,553.72c-57.41,164.82-318.16,219.64-380.75,219.64
		c-62.59,0-323.34-54.82-380.75-219.64c-35.93-103.34-46.67-553.72-46.67-553.72s314.8-79.5,422.22-79.74
		C1350.8,590.33,1673.44,670.31,1673.44,670.31z"/>
    <path fill="#FFBDB6" d="M1747.14,942.36c0,0,6.61-59.21-29.63-54.81s-72.41,152.65-41.1,170.63c16.63,9.55,23.98,1.75,29.56-6.44
		c8.83-12.96,8.21-35.24-5.25-54.67c-22.79-32.9-3.25-78.48,12.9-90.17C1738.03,889.24,1748.94,928.19,1747.14,942.36z"/>
    <path fill="#FFBDB6" d="M742.63,942.36c0,0-6.61-59.21,29.63-54.81s72.41,152.65,41.1,170.63c-16.63,9.55-23.98,1.75-29.56-6.44
		c-8.83-12.96-8.21-35.24,5.25-54.67c22.79-32.9,3.25-78.48-12.9-90.17C751.74,889.24,740.83,928.19,742.63,942.36z"/>
    <path fill="#FE9B42" d="M1664.92,884.04c0,0-17.03,218.79-40.84,227.75c-23.81,8.96-61.91-207.72-73.81-317.24
		c0,0-116.67-14.29-171.43-133.34c0,0-100,133.83-197.63,169.3c-97.62,35.47-76.19-69.3-76.19-69.3s-102.33,126.67-176.99,111.91
		c0,0-19.05,261.91-59.53,251.6c-40.48-10.32-43.22-259.03-43.22-259.03s-53.43-61.18-89.63-1.87c-36.2,59.31,0,181.87,0,181.87
		s-156.84-150.34-14.29-399.25c0,0-2.84-11.26,35.23-122.54c50.36-147.16,377-436.52,658.75-256.16c0,0,50.8-73.02,115.88-53.97
		s-73.02,74.61-73.02,74.61s163.14-4.17,274.61,205.36s118.41,402.1,34.6,539.16c0,0,38.24-120.77-12.66-184.97
		C1713.38,795.74,1664.92,884.04,1664.92,884.04z"/>
    <path fill="#FE504C" d="M1810.76,648.83c-1.11-13.34-2.97-27.78-5.55-43.7c-25.56-170.01-131.12-473.35-553.35-473.35
		c-429.27,0-532.24,313.71-556.69,482.24c-2.59,17.04-4.44,32.96-5.56,46.67c-2.96,34.82-2.22,56.67-2.22,56.67
		s539.28-204.45,1126.34,0C1813.72,717.35,1814.83,690.69,1810.76,648.83z M1297.41,613.12l-169.37-31.86
		c0,0,19.29-117.08,138.11-117.08c118.3,0,142.86,120.38,142.86,120.38L1297.41,613.12z"/>
    <path fill="#FF7171" d="M1813.72,717.35c-587.06-204.45-1126.34,0-1126.34,0s-0.74-21.85,2.22-56.67
		c119.26-41.11,553.24-163.76,1121.15-11.85C1814.83,690.69,1813.72,717.35,1813.72,717.35z"/>
    <path fill="#FE9B42" d="M1242.85,465.79c0,0-141.4-92.15-146.16-38.84s64.29,58.07,64.29,58.07s-119.05-29.76-128.58,32.14
		c-9.52,61.91,42.46,85.32,95.64,64.09C1181.22,560.02,1242.85,465.79,1242.85,465.79z"/>
    <path fill="#FE9B42" d="M2042.99,2359.99H457.01c0,0,58.15-382.23,124.82-507.05c66.67-125.19,191.86-182.23,191.86-182.23
		s-48.89-112.97,28.52-174.82c77.41-61.86,229.64-22.22,229.64-22.22l-26.67,82.23c93.71,11.48,214.82,145.56,244.82,180.38
		c30-34.82,151.11-168.89,244.82-180.38l-26.67-82.23c0,0,152.23-39.63,229.64,22.22c77.41,61.85,28.52,174.82,28.52,174.82
		s125.19,57.04,191.86,182.23C1984.84,1977.76,2042.99,2359.99,2042.99,2359.99z"/>
    <path fill="#D36D1A" d="M1250.01,1918.82c-2.09,0-4.06-0.78-5.58-2.21c-1.53-1.41-154.37-141.05-473.14-238.02
		c-4.34-1.33-6.79-5.92-5.46-10.26c1.33-4.36,5.99-6.73,10.28-5.48c285.64,86.9,440.08,208.23,472.86,235.93
		c123.12-147.04,460.85-232.41,475.39-236.03c4.34-1.31,8.88,1.59,9.96,5.99c1.08,4.42-1.61,8.88-6.03,9.96
		c-3.53,0.9-357.05,90.26-471.82,236.95c-1.41,1.83-3.53,2.95-5.82,3.13C1250.46,1918.8,1250.22,1918.82,1250.01,1918.82z"/>
    <path fill="#D36D1A" d="M1350.27,2233.78c-0.64,0-1.33-0.08-2.01-0.26c-4.38-1.08-7.07-5.56-5.98-9.96
		c0.08-0.26,7.75-39.22-35.51-164.37c-45.43-131.47-20.49-278.85-19.4-285.05c0.8-4.46,4.7-7.67,9.52-6.69
		c4.5,0.76,7.47,5.04,6.71,9.5c-0.28,1.49-25.27,149.51,18.76,276.86c45.47,131.75,36.31,172.08,35.91,173.73
		C1357.3,2231.27,1353.97,2233.78,1350.27,2233.78z"/>
    <path fill="#D36D1A" d="M1183.62,2014.72c-3.53,0-6.83-2.33-7.87-5.9c-38.76-130.63,15.22-218.86,17.55-222.55
		c2.33-3.86,7.51-5.02,11.29-2.59c3.86,2.41,5.02,7.47,2.65,11.33c-0.52,0.84-52.26,85.96-15.75,209.16
		c1.33,4.34-1.16,8.92-5.54,10.22C1185.18,2014.6,1184.38,2014.72,1183.62,2014.72z"/>
    <path fill="#D36D1A" d="M1750.27,2368.22c-4.34,0-7.95-3.37-8.19-7.73l-23.94-389.21c-0.28-4.54,3.17-8.44,7.67-8.72
		c5.58-0.26,8.44,3.19,8.72,7.71l23.94,389.21c0.28,4.54-3.17,8.44-7.67,8.72C1750.59,2368.2,1750.43,2368.22,1750.27,2368.22z"/>
    <path fill="#D36D1A" d="M739.52,2368.22c-0.4,0-0.84-0.04-1.25-0.1c-4.5-0.7-7.59-4.9-6.87-9.38l54.51-353.5
		c0.64-4.5,4.94-7.73,9.36-6.89c4.5,0.7,7.59,4.9,6.87,9.38l-54.51,353.5C747.03,2365.31,743.53,2368.22,739.52,2368.22z"/>
    <circle cx="1350.27" cy="2225.55" r="31.75" fill="#D36D1A"/>
    <circle cx="1185.19" cy="2006.49" r="31.75" fill="#D36D1A"/>
    <path fill="#D36D1A" d="M1343.26,877.67c-3.63-11.57,53.44-55.28,114.29-48.32c52.84,6.05,95.05,48.76,90.13,59.47
		c-3.8,8.27-34.04-6.17-101.28-10.22C1377.42,874.45,1345.82,885.82,1343.26,877.67z"/>
    <path fill="#D36D1A" d="M1148.79,877.67c3.63-11.57-53.44-55.28-114.29-48.32c-52.84,6.05-95.05,48.76-90.13,59.47
		c3.8,8.27,34.04-6.17,101.28-10.22C1114.63,874.45,1146.22,885.82,1148.79,877.67z"/>
    <path fill="#D36D1A" d="M1337.79,992.97c0,0,67.97-78.57,138.6-78.57c66.38,0,70.64,90.82,70.64,90.82
		S1489.67,886.62,1337.79,992.97z"/>
    <ellipse cx="1420.93" cy="989" fill="#D36D1A" rx="30.36" ry="48.41"/>
    <path fill="#D36D1A" d="M1147.91,992.97c0,0-67.97-78.57-138.6-78.57c-66.38,0-70.64,90.82-70.64,90.82
		S996.02,886.62,1147.91,992.97z"/>
    <ellipse cx="1064.77" cy="989" fill="#D36D1A" rx="30.36" ry="48.41"/>
    <path fill="#FFBDB6" d="M1175.58,1125.02h134.53C1310.11,1125.02,1244.63,997.14,1175.58,1125.02z"/>
    <path fill="#FFBDB6" d="M1138.75,1159.64c0,0,115.26,75,236.12-7.14C1374.87,1152.5,1246.18,1306.07,1138.75,1159.64z"/>
    <path fill="#FFBDB6" d="M1208.52,1246.52c0,0,44.66,14.61,82.82,0C1291.34,1246.52,1249.93,1287.42,1208.52,1246.52z"/>
  </g>
</svg>
