<svg xmlns="http://www.w3.org/2000/svg" xml:space="preserve" id="Layer_1" x="0" y="0" enable-background="new 0 0 2500 2500" version="1.1" viewBox="0 0 2500 2500">
  <g>
    <path fill="#FFD1CA" d="M2107.3,2415.44H400.96c0,0,113.62-628.83,184.68-699.89c46.27-46.28,299.13-88.42,379.69-168.57
		c0.83-0.83,1.65-2.07,2.89-3.72c29.33-40.9,81.8-356.14,81.8-356.14l204.1,79.33l204.1-79.33c0,0,52.47,315.24,81.81,356.14
		c1.24,1.65,2.06,2.89,2.89,3.72c80.56,80.15,333.42,122.29,379.69,168.57C1993.68,1786.62,2107.3,2415.44,2107.3,2415.44z"/>
    <path fill="#FFBDB6" d="M1512.06,1459.12c-100.33,40.64-258.27,113.1-543.99,84.31c29.42-40.92,82.12-356.44,82.12-356.44
		l203.74,79.31l203.46-79.31C1457.39,1186.99,1490.83,1371.88,1512.06,1459.12z"/>
    <path fill="#FFD1CA" d="M1715.6,758.64c0,0,53.5-71.59,86.77-42.26c90.93,80.17-1.65,413.42-86.78,350.09
		C1630.46,1003.13,1715.6,758.64,1715.6,758.64z"/>
    <path fill="#FFD1CA" d="M784.86,758.64c0,0-53.5-71.59-86.77-42.26c-90.93,80.17,1.65,413.42,86.78,350.09
		S784.86,758.64,784.86,758.64z"/>
    <path fill="#FFD1CA" d="M1722.66,530.62c0,0-11.98,502.4-52.06,617.67c-64.04,183.86-354.91,245-424.73,245
		c-69.82,0-360.69-61.15-424.73-245c-40.08-115.27-52.06-617.67-52.06-617.67s351.15-88.68,470.98-88.95
		C1362.74,441.4,1722.66,530.62,1722.66,530.62z"/>
    <path fill="#8E4635" d="M1831.31,909.48c8.68-49.58,17.35-91.72-2.89-152.04c-20.66-60.32-79.74-42.56-112.79,1.24
		c0,0-16.11,121.47-25.62,153.28c-9.92,31.81-59.08,53.3-59.08,53.3c20.24-71.89,16.11-210.18,16.11-210.18
		c-252.44-82.22-263.18-224.46-263.18-224.46c-102.46,209.89-511.49,178.7-511.49,178.7C852.96,815.5,867,965.26,867,965.26
		c-35.53-8.68-60.32-67.76-60.32-67.76l-37.6-157c0,0-70.23-63.21-96.68,16.53c-26.03,77.26,24.37,244.59,27.27,255.33
		c-7.03-9.92-133.04-188.4-105.36-372.26c13.64-90.9,46.69-193.36,107.42-286.32c23.96-37.6,52.89-73.54,86.35-106.18
		c57.85-56.6,129.74-104.53,218.98-137.17c270.62-99.16,451.17,118.58,451.17,118.58c-12.39-86.76-107.83-111.55-107.83-111.55
		c97.5-14.05,154.11,95.85,154.11,95.85c63.63-65.69,182.2-10.74,182.2-10.74c-59.91-1.65-136.34,33.88-136.34,33.88
		c230.13-12.39,323.91,164.03,340.03,256.57C1943.69,797.52,1831.31,909.48,1831.31,909.48z"/>
    <path fill="#BC5946" d="M1273.96,457.08c-274.33,26.44-463.56-42.56-572.22-103.29c23.96-37.6,52.89-73.54,86.35-106.18
		C961.2,447.99,1273.96,457.08,1273.96,457.08z"/>
    <circle cx="1737.29" cy="1027.32" r="14.61" fill="#8E4635"/>
    <path fill="#FFBDB6" d="M1804.86,834.08c0,0,7.37-66.04-33.05-61.14c-40.43,4.9-80.77,170.28-45.84,190.34
		c18.56,10.65,26.75,1.95,32.98-7.19c9.85-14.46,9.16-39.31-5.85-60.99c-25.43-36.7-3.63-87.54,14.39-100.58
		C1794.7,774.83,1806.87,818.28,1804.86,834.08z"/>
    <path fill="#FFBDB6" d="M684.34,834.08c0,0-7.37-66.04,33.05-61.14c40.43,4.9,80.77,170.28,45.84,190.34
		c-18.56,10.65-26.75,1.95-32.98-7.19c-9.85-14.46-9.16-39.31,5.85-60.99c25.43-36.7,3.63-87.54-14.39-100.58
		C694.5,774.83,682.33,818.28,684.34,834.08z"/>
    <path fill="#8E4635" d="M1354.66,739.99c-2.29,9.23,6.31,28.86,13.98,35.52c10.94,9.5,87.47-13.65,162.36-15.16
		c41.58-0.84,61.17,1,62.67-4.96c2.1-8.35-34.63-29.18-74.39-34.85C1481.29,715.13,1359.7,719.65,1354.66,739.99z"/>
    <path fill="#8E4635" d="M1151.23,739.33c2.34,9.22-6.15,28.9-13.79,35.6c-10.89,9.56-87.55-13.17-162.45-14.25
		c-41.59-0.6-61.16,1.34-62.69-4.61c-2.15-8.34,34.47-29.37,74.19-35.26C1024.46,715.17,1146.07,719.02,1151.23,739.33z"/>
    <path fill="#FFBDB6" d="M1176.74,1040.51h146.97C1323.71,1040.51,1256.43,915.44,1176.74,1040.51z"/>
    <ellipse cx="1474.02" cy="869.07" fill="#8E4635" rx="32.27" ry="55.11"/>
    <path fill="#FFBDB6" d="M1138.76,1147.9c0,0,121.9-106.7,233.65-37.82C1372.41,1110.08,1203.78,1121.21,1138.76,1147.9z"/>
    <path fill="#8E4635" d="M1363.89,869.07c0,0,61.76-67.06,132.59-67.06c70.83,0,84.99,67.06,84.99,67.06
		S1510.18,777.66,1363.89,869.07z"/>
    <path fill="#8E4635" d="M1102.5,868.99c0,30.58-14.46,55.36-32.23,55.36s-32.23-24.79-32.23-55.36c0-17.35,4.96-33.05,12.4-42.97
		c14.87,4.96,33.05,11.98,49.58,21.49C1101.68,854.12,1102.5,861.56,1102.5,868.99z"/>
    <path fill="#8E4635" d="M1129.79,869.07c0,0-61.76-67.06-132.59-67.06s-84.99,67.06-84.99,67.06S983.5,777.66,1129.79,869.07z"/>
    <path fill="#FFBDB6" d="M1228,1167.87c0,0,55.11-16.71,90.3-19.97C1318.3,1147.9,1306.26,1196.49,1228,1167.87z"/>
    <path fill="#35356E" d="M2183.32,2415.44H316.68c0,0,159.06-605.28,195.01-664.77c35.94-59.91,426.38-200.79,426.38-200.79
		s83.46,145.84,288.8,145.84c6.19,0,12.81,0,19-0.41c1.65,0,2.9,0,4.13-0.41c1.24,0.41,2.48,0.41,4.13,0.41
		c6.2,0.41,12.81,0.41,19,0.41c205.34,0,288.8-145.84,288.8-145.84s390.44,140.89,426.38,200.79
		C2024.26,1810.17,2183.32,2415.44,2183.32,2415.44z"/>
    <path fill="#35356E" d="M1250,1694.9c-1.24,0.41-2.48,0.41-4.13,0.41v-0.41H1250z"/>
    <path fill="#35356E" d="M1254.13,1694.9v0.41c-1.65,0-2.89,0-4.13-0.41H1254.13z"/>
  </g>
</svg>
