<svg xmlns="http://www.w3.org/2000/svg" xml:space="preserve" id="Layer_1" x="0" y="0" enable-background="new 0 0 2500 2500" version="1.1" viewBox="0 0 2500 2500">
  <g>
    <path fill="#8E4635" d="M1786.27,899.36L724.6,926.53c-182.66-215.26-68.55-473.99,96.55-642.01
		c33.02-33.86,68.55-63.95,104.08-89.45c9.2-6.69,18.81-12.96,28.43-19.23c220.27-141.69,374.92-58.93,374.92-58.93
		s209.83-69.8,389.55,187.67C1875.29,529.04,1883.66,818.28,1786.27,899.36z"/>
    <path fill="#BC5946" d="M1256.27,271.98c0,0-259.57,55.17-435.12,12.54c33.02-33.86,68.55-63.95,104.08-89.45
		C1017.19,231.02,1139.66,268.64,1256.27,271.98z"/>
    <path fill="#DD9090" d="M2121.42,2397.68H395.18c0,0,114.94-636.16,186.83-708.05c46.81-46.82,302.61-89.45,384.12-170.54
		c0.84-0.84,1.67-2.09,2.93-3.76c29.67-41.38,82.76-360.3,82.76-360.3l206.48,80.25l206.48-80.25c0,0,53.08,318.92,82.76,360.3
		c1.25,1.67,2.09,2.93,2.92,3.76c81.5,81.09,337.31,123.72,384.12,170.54C2006.48,1761.52,2121.42,2397.68,2121.42,2397.68z"/>
    <path fill="#B56161" d="M1519.23,1430.2c-101.5,41.11-261.28,114.42-550.33,85.29c29.77-41.39,83.07-360.6,83.07-360.6
		l206.12,80.24l205.84-80.24C1463.93,1154.9,1497.76,1341.94,1519.23,1430.2z"/>
    <path fill="#DD9090" d="M817.47,702.31c0,0-55.45-45.86-94.7-8.79c-89.16,84.21,42.86,400.65,120.02,326.02
		S817.47,702.31,817.47,702.31z"/>
    <path fill="#DD9090" d="M1690.49,490.87c0,0-12.12,508.26-52.67,624.88c-64.79,186-317.25,247.86-387.88,247.86
		c-70.64,0-323.1-61.86-387.88-247.86c-40.54-116.61-52.67-624.88-52.67-624.88s313.45-89.72,434.68-89.98
		C1368.18,400.61,1690.49,490.87,1690.49,490.87z"/>
    <path fill="#B56161" d="M732.86,789.42c0,0-9.83-66.5,26.78-62.22c36.61,4.29,80.9,170.47,50.45,191.27
		c-16.18,11.05-23.97,2.4-30.02-6.72c-9.56-14.43-10.14-39.51,2.32-61.62c21.1-37.43-0.97-88.37-17.81-101.23
		C739.14,729.47,730.29,773.5,732.86,789.42z"/>
    <path fill="#DD9090" d="M1682.94,702.31c0,0,55.45-45.86,94.7-8.79c89.16,84.21-42.86,400.65-120.02,326.02
		C1580.47,944.92,1682.94,702.31,1682.94,702.31z"/>
    <path fill="#B56161" d="M1767.54,789.42c0,0,9.83-66.5-26.78-62.22c-36.61,4.29-80.9,170.47-50.45,191.27
		c16.18,11.05,23.97,2.4,30.02-6.72c9.56-14.43,10.14-39.51-2.32-61.62c-21.1-37.43,0.97-88.37,17.81-101.23
		C1761.27,729.47,1770.12,773.5,1767.54,789.42z"/>
    <path fill="#B56161" d="M1180.01,974.3h148.68C1328.69,974.3,1260.62,847.77,1180.01,974.3z"/>
    <path fill="#8E4635" d="M1369.34,833.27c0,0,62.48-80.32,134.14-80.32s85.98,80.32,85.98,80.32S1517.33,740.79,1369.34,833.27z"/>
    <path fill="#8E4635" d="M1144.74,833.27c0,0-62.48-80.32-134.14-80.32s-85.98,80.32-85.98,80.32S996.74,740.79,1144.74,833.27z"/>
    <path fill="#3887FE" d="M2220.54,2397.81H279.46c0,0,105.75-489.03,227.8-672.53c100.74-151.31,431.36-203.14,431.36-203.14
		s84.43,152.98,292.17,152.98l26.9-65.22c207.73,0,303.72-87.76,303.72-87.76s330.62,51.83,431.35,203.14
		C2114.79,1908.78,2220.54,2397.81,2220.54,2397.81z"/>
    <path fill="#8E4635" d="M1491.53,833.07c0,9.2-1.25,17.56-3.76,25.08c-14.63-3.76-33.86-5.02-54.76,2.09
		c-2.92-7.94-4.6-17.14-4.6-27.17c0-29.67,14.21-53.92,31.35-53.92C1477.32,779.15,1491.53,803.39,1491.53,833.07z"/>
    <path fill="#8E4635" d="M1028.56,833.07c0,9.2,1.25,17.56,3.76,25.08c14.63-3.76,33.86-5.02,54.76,2.09
		c2.92-7.94,4.6-17.14,4.6-27.17c0-29.67-14.21-53.92-31.35-53.92C1042.77,779.15,1028.56,803.39,1028.56,833.07z"/>
    <path fill="#8E4635" d="M1343.2,710.5c-5.02-13.37,53.94-55.94,118.99-66.47c51.58-8.35,114.01,2.32,114.85,15.75
		C1578.66,685.68,1352.26,734.67,1343.2,710.5z"/>
    <path fill="#8E4635" d="M1176.9,710.5c5.02-13.37-53.94-55.94-118.99-66.47c-51.58-8.35-114.01,2.32-114.85,15.75
		C941.44,685.68,1167.83,734.67,1176.9,710.5z"/>
    <path fill="#7BB1FF" d="M1574.92,1500.66l-39.77-77.35c0,0-276.91,153.73-276.91,173.02c0,104.68,106.32,224.42,150.43,224.42
		C1466.52,1820.75,1593.89,1570.38,1574.92,1500.66z"/>
    <path fill="#7BB1FF" d="M941.69,1500.66l39.77-77.35c0,0,276.91,153.73,276.91,173.02c0,104.68-106.32,224.42-150.43,224.42
		C1050.08,1820.75,922.71,1570.38,941.69,1500.66z"/>
    <path fill="#B56161" d="M1154.49,1049.9c0,0,117.31,62.15,207.49-21.26C1361.98,1028.64,1273.89,1059.72,1154.49,1049.9z"/>
    <path fill="#B56161" d="M1230.76,1095.11c0,0,45.8,2.18,80.69-7.63c0,0-6.54,13.31-30.53,24.22
		C1256.92,1122.6,1230.76,1095.11,1230.76,1095.11z"/>
    <path fill="#8E4635" d="M1258.3,485.59c0,0,107.42,266.77,316.89,207.53c0,0,13.21,50.23,65.54,59.83c0,0,4.72,74.36-10.72,148.83
		c-15.45,74.48,46.54-28.64,52.93-199.47c0,0,62.81-49.66,105.17,3.65s4.97,174.65-1.96,193.39c0,0,35.6-78.35,35.6-146.4
		s-33.8-241.19-33.8-241.19l-169.01-133.03l-347.83-61.06l-251.88-1.09l-157.01,59.97l-130.55,99.22l-38.7,125.39
		c0,0-26.1,157.29,8.62,253.78c0,0-28.02-110.39,16.48-156.53c42.01-43.55,99.39,3.89,99.39,3.89s12.03,157.28,34.93,206.35
		c22.9,49.07,10.9-160.49,23.99-191.46c0,0,81.78-20.93,94.86-95.74C971.25,621.45,1184.44,609.89,1258.3,485.59z"/>
    <path fill="#1A498E" d="M1768.75,2407.11c-4.71,0-8.75-3.58-9.25-8.36l-44.31-437.84c-0.5-5.1,3.22-9.66,8.32-10.18
		c5.44-0.41,9.66,3.22,10.18,8.32l44.31,437.84c0.5,5.1-3.22,9.66-8.32,10.18C1769.37,2407.09,1769.05,2407.11,1768.75,2407.11z"/>
    <path fill="#1A498E" d="M692.99,2407.11c-0.32,0-0.63-0.02-0.95-0.05c-5.1-0.52-8.82-5.08-8.32-10.18L728,1959.05
		c0.52-5.12,5.03-8.84,10.18-8.32c5.1,0.52,8.82,5.08,8.32,10.18l-44.29,437.84C701.71,2403.53,697.68,2407.11,692.99,2407.11z"/>
  </g>
</svg>
