<svg xmlns="http://www.w3.org/2000/svg" xml:space="preserve" id="Layer_1" x="0" y="0" enable-background="new 0 0 2500 2500" version="1.1" viewBox="0 0 2500 2500">
  <g>
    <path fill="#33366E" d="M1370.53,1295.05c-432.6,56.93-637.11-255.82-627.37-520.63c6.37-174.16,40.08-321.36,96.26-431.86
		c18.35-37.46,39.7-70.42,63.3-98.88c12.74-15.36,26.22-29.21,40.08-41.95c143.08-128.1,343.46-101.5,343.46-101.5
		s285.41-71.16,406.39,229.6C1814,630.6,1802.76,1238.49,1370.53,1295.05z"/>
    <path fill="#FFD1CA" d="M1964.21,2407.06H533.32c0,0,139.71-837.87,202.25-915.03c62.55-77.16,238.32-115.73,291.14-158.81
		c10.86-8.61,20.6-26.97,29.59-50.19c35.96-92.89,57.3-267.8,57.3-267.8h219.12c0,0,14.6,119.86,40.07,213.87
		c13.11,47.94,28.47,89.52,46.45,104.12c53.18,43.07,279.79,81.65,342.71,158.81C1824.5,1569.19,1964.21,2407.06,1964.21,2407.06z"/>
    <path fill="#FFBDB6" d="M1372.79,1229.1c-37.72,37.75-140.83,93.26-316.49,53.94c35.96-92.89,57.3-267.8,57.3-267.8h219.12
		C1332.72,1015.23,1347.32,1135.08,1372.79,1229.1z"/>
    <path fill="#FFD1CA" d="M1531.23,1006.4c-53.87,105.18-211.48,217.53-364.26,217.53c-153.41,0-262.66-136.66-300.05-210.79
		c-37.38-74.77-16.75-593.04-16.75-593.04l373.23-103.14l335.13,103.14C1558.52,420.1,1589.82,892,1531.23,1006.4z"/>
    <path fill="#FFD1CA" d="M1560.91,651.33c0,0,63.07-84.32,117.21-29.79c62.51,62.97-37.66,362.52-120.88,274.92L1560.91,651.33z"/>
    <path fill="#FFBDB6" d="M1166.97,892h-122.69C1044.28,892,1032.76,767.51,1166.97,892z"/>
    <path fill="#FFBDB6" d="M1566.87,805.75c-1.07-41.47,18.93-121.19,51.84-144.47c32.91-23.28,52.97,22.47,52.97,22.47
		s-34.51-33.01-55.38,3.56c-8.83,15.48-24.49,55.3-18.86,73.29c7.66,24.5,31.9,21,33.71,45.75
		C1633.61,840,1569.21,895.83,1566.87,805.75z"/>
    <ellipse cx="1382.66" cy="861" fill="#FFBDB6" rx="69.71" ry="24.33"/>
    <ellipse cx="899.01" cy="861" fill="#FFBDB6" rx="63.5" ry="24.33"/>
    <path fill="#33366E" d="M1188.08,648.59c-3.83-8.22,38.09-47.84,91.14-53.85c56.07-6.36,107.76,26.72,105.48,35.96
		c-1.9,7.73-40.75-4.38-112.63,4.21C1216.69,641.53,1190.86,654.56,1188.08,648.59z"/>
    <path fill="#33366E" d="M1205.64,736.66c0,0,57.65-72.28,103.57-66.42c45.92,5.86,57.75,66.89,57.75,66.89
		S1310.19,658.52,1205.64,736.66z"/>
    <ellipse cx="1286.31" cy="736.66" fill="#33366E" rx="25.4" ry="43.99"/>
    <path fill="#33366E" d="M1041.18,648.59c3.83-8.22-38.09-47.84-91.14-53.85c-56.07-6.36-107.76,26.72-105.48,35.96
		c1.9,7.73,40.75-4.38,112.63,4.21C1012.57,641.53,1038.4,654.56,1041.18,648.59z"/>
    <path fill="#33366E" d="M1014.04,769.8c0,0-50.8-72.28-91.28-66.42c-40.47,5.86-50.9,66.89-50.9,66.89S916.95,712.86,1014.04,769.8
		z"/>
    <path fill="#FF78AF" d="M1990.49,2407.11H509.51c0,0,188.77-880.19,210.87-920.27c26.22-47.19,165.92-109,242.71-140.46
		c30.34-12.36,50.94-19.85,50.94-19.85s116.89,307.23,411.26,0c0,0,27.34,7.12,67.42,19.48c93.26,28.09,253.95,83.15,286.91,135.96
		C1826.44,1556.88,1990.49,2407.11,1990.49,2407.11z"/>
    <path fill="#BB5C83" d="M1230.55,961.45c-3.74,18.35-14.23,41.57-29.96,59.93c-10.11,11.61-22.1,21.35-35.59,26.97
		c-28.47,11.24-66.67,1.87-95.13-21.72c-23.22-19.1-40.07-47.57-40.07-81.65c0-1.5,4.11-3,11.61-4.12v-0.37
		c40.82-7.87,175.29-14.23,184.66-8.24C1232.05,936.36,1233.55,947.22,1230.55,961.45z"/>
    <path fill="#FFF" d="M1230.55,961.45c-47.57,24.35-155.43,13.86-167.8,9.36c-9.36-3.37-17.23-19.85-21.35-29.96v-0.37
		c40.82-7.87,175.29-14.23,184.66-8.24C1232.05,936.36,1233.55,947.22,1230.55,961.45z"/>
    <path fill="#FF9FCD" d="M1200.59,1021.38c-10.11,11.61-22.1,21.35-35.59,26.97c-28.47,11.24-66.67,1.87-95.13-21.72
		c17.36-21.35,61.43-27.72,74.91-10.86C1144.78,1015.76,1176.62,994.41,1200.59,1021.38z"/>
    <path fill="#35356E" d="M1467.4,1338.38c0,0,83.02,2.51,99.48,31.45c0,0,32.39,539.03,78.16,588.84l39.91,448.44H780.16
		c0,0,46.58-987.82,64.33-1011.27c17.75-23.45,93.47-43.97,93.47-43.97s45.37,320.49,233.98,328.3
		C1360.55,1687.99,1476.53,1428.46,1467.4,1338.38z"/>
    <path fill="#4A4A96" d="M978.18,1908.17h376.67c0,0,24.92,301.92-186.63,301.92C978.09,2210.09,978.18,1908.17,978.18,1908.17z"/>
    <path fill="#33366E" d="M835.52,622.02c0,0-22.13-161.25-16.27-182.75c5.86-21.5,41.04-37.13,41.04-37.13l153.76-85.18
		l286.91-31.09c0,0,197.37,67.42,244.27,88.92s16.02,66.86,28.34,247.24c14.66,214.65-56.67,322.75-56.67,322.75
		c16.61-103.91-17.59-263.18-17.59-263.18c-165.7-1.49-354.44-266.46-354.44-266.46S899.01,424.61,835.52,622.02z"/>
    <path fill="#FE504B" d="M1411.07,669.85c0,0,41.65-83.75,54.6-82.21c12.96,1.54,27.96,7.85,28.02,16.39
		c0.06,8.55-43.62,82.38-51.74,82.19C1433.81,686.02,1415.14,679.38,1411.07,669.85z"/>
    <circle cx="1368.88" cy="780.52" r="5.73" fill="#33366E"/>
    <path fill="#4C55A8" d="M1200.86,302.86c0,0-244.95,61.8-361.44,39.7c18.35-37.46,39.7-70.42,63.3-98.88
		C962.65,263.16,1075.76,294.25,1200.86,302.86z"/>
  </g>
</svg>
