<svg xmlns="http://www.w3.org/2000/svg" enable-background="new 0 0 2000 2000" viewBox="0 0 2000 2000"><g><path fill="#916446" d="M1327.5,740.1c-12.6,23-32.6,34-49.4,39.3c-22.4,7-43.1,5.3-47.4,4.9c-4.7,16.5-12.3,36-24.4,55.5
		c-16.7,27-38.9,48.9-65.9,65.1c18,6,47.9,20.4,67.9,53.9c0.8,1.4,1.6,2.8,2.4,4.3c28.7,8.9,63.5,22.1,99.7,41.1
		c2.3-20.2,13.7-124.8,16.6-246C1327.2,752.2,1327.4,746.2,1327.5,740.1z"/><path fill="#fffbd2" d="M865.5,957.5l2.2-39c-14.9,4.5-44.3,17-63,48.4c-11.4,19.1-17.3,42.7-17.6,70c-0.4,30.7,6.4,66.4,20,106.3
		l44.8-43.4c10.5-10.1,26.8-11.4,38.7-3.1l26.5,18.5l-39.1-97.4C868.7,999.3,864.3,978.4,865.5,957.5z"/><path fill="#dbd882" d="M945,1215c0.7-19.1-2.7-37.8-9.9-55.5l-7.4-18l-45.8-32c-5.9-4.1-14-3.5-19.2,1.5l-53.4,51.7
		c-1.5,1.4-3.4,2.2-5.4,2.2c-0.6,0-1.1-0.1-1.7-0.2c-2.5-0.6-4.6-2.4-5.5-4.9c-26.8-72.8-32.1-132.5-15.9-177.8
		c-98,33-253.6,113.4-301.8,298c-35.9,137.7-64.6,484.6-64.9,488.1c0,0.2,0,0.3-0.1,0.5h194.5c-0.4-0.8-0.7-1.7-0.8-2.6l-36.2-352.6
		c0-0.1,0-0.3,0-0.4c-3-58.6,3.8-116.9,20.1-173.3l30.5-105.4c1.2-4.1,5.5-6.4,9.5-5.3c4.1,1.2,6.4,5.5,5.3,9.5L606.5,1244
		c-15.8,54.7-22.4,111.2-19.5,168l36.2,352.4c0.2,1.5-0.1,2.9-0.8,4.2h304.7c-0.5-1.1-0.8-2.3-0.8-3.6
		C928.3,1693.5,941.1,1326,945,1215z"/><path fill="#fffbd2" d="M1134,949.1l0.5,8.5c1.2,20.9-3.2,41.7-12.6,60.4l-39.1,97.4l26.5-18.5c5.3-3.7,11.4-5.5,17.5-5.5
		c7.7,0,15.4,2.9,21.2,8.6l44.8,43.4c13.7-39.9,20.4-75.6,20-106.3c-0.3-27.3-6.3-50.8-17.6-70c-18.7-31.4-48-43.9-63-48.4l1.2,20.9
		c0.7,1.1,1,2.5,1,3.9C1134.5,945.3,1134.3,947.2,1134,949.1z"/><path fill="#ffd2c2" d="M868.4,902.3c-25.2-15.9-45.9-36.9-61.8-62.5c-30.6-49.4-32.3-98.5-32.3-100.5l-6.2-156.6
		c-0.1-1.3,0.2-2.6,0.8-3.8c-23.6-43.9-13.5-97.7-13-100.1c0.8-4.2,4.9-6.9,9-6.1c4.2,0.8,6.9,4.9,6.1,9
		c-0.1,0.6-10.9,58.4,16.5,98.2c13.3,19.2,33.6,31.4,60.4,36c4.2,0.7,7,4.7,6.3,8.9c-0.6,3.7-3.9,6.4-7.6,6.4c-0.4,0-0.9,0-1.3-0.1
		c-25.4-4.4-45.9-14.8-61.1-30.9l5.5,138.5c0,0.6,1.7,47.6,30.4,93.5c16.7,26.7,39.1,47.9,66.7,63c32.7,17.9,73,27.3,119.7,28
		c46.7-0.7,87-10.1,119.7-28c27.6-15.1,50-36.3,66.7-63c28.6-45.9,30.3-93,30.4-93.4c0.1-4.2,3.6-7.5,7.8-7.5
		c4.2,0.1,7.6,3.5,7.6,7.7v30.3c7.8,0.2,21.3-0.3,35.3-4.8c27.6-8.8,44.1-28.8,49-59.2c4.6-28.5-0.7-49.4-16-62
		c-12.5-10.4-30.4-11.3-44.4-2.4l-9.3,5.9c-2.2,1.4-5,1.6-7.4,0.5c-37.6-17.4-54.7-44-62.5-63.1c-8.5-20.9-7.9-37.8-7.9-38.5
		c0.2-4.1,3.6-7.4,7.7-7.4c0.1,0,0.2,0,0.3,0c4.2,0.2,7.5,3.7,7.4,8c0,0.1-0.4,14.8,7,32.8c9.4,22.7,26.4,40.4,50.6,52.5l5.6-3.6
		c19.7-12.6,44.8-11.2,62.5,3.5c3.8,3.1,7.1,6.7,10,10.6c-3.1-98.2-14.6-200.7-44.9-265.6c-19.9-42.7-46.5-75.9-79-98.7
		c-26-18.2-55.8-30-88.8-34.9c-56.6-8.5-103.3,6.2-103.8,6.3c-1.3,0.4-2.7,0.5-4,0.2c-0.3-0.1-27.2-5.8-64.4-3.8
		c-34.1,1.8-84.2,10.6-129,42.4c-59.7,42.3-96.3,114.1-108.6,213.5c-18.3,147.1-17.1,276.8-12.8,359.6
		c3.5,67.5,9.5,115.7,12.3,135.8c31.1-15.2,60.6-26.1,85.5-33.9c0.8-1.4,1.6-2.9,2.4-4.3C815.5,919,853.2,906.1,868.4,902.3z
		 M916.1,682.3c-10,0-17.9-9.8-17.9-22.3s7.8-22.3,17.9-22.3S934,647.5,934,660S926.1,682.3,916.1,682.3z M1040.5,812.6
		c-11.7,10.1-23.8,15.1-35.9,15.1s-24.2-5-35.9-15.1c-3.2-2.8-3.6-7.6-0.8-10.9c2.8-3.2,7.6-3.6,10.9-0.8
		c17.7,15.1,34.1,15.1,51.8,0c3.2-2.8,8.1-2.4,10.9,0.8C1044.1,805,1043.7,809.8,1040.5,812.6z M997.3,724c1.4,2,3.6,3.1,6,3.1h10.5
		c4.3,0,7.7,3.4,7.7,7.7s-3.4,7.7-7.7,7.7h-10.5c-7.4,0-14.3-3.6-18.6-9.6s-5.3-13.8-2.8-20.8l9.4-26.3c1.4-4,5.8-6.1,9.8-4.7
		c4,1.4,6.1,5.8,4.7,9.8l-9.4,26.3C995.6,719.6,995.9,722,997.3,724z M1080.2,682.3c-10,0-17.9-9.8-17.9-22.3s7.8-22.3,17.9-22.3
		s17.9,9.8,17.9,22.3S1090.2,682.3,1080.2,682.3z M1062.2,478.8c0.8-4.2,4.9-6.9,9-6.1c4.2,0.8,6.9,4.9,6.1,9l0,0
		c-0.1,0.6-10.9,58.4,16.5,98.2c13.3,19.2,33.6,31.4,60.4,36c4.2,0.7,7,4.7,6.3,8.9c-0.6,3.7-3.9,6.4-7.6,6.4c-0.4,0-0.9,0-1.3-0.1
		c-31.1-5.4-54.8-19.7-70.5-42.5C1050,543.4,1061.7,481.4,1062.2,478.8z M960.1,478.8c0.8-4.2,4.9-6.9,9-6.1c4.2,0.8,6.9,4.9,6.1,9
		l0,0c-0.1,0.6-10.9,58.4,16.5,98.2c13.3,19.2,33.6,31.4,60.4,36c4.2,0.7,7,4.7,6.3,8.9c-0.6,3.7-3.9,6.4-7.6,6.4
		c-0.4,0-0.9,0-1.3-0.1c-31.1-5.4-54.8-19.7-70.5-42.5C947.9,543.4,959.6,481.4,960.1,478.8z M858,478.8c0.8-4.2,4.9-6.9,9-6.1
		c4.2,0.8,6.9,4.9,6.1,9l0,0c-0.1,0.6-10.9,58.4,16.5,98.2c13.3,19.2,33.6,31.4,60.4,36c4.2,0.7,7,4.7,6.3,8.9
		c-0.6,3.7-3.9,6.4-7.6,6.4c-0.4,0-0.9,0-1.3-0.1c-31.1-5.4-54.8-19.7-70.5-42.5C845.8,543.4,857.5,481.4,858,478.8z"/><path fill="#ffd2c2" d="M1015.3,938.7c-1.2,0-2.4,0-3.5,0c-1.2,0-2.3,0-3.5,0h-3.7c-2.3,0-4.6,0-7,0c-0.8,0-1.5-0.1-2.2-0.3
		c-42.8-1.8-80.3-11-111.8-27.3l-1.8,32.4c0.2,24.2,51.1,42.4,118.6,42.4c63.4,0,112.2-16.1,118.1-38.1l-1.8-30.8
		c-28.8,12.6-62,19.7-99.3,21.3C1016.8,938.6,1016,938.7,1015.3,938.7z"/><path fill="#dbd882" d="M1520.9,1280c-48.2-184.6-203.7-265-301.8-298c16.2,45.3,10.9,104.9-15.9,177.8c-0.9,2.4-3,4.3-5.5,4.9
		c-0.6,0.1-1.1,0.2-1.7,0.2c-2,0-3.9-0.8-5.4-2.2l-53.4-51.7c-5.2-5-13.3-5.7-19.2-1.5l-45.8,32l-7.4,18
		c-7.3,17.7-10.6,36.4-9.9,55.5c3.9,111.1,16.8,479.1,18.7,549.9c0,1.3-0.3,2.5-0.8,3.6h304.7c-0.6-1.3-0.9-2.7-0.8-4.2L1413,1412
		c2.9-56.8-3.7-113.3-19.5-168l-30.5-105.4c-1.2-4.1,1.2-8.4,5.3-9.5c4.1-1.2,8.4,1.2,9.5,5.3l30.5,105.4
		c16.3,56.4,23.1,114.7,20.1,173.3c0,0.1,0,0.3,0,0.4l-36.2,352.6c-0.1,0.9-0.4,1.8-0.8,2.6h194.5c0-0.2,0-0.3-0.1-0.5
		C1585.5,1764.6,1556.9,1417.7,1520.9,1280z"/><path fill="#599690" d="M1039.6,1215.6c-0.7-21.3,3-42.2,11.1-61.9l8.2-20.1l0,0l48.8-121.7c0.1-0.2,0.2-0.4,0.3-0.6
		c6.1-12,9.8-25,10.9-38.3c-23.8,19.4-71.3,28.4-118.5,28.4c-34,0-65.7-4.6-89.4-13c-13.6-4.8-23.2-10.4-29.9-16.1
		c1,13.6,4.8,26.9,11,39.1c0.1,0.2,0.2,0.4,0.3,0.6l48.8,121.7l0,0l8.2,20.1c8.1,19.8,11.8,40.6,11.1,61.9
		c-3.9,110.9-16.7,478.5-18.7,549.8c0,1.2-0.3,2.2-0.8,3.2h118.2c-0.5-1-0.8-2.1-0.8-3.2C1056.3,1694.6,1043.5,1326.6,1039.6,1215.6
		z"/><path fill="#916446" d="M697.7,1008.6l96.7-38.7c0,0,34.6-54.3,84-66.2c0,0-91.2-56.7-95.6-154.8l-7.1-159.7c0,0,44.8,53.1,150.5,25.1
		c0,0,49.7,23.5,109.2,4.3c0,0,34.8,15.6,104.9,0c0,0,38.3,18.9,73.9-1.9c0,0,21.5,23.2,34.9,23.8c0,0,50.9-41.6,83.1,19.6
		c0,0,9.8-293.8-112.4-379.1c0,0-93.6-73.3-211.8-39.1c0,0-225.5-43.8-293.2,174.6c0,0-35.1,134.3-35.2,309.7
		C679.6,726.2,684.7,975.7,697.7,1008.6z"/><g><path fill="none" stroke="#000" stroke-linecap="round" stroke-linejoin="round" stroke-miterlimit="10" stroke-width="15.4" d="M629.6,1136.4l-30.5,105.4c-16,55.4-22.7,113.1-19.8,170.7l36.2,352.6"/><path fill="none" stroke="#000" stroke-linecap="round" stroke-linejoin="round" stroke-miterlimit="10" stroke-width="15.4" d="M876,908.6c0,0-155.2,22.1-72.1,248.5l53.4-51.7c7.9-7.6,20-8.6,28.9-2.3l47.7,33.3l-48.8-121.7
			c-9-17.5-13.1-37.1-12-56.7L876,908.6z"/><path fill="none" stroke="#000" stroke-linecap="round" stroke-linejoin="round" stroke-miterlimit="10" stroke-width="15.4" d="M934,1136.4l8.2,20.1c7.6,18.6,11.2,38.6,10.5,58.7c-3.8,109.3-16.7,478.5-18.7,549.9"/><path fill="none" stroke="#000" stroke-linecap="round" stroke-linejoin="round" stroke-miterlimit="10" stroke-width="15.4" d="M793.2,969.9c-98.2,30.3-270,110.5-321.6,308.2c-36.5,140-65.1,489.4-65.1,489.4"/><path fill="none" stroke="#000" stroke-linecap="round" stroke-linejoin="round" stroke-miterlimit="10" stroke-width="15.4" d="M1370.4,1136.4l30.5,105.4c16,55.4,22.7,113.1,19.8,170.7l-36.2,352.6"/><path fill="none" stroke="#000" stroke-linecap="round" stroke-linejoin="round" stroke-miterlimit="10" stroke-width="15.4" d="M1124,908.6c0,0,155.2,22.1,72.1,248.5l-53.4-51.7c-7.9-7.6-20-8.6-28.9-2.3l-47.7,33.3l48.8-121.7
			c9-17.5,13.1-37.1,12-56.7L1124,908.6z"/><path fill="none" stroke="#000" stroke-linecap="round" stroke-linejoin="round" stroke-miterlimit="10" stroke-width="15.4" d="M1066,1136.4l-8.2,20.1c-7.6,18.6-11.2,38.6-10.5,58.7c3.8,109.3,16.7,478.5,18.7,549.9"/><path fill="none" stroke="#000" stroke-linecap="round" stroke-linejoin="round" stroke-miterlimit="10" stroke-width="15.4" d="M1206.8,969.9c98.2,30.3,270,110.5,321.6,308.2c36.5,140,65.1,489.4,65.1,489.4"/><path fill="none" stroke="#000" stroke-linecap="round" stroke-linejoin="round" stroke-miterlimit="10" stroke-width="15.4" d="M874.1,943.3c0,67,252.7,67,252.7,0"/><ellipse cx="916.1" cy="660.1" stroke="#000" stroke-linecap="round" stroke-linejoin="round" stroke-miterlimit="10" stroke-width="15.4" rx="10.2" ry="14.6"/><ellipse cx="1080.2" cy="660.1" stroke="#000" stroke-linecap="round" stroke-linejoin="round" stroke-miterlimit="10" stroke-width="15.4" rx="10.2" ry="14.6"/><path fill="none" stroke="#000" stroke-linecap="round" stroke-linejoin="round" stroke-miterlimit="10" stroke-width="15.4" d="M1011.4,734.9"/><path fill="none" stroke="#000" stroke-linecap="round" stroke-linejoin="round" stroke-miterlimit="10" stroke-width="15.4" d="M998.7,682.5"/><path fill="none" stroke="#000" stroke-linecap="round" stroke-linejoin="round" stroke-miterlimit="10" stroke-width="15.4" d="M1047.9,785.3"/><path fill="none" stroke="#000" stroke-linecap="round" stroke-linejoin="round" stroke-miterlimit="10" stroke-width="15.4" d="M964.1,785.3"/><path fill="none" stroke="#000" stroke-linecap="round" stroke-linejoin="round" stroke-miterlimit="10" stroke-width="15.4" d="M996.2,704.1"/><path fill="none" stroke="#000" stroke-linecap="round" stroke-linejoin="round" stroke-miterlimit="10" stroke-width="15.4" d="M1022.3,734.9"/><path fill="none" stroke="#000" stroke-linecap="round" stroke-linejoin="round" stroke-miterlimit="10" stroke-width="15.4" d="M1022.3,741.3"/><path fill="none" stroke="#000" stroke-linecap="round" stroke-linejoin="round" stroke-miterlimit="10" stroke-width="15.4" d="M982.5,726.2"/><path fill="none" stroke="#000" stroke-linecap="round" stroke-linejoin="round" stroke-miterlimit="10" stroke-width="15.4" d="M996.2,686"/><path fill="none" stroke="#000" stroke-linecap="round" stroke-linejoin="round" stroke-miterlimit="10" stroke-width="15.4" d="M996.2,692.4"/><path fill="none" stroke="#000" stroke-linecap="round" stroke-linejoin="round" stroke-miterlimit="10" stroke-width="15.4" d="M998.5,688.5l-9.4,26.3c-3.5,9.8,3.8,20.1,14.2,20.1h10.5"/><path fill="none" stroke="#000" stroke-linecap="round" stroke-linejoin="round" stroke-miterlimit="10" stroke-width="15.4" d="M973.7,806.8c20.6,17.6,41.2,17.6,61.8,0"/><path fill="none" stroke="#000" stroke-linecap="round" stroke-linejoin="round" stroke-miterlimit="10" stroke-width="15.4" d="M1275.8,623.5"/><path fill="none" stroke="#000" stroke-linecap="round" stroke-linejoin="round" stroke-miterlimit="10" stroke-width="15.4" d="M1183.3,546.1c0,0-2.4,62.7,65.9,94.3l9.3-5.9c16.6-10.6,38.3-9.7,53.5,2.9c13.7,11.4,24.7,31.9,18.6,69.2
			c-13.2,81.2-99.6,69.9-99.6,69.9V739c0,0-5.4,193.9-233.3,191.9h17.6C787.3,933,782,739.1,782,739.1l-6.2-156.7"/><path fill="none" stroke="#000" stroke-linecap="round" stroke-linejoin="round" stroke-miterlimit="10" stroke-width="15.4" d="M763.4,480.3c0,0-24.4,124.6,83.2,143.2"/><path fill="none" stroke="#000" stroke-linecap="round" stroke-linejoin="round" stroke-miterlimit="10" stroke-width="15.4" d="M865.5,480.3c0,0-24.4,124.6,83.2,143.2"/><path fill="none" stroke="#000" stroke-linecap="round" stroke-linejoin="round" stroke-miterlimit="10" stroke-width="15.4" d="M967.6,480.3c0,0-24.4,124.6,83.2,143.2"/><path fill="none" stroke="#000" stroke-linecap="round" stroke-linejoin="round" stroke-miterlimit="10" stroke-width="15.4" d="M1069.7,480.3c0,0-24.4,124.6,83.2,143.2"/><path fill="none" stroke="#000" stroke-linecap="round" stroke-linejoin="round" stroke-miterlimit="10" stroke-width="15.4" d="M1317.7,1008.6c0,0,55.2-455.1-28.8-635.3c-90-193.1-280.9-131.4-280.9-131.4s-271.7-59.6-311.4,258.7
			c-35.7,286.1,1,508,1,508"/></g></g></svg>