<svg xmlns="http://www.w3.org/2000/svg" enable-background="new 0 0 2000 2000" viewBox="0 0 2000 2000"><g><path fill="#ffd2c2" d="M968.4,1056.9c0,0.1,0.1,0.1,0.1,0.2c0.1,0.2,0.3,0.4,0.4,0.6l0,0c0.1,0.2,0.2,0.4,0.3,0.6
		c0,0.1,0.1,0.2,0.1,0.3c0,0.1,0.1,0.2,0.1,0.4c0,0.1,0.1,0.2,0.1,0.3c0,0.1,0.1,0.2,0.1,0.3c0,0.1,0,0.2,0.1,0.4c0,0.1,0,0.2,0,0.3
		c0,0.1,0,0.2,0,0.4c0,0.1,0,0.3,0,0.4s0,0.2,0,0.3c0,0.2,0,0.3,0,0.5c0,0.1,0,0.1,0,0.2l-1.7,14c-2,16.4,1.7,33.3,10.4,47.4l7,11.4
		c0.9-0.5,1.8-0.9,2.7-1.3l11.2-5.1c0.9-10.7,4.5-22.9,10.8-36.3c5.9-12.4,13.7-25.1,22.1-35.7c0,0,0,0,0-0.1c0,0,0-0.1,0.1-0.1
		c0-0.1,0.1-0.1,0.1-0.2c0.1-0.1,0.2-0.2,0.2-0.3l74.1-80.2c-0.2-0.7-0.4-1.5-0.4-2.4v-43.7c-52.6,21.8-106.4,20.9-145.2,15.2
		c-10.2-1.4-20.1-3.3-29.6-5.7c-19-4.5-34.1-9.6-43.5-13.2v41.1c0,0.8-0.1,1.5-0.3,2.2l80,86.6c0.1,0.1,0.2,0.2,0.2,0.3
		c0.1,0.1,0.1,0.1,0.2,0.2C968.2,1056.7,968.3,1056.8,968.4,1056.9z"/><path fill="#e0ff17" d="M987.3,1289.2c-0.6,0-1.1,0.5-1.1,1.1s0.5,1.1,1.1,1.1s1.1-0.5,1.1-1.1S988,1289.2,987.3,1289.2z"/><path fill="#ffd2c2" d="M963.2,929.6c12.8,1.8,26.3,2.8,40.3,3c42.8-0.6,80.1-8.6,111.3-23.6c1.1-1,2.4-1.7,3.9-1.9
		c1.7-0.9,3.3-1.7,4.9-2.6c27.6-15.2,50-36.5,66.7-63.4c28.4-45.9,30-92.4,30-92.9c0.1-4.2,3.6-7.5,7.8-7.5c4.2,0.1,7.6,3.5,7.6,7.7
		v30.3c7.8,0.2,21.3-0.3,35.3-4.8c27.6-8.8,44.1-28.8,49-59.2c3.8-23.6,3.7-64.4-40.5-73.3c-0.7-0.1-1.4-0.4-2-0.7l-22.4,4.7
		c-0.5,0.1-1.1,0.2-1.6,0.2c-1.1,0-2.2-0.2-3.2-0.7c-32.4-14.9-33.4-69.1-34.4-121.5c-0.5-25.8-1-52.5-5.4-71.7
		c-11.1-7.5-27.3-8.8-39.2-8.5c-14.5,0.3-26.3,3-26.4,3.1c-4.2,1-8.3-1.6-9.2-5.8c-1-4.1,1.6-8.3,5.7-9.2c0.5-0.1,13.2-3.1,29.3-3.5
		c10.6-0.3,20.1,0.6,28.3,2.6c-2-1.8-4.2-3.4-6.7-4.8c-27.6-15.9-74.8-2.9-75.3-2.8c-2.7,0.8-5.7,0-7.6-2.1
		c-0.2-0.3-24.9-25.7-59.9-43c-8.9-4.4-17.7-7.9-26.3-10.4c15.1,9.7,30,24,38.2,44.5c1.6,3.9-0.3,8.4-4.3,10
		c-0.9,0.4-1.9,0.6-2.9,0.6c-3.1,0-5.9-1.8-7.1-4.8c-16.4-40.7-66.2-52.8-73.9-54.4c-12.4,1.9-24.3,6.2-35.6,12.8
		c20.5,1.8,48.7,9.3,66.8,35c2.5,3.5,1.6,8.3-1.9,10.7c-1.3,1-2.9,1.4-4.4,1.4c-2.4,0-4.8-1.1-6.3-3.3
		c-22.2-31.5-65.6-29.4-75.5-28.5c-37.3,31.5-65.1,76.6-89.8,116.9c-14.4,23.4-27.3,44.4-40.4,60.1c-7.7,35.9,4.8,72.1,5,72.4
		c0.9,2.5,0.4,5.2-1.2,7.3c-1.5,1.9-3.7,3-6.1,3c-0.2,0-0.4,0-0.7,0c-22.9-2-44.2-8.4-50-10.3c-4.9,0.5-24,3.2-36.3,18.2
		c-10.5,12.8-13.9,31.6-9.9,55.9c5,30.6,21.6,50.5,49.5,59.3c16.9,5.3,32.9,4.9,39,4.4c-3.7-17.3-4.1-28.9-4.1-29.9
		c-0.1-4.3,3.2-7.8,7.5-7.9c0.1,0,0.1,0,0.2,0c4.2,0,7.6,3.3,7.7,7.5c0,0.5,1.7,47.5,30.4,93.4c16.7,26.7,39.1,47.9,66.7,63
		c15.4,8.4,32.4,14.9,51,19.5c7,1.6,14.5,3.2,22.5,4.5C959.2,929,961.2,929.3,963.2,929.6z M1077.2,691.7c-10,0-17.9-9.8-17.9-22.3
		s7.8-22.3,17.9-22.3s17.9,9.8,17.9,22.3S1087.3,691.7,1077.2,691.7z M1050.9,583c44-27,82.4-7.5,84-6.7c3.8,2,5.2,6.6,3.3,10.4
		c-2,3.8-6.6,5.2-10.4,3.3c-1.3-0.7-32.6-16.1-68.9,6.2c-1.3,0.8-2.6,1.1-4,1.1c-2.6,0-5.1-1.3-6.6-3.7
		C1046.2,589.9,1047.3,585.2,1050.9,583z M979,721.5l9.4-26.3c1.4-4,5.8-6.1,9.8-4.7c4,1.4,6.1,5.8,4.7,9.8l-9.4,26.3
		c-0.8,2.3-0.5,4.7,0.9,6.7s3.6,3.1,6,3.1h10.5c4.3,0,7.7,3.4,7.7,7.7s-3.4,7.7-7.7,7.7h-10.5c-7.4,0-14.3-3.6-18.6-9.6
		S976.5,728.4,979,721.5z M964.9,811.1c2.8-3.2,7.6-3.6,10.9-0.8c17.7,15.1,34.1,15.1,51.8,0c3.2-2.8,8.1-2.4,10.9,0.8
		s2.4,8.1-0.8,10.9c-11.7,10.1-23.8,15.1-35.9,15.1s-24.2-5-35.9-15.1C962.5,819.2,962.2,814.3,964.9,811.1z M913.2,691.7
		c-10,0-17.9-9.8-17.9-22.3s7.8-22.3,17.9-22.3s17.9,9.8,17.9,22.3C931,681.9,923.2,691.7,913.2,691.7z M936.8,593.5
		c-1.5,2.4-4,3.7-6.6,3.7c-1.4,0-2.8-0.4-4-1.1c-36.3-22.3-67.6-6.8-68.9-6.2c-3.8,1.9-8.4,0.4-10.4-3.3c-1.9-3.8-0.5-8.4,3.3-10.3
		c1.6-0.8,40-20.3,84,6.7C937.8,585.2,939,589.9,936.8,593.5z"/><path fill="#fffdd2" d="M869.2,924.5c-20.1,3.8-38.2,13.7-52.4,28.5l-0.1,0.1c-17,17.7-20.4,45.1-8.3,66.4l55.5,97.7
		c10.8-20,33.9-56.5,63.3-66.4c4.2-1.4,8.3-2.2,12.4-2.5l-81.2-88c-2.9-3.1-2.7-8,0.4-10.9c3.1-2.9,8-2.7,10.9,0.4l2.9,3.1v-29.2
		L869.2,924.5z"/><path fill="#8a773b" d="M734.6,625.2c0.1,0,0.2,0,0.3,0s0.1,0,0.2,0c0.1,0,0.2,0,0.3,0s0.2,0,0.3,0s0.1,0,0.2,0c0.1,0,0.2,0,0.2,0.1
		c0.1,0,0.2,0,0.3,0.1c0.1,0,0.2,0.1,0.3,0.1c0,0,0,0,0.1,0c0.2,0.1,16.8,5.7,36.6,8.7c-2.7-11-5.9-28.8-4.8-48.6
		c-8.8,6.6-17.9,10.3-27.8,10.3c-4.3,0-7.7-3.4-7.7-7.7s3.4-7.7,7.7-7.7c10.8,0,21.5-7.9,32.4-20.7c0.1-0.1,0.2-0.2,0.3-0.4
		c12.7-14.9,25.8-36.3,40-59.3c25.8-42,54.7-89.1,94.9-122.2c0.1-0.1,0.2-0.2,0.3-0.2c3.3-2.7,6.8-5.4,10.3-8
		c16.3-11.8,34-19.1,52.7-21.8c0.7-0.2,1.4-0.3,2.1-0.3c26.1-3.3,54,2.1,83,16.4c30.2,14.9,52.6,35,60.6,42.7
		c13.5-3.1,54.7-10.7,82.7,5.4c12.7,7.3,21.1,18.4,24.8,33c5.5,21.1,6,48.7,6.6,77.9c0.8,44.1,1.8,93.9,23.3,106.7l29.2-6.1
		c9.6-28.1,23-96.3,26.4-146.1c2.6-38.4-3.5-71.8-18.3-99.2c-11.7-21.8-28.9-40-51.2-54.1c-38.2-24.2-78.1-27.9-78.5-27.9
		c-2.6-0.2-4.9-1.8-6.2-4.1c-17.8-34-50.8-56.1-95.6-63.8c-39.9-6.9-87.7-2.3-134.7,13S842.4,276,811,302.1
		c-29.6,24.7-55.6,55.9-84.1,101.1c-0.2,0.3-0.3,0.5-0.5,0.7s-20.1,25.4-29.1,65.5c-5.3,23.4-5.9,47.3-1.8,71
		c4.9,28.6,16.7,57,35.1,84.6h3.8h0.1C734.3,625.2,734.5,625.2,734.6,625.2z"/><path fill="#fffdd2" d="M1130.5,950c2.9-3.1,7.8-3.3,10.9-0.4c3.1,2.9,3.3,7.8,0.4,10.9l-81.2,88c4.1,0.3,8.3,1.1,12.4,2.5
		c29.4,9.9,52.5,46.4,63.3,66.4l55.5-97.7c12.1-21.4,8.7-48.7-8.3-66.4l-0.1-0.1c-14.2-14.8-32.3-24.6-52.4-28.5l-9.3-1.8v36.8
		L1130.5,950z"/><path fill="#71af77" d="M1616.7,1782.9c-0.1-1.2-11.5-115-27.7-237.3l-144.5,54.1l-11.8,183c-0.3,4.1-3.6,7.2-7.7,7.2
		c-0.2,0-0.3,0-0.5,0c-4.2-0.3-7.5-3.9-7.2-8.2l12.1-187.8l0,0l24.4-378.7c0.3-4.2,3.9-7.5,8.2-7.2c4.2,0.3,7.5,3.9,7.2,8.2
		l-23.6,366.7l170.1-63.6c-6.6-37.2-43.7-232-115-337.2c-0.1-0.1-0.1-0.2-0.2-0.3c0,0,0-0.1-0.1-0.1c-32.4-53.7-80-98.7-141.2-133.7
		c-42.8-24.5-91.5-43.7-144.7-57.1c0.2,12.7-2.9,25.2-9.3,36.4l-62.6,110.3c-1.4,2.4-3.9,3.9-6.7,3.9c-0.1,0-0.3,0-0.4,0
		c-2.9-0.1-5.5-1.9-6.7-4.6c-0.1-0.1-6.9-15.5-18.1-32c-14.2-21.1-29-34.7-42.7-39.3c-8.6-2.9-16.7-2.3-24.8,1.8
		c-14.1,18.2-28.9,46.2-28.9,66.3c0,3-1.8,5.8-4.5,7l-15.5,7c-17.8,8-29.3,25.8-29.3,45.3l-0.3,153.7h42.9V1175
		c0-4.3,3.4-7.7,7.7-7.7s7.7,3.4,7.7,7.7v179.4c0,4.3-3.4,7.7-7.7,7.7H957c-2,0-4-0.8-5.5-2.3s-2.3-3.4-2.2-5.5l0.3-161.4
		c0.1-19.3,8.7-37.2,22.9-49.4l-7.3-11.9c-10.4-17.1-14.9-37.4-12.5-57.2l1-8.5c-7-2.7-14.1-2.8-21.6-0.3
		c-13.7,4.6-28.5,18.2-42.7,39.3c-11.2,16.5-18,31.9-18.1,32c-1.2,2.7-3.8,4.4-6.7,4.6c-0.1,0-0.3,0-0.4,0c-2.8,0-5.3-1.5-6.7-3.9
		L795,1027.2c-6.4-11.2-9.5-23.7-9.3-36.4c-53.2,13.5-101.9,32.7-144.7,57.1c-61.3,35-108.8,80-141.2,133.7c0,0,0,0.1-0.1,0.1
		c-0.1,0.1-0.1,0.2-0.2,0.3c-71.3,105.2-108.4,300.1-115,337.2l170.1,63.6L531,1216.2c-0.3-4.2,2.9-7.9,7.2-8.2
		c4.2-0.3,7.9,2.9,8.2,7.2l24.4,378.7l0,0l12.1,187.8c0.3,4.2-2.9,7.9-7.2,8.2c-0.2,0-0.3,0-0.5,0c-4,0-7.4-3.1-7.7-7.2l-11.8-183
		l-144.5-54.1c-16.1,122.3-27.5,236.2-27.7,237.3c-0.4,4-3.7,6.9-7.7,6.9h1248.5C1620.5,1789.9,1617.1,1786.9,1616.7,1782.9z
		 M987.3,1304.6c-7.9,0-14.3-6.4-14.3-14.3s6.4-14.3,14.3-14.3s14.3,6.4,14.3,14.3S995.2,1304.6,987.3,1304.6z M987.3,1219.1
		c-7.9,0-14.3-6.4-14.3-14.3s6.4-14.3,14.3-14.3s14.3,6.4,14.3,14.3S995.2,1219.1,987.3,1219.1z"/><path fill="#e0ff17" d="M987.3,1203.7c-0.6,0-1.1,0.5-1.1,1.1s0.5,1.1,1.1,1.1s1.1-0.5,1.1-1.1S988,1203.7,987.3,1203.7z"/><polygon fill="#ffd2c2" points="404.7 1535.1 375.9 1789.9 575.2 1789.9 563.1 1597.4"/><polygon fill="#ffd2c2" points="1595.3 1535.1 1437.1 1594.3 1425.1 1789.9 1624.4 1789.9"/><path fill="#fffdd2" d="M970.1,1156.8c0,0-13.4,3.2-13.3,73.3v124.4h58.3v-179.4l-3.2-34.7c-0.2-2.3-2.2-4-4.5-3.8
		C998.8,1137.4,978.7,1140.8,970.1,1156.8z"/><path fill="#8a773b" d="M874.3,423.9l239.4-6.7c0,0,40,18.3,108.3,63.2c0,0,4.9-95.9-107.2-68.5c0,0-99-85.6-176.8-48.8
		C937.9,363.1,886.3,404.2,874.3,423.9z"/><g><path fill="none" stroke="#000" stroke-linecap="round" stroke-linejoin="round" stroke-miterlimit="10" stroke-width="15.4" d="M1135.9,966.4"/><path fill="none" stroke="#000" stroke-linecap="round" stroke-linejoin="round" stroke-miterlimit="10" stroke-width="15.4" d="M880.2,967.3v-52.6c0,0,122.7,56.5,233.7,3.2v55.6"/><path fill="none" stroke="#000" stroke-linecap="round" stroke-linejoin="round" stroke-miterlimit="10" stroke-width="15.4" d="M1131.6,968.2"/><g><line x1="538.5" x2="575" y1="1215.8" y2="1782.3" fill="none" stroke="#000" stroke-linecap="round" stroke-linejoin="round" stroke-miterlimit="10" stroke-width="15.4"/><path fill="none" stroke="#000" stroke-linecap="round" stroke-linejoin="round" stroke-miterlimit="10" stroke-width="15.4" d="M493,1177.7c74.8-123.8,210.6-174.7,295.6-195.6"/><path fill="none" stroke="#000" stroke-linecap="round" stroke-linejoin="round" stroke-miterlimit="10" stroke-width="15.4" d="M562.9,1594.3l-187.2-70.1c0,0,36.8-227.7,117.3-346.5"/><path fill="none" stroke="#000" stroke-linecap="round" stroke-linejoin="round" stroke-miterlimit="10" stroke-width="15.4" d="M375.7,1782.3c0,0,12-119.7,29-247.2"/></g><path fill="none" stroke="#000" stroke-linecap="round" stroke-linejoin="round" stroke-miterlimit="10" stroke-width="15.4" d="M863.9,955.3l97.9,106.1c-52.7-29.1-97.7,72.4-97.7,72.4l-62.6-110.3c-13.9-24.5-10.1-55.2,9.4-75.5l0.1-0.1
			c15.2-15.9,35-26.6,56.5-30.7l12.5-2.4"/><g><line x1="1461.5" x2="1425" y1="1215.8" y2="1782.3" fill="none" stroke="#000" stroke-linecap="round" stroke-linejoin="round" stroke-miterlimit="10" stroke-width="15.4"/><path fill="none" stroke="#000" stroke-linecap="round" stroke-linejoin="round" stroke-miterlimit="10" stroke-width="15.4" d="M1507,1177.7c-74.8-123.8-210.6-174.7-295.6-195.6"/><path fill="none" stroke="#000" stroke-linecap="round" stroke-linejoin="round" stroke-miterlimit="10" stroke-width="15.4" d="M1437.1,1594.3l187.2-70.1c0,0-36.8-227.7-117.3-346.5"/><path fill="none" stroke="#000" stroke-linecap="round" stroke-linejoin="round" stroke-miterlimit="10" stroke-width="15.4" d="M1624.3,1782.3c0,0-12-119.7-29-247.2"/></g><path fill="none" stroke="#000" stroke-linecap="round" stroke-linejoin="round" stroke-miterlimit="10" stroke-width="15.4" d="M1136.1,955.3l-97.9,106.1c52.7-29.1,97.7,72.4,97.7,72.4l62.6-110.3c13.9-24.5,10.1-55.2-9.4-75.5l-0.1-0.1
			c-15.2-15.9-35-26.6-56.5-30.7l-12.5-2.4"/><path fill="none" stroke="#000" stroke-linecap="round" stroke-linejoin="round" stroke-miterlimit="10" stroke-width="15.4" d="M980.6,1142.4l-9-14.7c-9.6-15.7-13.6-34.1-11.4-52.3l1.7-14"/><path fill="none" stroke="#000" stroke-linecap="round" stroke-linejoin="round" stroke-miterlimit="10" stroke-width="15.4" d="M1038.1,1061.3c-14.6,18.4-31.6,49-31.6,72.4l0,0l-15.5,7c-20.6,9.3-33.8,29.7-33.8,52.3l-0.3,161.4h58.3
			V1175"/><circle cx="987.2" cy="1205" r="6.6" fill="none" stroke="#000" stroke-linecap="round" stroke-linejoin="round" stroke-miterlimit="10" stroke-width="15.4"/><circle cx="987.2" cy="1290.4" r="6.6" fill="none" stroke="#000" stroke-linecap="round" stroke-linejoin="round" stroke-miterlimit="10" stroke-width="15.4"/><path fill="none" stroke="#000" stroke-linecap="round" stroke-linejoin="round" stroke-miterlimit="10" stroke-width="15.4" d="M734,632.9L734,632.9c0,0-68,1.9-54.8,83.1s99.6,69.9,99.6,69.9"/><ellipse cx="913" cy="669.5" stroke="#000" stroke-linecap="round" stroke-linejoin="round" stroke-miterlimit="10" stroke-width="15.4" rx="10.2" ry="14.6"/><ellipse cx="1077.1" cy="669.5" stroke="#000" stroke-linecap="round" stroke-linejoin="round" stroke-miterlimit="10" stroke-width="15.4" rx="10.2" ry="14.6"/><path fill="none" stroke="#000" stroke-linecap="round" stroke-linejoin="round" stroke-miterlimit="10" stroke-width="15.4" d="M848.9,311.7"/><path fill="none" stroke="#000" stroke-linecap="round" stroke-linejoin="round" stroke-miterlimit="10" stroke-width="15.4" d="M1008.3,744.3"/><path fill="none" stroke="#000" stroke-linecap="round" stroke-linejoin="round" stroke-miterlimit="10" stroke-width="15.4" d="M995.7,692"/><path fill="none" stroke="#000" stroke-linecap="round" stroke-linejoin="round" stroke-miterlimit="10" stroke-width="15.4" d="M1044.9,794.8"/><path fill="none" stroke="#000" stroke-linecap="round" stroke-linejoin="round" stroke-miterlimit="10" stroke-width="15.4" d="M961,794.8"/><path fill="none" stroke="#000" stroke-linecap="round" stroke-linejoin="round" stroke-miterlimit="10" stroke-width="15.4" d="M993.1,713.6"/><path fill="none" stroke="#000" stroke-linecap="round" stroke-linejoin="round" stroke-miterlimit="10" stroke-width="15.4" d="M1019.3,744.3"/><path fill="none" stroke="#000" stroke-linecap="round" stroke-linejoin="round" stroke-miterlimit="10" stroke-width="15.4" d="M1019.3,750.7"/><path fill="none" stroke="#000" stroke-linecap="round" stroke-linejoin="round" stroke-miterlimit="10" stroke-width="15.4" d="M979.5,735.6"/><path fill="none" stroke="#000" stroke-linecap="round" stroke-linejoin="round" stroke-miterlimit="10" stroke-width="15.4" d="M993.1,695.5"/><path fill="none" stroke="#000" stroke-linecap="round" stroke-linejoin="round" stroke-miterlimit="10" stroke-width="15.4" d="M993.1,701.8"/><path fill="none" stroke="#000" stroke-linecap="round" stroke-linejoin="round" stroke-miterlimit="10" stroke-width="15.4" d="M995.5,697.9l-9.4,26.3c-3.5,9.8,3.8,20.1,14.2,20.1h10.5"/><path fill="none" stroke="#000" stroke-linecap="round" stroke-linejoin="round" stroke-miterlimit="10" stroke-width="15.4" d="M970.7,816.2c20.6,17.6,41.2,17.6,61.8,0"/><path fill="none" stroke="#000" stroke-linecap="round" stroke-linejoin="round" stroke-miterlimit="10" stroke-width="15.4" d="M1280.9,634c17.7,3.5,56.9,18.6,46.6,82.1c-13.2,81.2-99.6,69.9-99.6,69.9v-37.5c0,0-5.4,193.9-233.3,191.9
			h17.6c-227.9,2-233.3-191.9-233.3-191.9"/><path fill="none" stroke="#000" stroke-linecap="round" stroke-linejoin="round" stroke-miterlimit="10" stroke-width="15.4" d="M1142.9,438.8c0,0,49.1-11.5,74.2,8.4"/><path fill="none" stroke="#000" stroke-linecap="round" stroke-linejoin="round" stroke-miterlimit="10" stroke-width="15.4" d="M740.5,588.3c54.4,0,92-146.3,182.7-212.2s191.5,39.3,191.5,39.3s87.8-24.7,102.4,31.8
			c14.6,56.4-7.4,170.8,36.2,190.8l36.1-7.6c9.7-25.4,24.5-97.6,28.3-152.2c11.9-175-155-189.4-155-189.4
			c-41.1-78.7-148.7-84.1-239.5-54.5c-96.4,31.4-149.1,79.3-203.1,165.1c0,0-83.3,103.3,6.1,233.6h7.8"/><path fill="none" stroke="#000" stroke-linecap="round" stroke-linejoin="round" stroke-miterlimit="10" stroke-width="15.4" d="M734,632.9c0,0,24,8.2,49.7,10.4c0,0-14-39.3-4.8-78.6"/><path fill="none" stroke="#000" stroke-linecap="round" stroke-linejoin="round" stroke-miterlimit="10" stroke-width="15.4" d="M913,384c0,0,56.7-8.5,84.9,31.4"/><path fill="none" stroke="#000" stroke-linecap="round" stroke-linejoin="round" stroke-miterlimit="10" stroke-width="15.4" d="M973.4,355.5c0,0,61.2,10.9,80.6,59.3"/><path fill="none" stroke="#000" stroke-linecap="round" stroke-linejoin="round" stroke-miterlimit="10" stroke-width="15.4" d="M853.6,583.2c0,0,35.7-18.6,76.4,6.4"/><path fill="none" stroke="#000" stroke-linecap="round" stroke-linejoin="round" stroke-miterlimit="10" stroke-width="15.4" d="M1131.3,583.2c0,0-35.7-18.6-76.4,6.4"/></g></g></svg>